<?xml version="1.0" encoding="iso-8859-1"?>
<!-- Generator: Adobe Illustrator 15.1.0, SVG Export Plug-In . SVG Version: 6.00 Build 0)  -->
<!DOCTYPE svg PUBLIC "-//W3C//DTD SVG 1.1//EN" "http://www.w3.org/Graphics/SVG/1.1/DTD/svg11.dtd">
<svg version="1.1" id="Layer_1" xmlns="http://www.w3.org/2000/svg" xmlns:xlink="http://www.w3.org/1999/xlink" x="0px" y="0px"
	 width="1024px" height="1024px" viewBox="0 0 1024 1024" style="enable-background:new 0 0 1024 1024;" xml:space="preserve">
<g>
	<polygon points="0,0.001 0,0 0.001,0 	"/>
</g>
<g id="bloggie-cameras">
	<path d="M368,514c-7.72,0-14-6.28-14-14V100c0-7.72,6.28-14,14-14h272c7.72,0,14,6.28,14,14v400c0,7.72-6.28,14-14,14H368z
		 M382,486h244V114h-52v160H434V114h-52V486z M446,262h116V114H446V262z M504,226c-20.953,0-38-17.047-38-38s17.047-38,38-38
		s38,17.047,38,38S524.953,226,504,226z"/>
</g>
</svg>
