<?xml version="1.0" encoding="iso-8859-1"?>
<!-- Generator: Adobe Illustrator 15.1.0, SVG Export Plug-In . SVG Version: 6.00 Build 0)  -->
<!DOCTYPE svg PUBLIC "-//W3C//DTD SVG 1.1//EN" "http://www.w3.org/Graphics/SVG/1.1/DTD/svg11.dtd">
<svg version="1.1" id="Layer_1" xmlns="http://www.w3.org/2000/svg" xmlns:xlink="http://www.w3.org/1999/xlink" x="0px" y="0px"
	 width="1008px" height="1008px" viewBox="0 0 1008 1008" style="enable-background:new 0 0 1008 1008;" xml:space="preserve">
<g>
	<polygon points="0,0.001 0,0 0.001,0 	"/>
</g>
<g id="battery">
	<path d="M115.5,466c-4.687,0-8.5-3.813-8.5-8.5v-441c0-4.687,3.813-8.5,8.5-8.5h693c4.687,0,8.5,3.813,8.5,8.5V113h75.5
		c4.687,0,8.5,3.813,8.5,8.5v231c0,4.687-3.813,8.5-8.5,8.5H817v96.5c0,4.687-3.813,8.5-8.5,8.5H115.5z M187,386h550V88H187V386z
		 M577.5,340c-4.687,0-8.5-3.813-8.5-8.5v-189c0-4.687,3.813-8.5,8.5-8.5h105c4.687,0,8.5,3.813,8.5,8.5v189
		c0,4.687-3.813,8.5-8.5,8.5H577.5z M409.5,340c-4.687,0-8.5-3.813-8.5-8.5v-189c0-4.687,3.813-8.5,8.5-8.5h105
		c4.687,0,8.5,3.813,8.5,8.5v189c0,4.687-3.813,8.5-8.5,8.5H409.5z M241.5,340c-4.687,0-8.5-3.813-8.5-8.5v-189
		c0-4.687,3.813-8.5,8.5-8.5h105c4.687,0,8.5,3.813,8.5,8.5v189c0,4.687-3.813,8.5-8.5,8.5H241.5z"/>
</g>
</svg>
