<?xml version="1.0" encoding="iso-8859-1"?>
<!-- Generator: Adobe Illustrator 15.1.0, SVG Export Plug-In . SVG Version: 6.00 Build 0)  -->
<!DOCTYPE svg PUBLIC "-//W3C//DTD SVG 1.1//EN" "http://www.w3.org/Graphics/SVG/1.1/DTD/svg11.dtd">
<svg version="1.1" id="Layer_1" xmlns="http://www.w3.org/2000/svg" xmlns:xlink="http://www.w3.org/1999/xlink" x="0px" y="0px"
	 width="1024px" height="1024px" viewBox="0 0 1024 1024" style="enable-background:new 0 0 1024 1024;" xml:space="preserve">
<g>
	<polygon points="0,0.001 0,0 0.001,0 	"/>
</g>
<g id="_x36_-grid-3x3">
	<path d="M774,1034V790h244v244H774z M390,1034V790h244v244H390z M6,1034V790h244v244H6z M774,650V406h244v244H774z M390,650V406
		h244v244H390z M6,650V406h244v244H6z M774,266V22h244v244H774z M390,266V22h244v244H390z M6,266V22h244v244H6z"/>
</g>
</svg>
