<?xml version="1.0" encoding="utf-8"?>
<!-- Generator: Adobe Illustrator 15.1.0, SVG Export Plug-In  -->
<!DOCTYPE svg PUBLIC "-//W3C//DTD SVG 1.1//EN" "http://www.w3.org/Graphics/SVG/1.1/DTD/svg11.dtd" [
	<!ENTITY ns_flows "http://ns.adobe.com/Flows/1.0/">
]>
<svg version="1.1"
	 xmlns="http://www.w3.org/2000/svg" xmlns:xlink="http://www.w3.org/1999/xlink" xmlns:a="http://ns.adobe.com/AdobeSVGViewerExtensions/3.0/"
	 x="0px" y="0px" width="810px" height="1290px" viewBox="482 0 810 1290"
	 overflow="visible" enable-background="new 482 0 810 1290" xml:space="preserve">
<defs>
</defs>
<rect x="482" y="360" display="none" fill="#7A7D7F" fill-opacity="0.3" width="810" height="90"/>
<polygon display="none" fill="#7A7D7F" fill-opacity="0.3" points="1291.28,89.667 481.333,89.667 482.053,0 1292,0 "/>
<rect x="482" y="719.667" display="none" fill="#7A7D7F" fill-opacity="0.3" width="810" height="59.9"/>
<rect x="482" y="629.667" display="none" fill="#7A7D7F" fill-opacity="0.3" width="810" height="90"/>
<rect x="962" display="none" fill="#0303F9" fill-opacity="0.1" width="16" height="16"/>
<rect x="992" display="none" fill="#0303F9" fill-opacity="0.1" width="16" height="16"/>
<rect x="1022" display="none" fill="#0303F9" fill-opacity="0.1" width="33" height="33"/>
<polygon display="none" fill="#7A7D7F" fill-opacity="0.3" points="1291.279,180 481.333,180 482.053,90 1292,90 "/>
<rect x="482" y="450" display="none" fill="#7A7D7F" fill-opacity="0.3" width="810" height="179.668"/>
<rect x="482" y="779.767" display="none" fill="#7A7D7F" fill-opacity="0.3" width="810" height="29.9"/>
<rect x="482" y="809.667" display="none" fill="#7A7D7F" fill-opacity="0.3" width="810" height="59.9"/>
<rect x="482" y="869.667" display="none" fill="#7A7D7F" fill-opacity="0.3" width="810" height="120"/>
<rect x="482" y="180" display="none" fill="#7A7D7F" fill-opacity="0.3" width="810" height="179.668"/>
<line display="none" fill="none" stroke="#020202" stroke-width="2" stroke-miterlimit="10" x1="248" y1="89.667" x2="2096.333" y2="89.667"/>
<line display="none" fill="none" stroke="#020202" stroke-width="2" stroke-miterlimit="10" x1="243.676" y1="179.667" x2="2096.333" y2="179.667"/>
<line display="none" fill="none" stroke="#020202" stroke-width="2" stroke-miterlimit="10" x1="243.676" y1="360" x2="2096.333" y2="360"/>
<line display="none" fill="none" stroke="#020202" stroke-width="2" stroke-miterlimit="10" x1="243.676" y1="630" x2="2096.333" y2="630"/>
<line display="none" fill="none" stroke="#020202" stroke-width="2" stroke-miterlimit="10" x1="243.676" y1="779.667" x2="2096.333" y2="779.667"/>
<line display="none" fill="none" stroke="#020202" stroke-width="4" stroke-miterlimit="10" x1="0" y1="719.667" x2="2096.333" y2="719.667"/>
<line display="none" fill="none" stroke="#020202" stroke-width="2" stroke-miterlimit="10" x1="243.676" y1="810" x2="2096.333" y2="810"/>
<line display="none" fill="none" stroke="#020202" stroke-width="2" stroke-miterlimit="10" x1="243.676" y1="870" x2="2096.333" y2="870"/>
<line display="none" fill="none" stroke="#020202" stroke-width="2" stroke-miterlimit="10" x1="243.676" y1="990" x2="2096.333" y2="990"/>
<rect x="482" y="989.667" display="none" fill="#7A7D7F" fill-opacity="0.3" width="810" height="300"/>
<line display="none" fill="none" stroke="#020202" stroke-width="4" stroke-miterlimit="10" x1="0" y1="1290.333" x2="2096.333" y2="1290.333"/>
<line display="none" fill="none" stroke="#020202" stroke-width="2" stroke-miterlimit="10" x1="243.676" y1="450" x2="2096.333" y2="450"/>
<g>
	<path fill="#F35429" d="M513,440.75c0.133,0,0.25,0.117,0.25,0.25v1c0,0.133-0.117,0.25-0.25,0.25h-29
		c-0.133,0-0.25-0.117-0.25-0.25v-1c0-0.133,0.117-0.25,0.25-0.25H513 M513,439h-29c-1.1,0-2,0.9-2,2v1c0,1.1,0.9,2,2,2h29
		c1.1,0,2-0.9,2-2v-1C515,439.9,514.1,439,513,439L513,439z"/>
</g>
<g>
	<path fill="#F35429" d="M511,421.75c0.133,0,0.25,0.117,0.25,0.25v14c0,0.133-0.117,0.25-0.25,0.25h-25
		c-0.133,0-0.25-0.117-0.25-0.25v-14c0-0.133,0.117-0.25,0.25-0.25H511 M511,420h-25c-1.1,0-2,0.9-2,2v14c0,1.1,0.9,2,2,2h25
		c1.1,0,2-0.9,2-2v-14C513,420.9,512.1,420,511,420L511,420z"/>
</g>
<path fill="#F35429" d="M585.875,440.75h-12c-1.034,0-1.875-0.842-1.875-1.875v-7c0-1.033,0.841-1.875,1.875-1.875
	c0.066,0,0.125-0.059,0.125-0.125v-3c0-0.066-0.059-0.125-0.125-0.125c-1.034,0-1.875-0.842-1.875-1.875v-3
	c0-1.033,0.841-1.875,1.875-1.875h9c0.777,0,1.776,0.414,2.326,0.963l1.586,1.586c0.549,0.55,0.963,1.549,0.963,2.326v14
	C587.75,439.908,586.909,440.75,585.875,440.75z M573.875,421.75c-0.066,0-0.125,0.059-0.125,0.125v3
	c0,0.066,0.059,0.125,0.125,0.125c1.034,0,1.875,0.842,1.875,1.875v3c0,1.033-0.841,1.875-1.875,1.875
	c-0.066,0-0.125,0.059-0.125,0.125v7c0,0.066,0.059,0.125,0.125,0.125h12c0.066,0,0.125-0.059,0.125-0.125v-14
	c0-0.316-0.228-0.865-0.451-1.088l-1.586-1.586c-0.223-0.224-0.772-0.451-1.088-0.451H573.875z"/>
<path fill="#F35429" d="M584.875,435.875c0,1.1-0.9,2-2,2h-6c-1.1,0-2-0.9-2-2v-2c0-1.1,0.9-2,2-2h6c1.1,0,2,0.9,2,2V435.875z"/>
<path fill="#F35429" d="M582.322,423.77c-0.246-0.492-0.648-0.492-0.895,0l-1.105,2.211c-0.246,0.492,0.003,0.895,0.553,0.895h2
	c0.55,0,0.799-0.402,0.553-0.895L582.322,423.77z"/>
<path fill="#F35429" d="M634,420h-30c-1.1,0-2,0.9-2,2v17c0,1.1,0.9,2,2,2h13v3.125h-7c-0.483,0-0.875,0.392-0.875,0.875
	s0.392,0.875,0.875,0.875h18c0.483,0,0.875-0.392,0.875-0.875s-0.392-0.875-0.875-0.875h-7V441h13c1.1,0,2-0.9,2-2v-17
	C636,420.9,635.1,420,634,420z M634.25,439c0,0.133-0.117,0.25-0.25,0.25h-30c-0.133,0-0.25-0.117-0.25-0.25v-17
	c0-0.133,0.117-0.25,0.25-0.25h30c0.133,0,0.25,0.117,0.25,0.25V439z"/>
<path fill="#F35429" d="M697,420h-33c-1.1,0-2,0.9-2,2v12c0,1.1,0.9,2,2,2h1v1c0,0.55,0.45,1,1,1h1c0.55,0,1-0.45,1-1v-1h25v1
	c0,0.55,0.45,1,1,1h1c0.55,0,1-0.45,1-1v-1h1c1.1,0,2-0.9,2-2v-12C699,420.9,698.1,420,697,420z M697.25,434
	c0,0.133-0.117,0.25-0.25,0.25h-33c-0.133,0-0.25-0.117-0.25-0.25v-12c0-0.133,0.117-0.25,0.25-0.25h33
	c0.133,0,0.25,0.117,0.25,0.25V434z"/>
<path fill="#F35429" d="M690,423.126c-2.688,0-4.875,2.187-4.875,4.875s2.187,4.875,4.875,4.875s4.875-2.187,4.875-4.875
	S692.688,423.126,690,423.126z M690,431.126c-1.723,0-3.125-1.401-3.125-3.125s1.402-3.125,3.125-3.125s3.125,1.401,3.125,3.125
	S691.723,431.126,690,431.126z"/>
<path fill="#F35429" d="M674,424.5h-7c-0.276,0-0.5,0.224-0.5,0.5s0.224,0.5,0.5,0.5h7c0.276,0,0.5-0.224,0.5-0.5
	S674.276,424.5,674,424.5z"/>
<path fill="#F35429" d="M674,427.5h-7c-0.276,0-0.5,0.224-0.5,0.5s0.224,0.5,0.5,0.5h7c0.276,0,0.5-0.224,0.5-0.5
	S674.276,427.5,674,427.5z"/>
<path fill="#F35429" d="M674,430.5h-7c-0.276,0-0.5,0.224-0.5,0.5s0.224,0.5,0.5,0.5h7c0.276,0,0.5-0.224,0.5-0.5
	S674.276,430.5,674,430.5z"/>
<path fill="#F35429" d="M729.001,422.486l3.54,6.139c0.494,0.855,1.23,2.328,1.642,3.279c0.02,0.11,0.067,0.438,0.067,1.078
	c0,2.895-2.355,5.25-5.25,5.25s-5.25-2.355-5.25-5.25c0-0.641,0.047-0.967,0.067-1.078c0.413-0.953,1.148-2.425,1.642-3.28
	L729.001,422.486 M729,420c-0.362,0-0.725,0.238-0.999,0.715l-4.058,7.035c-0.549,0.952-1.351,2.561-1.781,3.572
	c0,0-0.163,0.383-0.163,1.66c0,3.865,3.135,7,7,7c3.866,0,7-3.135,7-7c0-1.277-0.162-1.659-0.162-1.659
	c-0.43-1.013-1.231-2.621-1.781-3.573L730,420.715C729.725,420.238,729.362,420,729,420L729,420z"/>
<path fill="#F35429" d="M762,434v-9c0-2.762-2.238-5-5-5s-5,2.238-5,5v9c0,2.467,1.792,4.506,4.143,4.914
	c-0.003,0.029-0.018,0.055-0.018,0.086v6c0,0.045,0.019,0.082,0.025,0.125H753c-0.483,0-0.875,0.392-0.875,0.875
	s0.392,0.875,0.875,0.875h8c0.483,0,0.875-0.392,0.875-0.875s-0.392-0.875-0.875-0.875h-3.15c0.006-0.043,0.025-0.08,0.025-0.125v-6
	c0-0.031-0.015-0.057-0.018-0.086C760.208,438.506,762,436.467,762,434z M760.25,434c0,1.792-1.458,3.25-3.25,3.25
	s-3.25-1.458-3.25-3.25v-9c0-1.792,1.458-3.25,3.25-3.25s3.25,1.458,3.25,3.25V434z"/>
<path fill="#F35429" d="M793.625,425.163v-2.288c0-0.483-0.392-0.875-0.875-0.875s-0.875,0.392-0.875,0.875v2.288
	c-1.062,0.18-1.875,1.1-1.875,2.212v7c0,1.112,0.813,2.032,1.875,2.212v5.288c0,1.723-1.402,3.125-3.125,3.125
	s-3.125-1.402-3.125-3.125v-7.288c1.062-0.18,1.875-1.1,1.875-2.212v-7c0-1.112-0.813-2.032-1.875-2.212v-2.288
	c0-0.483-0.392-0.875-0.875-0.875s-0.875,0.392-0.875,0.875v2.288c-1.062,0.18-1.875,1.1-1.875,2.212v7
	c0,1.112,0.813,2.032,1.875,2.212v7.288c0,2.688,2.187,4.875,4.875,4.875s4.875-2.188,4.875-4.875v-5.288
	c1.062-0.18,1.875-1.1,1.875-2.212v-7C795.5,426.263,794.687,425.343,793.625,425.163z M784.25,424.875h1c0.275,0,0.5,0.225,0.5,0.5
	v2.5h-2v-2.5C783.75,425.1,783.975,424.875,784.25,424.875z M793.75,434.375c0,0.275-0.225,0.5-0.5,0.5h-1
	c-0.275,0-0.5-0.225-0.5-0.5v-7c0-0.275,0.225-0.5,0.5-0.5h1c0.275,0,0.5,0.225,0.5,0.5V434.375z"/>
<g>
	<path fill="#F35429" d="M559,421.75c0.133,0,0.25,0.117,0.25,0.25v22c0,0.133-0.117,0.25-0.25,0.25h-15
		c-0.133,0-0.25-0.117-0.25-0.25v-22c0-0.133,0.117-0.25,0.25-0.25H559 M559,420h-15c-1.1,0-2,0.9-2,2v22c0,1.1,0.9,2,2,2h15
		c1.1,0,2-0.9,2-2v-22C561,420.9,560.1,420,559,420L559,420z"/>
</g>
<g>
	<path fill="#F35429" d="M557,424v16h-11v-16H557 M558,423h-13v18h13V423L558,423z"/>
</g>
<g>
	<path fill="#F35429" d="M825,421.75c6.203,0,11.25,5.047,11.25,11.25s-5.047,11.25-11.25,11.25s-11.25-5.047-11.25-11.25
		S818.797,421.75,825,421.75 M825,420c-7.18,0-13,5.82-13,13s5.82,13,13,13s13-5.82,13-13S832.18,420,825,420L825,420z"/>
</g>
<g>
	<path fill="#F35429" d="M825,429c2.206,0,4,1.795,4,4s-1.794,4-4,4s-4-1.795-4-4S822.794,429,825,429 M825,428
		c-2.762,0-5,2.238-5,5s2.238,5,5,5s5-2.238,5-5S827.762,428,825,428L825,428z"/>
</g>
<g>
	<path fill="#F35429" d="M825,431.5c0.827,0,1.5,0.673,1.5,1.5s-0.673,1.5-1.5,1.5s-1.5-0.673-1.5-1.5S824.173,431.5,825,431.5
		 M825,430.5c-1.381,0-2.5,1.119-2.5,2.5s1.119,2.5,2.5,2.5s2.5-1.119,2.5-2.5S826.381,430.5,825,430.5L825,430.5z"/>
</g>
<path fill="#F35429" d="M868.867,441.75h-12.084c-0.483,0-0.875-0.392-0.875-0.875v-11.5c0-0.484,0.392-0.875,0.875-0.875h16.334
	c0.483,0,0.875,0.391,0.875,0.875v7.25C873.992,439.451,871.693,441.75,868.867,441.75z M857.658,440h11.209
	c1.861,0,3.375-1.514,3.375-3.375v-6.375h-14.584V440z"/>
<path fill="#F35429" d="M873.504,420h-30.629c-0.483,0-0.875,0.392-0.875,0.875v9.272c0,0.483,0.392,0.875,0.875,0.875h3.762v3.671
	c0,3.891,3.165,7.057,7.056,7.057c0.483,0,0.875-0.392,0.875-0.875v-13.717h18.937c1.974,0,3.58-1.605,3.58-3.578
	C877.084,421.605,875.478,420,873.504,420z M843.75,421.75h1.482v7.522h-1.482V421.75z M873.504,425.408h-19.812
	c-0.483,0-0.875,0.393-0.875,0.875v13.645c-2.511-0.418-4.431-2.606-4.431-5.234v-4.546c0-0.483-0.392-0.875-0.875-0.875h-1.279
	v-7.522h27.271c1.009,0,1.83,0.82,1.83,1.83C875.334,424.588,874.513,425.408,873.504,425.408z"/>
<path fill="#F35429" d="M934.625,447.75h-19.75c-0.483,0-0.875-0.392-0.875-0.875v-16c0-0.483,0.392-0.875,0.875-0.875h24
	c0.483,0,0.875,0.392,0.875,0.875v11.75C939.75,445.451,937.451,447.75,934.625,447.75z M915.75,446h18.875
	c1.861,0,3.375-1.514,3.375-3.375V431.75h-22.25V446z"/>
<path fill="#F35429" d="M906.875,443.75h-4c-0.483,0-0.875-0.392-0.875-0.875v-10c0-0.483,0.392-0.875,0.875-0.875h4
	c0.292,0,0.566,0.146,0.728,0.39l1.074,1.61h3.198c0.483,0,0.875,0.393,0.875,0.875v6c0,0.484-0.392,0.875-0.875,0.875h-3.199
	l-1.073,1.61C907.441,443.604,907.167,443.75,906.875,443.75z M903.75,442h2.657l1.073-1.609c0.162-0.244,0.436-0.391,0.728-0.391
	H911v-4.25h-2.791c-0.292,0-0.566-0.146-0.728-0.389l-1.074-1.611h-2.657V442z"/>
<path fill="#F35429" d="M936.875,428.75h-4c-0.275,0-0.535-0.13-0.7-0.35l-2.737-3.65h-6.688v3.125c0,0.483-0.392,0.875-0.875,0.875
	h-3c-0.483,0-0.875-0.392-0.875-0.875v-7c0-0.483,0.392-0.875,0.875-0.875h13c0.282,0,0.548,0.137,0.712,0.366l5,7
	c0.19,0.267,0.216,0.618,0.066,0.909C937.503,428.566,937.203,428.75,936.875,428.75z M933.312,427h1.862l-3.75-5.25H919.75V427H921
	v-3.125c0-0.483,0.392-0.875,0.875-0.875h8c0.275,0,0.535,0.13,0.7,0.35L933.312,427z"/>
<path fill="#F35429" d="M967.875,426.75h-5c-0.483,0-0.875-0.392-0.875-0.875v-5c0-0.483,0.392-0.875,0.875-0.875h5
	c0.483,0,0.875,0.392,0.875,0.875v5C968.75,426.358,968.358,426.75,967.875,426.75z M963.75,425H967v-3.25h-3.25V425z"/>
<path fill="#F35429" d="M977.875,426.75h-5c-0.483,0-0.875-0.392-0.875-0.875v-5c0-0.483,0.392-0.875,0.875-0.875h5
	c0.483,0,0.875,0.392,0.875,0.875v5C978.75,426.358,978.358,426.75,977.875,426.75z M973.75,425H977v-3.25h-3.25V425z"/>
<path fill="#F35429" d="M987.875,426.75h-5c-0.483,0-0.875-0.392-0.875-0.875v-5c0-0.483,0.392-0.875,0.875-0.875h5
	c0.483,0,0.875,0.392,0.875,0.875v5C988.75,426.358,988.358,426.75,987.875,426.75z M983.75,425H987v-3.25h-3.25V425z"/>
<path fill="#F35429" d="M967.875,436.75h-5c-0.483,0-0.875-0.392-0.875-0.875v-5c0-0.483,0.392-0.875,0.875-0.875h5
	c0.483,0,0.875,0.392,0.875,0.875v5C968.75,436.358,968.358,436.75,967.875,436.75z M963.75,435H967v-3.25h-3.25V435z"/>
<path fill="#F35429" d="M977.875,436.75h-5c-0.483,0-0.875-0.392-0.875-0.875v-5c0-0.483,0.392-0.875,0.875-0.875h5
	c0.483,0,0.875,0.392,0.875,0.875v5C978.75,436.358,978.358,436.75,977.875,436.75z M973.75,435H977v-3.25h-3.25V435z"/>
<path fill="#F35429" d="M987.875,436.75h-5c-0.483,0-0.875-0.392-0.875-0.875v-5c0-0.483,0.392-0.875,0.875-0.875h5
	c0.483,0,0.875,0.392,0.875,0.875v5C988.75,436.358,988.358,436.75,987.875,436.75z M983.75,435H987v-3.25h-3.25V435z"/>
<path fill="#F35429" d="M967.875,446.75h-5c-0.483,0-0.875-0.392-0.875-0.875v-5c0-0.483,0.392-0.875,0.875-0.875h5
	c0.483,0,0.875,0.392,0.875,0.875v5C968.75,446.358,968.358,446.75,967.875,446.75z M963.75,445H967v-3.25h-3.25V445z"/>
<path fill="#F35429" d="M977.875,446.75h-5c-0.483,0-0.875-0.392-0.875-0.875v-5c0-0.483,0.392-0.875,0.875-0.875h5
	c0.483,0,0.875,0.392,0.875,0.875v5C978.75,446.358,978.358,446.75,977.875,446.75z M973.75,445H977v-3.25h-3.25V445z"/>
<path fill="#F35429" d="M987.875,446.75h-5c-0.483,0-0.875-0.392-0.875-0.875v-5c0-0.483,0.392-0.875,0.875-0.875h5
	c0.483,0,0.875,0.392,0.875,0.875v5C988.75,446.358,988.358,446.75,987.875,446.75z M983.75,445H987v-3.25h-3.25V445z"/>
<path fill="#F35429" d="M1045.875,433.25c-0.482,0-0.875-0.392-0.875-0.875v-1c0-5.307-4.317-9.625-9.625-9.625
	c-5.307,0-9.625,4.318-9.625,9.625v1c0,0.483-0.391,0.875-0.875,0.875c-0.482,0-0.875-0.392-0.875-0.875v-1
	c0-6.271,5.104-11.375,11.375-11.375c6.272,0,11.375,5.104,11.375,11.375v1C1046.75,432.858,1046.359,433.25,1045.875,433.25z"/>
<path fill="#F35429" d="M1045.875,446.25c-1.585,0-2.875-1.289-2.875-2.875v-6c0-1.586,1.29-2.875,2.875-2.875
	c1.586,0,2.875,1.289,2.875,2.875v6C1048.75,444.961,1047.461,446.25,1045.875,446.25z M1045.875,436.25
	c-0.619,0-1.125,0.505-1.125,1.125v6c0,0.62,0.506,1.125,1.125,1.125c0.621,0,1.125-0.505,1.125-1.125v-6
	C1047,436.755,1046.496,436.25,1045.875,436.25z"/>
<path fill="#F35429" d="M1024.875,446.25c-1.585,0-2.875-1.289-2.875-2.875v-6c0-1.586,1.29-2.875,2.875-2.875
	c1.586,0,2.875,1.289,2.875,2.875v6C1027.75,444.961,1026.461,446.25,1024.875,446.25z M1024.875,436.25
	c-0.619,0-1.125,0.505-1.125,1.125v6c0,0.62,0.506,1.125,1.125,1.125c0.621,0,1.125-0.505,1.125-1.125v-6
	C1026,436.755,1025.496,436.25,1024.875,436.25z"/>
<path fill="#F35429" d="M1069.202,420.109l-6.8-0.002c-1.586,0-2.876,1.29-2.876,2.875l-0.001,0.801c0,1.586,1.29,2.875,2.875,2.875
	l5.238,0.001V443c0,0.276,0.224,0.5,0.5,0.5s0.5-0.224,0.5-0.5v-16.341h0.563c1.585,0,2.875-1.29,2.875-2.875v-0.8
	C1072.077,421.398,1070.787,420.109,1069.202,420.109z M1070.327,423.784c0,0.62-0.505,1.125-1.125,1.125l-6.802-0.001
	c-0.62,0-1.125-0.504-1.125-1.123l0.001-0.803c0-0.619,0.505-1.125,1.126-1.125l6.8,0.002c0.62,0,1.125,0.504,1.125,1.125V423.784z"
	/>
<path fill="#F35429" d="M1056.424,420c-0.619,0-1.814,0.355-2.719,0.809c-0.939,0.471-1.705,1.625-1.705,2.574
	c0,0.948,0.766,2.103,1.705,2.574c0.904,0.453,2.1,0.808,2.717,0.808c0.846,0.001,1.302-1.474,1.302-2.862v-1.041
	C1057.724,421.476,1057.268,420,1056.424,420z"/>
<path fill="#F35429" d="M1086.6,420.107l-6.801,0.002c-1.585,0-2.875,1.289-2.875,2.875v0.8c0,1.585,1.29,2.875,2.875,2.875h0.564
	V443c0,0.276,0.224,0.5,0.5,0.5s0.5-0.224,0.5-0.5v-16.341l5.237-0.001c1.585,0,2.874-1.289,2.874-2.875v-0.801
	C1089.475,421.397,1088.185,420.107,1086.6,420.107z M1087.725,423.783c0,0.621-0.504,1.125-1.124,1.125l-6.802,0.001
	c-0.62,0-1.125-0.505-1.125-1.125v-0.8c0-0.621,0.505-1.125,1.125-1.125l6.801-0.002c0.62,0,1.125,0.506,1.125,1.125V423.783z"/>
<path fill="#F35429" d="M1095.295,420.809c-0.904-0.453-2.1-0.809-2.717-0.809c-0.846,0-1.301,1.476-1.301,2.861v1.041
	c0,1.389,0.457,2.863,1.301,2.862c0.619,0,1.814-0.354,2.718-0.808c0.94-0.472,1.704-1.626,1.704-2.574
	C1097,422.434,1096.236,421.279,1095.295,420.809z"/>
<path fill="#F35429" d="M1152.875,434.415c1.654,0,3-1.346,3-3s-1.346-3-3-3s-3,1.346-3,3S1151.221,434.415,1152.875,434.415z
	 M1152.875,429.415c1.104,0,2,0.897,2,2s-0.896,2-2,2s-2-0.897-2-2S1151.771,429.415,1152.875,429.415z"/>
<path fill="#F35429" d="M1185.725,430.112c-0.443-0.192-0.959,0.011-1.152,0.454c-1.133,2.609-2.52,4.089-4.122,4.397
	c-2.296,0.442-4.437-1.647-4.448-1.66c-13.715-14.04-22.703-13.382-23.688-13.264c-5.501,0.039-10.314,5.337-10.314,11.375v0.875
	h3.557c0.436,3.655,3.549,6.5,7.318,6.5c4.066,0,7.375-3.309,7.375-7.375s-3.309-7.375-7.375-7.375c-3.77,0-6.883,2.845-7.318,6.5
	h-1.762c0.432-4.296,3.959-8.75,8.58-8.75l0.132-0.01c0.085-0.013,8.733-1.083,22.25,12.753c0.101,0.102,2.277,2.242,5.04,2.242
	c0.316,0,0.641-0.027,0.972-0.091c2.209-0.419,4.028-2.243,5.409-5.421C1186.371,430.82,1186.168,430.305,1185.725,430.112z
	 M1152.875,425.79c3.102,0,5.625,2.523,5.625,5.625s-2.523,5.625-5.625,5.625s-5.625-2.523-5.625-5.625
	S1149.773,425.79,1152.875,425.79z"/>
<path fill="#F35429" d="M1126.572,425.866l-6.061-4.986c-0.244-0.183-1.516-1.077-2.686-0.841c-1.897,0.385-2.418,2.232-2.429,3.166
	l0.001,3.252c0,0.077,0.025,0.146,0.044,0.219c-0.673,0.318-1.144,1.006-1.144,1.809v3.104c-1.361,0.711-2.299,2.119-2.299,3.762
	c0,2.359,1.912,4.271,4.273,4.271c2.358,0,4.271-1.912,4.271-4.271c0-1.643-0.937-3.052-2.299-3.763v-3.103
	c0-0.801-0.47-1.488-1.143-1.809c0.02-0.071,0.045-0.141,0.045-0.219l-0.001-3.242c0-0.013,0.025-1.258,1.026-1.461
	c0.251-0.049,0.895,0.236,1.258,0.503l6.008,4.943c0.059,0.052,1.419,1.284,1.419,3.452v4.926c0.002,0.789-0.213,3.203-1.253,3.982
	l-4.127,3.67c-0.342,0.252-1.724,1.419-1.617,3.773c0.021,0.469,0.408,0.835,0.873,0.835c0.014,0,0.027-0.001,0.041-0.001
	c0.482-0.021,0.855-0.431,0.834-0.914c-0.072-1.59,0.861-2.254,0.891-2.273c0.037-0.025,0.073-0.052,0.107-0.082l4.103-3.652
	c1.855-1.383,1.899-4.941,1.898-5.34v-4.924C1128.608,427.66,1126.671,425.951,1126.572,425.866z M1117.246,434.121
	c0,0.55-0.438,1-0.975,1c-0.535,0-0.973-0.45-0.973-1v-5.637c0-0.551,0.438-1,0.973-1c0.536,0,0.975,0.449,0.975,1V434.121z"/>
<path fill="#BCBCCC" d="M854.573,4.546l-1.936-0.077l-2.465-0.097l-0.188-0.495l0,0l-0.691-1.837l-0.691-1.837
	c-0.104-0.271-0.27-0.271-0.373,0l-0.691,1.837l-0.691,1.837l0,0l-0.188,0.495l-2.465,0.097l-1.936,0.077
	c-0.291,0.012-0.344,0.171-0.121,0.355c0,0.001,0,0.001,0.001,0.001l1.513,1.238l1.514,1.238l0.408,0.335l-0.139,0.51l-0.506,1.847
	l-0.506,1.847v0.001c-0.076,0.28,0.062,0.381,0.307,0.225l1.619-1.039l2.067-1.324l2.066,1.324l1.62,1.039
	c0.244,0.156,0.382,0.056,0.307-0.225v-0.001l-0.506-1.847l-0.506-1.847l-0.14-0.51l0.409-0.335l1.514-1.238l1.512-1.238
	c0.001,0,0.001,0,0.002-0.001C854.917,4.717,854.864,4.558,854.573,4.546z"/>
<path fill="#F35429" d="M854.573,64.546l-1.936-0.076l-2.465-0.098l-0.188-0.496l0,0l-0.691-1.836l-0.691-1.837
	c-0.104-0.271-0.27-0.271-0.373,0l-0.691,1.837l-0.691,1.836l0,0l-0.188,0.496l-2.465,0.098l-1.936,0.076
	c-0.291,0.012-0.344,0.171-0.121,0.355c0,0,0,0,0.001,0.001l1.513,1.237l1.514,1.239l0.408,0.336l-0.139,0.51l-0.506,1.846
	l-0.506,1.848l0,0c-0.076,0.281,0.062,0.381,0.307,0.225l1.619-1.039l2.067-1.324l2.066,1.324l1.62,1.039
	c0.244,0.156,0.382,0.057,0.307-0.225l0,0l-0.506-1.848l-0.506-1.846l-0.14-0.51l0.409-0.336l1.514-1.239l1.512-1.237
	c0.001-0.001,0.001-0.001,0.001-0.001C854.917,64.717,854.864,64.558,854.573,64.546z"/>
<path fill="#FFFFFF" d="M487.412,834.512h0.79v0.83c0.311-0.666,0.962-0.965,1.653-0.965c1.37,0,2.022,0.963,2.158,1.207
	c0.11-0.246,0.663-1.207,2.08-1.207c1.828,0,2.508,1.377,2.508,2.771v3.695h-0.843v-3.529c0-0.461-0.037-0.967-0.308-1.359
	c-0.335-0.49-0.831-0.762-1.395-0.762c-0.537,0-1.073,0.283-1.374,0.721c-0.269,0.396-0.259,0.939-0.259,1.4v3.529h-0.832v-3.617
	c0-0.48-0.027-0.844-0.3-1.268c-0.316-0.461-0.836-0.758-1.388-0.758c-0.529,0-1.045,0.225-1.361,0.672
	c-0.283,0.414-0.292,0.865-0.292,1.354v3.617h-0.839V834.512z"/>
<path fill="#FFFFFF" d="M504.247,840.844h-0.805v-1.188c-0.476,0.893-1.42,1.344-2.396,1.344c-1.58,0-3.336-1.117-3.336-3.357
	c0-2.08,1.684-3.266,3.315-3.266c0.973,0,1.957,0.438,2.417,1.336v-1.201h0.805V840.844z M498.549,837.711
	c0,1.393,1.176,2.469,2.497,2.469c1.292,0,2.396-1.133,2.396-2.461c0-1.398-1.043-2.525-2.417-2.525
	C499.666,835.193,498.549,836.172,498.549,837.711z"/>
<path fill="#FFFFFF" d="M505.914,832.293h0.84v6.006l2.846-3.787h1.063l-2.39,3.178l2.557,3.154h-1.081l-2.011-2.494l-0.984,1.295
	v1.199h-0.84V832.293z"/>
<path fill="#FFFFFF" d="M511.866,837.99c0.052,1.197,1.191,2.189,2.342,2.189c0.909,0,1.835-0.523,2.206-1.387h0.872
	c-0.432,1.271-1.695,2.207-3.007,2.207c-1.806,0-3.242-1.461-3.242-3.311c0-1.848,1.425-3.312,3.223-3.312
	c0.97,0,1.865,0.451,2.489,1.225c0.571,0.732,0.7,1.473,0.72,2.389H511.866z M516.627,837.211c-0.213-1.119-1.212-2.018-2.356-2.018
	c-1.172,0-2.198,0.846-2.404,2.018H516.627z"/>
<path fill="#FFFFFF" d="M523.906,832.293h0.835v3.346c0.436-0.787,1.424-1.262,2.338-1.262c1.84,0,3.35,1.371,3.35,3.279
	c0,2.137-1.738,3.344-3.267,3.344c-0.893,0-1.981-0.418-2.468-1.246v1.09h-0.788V832.293z M525.338,835.959
	c-0.487,0.506-0.66,1.08-0.66,1.771c0,1.416,1.126,2.449,2.484,2.449c1.343,0,2.434-1.133,2.434-2.5
	c0-1.439-1.113-2.486-2.492-2.486C526.437,835.193,525.804,835.477,525.338,835.959z"/>
<path fill="#FFFFFF" d="M532.246,837.99c0.044,1.197,1.189,2.189,2.339,2.189c0.912,0,1.836-0.523,2.216-1.387h0.871
	c-0.429,1.271-1.702,2.207-3.009,2.207c-1.815,0-3.246-1.461-3.246-3.311c0-1.848,1.422-3.312,3.214-3.312
	c0.985,0,1.868,0.451,2.497,1.225c0.574,0.732,0.699,1.473,0.727,2.389H532.246z M537.011,837.211
	c-0.21-1.119-1.218-2.018-2.362-2.018c-1.164,0-2.194,0.846-2.402,2.018H537.011z"/>
<path fill="#FFFFFF" d="M539.24,832.293h0.831v8.551h-0.831V832.293z"/>
<path fill="#FFFFFF" d="M541.673,832.293h0.834v1.457h-0.834V832.293z M541.673,834.512h0.834v6.332h-0.834V834.512z"/>
<path fill="#FFFFFF" d="M544.729,837.99c0.046,1.197,1.186,2.189,2.333,2.189c0.916,0,1.84-0.523,2.215-1.387h0.871
	c-0.431,1.271-1.693,2.207-3.007,2.207c-1.812,0-3.247-1.461-3.247-3.311c0-1.848,1.421-3.312,3.226-3.312
	c0.972,0,1.866,0.451,2.488,1.225c0.57,0.732,0.698,1.473,0.718,2.389H544.729z M549.489,837.211
	c-0.212-1.119-1.219-2.018-2.363-2.018c-1.162,0-2.194,0.846-2.396,2.018H549.489z"/>
<path fill="#FFFFFF" d="M550.583,834.512h0.906l2.136,5.242l2.142-5.242h0.905l-2.617,6.332h-0.869L550.583,834.512z"/>
<path fill="#FFFFFF" d="M557.764,837.99c0.049,1.197,1.194,2.189,2.331,2.189c0.912,0,1.849-0.523,2.214-1.387h0.872
	c-0.434,1.271-1.694,2.207-3.007,2.207c-1.809,0-3.244-1.461-3.244-3.311c0-1.848,1.423-3.312,3.22-3.312
	c0.974,0,1.873,0.451,2.488,1.225c0.584,0.732,0.71,1.473,0.726,2.389H557.764z M562.521,837.211
	c-0.213-1.119-1.214-2.018-2.358-2.018c-1.167,0-2.196,0.846-2.399,2.018H562.521z"/>
<path fill="#FFFFFF" d="M521.641,839.699c0,0.682-0.53,1.238-1.197,1.238c-0.661,0-1.201-0.557-1.201-1.238
	c0-0.676,0.54-1.232,1.201-1.232C521.11,838.467,521.641,839.023,521.641,839.699z"/>
<path fill="#FFFFFF" d="M513.706,826.049c-3.219,0-6.205-0.992-8.212-2.834c-1.501-1.383-2.235-3.27-2.235-5.201
	c0-1.91,0.764-3.818,2.235-5.199c1.858-1.727,5.137-2.814,8.212-2.814c3.426,0,6.15,0.887,8.232,2.824
	c1.486,1.385,2.205,3.27,2.205,5.189c0,1.857-0.76,3.838-2.205,5.201C520.005,825.072,516.944,826.049,513.706,826.049v-2.115
	c1.723,0,3.305-0.613,4.409-1.736c1.104-1.129,1.616-2.496,1.616-4.184c0-1.625-0.553-3.123-1.616-4.193
	c-1.089-1.1-2.718-1.73-4.409-1.73c-1.692,0-3.313,0.621-4.415,1.73c-1.048,1.07-1.604,2.58-1.604,4.193
	c0,1.604,0.562,3.109,1.604,4.184c1.102,1.117,2.723,1.736,4.415,1.736V826.049z M490.149,810.004c-1.724,0-3.688,0.344-5.341,1.098
	c-1.542,0.705-2.809,1.838-2.809,3.729c0,1.688,1.053,2.68,1.021,2.65c0.453,0.426,1.176,1.146,3.06,1.562
	c0.84,0.188,2.637,0.473,4.436,0.678c1.775,0.189,3.532,0.371,4.247,0.555c0.567,0.148,1.513,0.352,1.513,1.439
	c0,1.096-1.001,1.424-1.179,1.494c-0.178,0.074-1.375,0.637-3.542,0.637c-1.597,0-3.514-0.49-4.215-0.74
	c-0.802-0.295-1.645-0.691-2.437-1.68c-0.195-0.244-0.495-0.918-0.495-1.582h-1.972v5.611h2.177c0,0,0-0.607,0-0.756
	c0-0.076,0.114-0.441,0.47-0.266c0.452,0.215,1.787,0.75,3.19,1.049c1.137,0.244,1.876,0.416,3.293,0.416
	c2.322,0,3.568-0.383,4.425-0.635c0.826-0.242,1.829-0.672,2.634-1.33c0.441-0.354,1.4-1.281,1.4-2.949
	c0-1.611-0.831-2.611-1.136-2.91c-0.402-0.414-0.889-0.732-1.405-0.979c-0.452-0.213-1.157-0.477-1.731-0.615
	c-1.126-0.291-3.66-0.637-4.864-0.762c-1.271-0.143-3.483-0.326-4.355-0.607c-0.271-0.08-0.819-0.354-0.819-0.996
	c0-0.457,0.259-0.85,0.747-1.172c0.776-0.498,2.364-0.805,3.999-0.805c1.952-0.004,3.594,0.439,4.637,0.922
	c0.359,0.178,0.772,0.4,1.108,0.678c0.374,0.311,0.892,0.957,1.084,1.859h1.76v-4.883h-1.959v0.566c0,0.186-0.185,0.42-0.54,0.23
	C495.674,811.033,493.195,810.018,490.149,810.004z M526.29,810.908v1.777h1.52c1.101,0,1.182,0.631,1.182,1.172v8.34
	c0,0.506,0.029,1.182-0.676,1.182c-1.102,0-1.888,0-1.888,0v1.783h8.042v-1.783c0,0-0.857,0-1.959,0
	c-0.779,0-0.824-0.359-0.836-1.146v-7.139l11.023,10.068h2.801l-0.146-11.371c0.02-0.826,0.062-1.109,0.897-1.109
	c1.11,0,1.76,0,1.76,0v-1.773h-8.187v1.773c0,0,0.7,0,1.803,0c0.819,0,0.967,0.332,0.972,1.109l0.1,5.949l-9.566-8.832H526.29z
	 M555.655,823.379v1.783h9.543v-1.787c0,0-1.453,0-1.807,0l-0.473-0.029c-0.19-0.051-0.322-0.188-0.373-0.332l-0.039-0.391
	c0-0.262,0-2.703,0-2.814l0.072-0.268c0.129-0.154,5.065-5.928,5.292-6.178c0.477-0.562,0.735-0.682,1.373-0.682
	c0.593,0,1.756,0,1.756,0v-1.773h-7.863v1.773c0,0,0.964,0,1.178,0c0.351,0,0.445,0.361,0.298,0.557l-3.343,3.996l-0.097-0.01
	l-3.255-3.986c-0.233-0.299-0.041-0.557,0.212-0.557c0.236,0,1.159,0,1.159,0v-1.773h-9.597v1.773c0,0,1.108,0,1.71,0
	c0.742,0,1.224,0.48,1.504,0.795c0.224,0.248,5.11,5.922,5.224,6.082c0.124,0.156,0.124,0.182,0.124,0.25v2.814l-0.032,0.391
	c-0.073,0.145-0.191,0.281-0.377,0.332l-0.48,0.033H555.655z"/>
<path fill="#726E7A" d="M496.243,3.566c0-1.969-1.667-3.566-3.723-3.566c-1.474-0.001-2.794,1.397-3.398,2.588h-0.001
	C488.518,1.398,487.197,0,485.724,0C483.667,0,482,1.597,482,3.566c0,1.123,1.021,2.289,1.021,2.289l3.729,4.198l-0.007,0.001
	l2.375,2.834v0.001h0l0.001,0.001v-0.002l2.376-2.834l-0.007-0.001l3.731-4.198C495.221,5.855,496.243,4.689,496.243,3.566z"/>
<path fill="#FFF915" d="M496.243,33.566c0-1.969-1.667-3.566-3.723-3.566c-1.474,0-2.794,1.398-3.398,2.588h-0.001
	c-0.604-1.189-1.924-2.588-3.397-2.588c-2.057,0-3.724,1.598-3.724,3.566c0,1.123,1.021,2.289,1.021,2.289l3.729,4.199h-0.007
	l2.375,2.834v0.002h0h0.001v-0.002l2.376-2.834h-0.007l3.731-4.199C495.221,35.855,496.243,34.689,496.243,33.566z"/>
<g>
	<g>
		<path fill="#726E7A" d="M512.25,0C512.112,0,512,0.112,512,0.25v1.375c0,0.138,0.112,0.25,0.25,0.251l1.564,0.008
			c0.138,0,0.285,0.108,0.328,0.239l2.28,6.981c0.042,0.131,0.19,0.238,0.328,0.238h9c0.138,0,0.292-0.104,0.343-0.232l2.813-7.003
			c0.051-0.127-0.019-0.232-0.157-0.232h-12.612c-0.138,0-0.27-0.111-0.293-0.246l-0.242-1.375
			c-0.024-0.135-0.156-0.246-0.293-0.247L512.25,0z M525.057,7.236c-0.042,0.131-0.188,0.238-0.326,0.238h-6.438
			c-0.138,0-0.277-0.109-0.31-0.243l-0.8-3.247c-0.033-0.133,0.053-0.243,0.19-0.243h8.541c0.138,0,0.216,0.107,0.174,0.238
			L525.057,7.236z"/>
	</g>
</g>
<g>
	<ellipse fill="#726E7A" cx="523.524" cy="12.596" rx="1.483" ry="1.393"/>
</g>
<g>
	<ellipse fill="#726E7A" cx="518.483" cy="12.596" rx="1.483" ry="1.393"/>
</g>
<g>
	<g>
		<path fill="#FFFFFF" d="M512.25,30c-0.138,0-0.25,0.112-0.25,0.25v1.375c0,0.138,0.112,0.25,0.25,0.251l1.564,0.008
			c0.138,0,0.285,0.108,0.328,0.239l2.28,6.981c0.042,0.131,0.19,0.238,0.328,0.238h9c0.138,0,0.292-0.104,0.343-0.232l2.813-7.003
			c0.051-0.127-0.019-0.232-0.157-0.232h-12.612c-0.138,0-0.27-0.111-0.293-0.246l-0.242-1.373
			c-0.024-0.135-0.156-0.247-0.293-0.247L512.25,30z M525.057,37.238c-0.042,0.131-0.188,0.238-0.326,0.238h-6.438
			c-0.138,0-0.277-0.109-0.31-0.243l-0.8-3.249c-0.033-0.133,0.053-0.243,0.19-0.243h8.541c0.138,0,0.216,0.107,0.174,0.238
			L525.057,37.238z"/>
	</g>
</g>
<g>
	<ellipse fill="#FFFFFF" cx="523.524" cy="42.596" rx="1.483" ry="1.393"/>
</g>
<g>
	<ellipse fill="#FFFFFF" cx="518.483" cy="42.596" rx="1.483" ry="1.393"/>
</g>
<polygon fill="#FFFFFF" points="941,3 938,3 938,0 935,0 935,3 932,3 932,6 935,6 935,9 938,9 938,6 941,6 "/>
<rect x="812" fill="#FFFFFF" width="4" height="4"/>
<rect x="818" fill="#FFFFFF" width="4" height="4"/>
<rect x="824" fill="#FFFFFF" width="4" height="4"/>
<rect x="812" y="12" fill="#FFFFFF" width="4" height="4"/>
<rect x="818" y="12" fill="#FFFFFF" width="4" height="4"/>
<rect x="824" y="12" fill="#FFFFFF" width="4" height="4"/>
<rect x="812" y="6" fill="#FFFFFF" width="4" height="4"/>
<rect x="818" y="6" fill="#FFFFFF" width="4" height="4"/>
<rect x="824" y="6" fill="#FFFFFF" width="4" height="4"/>
<path fill="#FFFFFF" d="M550.125,0c-3.09,0-5.604,2.334-5.604,5.203c0,1.125,0.39,2.166,1.046,3.018l-3.297,3.061
	c-0.36,0.336-0.36,0.883,0,1.217c0.36,0.336,0.95,0.336,1.311,0l3.296-3.061c0.918,0.607,2.037,0.971,3.248,0.971
	c3.091,0,5.604-2.334,5.604-5.205C555.729,2.334,553.216,0,550.125,0z M550.125,8.688c-2.068,0-3.75-1.562-3.75-3.484
	c0-1.92,1.682-3.482,3.75-3.482s3.751,1.562,3.751,3.482C553.876,7.125,552.193,8.688,550.125,8.688z"/>
<polygon fill="#83838F" points="567.25,10.746 567.25,10.746 563.25,6.175 571.25,6.175 "/>
<path fill="#FFFFFF" d="M550.125,30c-3.09,0-5.604,2.334-5.604,5.205c0,1.123,0.39,2.164,1.046,3.016l-3.297,3.061
	c-0.36,0.336-0.36,0.883,0,1.217c0.36,0.336,0.95,0.336,1.311,0l3.296-3.061c0.918,0.607,2.037,0.971,3.248,0.971
	c3.091,0,5.604-2.334,5.604-5.203C555.729,32.334,553.216,30,550.125,30z M550.125,38.688c-2.068,0-3.75-1.562-3.75-3.482
	c0-1.922,1.682-3.484,3.75-3.484s3.751,1.562,3.751,3.484C553.876,37.125,552.193,38.688,550.125,38.688z"/>
<polygon fill="#FFFFFF" points="567.25,40.746 567.25,40.746 563.25,36.175 571.25,36.175 "/>
<polygon fill="#83838F" points="575.75,4.571 575.75,4.571 571.75,0 579.75,0 "/>
<polygon fill="#FFFFFF" points="575.75,34.571 575.75,34.571 571.75,30 579.75,30 "/>
<polygon fill="#83838F" points="605.75,0 605.75,0 609.75,4.571 601.75,4.571 "/>
<polygon fill="#FFFFFF" points="605.75,30 605.75,30 609.75,34.571 601.75,34.571 "/>
<polygon fill="#FFFFFF" points="665.75,0 665.75,0 669.75,4.571 661.75,4.571 "/>
<polygon fill="#FFFFFF" points="635.75,4.571 635.75,4.571 631.75,0 639.75,0 "/>
<polygon fill="#4571EC" points="695.75,4.571 695.75,4.571 691.75,0 699.75,0 "/>
<polygon fill="#FFFFFF" points="978,7 971,7 971,0 969,0 969,7 962,7 962,9 969,9 969,16 971,16 971,9 978,9 "/>
<polygon fill="#FFFFFF" points="1006.364,12.949 1001.414,8 1006.364,3.051 1004.95,1.637 1000,6.586 995.051,1.637 993.637,3.051 
	998.586,8 993.637,12.949 995.051,14.363 1000,9.414 1004.95,14.363 "/>
<polygon fill="#FFFFFF" points="1055,16.5 1055,16.5 1046,24.375 1046,8.625 "/>
<polygon fill="#FFFFFF" points="1022,16.5 1022,16.5 1031,24.375 1031,8.625 "/>
<rect x="782" y="2.594" fill="#4571EC" width="7" height="2"/>
<polygon fill="#4571EC" points="792.376,3.734 792.376,3.734 788.106,7.469 788.106,0 "/>
<rect x="752" y="2.594" fill="#FFFFFF" width="7" height="2"/>
<polygon fill="#FFFFFF" points="762.376,3.734 762.376,3.734 758.106,7.469 758.106,0 "/>
<polygon fill="#BCBCCC" points="905.5,0 905.5,0 909,4 902,4 "/>
<polygon fill="#BCBCCC" points="905.5,11 905.5,11 909,7 902,7 "/>
<path fill="#DB4C25" d="M496.243,63.566c0-1.969-1.667-3.566-3.723-3.566c-1.474,0-2.794,1.398-3.398,2.588h-0.001
	c-0.604-1.189-1.924-2.588-3.397-2.588c-2.057,0-3.724,1.598-3.724,3.566c0,1.123,1.021,2.289,1.021,2.289l3.729,4.199h-0.007
	l2.375,2.834v0.002h0h0.001v-0.002l2.376-2.834h-0.007l3.731-4.199C495.221,65.855,496.243,64.689,496.243,63.566z"/>
<path fill="#BCBCCC" d="M884.573,4.546l-1.936-0.077l-2.465-0.097l-0.188-0.495l0,0l-0.691-1.837l-0.691-1.837
	c-0.104-0.271-0.27-0.271-0.373,0l-0.691,1.837l-0.691,1.837l0,0l-0.188,0.495l-2.465,0.097l-1.936,0.077
	c-0.291,0.012-0.344,0.171-0.121,0.355c0,0.001,0,0.001,0.001,0.001l1.513,1.238l1.514,1.238l0.408,0.335l-0.139,0.51l-0.506,1.847
	l-0.506,1.847v0.001c-0.076,0.28,0.062,0.381,0.307,0.225l1.619-1.039l2.067-1.324l2.066,1.324l1.62,1.039
	c0.244,0.156,0.382,0.056,0.307-0.225v-0.001l-0.506-1.847l-0.506-1.847l-0.14-0.51l0.409-0.335l1.514-1.238l1.512-1.238
	c0.001,0,0.001,0,0.002-0.001C884.917,4.717,884.864,4.558,884.573,4.546z"/>
<path fill="#BCBCCC" d="M882.103,72.143c0.244,0.156,0.382,0.056,0.307-0.225v-0.001l-0.506-1.847l-0.506-1.847l-0.14-0.51
	l0.409-0.335l1.514-1.238l1.512-1.238c0.001,0,0.001,0,0.002-0.001c0.223-0.185,0.17-0.344-0.121-0.355l-1.936-0.077l-2.465-0.097
	l-0.188-0.495l-0.691-1.837l-0.691-1.837c-0.052-0.136-0.119-0.204-0.187-0.204v9.78l2.066,1.324L882.103,72.143z"/>
<path fill="#F35429" d="M878.229,60.204l-0.691,1.837l-0.691,1.836l-0.188,0.496l-2.465,0.098l-1.936,0.076
	c-0.291,0.012-0.344,0.171-0.121,0.355c0,0,0,0,0.001,0.001l1.513,1.237l1.514,1.239l0.408,0.336l-0.139,0.51l-0.506,1.846
	l-0.506,1.848c-0.076,0.281,0.062,0.381,0.307,0.225l1.619-1.039l2.067-1.324V60C878.349,60,878.281,60.068,878.229,60.204z"/>
<path fill="#8B9199" d="M487.615,637.364c2.029,0,3.681-1.651,3.681-3.682c0-2.029-1.652-3.683-3.681-3.683
	c-2.031,0-3.684,1.653-3.684,3.683C483.932,635.713,485.584,637.364,487.615,637.364z M487.615,631.306
	c1.31,0,2.375,1.066,2.375,2.377c0,1.31-1.065,2.376-2.375,2.376c-1.311,0-2.377-1.066-2.377-2.376
	C485.238,632.372,486.304,631.306,487.615,631.306z"/>
<path fill="#8B9199" d="M499.212,650.426l2.646-2.587c0.812-0.813,1.255-1.88,1.255-3.016c0-1.135-0.443-2.201-1.245-3.005
	l-0.593-0.593c0.491,0.399,1.101,0.617,1.745,0.617c0.742,0,1.439-0.29,1.964-0.815c1.082-1.081,1.083-2.843,0-3.926l-5.55-5.548
	c-0.521-0.521-1.211-0.807-1.945-0.807c-0.633,0-1.244,0.215-1.739,0.607l-0.062,0.033l-0.15,0.135l-0.062,0.06l-0.054,0.064
	l-0.028,0.034l-4.802,4.886l-0.686,0.686c-0.812,0.812-1.237,1.878-1.241,2.965l-1.925-1.924c-0.523-0.525-1.221-0.814-1.964-0.814
	c-0.742,0-1.438,0.289-1.964,0.814c-1.082,1.082-1.083,2.844,0,3.926l4.568,4.569c0.524,0.522,1.221,0.813,1.963,0.813
	c0.741,0,1.438-0.289,1.964-0.813l1.047-1.079l1.271,1.271l-1.177,1.413c-1.218,1.277-1.199,3.312,0.054,4.566l4.28,4.279
	c0.618,0.617,1.438,0.957,2.312,0.957c0.872,0,1.692-0.34,2.31-0.957c1.272-1.273,1.273-3.346,0.001-4.62L499.212,650.426z
	 M500.481,656.314c-0.384,0.384-0.885,0.575-1.386,0.575c-0.503,0-1.005-0.191-1.388-0.575l-4.281-4.279
	c-0.764-0.766-0.764-2.002-0.005-2.77l1.972-2.365l-3.051-3.053l-1.958,2.017c-0.287,0.287-0.665,0.432-1.041,0.432
	c-0.376,0-0.753-0.145-1.04-0.432l-4.569-4.568c-0.574-0.574-0.574-1.505,0-2.079c0.288-0.288,0.665-0.433,1.041-0.433
	c0.378,0,0.754,0.145,1.041,0.433l3.479,3.479l1.041-1.041c-0.605-1.114-0.451-2.536,0.493-3.479l0.694-0.693l4.885-4.97
	c0.01-0.012,0.014-0.025,0.023-0.036c0.01-0.01,0.023-0.013,0.033-0.021l0.04-0.026c0.282-0.25,0.634-0.375,0.985-0.375
	c0.37,0,0.738,0.139,1.023,0.423l5.55,5.549c0.574,0.574,0.574,1.505,0,2.079c-0.289,0.288-0.665,0.433-1.041,0.433
	c-0.377,0-0.752-0.145-1.04-0.433l-4.685-4.683l-1.863,1.854c0.084,0.067,0.173,0.127,0.251,0.207l5.261,5.26
	c1.149,1.15,1.149,3.013,0,4.163l-3.59,3.51l3.126,3.125C501.246,654.309,501.246,655.548,500.481,656.314z"/>
<path fill="#8B9199" d="M510.911,650.163l-5.019-4.49c-0.229-0.206-0.467-0.25-0.625-0.25c-0.601,0-0.949,0.538-1.352,1.158
	c-0.172,0.269-0.362,0.563-0.582,0.821c-0.204,0.24-0.435,0.446-0.639,0.631c-0.442,0.4-0.859,0.777-0.859,1.313
	c0.001,0.201,0.065,0.501,0.374,0.778l5.021,4.488c0.438,0.394,1.038,0.609,1.69,0.609c0.846,0,1.652-0.358,2.214-0.983
	C512.195,653.056,512.097,651.227,510.911,650.163z M510.161,653.367c-0.314,0.349-0.767,0.549-1.242,0.549
	c-0.324,0-0.623-0.101-0.819-0.276l-4.851-4.337c0.093-0.094,0.218-0.209,0.321-0.301c0.242-0.221,0.514-0.468,0.757-0.754
	c0.257-0.3,0.481-0.644,0.683-0.955c0.084-0.13,0.186-0.286,0.274-0.411l4.755,4.253
	C510.688,651.717,510.742,652.719,510.161,653.367z"/>
<path fill="#8C9299" d="M523.424,645.994v-10.281c0-3.155-2.557-5.713-5.712-5.713S512,632.558,512,635.713v10.281
	c0,2.896,2.163,5.262,4.957,5.635c-0.002,0.027-0.015,0.05-0.015,0.077v6.702h-3.799c-0.425,0-0.771,0.345-0.771,0.77
	c0,0.428,0.346,0.772,0.771,0.772h9.139c0.426,0,0.771-0.345,0.771-0.772c0-0.425-0.345-0.77-0.771-0.77h-3.799v-6.702
	c0-0.027-0.012-0.05-0.015-0.077C521.262,651.256,523.424,648.89,523.424,645.994z M517.712,650.164
	c-2.299,0-4.169-1.871-4.169-4.17v-10.281c0-2.3,1.87-4.172,4.169-4.172s4.169,1.872,4.169,4.172v10.281
	C521.881,648.293,520.011,650.164,517.712,650.164z"/>
<path fill="#8C9299" d="M517.712,635.998c-0.263,0-0.515-0.103-0.708-0.297c-0.184-0.184-0.286-0.435-0.286-0.698
	c0-0.274,0.102-0.524,0.286-0.708c0.365-0.377,1.04-0.377,1.416,0c0.183,0.184,0.298,0.446,0.298,0.708
	c0,0.251-0.115,0.515-0.298,0.698C518.226,635.896,517.975,635.998,517.712,635.998z"/>
<path fill="#8C9299" d="M515.713,638.945c-0.263,0-0.514-0.104-0.709-0.286c-0.182-0.193-0.296-0.446-0.296-0.708
	s0.114-0.525,0.296-0.708c0.366-0.366,1.041-0.378,1.417,0c0.184,0.183,0.298,0.446,0.298,0.708s-0.114,0.515-0.298,0.708
	C516.227,638.842,515.976,638.945,515.713,638.945z"/>
<path fill="#8C9299" d="M519.711,638.945c-0.263,0-0.515-0.104-0.708-0.286c-0.184-0.193-0.286-0.446-0.286-0.708
	s0.102-0.525,0.286-0.708c0.365-0.366,1.04-0.378,1.417,0c0.183,0.193,0.296,0.446,0.296,0.708c0,0.25-0.114,0.515-0.296,0.708
	C520.225,638.842,519.974,638.945,519.711,638.945z"/>
<path fill="#8B9199" d="M549.537,659.717c-1.158,0-2.245-0.45-3.056-1.267l-3.229-3.247c-1.676-1.687-1.667-4.42,0.017-6.096
	l17.954-17.857c0.81-0.806,1.89-1.25,3.039-1.25c1.158,0,2.244,0.45,3.056,1.267l3.232,3.249c1.675,1.687,1.667,4.42-0.018,6.096
	l-17.956,17.855C551.766,659.272,550.687,659.717,549.537,659.717z M564.261,631.125c-0.85,0-1.648,0.327-2.247,0.922
	l-17.954,17.857c-1.245,1.239-1.251,3.261-0.012,4.506l3.229,3.247c1.193,1.201,3.303,1.207,4.504,0.013l17.956-17.855
	c1.245-1.239,1.25-3.261,0.012-4.506l-3.232-3.249C565.92,631.457,565.118,631.125,564.261,631.125z"/>
<circle fill-rule="evenodd" clip-rule="evenodd" fill="#8B9199" cx="563.176" cy="636.625" r="0.637"/>
<path fill="#8B9199" d="M563.176,637.496c-0.232,0-0.451-0.09-0.616-0.255c-0.338-0.342-0.336-0.895,0.002-1.233
	c0.333-0.327,0.903-0.324,1.23,0.004c0.338,0.341,0.338,0.894-0.002,1.231C563.625,637.407,563.407,637.496,563.176,637.496z
	 M563.176,636.224c-0.107,0-0.208,0.042-0.284,0.117c-0.156,0.155-0.156,0.412,0,0.57c0.15,0.149,0.417,0.15,0.568,0
	c0.156-0.156,0.156-0.411-0.001-0.568C563.384,636.266,563.284,636.224,563.176,636.224z"/>
<circle fill-rule="evenodd" clip-rule="evenodd" fill="#8B9199" cx="565.152" cy="638.604" r="0.637"/>
<path fill="#8B9199" d="M565.154,639.474c-0.235,0-0.455-0.092-0.62-0.258c-0.165-0.165-0.254-0.385-0.253-0.617
	s0.091-0.45,0.257-0.612c0.326-0.327,0.9-0.328,1.23,0.002c0.339,0.342,0.338,0.896-0.003,1.232
	C565.603,639.384,565.385,639.474,565.154,639.474z M565.152,638.201c-0.107,0-0.208,0.041-0.284,0.117
	c-0.077,0.076-0.119,0.177-0.119,0.282c-0.001,0.107,0.042,0.209,0.117,0.286c0.153,0.151,0.417,0.153,0.569,0.003
	c0.154-0.153,0.154-0.415,0-0.57C565.361,638.242,565.259,638.201,565.152,638.201z"/>
<path fill-rule="evenodd" clip-rule="evenodd" fill="#8B9199" d="M561.829,638.836c-0.247,0.247-0.652,0.246-0.898-0.002
	c-0.249-0.251-0.249-0.653,0.001-0.901c0.249-0.247,0.652-0.248,0.899,0.005C562.078,638.185,562.078,638.587,561.829,638.836z"/>
<path fill="#8B9199" d="M561.381,639.255c-0.233,0-0.453-0.091-0.617-0.255c-0.164-0.167-0.254-0.386-0.254-0.618
	c0-0.233,0.091-0.451,0.257-0.615c0.331-0.329,0.906-0.326,1.232,0.007c0.162,0.162,0.252,0.381,0.251,0.613
	c0,0.232-0.091,0.45-0.255,0.615C561.831,639.164,561.613,639.255,561.381,639.255z M561.38,637.982
	c-0.106,0-0.208,0.041-0.284,0.117c-0.076,0.075-0.118,0.176-0.118,0.283s0.042,0.209,0.119,0.286
	c0.15,0.151,0.416,0.152,0.566,0.001c0.076-0.075,0.118-0.177,0.118-0.284s-0.041-0.208-0.116-0.282
	C561.588,638.024,561.488,637.982,561.38,637.982z"/>
<circle fill-rule="evenodd" clip-rule="evenodd" fill="#8B9199" cx="563.355" cy="640.362" r="0.637"/>
<path fill="#8B9199" d="M563.359,641.231c-0.235,0-0.456-0.092-0.62-0.257c-0.165-0.165-0.255-0.385-0.254-0.618
	c0-0.231,0.092-0.449,0.257-0.612c0.33-0.327,0.903-0.327,1.231,0.002c0.164,0.166,0.254,0.386,0.253,0.619
	c-0.001,0.233-0.092,0.451-0.256,0.614C563.807,641.142,563.59,641.231,563.359,641.231z M563.356,639.96
	c-0.108,0-0.208,0.041-0.285,0.117c-0.076,0.074-0.118,0.175-0.118,0.28c0,0.108,0.042,0.209,0.118,0.285
	c0.151,0.152,0.417,0.156,0.568,0.005c0.076-0.076,0.118-0.177,0.118-0.283c0-0.109-0.041-0.211-0.117-0.286
	C563.564,640.001,563.463,639.96,563.356,639.96z"/>
<circle fill-rule="evenodd" clip-rule="evenodd" fill="#8B9199" cx="550.366" cy="649.436" r="0.636"/>
<path fill="#8B9199" d="M550.366,650.307c-0.233,0-0.452-0.091-0.617-0.256c-0.164-0.165-0.254-0.384-0.253-0.616
	c0-0.233,0.091-0.452,0.257-0.615c0.33-0.328,0.904-0.326,1.23,0.002c0.337,0.34,0.336,0.893-0.003,1.231
	C550.815,650.217,550.598,650.307,550.366,650.307z M550.367,649.033c-0.107,0-0.209,0.042-0.285,0.117
	c-0.076,0.077-0.118,0.178-0.118,0.284c-0.001,0.107,0.042,0.208,0.117,0.285c0.152,0.151,0.415,0.153,0.567,0.002
	c0.156-0.157,0.157-0.412,0.001-0.569C550.575,649.075,550.474,649.033,550.367,649.033z"/>
<circle fill-rule="evenodd" clip-rule="evenodd" fill="#8B9199" cx="552.342" cy="651.414" r="0.637"/>
<path fill="#8B9199" d="M552.343,652.283c-0.234,0-0.454-0.091-0.618-0.256c-0.165-0.167-0.254-0.385-0.253-0.617
	c0-0.232,0.091-0.451,0.257-0.614c0.326-0.327,0.9-0.328,1.23,0.002c0.339,0.343,0.337,0.896-0.003,1.233
	C552.792,652.193,552.575,652.283,552.343,652.283z M552.342,651.011c-0.107,0-0.208,0.041-0.283,0.117
	c-0.077,0.076-0.119,0.177-0.119,0.282c-0.001,0.108,0.041,0.21,0.117,0.287c0.151,0.149,0.418,0.151,0.569,0.002
	c0.155-0.153,0.155-0.415,0-0.571C552.551,651.052,552.45,651.011,552.342,651.011z"/>
<circle fill-rule="evenodd" clip-rule="evenodd" fill="#8B9199" cx="548.571" cy="651.194" r="0.637"/>
<path fill="#8B9199" d="M548.571,652.065c-0.233,0-0.452-0.091-0.617-0.256c-0.339-0.342-0.337-0.896,0.003-1.233
	c0.33-0.329,0.904-0.326,1.23,0.007c0.337,0.339,0.336,0.89-0.002,1.229C549.021,651.976,548.803,652.065,548.571,652.065z
	 M548.569,650.792c-0.106,0-0.207,0.042-0.283,0.117c-0.157,0.155-0.157,0.412,0,0.57c0.149,0.15,0.416,0.152,0.567,0.001
	c0.157-0.157,0.157-0.412,0.001-0.567C548.779,650.834,548.677,650.792,548.569,650.792z"/>
<circle fill-rule="evenodd" clip-rule="evenodd" fill="#8B9199" cx="550.545" cy="653.172" r="0.637"/>
<path fill="#8B9199" d="M550.548,654.041c-0.234,0-0.454-0.091-0.62-0.256c-0.166-0.166-0.255-0.386-0.254-0.618
	s0.092-0.45,0.257-0.613c0.33-0.327,0.903-0.327,1.23,0.003c0.338,0.342,0.337,0.895-0.002,1.232
	C550.998,653.952,550.781,654.041,550.548,654.041z M550.546,652.77c-0.108,0-0.208,0.041-0.286,0.117
	c-0.076,0.075-0.118,0.175-0.118,0.281c-0.001,0.107,0.041,0.21,0.117,0.287c0.152,0.15,0.419,0.151,0.568,0.003
	c0.157-0.157,0.158-0.413,0.001-0.57C550.754,652.811,550.653,652.77,550.546,652.77z"/>
<path fill="#F35429" d="M549.537,689.717c-1.158,0-2.245-0.45-3.056-1.267l-3.229-3.247c-1.676-1.687-1.667-4.42,0.017-6.096
	l17.954-17.857c0.81-0.806,1.89-1.25,3.039-1.25c1.158,0,2.244,0.45,3.056,1.267l3.232,3.249c1.675,1.687,1.667,4.42-0.018,6.096
	l-17.956,17.855C551.766,689.272,550.687,689.717,549.537,689.717z M564.261,661.125c-0.85,0-1.648,0.327-2.247,0.922
	l-17.954,17.857c-1.245,1.239-1.251,3.261-0.012,4.506l3.229,3.247c1.193,1.201,3.303,1.207,4.504,0.013l17.956-17.855
	c1.245-1.239,1.25-3.261,0.012-4.506l-3.232-3.249C565.92,661.457,565.118,661.125,564.261,661.125z"/>
<circle fill-rule="evenodd" clip-rule="evenodd" fill="#F35429" cx="563.176" cy="666.625" r="0.637"/>
<path fill="#F35429" d="M563.176,667.496c-0.232,0-0.451-0.09-0.616-0.255c-0.338-0.342-0.336-0.895,0.002-1.233
	c0.333-0.327,0.903-0.324,1.23,0.004c0.338,0.341,0.338,0.894-0.002,1.231C563.625,667.407,563.407,667.496,563.176,667.496z
	 M563.176,666.224c-0.107,0-0.208,0.042-0.284,0.117c-0.156,0.155-0.156,0.412,0,0.57c0.15,0.149,0.417,0.15,0.568,0
	c0.156-0.156,0.156-0.411-0.001-0.568C563.384,666.266,563.284,666.224,563.176,666.224z"/>
<circle fill-rule="evenodd" clip-rule="evenodd" fill="#F35429" cx="565.152" cy="668.604" r="0.637"/>
<path fill="#F35429" d="M565.154,669.474c-0.235,0-0.455-0.092-0.62-0.258c-0.165-0.165-0.254-0.385-0.253-0.617
	s0.091-0.45,0.257-0.612c0.326-0.327,0.9-0.328,1.23,0.002c0.339,0.342,0.338,0.896-0.003,1.232
	C565.603,669.384,565.385,669.474,565.154,669.474z M565.152,668.201c-0.107,0-0.208,0.041-0.284,0.117
	c-0.077,0.076-0.119,0.177-0.119,0.282c-0.001,0.107,0.042,0.209,0.117,0.286c0.153,0.151,0.417,0.153,0.569,0.003
	c0.154-0.153,0.154-0.415,0-0.57C565.361,668.242,565.259,668.201,565.152,668.201z"/>
<path fill-rule="evenodd" clip-rule="evenodd" fill="#F35429" d="M561.829,668.836c-0.247,0.247-0.652,0.246-0.898-0.002
	c-0.249-0.251-0.249-0.653,0.001-0.901c0.249-0.247,0.652-0.248,0.899,0.005C562.078,668.185,562.078,668.587,561.829,668.836z"/>
<path fill="#F35429" d="M561.381,669.255c-0.233,0-0.453-0.091-0.617-0.255c-0.164-0.167-0.254-0.386-0.254-0.618
	c0-0.233,0.091-0.451,0.257-0.615c0.331-0.329,0.906-0.326,1.232,0.007c0.162,0.162,0.252,0.381,0.251,0.613
	c0,0.232-0.091,0.45-0.255,0.615C561.831,669.164,561.613,669.255,561.381,669.255z M561.38,667.982
	c-0.106,0-0.208,0.041-0.284,0.117c-0.076,0.075-0.118,0.176-0.118,0.283s0.042,0.209,0.119,0.286
	c0.15,0.151,0.416,0.152,0.566,0.001c0.076-0.075,0.118-0.177,0.118-0.284s-0.041-0.208-0.116-0.282
	C561.588,668.024,561.488,667.982,561.38,667.982z"/>
<circle fill-rule="evenodd" clip-rule="evenodd" fill="#F35429" cx="563.355" cy="670.362" r="0.637"/>
<path fill="#F35429" d="M563.359,671.231c-0.235,0-0.456-0.092-0.62-0.257c-0.165-0.165-0.255-0.385-0.254-0.618
	c0-0.231,0.092-0.449,0.257-0.612c0.33-0.327,0.903-0.327,1.231,0.002c0.164,0.166,0.254,0.386,0.253,0.619
	c-0.001,0.233-0.092,0.451-0.256,0.614C563.807,671.142,563.59,671.231,563.359,671.231z M563.356,669.96
	c-0.108,0-0.208,0.041-0.285,0.117c-0.076,0.074-0.118,0.175-0.118,0.28c0,0.108,0.042,0.209,0.118,0.285
	c0.151,0.152,0.417,0.156,0.568,0.005c0.076-0.076,0.118-0.177,0.118-0.283c0-0.109-0.041-0.211-0.117-0.286
	C563.564,670.001,563.463,669.96,563.356,669.96z"/>
<circle fill-rule="evenodd" clip-rule="evenodd" fill="#F35429" cx="550.366" cy="679.436" r="0.636"/>
<path fill="#F35429" d="M550.366,680.307c-0.233,0-0.452-0.091-0.617-0.256c-0.164-0.165-0.254-0.384-0.253-0.616
	c0-0.233,0.091-0.452,0.257-0.615c0.33-0.328,0.904-0.326,1.23,0.002c0.337,0.34,0.336,0.893-0.003,1.231
	C550.815,680.217,550.598,680.307,550.366,680.307z M550.367,679.033c-0.107,0-0.209,0.042-0.285,0.117
	c-0.076,0.077-0.118,0.178-0.118,0.284c-0.001,0.107,0.042,0.208,0.117,0.285c0.152,0.151,0.415,0.153,0.567,0.002
	c0.156-0.157,0.157-0.412,0.001-0.569C550.575,679.075,550.474,679.033,550.367,679.033z"/>
<circle fill-rule="evenodd" clip-rule="evenodd" fill="#F35429" cx="552.342" cy="681.414" r="0.637"/>
<path fill="#F35429" d="M552.343,682.283c-0.234,0-0.454-0.091-0.618-0.256c-0.165-0.167-0.254-0.385-0.253-0.617
	c0-0.232,0.091-0.451,0.257-0.614c0.326-0.327,0.9-0.328,1.23,0.002c0.339,0.343,0.337,0.896-0.003,1.233
	C552.792,682.193,552.575,682.283,552.343,682.283z M552.342,681.011c-0.107,0-0.208,0.041-0.283,0.117
	c-0.077,0.076-0.119,0.177-0.119,0.282c-0.001,0.108,0.041,0.21,0.117,0.287c0.151,0.149,0.418,0.151,0.569,0.002
	c0.155-0.153,0.155-0.415,0-0.571C552.551,681.052,552.45,681.011,552.342,681.011z"/>
<circle fill-rule="evenodd" clip-rule="evenodd" fill="#F35429" cx="548.571" cy="681.194" r="0.637"/>
<path fill="#F35429" d="M548.571,682.065c-0.233,0-0.452-0.091-0.617-0.256c-0.339-0.342-0.337-0.896,0.003-1.233
	c0.33-0.329,0.904-0.326,1.23,0.007c0.337,0.339,0.336,0.89-0.002,1.229C549.021,681.976,548.803,682.065,548.571,682.065z
	 M548.569,680.792c-0.106,0-0.207,0.042-0.283,0.117c-0.157,0.155-0.157,0.412,0,0.57c0.149,0.15,0.416,0.152,0.567,0.001
	c0.157-0.157,0.157-0.412,0.001-0.567C548.779,680.834,548.677,680.792,548.569,680.792z"/>
<circle fill-rule="evenodd" clip-rule="evenodd" fill="#F35429" cx="550.545" cy="683.172" r="0.637"/>
<path fill="#F35429" d="M550.548,684.041c-0.234,0-0.454-0.091-0.62-0.256c-0.166-0.166-0.255-0.386-0.254-0.618
	s0.092-0.45,0.257-0.613c0.33-0.327,0.903-0.327,1.23,0.003c0.338,0.342,0.337,0.895-0.002,1.232
	C550.998,683.952,550.781,684.041,550.548,684.041z M550.546,682.77c-0.108,0-0.208,0.041-0.286,0.117
	c-0.076,0.075-0.118,0.175-0.118,0.281c-0.001,0.107,0.041,0.21,0.117,0.287c0.152,0.15,0.419,0.151,0.568,0.003
	c0.157-0.157,0.158-0.413,0.001-0.57C550.754,682.811,550.653,682.77,550.546,682.77z"/>
<path fill="#F35429" d="M523.424,676.044v-10.281c0-3.155-2.557-5.713-5.712-5.713S512,662.607,512,665.763v10.281
	c0,2.896,2.163,5.262,4.957,5.635c-0.002,0.027-0.015,0.05-0.015,0.077v6.702h-3.799c-0.425,0-0.771,0.345-0.771,0.77
	c0,0.428,0.346,0.772,0.771,0.772h9.139c0.426,0,0.771-0.345,0.771-0.772c0-0.425-0.345-0.77-0.771-0.77h-3.799v-6.702
	c0-0.027-0.012-0.05-0.015-0.077C521.262,681.306,523.424,678.939,523.424,676.044z M517.712,680.214
	c-2.299,0-4.169-1.871-4.169-4.17v-10.281c0-2.3,1.87-4.172,4.169-4.172s4.169,1.872,4.169,4.172v10.281
	C521.881,678.343,520.011,680.214,517.712,680.214z"/>
<path fill="#F35429" d="M517.712,666.048c-0.263,0-0.515-0.103-0.708-0.297c-0.184-0.184-0.286-0.435-0.286-0.698
	c0-0.274,0.102-0.524,0.286-0.708c0.365-0.377,1.04-0.377,1.416,0c0.183,0.184,0.298,0.446,0.298,0.708
	c0,0.251-0.115,0.515-0.298,0.698C518.226,665.945,517.975,666.048,517.712,666.048z"/>
<path fill="#F35429" d="M515.713,668.995c-0.263,0-0.514-0.104-0.709-0.286c-0.182-0.193-0.296-0.446-0.296-0.708
	s0.114-0.525,0.296-0.708c0.366-0.366,1.041-0.378,1.417,0c0.184,0.183,0.298,0.446,0.298,0.708s-0.114,0.515-0.298,0.708
	C516.227,668.892,515.976,668.995,515.713,668.995z"/>
<path fill="#F35429" d="M519.711,668.995c-0.263,0-0.515-0.104-0.708-0.286c-0.184-0.193-0.286-0.446-0.286-0.708
	s0.102-0.525,0.286-0.708c0.365-0.366,1.04-0.378,1.417,0c0.183,0.193,0.296,0.446,0.296,0.708c0,0.25-0.114,0.515-0.296,0.708
	C520.225,668.892,519.974,668.995,519.711,668.995z"/>
<path fill="#F35429" d="M487.746,667.364c2.029,0,3.681-1.651,3.681-3.682c0-2.029-1.652-3.683-3.681-3.683
	c-2.031,0-3.684,1.653-3.684,3.683C484.062,665.713,485.715,667.364,487.746,667.364z M487.746,661.306
	c1.31,0,2.375,1.066,2.375,2.377c0,1.31-1.065,2.376-2.375,2.376c-1.311,0-2.377-1.066-2.377-2.376
	C485.369,662.372,486.435,661.306,487.746,661.306z"/>
<path fill="#F35429" d="M499.343,680.426l2.646-2.587c0.812-0.813,1.255-1.88,1.255-3.016c0-1.135-0.443-2.201-1.245-3.005
	l-0.593-0.593c0.491,0.399,1.101,0.617,1.745,0.617c0.742,0,1.439-0.29,1.964-0.815c1.082-1.081,1.083-2.843,0-3.926l-5.55-5.548
	c-0.521-0.521-1.211-0.807-1.945-0.807c-0.633,0-1.244,0.215-1.739,0.607l-0.062,0.033l-0.15,0.135l-0.062,0.06l-0.054,0.064
	l-0.028,0.034l-4.802,4.886l-0.686,0.686c-0.812,0.812-1.237,1.878-1.241,2.965l-1.925-1.924c-0.523-0.525-1.221-0.814-1.964-0.814
	c-0.742,0-1.438,0.289-1.964,0.814c-1.082,1.082-1.083,2.844,0,3.926l4.568,4.569c0.524,0.522,1.221,0.813,1.963,0.813
	c0.741,0,1.438-0.289,1.964-0.813l1.047-1.079l1.271,1.271l-1.177,1.413c-1.218,1.277-1.199,3.312,0.054,4.566l4.28,4.279
	c0.618,0.617,1.438,0.957,2.312,0.957c0.872,0,1.692-0.34,2.31-0.957c1.272-1.273,1.273-3.346,0.001-4.62L499.343,680.426z
	 M500.612,686.314c-0.384,0.384-0.885,0.575-1.386,0.575c-0.503,0-1.005-0.191-1.388-0.575l-4.281-4.279
	c-0.764-0.766-0.764-2.002-0.005-2.77l1.972-2.365l-3.051-3.053l-1.958,2.017c-0.287,0.287-0.665,0.432-1.041,0.432
	c-0.376,0-0.753-0.145-1.04-0.432l-4.569-4.568c-0.574-0.574-0.574-1.505,0-2.079c0.288-0.288,0.665-0.433,1.041-0.433
	c0.378,0,0.754,0.145,1.041,0.433l3.479,3.479l1.041-1.041c-0.605-1.114-0.451-2.536,0.493-3.479l0.694-0.693l4.885-4.97
	c0.01-0.012,0.014-0.025,0.023-0.036c0.01-0.01,0.023-0.013,0.033-0.021l0.04-0.026c0.282-0.25,0.634-0.375,0.985-0.375
	c0.37,0,0.738,0.139,1.023,0.423l5.55,5.549c0.574,0.574,0.574,1.505,0,2.079c-0.289,0.288-0.665,0.433-1.041,0.433
	c-0.377,0-0.752-0.145-1.04-0.433l-4.685-4.683l-1.863,1.854c0.084,0.067,0.173,0.127,0.251,0.207l5.261,5.26
	c1.149,1.15,1.149,3.013,0,4.163l-3.59,3.51l3.126,3.125C501.377,684.309,501.377,685.548,500.612,686.314z"/>
<path fill="#F35429" d="M511.042,680.163l-5.019-4.49c-0.229-0.206-0.467-0.25-0.625-0.25c-0.601,0-0.949,0.538-1.352,1.158
	c-0.172,0.269-0.362,0.563-0.582,0.821c-0.204,0.24-0.435,0.446-0.639,0.631c-0.442,0.4-0.859,0.777-0.859,1.313
	c0.001,0.201,0.065,0.501,0.374,0.778l5.021,4.488c0.438,0.394,1.038,0.609,1.69,0.609c0.846,0,1.652-0.358,2.214-0.983
	C512.326,683.056,512.228,681.227,511.042,680.163z M510.292,683.367c-0.314,0.349-0.767,0.549-1.242,0.549
	c-0.324,0-0.623-0.101-0.819-0.276l-4.851-4.337c0.093-0.094,0.218-0.209,0.321-0.301c0.242-0.221,0.514-0.468,0.757-0.754
	c0.257-0.3,0.481-0.644,0.683-0.955c0.084-0.13,0.186-0.286,0.274-0.411l4.755,4.253
	C510.818,681.717,510.873,682.719,510.292,683.367z"/>
<polygon fill-rule="evenodd" clip-rule="evenodd" fill="#FFFFFF" points="1092.268,1.826 1090.44,0 1086.164,4.275 1083.826,1.938 
	1082,3.764 1084.338,6.102 1084.329,6.111 1086.156,7.938 1086.165,7.928 1086.174,7.938 1088,6.111 1087.991,6.102 "/>
<polygon fill-rule="evenodd" clip-rule="evenodd" fill="#FFFFFF" points="1121.92,2.115 1119.805,0 1116.971,2.834 1114.145,0.008 
	1112,2.152 1114.826,4.979 1112.021,7.784 1114.137,9.899 1116.941,7.094 1119.775,9.929 1121.92,7.784 1119.086,4.95 "/>
<path fill-rule="evenodd" clip-rule="evenodd" fill="#BCBCCC" d="M1149.5,0c-4.143,0-7.5,3.358-7.5,7.5c0,4.142,3.357,7.5,7.5,7.5
	c4.142,0,7.5-3.358,7.5-7.5C1157,3.358,1153.642,0,1149.5,0z M1149.5,13.5c-3.313,0-6-2.687-6-6s2.687-6,6-6s6,2.687,6,6
	S1152.813,13.5,1149.5,13.5z"/>
<polygon fill-rule="evenodd" clip-rule="evenodd" fill="#BCBCCC" points="1152.699,5.355 1151.633,4.289 1149.492,6.43 
	1147.352,4.289 1146.285,5.355 1148.426,7.496 1146.285,9.636 1147.352,10.703 1149.492,8.562 1151.633,10.703 1152.699,9.636 
	1150.559,7.496 "/>
<g>
	<path fill="#91919E" d="M513,380.75c0.133,0,0.25,0.117,0.25,0.25v1c0,0.133-0.117,0.25-0.25,0.25h-29
		c-0.133,0-0.25-0.117-0.25-0.25v-1c0-0.133,0.117-0.25,0.25-0.25H513 M513,379h-29c-1.1,0-2,0.9-2,2v1c0,1.1,0.9,2,2,2h29
		c1.1,0,2-0.9,2-2v-1C515,379.9,514.1,379,513,379L513,379z"/>
</g>
<g>
	<path fill="#91919E" d="M511,361.75c0.133,0,0.25,0.117,0.25,0.25v14c0,0.133-0.117,0.25-0.25,0.25h-25
		c-0.133,0-0.25-0.117-0.25-0.25v-14c0-0.133,0.117-0.25,0.25-0.25H511 M511,360h-25c-1.1,0-2,0.9-2,2v14c0,1.1,0.9,2,2,2h25
		c1.1,0,2-0.9,2-2v-14C513,360.9,512.1,360,511,360L511,360z"/>
</g>
<path fill="#91919E" d="M585.875,380.75h-12c-1.034,0-1.875-0.842-1.875-1.875v-7c0-1.033,0.841-1.875,1.875-1.875
	c0.066,0,0.125-0.059,0.125-0.125v-3c0-0.066-0.059-0.125-0.125-0.125c-1.034,0-1.875-0.842-1.875-1.875v-3
	c0-1.033,0.841-1.875,1.875-1.875h9c0.777,0,1.776,0.414,2.326,0.963l1.586,1.586c0.549,0.55,0.963,1.549,0.963,2.326v14
	C587.75,379.908,586.909,380.75,585.875,380.75z M573.875,361.75c-0.066,0-0.125,0.059-0.125,0.125v3
	c0,0.066,0.059,0.125,0.125,0.125c1.034,0,1.875,0.842,1.875,1.875v3c0,1.033-0.841,1.875-1.875,1.875
	c-0.066,0-0.125,0.059-0.125,0.125v7c0,0.066,0.059,0.125,0.125,0.125h12c0.066,0,0.125-0.059,0.125-0.125v-14
	c0-0.316-0.228-0.865-0.451-1.088l-1.586-1.586c-0.223-0.224-0.772-0.451-1.088-0.451H573.875z"/>
<path fill="#91919E" d="M584.875,375.875c0,1.1-0.9,2-2,2h-6c-1.1,0-2-0.9-2-2v-2c0-1.1,0.9-2,2-2h6c1.1,0,2,0.9,2,2V375.875z"/>
<path fill="#91919E" d="M582.322,363.77c-0.246-0.492-0.648-0.492-0.895,0l-1.105,2.211c-0.246,0.492,0.003,0.895,0.553,0.895h2
	c0.55,0,0.799-0.402,0.553-0.895L582.322,363.77z"/>
<path fill="#91919E" d="M634,360h-30c-1.1,0-2,0.9-2,2v17c0,1.1,0.9,2,2,2h13v3.125h-7c-0.483,0-0.875,0.392-0.875,0.875
	s0.392,0.875,0.875,0.875h18c0.483,0,0.875-0.392,0.875-0.875s-0.392-0.875-0.875-0.875h-7V381h13c1.1,0,2-0.9,2-2v-17
	C636,360.9,635.1,360,634,360z M634.25,379c0,0.133-0.117,0.25-0.25,0.25h-30c-0.133,0-0.25-0.117-0.25-0.25v-17
	c0-0.133,0.117-0.25,0.25-0.25h30c0.133,0,0.25,0.117,0.25,0.25V379z"/>
<g>
	<path fill="#91919E" d="M697,361.75c0.133,0,0.25,0.117,0.25,0.25v12c0,0.133-0.117,0.25-0.25,0.25h-33
		c-0.133,0-0.25-0.117-0.25-0.25v-12c0-0.133,0.117-0.25,0.25-0.25H697 M697,360h-33c-1.1,0-2,0.9-2,2v12c0,1.1,0.9,2,2,2h33
		c1.1,0,2-0.9,2-2v-12C699,360.9,698.1,360,697,360L697,360z"/>
</g>
<circle fill="none" stroke="#91919E" stroke-width="1.75" stroke-miterlimit="10" cx="690" cy="368.001" r="4"/>
<line fill="none" stroke="#91919E" stroke-linecap="round" stroke-miterlimit="10" x1="667" y1="365" x2="674" y2="365"/>
<line fill="none" stroke="#91919E" stroke-linecap="round" stroke-miterlimit="10" x1="667" y1="368" x2="674" y2="368"/>
<line fill="none" stroke="#91919E" stroke-linecap="round" stroke-miterlimit="10" x1="667" y1="371" x2="674" y2="371"/>
<g>
	<path fill="#91919E" d="M668,377c0,0.55-0.45,1-1,1h-1c-0.55,0-1-0.45-1-1v-1c0-0.55,0.45-1,1-1h1c0.55,0,1,0.45,1,1V377z"/>
</g>
<g>
	<path fill="#91919E" d="M696,377c0,0.55-0.45,1-1,1h-1c-0.55,0-1-0.45-1-1v-1c0-0.55,0.45-1,1-1h1c0.55,0,1,0.45,1,1V377z"/>
</g>
<path fill="#91919E" d="M729.001,362.486l3.54,6.139c0.494,0.855,1.23,2.328,1.642,3.279c0.02,0.11,0.067,0.438,0.067,1.078
	c0,2.895-2.355,5.25-5.25,5.25s-5.25-2.355-5.25-5.25c0-0.641,0.047-0.967,0.067-1.078c0.413-0.953,1.148-2.425,1.642-3.28
	L729.001,362.486 M729,360c-0.362,0-0.725,0.238-0.999,0.715l-4.058,7.035c-0.549,0.952-1.351,2.561-1.781,3.572
	c0,0-0.163,0.383-0.163,1.66c0,3.865,3.135,7,7,7c3.866,0,7-3.135,7-7c0-1.277-0.162-1.659-0.162-1.659
	c-0.43-1.013-1.231-2.621-1.781-3.573L730,360.715C729.725,360.238,729.362,360,729,360L729,360z"/>
<path fill="#91919E" d="M762,374v-9c0-2.762-2.238-5-5-5s-5,2.238-5,5v9c0,2.467,1.792,4.506,4.143,4.914
	c-0.003,0.029-0.018,0.055-0.018,0.086v6c0,0.045,0.019,0.082,0.025,0.125H753c-0.483,0-0.875,0.392-0.875,0.875
	s0.392,0.875,0.875,0.875h8c0.483,0,0.875-0.392,0.875-0.875s-0.392-0.875-0.875-0.875h-3.15c0.006-0.043,0.025-0.08,0.025-0.125v-6
	c0-0.031-0.015-0.057-0.018-0.086C760.208,378.506,762,376.467,762,374z M760.25,374c0,1.792-1.458,3.25-3.25,3.25
	s-3.25-1.458-3.25-3.25v-9c0-1.792,1.458-3.25,3.25-3.25s3.25,1.458,3.25,3.25V374z"/>
<path fill="#91919E" d="M793.625,365.163v-2.288c0-0.483-0.392-0.875-0.875-0.875s-0.875,0.392-0.875,0.875v2.288
	c-1.062,0.18-1.875,1.1-1.875,2.212v7c0,1.112,0.813,2.032,1.875,2.212v5.288c0,1.723-1.402,3.125-3.125,3.125
	s-3.125-1.402-3.125-3.125v-7.288c1.062-0.18,1.875-1.1,1.875-2.212v-7c0-1.112-0.813-2.032-1.875-2.212v-2.288
	c0-0.483-0.392-0.875-0.875-0.875s-0.875,0.392-0.875,0.875v2.288c-1.062,0.18-1.875,1.1-1.875,2.212v7
	c0,1.112,0.813,2.032,1.875,2.212v7.288c0,2.688,2.187,4.875,4.875,4.875s4.875-2.188,4.875-4.875v-5.288
	c1.062-0.18,1.875-1.1,1.875-2.212v-7C795.5,366.263,794.687,365.343,793.625,365.163z M784.25,364.875h1c0.275,0,0.5,0.225,0.5,0.5
	v2.5h-2v-2.5C783.75,365.1,783.975,364.875,784.25,364.875z M793.75,374.375c0,0.275-0.225,0.5-0.5,0.5h-1
	c-0.275,0-0.5-0.225-0.5-0.5v-7c0-0.275,0.225-0.5,0.5-0.5h1c0.275,0,0.5,0.225,0.5,0.5V374.375z"/>
<g>
	<path fill="#91919E" d="M559,361.75c0.133,0,0.25,0.117,0.25,0.25v22c0,0.133-0.117,0.25-0.25,0.25h-15
		c-0.133,0-0.25-0.117-0.25-0.25v-22c0-0.133,0.117-0.25,0.25-0.25H559 M559,360h-15c-1.1,0-2,0.9-2,2v22c0,1.1,0.9,2,2,2h15
		c1.1,0,2-0.9,2-2v-22C561,360.9,560.1,360,559,360L559,360z"/>
</g>
<g>
	<path fill="#91919E" d="M557,364v16h-11v-16H557 M558,363h-13v18h13V363L558,363z"/>
</g>
<g>
	<path fill="#91919E" d="M825,361.75c6.203,0,11.25,5.047,11.25,11.25s-5.047,11.25-11.25,11.25s-11.25-5.047-11.25-11.25
		S818.797,361.75,825,361.75 M825,360c-7.18,0-13,5.82-13,13s5.82,13,13,13s13-5.82,13-13S832.18,360,825,360L825,360z"/>
</g>
<g>
	<path fill="#91919E" d="M825,369c2.206,0,4,1.794,4,4s-1.794,4-4,4s-4-1.794-4-4S822.794,369,825,369 M825,368
		c-2.762,0-5,2.238-5,5s2.238,5,5,5s5-2.238,5-5S827.762,368,825,368L825,368z"/>
</g>
<g>
	<path fill="#91919E" d="M825,371.5c0.827,0,1.5,0.673,1.5,1.5s-0.673,1.5-1.5,1.5s-1.5-0.673-1.5-1.5S824.173,371.5,825,371.5
		 M825,370.5c-1.381,0-2.5,1.119-2.5,2.5s1.119,2.5,2.5,2.5s2.5-1.119,2.5-2.5S826.381,370.5,825,370.5L825,370.5z"/>
</g>
<path fill="#91919E" d="M868.867,381.75h-12.084c-0.483,0-0.875-0.392-0.875-0.875v-11.5c0-0.484,0.392-0.875,0.875-0.875h16.334
	c0.483,0,0.875,0.391,0.875,0.875v7.25C873.992,379.451,871.693,381.75,868.867,381.75z M857.658,380h11.209
	c1.861,0,3.375-1.514,3.375-3.375v-6.375h-14.584V380z"/>
<path fill="#91919E" d="M873.504,360h-30.629c-0.483,0-0.875,0.392-0.875,0.875v9.272c0,0.483,0.392,0.875,0.875,0.875h3.762v3.671
	c0,3.891,3.165,7.057,7.056,7.057c0.483,0,0.875-0.392,0.875-0.875v-13.717h18.937c1.974,0,3.58-1.605,3.58-3.578
	C877.084,361.605,875.478,360,873.504,360z M843.75,361.75h1.482v7.522h-1.482V361.75z M873.504,365.408h-19.812
	c-0.483,0-0.875,0.393-0.875,0.875v13.645c-2.511-0.418-4.431-2.606-4.431-5.234v-4.546c0-0.483-0.392-0.875-0.875-0.875h-1.279
	v-7.522h27.271c1.009,0,1.83,0.82,1.83,1.83C875.334,364.588,874.513,365.408,873.504,365.408z"/>
<path fill="#91919E" d="M934.625,387.75h-19.75c-0.483,0-0.875-0.392-0.875-0.875v-16c0-0.483,0.392-0.875,0.875-0.875h24
	c0.483,0,0.875,0.392,0.875,0.875v11.75C939.75,385.451,937.451,387.75,934.625,387.75z M915.75,386h18.875
	c1.861,0,3.375-1.514,3.375-3.375V371.75h-22.25V386z"/>
<path fill="#91919E" d="M906.875,383.75h-4c-0.483,0-0.875-0.392-0.875-0.875v-10c0-0.483,0.392-0.875,0.875-0.875h4
	c0.292,0,0.566,0.146,0.728,0.39l1.074,1.61h3.198c0.483,0,0.875,0.393,0.875,0.875v6c0,0.484-0.392,0.875-0.875,0.875h-3.199
	l-1.073,1.61C907.441,383.604,907.167,383.75,906.875,383.75z M903.75,382h2.657l1.073-1.609c0.162-0.244,0.436-0.391,0.728-0.391
	H911v-4.25h-2.791c-0.292,0-0.566-0.146-0.728-0.389l-1.074-1.611h-2.657V382z"/>
<path fill="#91919E" d="M936.875,368.75h-4c-0.275,0-0.535-0.13-0.7-0.35l-2.737-3.65h-6.688v3.125c0,0.483-0.392,0.875-0.875,0.875
	h-3c-0.483,0-0.875-0.392-0.875-0.875v-7c0-0.483,0.392-0.875,0.875-0.875h13c0.282,0,0.548,0.137,0.712,0.366l5,7
	c0.19,0.267,0.216,0.618,0.066,0.909C937.503,368.566,937.203,368.75,936.875,368.75z M933.312,367h1.862l-3.75-5.25H919.75V367H921
	v-3.125c0-0.483,0.392-0.875,0.875-0.875h8c0.275,0,0.535,0.13,0.7,0.35L933.312,367z"/>
<path fill="#91919E" d="M967.875,366.75h-5c-0.483,0-0.875-0.392-0.875-0.875v-5c0-0.483,0.392-0.875,0.875-0.875h5
	c0.483,0,0.875,0.392,0.875,0.875v5C968.75,366.358,968.358,366.75,967.875,366.75z M963.75,365H967v-3.25h-3.25V365z"/>
<path fill="#91919E" d="M977.875,366.75h-5c-0.483,0-0.875-0.392-0.875-0.875v-5c0-0.483,0.392-0.875,0.875-0.875h5
	c0.483,0,0.875,0.392,0.875,0.875v5C978.75,366.358,978.358,366.75,977.875,366.75z M973.75,365H977v-3.25h-3.25V365z"/>
<path fill="#91919E" d="M987.875,366.75h-5c-0.483,0-0.875-0.392-0.875-0.875v-5c0-0.483,0.392-0.875,0.875-0.875h5
	c0.483,0,0.875,0.392,0.875,0.875v5C988.75,366.358,988.358,366.75,987.875,366.75z M983.75,365H987v-3.25h-3.25V365z"/>
<path fill="#91919E" d="M967.875,376.75h-5c-0.483,0-0.875-0.392-0.875-0.875v-5c0-0.483,0.392-0.875,0.875-0.875h5
	c0.483,0,0.875,0.392,0.875,0.875v5C968.75,376.358,968.358,376.75,967.875,376.75z M963.75,375H967v-3.25h-3.25V375z"/>
<path fill="#91919E" d="M977.875,376.75h-5c-0.483,0-0.875-0.392-0.875-0.875v-5c0-0.483,0.392-0.875,0.875-0.875h5
	c0.483,0,0.875,0.392,0.875,0.875v5C978.75,376.358,978.358,376.75,977.875,376.75z M973.75,375H977v-3.25h-3.25V375z"/>
<path fill="#91919E" d="M987.875,376.75h-5c-0.483,0-0.875-0.392-0.875-0.875v-5c0-0.483,0.392-0.875,0.875-0.875h5
	c0.483,0,0.875,0.392,0.875,0.875v5C988.75,376.358,988.358,376.75,987.875,376.75z M983.75,375H987v-3.25h-3.25V375z"/>
<path fill="#91919E" d="M967.875,386.75h-5c-0.483,0-0.875-0.392-0.875-0.875v-5c0-0.483,0.392-0.875,0.875-0.875h5
	c0.483,0,0.875,0.392,0.875,0.875v5C968.75,386.358,968.358,386.75,967.875,386.75z M963.75,385H967v-3.25h-3.25V385z"/>
<path fill="#91919E" d="M977.875,386.75h-5c-0.483,0-0.875-0.392-0.875-0.875v-5c0-0.483,0.392-0.875,0.875-0.875h5
	c0.483,0,0.875,0.392,0.875,0.875v5C978.75,386.358,978.358,386.75,977.875,386.75z M973.75,385H977v-3.25h-3.25V385z"/>
<path fill="#91919E" d="M987.875,386.75h-5c-0.483,0-0.875-0.392-0.875-0.875v-5c0-0.483,0.392-0.875,0.875-0.875h5
	c0.483,0,0.875,0.392,0.875,0.875v5C988.75,386.358,988.358,386.75,987.875,386.75z M983.75,385H987v-3.25h-3.25V385z"/>
<path fill="#91919E" d="M1045.875,373.25c-0.482,0-0.875-0.392-0.875-0.875v-1c0-5.307-4.317-9.625-9.625-9.625
	c-5.307,0-9.625,4.318-9.625,9.625v1c0,0.483-0.391,0.875-0.875,0.875c-0.482,0-0.875-0.392-0.875-0.875v-1
	c0-6.271,5.104-11.375,11.375-11.375c6.272,0,11.375,5.104,11.375,11.375v1C1046.75,372.858,1046.359,373.25,1045.875,373.25z"/>
<path fill="#91919E" d="M1045.875,386.25c-1.585,0-2.875-1.289-2.875-2.875v-6c0-1.586,1.29-2.875,2.875-2.875
	c1.586,0,2.875,1.289,2.875,2.875v6C1048.75,384.961,1047.461,386.25,1045.875,386.25z M1045.875,376.25
	c-0.619,0-1.125,0.505-1.125,1.125v6c0,0.62,0.506,1.125,1.125,1.125c0.621,0,1.125-0.505,1.125-1.125v-6
	C1047,376.755,1046.496,376.25,1045.875,376.25z"/>
<path fill="#91919E" d="M1024.875,386.25c-1.585,0-2.875-1.289-2.875-2.875v-6c0-1.586,1.29-2.875,2.875-2.875
	c1.586,0,2.875,1.289,2.875,2.875v6C1027.75,384.961,1026.461,386.25,1024.875,386.25z M1024.875,376.25
	c-0.619,0-1.125,0.505-1.125,1.125v6c0,0.62,0.506,1.125,1.125,1.125c0.621,0,1.125-0.505,1.125-1.125v-6
	C1026,376.755,1025.496,376.25,1024.875,376.25z"/>
<path fill="#91919E" d="M1069.202,360.109l-6.8-0.002c-1.586,0-2.876,1.29-2.876,2.875l-0.001,0.801c0,1.586,1.29,2.875,2.875,2.875
	l5.238,0.001V383c0,0.276,0.224,0.5,0.5,0.5s0.5-0.224,0.5-0.5v-16.341h0.563c1.585,0,2.875-1.29,2.875-2.875v-0.8
	C1072.077,361.398,1070.787,360.109,1069.202,360.109z M1070.327,363.784c0,0.62-0.505,1.125-1.125,1.125l-6.802-0.001
	c-0.62,0-1.125-0.504-1.125-1.123l0.001-0.803c0-0.619,0.505-1.125,1.126-1.125l6.8,0.002c0.62,0,1.125,0.504,1.125,1.125V363.784z"
	/>
<path fill="#91919E" d="M1056.424,360c-0.619,0-1.814,0.355-2.719,0.809c-0.939,0.471-1.705,1.625-1.705,2.574
	c0,0.948,0.766,2.103,1.705,2.574c0.904,0.453,2.1,0.808,2.717,0.808c0.846,0.001,1.302-1.474,1.302-2.862v-1.041
	C1057.724,361.476,1057.268,360,1056.424,360z"/>
<path fill="#91919E" d="M1086.6,360.107l-6.801,0.002c-1.585,0-2.875,1.289-2.875,2.875v0.8c0,1.585,1.29,2.875,2.875,2.875h0.564
	V383c0,0.276,0.224,0.5,0.5,0.5s0.5-0.224,0.5-0.5v-16.341l5.237-0.001c1.585,0,2.874-1.289,2.874-2.875v-0.801
	C1089.475,361.397,1088.185,360.107,1086.6,360.107z M1087.725,363.783c0,0.621-0.504,1.125-1.124,1.125l-6.802,0.001
	c-0.62,0-1.125-0.505-1.125-1.125v-0.8c0-0.621,0.505-1.125,1.125-1.125l6.801-0.002c0.62,0,1.125,0.506,1.125,1.125V363.783z"/>
<path fill="#91919E" d="M1095.295,360.809c-0.904-0.453-2.1-0.809-2.717-0.809c-0.846,0-1.301,1.476-1.301,2.861v1.041
	c0,1.389,0.457,2.863,1.301,2.862c0.619,0,1.814-0.354,2.718-0.808c0.94-0.472,1.704-1.626,1.704-2.574
	C1097,362.434,1096.236,361.279,1095.295,360.809z"/>
<path fill="#91919E" d="M1152.875,374.415c1.654,0,3-1.346,3-3s-1.346-3-3-3s-3,1.346-3,3S1151.221,374.415,1152.875,374.415z
	 M1152.875,369.415c1.104,0,2,0.897,2,2s-0.896,2-2,2s-2-0.897-2-2S1151.771,369.415,1152.875,369.415z"/>
<path fill="#91919E" d="M1185.725,370.112c-0.443-0.192-0.959,0.011-1.152,0.454c-1.133,2.609-2.52,4.089-4.122,4.397
	c-2.296,0.442-4.437-1.647-4.448-1.66c-13.715-14.04-22.703-13.382-23.688-13.264c-5.501,0.039-10.314,5.337-10.314,11.375v0.875
	h3.557c0.436,3.655,3.549,6.5,7.318,6.5c4.066,0,7.375-3.309,7.375-7.375s-3.309-7.375-7.375-7.375c-3.77,0-6.883,2.845-7.318,6.5
	h-1.762c0.432-4.296,3.959-8.75,8.58-8.75l0.132-0.01c0.085-0.013,8.733-1.083,22.25,12.753c0.101,0.102,2.277,2.242,5.04,2.242
	c0.316,0,0.641-0.027,0.972-0.091c2.209-0.419,4.028-2.243,5.409-5.421C1186.371,370.82,1186.168,370.305,1185.725,370.112z
	 M1152.875,365.79c3.102,0,5.625,2.523,5.625,5.625s-2.523,5.625-5.625,5.625s-5.625-2.523-5.625-5.625
	S1149.773,365.79,1152.875,365.79z"/>
<path fill="#91919E" d="M1126.572,365.866l-6.061-4.986c-0.244-0.183-1.516-1.077-2.686-0.841c-1.897,0.385-2.418,2.232-2.429,3.166
	l0.001,3.252c0,0.077,0.025,0.146,0.044,0.219c-0.673,0.318-1.144,1.006-1.144,1.809v3.104c-1.361,0.711-2.299,2.119-2.299,3.762
	c0,2.359,1.912,4.271,4.273,4.271c2.358,0,4.271-1.912,4.271-4.271c0-1.643-0.937-3.052-2.299-3.763v-3.103
	c0-0.801-0.47-1.488-1.143-1.809c0.02-0.071,0.045-0.141,0.045-0.219l-0.001-3.242c0-0.013,0.025-1.258,1.026-1.461
	c0.251-0.049,0.895,0.236,1.258,0.503l6.008,4.943c0.059,0.052,1.419,1.284,1.419,3.452v4.926c0.002,0.789-0.213,3.203-1.253,3.982
	l-4.127,3.67c-0.342,0.252-1.724,1.419-1.617,3.773c0.021,0.469,0.408,0.835,0.873,0.835c0.014,0,0.027-0.001,0.041-0.001
	c0.482-0.021,0.855-0.431,0.834-0.914c-0.072-1.59,0.861-2.254,0.891-2.273c0.037-0.025,0.073-0.052,0.107-0.082l4.103-3.652
	c1.855-1.383,1.899-4.941,1.898-5.34v-4.924C1128.608,367.66,1126.671,365.951,1126.572,365.866z M1117.246,374.121
	c0,0.55-0.438,1-0.975,1c-0.535,0-0.973-0.45-0.973-1v-5.637c0-0.551,0.438-1,0.973-1c0.536,0,0.975,0.449,0.975,1V374.121z"/>
<path fill-rule="evenodd" clip-rule="evenodd" fill="#FFFFFF" d="M992,390h7v7h-7V390z"/>
<path fill-rule="evenodd" clip-rule="evenodd" fill="#FFFFFF" d="M1002,390h6.969v7H1002V390z"/>
<path fill-rule="evenodd" clip-rule="evenodd" fill="#FFFFFF" d="M1012,390h7v7h-7V390z"/>
<path fill-rule="evenodd" clip-rule="evenodd" fill="#FFFFFF" d="M992,399.969h7v7h-7V399.969z"/>
<path fill-rule="evenodd" clip-rule="evenodd" fill="#FFFFFF" d="M1002,399.969h6.969v7H1002V399.969z"/>
<path fill-rule="evenodd" clip-rule="evenodd" fill="#FFFFFF" d="M1012,399.969h7v7h-7V399.969z"/>
<path fill-rule="evenodd" clip-rule="evenodd" fill="#FFFFFF" d="M992,409.969h7V417h-7V409.969z"/>
<path fill-rule="evenodd" clip-rule="evenodd" fill="#FFFFFF" d="M1002,409.969h6.969V417H1002V409.969z"/>
<path fill-rule="evenodd" clip-rule="evenodd" fill="#FFFFFF" d="M1012,409.969h7V417h-7V409.969z"/>
<path fill-rule="evenodd" clip-rule="evenodd" fill="#91919E" d="M992,360h7v7h-7V360z"/>
<path fill-rule="evenodd" clip-rule="evenodd" fill="#91919E" d="M1002,360h6.969v7H1002V360z"/>
<path fill-rule="evenodd" clip-rule="evenodd" fill="#91919E" d="M1012,360h7v7h-7V360z"/>
<path fill-rule="evenodd" clip-rule="evenodd" fill="#91919E" d="M992,369.969h7v7h-7V369.969z"/>
<path fill-rule="evenodd" clip-rule="evenodd" fill="#91919E" d="M1002,369.969h6.969v7H1002V369.969z"/>
<path fill-rule="evenodd" clip-rule="evenodd" fill="#91919E" d="M1012,369.969h7v7h-7V369.969z"/>
<path fill-rule="evenodd" clip-rule="evenodd" fill="#91919E" d="M992,379.969h7V387h-7V379.969z"/>
<path fill-rule="evenodd" clip-rule="evenodd" fill="#91919E" d="M1002,379.969h6.969V387H1002V379.969z"/>
<path fill-rule="evenodd" clip-rule="evenodd" fill="#91919E" d="M1012,379.969h7V387h-7V379.969z"/>
<path fill-rule="evenodd" clip-rule="evenodd" fill="#F35429" d="M992,420h7v7h-7V420z"/>
<path fill-rule="evenodd" clip-rule="evenodd" fill="#F35429" d="M1002,420h6.969v7H1002V420z"/>
<path fill-rule="evenodd" clip-rule="evenodd" fill="#F35429" d="M1012,420h7v7h-7V420z"/>
<path fill-rule="evenodd" clip-rule="evenodd" fill="#F35429" d="M992,429.969h7v7h-7V429.969z"/>
<path fill-rule="evenodd" clip-rule="evenodd" fill="#F35429" d="M1002,429.969h6.969v7H1002V429.969z"/>
<path fill-rule="evenodd" clip-rule="evenodd" fill="#F35429" d="M1012,429.969h7v7h-7V429.969z"/>
<path fill-rule="evenodd" clip-rule="evenodd" fill="#F35429" d="M992,439.969h7V447h-7V439.969z"/>
<path fill-rule="evenodd" clip-rule="evenodd" fill="#F35429" d="M1002,439.969h6.969V447H1002V439.969z"/>
<path fill-rule="evenodd" clip-rule="evenodd" fill="#F35429" d="M1012,439.969h7V447h-7V439.969z"/>
<path fill="#91919E" d="M1241.738,361.937c0.133,0,0.25,0.117,0.25,0.25v21.545c0,0.133-0.117,0.25-0.25,0.25h-37.477
	c-0.133,0-0.25-0.117-0.25-0.25v-21.545c0-0.133,0.117-0.25,0.25-0.25H1241.738 M1242,360h-38c-1.1,0-2,0.899-2,2v21.956
	c0,1.101,0.9,2,2,2h38c1.1,0,2-0.899,2-2V362C1244,360.899,1243.1,360,1242,360L1242,360z"/>
<path fill="#91919E" d="M1230,381.836c-4.894,0-8.875-3.98-8.875-8.875c0-4.893,3.981-8.874,8.875-8.874s8.875,3.981,8.875,8.874
	C1238.875,377.855,1234.894,381.836,1230,381.836z M1230,365.836c-3.929,0-7.125,3.197-7.125,7.125c0,3.93,3.196,7.125,7.125,7.125
	s7.125-3.195,7.125-7.125C1237.125,369.033,1233.929,365.836,1230,365.836z"/>
<path fill="#91919E" d="M1216.094,365.962h-9.219c-0.483,0-0.875-0.517-0.875-1s0.392-0.969,0.875-0.969h9.219
	c0.483,0,0.875,0.485,0.875,0.969S1216.577,365.962,1216.094,365.962z"/>
<path fill="#91919E" d="M1230,368.961c2.206,0,4,1.795,4,4c0,2.206-1.794,4-4,4s-4-1.794-4-4
	C1226,370.756,1227.794,368.961,1230,368.961 M1230,367.961c-2.762,0-5,2.238-5,5s2.238,5,5,5s5-2.238,5-5
	S1232.762,367.961,1230,367.961L1230,367.961z"/>
<path fill="#F35429" d="M1241.738,421.937c0.133,0,0.25,0.117,0.25,0.25v21.545c0,0.133-0.117,0.25-0.25,0.25h-37.477
	c-0.133,0-0.25-0.117-0.25-0.25v-21.545c0-0.133,0.117-0.25,0.25-0.25H1241.738 M1242,420h-38c-1.1,0-2,0.899-2,2v21.956
	c0,1.101,0.9,2,2,2h38c1.1,0,2-0.899,2-2V422C1244,420.899,1243.1,420,1242,420L1242,420z"/>
<path fill="#F35429" d="M1230,441.836c-4.894,0-8.875-3.98-8.875-8.875c0-4.893,3.981-8.874,8.875-8.874s8.875,3.981,8.875,8.874
	C1238.875,437.855,1234.894,441.836,1230,441.836z M1230,425.836c-3.929,0-7.125,3.197-7.125,7.125c0,3.93,3.196,7.125,7.125,7.125
	s7.125-3.195,7.125-7.125C1237.125,429.033,1233.929,425.836,1230,425.836z"/>
<path fill="#F35429" d="M1216.094,425.962h-9.219c-0.483,0-0.875-0.517-0.875-1s0.392-0.969,0.875-0.969h9.219
	c0.483,0,0.875,0.485,0.875,0.969S1216.577,425.962,1216.094,425.962z"/>
<path fill="#F35429" d="M1230,428.961c2.206,0,4,1.795,4,4c0,2.206-1.794,4-4,4s-4-1.794-4-4
	C1226,430.756,1227.794,428.961,1230,428.961 M1230,427.961c-2.762,0-5,2.238-5,5s2.238,5,5,5s5-2.238,5-5
	S1232.762,427.961,1230,427.961L1230,427.961z"/>
<path fill="#FFFFFF" d="M549.537,719.717c-1.158,0-2.245-0.45-3.056-1.267l-3.229-3.247c-1.676-1.687-1.667-4.42,0.017-6.096
	l17.954-17.857c0.81-0.806,1.89-1.25,3.039-1.25c1.158,0,2.244,0.45,3.056,1.267l3.232,3.249c1.675,1.687,1.667,4.42-0.018,6.096
	l-17.956,17.855C551.766,719.272,550.687,719.717,549.537,719.717z M564.261,691.125c-0.85,0-1.648,0.327-2.247,0.922
	l-17.954,17.857c-1.245,1.239-1.251,3.261-0.012,4.506l3.229,3.247c1.193,1.201,3.303,1.207,4.504,0.013l17.956-17.855
	c1.245-1.239,1.25-3.261,0.012-4.506l-3.232-3.249C565.92,691.457,565.118,691.125,564.261,691.125z"/>
<circle fill-rule="evenodd" clip-rule="evenodd" fill="#FFFFFF" cx="563.176" cy="696.625" r="0.637"/>
<path fill="#FFFFFF" d="M563.176,697.496c-0.232,0-0.451-0.09-0.616-0.255c-0.338-0.342-0.336-0.895,0.002-1.233
	c0.333-0.327,0.903-0.324,1.23,0.004c0.338,0.341,0.338,0.894-0.002,1.231C563.625,697.407,563.407,697.496,563.176,697.496z
	 M563.176,696.224c-0.107,0-0.208,0.042-0.284,0.117c-0.156,0.155-0.156,0.412,0,0.57c0.15,0.149,0.417,0.15,0.568,0
	c0.156-0.156,0.156-0.411-0.001-0.568C563.384,696.266,563.284,696.224,563.176,696.224z"/>
<circle fill-rule="evenodd" clip-rule="evenodd" fill="#FFFFFF" cx="565.152" cy="698.604" r="0.637"/>
<path fill="#FFFFFF" d="M565.154,699.474c-0.235,0-0.455-0.092-0.62-0.258c-0.165-0.165-0.254-0.385-0.253-0.617
	s0.091-0.45,0.257-0.612c0.326-0.327,0.9-0.328,1.23,0.002c0.339,0.342,0.338,0.896-0.003,1.232
	C565.603,699.384,565.385,699.474,565.154,699.474z M565.152,698.201c-0.107,0-0.208,0.041-0.284,0.117
	c-0.077,0.076-0.119,0.177-0.119,0.282c-0.001,0.107,0.042,0.209,0.117,0.286c0.153,0.151,0.417,0.153,0.569,0.003
	c0.154-0.153,0.154-0.415,0-0.57C565.361,698.242,565.259,698.201,565.152,698.201z"/>
<path fill-rule="evenodd" clip-rule="evenodd" fill="#FFFFFF" d="M561.829,698.836c-0.247,0.247-0.652,0.246-0.898-0.002
	c-0.249-0.251-0.249-0.653,0.001-0.901c0.249-0.247,0.652-0.248,0.899,0.005C562.078,698.185,562.078,698.587,561.829,698.836z"/>
<path fill="#FFFFFF" d="M561.381,699.255c-0.233,0-0.453-0.091-0.617-0.255c-0.164-0.167-0.254-0.386-0.254-0.618
	c0-0.233,0.091-0.451,0.257-0.615c0.331-0.329,0.906-0.326,1.232,0.007c0.162,0.162,0.252,0.381,0.251,0.613
	c0,0.232-0.091,0.45-0.255,0.615C561.831,699.164,561.613,699.255,561.381,699.255z M561.38,697.982
	c-0.106,0-0.208,0.041-0.284,0.117c-0.076,0.075-0.118,0.176-0.118,0.283s0.042,0.209,0.119,0.286
	c0.15,0.151,0.416,0.152,0.566,0.001c0.076-0.075,0.118-0.177,0.118-0.284s-0.041-0.208-0.116-0.282
	C561.588,698.024,561.488,697.982,561.38,697.982z"/>
<circle fill-rule="evenodd" clip-rule="evenodd" fill="#FFFFFF" cx="563.355" cy="700.362" r="0.637"/>
<path fill="#FFFFFF" d="M563.359,701.231c-0.235,0-0.456-0.092-0.62-0.257c-0.165-0.165-0.255-0.385-0.254-0.618
	c0-0.231,0.092-0.449,0.257-0.612c0.33-0.327,0.903-0.327,1.231,0.002c0.164,0.166,0.254,0.386,0.253,0.619
	c-0.001,0.233-0.092,0.451-0.256,0.614C563.807,701.142,563.59,701.231,563.359,701.231z M563.356,699.96
	c-0.108,0-0.208,0.041-0.285,0.117c-0.076,0.074-0.118,0.175-0.118,0.28c0,0.108,0.042,0.209,0.118,0.285
	c0.151,0.152,0.417,0.156,0.568,0.005c0.076-0.076,0.118-0.177,0.118-0.283c0-0.109-0.041-0.211-0.117-0.286
	C563.564,700.001,563.463,699.96,563.356,699.96z"/>
<circle fill-rule="evenodd" clip-rule="evenodd" fill="#FFFFFF" cx="550.366" cy="709.436" r="0.636"/>
<path fill="#FFFFFF" d="M550.366,710.307c-0.233,0-0.452-0.091-0.617-0.256c-0.164-0.165-0.254-0.384-0.253-0.616
	c0-0.233,0.091-0.452,0.257-0.615c0.33-0.328,0.904-0.326,1.23,0.002c0.337,0.34,0.336,0.893-0.003,1.231
	C550.815,710.217,550.598,710.307,550.366,710.307z M550.367,709.033c-0.107,0-0.209,0.042-0.285,0.117
	c-0.076,0.077-0.118,0.178-0.118,0.284c-0.001,0.107,0.042,0.208,0.117,0.285c0.152,0.151,0.415,0.153,0.567,0.002
	c0.156-0.157,0.157-0.412,0.001-0.569C550.575,709.075,550.474,709.033,550.367,709.033z"/>
<circle fill-rule="evenodd" clip-rule="evenodd" fill="#FFFFFF" cx="552.342" cy="711.414" r="0.637"/>
<path fill="#FFFFFF" d="M552.343,712.283c-0.234,0-0.454-0.091-0.618-0.256c-0.165-0.167-0.254-0.385-0.253-0.617
	c0-0.232,0.091-0.451,0.257-0.614c0.326-0.327,0.9-0.328,1.23,0.002c0.339,0.343,0.337,0.896-0.003,1.233
	C552.792,712.193,552.575,712.283,552.343,712.283z M552.342,711.011c-0.107,0-0.208,0.041-0.283,0.117
	c-0.077,0.076-0.119,0.177-0.119,0.282c-0.001,0.108,0.041,0.21,0.117,0.287c0.151,0.149,0.418,0.151,0.569,0.002
	c0.155-0.153,0.155-0.415,0-0.571C552.551,711.052,552.45,711.011,552.342,711.011z"/>
<circle fill-rule="evenodd" clip-rule="evenodd" fill="#FFFFFF" cx="548.571" cy="711.194" r="0.637"/>
<path fill="#FFFFFF" d="M548.571,712.065c-0.233,0-0.452-0.091-0.617-0.256c-0.339-0.342-0.337-0.896,0.003-1.233
	c0.33-0.329,0.904-0.326,1.23,0.007c0.337,0.339,0.336,0.89-0.002,1.229C549.021,711.976,548.803,712.065,548.571,712.065z
	 M548.569,710.792c-0.106,0-0.207,0.042-0.283,0.117c-0.157,0.155-0.157,0.412,0,0.57c0.149,0.15,0.416,0.152,0.567,0.001
	c0.157-0.157,0.157-0.412,0.001-0.567C548.779,710.834,548.677,710.792,548.569,710.792z"/>
<circle fill-rule="evenodd" clip-rule="evenodd" fill="#FFFFFF" cx="550.545" cy="713.172" r="0.637"/>
<path fill="#FFFFFF" d="M550.548,714.041c-0.234,0-0.454-0.091-0.62-0.256c-0.166-0.166-0.255-0.386-0.254-0.618
	s0.092-0.45,0.257-0.613c0.33-0.327,0.903-0.327,1.23,0.003c0.338,0.342,0.337,0.895-0.002,1.232
	C550.998,713.952,550.781,714.041,550.548,714.041z M550.546,712.77c-0.108,0-0.208,0.041-0.286,0.117
	c-0.076,0.075-0.118,0.175-0.118,0.281c-0.001,0.107,0.041,0.21,0.117,0.287c0.152,0.15,0.419,0.151,0.568,0.003
	c0.157-0.157,0.158-0.413,0.001-0.57C550.754,712.811,550.653,712.77,550.546,712.77z"/>
<path fill="#FFFFFF" d="M523.424,706.044v-10.281c0-3.155-2.557-5.713-5.712-5.713S512,692.607,512,695.763v10.281
	c0,2.896,2.163,5.262,4.957,5.635c-0.002,0.027-0.015,0.05-0.015,0.077v6.702h-3.799c-0.425,0-0.771,0.345-0.771,0.77
	c0,0.428,0.346,0.772,0.771,0.772h9.139c0.426,0,0.771-0.345,0.771-0.772c0-0.425-0.345-0.77-0.771-0.77h-3.799v-6.702
	c0-0.027-0.012-0.05-0.015-0.077C521.262,711.306,523.424,708.939,523.424,706.044z M517.712,710.214
	c-2.299,0-4.169-1.871-4.169-4.17v-10.281c0-2.3,1.87-4.172,4.169-4.172s4.169,1.872,4.169,4.172v10.281
	C521.881,708.343,520.011,710.214,517.712,710.214z"/>
<path fill="#FFFFFF" d="M517.712,696.048c-0.263,0-0.515-0.103-0.708-0.297c-0.184-0.184-0.286-0.435-0.286-0.698
	c0-0.274,0.102-0.524,0.286-0.708c0.365-0.377,1.04-0.377,1.416,0c0.183,0.184,0.298,0.446,0.298,0.708
	c0,0.251-0.115,0.515-0.298,0.698C518.226,695.945,517.975,696.048,517.712,696.048z"/>
<path fill="#FFFFFF" d="M515.713,698.995c-0.263,0-0.514-0.104-0.709-0.286c-0.182-0.193-0.296-0.446-0.296-0.708
	s0.114-0.525,0.296-0.708c0.366-0.366,1.041-0.378,1.417,0c0.184,0.183,0.298,0.446,0.298,0.708s-0.114,0.515-0.298,0.708
	C516.227,698.892,515.976,698.995,515.713,698.995z"/>
<path fill="#FFFFFF" d="M519.711,698.995c-0.263,0-0.515-0.104-0.708-0.286c-0.184-0.193-0.286-0.446-0.286-0.708
	s0.102-0.525,0.286-0.708c0.365-0.366,1.04-0.378,1.417,0c0.183,0.193,0.296,0.446,0.296,0.708c0,0.25-0.114,0.515-0.296,0.708
	C520.225,698.892,519.974,698.995,519.711,698.995z"/>
<path fill="#FFFFFF" d="M487.746,697.364c2.029,0,3.681-1.651,3.681-3.682c0-2.029-1.652-3.683-3.681-3.683
	c-2.031,0-3.684,1.653-3.684,3.683C484.062,695.713,485.715,697.364,487.746,697.364z M487.746,691.306
	c1.31,0,2.375,1.066,2.375,2.377c0,1.31-1.065,2.376-2.375,2.376c-1.311,0-2.377-1.066-2.377-2.376
	C485.369,692.372,486.435,691.306,487.746,691.306z"/>
<path fill="#FFFFFF" d="M499.343,710.426l2.646-2.587c0.812-0.813,1.255-1.88,1.255-3.016c0-1.135-0.443-2.201-1.245-3.005
	l-0.593-0.593c0.491,0.399,1.101,0.617,1.745,0.617c0.742,0,1.439-0.29,1.964-0.815c1.082-1.081,1.083-2.843,0-3.926l-5.55-5.548
	c-0.521-0.521-1.211-0.807-1.945-0.807c-0.633,0-1.244,0.215-1.739,0.607l-0.062,0.033l-0.15,0.135l-0.062,0.06l-0.054,0.064
	l-0.028,0.034l-4.802,4.886l-0.686,0.686c-0.812,0.812-1.237,1.878-1.241,2.965l-1.925-1.924c-0.523-0.525-1.221-0.814-1.964-0.814
	c-0.742,0-1.438,0.289-1.964,0.814c-1.082,1.082-1.083,2.844,0,3.926l4.568,4.569c0.524,0.522,1.221,0.813,1.963,0.813
	c0.741,0,1.438-0.289,1.964-0.813l1.047-1.079l1.271,1.271l-1.177,1.413c-1.218,1.277-1.199,3.312,0.054,4.566l4.28,4.279
	c0.618,0.617,1.438,0.957,2.312,0.957c0.872,0,1.692-0.34,2.31-0.957c1.272-1.273,1.273-3.346,0.001-4.62L499.343,710.426z
	 M500.612,716.314c-0.384,0.384-0.885,0.575-1.386,0.575c-0.503,0-1.005-0.191-1.388-0.575l-4.281-4.279
	c-0.764-0.766-0.764-2.002-0.005-2.77l1.972-2.365l-3.051-3.053l-1.958,2.017c-0.287,0.287-0.665,0.432-1.041,0.432
	c-0.376,0-0.753-0.145-1.04-0.432l-4.569-4.568c-0.574-0.574-0.574-1.505,0-2.079c0.288-0.288,0.665-0.433,1.041-0.433
	c0.378,0,0.754,0.145,1.041,0.433l3.479,3.479l1.041-1.041c-0.605-1.114-0.451-2.536,0.493-3.479l0.694-0.693l4.885-4.97
	c0.01-0.012,0.014-0.025,0.023-0.036c0.01-0.01,0.023-0.013,0.033-0.021l0.04-0.026c0.282-0.25,0.634-0.375,0.985-0.375
	c0.37,0,0.738,0.139,1.023,0.423l5.55,5.549c0.574,0.574,0.574,1.505,0,2.079c-0.289,0.288-0.665,0.433-1.041,0.433
	c-0.377,0-0.752-0.145-1.04-0.433l-4.685-4.683l-1.863,1.854c0.084,0.067,0.173,0.127,0.251,0.207l5.261,5.26
	c1.149,1.15,1.149,3.013,0,4.163l-3.59,3.51l3.126,3.125C501.377,714.309,501.377,715.548,500.612,716.314z"/>
<path fill="#FFFFFF" d="M511.042,710.163l-5.019-4.49c-0.229-0.206-0.467-0.25-0.625-0.25c-0.601,0-0.949,0.538-1.352,1.158
	c-0.172,0.269-0.362,0.563-0.582,0.821c-0.204,0.24-0.435,0.446-0.639,0.631c-0.442,0.4-0.859,0.777-0.859,1.313
	c0.001,0.201,0.065,0.501,0.374,0.778l5.021,4.488c0.438,0.394,1.038,0.609,1.69,0.609c0.846,0,1.652-0.358,2.214-0.983
	C512.326,713.056,512.228,711.227,511.042,710.163z M510.292,713.367c-0.314,0.349-0.767,0.549-1.242,0.549
	c-0.324,0-0.623-0.101-0.819-0.276l-4.851-4.337c0.093-0.094,0.218-0.209,0.321-0.301c0.242-0.221,0.514-0.468,0.757-0.754
	c0.257-0.3,0.481-0.644,0.683-0.955c0.084-0.13,0.186-0.286,0.274-0.411l4.755,4.253
	C510.818,711.717,510.873,712.719,510.292,713.367z"/>
<path fill-rule="evenodd" clip-rule="evenodd" fill="#F35429" d="M1149.5,30c-4.143,0-7.5,3.358-7.5,7.5c0,4.142,3.357,7.5,7.5,7.5
	c4.142,0,7.5-3.358,7.5-7.5C1157,33.358,1153.642,30,1149.5,30z M1149.5,43.5c-3.313,0-6-2.687-6-6s2.687-6,6-6s6,2.687,6,6
	S1152.813,43.5,1149.5,43.5z"/>
<polygon fill-rule="evenodd" clip-rule="evenodd" fill="#F35429" points="1152.699,35.355 1151.633,34.289 1149.492,36.43 
	1147.352,34.289 1146.285,35.355 1148.426,37.496 1146.285,39.636 1147.352,40.703 1149.492,38.562 1151.633,40.703 
	1152.699,39.636 1150.559,37.496 "/>
<path fill="#BCBCCC" d="M1185.895,10.971l-0.074-0.018c-1.333-0.308-2.712-0.625-3.02-1.3c-0.047-0.102-0.188-0.412,0.149-1.048
	c0.869-1.638,1.534-5.249,0.815-6.899c-0.81-1.859-2.841-1.703-4.27-1.703c-1.436,0-2.583,0.663-3.29,1.728
	c-0.634,0.957-0.304,4.116,0.839,6.875c0.274,0.667,0.203,0.941,0.157,1.042c-0.306,0.679-1.669,0.992-2.987,1.296l-0.119,0.027
	c-1.949,0.447-2.096,1.478-2.096,2.999c0,0.553,0.447,1,1,1h13.992c0.553,0,1-0.447,1-1
	C1187.992,12.449,1187.846,11.417,1185.895,10.971z"/>
<g>
	<g>
		<path fill="#BCBCCC" d="M1217,0h-14c-0.553,0-1,0.447-1,1v2h16V1C1218,0.447,1217.553,0,1217,0z M1202,10c0,0.553,0.447,1,1,1h14
			c0.553,0,1-0.447,1-1V5h-16V10z"/>
	</g>
</g>
<rect x="1202" y="3" fill="#FFFFFF" width="16" height="2"/>
<g>
	<g>
		<path fill-rule="evenodd" clip-rule="evenodd" fill="#BCBCCC" d="M1272.66,5.688c0.049-0.091,0.124-0.21,0.18-0.299
			c0.301-0.479,0.756-1.204,0.422-2.01c-0.342-0.822-1.191-1.013-1.754-1.139c-0.088-0.021-0.206-0.048-0.298-0.072
			c-0.025-0.093-0.052-0.21-0.071-0.3c-0.127-0.562-0.318-1.411-1.141-1.753C1269.812,0.038,1269.615,0,1269.41,0
			c-0.566,0-1.039,0.299-1.422,0.537c-0.09,0.056-0.208,0.131-0.299,0.18c-0.092-0.049-0.211-0.124-0.299-0.18
			c-0.383-0.238-0.856-0.537-1.423-0.537c-0.204,0-0.401,0.038-0.587,0.115c-0.822,0.342-1.014,1.191-1.141,1.753
			c-0.02,0.09-0.045,0.207-0.072,0.3c-0.092,0.024-0.209,0.052-0.299,0.072c-0.561,0.126-1.41,0.316-1.751,1.138
			c-0.335,0.807,0.12,1.531,0.421,2.011c0.057,0.089,0.131,0.208,0.18,0.299c-0.049,0.091-0.123,0.21-0.18,0.298
			c-0.301,0.48-0.758,1.205-0.42,2.012c0.338,0.821,1.189,1.012,1.75,1.139c0.09,0.021,0.207,0.046,0.299,0.072
			c0.027,0.092,0.053,0.21,0.072,0.299c0.079,0.35,0.184,0.811,0.449,1.192v4.965c0,0,3-1.031,3-3.031c0,2,3,3.031,3,3.031v-4.967
			c0.265-0.381,0.368-0.842,0.447-1.191c0.02-0.089,0.048-0.207,0.073-0.299c0.092-0.026,0.21-0.053,0.298-0.073
			c0.562-0.126,1.412-0.316,1.754-1.138c0.334-0.807-0.121-1.531-0.422-2.011C1272.784,5.897,1272.709,5.778,1272.66,5.688z
			 M1267.689,8.977c-1.816,0-3.289-1.473-3.289-3.289c0-1.817,1.473-3.289,3.289-3.289s3.289,1.472,3.289,3.289
			C1270.979,7.504,1269.506,8.977,1267.689,8.977z"/>
	</g>
</g>
<path fill="#726E7A" d="M536.186,204.586c0-4.762-3.059-8.799-7.312-10.284C526.14,186.006,518.318,180,509.117,180
	c-9.194,0-17.008,5.996-19.752,14.281c-4.283,1.471-7.365,5.524-7.365,10.305c0,6.02,4.882,10.9,10.903,10.9v-19.896
	c2.207-6.849,8.638-11.821,16.214-11.821c7.521,0,13.919,4.902,16.166,11.682v18.684c-0.775,1.637-5.343,10.698-11.381,10.98
	c-0.47-1.275-1.682-2.188-3.12-2.188c-1.841,0-3.334,1.495-3.334,3.335c0,1.842,1.493,3.335,3.334,3.335
	c1.447,0,2.669-0.928,3.13-2.217c7.195-0.257,12.191-9.722,13.322-12.078C532.322,214.384,536.186,209.939,536.186,204.586z"/>
<path fill="#BCBCCC" d="M1243,0h-10c-0.55,0-1,0.45-1,1v13c0,0.55,0.45,1,1,1h10c0.55,0,1-0.45,1-1V1C1244,0.45,1243.55,0,1243,0z
	 M1234,4h8v1h-8V4z M1240,7h-6V6h6V7z M1242,3h-8V2h8V3z"/>
<rect x="1234" y="4" fill="#FFFFFF" width="8" height="1"/>
<rect x="1234" y="6" fill="#FFFFFF" width="6" height="1"/>
<rect x="1234" y="2" fill="#FFFFFF" width="8" height="1"/>
<path fill="#4571EC" d="M513.134,108c-0.192,0-0.388-0.049-0.566-0.152c-0.542-0.313-0.729-1.008-0.415-1.551L516.365,99
	l-4.212-7.297c-0.314-0.543-0.127-1.237,0.415-1.55c0.544-0.314,1.238-0.127,1.551,0.415l4.54,7.865
	c0.203,0.351,0.203,0.784,0,1.135l-4.54,7.864C513.908,107.796,513.526,108,513.134,108z"/>
<path fill="#4571EC" d="M495.016,104.367c-0.224,0-0.446-0.087-0.613-0.261l-12.166-12.667c-0.325-0.339-0.314-0.877,0.024-1.202
	c0.34-0.324,0.878-0.313,1.202,0.024l12.166,12.667c0.325,0.339,0.314,0.877-0.024,1.202
	C495.44,104.289,495.228,104.367,495.016,104.367z"/>
<path fill="#4571EC" d="M482.85,104.367c-0.212,0-0.424-0.079-0.589-0.237c-0.339-0.325-0.35-0.863-0.024-1.202l12.166-12.667
	c0.324-0.339,0.862-0.35,1.202-0.024c0.339,0.325,0.35,0.863,0.024,1.202l-12.166,12.667
	C483.296,104.28,483.074,104.367,482.85,104.367z"/>
<path fill="#BCBCCC" d="M512.716,802.458c0.478,0.478,1.104,0.717,1.729,0.717c0.626,0,1.251-0.239,1.729-0.717l4.075-4.075
	c0.04-0.039,0.067-0.085,0.104-0.127c1.434,0.826,3.092,1.305,4.866,1.305c5.401,0,9.779-4.379,9.779-9.781
	c0-5.4-4.378-9.779-9.779-9.779c-5.403,0-9.78,4.379-9.78,9.779c0,1.863,0.53,3.599,1.434,5.08
	c-0.026,0.024-0.056,0.041-0.081,0.066l-4.075,4.075C511.761,799.955,511.761,801.504,512.716,802.458z M525.218,796.3
	c-3.596,0-6.521-2.925-6.521-6.521c0-3.595,2.925-6.519,6.521-6.519c3.595,0,6.52,2.924,6.52,6.519
	C531.738,793.375,528.813,796.3,525.218,796.3z"/>
<path fill="#FFFFFF" d="M494.251,780L482,791.434h24.502L494.251,780z"/>
</svg>
