<?xml version="1.0" encoding="utf-8"?>
<!-- Generator: Adobe Illustrator 15.1.0, SVG Export Plug-In  -->
<!DOCTYPE svg PUBLIC "-//W3C//DTD SVG 1.1//EN" "http://www.w3.org/Graphics/SVG/1.1/DTD/svg11.dtd" [
	<!ENTITY ns_flows "http://ns.adobe.com/Flows/1.0/">
]>
<svg version="1.1"
	 xmlns="http://www.w3.org/2000/svg" xmlns:xlink="http://www.w3.org/1999/xlink" xmlns:a="http://ns.adobe.com/AdobeSVGViewerExtensions/3.0/"
	 x="0px" y="0px" width="750px" height="330px" viewBox="0 0 750 330" overflow="visible" enable-background="new 0 0 750 330"
	 xml:space="preserve">
<defs>
</defs>
<rect y="180" display="none" fill="#D0D2D3" width="750" height="150"/>
<g>
	<path fill="#231F20" d="M31,20.75c0.133,0,0.25,0.117,0.25,0.25v1c0,0.133-0.117,0.25-0.25,0.25H2c-0.133,0-0.25-0.117-0.25-0.25
		v-1c0-0.133,0.117-0.25,0.25-0.25H31 M31,19H2c-1.1,0-2,0.9-2,2v1c0,1.1,0.9,2,2,2h29c1.1,0,2-0.9,2-2v-1C33,19.9,32.1,19,31,19
		L31,19z"/>
</g>
<g>
	<path fill="#231F20" d="M29,1.75c0.133,0,0.25,0.117,0.25,0.25v14c0,0.133-0.117,0.25-0.25,0.25H4c-0.133,0-0.25-0.117-0.25-0.25V2
		c0-0.133,0.117-0.25,0.25-0.25H29 M29,0H4C2.9,0,2,0.9,2,2v14c0,1.1,0.9,2,2,2h25c1.1,0,2-0.9,2-2V2C31,0.9,30.1,0,29,0L29,0z"/>
</g>
<path fill="#231F20" d="M103.875,20.75h-12c-1.034,0-1.875-0.841-1.875-1.875v-7C90,10.841,90.841,10,91.875,10
	C91.941,10,92,9.941,92,9.875v-3c0-0.066-0.059-0.125-0.125-0.125C90.841,6.75,90,5.909,90,4.875v-3C90,0.841,90.841,0,91.875,0h9
	c0.777,0,1.776,0.414,2.326,0.963l1.586,1.586c0.549,0.549,0.963,1.549,0.963,2.326v14C105.75,19.909,104.909,20.75,103.875,20.75z
	 M91.875,1.75c-0.066,0-0.125,0.059-0.125,0.125v3C91.75,4.941,91.809,5,91.875,5c1.034,0,1.875,0.841,1.875,1.875v3
	c0,1.034-0.841,1.875-1.875,1.875c-0.066,0-0.125,0.059-0.125,0.125v7c0,0.066,0.059,0.125,0.125,0.125h12
	c0.066,0,0.125-0.059,0.125-0.125v-14c0-0.316-0.228-0.865-0.451-1.088l-1.586-1.586c-0.223-0.223-0.772-0.451-1.088-0.451H91.875z"
	/>
<path fill="#231F20" d="M102.875,15.875c0,1.1-0.9,2-2,2h-6c-1.1,0-2-0.9-2-2v-2c0-1.1,0.9-2,2-2h6c1.1,0,2,0.9,2,2V15.875z"/>
<path fill="#231F20" d="M100.322,3.77c-0.246-0.492-0.648-0.492-0.895,0L98.322,5.98c-0.246,0.492,0.003,0.895,0.553,0.895h2
	c0.55,0,0.799-0.402,0.553-0.895L100.322,3.77z"/>
<path fill="#231F20" d="M152,0h-30c-1.1,0-2,0.9-2,2v17c0,1.1,0.9,2,2,2h13v3.125h-7c-0.483,0-0.875,0.392-0.875,0.875
	s0.392,0.875,0.875,0.875h18c0.483,0,0.875-0.392,0.875-0.875s-0.392-0.875-0.875-0.875h-7V21h13c1.1,0,2-0.9,2-2V2
	C154,0.9,153.1,0,152,0z M152.25,19c0,0.133-0.117,0.25-0.25,0.25h-30c-0.133,0-0.25-0.117-0.25-0.25V2
	c0-0.133,0.117-0.25,0.25-0.25h30c0.133,0,0.25,0.117,0.25,0.25V19z"/>
<g>
	<path fill="#231F20" d="M215,1.75c0.133,0,0.25,0.117,0.25,0.25v12c0,0.133-0.117,0.25-0.25,0.25h-33
		c-0.133,0-0.25-0.117-0.25-0.25V2c0-0.133,0.117-0.25,0.25-0.25H215 M215,0h-33c-1.1,0-2,0.9-2,2v12c0,1.1,0.9,2,2,2h33
		c1.1,0,2-0.9,2-2V2C217,0.9,216.1,0,215,0L215,0z"/>
</g>
<circle fill="none" stroke="#231F20" stroke-width="1.75" stroke-miterlimit="10" cx="208" cy="8.001" r="4"/>
<line fill="none" stroke="#231F20" stroke-linecap="round" stroke-miterlimit="10" x1="185" y1="5" x2="192" y2="5"/>
<line fill="none" stroke="#231F20" stroke-linecap="round" stroke-miterlimit="10" x1="185" y1="8" x2="192" y2="8"/>
<line fill="none" stroke="#231F20" stroke-linecap="round" stroke-miterlimit="10" x1="185" y1="11" x2="192" y2="11"/>
<g>
	<path fill="#231F20" d="M186,17c0,0.55-0.45,1-1,1h-1c-0.55,0-1-0.45-1-1v-1c0-0.55,0.45-1,1-1h1c0.55,0,1,0.45,1,1V17z"/>
</g>
<g>
	<path fill="#231F20" d="M214,17c0,0.55-0.45,1-1,1h-1c-0.55,0-1-0.45-1-1v-1c0-0.55,0.45-1,1-1h1c0.55,0,1,0.45,1,1V17z"/>
</g>
<path fill="#231F20" d="M247.001,2.486l3.54,6.138c0.494,0.856,1.23,2.328,1.642,3.28c0.02,0.11,0.067,0.437,0.067,1.078
	c0,2.895-2.355,5.25-5.25,5.25s-5.25-2.355-5.25-5.25c0-0.64,0.047-0.967,0.067-1.077c0.413-0.953,1.148-2.425,1.642-3.281
	L247.001,2.486 M247,0c-0.362,0-0.725,0.238-0.999,0.714l-4.058,7.035c-0.549,0.953-1.351,2.561-1.781,3.573
	c0,0-0.163,0.383-0.163,1.659c0,3.866,3.135,7,7,7c3.866,0,7-3.134,7-7c0-1.276-0.162-1.659-0.162-1.659
	c-0.43-1.013-1.231-2.621-1.781-3.574L248,0.714C247.725,0.238,247.362,0,247,0L247,0z"/>
<path fill="#231F20" d="M280,14V5c0-2.762-2.238-5-5-5s-5,2.238-5,5v9c0,2.467,1.792,4.505,4.143,4.914
	c-0.003,0.03-0.018,0.056-0.018,0.086v6c0,0.044,0.019,0.083,0.025,0.125H271c-0.483,0-0.875,0.392-0.875,0.875
	s0.392,0.875,0.875,0.875h8c0.483,0,0.875-0.392,0.875-0.875s-0.392-0.875-0.875-0.875h-3.15c0.006-0.042,0.025-0.081,0.025-0.125
	v-6c0-0.031-0.015-0.057-0.018-0.086C278.208,18.505,280,16.467,280,14z M278.25,14c0,1.792-1.458,3.25-3.25,3.25
	s-3.25-1.458-3.25-3.25V5c0-1.792,1.458-3.25,3.25-3.25s3.25,1.458,3.25,3.25V14z"/>
<path fill="#231F20" d="M311.625,5.163V2.875c0-0.483-0.392-0.875-0.875-0.875s-0.875,0.392-0.875,0.875v2.288
	c-1.062,0.18-1.875,1.1-1.875,2.212v7c0,1.112,0.813,2.032,1.875,2.212v5.288c0,1.723-1.402,3.125-3.125,3.125
	s-3.125-1.402-3.125-3.125v-7.288c1.062-0.18,1.875-1.1,1.875-2.212v-7c0-1.112-0.813-2.032-1.875-2.212V0.875
	c0-0.483-0.392-0.875-0.875-0.875s-0.875,0.392-0.875,0.875v2.288c-1.062,0.18-1.875,1.1-1.875,2.212v7
	c0,1.112,0.813,2.032,1.875,2.212v7.288c0,2.688,2.187,4.875,4.875,4.875s4.875-2.187,4.875-4.875v-5.288
	c1.062-0.18,1.875-1.1,1.875-2.212v-7C313.5,6.263,312.687,5.343,311.625,5.163z M302.25,4.875h1c0.275,0,0.5,0.225,0.5,0.5v2.5h-2
	v-2.5C301.75,5.1,301.975,4.875,302.25,4.875z M311.75,14.375c0,0.275-0.225,0.5-0.5,0.5h-1c-0.275,0-0.5-0.225-0.5-0.5v-7
	c0-0.275,0.225-0.5,0.5-0.5h1c0.275,0,0.5,0.225,0.5,0.5V14.375z"/>
<g>
	<path fill="#231F20" d="M77,1.75c0.133,0,0.25,0.117,0.25,0.25v22c0,0.133-0.117,0.25-0.25,0.25H62c-0.133,0-0.25-0.117-0.25-0.25
		V2c0-0.133,0.117-0.25,0.25-0.25H77 M77,0H62c-1.1,0-2,0.9-2,2v22c0,1.1,0.9,2,2,2h15c1.1,0,2-0.9,2-2V2C79,0.9,78.1,0,77,0L77,0z"
		/>
</g>
<g>
	<path fill="#231F20" d="M75,4v16H64V4H75 M76,3H63v18h13V3L76,3z"/>
</g>
<g>
	<path fill="#231F20" d="M343,1.75c6.203,0,11.25,5.047,11.25,11.25S349.203,24.25,343,24.25S331.75,19.203,331.75,13
		S336.797,1.75,343,1.75 M343,0c-7.18,0-13,5.82-13,13s5.82,13,13,13s13-5.82,13-13S350.18,0,343,0L343,0z"/>
</g>
<g>
	<path fill="#231F20" d="M343,9c2.206,0,4,1.794,4,4s-1.794,4-4,4s-4-1.794-4-4S340.794,9,343,9 M343,8c-2.762,0-5,2.239-5,5
		s2.238,5,5,5s5-2.239,5-5S345.762,8,343,8L343,8z"/>
</g>
<g>
	<path fill="#231F20" d="M343,11.5c0.827,0,1.5,0.673,1.5,1.5s-0.673,1.5-1.5,1.5s-1.5-0.673-1.5-1.5S342.173,11.5,343,11.5
		 M343,10.5c-1.381,0-2.5,1.119-2.5,2.5s1.119,2.5,2.5,2.5s2.5-1.119,2.5-2.5S344.381,10.5,343,10.5L343,10.5z"/>
</g>
<path fill="#231F20" d="M386.867,21.75h-12.084c-0.483,0-0.875-0.392-0.875-0.875v-11.5c0-0.483,0.392-0.875,0.875-0.875h16.334
	c0.483,0,0.875,0.392,0.875,0.875v7.25C391.992,19.451,389.693,21.75,386.867,21.75z M375.658,20h11.209
	c1.861,0,3.375-1.514,3.375-3.375V10.25h-14.584V20z"/>
<path fill="#231F20" d="M391.504,0h-30.629C360.392,0,360,0.392,360,0.875v9.272c0,0.483,0.392,0.875,0.875,0.875h3.762v3.671
	c0,3.891,3.165,7.057,7.056,7.057c0.483,0,0.875-0.392,0.875-0.875V7.159h18.937c1.974,0,3.58-1.605,3.58-3.579S393.478,0,391.504,0
	z M361.75,1.75h1.482v7.522h-1.482V1.75z M391.504,5.409h-19.812c-0.483,0-0.875,0.392-0.875,0.875v13.644
	c-2.511-0.418-4.431-2.606-4.431-5.234v-4.546c0-0.483-0.392-0.875-0.875-0.875h-1.279V1.75h27.271c1.009,0,1.83,0.821,1.83,1.83
	S392.513,5.409,391.504,5.409z"/>
<path fill="#231F20" d="M452.625,27.75h-19.75c-0.483,0-0.875-0.392-0.875-0.875v-16c0-0.483,0.392-0.875,0.875-0.875h24
	c0.483,0,0.875,0.392,0.875,0.875v11.75C457.75,25.451,455.451,27.75,452.625,27.75z M433.75,26h18.875
	c1.861,0,3.375-1.514,3.375-3.375V11.75h-22.25V26z"/>
<path fill="#231F20" d="M424.875,23.75h-4c-0.483,0-0.875-0.392-0.875-0.875v-10c0-0.483,0.392-0.875,0.875-0.875h4
	c0.292,0,0.566,0.146,0.728,0.39L426.677,14h3.198c0.483,0,0.875,0.392,0.875,0.875v6c0,0.483-0.392,0.875-0.875,0.875h-3.199
	l-1.073,1.61C425.441,23.604,425.167,23.75,424.875,23.75z M421.75,22h2.657l1.073-1.61c0.162-0.244,0.436-0.39,0.728-0.39H429
	v-4.25h-2.791c-0.292,0-0.566-0.146-0.728-0.39l-1.074-1.611h-2.657V22z"/>
<path fill="#231F20" d="M454.875,8.75h-4c-0.275,0-0.535-0.13-0.7-0.35l-2.737-3.65h-6.688v3.125c0,0.483-0.392,0.875-0.875,0.875
	h-3c-0.483,0-0.875-0.392-0.875-0.875v-7C436,0.392,436.392,0,436.875,0h13c0.282,0,0.548,0.136,0.712,0.366l5,7
	c0.19,0.267,0.216,0.618,0.066,0.909C455.503,8.567,455.203,8.75,454.875,8.75z M451.312,7h1.862l-3.75-5.25H437.75V7H439V3.875
	C439,3.392,439.392,3,439.875,3h8c0.275,0,0.535,0.13,0.7,0.35L451.312,7z"/>
<path fill="#231F20" d="M485.875,6.75h-5c-0.483,0-0.875-0.392-0.875-0.875v-5C480,0.392,480.392,0,480.875,0h5
	c0.483,0,0.875,0.392,0.875,0.875v5C486.75,6.358,486.358,6.75,485.875,6.75z M481.75,5H485V1.75h-3.25V5z"/>
<path fill="#231F20" d="M495.875,6.75h-5c-0.483,0-0.875-0.392-0.875-0.875v-5C490,0.392,490.392,0,490.875,0h5
	c0.483,0,0.875,0.392,0.875,0.875v5C496.75,6.358,496.358,6.75,495.875,6.75z M491.75,5H495V1.75h-3.25V5z"/>
<path fill="#231F20" d="M505.875,6.75h-5c-0.483,0-0.875-0.392-0.875-0.875v-5C500,0.392,500.392,0,500.875,0h5
	c0.483,0,0.875,0.392,0.875,0.875v5C506.75,6.358,506.358,6.75,505.875,6.75z M501.75,5H505V1.75h-3.25V5z"/>
<path fill="#231F20" d="M485.875,16.75h-5c-0.483,0-0.875-0.392-0.875-0.875v-5c0-0.483,0.392-0.875,0.875-0.875h5
	c0.483,0,0.875,0.392,0.875,0.875v5C486.75,16.358,486.358,16.75,485.875,16.75z M481.75,15H485v-3.25h-3.25V15z"/>
<path fill="#231F20" d="M495.875,16.75h-5c-0.483,0-0.875-0.392-0.875-0.875v-5c0-0.483,0.392-0.875,0.875-0.875h5
	c0.483,0,0.875,0.392,0.875,0.875v5C496.75,16.358,496.358,16.75,495.875,16.75z M491.75,15H495v-3.25h-3.25V15z"/>
<path fill="#231F20" d="M505.875,16.75h-5c-0.483,0-0.875-0.392-0.875-0.875v-5c0-0.483,0.392-0.875,0.875-0.875h5
	c0.483,0,0.875,0.392,0.875,0.875v5C506.75,16.358,506.358,16.75,505.875,16.75z M501.75,15H505v-3.25h-3.25V15z"/>
<path fill="#231F20" d="M485.875,26.75h-5c-0.483,0-0.875-0.392-0.875-0.875v-5c0-0.483,0.392-0.875,0.875-0.875h5
	c0.483,0,0.875,0.392,0.875,0.875v5C486.75,26.358,486.358,26.75,485.875,26.75z M481.75,25H485v-3.25h-3.25V25z"/>
<path fill="#231F20" d="M495.875,26.75h-5c-0.483,0-0.875-0.392-0.875-0.875v-5c0-0.483,0.392-0.875,0.875-0.875h5
	c0.483,0,0.875,0.392,0.875,0.875v5C496.75,26.358,496.358,26.75,495.875,26.75z M491.75,25H495v-3.25h-3.25V25z"/>
<path fill="#231F20" d="M505.875,26.75h-5c-0.483,0-0.875-0.392-0.875-0.875v-5c0-0.483,0.392-0.875,0.875-0.875h5
	c0.483,0,0.875,0.392,0.875,0.875v5C506.75,26.358,506.358,26.75,505.875,26.75z M501.75,25H505v-3.25h-3.25V25z"/>
<g>
	<g>
		<g>
			<path fill="#231F20" d="M515.199,4.2c0,0.55-0.45,1-1,1H511c-0.55,0-1-0.45-1-1V1c0-0.55,0.45-1,1-1h3.199c0.55,0,1,0.45,1,1V4.2
				z"/>
		</g>
		<g>
			<path fill="#231F20" d="M525.6,4.2c0,0.55-0.45,1-1,1H521.4c-0.55,0-1-0.45-1-1V1c0-0.55,0.45-1,1-1h3.199c0.55,0,1,0.45,1,1V4.2
				z"/>
		</g>
		<g>
			<path fill="#231F20" d="M536,4.2c0,0.55-0.45,1-1,1h-3.2c-0.55,0-1-0.45-1-1V1c0-0.55,0.45-1,1-1h3.2c0.55,0,1,0.45,1,1V4.2z"/>
		</g>
		<g>
			<path fill="#231F20" d="M515.199,14.6c0,0.55-0.45,1-1,1H511c-0.55,0-1-0.45-1-1v-3.2c0-0.55,0.45-1,1-1h3.199c0.55,0,1,0.45,1,1
				V14.6z"/>
		</g>
		<g>
			<path fill="#231F20" d="M525.6,14.6c0,0.55-0.45,1-1,1H521.4c-0.55,0-1-0.45-1-1v-3.2c0-0.55,0.45-1,1-1h3.199c0.55,0,1,0.45,1,1
				V14.6z"/>
		</g>
		<g>
			<path fill="#231F20" d="M536,14.6c0,0.55-0.45,1-1,1h-3.2c-0.55,0-1-0.45-1-1v-3.2c0-0.55,0.45-1,1-1h3.2c0.55,0,1,0.45,1,1V14.6
				z"/>
		</g>
		<g>
			<path fill="#231F20" d="M515.199,25c0,0.55-0.45,1-1,1H511c-0.55,0-1-0.45-1-1v-3.2c0-0.55,0.45-1,1-1h3.199c0.55,0,1,0.45,1,1
				V25z"/>
		</g>
		<g>
			<path fill="#231F20" d="M525.6,25c0,0.55-0.45,1-1,1H521.4c-0.55,0-1-0.45-1-1v-3.2c0-0.55,0.45-1,1-1h3.199c0.55,0,1,0.45,1,1
				V25z"/>
		</g>
		<g>
			<path fill="#231F20" d="M536,25c0,0.55-0.45,1-1,1h-3.2c-0.55,0-1-0.45-1-1v-3.2c0-0.55,0.45-1,1-1h3.2c0.55,0,1,0.45,1,1V25z"/>
		</g>
	</g>
</g>
<path fill="#231F20" d="M563.875,13.25c-0.482,0-0.875-0.392-0.875-0.875v-1c0-5.307-4.317-9.625-9.625-9.625
	c-5.307,0-9.625,4.318-9.625,9.625v1c0,0.483-0.391,0.875-0.875,0.875c-0.482,0-0.875-0.392-0.875-0.875v-1
	C542,5.103,547.104,0,553.375,0c6.272,0,11.375,5.103,11.375,11.375v1C564.75,12.858,564.359,13.25,563.875,13.25z"/>
<path fill="#231F20" d="M563.875,26.25c-1.585,0-2.875-1.29-2.875-2.875v-6c0-1.585,1.29-2.875,2.875-2.875
	c1.586,0,2.875,1.29,2.875,2.875v6C566.75,24.96,565.461,26.25,563.875,26.25z M563.875,16.25c-0.619,0-1.125,0.505-1.125,1.125v6
	c0,0.62,0.506,1.125,1.125,1.125c0.621,0,1.125-0.505,1.125-1.125v-6C565,16.755,564.496,16.25,563.875,16.25z"/>
<path fill="#231F20" d="M542.875,26.25c-1.585,0-2.875-1.29-2.875-2.875v-6c0-1.585,1.29-2.875,2.875-2.875
	c1.586,0,2.875,1.29,2.875,2.875v6C545.75,24.96,544.461,26.25,542.875,26.25z M542.875,16.25c-0.619,0-1.125,0.505-1.125,1.125v6
	c0,0.62,0.506,1.125,1.125,1.125c0.621,0,1.125-0.505,1.125-1.125v-6C544,16.755,543.496,16.25,542.875,16.25z"/>
<path fill="#231F20" d="M587.202,0.109l-6.8-0.001c-1.586,0-2.876,1.29-2.876,2.874l-0.001,0.802c0,1.585,1.29,2.875,2.875,2.875
	l5.238,0V23c0,0.276,0.224,0.5,0.5,0.5s0.5-0.224,0.5-0.5V6.659h0.563c1.585,0,2.875-1.29,2.875-2.875v-0.8
	C590.077,1.398,588.787,0.109,587.202,0.109z M588.327,3.784c0,0.62-0.505,1.125-1.125,1.125l-6.802,0
	c-0.62,0-1.125-0.505-1.125-1.124l0.001-0.802c0-0.62,0.505-1.125,1.126-1.125l6.8,0.001c0.62,0,1.125,0.505,1.125,1.125V3.784z"/>
<path fill="#231F20" d="M574.424,0c-0.619,0-1.814,0.355-2.719,0.808C570.766,1.279,570,2.433,570,3.382
	c0,0.949,0.766,2.103,1.705,2.574c0.904,0.453,2.1,0.808,2.717,0.808c0.846,0,1.302-1.474,1.302-2.862V2.862
	C575.724,1.476,575.268,0,574.424,0z"/>
<path fill="#231F20" d="M604.6,0.108l-6.801,0.001c-1.585,0-2.875,1.29-2.875,2.875v0.8c0,1.585,1.29,2.875,2.875,2.875h0.564V23
	c0,0.276,0.224,0.5,0.5,0.5s0.5-0.224,0.5-0.5V6.659l5.237,0c1.585,0,2.874-1.29,2.874-2.875V2.983
	C607.475,1.397,606.185,0.108,604.6,0.108z M605.725,3.784c0,0.62-0.504,1.125-1.124,1.125l-6.802,0
	c-0.62,0-1.125-0.505-1.125-1.125v-0.8c0-0.62,0.505-1.125,1.125-1.125l6.801-0.001c0.62,0,1.125,0.505,1.125,1.125V3.784z"/>
<path fill="#231F20" d="M613.295,0.808C612.391,0.355,611.195,0,610.578,0c-0.846,0-1.301,1.476-1.301,2.862v1.041
	c0,1.388,0.457,2.862,1.301,2.862c0.619,0,1.814-0.355,2.718-0.808C614.236,5.485,615,4.331,615,3.382
	C615,2.433,614.236,1.279,613.295,0.808z"/>
<path fill="#231F20" d="M670.875,14.415c1.654,0,3-1.346,3-3s-1.346-3-3-3s-3,1.346-3,3S669.221,14.415,670.875,14.415z
	 M670.875,9.415c1.104,0,2,0.897,2,2s-0.896,2-2,2s-2-0.897-2-2S669.771,9.415,670.875,9.415z"/>
<path fill="#231F20" d="M703.725,10.112c-0.443-0.193-0.959,0.011-1.152,0.454c-1.133,2.609-2.52,4.089-4.122,4.397
	c-2.296,0.443-4.437-1.648-4.448-1.66C680.287-0.737,671.299-0.079,670.314,0.04C664.813,0.079,660,5.377,660,11.415v0.875h3.557
	c0.436,3.655,3.549,6.5,7.318,6.5c4.066,0,7.375-3.309,7.375-7.375s-3.309-7.375-7.375-7.375c-3.77,0-6.883,2.845-7.318,6.5h-1.762
	c0.432-4.296,3.959-8.75,8.58-8.75l0.132-0.01c0.085-0.013,8.733-1.083,22.25,12.753c0.101,0.102,2.277,2.242,5.04,2.242
	c0.316,0,0.641-0.028,0.972-0.091c2.209-0.419,4.028-2.244,5.409-5.421C704.371,10.82,704.168,10.305,703.725,10.112z M670.875,5.79
	c3.102,0,5.625,2.523,5.625,5.625s-2.523,5.625-5.625,5.625s-5.625-2.523-5.625-5.625S667.773,5.79,670.875,5.79z"/>
<path fill="#231F20" d="M644.572,5.866l-6.061-4.986c-0.244-0.182-1.516-1.078-2.686-0.84c-1.897,0.384-2.418,2.232-2.429,3.166
	l0.001,3.251c0,0.078,0.025,0.147,0.044,0.219c-0.673,0.318-1.144,1.006-1.144,1.808v3.104c-1.361,0.711-2.299,2.12-2.299,3.762
	c0,2.359,1.912,4.272,4.273,4.272c2.358,0,4.271-1.913,4.271-4.272c0-1.643-0.937-3.052-2.299-3.763V8.484
	c0-0.801-0.47-1.488-1.143-1.808c0.02-0.072,0.045-0.142,0.045-0.22l-0.001-3.242c0-0.013,0.025-1.258,1.026-1.46
	c0.251-0.049,0.895,0.236,1.258,0.502l6.008,4.943c0.059,0.052,1.419,1.284,1.419,3.452v4.926c0.002,0.788-0.213,3.203-1.253,3.982
	l-4.127,3.669c-0.342,0.252-1.724,1.419-1.617,3.773c0.021,0.469,0.408,0.835,0.873,0.835c0.014,0,0.027,0,0.041-0.001
	c0.482-0.021,0.855-0.431,0.834-0.914c-0.072-1.59,0.861-2.254,0.891-2.274c0.037-0.024,0.073-0.051,0.107-0.082l4.103-3.652
	c1.855-1.383,1.899-4.941,1.898-5.34v-4.924C646.608,7.66,644.671,5.951,644.572,5.866z M635.246,14.121c0,0.55-0.438,1-0.975,1
	c-0.535,0-0.973-0.45-0.973-1V8.484c0-0.55,0.438-1,0.973-1c0.536,0,0.975,0.45,0.975,1V14.121z"/>
<g>
	<path fill="#F35429" d="M31,80.75c0.133,0,0.25,0.117,0.25,0.25v1c0,0.133-0.117,0.25-0.25,0.25H2c-0.133,0-0.25-0.117-0.25-0.25
		v-1c0-0.133,0.117-0.25,0.25-0.25H31 M31,79H2c-1.1,0-2,0.9-2,2v1c0,1.1,0.9,2,2,2h29c1.1,0,2-0.9,2-2v-1C33,79.9,32.1,79,31,79
		L31,79z"/>
</g>
<g>
	<path fill="#F35429" d="M29,61.75c0.133,0,0.25,0.117,0.25,0.25v14c0,0.133-0.117,0.25-0.25,0.25H4c-0.133,0-0.25-0.117-0.25-0.25
		V62c0-0.133,0.117-0.25,0.25-0.25H29 M29,60H4c-1.1,0-2,0.9-2,2v14c0,1.1,0.9,2,2,2h25c1.1,0,2-0.9,2-2V62C31,60.9,30.1,60,29,60
		L29,60z"/>
</g>
<path fill="#F35429" d="M103.875,80.75h-12c-1.034,0-1.875-0.841-1.875-1.875v-7C90,70.841,90.841,70,91.875,70
	C91.941,70,92,69.941,92,69.875v-3c0-0.066-0.059-0.125-0.125-0.125c-1.034,0-1.875-0.841-1.875-1.875v-3
	C90,60.841,90.841,60,91.875,60h9c0.777,0,1.776,0.414,2.326,0.963l1.586,1.586c0.549,0.549,0.963,1.549,0.963,2.326v14
	C105.75,79.909,104.909,80.75,103.875,80.75z M91.875,61.75c-0.066,0-0.125,0.059-0.125,0.125v3c0,0.066,0.059,0.125,0.125,0.125
	c1.034,0,1.875,0.841,1.875,1.875v3c0,1.034-0.841,1.875-1.875,1.875c-0.066,0-0.125,0.059-0.125,0.125v7
	c0,0.066,0.059,0.125,0.125,0.125h12c0.066,0,0.125-0.059,0.125-0.125v-14c0-0.316-0.228-0.865-0.451-1.088l-1.586-1.586
	c-0.223-0.223-0.772-0.451-1.088-0.451H91.875z"/>
<path fill="#F35429" d="M102.875,75.875c0,1.1-0.9,2-2,2h-6c-1.1,0-2-0.9-2-2v-2c0-1.1,0.9-2,2-2h6c1.1,0,2,0.9,2,2V75.875z"/>
<path fill="#F35429" d="M100.322,63.77c-0.246-0.492-0.648-0.492-0.895,0l-1.105,2.211c-0.246,0.492,0.003,0.895,0.553,0.895h2
	c0.55,0,0.799-0.402,0.553-0.895L100.322,63.77z"/>
<path fill="#F35429" d="M152,60h-30c-1.1,0-2,0.9-2,2v17c0,1.1,0.9,2,2,2h13v3.125h-7c-0.483,0-0.875,0.392-0.875,0.875
	s0.392,0.875,0.875,0.875h18c0.483,0,0.875-0.392,0.875-0.875s-0.392-0.875-0.875-0.875h-7V81h13c1.1,0,2-0.9,2-2V62
	C154,60.9,153.1,60,152,60z M152.25,79c0,0.133-0.117,0.25-0.25,0.25h-30c-0.133,0-0.25-0.117-0.25-0.25V62
	c0-0.133,0.117-0.25,0.25-0.25h30c0.133,0,0.25,0.117,0.25,0.25V79z"/>
<path fill="#F35429" d="M215,60h-33c-1.1,0-2,0.9-2,2v12c0,1.1,0.9,2,2,2h1v1c0,0.55,0.45,1,1,1h1c0.55,0,1-0.45,1-1v-1h25v1
	c0,0.55,0.45,1,1,1h1c0.55,0,1-0.45,1-1v-1h1c1.1,0,2-0.9,2-2V62C217,60.9,216.1,60,215,60z M215.25,74
	c0,0.133-0.117,0.25-0.25,0.25h-33c-0.133,0-0.25-0.117-0.25-0.25V62c0-0.133,0.117-0.25,0.25-0.25h33c0.133,0,0.25,0.117,0.25,0.25
	V74z"/>
<path fill="#F35429" d="M208,63.126c-2.688,0-4.875,2.187-4.875,4.875s2.187,4.875,4.875,4.875s4.875-2.187,4.875-4.875
	S210.688,63.126,208,63.126z M208,71.126c-1.723,0-3.125-1.402-3.125-3.125s1.402-3.125,3.125-3.125s3.125,1.402,3.125,3.125
	S209.723,71.126,208,71.126z"/>
<path fill="#F35429" d="M192,64.5h-7c-0.276,0-0.5,0.224-0.5,0.5s0.224,0.5,0.5,0.5h7c0.276,0,0.5-0.224,0.5-0.5
	S192.276,64.5,192,64.5z"/>
<path fill="#F35429" d="M192,67.5h-7c-0.276,0-0.5,0.224-0.5,0.5s0.224,0.5,0.5,0.5h7c0.276,0,0.5-0.224,0.5-0.5
	S192.276,67.5,192,67.5z"/>
<path fill="#F35429" d="M192,70.5h-7c-0.276,0-0.5,0.224-0.5,0.5s0.224,0.5,0.5,0.5h7c0.276,0,0.5-0.224,0.5-0.5
	S192.276,70.5,192,70.5z"/>
<path fill="#F35429" d="M247.001,62.486l3.54,6.138c0.494,0.856,1.23,2.328,1.642,3.28c0.02,0.11,0.067,0.437,0.067,1.078
	c0,2.895-2.355,5.25-5.25,5.25s-5.25-2.355-5.25-5.25c0-0.64,0.047-0.967,0.067-1.077c0.413-0.953,1.148-2.425,1.642-3.281
	L247.001,62.486 M247,60c-0.362,0-0.725,0.238-0.999,0.714l-4.058,7.035c-0.549,0.953-1.351,2.561-1.781,3.573
	c0,0-0.163,0.383-0.163,1.659c0,3.866,3.135,7,7,7c3.866,0,7-3.134,7-7c0-1.276-0.162-1.659-0.162-1.659
	c-0.43-1.013-1.231-2.621-1.781-3.574L248,60.714C247.725,60.238,247.362,60,247,60L247,60z"/>
<path fill="#F35429" d="M280,74v-9c0-2.762-2.238-5-5-5s-5,2.238-5,5v9c0,2.467,1.792,4.505,4.143,4.914
	c-0.003,0.03-0.018,0.056-0.018,0.086v6c0,0.044,0.019,0.083,0.025,0.125H271c-0.483,0-0.875,0.392-0.875,0.875
	s0.392,0.875,0.875,0.875h8c0.483,0,0.875-0.392,0.875-0.875s-0.392-0.875-0.875-0.875h-3.15c0.006-0.042,0.025-0.081,0.025-0.125
	v-6c0-0.031-0.015-0.057-0.018-0.086C278.208,78.505,280,76.467,280,74z M278.25,74c0,1.792-1.458,3.25-3.25,3.25
	s-3.25-1.458-3.25-3.25v-9c0-1.792,1.458-3.25,3.25-3.25s3.25,1.458,3.25,3.25V74z"/>
<path fill="#F35429" d="M311.625,65.163v-2.288c0-0.483-0.392-0.875-0.875-0.875s-0.875,0.392-0.875,0.875v2.288
	c-1.062,0.18-1.875,1.1-1.875,2.212v7c0,1.112,0.813,2.032,1.875,2.212v5.288c0,1.723-1.402,3.125-3.125,3.125
	s-3.125-1.402-3.125-3.125v-7.288c1.062-0.18,1.875-1.1,1.875-2.212v-7c0-1.112-0.813-2.032-1.875-2.212v-2.288
	c0-0.483-0.392-0.875-0.875-0.875s-0.875,0.392-0.875,0.875v2.288c-1.062,0.18-1.875,1.1-1.875,2.212v7
	c0,1.112,0.813,2.032,1.875,2.212v7.288c0,2.688,2.187,4.875,4.875,4.875s4.875-2.187,4.875-4.875v-5.288
	c1.062-0.18,1.875-1.1,1.875-2.212v-7C313.5,66.263,312.687,65.343,311.625,65.163z M302.25,64.875h1c0.275,0,0.5,0.225,0.5,0.5v2.5
	h-2v-2.5C301.75,65.1,301.975,64.875,302.25,64.875z M311.75,74.375c0,0.275-0.225,0.5-0.5,0.5h-1c-0.275,0-0.5-0.225-0.5-0.5v-7
	c0-0.275,0.225-0.5,0.5-0.5h1c0.275,0,0.5,0.225,0.5,0.5V74.375z"/>
<g>
	<path fill="#F35429" d="M77,61.75c0.133,0,0.25,0.117,0.25,0.25v22c0,0.133-0.117,0.25-0.25,0.25H62c-0.133,0-0.25-0.117-0.25-0.25
		V62c0-0.133,0.117-0.25,0.25-0.25H77 M77,60H62c-1.1,0-2,0.9-2,2v22c0,1.1,0.9,2,2,2h15c1.1,0,2-0.9,2-2V62C79,60.9,78.1,60,77,60
		L77,60z"/>
</g>
<g>
	<path fill="#F35429" d="M75,64v16H64V64H75 M76,63H63v18h13V63L76,63z"/>
</g>
<g>
	<path fill="#F35429" d="M343,61.75c6.203,0,11.25,5.047,11.25,11.25S349.203,84.25,343,84.25S331.75,79.203,331.75,73
		S336.797,61.75,343,61.75 M343,60c-7.18,0-13,5.82-13,13s5.82,13,13,13s13-5.82,13-13S350.18,60,343,60L343,60z"/>
</g>
<g>
	<path fill="#F35429" d="M343,69c2.206,0,4,1.794,4,4s-1.794,4-4,4s-4-1.794-4-4S340.794,69,343,69 M343,68c-2.762,0-5,2.239-5,5
		s2.238,5,5,5s5-2.239,5-5S345.762,68,343,68L343,68z"/>
</g>
<g>
	<path fill="#F35429" d="M343,71.5c0.827,0,1.5,0.673,1.5,1.5s-0.673,1.5-1.5,1.5s-1.5-0.673-1.5-1.5S342.173,71.5,343,71.5
		 M343,70.5c-1.381,0-2.5,1.119-2.5,2.5s1.119,2.5,2.5,2.5s2.5-1.119,2.5-2.5S344.381,70.5,343,70.5L343,70.5z"/>
</g>
<path fill="#F35429" d="M386.867,81.75h-12.084c-0.483,0-0.875-0.392-0.875-0.875v-11.5c0-0.483,0.392-0.875,0.875-0.875h16.334
	c0.483,0,0.875,0.392,0.875,0.875v7.25C391.992,79.451,389.693,81.75,386.867,81.75z M375.658,80h11.209
	c1.861,0,3.375-1.514,3.375-3.375V70.25h-14.584V80z"/>
<path fill="#F35429" d="M391.504,60h-30.629c-0.483,0-0.875,0.392-0.875,0.875v9.272c0,0.483,0.392,0.875,0.875,0.875h3.762v3.671
	c0,3.891,3.165,7.057,7.056,7.057c0.483,0,0.875-0.392,0.875-0.875V67.159h18.937c1.974,0,3.58-1.605,3.58-3.579
	S393.478,60,391.504,60z M361.75,61.75h1.482v7.522h-1.482V61.75z M391.504,65.409h-19.812c-0.483,0-0.875,0.392-0.875,0.875v13.644
	c-2.511-0.418-4.431-2.606-4.431-5.234v-4.546c0-0.483-0.392-0.875-0.875-0.875h-1.279V61.75h27.271c1.009,0,1.83,0.821,1.83,1.83
	S392.513,65.409,391.504,65.409z"/>
<path fill="#F35429" d="M452.625,87.75h-19.75c-0.483,0-0.875-0.392-0.875-0.875v-16c0-0.483,0.392-0.875,0.875-0.875h24
	c0.483,0,0.875,0.392,0.875,0.875v11.75C457.75,85.451,455.451,87.75,452.625,87.75z M433.75,86h18.875
	c1.861,0,3.375-1.514,3.375-3.375V71.75h-22.25V86z"/>
<path fill="#F35429" d="M424.875,83.75h-4c-0.483,0-0.875-0.392-0.875-0.875v-10c0-0.483,0.392-0.875,0.875-0.875h4
	c0.292,0,0.566,0.146,0.728,0.39L426.677,74h3.198c0.483,0,0.875,0.392,0.875,0.875v6c0,0.483-0.392,0.875-0.875,0.875h-3.199
	l-1.073,1.61C425.441,83.604,425.167,83.75,424.875,83.75z M421.75,82h2.657l1.073-1.61c0.162-0.244,0.436-0.39,0.728-0.39H429
	v-4.25h-2.791c-0.292,0-0.566-0.146-0.728-0.39l-1.074-1.611h-2.657V82z"/>
<path fill="#F35429" d="M454.875,68.75h-4c-0.275,0-0.535-0.13-0.7-0.35l-2.737-3.65h-6.688v3.125c0,0.483-0.392,0.875-0.875,0.875
	h-3c-0.483,0-0.875-0.392-0.875-0.875v-7c0-0.483,0.392-0.875,0.875-0.875h13c0.282,0,0.548,0.136,0.712,0.366l5,7
	c0.19,0.267,0.216,0.618,0.066,0.909C455.503,68.567,455.203,68.75,454.875,68.75z M451.312,67h1.862l-3.75-5.25H437.75V67H439
	v-3.125c0-0.483,0.392-0.875,0.875-0.875h8c0.275,0,0.535,0.13,0.7,0.35L451.312,67z"/>
<path fill="#F35429" d="M485.875,66.75h-5c-0.483,0-0.875-0.392-0.875-0.875v-5c0-0.483,0.392-0.875,0.875-0.875h5
	c0.483,0,0.875,0.392,0.875,0.875v5C486.75,66.358,486.358,66.75,485.875,66.75z M481.75,65H485v-3.25h-3.25V65z"/>
<path fill="#F35429" d="M495.875,66.75h-5c-0.483,0-0.875-0.392-0.875-0.875v-5c0-0.483,0.392-0.875,0.875-0.875h5
	c0.483,0,0.875,0.392,0.875,0.875v5C496.75,66.358,496.358,66.75,495.875,66.75z M491.75,65H495v-3.25h-3.25V65z"/>
<path fill="#F35429" d="M505.875,66.75h-5c-0.483,0-0.875-0.392-0.875-0.875v-5c0-0.483,0.392-0.875,0.875-0.875h5
	c0.483,0,0.875,0.392,0.875,0.875v5C506.75,66.358,506.358,66.75,505.875,66.75z M501.75,65H505v-3.25h-3.25V65z"/>
<path fill="#F35429" d="M485.875,76.75h-5c-0.483,0-0.875-0.392-0.875-0.875v-5c0-0.483,0.392-0.875,0.875-0.875h5
	c0.483,0,0.875,0.392,0.875,0.875v5C486.75,76.358,486.358,76.75,485.875,76.75z M481.75,75H485v-3.25h-3.25V75z"/>
<path fill="#F35429" d="M495.875,76.75h-5c-0.483,0-0.875-0.392-0.875-0.875v-5c0-0.483,0.392-0.875,0.875-0.875h5
	c0.483,0,0.875,0.392,0.875,0.875v5C496.75,76.358,496.358,76.75,495.875,76.75z M491.75,75H495v-3.25h-3.25V75z"/>
<path fill="#F35429" d="M505.875,76.75h-5c-0.483,0-0.875-0.392-0.875-0.875v-5c0-0.483,0.392-0.875,0.875-0.875h5
	c0.483,0,0.875,0.392,0.875,0.875v5C506.75,76.358,506.358,76.75,505.875,76.75z M501.75,75H505v-3.25h-3.25V75z"/>
<path fill="#F35429" d="M485.875,86.75h-5c-0.483,0-0.875-0.392-0.875-0.875v-5c0-0.483,0.392-0.875,0.875-0.875h5
	c0.483,0,0.875,0.392,0.875,0.875v5C486.75,86.358,486.358,86.75,485.875,86.75z M481.75,85H485v-3.25h-3.25V85z"/>
<path fill="#F35429" d="M495.875,86.75h-5c-0.483,0-0.875-0.392-0.875-0.875v-5c0-0.483,0.392-0.875,0.875-0.875h5
	c0.483,0,0.875,0.392,0.875,0.875v5C496.75,86.358,496.358,86.75,495.875,86.75z M491.75,85H495v-3.25h-3.25V85z"/>
<path fill="#F35429" d="M505.875,86.75h-5c-0.483,0-0.875-0.392-0.875-0.875v-5c0-0.483,0.392-0.875,0.875-0.875h5
	c0.483,0,0.875,0.392,0.875,0.875v5C506.75,86.358,506.358,86.75,505.875,86.75z M501.75,85H505v-3.25h-3.25V85z"/>
<g>
	<g>
		<g>
			<path fill="#F35429" d="M515.199,64.2c0,0.55-0.45,1-1,1H511c-0.55,0-1-0.45-1-1V61c0-0.55,0.45-1,1-1h3.199c0.55,0,1,0.45,1,1
				V64.2z"/>
		</g>
		<g>
			<path fill="#F35429" d="M525.6,64.2c0,0.55-0.45,1-1,1H521.4c-0.55,0-1-0.45-1-1V61c0-0.55,0.45-1,1-1h3.199c0.55,0,1,0.45,1,1
				V64.2z"/>
		</g>
		<g>
			<path fill="#F35429" d="M536,64.2c0,0.55-0.45,1-1,1h-3.2c-0.55,0-1-0.45-1-1V61c0-0.55,0.45-1,1-1h3.2c0.55,0,1,0.45,1,1V64.2z"
				/>
		</g>
		<g>
			<path fill="#F35429" d="M515.199,74.6c0,0.55-0.45,1-1,1H511c-0.55,0-1-0.45-1-1v-3.2c0-0.55,0.45-1,1-1h3.199c0.55,0,1,0.45,1,1
				V74.6z"/>
		</g>
		<g>
			<path fill="#F35429" d="M525.6,74.6c0,0.55-0.45,1-1,1H521.4c-0.55,0-1-0.45-1-1v-3.2c0-0.55,0.45-1,1-1h3.199c0.55,0,1,0.45,1,1
				V74.6z"/>
		</g>
		<g>
			<path fill="#F35429" d="M536,74.6c0,0.55-0.45,1-1,1h-3.2c-0.55,0-1-0.45-1-1v-3.2c0-0.55,0.45-1,1-1h3.2c0.55,0,1,0.45,1,1V74.6
				z"/>
		</g>
		<g>
			<path fill="#F35429" d="M515.199,85c0,0.55-0.45,1-1,1H511c-0.55,0-1-0.45-1-1v-3.2c0-0.55,0.45-1,1-1h3.199c0.55,0,1,0.45,1,1
				V85z"/>
		</g>
		<g>
			<path fill="#F35429" d="M525.6,85c0,0.55-0.45,1-1,1H521.4c-0.55,0-1-0.45-1-1v-3.2c0-0.55,0.45-1,1-1h3.199c0.55,0,1,0.45,1,1
				V85z"/>
		</g>
		<g>
			<path fill="#F35429" d="M536,85c0,0.55-0.45,1-1,1h-3.2c-0.55,0-1-0.45-1-1v-3.2c0-0.55,0.45-1,1-1h3.2c0.55,0,1,0.45,1,1V85z"/>
		</g>
	</g>
</g>
<path fill="#F35429" d="M563.875,73.25c-0.482,0-0.875-0.392-0.875-0.875v-1c0-5.307-4.317-9.625-9.625-9.625
	c-5.307,0-9.625,4.318-9.625,9.625v1c0,0.483-0.391,0.875-0.875,0.875c-0.482,0-0.875-0.392-0.875-0.875v-1
	C542,65.103,547.104,60,553.375,60c6.272,0,11.375,5.103,11.375,11.375v1C564.75,72.858,564.359,73.25,563.875,73.25z"/>
<path fill="#F35429" d="M563.875,86.25c-1.585,0-2.875-1.29-2.875-2.875v-6c0-1.585,1.29-2.875,2.875-2.875
	c1.586,0,2.875,1.29,2.875,2.875v6C566.75,84.96,565.461,86.25,563.875,86.25z M563.875,76.25c-0.619,0-1.125,0.505-1.125,1.125v6
	c0,0.62,0.506,1.125,1.125,1.125c0.621,0,1.125-0.505,1.125-1.125v-6C565,76.755,564.496,76.25,563.875,76.25z"/>
<path fill="#F35429" d="M542.875,86.25c-1.585,0-2.875-1.29-2.875-2.875v-6c0-1.585,1.29-2.875,2.875-2.875
	c1.586,0,2.875,1.29,2.875,2.875v6C545.75,84.96,544.461,86.25,542.875,86.25z M542.875,76.25c-0.619,0-1.125,0.505-1.125,1.125v6
	c0,0.62,0.506,1.125,1.125,1.125c0.621,0,1.125-0.505,1.125-1.125v-6C544,76.755,543.496,76.25,542.875,76.25z"/>
<path fill="#F35429" d="M587.202,60.109l-6.8-0.001c-1.586,0-2.876,1.29-2.876,2.874l-0.001,0.802c0,1.585,1.29,2.875,2.875,2.875
	l5.238,0V83c0,0.276,0.224,0.5,0.5,0.5s0.5-0.224,0.5-0.5V66.659h0.563c1.585,0,2.875-1.29,2.875-2.875v-0.8
	C590.077,61.398,588.787,60.109,587.202,60.109z M588.327,63.784c0,0.62-0.505,1.125-1.125,1.125l-6.802,0
	c-0.62,0-1.125-0.505-1.125-1.124l0.001-0.802c0-0.62,0.505-1.125,1.126-1.125l6.8,0.001c0.62,0,1.125,0.505,1.125,1.125V63.784z"/>
<path fill="#F35429" d="M574.424,60c-0.619,0-1.814,0.355-2.719,0.808c-0.939,0.471-1.705,1.625-1.705,2.574
	c0,0.949,0.766,2.103,1.705,2.574c0.904,0.453,2.1,0.808,2.717,0.808c0.846,0,1.302-1.474,1.302-2.862v-1.041
	C575.724,61.476,575.268,60,574.424,60z"/>
<path fill="#F35429" d="M604.6,60.108l-6.801,0.001c-1.585,0-2.875,1.29-2.875,2.875v0.8c0,1.585,1.29,2.875,2.875,2.875h0.564V83
	c0,0.276,0.224,0.5,0.5,0.5s0.5-0.224,0.5-0.5V66.659l5.237,0c1.585,0,2.874-1.29,2.874-2.875v-0.801
	C607.475,61.397,606.185,60.108,604.6,60.108z M605.725,63.784c0,0.62-0.504,1.125-1.124,1.125l-6.802,0
	c-0.62,0-1.125-0.505-1.125-1.125v-0.8c0-0.62,0.505-1.125,1.125-1.125l6.801-0.001c0.62,0,1.125,0.505,1.125,1.125V63.784z"/>
<path fill="#F35429" d="M613.295,60.808c-0.904-0.453-2.1-0.808-2.717-0.808c-0.846,0-1.301,1.476-1.301,2.862v1.041
	c0,1.388,0.457,2.862,1.301,2.862c0.619,0,1.814-0.355,2.718-0.808c0.94-0.471,1.704-1.625,1.704-2.574
	C615,62.433,614.236,61.279,613.295,60.808z"/>
<path fill="#F35429" d="M670.875,74.415c1.654,0,3-1.346,3-3s-1.346-3-3-3s-3,1.346-3,3S669.221,74.415,670.875,74.415z
	 M670.875,69.415c1.104,0,2,0.897,2,2s-0.896,2-2,2s-2-0.897-2-2S669.771,69.415,670.875,69.415z"/>
<path fill="#F35429" d="M703.725,70.112c-0.443-0.193-0.959,0.011-1.152,0.454c-1.133,2.609-2.52,4.089-4.122,4.397
	c-2.296,0.443-4.437-1.648-4.448-1.66c-13.715-14.041-22.703-13.382-23.688-13.264C664.813,60.079,660,65.377,660,71.415v0.875
	h3.557c0.436,3.655,3.549,6.5,7.318,6.5c4.066,0,7.375-3.309,7.375-7.375s-3.309-7.375-7.375-7.375c-3.77,0-6.883,2.845-7.318,6.5
	h-1.762c0.432-4.296,3.959-8.75,8.58-8.75l0.132-0.01c0.085-0.013,8.733-1.083,22.25,12.753c0.101,0.102,2.277,2.242,5.04,2.242
	c0.316,0,0.641-0.028,0.972-0.091c2.209-0.419,4.028-2.244,5.409-5.421C704.371,70.82,704.168,70.305,703.725,70.112z
	 M670.875,65.79c3.102,0,5.625,2.523,5.625,5.625s-2.523,5.625-5.625,5.625s-5.625-2.523-5.625-5.625S667.773,65.79,670.875,65.79z"
	/>
<path fill="#F35429" d="M644.572,65.866l-6.061-4.986c-0.244-0.182-1.516-1.078-2.686-0.84c-1.897,0.384-2.418,2.232-2.429,3.166
	l0.001,3.251c0,0.078,0.025,0.147,0.044,0.219c-0.673,0.318-1.144,1.006-1.144,1.808v3.104c-1.361,0.711-2.299,2.12-2.299,3.762
	c0,2.359,1.912,4.272,4.273,4.272c2.358,0,4.271-1.913,4.271-4.272c0-1.643-0.937-3.052-2.299-3.763v-3.103
	c0-0.801-0.47-1.488-1.143-1.808c0.02-0.072,0.045-0.142,0.045-0.22l-0.001-3.242c0-0.013,0.025-1.258,1.026-1.46
	c0.251-0.049,0.895,0.236,1.258,0.502l6.008,4.943c0.059,0.052,1.419,1.284,1.419,3.452v4.926c0.002,0.788-0.213,3.203-1.253,3.982
	l-4.127,3.669c-0.342,0.252-1.724,1.419-1.617,3.773c0.021,0.469,0.408,0.835,0.873,0.835c0.014,0,0.027,0,0.041-0.001
	c0.482-0.021,0.855-0.431,0.834-0.914c-0.072-1.59,0.861-2.254,0.891-2.274c0.037-0.024,0.073-0.051,0.107-0.082l4.103-3.652
	c1.855-1.383,1.899-4.941,1.898-5.34v-4.924C646.608,67.66,644.671,65.951,644.572,65.866z M635.246,74.121c0,0.55-0.438,1-0.975,1
	c-0.535,0-0.973-0.45-0.973-1v-5.637c0-0.55,0.438-1,0.973-1c0.536,0,0.975,0.45,0.975,1V74.121z"/>
<path fill="#BCBCCC" d="M732.573,4.546l-1.936-0.077l-2.465-0.097l-0.188-0.495v0l-0.691-1.836l-0.691-1.836
	c-0.104-0.272-0.27-0.272-0.373,0l-0.691,1.836l-0.691,1.836v0l-0.188,0.495l-2.465,0.097l-1.936,0.077
	c-0.291,0.012-0.344,0.171-0.121,0.355c0,0,0,0.001,0.001,0.001l1.513,1.237l1.514,1.239l0.408,0.334l-0.139,0.51l-0.506,1.847
	l-0.506,1.846v0.001c-0.076,0.28,0.062,0.38,0.307,0.224l1.619-1.038l2.067-1.325l2.066,1.325l1.62,1.038
	c0.244,0.157,0.382,0.056,0.307-0.224v-0.001l-0.506-1.846l-0.506-1.847l-0.14-0.51l0.409-0.334l1.514-1.239l1.512-1.237
	c0.001,0,0.001-0.001,0.002-0.001C732.917,4.717,732.864,4.558,732.573,4.546z"/>
<path fill="#F35429" d="M732.573,64.546l-1.936-0.077l-2.465-0.097l-0.188-0.496v0l-0.691-1.836l-0.691-1.836
	c-0.104-0.271-0.27-0.271-0.373,0l-0.691,1.836l-0.691,1.836v0l-0.188,0.496l-2.465,0.097l-1.936,0.077
	c-0.291,0.011-0.344,0.171-0.121,0.355c0,0,0,0.001,0.001,0.001l1.513,1.238l1.514,1.239l0.408,0.334l-0.139,0.51l-0.506,1.847
	l-0.506,1.846c0,0,0,0.001,0,0.001c-0.076,0.28,0.062,0.381,0.307,0.224l1.619-1.038l2.067-1.325l2.066,1.325l1.62,1.038
	c0.244,0.157,0.382,0.057,0.307-0.224c0,0,0-0.001,0-0.001l-0.506-1.846l-0.506-1.847l-0.14-0.51l0.409-0.334l1.514-1.239
	l1.512-1.238c0.001,0,0.001-0.001,0.001-0.001C732.917,64.717,732.864,64.558,732.573,64.546z"/>
<path fill="#FFFFFF" d="M5.459,204.689h0.79v0.831c0.311-0.667,0.962-0.965,1.653-0.965c1.37,0,2.022,0.963,2.158,1.207
	c0.11-0.246,0.663-1.207,2.08-1.207c1.828,0,2.508,1.377,2.508,2.771v3.695h-0.843v-3.53c0-0.46-0.037-0.967-0.308-1.359
	c-0.335-0.489-0.831-0.762-1.395-0.762c-0.537,0-1.073,0.283-1.374,0.722c-0.269,0.396-0.259,0.939-0.259,1.399v3.53H9.639v-3.617
	c0-0.48-0.027-0.844-0.3-1.269c-0.316-0.46-0.836-0.757-1.388-0.757c-0.529,0-1.045,0.224-1.361,0.671
	c-0.283,0.414-0.292,0.865-0.292,1.354v3.617H5.459V204.689z"/>
<path fill="#FFFFFF" d="M22.294,211.022h-0.805v-1.188c-0.476,0.894-1.42,1.345-2.396,1.345c-1.58,0-3.336-1.117-3.336-3.358
	c0-2.079,1.684-3.265,3.315-3.265c0.973,0,1.957,0.438,2.417,1.336v-1.202h0.805V211.022z M16.596,207.888
	c0,1.394,1.176,2.47,2.497,2.47c1.292,0,2.396-1.134,2.396-2.461c0-1.398-1.043-2.526-2.417-2.526
	C17.713,205.371,16.596,206.349,16.596,207.888z"/>
<path fill="#FFFFFF" d="M23.961,202.471h0.84v6.005l2.846-3.787h1.063l-2.39,3.179l2.557,3.154h-1.081l-2.011-2.494l-0.984,1.295
	v1.199h-0.84V202.471z"/>
<path fill="#FFFFFF" d="M29.913,208.167c0.052,1.197,1.191,2.19,2.342,2.19c0.909,0,1.835-0.524,2.206-1.388h0.872
	c-0.432,1.272-1.695,2.208-3.007,2.208c-1.806,0-3.242-1.462-3.242-3.311s1.425-3.312,3.223-3.312c0.97,0,1.865,0.451,2.489,1.225
	c0.571,0.731,0.7,1.472,0.72,2.388H29.913z M34.674,207.389c-0.213-1.12-1.212-2.019-2.356-2.019c-1.172,0-2.198,0.846-2.404,2.019
	H34.674z"/>
<path fill="#FFFFFF" d="M41.953,202.471h0.835v3.345c0.436-0.787,1.424-1.261,2.338-1.261c1.84,0,3.35,1.37,3.35,3.279
	c0,2.137-1.738,3.344-3.267,3.344c-0.893,0-1.981-0.418-2.468-1.246v1.09h-0.788V202.471z M43.385,206.136
	c-0.487,0.507-0.66,1.081-0.66,1.772c0,1.415,1.126,2.449,2.484,2.449c1.343,0,2.434-1.134,2.434-2.501
	c0-1.438-1.113-2.486-2.492-2.486C44.483,205.371,43.851,205.654,43.385,206.136z"/>
<path fill="#FFFFFF" d="M50.293,208.167c0.044,1.197,1.189,2.19,2.339,2.19c0.912,0,1.836-0.524,2.216-1.388h0.871
	c-0.429,1.272-1.702,2.208-3.009,2.208c-1.815,0-3.246-1.462-3.246-3.311s1.422-3.312,3.214-3.312c0.985,0,1.868,0.451,2.497,1.225
	c0.574,0.731,0.699,1.472,0.727,2.388H50.293z M55.058,207.389c-0.21-1.12-1.218-2.019-2.362-2.019
	c-1.164,0-2.194,0.846-2.402,2.019H55.058z"/>
<path fill="#FFFFFF" d="M57.287,202.471h0.831v8.551h-0.831V202.471z"/>
<path fill="#FFFFFF" d="M59.72,202.471h0.834v1.456H59.72V202.471z M59.72,204.689h0.834v6.333H59.72V204.689z"/>
<path fill="#FFFFFF" d="M62.776,208.167c0.046,1.197,1.186,2.19,2.333,2.19c0.916,0,1.84-0.524,2.215-1.388h0.871
	c-0.431,1.272-1.693,2.208-3.007,2.208c-1.812,0-3.247-1.462-3.247-3.311s1.421-3.312,3.226-3.312c0.972,0,1.866,0.451,2.488,1.225
	c0.57,0.731,0.698,1.472,0.718,2.388H62.776z M67.536,207.389c-0.212-1.12-1.219-2.019-2.363-2.019
	c-1.162,0-2.194,0.846-2.396,2.019H67.536z"/>
<path fill="#FFFFFF" d="M68.63,204.689h0.906l2.136,5.243l2.142-5.243h0.905l-2.617,6.333h-0.869L68.63,204.689z"/>
<path fill="#FFFFFF" d="M75.811,208.167c0.049,1.197,1.194,2.19,2.331,2.19c0.912,0,1.849-0.524,2.214-1.388h0.872
	c-0.434,1.272-1.694,2.208-3.007,2.208c-1.809,0-3.244-1.462-3.244-3.311s1.423-3.312,3.22-3.312c0.974,0,1.873,0.451,2.488,1.225
	c0.584,0.731,0.71,1.472,0.726,2.388H75.811z M80.568,207.389c-0.213-1.12-1.214-2.019-2.358-2.019
	c-1.167,0-2.196,0.846-2.399,2.019H80.568z"/>
<path fill="#FFFFFF" d="M39.688,209.876c0,0.683-0.53,1.238-1.197,1.238c-0.661,0-1.201-0.556-1.201-1.238
	c0-0.675,0.54-1.231,1.201-1.231C39.157,208.645,39.688,209.202,39.688,209.876z"/>
<path fill="#FFFFFF" d="M31.753,196.227c-3.219,0-6.205-0.993-8.212-2.834c-1.501-1.384-2.235-3.27-2.235-5.202
	c0-1.909,0.764-3.818,2.235-5.198c1.858-1.727,5.137-2.814,8.212-2.814c3.426,0,6.15,0.886,8.232,2.823
	c1.486,1.386,2.205,3.271,2.205,5.189c0,1.857-0.76,3.839-2.205,5.202C38.052,195.25,34.991,196.227,31.753,196.227v-2.115
	c1.723,0,3.305-0.613,4.409-1.737c1.104-1.128,1.616-2.496,1.616-4.184c0-1.625-0.553-3.123-1.616-4.192
	c-1.089-1.101-2.718-1.73-4.409-1.73c-1.692,0-3.313,0.621-4.415,1.73c-1.048,1.069-1.604,2.579-1.604,4.192
	c0,1.604,0.562,3.109,1.604,4.184c1.102,1.117,2.723,1.737,4.415,1.737V196.227z M8.196,180.182c-1.724,0-3.688,0.343-5.341,1.098
	c-1.542,0.705-2.809,1.838-2.809,3.728c0,1.688,1.053,2.681,1.021,2.65c0.453,0.426,1.176,1.147,3.06,1.562
	c0.84,0.188,2.637,0.473,4.436,0.678c1.775,0.19,3.532,0.372,4.247,0.555c0.567,0.149,1.513,0.352,1.513,1.439
	c0,1.097-1.001,1.424-1.179,1.495c-0.178,0.073-1.375,0.636-3.542,0.636c-1.597,0-3.514-0.49-4.215-0.739
	c-0.802-0.295-1.645-0.692-2.437-1.68c-0.195-0.245-0.495-0.919-0.495-1.582H0.483v5.61H2.66c0,0,0-0.607,0-0.756
	c0-0.076,0.114-0.441,0.47-0.266c0.452,0.216,1.787,0.751,3.19,1.049c1.137,0.245,1.876,0.416,3.293,0.416
	c2.322,0,3.568-0.383,4.425-0.634c0.826-0.243,1.829-0.673,2.634-1.33c0.441-0.354,1.4-1.281,1.4-2.95
	c0-1.611-0.831-2.611-1.136-2.909c-0.402-0.414-0.889-0.733-1.405-0.979c-0.452-0.213-1.157-0.477-1.731-0.615
	c-1.126-0.29-3.66-0.636-4.864-0.762c-1.271-0.142-3.483-0.325-4.355-0.607c-0.271-0.08-0.819-0.353-0.819-0.995
	c0-0.457,0.259-0.851,0.747-1.173c0.776-0.497,2.364-0.804,3.999-0.804c1.952-0.004,3.594,0.438,4.637,0.921
	c0.359,0.178,0.772,0.4,1.108,0.678c0.374,0.311,0.892,0.958,1.084,1.86h1.76v-4.884h-1.959v0.567c0,0.186-0.185,0.419-0.54,0.229
	C13.721,181.211,11.242,180.195,8.196,180.182z M44.337,181.085v1.777h1.52c1.101,0,1.182,0.631,1.182,1.172v8.34
	c0,0.506,0.029,1.183-0.676,1.183c-1.102,0-1.888,0-1.888,0v1.783h8.042v-1.783c0,0-0.857,0-1.959,0
	c-0.779,0-0.824-0.359-0.836-1.146v-7.139l11.023,10.068h2.801L63.4,183.968c0.02-0.825,0.062-1.109,0.897-1.109
	c1.11,0,1.76,0,1.76,0v-1.773h-8.187v1.773c0,0,0.7,0,1.803,0c0.819,0,0.967,0.333,0.972,1.109l0.1,5.949l-9.566-8.832H44.337z
	 M73.702,193.557v1.783h9.543v-1.788c0,0-1.453,0-1.807,0l-0.473-0.029c-0.19-0.05-0.322-0.188-0.373-0.331l-0.039-0.392
	c0-0.261,0-2.702,0-2.814l0.072-0.267c0.129-0.155,5.065-5.928,5.292-6.179c0.477-0.562,0.735-0.682,1.373-0.682
	c0.593,0,1.756,0,1.756,0v-1.773h-7.863v1.773c0,0,0.964,0,1.178,0c0.351,0,0.445,0.362,0.298,0.557l-3.343,3.996l-0.097-0.01
	l-3.255-3.986c-0.233-0.298-0.041-0.557,0.212-0.557c0.236,0,1.159,0,1.159,0v-1.773h-9.597v1.773c0,0,1.108,0,1.71,0
	c0.742,0,1.224,0.481,1.504,0.795c0.224,0.248,5.11,5.923,5.224,6.083c0.124,0.156,0.124,0.181,0.124,0.249v2.814l-0.032,0.392
	c-0.073,0.144-0.191,0.281-0.377,0.331l-0.48,0.034H73.702z"/>
<path fill="#726E7A" d="M164.243,183.567c0-1.969-1.667-3.566-3.723-3.567c-1.474,0-2.794,1.398-3.398,2.588l-0.001,0
	c-0.604-1.189-1.924-2.588-3.397-2.588c-2.057,0-3.724,1.597-3.724,3.567c0,1.123,1.021,2.289,1.021,2.289l3.729,4.199l-0.007,0.001
	l2.375,2.834v0h0l0.001,0.001v-0.002l2.376-2.834l-0.007-0.001l3.731-4.198C163.221,185.856,164.243,184.69,164.243,183.567z"/>
<path fill="#FFFFFF" d="M164.243,243.566c0-1.969-1.667-3.566-3.723-3.566c-1.474,0-2.794,1.398-3.398,2.588h-0.001
	c-0.604-1.189-1.924-2.588-3.397-2.588c-2.057,0-3.724,1.598-3.724,3.566c0,1.123,1.021,2.289,1.021,2.289l3.729,4.199h-0.007
	l2.375,2.834v0.002h0h0.001v-0.002l2.376-2.834h-0.007l3.731-4.199C163.221,245.855,164.243,244.689,164.243,243.566z"/>
<g>
	<g>
		<path fill="#726E7A" d="M180.25,180c-0.138,0-0.25,0.112-0.25,0.25v1.375c0,0.138,0.112,0.25,0.25,0.251l1.564,0.008
			c0.138,0,0.285,0.108,0.328,0.239l2.28,6.981c0.042,0.131,0.19,0.238,0.328,0.238h9c0.138,0,0.292-0.104,0.343-0.232l2.813-7.003
			c0.051-0.127-0.019-0.232-0.157-0.232h-12.612c-0.138,0-0.27-0.111-0.293-0.246l-0.242-1.374
			c-0.024-0.135-0.156-0.247-0.293-0.247L180.25,180z M193.057,187.237c-0.042,0.131-0.188,0.238-0.326,0.238h-6.438
			c-0.138,0-0.277-0.109-0.31-0.243l-0.8-3.248c-0.033-0.133,0.053-0.243,0.19-0.243h8.541c0.138,0,0.216,0.107,0.174,0.238
			L193.057,187.237z"/>
	</g>
</g>
<g>
	<ellipse fill="#726E7A" cx="191.524" cy="192.596" rx="1.483" ry="1.393"/>
</g>
<g>
	<ellipse fill="#726E7A" cx="186.483" cy="192.596" rx="1.483" ry="1.393"/>
</g>
<g>
	<g>
		<path fill="#FFFFFF" d="M180.25,240c-0.138,0-0.25,0.112-0.25,0.25v1.375c0,0.138,0.112,0.25,0.25,0.251l1.564,0.008
			c0.138,0.001,0.285,0.108,0.328,0.239l2.28,6.98c0.042,0.131,0.19,0.238,0.328,0.238h9c0.138,0,0.292-0.104,0.343-0.232
			l2.813-7.002c0.051-0.128-0.019-0.232-0.157-0.232h-12.612c-0.138,0-0.27-0.111-0.293-0.246l-0.242-1.374
			c-0.024-0.136-0.156-0.247-0.293-0.247L180.25,240z M193.057,247.237c-0.042,0.131-0.188,0.238-0.326,0.238h-6.438
			c-0.138,0-0.277-0.109-0.31-0.243l-0.8-3.248c-0.033-0.133,0.053-0.242,0.19-0.242h8.541c0.138,0,0.216,0.107,0.174,0.238
			L193.057,247.237z"/>
	</g>
</g>
<g>
	<ellipse fill="#FFFFFF" cx="191.524" cy="252.596" rx="1.483" ry="1.393"/>
</g>
<g>
	<ellipse fill="#FFFFFF" cx="186.483" cy="252.596" rx="1.483" ry="1.393"/>
</g>
<polygon fill="#FFFFFF" points="309,183 306,183 306,180 303,180 303,183 300,183 300,186 303,186 303,189 306,189 306,186 309,186 
	"/>
<rect x="120" y="180" fill="#FFFFFF" width="4" height="4"/>
<rect x="126" y="180" fill="#FFFFFF" width="4" height="4"/>
<rect x="132" y="180" fill="#FFFFFF" width="4" height="4"/>
<rect x="120" y="192" fill="#FFFFFF" width="4" height="4"/>
<rect x="126" y="192" fill="#FFFFFF" width="4" height="4"/>
<rect x="132" y="192" fill="#FFFFFF" width="4" height="4"/>
<rect x="120" y="186" fill="#FFFFFF" width="4" height="4"/>
<rect x="126" y="186" fill="#FFFFFF" width="4" height="4"/>
<rect x="132" y="186" fill="#FFFFFF" width="4" height="4"/>
<path fill="#FFFFFF" d="M249.625,180c-3.09,0-5.604,2.334-5.604,5.204c0,1.124,0.39,2.165,1.046,3.017l-3.297,3.061
	c-0.36,0.336-0.36,0.883,0,1.217c0.36,0.336,0.95,0.336,1.311,0l3.296-3.061c0.918,0.608,2.037,0.971,3.248,0.971
	c3.091,0,5.604-2.334,5.604-5.204S252.716,180,249.625,180z M249.625,188.688c-2.068,0-3.75-1.562-3.75-3.483
	s1.682-3.483,3.75-3.483s3.751,1.562,3.751,3.483S251.693,188.688,249.625,188.688z"/>
<polygon fill="#726E7A" points="266.5,190.375 266.5,190.375 263,186.375 270,186.375 "/>
<path fill="#FFFFFF" d="M249.625,240.07c-3.09,0-5.604,2.334-5.604,5.204c0,1.124,0.39,2.165,1.046,3.017l-3.297,3.061
	c-0.36,0.336-0.36,0.883,0,1.217c0.36,0.336,0.95,0.336,1.311,0l3.296-3.061c0.918,0.607,2.037,0.971,3.248,0.971
	c3.091,0,5.604-2.334,5.604-5.204S252.716,240.07,249.625,240.07z M249.625,248.758c-2.068,0-3.75-1.562-3.75-3.483
	s1.682-3.483,3.75-3.483s3.751,1.562,3.751,3.483S251.693,248.758,249.625,248.758z"/>
<polygon fill="#FFFFFF" points="266.5,250.445 266.5,250.445 263,246.445 270,246.445 "/>
<polygon fill="#726E7A" points="213.5,184 213.5,184 210,180 217,180 "/>
<polygon fill="#FFFFFF" points="213.5,244.07 213.5,244.07 210,240.07 217,240.07 "/>
<polygon fill="#FFFFFF" points="101,180 101,180 112,189 90,189 "/>
</svg>
