<?xml version="1.0" encoding="iso-8859-1"?>
<!-- Generator: Adobe Illustrator 15.1.0, SVG Export Plug-In . SVG Version: 6.00 Build 0)  -->
<!DOCTYPE svg PUBLIC "-//W3C//DTD SVG 1.1//EN" "http://www.w3.org/Graphics/SVG/1.1/DTD/svg11.dtd">
<svg version="1.1" id="Layer_1" xmlns="http://www.w3.org/2000/svg" xmlns:xlink="http://www.w3.org/1999/xlink" x="0px" y="0px"
	 width="1056px" height="1056px" viewBox="0 0 1056 1056" style="enable-background:new 0 0 1056 1056;" xml:space="preserve">
<g>
	<polygon points="0,0.001 0,0 0.001,0 	"/>
</g>
<g id="_x36_-win8">
	<path d="M111,188.101V114h97v88.515L111,188.101z M23.064,176.117V114H98v72.643L23.064,176.117z M870.525,167.531
		c-7.277,0-13.949-1.706-19.84-5.069v-14.05c7.291,4.634,14.456,6.982,21.322,6.982c9.702,0,14.621-3.629,14.621-10.785
		c0-2.011-0.421-3.763-1.25-5.208c-0.833-1.434-1.94-2.677-3.39-3.805c-1.411-1.109-3.135-2.128-5.266-3.11
		c-2.074-0.973-4.102-1.883-6.189-2.782c-3.316-1.496-6.129-2.94-8.583-4.408c-2.44-1.46-4.444-3.09-6.125-4.984
		c-1.646-1.844-2.901-3.979-3.736-6.35c-0.847-2.405-1.275-5.24-1.275-8.424c0-3.889,0.8-7.37,2.376-10.349
		c1.581-3.002,3.706-5.536,6.319-7.532c2.63-2.024,5.682-3.572,9.072-4.603c3.424-1.029,6.919-1.551,10.387-1.551
		c6.04,0,11.866,1.312,17.326,3.903v13.385c-6.354-3.416-12.696-5.146-18.873-5.146c-2.079,0-3.968,0.269-5.613,0.8
		c-1.723,0.556-3.135,1.291-4.318,2.249c-1.202,0.973-2.125,2.117-2.743,3.399c-0.633,1.261-0.958,2.722-0.958,4.327
		c0,2.073,0.313,3.729,0.96,5.061c0.636,1.327,1.584,2.515,2.895,3.629c1.251,1.052,2.811,2.03,4.64,2.911
		c1.859,0.886,3.972,1.851,6.281,2.871c3.318,1.418,6.289,2.881,8.843,4.351c2.431,1.384,4.605,3.043,6.469,4.932
		c1.822,1.859,3.239,4.035,4.209,6.463c0.994,2.445,1.497,5.371,1.497,8.702c0,4.09-0.82,7.697-2.438,10.722
		c-1.626,3.067-3.799,5.62-6.459,7.59c-2.668,1.985-5.76,3.476-9.191,4.432C878.072,167.045,874.383,167.531,870.525,167.531z
		 M582.398,167.531c-10.428,0-18.838-3.713-24.994-11.035c-6.188-7.36-9.326-17.479-9.326-30.074
		c0-13.469,3.478-24.456,10.337-32.653c6.802-8.138,16.063-12.264,27.528-12.264c9.693,0,17.117,3.067,22.063,9.116l1.774,2.169
		V44.492h14.521v121.144h-14.521v-11.939l-1.795,2.348C602.161,163.667,593.553,167.531,582.398,167.531z M587.619,93.658
		c-7.596,0-13.693,2.869-18.125,8.526c-4.361,5.578-6.572,13.518-6.572,23.599c0,9.205,2.112,16.501,6.279,21.687
		c4.243,5.259,9.955,7.924,16.979,7.924c6.916,0,12.649-2.574,17.041-7.65c4.354-5.062,6.561-11.57,6.561-19.346v-11.95
		c0-6.338-2.124-11.779-6.313-16.17C599.3,95.886,593.967,93.658,587.619,93.658z M989.936,167.451
		c-5.521,0-10.609-0.841-15.124-2.501c-4.541-1.655-8.538-4.008-11.882-6.993c-3.327-2.994-5.948-6.612-7.787-10.752
		c-1.81-4.169-2.729-8.826-2.729-13.832c0-3.139,0.476-6.237,1.414-9.207c0.923-3.001,2.305-5.894,4.111-8.603
		c1.812-2.682,4.075-5.159,6.725-7.358c2.625-2.159,5.278-3.507,7.885-4.004l3.424-0.653l-3.249-1.261
		c-4.398-1.707-8.101-4.769-11.005-9.1c-2.938-4.331-4.428-9.226-4.428-14.551c0-4.217,0.83-8.172,2.466-11.755
		c1.632-3.588,3.923-6.735,6.81-9.354c2.865-2.613,6.363-4.701,10.398-6.206c3.993-1.485,8.365-2.241,12.993-2.247
		c4.617,0.006,9.003,0.777,13.031,2.293c4.03,1.536,7.538,3.639,10.424,6.25c2.848,2.587,5.123,5.738,6.764,9.366
		c1.608,3.594,2.425,7.515,2.425,11.651c0,5.312-1.489,10.198-4.425,14.525c-2.914,4.336-6.562,7.403-10.846,9.12l-3.135,1.256
		l3.313,0.653c2.539,0.5,5.144,1.844,7.741,3.995c2.648,2.23,4.883,4.705,6.636,7.35c1.824,2.714,3.229,5.627,4.177,8.662
		c0.953,3.042,1.437,6.128,1.437,9.176c0,4.967-0.919,9.61-2.732,13.798c-1.88,4.261-4.413,7.792-7.743,10.789
		c-3.297,2.98-7.284,5.331-11.854,6.989C1000.599,166.609,995.473,167.451,989.936,167.451z M990.043,109.879
		c-3.149,0-6.083,0.553-8.719,1.645c-2.644,1.083-4.98,2.626-6.941,4.588c-1.965,1.977-3.533,4.354-4.663,7.069
		c-1.136,2.77-1.71,5.829-1.71,9.097c0,3.486,0.535,6.654,1.591,9.417c1.068,2.783,2.56,5.158,4.434,7.059
		c1.914,1.925,4.243,3.426,6.926,4.463c2.661,1.018,5.717,1.533,9.083,1.533c3.226,0,6.198-0.533,8.835-1.585
		c2.688-1.079,5.031-2.587,6.969-4.485c1.953-1.931,3.498-4.325,4.592-7.117c1.114-2.785,1.681-5.912,1.681-9.286
		c0-3.043-0.536-5.961-1.594-8.673c-1.061-2.713-2.584-5.117-4.528-7.144c-1.916-2.04-4.253-3.67-6.94-4.839
		C996.386,110.465,993.354,109.879,990.043,109.879z M990.021,61.205c-2.658,0-5.044,0.474-7.294,1.448
		c-2.197,0.972-4.109,2.284-5.689,3.902c-1.583,1.647-2.818,3.616-3.677,5.858c-0.871,2.268-1.312,4.709-1.312,7.254
		c0,2.636,0.475,5.093,1.411,7.303c0.913,2.155,2.228,4.107,3.905,5.802c1.708,1.703,3.573,2.975,5.708,3.895
		c2.163,0.914,4.506,1.376,6.97,1.376c2.457,0,4.804-0.484,6.977-1.438c2.171-0.96,4.088-2.272,5.701-3.903
		c1.608-1.643,2.913-3.6,3.88-5.82c0.98-2.194,1.479-4.625,1.479-7.215c0-2.657-0.475-5.138-1.409-7.373
		c-0.96-2.24-2.268-4.195-3.89-5.816c-1.604-1.622-3.54-2.922-5.752-3.861C994.85,61.681,992.49,61.205,990.021,61.205z
		 M679.121,166.753c-12.166,0-21.998-3.856-29.225-11.462c-7.245-7.599-10.918-17.797-10.918-30.313
		c0-13.579,3.814-24.364,11.338-32.054c7.556-7.702,17.891-11.607,30.717-11.607c12.268,0,21.966,3.794,28.825,11.277
		c6.896,7.529,10.394,18.004,10.394,31.133c0,12.888-3.761,23.398-11.178,31.239C701.674,162.787,691.597,166.753,679.121,166.753z
		 M680.088,93.367c-8.036,0-14.508,2.781-19.234,8.265c-4.681,5.457-7.053,13.152-7.053,22.873c0,9.392,2.398,16.842,7.129,22.145
		c4.747,5.343,11.193,8.052,19.158,8.052c8.06,0,14.374-2.661,18.771-7.91c4.347-5.205,6.55-12.808,6.55-22.599
		c0-9.882-2.21-17.561-6.567-22.821C694.462,96.062,688.152,93.367,680.088,93.367z M785.231,97.969l-20.141,66.309H750.5
		l-24.864-80.672h14.976l18.177,69.443l20.085-69.443h13.394l18.706,68.893l1.93-0.524l-0.491-1.812l15.85-66.557h14.203
		l-23.607,80.617l-15.587,0.094L785.231,97.969z M517.979,164.287v-44.874c0-17.433-6.131-26.272-18.223-26.272l-0.254,0.001
		c-6.266,0-11.973,2.582-16.062,7.271c-4.968,5.725-5.981,8.919-6.026,18.996l-0.189,44.87l-14.052-0.121l0.062-80.233l13.778-0.057
		l0.122,15.14l1.806-2.707c6.62-9.922,14.747-14.543,25.576-14.543c9.419,0,15.959,2.633,20.581,8.285
		c4.432,5.388,6.585,13.91,6.585,26.057l0.147,48.188H517.979z M428.857,164.071l-0.335-80.23l13.99-0.079l-0.095,80.426
		L428.857,164.071z M369.714,163.989L343.94,70.643l-25.651,93.243l-17.639,0.169L268.003,50.881l15.821-0.048l25.979,97.771
		l27.367-97.775l15.656,0.059l24.896,95.371l1.938-0.01l23.867-95.315l15.43-0.094l-31.642,113.329L369.714,163.989z M111,101
		V26.792l97-14.914V101H111z M23.063,101l-0.062-62.099L98,28.475V101H23.063z M436.283,62.516c-2.577,0-4.77-0.866-6.521-2.573
		c-1.778-1.72-2.642-3.818-2.642-6.417c0-2.59,0.872-4.702,2.664-6.455c1.8-1.771,3.925-2.631,6.498-2.631
		c2.562,0,4.787,0.891,6.611,2.647c1.817,1.759,2.701,3.865,2.701,6.438c0,2.477-0.882,4.546-2.698,6.328
		C441.077,61.645,438.914,62.516,436.283,62.516z"/>
</g>
</svg>
