<?xml version="1.0" encoding="iso-8859-1"?>
<!-- Generator: Adobe Illustrator 15.1.0, SVG Export Plug-In . SVG Version: 6.00 Build 0)  -->
<!DOCTYPE svg PUBLIC "-//W3C//DTD SVG 1.1//EN" "http://www.w3.org/Graphics/SVG/1.1/DTD/svg11.dtd">
<svg version="1.1" id="Layer_1" xmlns="http://www.w3.org/2000/svg" xmlns:xlink="http://www.w3.org/1999/xlink" x="0px" y="0px"
	 width="1024px" height="1024px" viewBox="0 0 1024 1024" style="enable-background:new 0 0 1024 1024;" xml:space="preserve">
<g>
	<polygon points="0,0.001 0,0 0.001,0 	"/>
</g>
<g id="memory-stick_1_">
	<path d="M414.406,514C398.478,514,386,501.742,386,486.094V372.578c0-15.663,12.743-28.406,28.406-28.406
		c2.185,0,4.031-1.846,4.031-4.031v-48.648c0-2.185-1.846-4.031-4.031-4.031c-15.663,0-28.406-12.743-28.406-28.406v-48.648
		C386,194.743,398.743,182,414.406,182h145.938c12.128,0,27.735,6.462,36.305,15.031l25.719,25.719
		c8.767,8.759,15.633,24.706,15.633,36.305v227.039C638,501.481,624.99,514,609,514H414.406z M414.406,206.383
		c-2.185,0-4.031,1.842-4.031,4.023v48.648c0,2.185,1.846,4.031,4.031,4.031c15.663,0,28.406,12.743,28.406,28.406v48.648
		c0,15.663-12.743,28.406-28.406,28.406c-2.185,0-4.031,1.846-4.031,4.031v113.516c0,2.181,1.846,4.023,4.031,4.023H609
		c2.186,0,4.031-1.842,4.031-4.023V259.055c0-5.647-3.914-15.087-7.901-19.058l-25.716-25.715
		c-3.986-3.986-13.432-7.898-19.07-7.898H414.406z M463.062,467.875c-16.297,0-29.062-13.366-29.062-30.43v-32.438
		c0-17.063,12.766-30.43,29.062-30.43h97.297c16.621,0,29.641,13.366,29.641,30.43v32.438c0,17.063-13.02,30.43-29.641,30.43
		H463.062z M527.922,289.492c-3.596,0-6.302-1.176-7.62-3.31c-1.318-2.135-1.157-5.084,0.455-8.302l17.923-35.854
		c1.549-3.103,3.539-4.882,5.463-4.882c1.925,0,3.921,1.78,5.476,4.884l17.905,35.849c1.613,3.22,1.774,6.169,0.456,8.304
		c-1.318,2.134-4.024,3.31-7.62,3.31H527.922z"/>
</g>
</svg>
