<?xml version="1.0" encoding="iso-8859-1"?>
<!-- Generator: Adobe Illustrator 15.1.0, SVG Export Plug-In . SVG Version: 6.00 Build 0)  -->
<!DOCTYPE svg PUBLIC "-//W3C//DTD SVG 1.1//EN" "http://www.w3.org/Graphics/SVG/1.1/DTD/svg11.dtd">
<svg version="1.1" id="Layer_1" xmlns="http://www.w3.org/2000/svg" xmlns:xlink="http://www.w3.org/1999/xlink" x="0px" y="0px"
	 width="1024px" height="1024px" viewBox="0 0 1024 1024" style="enable-background:new 0 0 1024 1024;" xml:space="preserve">
<g>
	<polygon points="0,0.001 0,0 0.001,0 	"/>
</g>
<g id="in-dash-video">
	<path d="M248,514c-3.309,0-6-2.691-6-6V156c0-3.309,2.691-6,6-6h528c3.309,0,6,2.691,6,6v352c0,3.309-2.691,6-6,6H248z M270,486
		h484V178H270V486z M460.016,402c-5.522,0-10.016-4.493-10.016-10.016V272.016c0-5.522,4.493-10.016,10.016-10.016
		c1.391,0,2.828,0.369,4.271,1.098l119.081,59.471l1.063,0.609c3.436,1.724,5.569,5.104,5.569,8.822s-2.134,7.098-5.569,8.822
		L465.675,400.3l-0.008-0.008l-1.357,0.598C462.845,401.637,461.44,402,460.016,402z"/>
</g>
</svg>
