<?xml version="1.0" encoding="iso-8859-1"?>
<!-- Generator: Adobe Illustrator 15.1.0, SVG Export Plug-In . SVG Version: 6.00 Build 0)  -->
<!DOCTYPE svg PUBLIC "-//W3C//DTD SVG 1.1//EN" "http://www.w3.org/Graphics/SVG/1.1/DTD/svg11.dtd">
<svg version="1.1" id="Layer_1" xmlns="http://www.w3.org/2000/svg" xmlns:xlink="http://www.w3.org/1999/xlink" x="0px" y="0px"
	 width="1024px" height="1024px" viewBox="0 0 1024 1024" style="enable-background:new 0 0 1024 1024;" xml:space="preserve">
<g>
	<polygon points="0,0.001 0,0 0.001,0 	"/>
</g>
<g id="mp3">
	<path d="M368,514c-34.187,0-62-20.636-62-46s27.813-46,62-46c10.851,0,21.348,2.183,31.199,6.489l2.801,1.225V149.709l300-47.369
		V420c0,25.364-27.813,46-62,46s-62-20.636-62-46s27.813-46,62-46c10.852,0,21.348,2.183,31.199,6.489l2.801,1.225V204.353
		l-244,37.935V468C430,493.364,402.187,514,368,514z"/>
</g>
</svg>
