<?xml version="1.0" encoding="iso-8859-1"?>
<!-- Generator: Adobe Illustrator 15.1.0, SVG Export Plug-In . SVG Version: 6.00 Build 0)  -->
<!DOCTYPE svg PUBLIC "-//W3C//DTD SVG 1.1//EN" "http://www.w3.org/Graphics/SVG/1.1/DTD/svg11.dtd">
<svg version="1.1" id="Layer_1" xmlns="http://www.w3.org/2000/svg" xmlns:xlink="http://www.w3.org/1999/xlink" x="0px" y="0px"
	 width="1024px" height="1024px" viewBox="0 0 1024 1024" style="enable-background:new 0 0 1024 1024;" xml:space="preserve">
<g>
	<polygon points="0,0.001 0,0 0.001,0 	"/>
</g>
<g id="docking-stations">
	<path d="M128,514c-7.72,0-14-6.28-14-14V196c0-7.72,6.28-14,14-14h274V84c0-7.72,6.28-14,14-14h176c7.72,0,14,6.28,14,14v98h274
		c7.72,0,14,6.28,14,14v304c0,7.72-6.28,14-14,14H128z M142,486h724v-36H142V486z M142,438h724V210H606v130c0,7.72-6.28,14-14,14
		H416c-7.72,0-14-6.28-14-14V210H142V438z M430,326h148V98H430V326z M450,274V118h108v156H450z M462,262h84V130h-84V262z"/>
</g>
</svg>
