<?xml version="1.0" encoding="iso-8859-1"?>
<!-- Generator: Adobe Illustrator 15.1.0, SVG Export Plug-In . SVG Version: 6.00 Build 0)  -->
<!DOCTYPE svg PUBLIC "-//W3C//DTD SVG 1.1//EN" "http://www.w3.org/Graphics/SVG/1.1/DTD/svg11.dtd">
<svg version="1.1" id="Layer_1" xmlns="http://www.w3.org/2000/svg" xmlns:xlink="http://www.w3.org/1999/xlink" x="0px" y="0px"
	 width="1024px" height="1024px" viewBox="0 0 1024 1024" style="enable-background:new 0 0 1024 1024;" xml:space="preserve">
<g>
	<polygon points="0,0.001 0,0 0.001,0 	"/>
</g>
<g id="hybrid-PCs">
	<path d="M272,513.998c-16.542,0-30-13.448-30-29.977v-15.992c0-16.534,13.458-29.984,30-29.984h349.806L752.983,26.183
		c0.78-2.464,3.141-4.183,5.74-4.183c0.608,0,1.213,0.094,1.797,0.279l15.247,4.859c3.152,1,4.902,4.377,3.904,7.53L651.201,438.044
		H752c16.542,0,30,13.451,30,29.984v15.992c0,16.529-13.458,29.977-30,29.977H272z M635.92,486.021H754v-19.992H642.288
		L635.92,486.021z M270,486.021h337.083l0.241-1.722c0.034-0.24,0.046-0.479,0.054-0.719c0.003-0.101-0.002-0.201,0.018-0.301
		l5.497-17.25H270V486.021z"/>
</g>
</svg>
