<?xml version="1.0" encoding="iso-8859-1"?>
<!-- Generator: Adobe Illustrator 15.1.0, SVG Export Plug-In . SVG Version: 6.00 Build 0)  -->
<!DOCTYPE svg PUBLIC "-//W3C//DTD SVG 1.1//EN" "http://www.w3.org/Graphics/SVG/1.1/DTD/svg11.dtd">
<svg version="1.1" id="Layer_1" xmlns="http://www.w3.org/2000/svg" xmlns:xlink="http://www.w3.org/1999/xlink" x="0px" y="0px"
	 width="1024px" height="1024px" viewBox="0 0 1024 1024" style="enable-background:new 0 0 1024 1024;" xml:space="preserve">
<g>
	<polygon points="0,0.001 0,0 0.001,0 	"/>
</g>
<g id="digital-tv-recorders_1_">
	<path d="M768,514c-7.72,0-14-6.28-14-14V276c0-7.72,6.28-14,14-14h96c7.72,0,14,6.28,14,14v224c0,7.72-6.28,14-14,14H768z M782,486
		h68V290h-68V486z M280,514c-3.309,0-6-2.691-6-6v-16c0-3.309,2.691-6,6-6h122v-52H160c-7.72,0-14-6.28-14-14V68
		c0-7.72,6.28-14,14-14h544c7.72,0,14,6.28,14,14v352c0,7.72-6.28,14-14,14H462v52h122c3.309,0,6,2.691,6,6v16c0,3.309-2.691,6-6,6
		H280z M174,406h516V82H174V406z M210,370v-44h444v44H210z M526,358h116v-20H526V358z M816,338c-7.72,0-14-6.28-14-14s6.28-14,14-14
		s14,6.28,14,14S823.72,338,816,338z M393.344,258c-4.049,0-7.344-3.294-7.344-7.344v-93.312c0-4.049,3.294-7.344,7.344-7.344
		c1.014,0,2.043,0.265,3.146,0.809l92.332,46.12l1.097,0.61c2.518,1.259,4.082,3.735,4.082,6.461s-1.564,5.202-4.082,6.461
		l-91.829,45.991l-1.577,0.727C395.408,257.732,394.372,258,393.344,258z"/>
</g>
</svg>
