<?xml version="1.0" encoding="iso-8859-1"?>
<!-- Generator: Adobe Illustrator 15.1.0, SVG Export Plug-In . SVG Version: 6.00 Build 0)  -->
<!DOCTYPE svg PUBLIC "-//W3C//DTD SVG 1.1//EN" "http://www.w3.org/Graphics/SVG/1.1/DTD/svg11.dtd">
<svg version="1.1" id="Layer_1" xmlns="http://www.w3.org/2000/svg" xmlns:xlink="http://www.w3.org/1999/xlink" x="0px" y="0px"
	 width="1024px" height="1024px" viewBox="0 0 1024 1024" style="enable-background:new 0 0 1024 1024;" xml:space="preserve">
<g>
	<polygon points="0,0.001 0,0 0.001,0 	"/>
</g>
<g id="all-in-one-systems">
	<path d="M360,514c-3.309,0-6-2.691-6-6v-16c0-3.309,2.691-6,6-6h122v-52H240c-7.72,0-14-6.28-14-14V100c0-7.72,6.28-14,14-14h544
		c7.72,0,14,6.28,14,14v320c0,7.72-6.28,14-14,14H542v52h122c3.309,0,6,2.691,6,6v16c0,3.309-2.691,6-6,6H360z M254,406h516V114H254
		V406z"/>
</g>
</svg>
