<?xml version="1.0" encoding="iso-8859-1"?>
<!-- Generator: Adobe Illustrator 15.1.0, SVG Export Plug-In . SVG Version: 6.00 Build 0)  -->
<!DOCTYPE svg PUBLIC "-//W3C//DTD SVG 1.1//EN" "http://www.w3.org/Graphics/SVG/1.1/DTD/svg11.dtd">
<svg version="1.1" id="Layer_1" xmlns="http://www.w3.org/2000/svg" xmlns:xlink="http://www.w3.org/1999/xlink" x="0px" y="0px"
	 width="1024px" height="1024px" viewBox="0 0 1024 1024" style="enable-background:new 0 0 1024 1024;" xml:space="preserve">
<g>
	<polygon points="0,0.001 0,0 0.001,0 	"/>
</g>
<g id="speakers">
	<path d="M368,514c-7.72,0-14-6.28-14-14V100c0-7.72,6.28-14,14-14h272c7.72,0,14,6.28,14,14v400c0,7.72-6.28,14-14,14H368z
		 M382,486h244V114H382V486z M504,450c-38.598,0-70-31.402-70-70s31.402-70,70-70c38.598,0,70,31.402,70,70S542.598,450,504,450z
		 M504,338c-23.159,0-42,18.841-42,42s18.841,42,42,42c23.159,0,42-18.841,42-42S527.159,338,504,338z M504,402
		c-12.131,0-22-9.869-22-22s9.869-22,22-22s22,9.869,22,22S516.131,402,504,402z M504,241.969c-20.945,0-37.984-17.04-37.984-37.984
		S483.055,166,504,166c20.944,0,37.984,17.04,37.984,37.984S524.944,241.969,504,241.969z"/>
</g>
</svg>
