<?xml version="1.0" encoding="iso-8859-1"?>
<!-- Generator: Adobe Illustrator 15.1.0, SVG Export Plug-In . SVG Version: 6.00 Build 0)  -->
<!DOCTYPE svg PUBLIC "-//W3C//DTD SVG 1.1//EN" "http://www.w3.org/Graphics/SVG/1.1/DTD/svg11.dtd">
<svg version="1.1" id="Layer_1" xmlns="http://www.w3.org/2000/svg" xmlns:xlink="http://www.w3.org/1999/xlink" x="0px" y="0px"
	 width="1024px" height="1024px" viewBox="0 0 1024 1024" style="enable-background:new 0 0 1024 1024;" xml:space="preserve">
<g>
	<polygon points="0,0.001 0,0 0.001,0 	"/>
</g>
<g id="cameras">
	<path d="M192,514c-7.72,0-14-6.28-14-14V116c0-7.72,6.28-14,14-14h640c7.72,0,14,6.28,14,14v384c0,7.72-6.28,14-14,14H192z
		 M206,486h612V130H206V486z M640,450c-78.299,0-142-63.701-142-142s63.701-142,142-142s142,63.701,142,142S718.299,450,640,450z
		 M640,194c-62.859,0-114,51.14-114,114s51.141,114,114,114s114-51.14,114-114S702.859,194,640,194z M640,386
		c-43.01,0-78-34.991-78-78s34.99-78,78-78s78,34.991,78,78S683.01,386,640,386z M640,242c-36.393,0-66,29.607-66,66
		s29.607,66,66,66s66-29.607,66-66S676.393,242,640,242z M247.992,194c-3.309,0-6-2.691-6-6v-16c0-3.309,2.691-6,6-6h160
		c3.309,0,6,2.691,6,6v16c0,3.309-2.691,6-6,6H247.992z"/>
</g>
</svg>
