<?xml version="1.0" encoding="iso-8859-1"?>
<!-- Generator: Adobe Illustrator 15.1.0, SVG Export Plug-In . SVG Version: 6.00 Build 0)  -->
<!DOCTYPE svg PUBLIC "-//W3C//DTD SVG 1.1//EN" "http://www.w3.org/Graphics/SVG/1.1/DTD/svg11.dtd">
<svg version="1.1" id="Layer_1" xmlns="http://www.w3.org/2000/svg" xmlns:xlink="http://www.w3.org/1999/xlink" x="0px" y="0px"
	 width="1024px" height="1024px" viewBox="0 0 1024 1024" style="enable-background:new 0 0 1024 1024;" xml:space="preserve">
<g>
	<polygon points="0,0.001 0,0 0.001,0 	"/>
</g>
<g id="a-mount">
	<path d="M384,514c-7.72,0-14-6.28-14-14v-34h-34c-7.72,0-14-6.28-14-14V164c0-7.72,6.28-14,14-14h34v-50c0-7.72,6.28-14,14-14h256
		c7.72,0,14,6.28,14,14v50h34c7.72,0,14,6.28,14,14v288c0,7.72-6.28,14-14,14h-34v34c0,7.72-6.28,14-14,14H384z M350,438h324v-68
		H350V438z M350,342h324v-36H350V342z M350,294h324v-36H350V294z M350,230h324v-52H350V230z M398,150h228v-36H398V150z"/>
</g>
</svg>
