<?xml version="1.0" encoding="iso-8859-1"?>
<!-- Generator: Adobe Illustrator 15.1.0, SVG Export Plug-In . SVG Version: 6.00 Build 0)  -->
<!DOCTYPE svg PUBLIC "-//W3C//DTD SVG 1.1//EN" "http://www.w3.org/Graphics/SVG/1.1/DTD/svg11.dtd">
<svg version="1.1" id="Layer_1" xmlns="http://www.w3.org/2000/svg" xmlns:xlink="http://www.w3.org/1999/xlink" x="0px" y="0px"
	 width="1008px" height="1008px" viewBox="0 0 1008 1008" style="enable-background:new 0 0 1008 1008;" xml:space="preserve">
<g>
	<polygon points="0,0.001 0,0 0.001,0 	"/>
</g>
<g id="superior-auto">
	<path d="M168,928c-33.636,0-61-27.364-61-61V132c0-33.636,27.364-61,61-61h672c33.636,0,61,27.364,61,61v735
		c0,33.636-27.364,61-61,61H168z M187,848h634V151H187V848z M369.264,622.332c-22.812,0-49.53-5.131-68.676-13.136l8.333-29.39
		c19.739,8.312,43.323,13.631,60.712,13.631c25.686,0,38.709-8.56,38.709-25.441c0-16.482-15.08-24.473-46.765-35.168
		c-39.847-13.657-57.62-31.498-57.62-57.846c0-39.624,36.034-57.359,71.746-57.359c21.034,0,42.843,3.902,58.798,10.481
		l-8.628,28.283c-15.755-6.55-32.746-9.87-50.539-9.87c-16.69,0-34.525,6.384-34.525,24.303c0,15.996,12.21,22.799,41.419,32.898
		c38.852,13.191,62.925,28.165,62.925,62.012C445.152,618.25,387.066,622.332,369.264,622.332z M678.758,617.799l-27.604-73.357
		H537.588l-26.824,73.357h-43.017l98.716-265.975h57.346l98.353,265.975H678.758z M547.109,512.145h94.529L594.57,377.831
		L547.109,512.145z"/>
</g>
</svg>
