<?xml version="1.0" encoding="iso-8859-1"?>
<!-- Generator: Adobe Illustrator 15.1.0, SVG Export Plug-In . SVG Version: 6.00 Build 0)  -->
<!DOCTYPE svg PUBLIC "-//W3C//DTD SVG 1.1//EN" "http://www.w3.org/Graphics/SVG/1.1/DTD/svg11.dtd">
<svg version="1.1" id="Layer_1" xmlns="http://www.w3.org/2000/svg" xmlns:xlink="http://www.w3.org/1999/xlink" x="0px" y="0px"
	 width="1008px" height="1008px" viewBox="0 0 1008 1008" style="enable-background:new 0 0 1008 1008;" xml:space="preserve">
<g>
	<polygon points="0,0.001 0,0 0.001,0 	"/>
</g>
<g id="support">
	<path d="M756.667,781H420c-10.477,0-19-8.523-19-19V554h250c12.683,0,23-10.317,23-23V302h313c10.477,0,19,8.523,19,19v441
		c0,10.477-8.523,19-19,19h-65v124L756.667,781z M86,487H21c-10.477,0-19-8.523-19-19V27C2,16.523,10.523,8,21,8h567
		c10.477,0,19,8.523,19,19v441c0,10.477-8.523,19-19,19H251.333L86,611V487z M82,386h235v-67H82V386z M82,281h445v-67H82V281z
		 M82,176h445v-67H82V176z"/>
</g>
</svg>
