<?xml version="1.0" encoding="iso-8859-1"?>
<!-- Generator: Adobe Illustrator 15.1.0, SVG Export Plug-In . SVG Version: 6.00 Build 0)  -->
<!DOCTYPE svg PUBLIC "-//W3C//DTD SVG 1.1//EN" "http://www.w3.org/Graphics/SVG/1.1/DTD/svg11.dtd">
<svg version="1.1" id="Layer_1" xmlns="http://www.w3.org/2000/svg" xmlns:xlink="http://www.w3.org/1999/xlink" x="0px" y="0px"
	 width="1024px" height="1024px" viewBox="0 0 1024 1024" style="enable-background:new 0 0 1024 1024;" xml:space="preserve">
<g>
	<polygon points="0,0.001 0,0 0.001,0 	"/>
</g>
<g id="mic-studio">
	<path d="M387.188,966c-11.433,0-20.734-9-20.734-20.062c0-11.054,9.301-20.047,20.734-20.047h120.078V722.359
		c0-0.447,0.015-0.892,0.045-1.331l0.19-2.812l-2.794-0.364c-41.146-5.375-78.997-25.073-106.58-55.467
		C370.316,631.74,355,592.35,355,551.469V243.875C355,151.309,432.607,76,528,76s173,75.309,173,167.875v307.594
		c0,40.883-15.312,80.273-43.115,110.915c-27.578,30.394-65.427,50.092-106.575,55.466l-2.795,0.365l0.19,2.812
		c0.03,0.44,0.045,0.884,0.045,1.332v203.531h120.062c11.441,0,20.75,8.993,20.75,20.047c0,11.062-9.309,20.062-20.75,20.062
		H387.188z M528,116.125c-72.492,0-131.469,57.309-131.469,127.75v307.594c0,70.45,58.977,127.766,131.469,127.766
		s131.469-57.315,131.469-127.766V243.875C659.469,173.434,600.492,116.125,528,116.125z M589.609,337.594
		c-7.4,0-14.779-2.877-19.737-7.698c-4.94-4.79-7.888-11.905-7.888-19.037c0-7.214,2.875-14.146,7.888-19.021
		c4.947-4.654,12.151-7.342,19.728-7.342s14.774,2.688,19.749,7.375c5.141,4.998,8.229,12.109,8.229,18.988
		c0,6.799-2.955,13.58-8.322,19.095C604.357,334.716,596.99,337.594,589.609,337.594z M466.406,337.594
		c-7.387,0-14.767-2.879-19.74-7.701c-4.947-4.796-7.901-11.912-7.901-19.034c0-7.204,2.881-14.137,7.904-19.021
		c4.947-4.654,12.151-7.342,19.729-7.342s14.782,2.688,19.765,7.376c5.119,4.978,8.196,12.088,8.196,18.987
		c0,6.819-2.944,13.601-8.291,19.095C481.182,334.717,473.811,337.594,466.406,337.594z M528,249.438
		c-7.56,0-14.731-2.915-19.678-7.999c-5.301-5.141-8.306-11.959-8.306-18.767c0-6.913,3.082-14.028,8.245-19.034
		c4.987-4.84,12.181-7.615,19.738-7.615s14.745,2.774,19.724,7.612c5.098,4.942,7.903,11.702,7.903,19.036
		c0,7.123-2.806,13.766-7.9,18.706C542.729,246.523,535.563,249.438,528,249.438z"/>
</g>
</svg>
