<?xml version="1.0" encoding="iso-8859-1"?>
<!-- Generator: Adobe Illustrator 15.1.0, SVG Export Plug-In . SVG Version: 6.00 Build 0)  -->
<!DOCTYPE svg PUBLIC "-//W3C//DTD SVG 1.1//EN" "http://www.w3.org/Graphics/SVG/1.1/DTD/svg11.dtd">
<svg version="1.1" id="Layer_1" xmlns="http://www.w3.org/2000/svg" xmlns:xlink="http://www.w3.org/1999/xlink" x="0px" y="0px"
	 width="1024px" height="1024px" viewBox="0 0 1024 1024" style="enable-background:new 0 0 1024 1024;" xml:space="preserve">
<g>
	<polygon points="0,0.001 0,0 0.001,0 	"/>
</g>
<g id="runner">
	<path d="M594.189,962.641c-26.359,0-51.153-10.452-69.813-29.432l-133.313-135.5c-18.282-18.612-28.506-43.439-28.787-69.907
		c-0.281-26.434,9.378-51.46,27.197-70.469l0.068-0.073l38.427-46.896l-43.638-44.361l-34.778,36.394
		c-15.741,15.995-36.695,24.822-58.972,24.822c-22.288,0-43.235-8.831-58.984-24.868L89.297,457.724
		c-32.535-33.123-32.528-87.003,0.016-120.105c15.805-16.046,36.782-24.884,59.064-24.884c22.323,0,43.27,8.836,58.981,24.88
		l65.036,66.121l0.03-7.286c0.141-34.527,13.569-67.123,37.812-91.784l21.359-21.718l149.647-154.76l0.951-1.155l1.572-1.969
		l1.757-1.67l4.388-4.01l1.856-0.973l0.23-0.187c14.838-11.994,33.39-18.599,52.239-18.599c22.07,0,42.824,8.749,58.438,24.634
		l172.829,175.673c32.55,33.123,32.543,87.002-0.016,120.105c-15.791,16.047-36.756,24.885-59.033,24.885
		c-19.396,0-37.516-6.521-52.398-18.856l-4.055,4.411l18.453,18.797c24.445,24.858,37.906,57.888,37.906,93.008
		c0,35.127-13.572,68.279-38.218,93.351l-84.498,83.969l70.39,71.565c38.469,39.183,38.455,102.903-0.031,142.043
		C645.343,952.188,620.549,962.641,594.189,962.641z M415.31,680.938c-24.645,25.396-24.54,66.524,0.256,91.744l133.297,135.5
		c12.12,12.326,28.218,19.115,45.326,19.115c17.119,0,33.222-6.789,45.342-19.115c24.894-25.351,24.895-66.635,0.004-92.031
		l-95.27-96.83L653.961,610.3c36.884-37.513,36.884-98.509,0.024-135.997L490.157,307.74c-1.759-1.793-3.644-3.276-5.476-4.702
		l53.52-54.125L681.957,395.01c9.206,9.383,21.459,14.552,34.498,14.552c13.031,0,25.305-5.167,34.558-14.55
		c18.997-19.312,18.997-50.743,0.004-70.069L578.203,149.287c-9.079-9.223-21.142-14.302-33.967-14.302
		c-11.963,0-23.52,4.442-32.562,12.511l-1.228,0.87c-0.296,0.154-0.792,0.412-1.284,0.904l-0.105,0.106l-0.095,0.115
		c-0.325,0.397-0.529,0.782-0.664,1.037c-0.013,0.024-0.025,0.047-0.037,0.071l-151.962,157.16l-21.591,21.951
		c-29.16,29.656-35.808,74.294-16.857,111.725l-28.752,29.196L182.891,362.646c-9.206-9.384-21.464-14.553-34.514-14.553
		c-13.052,0-25.335,5.167-34.589,14.55c-18.976,19.308-18.977,50.746-0.005,70.083l142.285,144.597
		c9.206,9.383,21.464,14.552,34.513,14.552c13.053,0,25.322-5.168,34.546-14.554l58.86-61.604l90.94,92.481L415.31,680.938z
		 M900.111,868.516c-19.54,0-37.512-6.575-50.604-18.514L693.16,707.874c-8.77-8.024-10.611-16.605-10.611-22.39
		c-0.043-15.657,12.477-27.168,25.732-39.354l0.748-0.687c6.201-5.682,13.229-12.121,19.465-19.601
		c6.712-7.999,12.578-17.213,17.754-25.342l0.597-0.937c12.061-18.933,22.477-35.283,39.563-35.283
		c4.399,0,10.995,1.235,17.429,7.12l156.318,142.115c35.688,32.604,38.685,88.616,6.677,124.856
		C949.896,857.528,925.578,868.516,900.111,868.516z M784.539,605.749c-2.938,4.143-6.363,9.529-8.631,13.094
		c-5.769,9.033-12.952,20.28-21.05,29.95c-7.563,9.051-16.304,17.106-23.327,23.579c-3.555,3.259-7.271,6.691-10.132,9.629
		l-2.166,2.224l153.376,139.417c6.62,6.045,16.646,9.515,27.502,9.515c15.64,0,30.56-6.719,40.934-18.433
		c19.197-21.729,17.407-55.304-3.988-74.845L786.498,602.986L784.539,605.749z M236.752,303.156
		c-61.593,0-111.703-50.958-111.703-113.594C125.049,126.944,175.159,76,236.752,76c61.559,0,111.641,50.944,111.641,113.562
		C348.393,252.198,298.311,303.156,236.752,303.156z M236.752,111.359c-42.475,0-77.031,35.082-77.031,78.203
		c0,43.147,34.556,78.25,77.031,78.25c42.432,0,76.953-35.103,76.953-78.25C313.706,146.441,279.185,111.359,236.752,111.359z"/>
</g>
</svg>
