<?xml version="1.0" encoding="iso-8859-1"?>
<!-- Generator: Adobe Illustrator 15.1.0, SVG Export Plug-In . SVG Version: 6.00 Build 0)  -->
<!DOCTYPE svg PUBLIC "-//W3C//DTD SVG 1.1//EN" "http://www.w3.org/Graphics/SVG/1.1/DTD/svg11.dtd">
<svg version="1.1" id="Layer_1" xmlns="http://www.w3.org/2000/svg" xmlns:xlink="http://www.w3.org/1999/xlink" x="0px" y="0px"
	 width="1032px" height="1032px" viewBox="0 0 1032 1032" style="enable-background:new 0 0 1032 1032;" xml:space="preserve">
<g>
	<polygon points="0,0.001 0,0 0.001,0 	"/>
</g>
<g id="circle-num-5">
	<path d="M515.979,954.02c-57.512,0-113.3-11.264-165.815-33.478c-50.725-21.457-96.281-52.176-135.402-91.303
		c-39.121-39.126-69.835-84.687-91.289-135.416C101.262,641.305,90,585.514,90,528c0-57.513,11.262-113.303,33.472-165.82
		c21.454-50.728,52.167-96.286,91.289-135.41c39.122-39.124,84.678-69.84,135.403-91.295C402.678,113.263,458.466,102,515.979,102
		c57.513,0,113.304,11.263,165.822,33.475c50.729,21.456,96.291,52.172,135.418,91.296s69.846,84.683,91.303,135.41
		C930.736,414.698,942,470.487,942,528s-11.264,113.304-33.479,165.822c-21.457,50.729-52.176,96.29-91.304,135.417
		c-39.126,39.127-84.688,69.846-135.417,91.303C629.281,942.756,573.491,954.02,515.979,954.02z M515.979,157.914
		c-204.078,0-370.107,166.02-370.107,370.086c0,204.09,166.03,370.129,370.107,370.129c204.102,0,370.15-166.039,370.15-370.129
		C886.129,323.934,720.08,157.914,515.979,157.914z M502.584,701.648c-34.885,0-66.294-5.906-93.421-17.56l12.07-35.463
		c24.952,10.679,51.025,16.089,77.572,16.089c48.717,0,77.801-25.725,77.801-68.812c0-42.532-33.187-66.926-91.051-66.926
		c-19.496,0-38.364,1.539-60.569,4.964l8.542-167.726h172.914v36.934H474.217l-5.71,92.174l4.677-0.463
		c15.611-1.546,26.146-1.871,32.234-1.871c33.027,0,62.679,8.8,83.49,24.78c22.926,17.602,35.043,43.64,35.043,75.298
		c0,34.044-12.394,62.191-35.842,81.399C566.71,691.995,536.337,701.648,502.584,701.648z"/>
</g>
</svg>
