<?xml version="1.0" encoding="iso-8859-1"?>
<!-- Generator: Adobe Illustrator 15.1.0, SVG Export Plug-In . SVG Version: 6.00 Build 0)  -->
<!DOCTYPE svg PUBLIC "-//W3C//DTD SVG 1.1//EN" "http://www.w3.org/Graphics/SVG/1.1/DTD/svg11.dtd">
<svg version="1.1" id="Layer_1" xmlns="http://www.w3.org/2000/svg" xmlns:xlink="http://www.w3.org/1999/xlink" x="0px" y="0px"
	 width="1032px" height="1032px" viewBox="0 0 1032 1032" style="enable-background:new 0 0 1032 1032;" xml:space="preserve">
<g>
	<polygon points="0,0.001 0,0 0.001,0 	"/>
</g>
<g id="iso">
	<path d="M215,739.02c-68.925,0-125-56.064-125-124.977v-301C90,244.094,146.075,188,215,188h96.75
		c44.657,0,67.112-22.456,88.829-44.171C422.089,122.318,442.407,102,483.75,102h64.5c41.343,0,61.661,20.318,83.172,41.829
		C653.138,165.544,675.593,188,720.25,188H817c68.925,0,125,56.094,125,125.043v301c0,68.912-56.075,124.977-125,124.977H215z
		 M718.445,298.02c-89.161,0-144.549,62.459-144.549,163.004c0,98.511,56.738,162.164,144.549,162.164
		c87.528,0,144.086-63.653,144.086-162.164C862.531,360.479,807.32,298.02,718.445,298.02z M319.087,604.396l3.209,1.303
		c26.995,10.95,61.937,17.488,93.469,17.488c51.803,0,112.297-24.011,112.297-91.68c0-52.072-32.588-75.458-88.877-98.254
		c-45.42-18.529-58.556-29.844-58.556-50.441c0-32.471,35.995-35.977,51.471-35.977c22.372,0,44.91,4.07,65.179,11.771l4.242,1.612
		l11.772-48.698l-3.354-1.226c-21.962-8.03-49.474-12.274-79.561-12.274c-53.765,0-108.016,27.542-108.016,89.074
		c0,41.827,24.908,69.798,83.287,93.53c42.829,17.23,64.569,30.36,64.569,54.326c0,34.28-34.67,39.398-55.336,39.398
		c-24.744,0-54.337-6.619-79.162-17.707l-4.369-1.951L319.087,604.396z M203.652,618.02h58.305V303.164h-58.305V618.02z
		 M718.445,574.348c-27.852,0-49.686-11.029-64.896-32.783c-13.965-19.97-21.346-47.821-21.346-80.541
		c0-32.96,7.384-61.021,21.354-81.15c15.215-21.922,37.046-33.038,64.889-33.038c27.637,0,49.337,11.114,64.501,33.033
		c13.947,20.161,21.319,48.224,21.319,81.155c0,32.769-7.316,60.623-21.158,80.552C768.004,563.321,746.248,574.348,718.445,574.348
		z"/>
</g>
</svg>
