<?xml version="1.0" encoding="iso-8859-1"?>
<!-- Generator: Adobe Illustrator 15.1.0, SVG Export Plug-In . SVG Version: 6.00 Build 0)  -->
<!DOCTYPE svg PUBLIC "-//W3C//DTD SVG 1.1//EN" "http://www.w3.org/Graphics/SVG/1.1/DTD/svg11.dtd">
<svg version="1.1" id="Layer_1" xmlns="http://www.w3.org/2000/svg" xmlns:xlink="http://www.w3.org/1999/xlink" x="0px" y="0px"
	 width="1032px" height="1032px" viewBox="0 0 1032 1032" style="enable-background:new 0 0 1032 1032;" xml:space="preserve">
<g>
	<polygon points="0,0.001 0,0 0.001,0 	"/>
</g>
<g id="circle-num-3">
	<path d="M515.979,954.02c-57.512,0-113.3-11.264-165.815-33.478c-50.725-21.457-96.281-52.176-135.402-91.303
		c-39.121-39.126-69.835-84.687-91.289-135.416C101.262,641.305,90,585.514,90,528c0-57.513,11.262-113.303,33.472-165.82
		c21.454-50.728,52.167-96.286,91.289-135.41c39.122-39.124,84.678-69.84,135.403-91.295C402.678,113.263,458.466,102,515.979,102
		c57.513,0,113.304,11.263,165.822,33.475c50.729,21.456,96.291,52.172,135.418,91.296s69.846,84.683,91.303,135.41
		C930.736,414.698,942,470.487,942,528s-11.264,113.304-33.479,165.822c-21.457,50.729-52.176,96.29-91.304,135.417
		c-39.126,39.127-84.688,69.846-135.417,91.303C629.281,942.756,573.491,954.02,515.979,954.02z M515.979,157.914
		c-204.078,0-370.107,166.02-370.107,370.086c0,204.09,166.03,370.129,370.107,370.129c204.091,0,370.131-166.039,370.131-370.129
		C886.109,323.934,720.069,157.914,515.979,157.914z M502.332,701.648c-34.142,0-69.005-7.369-96.298-20.287l12.066-35.437
		c27.057,12.639,54.039,18.79,82.341,18.79c46.735,0,73.539-22.319,73.539-61.234c0-26.431-16.368-57.938-94.346-57.938h-29.111
		v-37.414h29.574c55.058,0,85.379-20.577,85.379-57.941c0-33.006-23.959-52.711-64.09-52.711c-26.717,0-50.475,5.644-74.378,17.718
		l-12.442-35.778c26.254-12.2,58.772-18.894,92.027-18.894c29.551,0,56.112,7.341,74.791,20.67
		c20.567,14.678,31.439,36.416,31.439,62.865c0,38.074-21.314,65.094-60.019,76.082l-2.907,0.825v7.334l3.316,0.575
		c42.025,7.291,68.133,36.055,68.133,75.066c0,30.927-11.947,56.304-34.552,73.387C565.744,693.238,536.537,701.648,502.332,701.648
		z"/>
</g>
</svg>
