<?xml version="1.0" encoding="iso-8859-1"?>
<!-- Generator: Adobe Illustrator 15.1.0, SVG Export Plug-In . SVG Version: 6.00 Build 0)  -->
<!DOCTYPE svg PUBLIC "-//W3C//DTD SVG 1.1//EN" "http://www.w3.org/Graphics/SVG/1.1/DTD/svg11.dtd">
<svg version="1.1" id="Layer_1" xmlns="http://www.w3.org/2000/svg" xmlns:xlink="http://www.w3.org/1999/xlink" x="0px" y="0px"
	 width="1032px" height="1032px" viewBox="0 0 1032 1032" style="enable-background:new 0 0 1032 1032;" xml:space="preserve">
<g>
	<polygon points="0,0.001 0,0 0.001,0 	"/>
</g>
<g id="circle-num-2">
	<path d="M515.979,954.02c-57.512,0-113.3-11.264-165.815-33.478c-50.725-21.457-96.281-52.176-135.402-91.303
		c-39.121-39.126-69.835-84.687-91.289-135.416C101.262,641.305,90,585.514,90,528c0-57.513,11.262-113.303,33.472-165.82
		c21.454-50.728,52.167-96.286,91.289-135.41c39.122-39.124,84.678-69.84,135.403-91.295C402.678,113.263,458.466,102,515.979,102
		c57.513,0,113.304,11.263,165.822,33.475c50.729,21.456,96.291,52.172,135.418,91.296s69.846,84.683,91.303,135.41
		C930.736,414.698,942,470.487,942,528s-11.264,113.304-33.479,165.822c-21.457,50.729-52.176,96.29-91.304,135.417
		c-39.126,39.127-84.688,69.846-135.417,91.303C629.281,942.756,573.491,954.02,515.979,954.02z M515.979,157.914
		c-204.078,0-370.107,166.02-370.107,370.086c0,204.09,166.03,370.129,370.107,370.129c204.091,0,370.131-166.039,370.131-370.129
		C886.109,323.934,720.069,157.914,515.979,157.914z M410.295,695.98v-40.571c129.238-115.695,160.852-155.256,160.852-200.96
		c0-33.544-26.355-56.973-64.092-56.973c-24.162,0-48.917,8.672-75.551,26.487l-15.918-32.218
		c25.67-19.594,60.663-31.222,94.306-31.222c32.262,0,59.383,8.217,78.432,23.762c19.737,16.106,30.17,39.883,30.17,68.758
		c0,30.813-8.913,55.159-30.765,84.03c-22.788,30.109-59.607,64.964-115.504,114.993l-7.799,6.98h157.848v36.934H410.295z"/>
</g>
</svg>
