<?xml version="1.0" encoding="iso-8859-1"?>
<!-- Generator: Adobe Illustrator 15.1.0, SVG Export Plug-In . SVG Version: 6.00 Build 0)  -->
<!DOCTYPE svg PUBLIC "-//W3C//DTD SVG 1.1//EN" "http://www.w3.org/Graphics/SVG/1.1/DTD/svg11.dtd">
<svg version="1.1" id="Layer_1" xmlns="http://www.w3.org/2000/svg" xmlns:xlink="http://www.w3.org/1999/xlink" x="0px" y="0px"
	 width="1032px" height="1032px" viewBox="0 0 1032 1032" style="enable-background:new 0 0 1032 1032;" xml:space="preserve">
<g>
	<polygon points="0,0.001 0,0 0.001,0 	"/>
</g>
<g id="gplus">
	<path d="M377.909,876.568c-54.651,0-104.993-11.026-141.752-31.047c-26.687-14.534-58.498-40.566-58.498-82.047
		c0-34.497,20.007-69.516,54.892-96.078c36.907-28.102,85.607-43.578,137.127-43.578c6.157,0,12.089-0.087,17.826-0.172
		c5.734-0.084,11.151-0.164,16.776-0.164h9.861l-7.074-6.869c-17.437-16.934-25.914-34.022-25.914-52.244
		c0-11.124,3.228-23.033,9.593-35.396l3.253-6.318l-7.089,0.497c-5.189,0.364-10.958,0.533-18.156,0.533
		c-42.169,0-80.264-14.639-107.266-41.22c-26.221-25.813-40.662-61.211-40.662-99.675c0-35.872,18.881-72.12,51.801-99.45
		c32.722-27.165,75.625-42.745,117.71-42.745h187.105l-33.533,24.25h-61.945l-1.437,7.733c18.958,7.297,34.787,22.156,45.776,42.968
		c10.286,19.48,15.951,43.81,15.951,68.506c0,37.48-19.468,73.338-54.816,100.97c-31.983,25.041-39.792,36.86-39.792,60.218
		c0,21.896,40.12,55.321,54.174,65.304c50.224,35.525,68.023,68.592,68.023,126.368c0,35.528-17.915,70.422-49.15,95.735
		C485.237,861.381,435.863,876.568,377.909,876.568z M388.803,634.327c-37.18,0-74.469,11.443-102.304,31.396
		c-28.904,20.718-44.822,47.827-44.822,76.334c0,62.063,59.656,110.68,135.812,110.68c51.472,0,90.304-10.405,115.417-30.926
		c22.339-18.255,33.667-44.085,33.667-76.773c0-7.309-0.842-14.551-2.504-21.524c-7.742-30.207-32.171-46.855-65.983-69.897
		c-4.966-3.384-10.101-6.883-15.448-10.604l-0.489-0.34l-0.566-0.184c-16.107-5.204-33.191-7.946-50.777-8.15
		C390.138,634.331,389.465,634.327,388.803,634.327z M363.312,260.763c-21.5,0-40.526,8.733-55.021,25.256
		c-20.163,22.983-28.819,58.308-23.749,96.917c4.386,33.4,18.432,65.114,39.548,89.299c21.344,24.445,47.409,38.34,73.393,39.124
		c0.75,0.022,1.502,0.033,2.243,0.033c0.001,0,0.006,0,0.007,0c21.125,0,39.938-8.717,54.41-25.21
		c20.628-23.509,29.505-59.493,24.356-98.724c-4.371-33.285-18.429-64.698-39.586-88.454c-21.241-23.85-47.277-37.419-73.313-38.208
		C364.832,260.774,364.069,260.763,363.312,260.763z M778.609,514.869V385.826H658.092v-24.27h120.518V241.123h24.207v120.434H931.9
		v24.27H802.816v129.043H778.609z"/>
</g>
</svg>
