<?xml version="1.0" encoding="iso-8859-1"?>
<!-- Generator: Adobe Illustrator 15.1.0, SVG Export Plug-In . SVG Version: 6.00 Build 0)  -->
<!DOCTYPE svg PUBLIC "-//W3C//DTD SVG 1.1//EN" "http://www.w3.org/Graphics/SVG/1.1/DTD/svg11.dtd">
<svg version="1.1" id="Layer_1" xmlns="http://www.w3.org/2000/svg" xmlns:xlink="http://www.w3.org/1999/xlink" x="0px" y="0px"
	 width="1032px" height="1032px" viewBox="0 0 1032 1032" style="enable-background:new 0 0 1032 1032;" xml:space="preserve">
<g>
	<polygon points="0,0.001 0,0 0.001,0 	"/>
</g>
<g id="zoom">
	<path d="M154.242,997.012c-4.786,0-9.242-1.871-12.547-5.27L51.94,899.28c-3.246-3.353-5.001-7.789-4.938-12.487
		c0.062-4.688,1.926-9.04,5.249-12.255L263.2,669.477l-2.177-2.824c-26.733-34.688-47.536-73.034-61.83-113.972
		c-14.846-42.518-22.374-87.061-22.374-132.392c0-54.572,10.683-107.513,31.751-157.351c20.351-48.142,49.486-91.379,86.596-128.511
		c37.111-37.134,80.326-66.288,128.442-86.653C473.425,26.69,526.346,16,580.9,16c54.56,0,107.484,10.69,157.304,31.774
		c48.119,20.365,91.335,49.519,128.448,86.653c37.11,37.132,66.246,80.369,86.599,128.511
		c21.068,49.838,31.751,102.778,31.751,157.351c0,54.573-10.683,107.515-31.751,157.353
		c-20.353,48.142-49.488,91.379-86.599,128.511c-37.113,37.134-80.329,66.287-128.448,86.651
		c-49.819,21.084-102.744,31.774-157.304,31.774c-65.89,0-131.432-16.361-189.541-47.315l-2.577-1.372L166.441,992.085
		C163.175,995.263,158.843,997.012,154.242,997.012z M580.9,136.957c-156.16,0-283.206,127.102-283.206,283.332
		c0,156.254,127.045,283.375,283.206,283.375c156.172,0,283.227-127.121,283.227-283.375
		C864.127,264.059,737.072,136.957,580.9,136.957z M520.001,610V481h-129V360h128.986l0.462-129h120.878l-0.336,129h129.011v121
		H640.991l0.336,129H520.001z"/>
</g>
</svg>
