<?xml version="1.0" encoding="iso-8859-1"?>
<!-- Generator: Adobe Illustrator 15.1.0, SVG Export Plug-In . SVG Version: 6.00 Build 0)  -->
<!DOCTYPE svg PUBLIC "-//W3C//DTD SVG 1.1//EN" "http://www.w3.org/Graphics/SVG/1.1/DTD/svg11.dtd">
<svg version="1.1" id="Layer_1" xmlns="http://www.w3.org/2000/svg" xmlns:xlink="http://www.w3.org/1999/xlink" x="0px" y="0px"
	 width="1032px" height="1032px" viewBox="0 0 1032 1032" style="enable-background:new 0 0 1032 1032;" xml:space="preserve">
<g>
	<polygon points="0,0.001 0,0 0.001,0 	"/>
</g>
<g id="circle-num-0">
	<path d="M515.979,954.02c-57.512,0-113.3-11.264-165.815-33.478c-50.725-21.457-96.281-52.176-135.402-91.303
		c-39.121-39.126-69.835-84.687-91.289-135.416C101.262,641.305,90,585.514,90,528c0-57.513,11.262-113.303,33.472-165.82
		c21.454-50.728,52.167-96.286,91.289-135.41c39.122-39.124,84.678-69.84,135.403-91.295C402.678,113.263,458.466,102,515.979,102
		c57.513,0,113.304,11.263,165.822,33.475c50.729,21.456,96.291,52.172,135.418,91.296s69.846,84.683,91.303,135.41
		C930.736,414.698,942,470.487,942,528s-11.264,113.304-33.479,165.822c-21.457,50.729-52.176,96.29-91.304,135.417
		c-39.126,39.127-84.688,69.846-135.417,91.303C629.281,942.756,573.491,954.02,515.979,954.02z M515.979,157.914
		c-204.078,0-370.107,166.02-370.107,370.086c0,204.09,166.03,370.129,370.107,370.129c204.091,0,370.131-166.039,370.131-370.129
		C886.109,323.934,720.069,157.914,515.979,157.914z M518.898,701.648c-39.648,0-70.091-14.975-90.483-44.509
		c-19.853-28.754-29.919-70.528-29.919-124.163c0-111.208,42.76-172.453,120.402-172.453c39.128,0,69.449,15.543,90.121,46.197
		c19.823,29.396,30.301,73.055,30.301,126.256c0,53.461-10.185,95.232-30.271,124.154
		C588.535,686.671,558.203,701.648,518.898,701.648z M518.898,397.477c-48.477,0-73.057,45.589-73.057,135.5
		c0,41.212,5.43,73.089,16.14,94.743c12.141,24.548,31.291,36.995,56.917,36.995c25.287,0,44.393-12.437,56.787-36.965
		c11.116-21.997,16.752-53.884,16.752-94.773C592.438,444.332,567.008,397.477,518.898,397.477z"/>
</g>
</svg>
