<?xml version="1.0" encoding="iso-8859-1"?>
<!-- Generator: Adobe Illustrator 15.1.0, SVG Export Plug-In . SVG Version: 6.00 Build 0)  -->
<!DOCTYPE svg PUBLIC "-//W3C//DTD SVG 1.1//EN" "http://www.w3.org/Graphics/SVG/1.1/DTD/svg11.dtd">
<svg version="1.1" id="Layer_1" xmlns="http://www.w3.org/2000/svg" xmlns:xlink="http://www.w3.org/1999/xlink" x="0px" y="0px"
	 width="1032px" height="1032px" viewBox="0 0 1032 1032" style="enable-background:new 0 0 1032 1032;" xml:space="preserve">
<g>
	<polygon points="0,0.001 0,0 0.001,0 	"/>
</g>
<g id="popup">
	<path d="M150.5,782c-9.649,0-17.5-7.851-17.5-17.5v-430c0-9.649,7.851-17.5,17.5-17.5h60.479v361.5c0,14.061,11.439,25.5,25.5,25.5
		H770v60.5c0,9.649-7.851,17.5-17.5,17.5H150.5z M279.5,653c-9.649,0-17.5-7.851-17.5-17.5v-387c0-9.649,7.851-17.5,17.5-17.5h559
		c9.649,0,17.5,7.851,17.5,17.5v387c0,9.649-7.851,17.5-17.5,17.5H279.5z M339.979,575H778V309H339.979V575z"/>
</g>
</svg>
