<?xml version="1.0" encoding="iso-8859-1"?>
<!-- Generator: Adobe Illustrator 15.1.0, SVG Export Plug-In . SVG Version: 6.00 Build 0)  -->
<!DOCTYPE svg PUBLIC "-//W3C//DTD SVG 1.1//EN" "http://www.w3.org/Graphics/SVG/1.1/DTD/svg11.dtd">
<svg version="1.1" id="Layer_1" xmlns="http://www.w3.org/2000/svg" xmlns:xlink="http://www.w3.org/1999/xlink" x="0px" y="0px"
	 width="1024px" height="1024px" viewBox="0 0 1024 1024" style="enable-background:new 0 0 1024 1024;" xml:space="preserve">
<g>
	<polygon points="0,0.001 0,0 0.001,0 	"/>
</g>
<g id="_x36_-back-to-top">
	<path d="M953.38,518.062c-12.156,0-23.826-3.762-33.75-10.881L513.664,215.628L99.924,507.465
		c-9.841,6.927-21.376,10.59-33.354,10.59c-18.901,0-36.646-9.188-47.467-24.576c-8.933-12.66-12.392-28.036-9.746-43.306
		c2.646-15.267,11.075-28.595,23.735-37.528L480.591,97.021c9.802-6.925,21.343-10.583,33.38-10.583
		c12.229,0,23.961,3.761,33.925,10.875l439.486,315.616c25.947,18.696,31.896,55.006,13.253,80.937
		C989.713,509.013,972.046,518.061,953.38,518.062z"/>
</g>
</svg>
