<?xml version="1.0" encoding="iso-8859-1"?>
<!-- Generator: Adobe Illustrator 15.1.0, SVG Export Plug-In . SVG Version: 6.00 Build 0)  -->
<!DOCTYPE svg PUBLIC "-//W3C//DTD SVG 1.1//EN" "http://www.w3.org/Graphics/SVG/1.1/DTD/svg11.dtd">
<svg version="1.1" id="Layer_1" xmlns="http://www.w3.org/2000/svg" xmlns:xlink="http://www.w3.org/1999/xlink" x="0px" y="0px"
	 width="1024px" height="1024px" viewBox="0 0 1024 1024" style="enable-background:new 0 0 1024 1024;" xml:space="preserve">
<g>
	<polygon points="0,0.001 0,0 0.001,0 	"/>
</g>
<g id="_x36_-x-skinny-rounded">
	<path d="M905.605,970.012c-13.286,0-25.688-5.294-34.923-14.906l-354.39-368.942l-354.39,368.942
		c-9.234,9.612-21.637,14.906-34.923,14.906c-12.573,0-24.483-4.779-33.536-13.456c-19.211-18.492-19.834-49.234-1.379-68.521
		l357.11-371.773L92.057,144.48c-18.447-19.278-17.825-50.021,1.396-68.521c9.06-8.643,20.968-13.413,33.512-13.413
		c13.327,0,25.734,5.281,34.935,14.87L516.293,446.36l354.39-368.942c9.183-9.625,21.562-14.917,34.872-14.917
		c12.556,0,24.486,4.787,33.597,13.478c19.201,18.482,19.824,49.224,1.369,68.511L583.411,516.262l357.117,371.781
		c18.447,19.278,17.824,50.021-1.396,68.521C930.089,965.232,918.179,970.012,905.605,970.012z"/>
</g>
</svg>
