<?xml version="1.0" encoding="iso-8859-1"?>
<!-- Generator: Adobe Illustrator 15.1.0, SVG Export Plug-In . SVG Version: 6.00 Build 0)  -->
<!DOCTYPE svg PUBLIC "-//W3C//DTD SVG 1.1//EN" "http://www.w3.org/Graphics/SVG/1.1/DTD/svg11.dtd">
<svg version="1.1" id="Layer_1" xmlns="http://www.w3.org/2000/svg" xmlns:xlink="http://www.w3.org/1999/xlink" x="0px" y="0px"
	 width="1024px" height="1024px" viewBox="0 0 1024 1024" style="enable-background:new 0 0 1024 1024;" xml:space="preserve">
<g>
	<polygon points="0,0.001 0,0 0.001,0 	"/>
</g>
<g id="_x33_-alpha-light">
	<path d="M451.25,781c-38.271,0-71.964-8.111-100.144-24.109c-28.057-16.05-51.482-37.858-69.617-64.815
		c-18.321-27.142-32.101-58.246-40.96-92.452C231.551,565.371,227,530.152,227,494.938c0-38.039,5.069-74.617,15.066-108.718
		c9.892-34.16,24.514-64.37,43.464-89.802c18.949-25.348,43.306-46.133,72.39-61.775C386.969,218.954,420.135,211,456.5,211
		c58.208,0,106.453,19.54,143.396,58.076c37,38.534,57.854,95.634,61.983,169.716l0.31,8.012l5.925,0.542l1.8-8.007
		c3.315-12.555,7.081-28.108,11.511-47.547c4.125-17.835,8.08-37.179,12.089-59.127c4.172-22.842,7.589-42.279,10.445-59.421
		c2.809-16.628,5.28-32.929,7.542-49.743h49.567c-2.194,22.016-5.416,45.225-9.586,69.045
		c-4.753,27.148-10.376,54.489-16.714,81.264c-6.313,26.802-13.662,54.89-22.467,85.871c-8.549,29.636-18.049,58.347-28.233,85.323
		l-0.279,0.74l9.56,61.344c3.166,18.539,6.515,36.651,9.96,53.877c3.247,15.918,7.386,29.13,12.304,39.281
		c5.052,10.493,12.134,18.648,21.044,24.234c8.865,5.491,20.668,8.271,35.094,8.271c3.257,0,7.511-0.155,13.791-0.505
		c4.213-0.287,8.045-0.842,11.459-1.655v39.612c-3.938,1.017-9.825,2.31-17.883,3.519c-8.04,1.33-15.283,2.029-20.992,2.029
		c-33.165,0-56.699-8.049-69.946-23.922c-13.601-16.271-23.601-42.127-29.725-76.85l-8.376-47.005l-0.366-2.291l-5.841-0.371
		l-0.688,2.344c-6.21,20.536-14.922,40.331-25.889,58.813c-10.947,18.451-24.66,34.878-40.76,48.826
		c-15.885,13.885-34.6,25.124-55.635,33.414C499.933,776.863,476.495,781,451.25,781z M459.625,254
		c-24.802,0-48.5,5.4-70.436,16.051c-21.924,10.519-41.13,26.418-57.072,47.25c-15.844,20.686-28.54,46.277-37.734,76.063
		c-9.13,29.783-13.758,63.955-13.758,101.572c0,35.566,4.115,68.657,12.231,98.354c8.009,29.659,19.771,55.448,34.955,76.644
		c15.201,21.091,33.668,37.886,54.896,49.925C404.11,731.898,428.219,738,454.375,738c33.945,0,62.513-7.55,84.911-22.439
		c22.303-14.826,40.417-34.672,53.84-58.985c13.435-24.334,23.065-50.612,28.627-78.105c5.597-27.606,8.435-54.302,8.435-79.345
		c0-43.954-4.797-81.807-14.258-112.508c-9.547-30.979-22.412-56.43-38.239-75.649c-16.016-19.448-34.531-33.943-55.031-43.083
		C501.863,258.67,480.657,254,459.625,254z"/>
</g>
</svg>
