<?xml version="1.0" encoding="iso-8859-1"?>
<!-- Generator: Adobe Illustrator 15.1.0, SVG Export Plug-In . SVG Version: 6.00 Build 0)  -->
<!DOCTYPE svg PUBLIC "-//W3C//DTD SVG 1.1//EN" "http://www.w3.org/Graphics/SVG/1.1/DTD/svg11.dtd">
<svg version="1.1" id="Layer_1" xmlns="http://www.w3.org/2000/svg" xmlns:xlink="http://www.w3.org/1999/xlink" x="0px" y="0px"
	 width="1024px" height="1024px" viewBox="0 0 1024 1024" style="enable-background:new 0 0 1024 1024;" xml:space="preserve">
<g>
	<polygon points="0,0.001 0,0 0.001,0 	"/>
</g>
<g id="star-half">
	<path d="M263.72,855.868c-1.111,0-1.347-0.308-1.46-0.456c-0.731-0.957-1.485-4.363,0.334-11.058l0.21-0.772v-0.057l64.537-235.597
		l9.898-36.384l-29.128-23.902l-96.882-79.255l-95.883-78.489l-0.962-0.799c-6.249-5.18-6.794-8.404-6.598-8.984
		c0.197-0.582,2.6-2.823,10.76-3.151l123.873-4.938l161.715-6.343l13.407-35.402L506.032,95.18l0.333,607.445l-129.547,82.979
		l-103.629,66.503C267.864,855.501,264.793,855.868,263.72,855.868z"/>
</g>
</svg>
