<?xml version="1.0" encoding="iso-8859-1"?>
<!-- Generator: Adobe Illustrator 15.1.0, SVG Export Plug-In . SVG Version: 6.00 Build 0)  -->
<!DOCTYPE svg PUBLIC "-//W3C//DTD SVG 1.1//EN" "http://www.w3.org/Graphics/SVG/1.1/DTD/svg11.dtd">
<svg version="1.1" id="Layer_1" xmlns="http://www.w3.org/2000/svg" xmlns:xlink="http://www.w3.org/1999/xlink" x="0px" y="0px"
	 width="1024px" height="1024px" viewBox="0 0 1024 1024" style="enable-background:new 0 0 1024 1024;" xml:space="preserve">
<g>
	<polygon points="0,0.001 0,0 0.001,0 	"/>
</g>
<g id="_x36_-account">
	<path d="M64,1032.094c-31.981,0-58-26.019-58-58c0-53.051,3.197-89.506,19.539-118.854c18.311-32.886,53.28-54.249,110.049-67.234
		l5.11-1.208c86.587-19.981,176.124-40.644,197.011-86.464c3.295-7.139,13.357-28.94-9.724-72.367
		c-27.527-51.869-51.883-135.594-63.56-218.498c-13.128-93.201-9.017-170.57,11.575-217.854
		c24.482-56.24,53.336-96.781,88.209-123.939C403.657,36.955,452,22.015,512.001,22c60.052,0,108.374,14.939,147.813,45.672
		c34.857,27.162,63.702,67.703,88.185,123.941c20.592,47.285,24.703,124.653,11.575,217.854
		c-11.678,82.904-36.032,166.629-63.562,218.501c-23.079,43.424-13.018,65.226-9.71,72.39
		c20.876,45.795,110.411,66.457,196.999,86.438l5.065,1.198c56.813,12.995,91.782,34.358,110.094,67.244
		c16.342,29.349,19.539,65.804,19.539,118.854c0,31.981-26.019,58-58,58H64z"/>
</g>
</svg>
