<?xml version="1.0" encoding="utf-8"?>
<!-- Generator: Adobe Illustrator 15.0.0, SVG Export Plug-In  -->
<!DOCTYPE svg PUBLIC "-//W3C//DTD SVG 1.1//EN" "http://www.w3.org/Graphics/SVG/1.1/DTD/svg11.dtd" [
	<!ENTITY ns_flows "http://ns.adobe.com/Flows/1.0/">
]>
<svg version="1.1"
	 xmlns="http://www.w3.org/2000/svg" xmlns:xlink="http://www.w3.org/1999/xlink" xmlns:a="http://ns.adobe.com/AdobeSVGViewerExtensions/3.0/"
	 x="0px" y="0px" width="750px" height="450px" viewBox="0 1.533 750 450"
	 overflow="visible" enable-background="new 0 1.533 750 450" xml:space="preserve">
<defs>
</defs>
<rect y="180" display="none" fill="#7A7D7F" fill-opacity="0.3" width="750" height="91.533"/>
<rect display="none" fill="#7A7D7F" fill-opacity="0.3" width="750" height="151.533"/>
<rect y="301.533" display="none" fill="#7A7D7F" fill-opacity="0.3" width="750" height="151.533"/>
<rect x="480" y="181.533" display="none" fill="#0303F9" fill-opacity="0.1" width="16" height="16"/>
<rect x="510" y="181.533" display="none" fill="#0303F9" fill-opacity="0.1" width="16" height="16"/>
<rect x="540" y="181.533" display="none" fill="#0303F9" fill-opacity="0.1" width="33" height="33"/>
<g>
	<path fill="#231F20" d="M31,22.283c0.133,0,0.25,0.117,0.25,0.25v1c0,0.133-0.117,0.25-0.25,0.25H2c-0.133,0-0.25-0.117-0.25-0.25
		v-1c0-0.133,0.117-0.25,0.25-0.25H31 M31,20.533H2c-1.1,0-2,0.9-2,2v1c0,1.1,0.9,2,2,2h29c1.1,0,2-0.9,2-2v-1
		C33,21.433,32.1,20.533,31,20.533L31,20.533z"/>
</g>
<g>
	<path fill="#231F20" d="M29,3.283c0.133,0,0.25,0.117,0.25,0.25v14c0,0.133-0.117,0.25-0.25,0.25H4c-0.133,0-0.25-0.117-0.25-0.25
		v-14c0-0.133,0.117-0.25,0.25-0.25H29 M29,1.533H4c-1.1,0-2,0.9-2,2v14c0,1.1,0.9,2,2,2h25c1.1,0,2-0.9,2-2v-14
		C31,2.433,30.1,1.533,29,1.533L29,1.533z"/>
</g>
<path fill="#231F20" d="M103.875,22.283h-12c-1.034,0-1.875-0.841-1.875-1.875v-7c0-1.034,0.841-1.875,1.875-1.875
	c0.066,0,0.125-0.059,0.125-0.125v-3c0-0.066-0.059-0.125-0.125-0.125C90.841,8.283,90,7.441,90,6.408v-3
	c0-1.034,0.841-1.875,1.875-1.875h9c0.777,0,1.776,0.414,2.326,0.963l1.586,1.586c0.549,0.549,0.963,1.549,0.963,2.326v14
	C105.75,21.441,104.909,22.283,103.875,22.283z M91.875,3.283c-0.066,0-0.125,0.059-0.125,0.125v3c0,0.066,0.059,0.125,0.125,0.125
	c1.034,0,1.875,0.841,1.875,1.875v3c0,1.034-0.841,1.875-1.875,1.875c-0.066,0-0.125,0.059-0.125,0.125v7
	c0,0.066,0.059,0.125,0.125,0.125h12c0.066,0,0.125-0.059,0.125-0.125v-14c0-0.316-0.228-0.865-0.451-1.088l-1.586-1.586
	c-0.223-0.223-0.772-0.451-1.088-0.451H91.875z"/>
<path fill="#231F20" d="M102.875,17.408c0,1.1-0.9,2-2,2h-6c-1.1,0-2-0.9-2-2v-2c0-1.1,0.9-2,2-2h6c1.1,0,2,0.9,2,2V17.408z"/>
<path fill="#231F20" d="M100.322,5.302c-0.246-0.492-0.648-0.492-0.895,0l-1.105,2.211c-0.246,0.492,0.003,0.895,0.553,0.895h2
	c0.55,0,0.799-0.402,0.553-0.895L100.322,5.302z"/>
<path fill="#231F20" d="M152,1.533h-30c-1.1,0-2,0.9-2,2v17c0,1.1,0.9,2,2,2h13v3.125h-7c-0.483,0-0.875,0.392-0.875,0.875
	s0.392,0.875,0.875,0.875h18c0.483,0,0.875-0.392,0.875-0.875s-0.392-0.875-0.875-0.875h-7v-3.125h13c1.1,0,2-0.9,2-2v-17
	C154,2.433,153.1,1.533,152,1.533z M152.25,20.533c0,0.133-0.117,0.25-0.25,0.25h-30c-0.133,0-0.25-0.117-0.25-0.25v-17
	c0-0.133,0.117-0.25,0.25-0.25h30c0.133,0,0.25,0.117,0.25,0.25V20.533z"/>
<g>
	<path fill="#231F20" d="M215,3.283c0.133,0,0.25,0.117,0.25,0.25v12c0,0.133-0.117,0.25-0.25,0.25h-33
		c-0.133,0-0.25-0.117-0.25-0.25v-12c0-0.133,0.117-0.25,0.25-0.25H215 M215,1.533h-33c-1.1,0-2,0.9-2,2v12c0,1.1,0.9,2,2,2h33
		c1.1,0,2-0.9,2-2v-12C217,2.433,216.1,1.533,215,1.533L215,1.533z"/>
</g>
<circle fill="none" stroke="#231F20" stroke-width="1.75" stroke-miterlimit="10" cx="208" cy="9.534" r="4"/>
<line fill="none" stroke="#231F20" stroke-linecap="round" stroke-miterlimit="10" x1="185" y1="6.533" x2="192" y2="6.533"/>
<line fill="none" stroke="#231F20" stroke-linecap="round" stroke-miterlimit="10" x1="185" y1="9.533" x2="192" y2="9.533"/>
<line fill="none" stroke="#231F20" stroke-linecap="round" stroke-miterlimit="10" x1="185" y1="12.533" x2="192" y2="12.533"/>
<g>
	<path fill="#231F20" d="M186,18.533c0,0.55-0.45,1-1,1h-1c-0.55,0-1-0.45-1-1v-1c0-0.55,0.45-1,1-1h1c0.55,0,1,0.45,1,1V18.533z"/>
</g>
<g>
	<path fill="#231F20" d="M214,18.533c0,0.55-0.45,1-1,1h-1c-0.55,0-1-0.45-1-1v-1c0-0.55,0.45-1,1-1h1c0.55,0,1,0.45,1,1V18.533z"/>
</g>
<path fill="#231F20" d="M247.001,4.019l3.54,6.138c0.494,0.856,1.23,2.328,1.642,3.28c0.02,0.11,0.067,0.437,0.067,1.078
	c0,2.895-2.355,5.25-5.25,5.25s-5.25-2.355-5.25-5.25c0-0.64,0.047-0.967,0.067-1.077c0.413-0.953,1.148-2.425,1.642-3.281
	L247.001,4.019 M247,1.533c-0.362,0-0.725,0.238-0.999,0.714l-4.058,7.035c-0.549,0.953-1.351,2.561-1.781,3.573
	c0,0-0.163,0.383-0.163,1.659c0,3.866,3.135,7,7,7c3.866,0,7-3.134,7-7c0-1.276-0.162-1.659-0.162-1.659
	c-0.43-1.013-1.231-2.621-1.781-3.574L248,2.247C247.725,1.771,247.362,1.533,247,1.533L247,1.533z"/>
<path fill="#231F20" d="M280,15.533v-9c0-2.762-2.238-5-5-5s-5,2.238-5,5v9c0,2.467,1.792,4.505,4.143,4.914
	c-0.003,0.03-0.018,0.056-0.018,0.086v6c0,0.044,0.019,0.083,0.025,0.125H271c-0.483,0-0.875,0.392-0.875,0.875
	s0.392,0.875,0.875,0.875h8c0.483,0,0.875-0.392,0.875-0.875s-0.392-0.875-0.875-0.875h-3.15c0.006-0.042,0.025-0.081,0.025-0.125
	v-6c0-0.031-0.015-0.057-0.018-0.086C278.208,20.038,280,18,280,15.533z M278.25,15.533c0,1.792-1.458,3.25-3.25,3.25
	s-3.25-1.458-3.25-3.25v-9c0-1.792,1.458-3.25,3.25-3.25s3.25,1.458,3.25,3.25V15.533z"/>
<path fill="#231F20" d="M311.625,6.696V4.408c0-0.483-0.392-0.875-0.875-0.875s-0.875,0.392-0.875,0.875v2.288
	c-1.062,0.18-1.875,1.1-1.875,2.212v7c0,1.112,0.813,2.032,1.875,2.212v5.288c0,1.723-1.402,3.125-3.125,3.125
	s-3.125-1.402-3.125-3.125V16.12c1.062-0.18,1.875-1.1,1.875-2.212v-7c0-1.112-0.813-2.032-1.875-2.212V2.408
	c0-0.483-0.392-0.875-0.875-0.875s-0.875,0.392-0.875,0.875v2.288c-1.062,0.18-1.875,1.1-1.875,2.212v7
	c0,1.112,0.813,2.032,1.875,2.212v7.288c0,2.688,2.187,4.875,4.875,4.875s4.875-2.187,4.875-4.875V18.12
	c1.062-0.18,1.875-1.1,1.875-2.212v-7C313.5,7.795,312.687,6.875,311.625,6.696z M302.25,6.408h1c0.275,0,0.5,0.225,0.5,0.5v2.5h-2
	v-2.5C301.75,6.633,301.975,6.408,302.25,6.408z M311.75,15.908c0,0.275-0.225,0.5-0.5,0.5h-1c-0.275,0-0.5-0.225-0.5-0.5v-7
	c0-0.275,0.225-0.5,0.5-0.5h1c0.275,0,0.5,0.225,0.5,0.5V15.908z"/>
<g>
	<path fill="#231F20" d="M77,3.283c0.133,0,0.25,0.117,0.25,0.25v22c0,0.133-0.117,0.25-0.25,0.25H62c-0.133,0-0.25-0.117-0.25-0.25
		v-22c0-0.133,0.117-0.25,0.25-0.25H77 M77,1.533H62c-1.1,0-2,0.9-2,2v22c0,1.1,0.9,2,2,2h15c1.1,0,2-0.9,2-2v-22
		C79,2.433,78.1,1.533,77,1.533L77,1.533z"/>
</g>
<g>
	<path fill="#231F20" d="M75,5.533v16H64v-16H75 M76,4.533H63v18h13V4.533L76,4.533z"/>
</g>
<g>
	<path fill="#231F20" d="M343,3.283c6.203,0,11.25,5.047,11.25,11.25s-5.047,11.25-11.25,11.25s-11.25-5.047-11.25-11.25
		S336.797,3.283,343,3.283 M343,1.533c-7.18,0-13,5.82-13,13s5.82,13,13,13s13-5.82,13-13S350.18,1.533,343,1.533L343,1.533z"/>
</g>
<g>
	<path fill="#231F20" d="M343,10.533c2.206,0,4,1.794,4,4s-1.794,4-4,4s-4-1.794-4-4S340.794,10.533,343,10.533 M343,9.533
		c-2.762,0-5,2.239-5,5s2.238,5,5,5s5-2.239,5-5S345.762,9.533,343,9.533L343,9.533z"/>
</g>
<g>
	<path fill="#231F20" d="M343,13.033c0.827,0,1.5,0.673,1.5,1.5s-0.673,1.5-1.5,1.5s-1.5-0.673-1.5-1.5S342.173,13.033,343,13.033
		 M343,12.033c-1.381,0-2.5,1.119-2.5,2.5s1.119,2.5,2.5,2.5s2.5-1.119,2.5-2.5S344.381,12.033,343,12.033L343,12.033z"/>
</g>
<path fill="#231F20" d="M386.867,23.283h-12.084c-0.483,0-0.875-0.392-0.875-0.875v-11.5c0-0.483,0.392-0.875,0.875-0.875h16.334
	c0.483,0,0.875,0.392,0.875,0.875v7.25C391.992,20.984,389.693,23.283,386.867,23.283z M375.658,21.533h11.209
	c1.861,0,3.375-1.514,3.375-3.375v-6.375h-14.584V21.533z"/>
<path fill="#231F20" d="M391.504,1.533h-30.629c-0.483,0-0.875,0.392-0.875,0.875v9.272c0,0.483,0.392,0.875,0.875,0.875h3.762
	v3.671c0,3.891,3.165,7.057,7.056,7.057c0.483,0,0.875-0.392,0.875-0.875V8.691h18.937c1.974,0,3.58-1.605,3.58-3.579
	S393.478,1.533,391.504,1.533z M361.75,3.283h1.482v7.522h-1.482V3.283z M391.504,6.941h-19.812c-0.483,0-0.875,0.392-0.875,0.875
	V21.46c-2.511-0.418-4.431-2.606-4.431-5.234V11.68c0-0.483-0.392-0.875-0.875-0.875h-1.279V3.283h27.271
	c1.009,0,1.83,0.821,1.83,1.83S392.513,6.941,391.504,6.941z"/>
<path fill="#231F20" d="M452.625,29.283h-19.75c-0.483,0-0.875-0.392-0.875-0.875v-16c0-0.483,0.392-0.875,0.875-0.875h24
	c0.483,0,0.875,0.392,0.875,0.875v11.75C457.75,26.984,455.451,29.283,452.625,29.283z M433.75,27.533h18.875
	c1.861,0,3.375-1.514,3.375-3.375V13.283h-22.25V27.533z"/>
<path fill="#231F20" d="M424.875,25.283h-4c-0.483,0-0.875-0.392-0.875-0.875v-10c0-0.483,0.392-0.875,0.875-0.875h4
	c0.292,0,0.566,0.146,0.728,0.39l1.074,1.611h3.198c0.483,0,0.875,0.392,0.875,0.875v6c0,0.483-0.392,0.875-0.875,0.875h-3.199
	l-1.073,1.61C425.441,25.137,425.167,25.283,424.875,25.283z M421.75,23.533h2.657l1.073-1.61c0.162-0.244,0.436-0.39,0.728-0.39
	H429v-4.25h-2.791c-0.292,0-0.566-0.146-0.728-0.39l-1.074-1.611h-2.657V23.533z"/>
<path fill="#231F20" d="M454.875,10.283h-4c-0.275,0-0.535-0.13-0.7-0.35l-2.737-3.65h-6.688v3.125c0,0.483-0.392,0.875-0.875,0.875
	h-3c-0.483,0-0.875-0.392-0.875-0.875v-7c0-0.483,0.392-0.875,0.875-0.875h13c0.282,0,0.548,0.136,0.712,0.366l5,7
	c0.19,0.267,0.216,0.618,0.066,0.909C455.503,10.1,455.203,10.283,454.875,10.283z M451.312,8.533h1.862l-3.75-5.25H437.75v5.25H439
	V5.408c0-0.483,0.392-0.875,0.875-0.875h8c0.275,0,0.535,0.13,0.7,0.35L451.312,8.533z"/>
<path fill="#231F20" d="M485.875,8.283h-5c-0.483,0-0.875-0.392-0.875-0.875v-5c0-0.483,0.392-0.875,0.875-0.875h5
	c0.483,0,0.875,0.392,0.875,0.875v5C486.75,7.891,486.358,8.283,485.875,8.283z M481.75,6.533H485v-3.25h-3.25V6.533z"/>
<path fill="#231F20" d="M495.875,8.283h-5c-0.483,0-0.875-0.392-0.875-0.875v-5c0-0.483,0.392-0.875,0.875-0.875h5
	c0.483,0,0.875,0.392,0.875,0.875v5C496.75,7.891,496.358,8.283,495.875,8.283z M491.75,6.533H495v-3.25h-3.25V6.533z"/>
<path fill="#231F20" d="M505.875,8.283h-5c-0.483,0-0.875-0.392-0.875-0.875v-5c0-0.483,0.392-0.875,0.875-0.875h5
	c0.483,0,0.875,0.392,0.875,0.875v5C506.75,7.891,506.358,8.283,505.875,8.283z M501.75,6.533H505v-3.25h-3.25V6.533z"/>
<path fill="#231F20" d="M485.875,18.283h-5c-0.483,0-0.875-0.392-0.875-0.875v-5c0-0.483,0.392-0.875,0.875-0.875h5
	c0.483,0,0.875,0.392,0.875,0.875v5C486.75,17.891,486.358,18.283,485.875,18.283z M481.75,16.533H485v-3.25h-3.25V16.533z"/>
<path fill="#231F20" d="M495.875,18.283h-5c-0.483,0-0.875-0.392-0.875-0.875v-5c0-0.483,0.392-0.875,0.875-0.875h5
	c0.483,0,0.875,0.392,0.875,0.875v5C496.75,17.891,496.358,18.283,495.875,18.283z M491.75,16.533H495v-3.25h-3.25V16.533z"/>
<path fill="#231F20" d="M505.875,18.283h-5c-0.483,0-0.875-0.392-0.875-0.875v-5c0-0.483,0.392-0.875,0.875-0.875h5
	c0.483,0,0.875,0.392,0.875,0.875v5C506.75,17.891,506.358,18.283,505.875,18.283z M501.75,16.533H505v-3.25h-3.25V16.533z"/>
<path fill="#231F20" d="M485.875,28.283h-5c-0.483,0-0.875-0.392-0.875-0.875v-5c0-0.483,0.392-0.875,0.875-0.875h5
	c0.483,0,0.875,0.392,0.875,0.875v5C486.75,27.891,486.358,28.283,485.875,28.283z M481.75,26.533H485v-3.25h-3.25V26.533z"/>
<path fill="#231F20" d="M495.875,28.283h-5c-0.483,0-0.875-0.392-0.875-0.875v-5c0-0.483,0.392-0.875,0.875-0.875h5
	c0.483,0,0.875,0.392,0.875,0.875v5C496.75,27.891,496.358,28.283,495.875,28.283z M491.75,26.533H495v-3.25h-3.25V26.533z"/>
<path fill="#231F20" d="M505.875,28.283h-5c-0.483,0-0.875-0.392-0.875-0.875v-5c0-0.483,0.392-0.875,0.875-0.875h5
	c0.483,0,0.875,0.392,0.875,0.875v5C506.75,27.891,506.358,28.283,505.875,28.283z M501.75,26.533H505v-3.25h-3.25V26.533z"/>
<g>
	<g>
		<g>
			<path fill="#231F20" d="M515.199,5.732c0,0.55-0.45,1-1,1H511c-0.55,0-1-0.45-1-1v-3.2c0-0.55,0.45-1,1-1h3.199
				c0.55,0,1,0.45,1,1V5.732z"/>
		</g>
		<g>
			<path fill="#231F20" d="M525.6,5.732c0,0.55-0.45,1-1,1H521.4c-0.55,0-1-0.45-1-1v-3.2c0-0.55,0.45-1,1-1h3.199
				c0.55,0,1,0.45,1,1V5.732z"/>
		</g>
		<g>
			<path fill="#231F20" d="M536,5.732c0,0.55-0.45,1-1,1h-3.2c-0.55,0-1-0.45-1-1v-3.2c0-0.55,0.45-1,1-1h3.2c0.55,0,1,0.45,1,1
				V5.732z"/>
		</g>
		<g>
			<path fill="#231F20" d="M515.199,16.132c0,0.55-0.45,1-1,1H511c-0.55,0-1-0.45-1-1v-3.2c0-0.55,0.45-1,1-1h3.199
				c0.55,0,1,0.45,1,1V16.132z"/>
		</g>
		<g>
			<path fill="#231F20" d="M525.6,16.132c0,0.55-0.45,1-1,1H521.4c-0.55,0-1-0.45-1-1v-3.2c0-0.55,0.45-1,1-1h3.199
				c0.55,0,1,0.45,1,1V16.132z"/>
		</g>
		<g>
			<path fill="#231F20" d="M536,16.132c0,0.55-0.45,1-1,1h-3.2c-0.55,0-1-0.45-1-1v-3.2c0-0.55,0.45-1,1-1h3.2c0.55,0,1,0.45,1,1
				V16.132z"/>
		</g>
		<g>
			<path fill="#231F20" d="M515.199,26.532c0,0.55-0.45,1-1,1H511c-0.55,0-1-0.45-1-1v-3.2c0-0.55,0.45-1,1-1h3.199
				c0.55,0,1,0.45,1,1V26.532z"/>
		</g>
		<g>
			<path fill="#231F20" d="M525.6,26.532c0,0.55-0.45,1-1,1H521.4c-0.55,0-1-0.45-1-1v-3.2c0-0.55,0.45-1,1-1h3.199
				c0.55,0,1,0.45,1,1V26.532z"/>
		</g>
		<g>
			<path fill="#231F20" d="M536,26.532c0,0.55-0.45,1-1,1h-3.2c-0.55,0-1-0.45-1-1v-3.2c0-0.55,0.45-1,1-1h3.2c0.55,0,1,0.45,1,1
				V26.532z"/>
		</g>
	</g>
</g>
<path fill="#231F20" d="M563.875,14.783c-0.482,0-0.875-0.392-0.875-0.875v-1c0-5.307-4.317-9.625-9.625-9.625
	c-5.307,0-9.625,4.318-9.625,9.625v1c0,0.483-0.391,0.875-0.875,0.875c-0.482,0-0.875-0.392-0.875-0.875v-1
	c0-6.272,5.104-11.375,11.375-11.375c6.272,0,11.375,5.103,11.375,11.375v1C564.75,14.391,564.359,14.783,563.875,14.783z"/>
<path fill="#231F20" d="M563.875,27.783c-1.585,0-2.875-1.29-2.875-2.875v-6c0-1.585,1.29-2.875,2.875-2.875
	c1.586,0,2.875,1.29,2.875,2.875v6C566.75,26.493,565.461,27.783,563.875,27.783z M563.875,17.783c-0.619,0-1.125,0.505-1.125,1.125
	v6c0,0.62,0.506,1.125,1.125,1.125c0.621,0,1.125-0.505,1.125-1.125v-6C565,18.288,564.496,17.783,563.875,17.783z"/>
<path fill="#231F20" d="M542.875,27.783c-1.585,0-2.875-1.29-2.875-2.875v-6c0-1.585,1.29-2.875,2.875-2.875
	c1.586,0,2.875,1.29,2.875,2.875v6C545.75,26.493,544.461,27.783,542.875,27.783z M542.875,17.783c-0.619,0-1.125,0.505-1.125,1.125
	v6c0,0.62,0.506,1.125,1.125,1.125c0.621,0,1.125-0.505,1.125-1.125v-6C544,18.288,543.496,17.783,542.875,17.783z"/>
<path fill="#231F20" d="M587.202,1.642l-6.8-0.001c-1.586,0-2.876,1.29-2.876,2.874l-0.001,0.802c0,1.585,1.29,2.875,2.875,2.875
	l5.238,0v16.341c0,0.276,0.224,0.5,0.5,0.5s0.5-0.224,0.5-0.5V8.192h0.563c1.585,0,2.875-1.29,2.875-2.875v-0.8
	C590.077,2.931,588.787,1.642,587.202,1.642z M588.327,5.317c0,0.62-0.505,1.125-1.125,1.125l-6.802,0
	c-0.62,0-1.125-0.505-1.125-1.124l0.001-0.802c0-0.62,0.505-1.125,1.126-1.125l6.8,0.001c0.62,0,1.125,0.505,1.125,1.125V5.317z"/>
<path fill="#231F20" d="M574.424,1.533c-0.619,0-1.814,0.355-2.719,0.808C570.766,2.812,570,3.966,570,4.915
	c0,0.949,0.766,2.103,1.705,2.574c0.904,0.453,2.1,0.808,2.717,0.808c0.846,0,1.302-1.474,1.302-2.862V4.395
	C575.724,3.008,575.268,1.533,574.424,1.533z"/>
<path fill="#231F20" d="M604.6,1.641l-6.801,0.001c-1.585,0-2.875,1.29-2.875,2.875v0.8c0,1.585,1.29,2.875,2.875,2.875h0.564
	v16.341c0,0.276,0.224,0.5,0.5,0.5s0.5-0.224,0.5-0.5V8.192l5.237,0c1.585,0,2.874-1.29,2.874-2.875V4.516
	C607.475,2.93,606.185,1.641,604.6,1.641z M605.725,5.316c0,0.62-0.504,1.125-1.124,1.125l-6.802,0c-0.62,0-1.125-0.505-1.125-1.125
	v-0.8c0-0.62,0.505-1.125,1.125-1.125l6.801-0.001c0.62,0,1.125,0.505,1.125,1.125V5.316z"/>
<path fill="#231F20" d="M613.295,2.341c-0.904-0.453-2.1-0.808-2.717-0.808c-0.846,0-1.301,1.476-1.301,2.862v1.041
	c0,1.388,0.457,2.862,1.301,2.862c0.619,0,1.814-0.355,2.718-0.808C614.236,7.018,615,5.864,615,4.915
	C615,3.966,614.236,2.812,613.295,2.341z"/>
<path fill="#231F20" d="M670.875,15.948c1.654,0,3-1.346,3-3s-1.346-3-3-3s-3,1.346-3,3S669.221,15.948,670.875,15.948z
	 M670.875,10.948c1.104,0,2,0.897,2,2s-0.896,2-2,2s-2-0.897-2-2S669.771,10.948,670.875,10.948z"/>
<path fill="#231F20" d="M703.725,11.645c-0.443-0.193-0.959,0.011-1.152,0.454c-1.133,2.609-2.52,4.089-4.122,4.397
	c-2.296,0.443-4.437-1.648-4.448-1.66C680.287,0.796,671.299,1.454,670.314,1.573C664.813,1.612,660,6.91,660,12.948v0.875h3.557
	c0.436,3.655,3.549,6.5,7.318,6.5c4.066,0,7.375-3.309,7.375-7.375s-3.309-7.375-7.375-7.375c-3.77,0-6.883,2.845-7.318,6.5h-1.762
	c0.432-4.296,3.959-8.75,8.58-8.75l0.132-0.01c0.085-0.013,8.733-1.083,22.25,12.753c0.101,0.102,2.277,2.242,5.04,2.242
	c0.316,0,0.641-0.028,0.972-0.091c2.209-0.419,4.028-2.244,5.409-5.421C704.371,12.353,704.168,11.838,703.725,11.645z
	 M670.875,7.323c3.102,0,5.625,2.523,5.625,5.625s-2.523,5.625-5.625,5.625s-5.625-2.523-5.625-5.625S667.773,7.323,670.875,7.323z"
	/>
<path fill="#231F20" d="M644.572,7.399l-6.061-4.986c-0.244-0.182-1.516-1.078-2.686-0.84c-1.897,0.384-2.418,2.232-2.429,3.166
	l0.001,3.251c0,0.078,0.025,0.147,0.044,0.219c-0.673,0.318-1.144,1.006-1.144,1.808v3.104c-1.361,0.711-2.299,2.12-2.299,3.762
	c0,2.359,1.912,4.272,4.273,4.272c2.358,0,4.271-1.913,4.271-4.272c0-1.643-0.937-3.052-2.299-3.763v-3.103
	c0-0.801-0.47-1.488-1.143-1.808c0.02-0.072,0.045-0.142,0.045-0.22l-0.001-3.242c0-0.013,0.025-1.258,1.026-1.46
	c0.251-0.049,0.895,0.236,1.258,0.502l6.008,4.943c0.059,0.052,1.419,1.284,1.419,3.452v4.926c0.002,0.788-0.213,3.203-1.253,3.982
	l-4.127,3.669c-0.342,0.252-1.724,1.419-1.617,3.773c0.021,0.469,0.408,0.835,0.873,0.835c0.014,0,0.027,0,0.041-0.001
	c0.482-0.021,0.855-0.431,0.834-0.914c-0.072-1.59,0.861-2.254,0.891-2.274c0.037-0.024,0.073-0.051,0.107-0.082l4.103-3.652
	c1.855-1.383,1.899-4.941,1.898-5.34v-4.924C646.608,9.193,644.671,7.484,644.572,7.399z M635.246,15.654c0,0.55-0.438,1-0.975,1
	c-0.535,0-0.973-0.45-0.973-1v-5.637c0-0.55,0.438-1,0.973-1c0.536,0,0.975,0.45,0.975,1V15.654z"/>
<g>
	<path fill="#F35429" d="M31,82.283c0.133,0,0.25,0.117,0.25,0.25v1c0,0.133-0.117,0.25-0.25,0.25H2c-0.133,0-0.25-0.117-0.25-0.25
		v-1c0-0.133,0.117-0.25,0.25-0.25H31 M31,80.533H2c-1.1,0-2,0.9-2,2v1c0,1.1,0.9,2,2,2h29c1.1,0,2-0.9,2-2v-1
		C33,81.433,32.1,80.533,31,80.533L31,80.533z"/>
</g>
<g>
	<path fill="#F35429" d="M29,63.283c0.133,0,0.25,0.117,0.25,0.25v14c0,0.133-0.117,0.25-0.25,0.25H4c-0.133,0-0.25-0.117-0.25-0.25
		v-14c0-0.133,0.117-0.25,0.25-0.25H29 M29,61.533H4c-1.1,0-2,0.9-2,2v14c0,1.1,0.9,2,2,2h25c1.1,0,2-0.9,2-2v-14
		C31,62.433,30.1,61.533,29,61.533L29,61.533z"/>
</g>
<path fill="#F35429" d="M103.875,82.283h-12c-1.034,0-1.875-0.841-1.875-1.875v-7c0-1.034,0.841-1.875,1.875-1.875
	c0.066,0,0.125-0.059,0.125-0.125v-3c0-0.066-0.059-0.125-0.125-0.125c-1.034,0-1.875-0.841-1.875-1.875v-3
	c0-1.034,0.841-1.875,1.875-1.875h9c0.777,0,1.776,0.414,2.326,0.963l1.586,1.586c0.549,0.549,0.963,1.549,0.963,2.326v14
	C105.75,81.441,104.909,82.283,103.875,82.283z M91.875,63.283c-0.066,0-0.125,0.059-0.125,0.125v3c0,0.066,0.059,0.125,0.125,0.125
	c1.034,0,1.875,0.841,1.875,1.875v3c0,1.034-0.841,1.875-1.875,1.875c-0.066,0-0.125,0.059-0.125,0.125v7
	c0,0.066,0.059,0.125,0.125,0.125h12c0.066,0,0.125-0.059,0.125-0.125v-14c0-0.316-0.228-0.865-0.451-1.088l-1.586-1.586
	c-0.223-0.223-0.772-0.451-1.088-0.451H91.875z"/>
<path fill="#F35429" d="M102.875,77.408c0,1.1-0.9,2-2,2h-6c-1.1,0-2-0.9-2-2v-2c0-1.1,0.9-2,2-2h6c1.1,0,2,0.9,2,2V77.408z"/>
<path fill="#F35429" d="M100.322,65.302c-0.246-0.492-0.648-0.492-0.895,0l-1.105,2.211c-0.246,0.492,0.003,0.895,0.553,0.895h2
	c0.55,0,0.799-0.402,0.553-0.895L100.322,65.302z"/>
<path fill="#F35429" d="M152,61.533h-30c-1.1,0-2,0.9-2,2v17c0,1.1,0.9,2,2,2h13v3.125h-7c-0.483,0-0.875,0.392-0.875,0.875
	s0.392,0.875,0.875,0.875h18c0.483,0,0.875-0.392,0.875-0.875s-0.392-0.875-0.875-0.875h-7v-3.125h13c1.1,0,2-0.9,2-2v-17
	C154,62.433,153.1,61.533,152,61.533z M152.25,80.533c0,0.133-0.117,0.25-0.25,0.25h-30c-0.133,0-0.25-0.117-0.25-0.25v-17
	c0-0.133,0.117-0.25,0.25-0.25h30c0.133,0,0.25,0.117,0.25,0.25V80.533z"/>
<path fill="#F35429" d="M215,61.533h-33c-1.1,0-2,0.9-2,2v12c0,1.1,0.9,2,2,2h1v1c0,0.55,0.45,1,1,1h1c0.55,0,1-0.45,1-1v-1h25v1
	c0,0.55,0.45,1,1,1h1c0.55,0,1-0.45,1-1v-1h1c1.1,0,2-0.9,2-2v-12C217,62.433,216.1,61.533,215,61.533z M215.25,75.533
	c0,0.133-0.117,0.25-0.25,0.25h-33c-0.133,0-0.25-0.117-0.25-0.25v-12c0-0.133,0.117-0.25,0.25-0.25h33
	c0.133,0,0.25,0.117,0.25,0.25V75.533z"/>
<path fill="#F35429" d="M208,64.659c-2.688,0-4.875,2.187-4.875,4.875s2.187,4.875,4.875,4.875s4.875-2.187,4.875-4.875
	S210.688,64.659,208,64.659z M208,72.659c-1.723,0-3.125-1.402-3.125-3.125s1.402-3.125,3.125-3.125s3.125,1.402,3.125,3.125
	S209.723,72.659,208,72.659z"/>
<path fill="#F35429" d="M192,66.033h-7c-0.276,0-0.5,0.224-0.5,0.5s0.224,0.5,0.5,0.5h7c0.276,0,0.5-0.224,0.5-0.5
	S192.276,66.033,192,66.033z"/>
<path fill="#F35429" d="M192,69.033h-7c-0.276,0-0.5,0.224-0.5,0.5s0.224,0.5,0.5,0.5h7c0.276,0,0.5-0.224,0.5-0.5
	S192.276,69.033,192,69.033z"/>
<path fill="#F35429" d="M192,72.033h-7c-0.276,0-0.5,0.224-0.5,0.5s0.224,0.5,0.5,0.5h7c0.276,0,0.5-0.224,0.5-0.5
	S192.276,72.033,192,72.033z"/>
<path fill="#F35429" d="M247.001,64.019l3.54,6.138c0.494,0.856,1.23,2.328,1.642,3.28c0.02,0.11,0.067,0.437,0.067,1.078
	c0,2.895-2.355,5.25-5.25,5.25s-5.25-2.355-5.25-5.25c0-0.64,0.047-0.967,0.067-1.077c0.413-0.953,1.148-2.425,1.642-3.281
	L247.001,64.019 M247,61.533c-0.362,0-0.725,0.238-0.999,0.714l-4.058,7.035c-0.549,0.953-1.351,2.561-1.781,3.573
	c0,0-0.163,0.383-0.163,1.659c0,3.866,3.135,7,7,7c3.866,0,7-3.134,7-7c0-1.276-0.162-1.659-0.162-1.659
	c-0.43-1.013-1.231-2.621-1.781-3.574L248,62.247C247.725,61.771,247.362,61.533,247,61.533L247,61.533z"/>
<path fill="#F35429" d="M280,75.533v-9c0-2.762-2.238-5-5-5s-5,2.238-5,5v9c0,2.467,1.792,4.505,4.143,4.914
	c-0.003,0.03-0.018,0.056-0.018,0.086v6c0,0.044,0.019,0.083,0.025,0.125H271c-0.483,0-0.875,0.392-0.875,0.875
	s0.392,0.875,0.875,0.875h8c0.483,0,0.875-0.392,0.875-0.875s-0.392-0.875-0.875-0.875h-3.15c0.006-0.042,0.025-0.081,0.025-0.125
	v-6c0-0.031-0.015-0.057-0.018-0.086C278.208,80.038,280,78,280,75.533z M278.25,75.533c0,1.792-1.458,3.25-3.25,3.25
	s-3.25-1.458-3.25-3.25v-9c0-1.792,1.458-3.25,3.25-3.25s3.25,1.458,3.25,3.25V75.533z"/>
<path fill="#F35429" d="M311.625,66.696v-2.288c0-0.483-0.392-0.875-0.875-0.875s-0.875,0.392-0.875,0.875v2.288
	c-1.062,0.18-1.875,1.1-1.875,2.212v7c0,1.112,0.813,2.032,1.875,2.212v5.288c0,1.723-1.402,3.125-3.125,3.125
	s-3.125-1.402-3.125-3.125V76.12c1.062-0.18,1.875-1.1,1.875-2.212v-7c0-1.112-0.813-2.032-1.875-2.212v-2.288
	c0-0.483-0.392-0.875-0.875-0.875s-0.875,0.392-0.875,0.875v2.288c-1.062,0.18-1.875,1.1-1.875,2.212v7
	c0,1.112,0.813,2.032,1.875,2.212v7.288c0,2.688,2.187,4.875,4.875,4.875s4.875-2.187,4.875-4.875V78.12
	c1.062-0.18,1.875-1.1,1.875-2.212v-7C313.5,67.795,312.687,66.875,311.625,66.696z M302.25,66.408h1c0.275,0,0.5,0.225,0.5,0.5v2.5
	h-2v-2.5C301.75,66.633,301.975,66.408,302.25,66.408z M311.75,75.908c0,0.275-0.225,0.5-0.5,0.5h-1c-0.275,0-0.5-0.225-0.5-0.5v-7
	c0-0.275,0.225-0.5,0.5-0.5h1c0.275,0,0.5,0.225,0.5,0.5V75.908z"/>
<g>
	<path fill="#F35429" d="M77,63.283c0.133,0,0.25,0.117,0.25,0.25v22c0,0.133-0.117,0.25-0.25,0.25H62
		c-0.133,0-0.25-0.117-0.25-0.25v-22c0-0.133,0.117-0.25,0.25-0.25H77 M77,61.533H62c-1.1,0-2,0.9-2,2v22c0,1.1,0.9,2,2,2h15
		c1.1,0,2-0.9,2-2v-22C79,62.433,78.1,61.533,77,61.533L77,61.533z"/>
</g>
<g>
	<path fill="#F35429" d="M75,65.533v16H64v-16H75 M76,64.533H63v18h13V64.533L76,64.533z"/>
</g>
<g>
	<path fill="#F35429" d="M343,63.283c6.203,0,11.25,5.047,11.25,11.25s-5.047,11.25-11.25,11.25s-11.25-5.047-11.25-11.25
		S336.797,63.283,343,63.283 M343,61.533c-7.18,0-13,5.82-13,13s5.82,13,13,13s13-5.82,13-13S350.18,61.533,343,61.533L343,61.533z"
		/>
</g>
<g>
	<path fill="#F35429" d="M343,70.533c2.206,0,4,1.794,4,4s-1.794,4-4,4s-4-1.794-4-4S340.794,70.533,343,70.533 M343,69.533
		c-2.762,0-5,2.239-5,5s2.238,5,5,5s5-2.239,5-5S345.762,69.533,343,69.533L343,69.533z"/>
</g>
<g>
	<path fill="#F35429" d="M343,73.033c0.827,0,1.5,0.673,1.5,1.5s-0.673,1.5-1.5,1.5s-1.5-0.673-1.5-1.5S342.173,73.033,343,73.033
		 M343,72.033c-1.381,0-2.5,1.119-2.5,2.5s1.119,2.5,2.5,2.5s2.5-1.119,2.5-2.5S344.381,72.033,343,72.033L343,72.033z"/>
</g>
<path fill="#F35429" d="M386.867,83.283h-12.084c-0.483,0-0.875-0.392-0.875-0.875v-11.5c0-0.483,0.392-0.875,0.875-0.875h16.334
	c0.483,0,0.875,0.392,0.875,0.875v7.25C391.992,80.984,389.693,83.283,386.867,83.283z M375.658,81.533h11.209
	c1.861,0,3.375-1.514,3.375-3.375v-6.375h-14.584V81.533z"/>
<path fill="#F35429" d="M391.504,61.533h-30.629c-0.483,0-0.875,0.392-0.875,0.875v9.272c0,0.483,0.392,0.875,0.875,0.875h3.762
	v3.671c0,3.891,3.165,7.057,7.056,7.057c0.483,0,0.875-0.392,0.875-0.875V68.691h18.937c1.974,0,3.58-1.605,3.58-3.579
	S393.478,61.533,391.504,61.533z M361.75,63.283h1.482v7.522h-1.482V63.283z M391.504,66.941h-19.812
	c-0.483,0-0.875,0.392-0.875,0.875V81.46c-2.511-0.418-4.431-2.606-4.431-5.234V71.68c0-0.483-0.392-0.875-0.875-0.875h-1.279
	v-7.522h27.271c1.009,0,1.83,0.821,1.83,1.83S392.513,66.941,391.504,66.941z"/>
<path fill="#F35429" d="M452.625,89.283h-19.75c-0.483,0-0.875-0.392-0.875-0.875v-16c0-0.483,0.392-0.875,0.875-0.875h24
	c0.483,0,0.875,0.392,0.875,0.875v11.75C457.75,86.984,455.451,89.283,452.625,89.283z M433.75,87.533h18.875
	c1.861,0,3.375-1.514,3.375-3.375V73.283h-22.25V87.533z"/>
<path fill="#F35429" d="M424.875,85.283h-4c-0.483,0-0.875-0.392-0.875-0.875v-10c0-0.483,0.392-0.875,0.875-0.875h4
	c0.292,0,0.566,0.146,0.728,0.39l1.074,1.611h3.198c0.483,0,0.875,0.392,0.875,0.875v6c0,0.483-0.392,0.875-0.875,0.875h-3.199
	l-1.073,1.61C425.441,85.137,425.167,85.283,424.875,85.283z M421.75,83.533h2.657l1.073-1.61c0.162-0.244,0.436-0.39,0.728-0.39
	H429v-4.25h-2.791c-0.292,0-0.566-0.146-0.728-0.39l-1.074-1.611h-2.657V83.533z"/>
<path fill="#F35429" d="M454.875,70.283h-4c-0.275,0-0.535-0.13-0.7-0.35l-2.737-3.65h-6.688v3.125c0,0.483-0.392,0.875-0.875,0.875
	h-3c-0.483,0-0.875-0.392-0.875-0.875v-7c0-0.483,0.392-0.875,0.875-0.875h13c0.282,0,0.548,0.136,0.712,0.366l5,7
	c0.19,0.267,0.216,0.618,0.066,0.909C455.503,70.1,455.203,70.283,454.875,70.283z M451.312,68.533h1.862l-3.75-5.25H437.75v5.25
	H439v-3.125c0-0.483,0.392-0.875,0.875-0.875h8c0.275,0,0.535,0.13,0.7,0.35L451.312,68.533z"/>
<path fill="#F35429" d="M485.875,68.283h-5c-0.483,0-0.875-0.392-0.875-0.875v-5c0-0.483,0.392-0.875,0.875-0.875h5
	c0.483,0,0.875,0.392,0.875,0.875v5C486.75,67.891,486.358,68.283,485.875,68.283z M481.75,66.533H485v-3.25h-3.25V66.533z"/>
<path fill="#F35429" d="M495.875,68.283h-5c-0.483,0-0.875-0.392-0.875-0.875v-5c0-0.483,0.392-0.875,0.875-0.875h5
	c0.483,0,0.875,0.392,0.875,0.875v5C496.75,67.891,496.358,68.283,495.875,68.283z M491.75,66.533H495v-3.25h-3.25V66.533z"/>
<path fill="#F35429" d="M505.875,68.283h-5c-0.483,0-0.875-0.392-0.875-0.875v-5c0-0.483,0.392-0.875,0.875-0.875h5
	c0.483,0,0.875,0.392,0.875,0.875v5C506.75,67.891,506.358,68.283,505.875,68.283z M501.75,66.533H505v-3.25h-3.25V66.533z"/>
<path fill="#F35429" d="M485.875,78.283h-5c-0.483,0-0.875-0.392-0.875-0.875v-5c0-0.483,0.392-0.875,0.875-0.875h5
	c0.483,0,0.875,0.392,0.875,0.875v5C486.75,77.891,486.358,78.283,485.875,78.283z M481.75,76.533H485v-3.25h-3.25V76.533z"/>
<path fill="#F35429" d="M495.875,78.283h-5c-0.483,0-0.875-0.392-0.875-0.875v-5c0-0.483,0.392-0.875,0.875-0.875h5
	c0.483,0,0.875,0.392,0.875,0.875v5C496.75,77.891,496.358,78.283,495.875,78.283z M491.75,76.533H495v-3.25h-3.25V76.533z"/>
<path fill="#F35429" d="M505.875,78.283h-5c-0.483,0-0.875-0.392-0.875-0.875v-5c0-0.483,0.392-0.875,0.875-0.875h5
	c0.483,0,0.875,0.392,0.875,0.875v5C506.75,77.891,506.358,78.283,505.875,78.283z M501.75,76.533H505v-3.25h-3.25V76.533z"/>
<path fill="#F35429" d="M485.875,88.283h-5c-0.483,0-0.875-0.392-0.875-0.875v-5c0-0.483,0.392-0.875,0.875-0.875h5
	c0.483,0,0.875,0.392,0.875,0.875v5C486.75,87.891,486.358,88.283,485.875,88.283z M481.75,86.533H485v-3.25h-3.25V86.533z"/>
<path fill="#F35429" d="M495.875,88.283h-5c-0.483,0-0.875-0.392-0.875-0.875v-5c0-0.483,0.392-0.875,0.875-0.875h5
	c0.483,0,0.875,0.392,0.875,0.875v5C496.75,87.891,496.358,88.283,495.875,88.283z M491.75,86.533H495v-3.25h-3.25V86.533z"/>
<path fill="#F35429" d="M505.875,88.283h-5c-0.483,0-0.875-0.392-0.875-0.875v-5c0-0.483,0.392-0.875,0.875-0.875h5
	c0.483,0,0.875,0.392,0.875,0.875v5C506.75,87.891,506.358,88.283,505.875,88.283z M501.75,86.533H505v-3.25h-3.25V86.533z"/>
<g>
	<g>
		<g>
			<path fill="#F35429" d="M515.199,65.732c0,0.55-0.45,1-1,1H511c-0.55,0-1-0.45-1-1v-3.2c0-0.55,0.45-1,1-1h3.199
				c0.55,0,1,0.45,1,1V65.732z"/>
		</g>
		<g>
			<path fill="#F35429" d="M525.6,65.732c0,0.55-0.45,1-1,1H521.4c-0.55,0-1-0.45-1-1v-3.2c0-0.55,0.45-1,1-1h3.199
				c0.55,0,1,0.45,1,1V65.732z"/>
		</g>
		<g>
			<path fill="#F35429" d="M536,65.732c0,0.55-0.45,1-1,1h-3.2c-0.55,0-1-0.45-1-1v-3.2c0-0.55,0.45-1,1-1h3.2c0.55,0,1,0.45,1,1
				V65.732z"/>
		</g>
		<g>
			<path fill="#F35429" d="M515.199,76.132c0,0.55-0.45,1-1,1H511c-0.55,0-1-0.45-1-1v-3.2c0-0.55,0.45-1,1-1h3.199
				c0.55,0,1,0.45,1,1V76.132z"/>
		</g>
		<g>
			<path fill="#F35429" d="M525.6,76.132c0,0.55-0.45,1-1,1H521.4c-0.55,0-1-0.45-1-1v-3.2c0-0.55,0.45-1,1-1h3.199
				c0.55,0,1,0.45,1,1V76.132z"/>
		</g>
		<g>
			<path fill="#F35429" d="M536,76.132c0,0.55-0.45,1-1,1h-3.2c-0.55,0-1-0.45-1-1v-3.2c0-0.55,0.45-1,1-1h3.2c0.55,0,1,0.45,1,1
				V76.132z"/>
		</g>
		<g>
			<path fill="#F35429" d="M515.199,86.532c0,0.55-0.45,1-1,1H511c-0.55,0-1-0.45-1-1v-3.2c0-0.55,0.45-1,1-1h3.199
				c0.55,0,1,0.45,1,1V86.532z"/>
		</g>
		<g>
			<path fill="#F35429" d="M525.6,86.532c0,0.55-0.45,1-1,1H521.4c-0.55,0-1-0.45-1-1v-3.2c0-0.55,0.45-1,1-1h3.199
				c0.55,0,1,0.45,1,1V86.532z"/>
		</g>
		<g>
			<path fill="#F35429" d="M536,86.532c0,0.55-0.45,1-1,1h-3.2c-0.55,0-1-0.45-1-1v-3.2c0-0.55,0.45-1,1-1h3.2c0.55,0,1,0.45,1,1
				V86.532z"/>
		</g>
	</g>
</g>
<path fill="#F35429" d="M563.875,74.783c-0.482,0-0.875-0.392-0.875-0.875v-1c0-5.307-4.317-9.625-9.625-9.625
	c-5.307,0-9.625,4.318-9.625,9.625v1c0,0.483-0.391,0.875-0.875,0.875c-0.482,0-0.875-0.392-0.875-0.875v-1
	c0-6.272,5.104-11.375,11.375-11.375c6.272,0,11.375,5.103,11.375,11.375v1C564.75,74.391,564.359,74.783,563.875,74.783z"/>
<path fill="#F35429" d="M563.875,87.783c-1.585,0-2.875-1.29-2.875-2.875v-6c0-1.585,1.29-2.875,2.875-2.875
	c1.586,0,2.875,1.29,2.875,2.875v6C566.75,86.493,565.461,87.783,563.875,87.783z M563.875,77.783c-0.619,0-1.125,0.505-1.125,1.125
	v6c0,0.62,0.506,1.125,1.125,1.125c0.621,0,1.125-0.505,1.125-1.125v-6C565,78.288,564.496,77.783,563.875,77.783z"/>
<path fill="#F35429" d="M542.875,87.783c-1.585,0-2.875-1.29-2.875-2.875v-6c0-1.585,1.29-2.875,2.875-2.875
	c1.586,0,2.875,1.29,2.875,2.875v6C545.75,86.493,544.461,87.783,542.875,87.783z M542.875,77.783c-0.619,0-1.125,0.505-1.125,1.125
	v6c0,0.62,0.506,1.125,1.125,1.125c0.621,0,1.125-0.505,1.125-1.125v-6C544,78.288,543.496,77.783,542.875,77.783z"/>
<path fill="#F35429" d="M587.202,61.642l-6.8-0.001c-1.586,0-2.876,1.29-2.876,2.874l-0.001,0.802c0,1.585,1.29,2.875,2.875,2.875
	l5.238,0v16.341c0,0.276,0.224,0.5,0.5,0.5s0.5-0.224,0.5-0.5V68.192h0.563c1.585,0,2.875-1.29,2.875-2.875v-0.8
	C590.077,62.931,588.787,61.642,587.202,61.642z M588.327,65.317c0,0.62-0.505,1.125-1.125,1.125l-6.802,0
	c-0.62,0-1.125-0.505-1.125-1.124l0.001-0.802c0-0.62,0.505-1.125,1.126-1.125l6.8,0.001c0.62,0,1.125,0.505,1.125,1.125V65.317z"/>
<path fill="#F35429" d="M574.424,61.533c-0.619,0-1.814,0.355-2.719,0.808c-0.939,0.471-1.705,1.625-1.705,2.574
	c0,0.949,0.766,2.103,1.705,2.574c0.904,0.453,2.1,0.808,2.717,0.808c0.846,0,1.302-1.474,1.302-2.862v-1.041
	C575.724,63.008,575.268,61.533,574.424,61.533z"/>
<path fill="#F35429" d="M604.6,61.641l-6.801,0.001c-1.585,0-2.875,1.29-2.875,2.875v0.8c0,1.585,1.29,2.875,2.875,2.875h0.564
	v16.341c0,0.276,0.224,0.5,0.5,0.5s0.5-0.224,0.5-0.5V68.192l5.237,0c1.585,0,2.874-1.29,2.874-2.875v-0.801
	C607.475,62.93,606.185,61.641,604.6,61.641z M605.725,65.316c0,0.62-0.504,1.125-1.124,1.125l-6.802,0
	c-0.62,0-1.125-0.505-1.125-1.125v-0.8c0-0.62,0.505-1.125,1.125-1.125l6.801-0.001c0.62,0,1.125,0.505,1.125,1.125V65.316z"/>
<path fill="#F35429" d="M613.295,62.341c-0.904-0.453-2.1-0.808-2.717-0.808c-0.846,0-1.301,1.476-1.301,2.862v1.041
	c0,1.388,0.457,2.862,1.301,2.862c0.619,0,1.814-0.355,2.718-0.808c0.94-0.471,1.704-1.625,1.704-2.574
	C615,63.966,614.236,62.812,613.295,62.341z"/>
<path fill="#F35429" d="M670.875,75.948c1.654,0,3-1.346,3-3s-1.346-3-3-3s-3,1.346-3,3S669.221,75.948,670.875,75.948z
	 M670.875,70.948c1.104,0,2,0.897,2,2s-0.896,2-2,2s-2-0.897-2-2S669.771,70.948,670.875,70.948z"/>
<path fill="#F35429" d="M703.725,71.645c-0.443-0.193-0.959,0.011-1.152,0.454c-1.133,2.609-2.52,4.089-4.122,4.397
	c-2.296,0.443-4.437-1.648-4.448-1.66c-13.715-14.041-22.703-13.382-23.688-13.264C664.813,61.612,660,66.91,660,72.948v0.875h3.557
	c0.436,3.655,3.549,6.5,7.318,6.5c4.066,0,7.375-3.309,7.375-7.375s-3.309-7.375-7.375-7.375c-3.77,0-6.883,2.845-7.318,6.5h-1.762
	c0.432-4.296,3.959-8.75,8.58-8.75l0.132-0.01c0.085-0.013,8.733-1.083,22.25,12.753c0.101,0.102,2.277,2.242,5.04,2.242
	c0.316,0,0.641-0.028,0.972-0.091c2.209-0.419,4.028-2.244,5.409-5.421C704.371,72.353,704.168,71.838,703.725,71.645z
	 M670.875,67.323c3.102,0,5.625,2.523,5.625,5.625s-2.523,5.625-5.625,5.625s-5.625-2.523-5.625-5.625
	S667.773,67.323,670.875,67.323z"/>
<path fill="#F35429" d="M644.572,67.399l-6.061-4.986c-0.244-0.182-1.516-1.078-2.686-0.84c-1.897,0.384-2.418,2.232-2.429,3.166
	l0.001,3.251c0,0.078,0.025,0.147,0.044,0.219c-0.673,0.318-1.144,1.006-1.144,1.808v3.104c-1.361,0.711-2.299,2.12-2.299,3.762
	c0,2.359,1.912,4.272,4.273,4.272c2.358,0,4.271-1.913,4.271-4.272c0-1.643-0.937-3.052-2.299-3.763v-3.103
	c0-0.801-0.47-1.488-1.143-1.808c0.02-0.072,0.045-0.142,0.045-0.22l-0.001-3.242c0-0.013,0.025-1.258,1.026-1.46
	c0.251-0.049,0.895,0.236,1.258,0.502l6.008,4.943c0.059,0.052,1.419,1.284,1.419,3.452v4.926c0.002,0.788-0.213,3.203-1.253,3.982
	l-4.127,3.669c-0.342,0.252-1.724,1.419-1.617,3.773c0.021,0.469,0.408,0.835,0.873,0.835c0.014,0,0.027,0,0.041-0.001
	c0.482-0.021,0.855-0.431,0.834-0.914c-0.072-1.59,0.861-2.254,0.891-2.274c0.037-0.024,0.073-0.051,0.107-0.082l4.103-3.652
	c1.855-1.383,1.899-4.941,1.898-5.34v-4.924C646.608,69.193,644.671,67.484,644.572,67.399z M635.246,75.654c0,0.55-0.438,1-0.975,1
	c-0.535,0-0.973-0.45-0.973-1v-5.637c0-0.55,0.438-1,0.973-1c0.536,0,0.975,0.45,0.975,1V75.654z"/>
<path fill="#BCBCCC" d="M732.573,6.079l-1.936-0.077l-2.465-0.097l-0.188-0.495v0l-0.691-1.836l-0.691-1.836
	c-0.104-0.272-0.27-0.272-0.373,0l-0.691,1.836l-0.691,1.836v0l-0.188,0.495l-2.465,0.097l-1.936,0.077
	c-0.291,0.012-0.344,0.171-0.121,0.355c0,0,0,0.001,0.001,0.001l1.513,1.237l1.514,1.239l0.408,0.334l-0.139,0.51l-0.506,1.847
	l-0.506,1.846v0.001c-0.076,0.28,0.062,0.38,0.307,0.224l1.619-1.038l2.067-1.325l2.066,1.325l1.62,1.038
	c0.244,0.157,0.382,0.056,0.307-0.224V13.45l-0.506-1.846l-0.506-1.847l-0.14-0.51l0.409-0.334l1.514-1.239l1.512-1.237
	c0.001,0,0.001-0.001,0.002-0.001C732.917,6.25,732.864,6.091,732.573,6.079z"/>
<path fill="#F35429" d="M732.573,66.079l-1.936-0.077l-2.465-0.097l-0.188-0.496v0l-0.691-1.836l-0.691-1.836
	c-0.104-0.271-0.27-0.271-0.373,0l-0.691,1.836l-0.691,1.836v0l-0.188,0.496l-2.465,0.097l-1.936,0.077
	c-0.291,0.011-0.344,0.171-0.121,0.355c0,0,0,0.001,0.001,0.001l1.513,1.238l1.514,1.239l0.408,0.334l-0.139,0.51l-0.506,1.847
	l-0.506,1.846c0,0,0,0.001,0,0.001c-0.076,0.28,0.062,0.381,0.307,0.224l1.619-1.038l2.067-1.325l2.066,1.325l1.62,1.038
	c0.244,0.157,0.382,0.057,0.307-0.224c0,0,0-0.001,0-0.001l-0.506-1.846l-0.506-1.847l-0.14-0.51l0.409-0.334l1.514-1.239
	l1.512-1.238c0.001,0,0.001-0.001,0.001-0.001C732.917,66.25,732.864,66.09,732.573,66.079z"/>
<path fill="#BCBCCC" d="M402.573,186.079l-1.936-0.077l-2.465-0.097l-0.188-0.495v0l-0.691-1.836l-0.691-1.836
	c-0.104-0.272-0.27-0.272-0.373,0l-0.691,1.836l-0.691,1.836v0l-0.188,0.495l-2.465,0.097l-1.936,0.077
	c-0.291,0.012-0.344,0.171-0.121,0.355c0,0,0,0.001,0.001,0.001l1.513,1.237l1.514,1.239l0.408,0.334l-0.139,0.51l-0.506,1.847
	l-0.506,1.846v0.001c-0.076,0.28,0.062,0.38,0.307,0.224l1.619-1.038l2.067-1.325l2.066,1.325l1.62,1.038
	c0.244,0.157,0.382,0.056,0.307-0.224v-0.001l-0.506-1.846l-0.506-1.847l-0.14-0.51l0.409-0.334l1.514-1.239l1.512-1.237
	c0.001,0,0.001-0.001,0.002-0.001C402.917,186.25,402.864,186.091,402.573,186.079z"/>
<path fill="#F35429" d="M402.436,216.08l-1.936-0.076l-2.465-0.098l-0.188-0.496l0,0l-0.691-1.836l-0.691-1.837
	c-0.104-0.271-0.27-0.271-0.373,0l-0.691,1.837l-0.691,1.836l0,0l-0.188,0.496l-2.465,0.098l-1.936,0.076
	c-0.291,0.012-0.344,0.171-0.121,0.355c0,0,0,0,0.001,0.001l1.513,1.237l1.514,1.238l0.408,0.336l-0.139,0.51l-0.506,1.846
	l-0.506,1.848l0,0c-0.076,0.281,0.062,0.381,0.307,0.225l1.619-1.039l2.067-1.324l2.066,1.324l1.62,1.039
	c0.244,0.156,0.382,0.057,0.307-0.225l0,0l-0.506-1.848l-0.506-1.846l-0.14-0.51l0.409-0.336l1.514-1.238l1.512-1.237
	c0.001-0.001,0.001-0.001,0.001-0.001C402.779,216.25,402.727,216.091,402.436,216.08z"/>
<path fill="#FFFFFF" d="M5.527,326.044h0.79v0.83c0.311-0.666,0.962-0.965,1.653-0.965c1.37,0,2.022,0.963,2.158,1.207
	c0.11-0.246,0.663-1.207,2.08-1.207c1.828,0,2.508,1.377,2.508,2.771v3.695h-0.843v-3.529c0-0.461-0.037-0.967-0.308-1.359
	c-0.335-0.49-0.831-0.762-1.395-0.762c-0.537,0-1.073,0.283-1.374,0.721c-0.269,0.396-0.259,0.939-0.259,1.4v3.529H9.707v-3.617
	c0-0.48-0.027-0.844-0.3-1.268c-0.316-0.461-0.836-0.758-1.388-0.758c-0.529,0-1.045,0.225-1.361,0.672
	c-0.283,0.414-0.292,0.865-0.292,1.354v3.617H5.527V326.044z"/>
<path fill="#FFFFFF" d="M22.362,332.376h-0.805v-1.188c-0.476,0.893-1.42,1.344-2.396,1.344c-1.58,0-3.336-1.117-3.336-3.357
	c0-2.08,1.684-3.266,3.315-3.266c0.973,0,1.957,0.438,2.417,1.336v-1.201h0.805V332.376z M16.664,329.244
	c0,1.393,1.176,2.469,2.497,2.469c1.292,0,2.396-1.133,2.396-2.461c0-1.398-1.043-2.525-2.417-2.525
	C17.781,326.726,16.664,327.705,16.664,329.244z"/>
<path fill="#FFFFFF" d="M24.029,323.826h0.84v6.006l2.846-3.787h1.063l-2.39,3.178l2.557,3.154h-1.081l-2.011-2.494l-0.984,1.295
	v1.199h-0.84V323.826z"/>
<path fill="#FFFFFF" d="M29.981,329.523c0.052,1.197,1.191,2.189,2.342,2.189c0.909,0,1.835-0.523,2.206-1.387h0.872
	c-0.432,1.271-1.695,2.207-3.007,2.207c-1.806,0-3.242-1.461-3.242-3.311c0-1.848,1.425-3.312,3.223-3.312
	c0.97,0,1.865,0.451,2.489,1.225c0.571,0.732,0.7,1.473,0.72,2.389H29.981z M34.742,328.744c-0.213-1.119-1.212-2.018-2.356-2.018
	c-1.172,0-2.198,0.846-2.404,2.018H34.742z"/>
<path fill="#FFFFFF" d="M42.021,323.826h0.835v3.346c0.436-0.787,1.424-1.262,2.338-1.262c1.84,0,3.35,1.371,3.35,3.279
	c0,2.137-1.738,3.344-3.267,3.344c-0.893,0-1.981-0.418-2.468-1.246v1.09h-0.788V323.826z M43.453,327.492
	c-0.487,0.506-0.66,1.08-0.66,1.771c0,1.416,1.126,2.449,2.484,2.449c1.343,0,2.434-1.133,2.434-2.5
	c0-1.439-1.113-2.486-2.492-2.486C44.552,326.726,43.919,327.009,43.453,327.492z"/>
<path fill="#FFFFFF" d="M50.361,329.523c0.044,1.197,1.189,2.189,2.339,2.189c0.912,0,1.836-0.523,2.216-1.387h0.871
	c-0.429,1.271-1.702,2.207-3.009,2.207c-1.815,0-3.246-1.461-3.246-3.311c0-1.848,1.422-3.312,3.214-3.312
	c0.985,0,1.868,0.451,2.497,1.225c0.574,0.732,0.699,1.473,0.727,2.389H50.361z M55.126,328.744
	c-0.21-1.119-1.218-2.018-2.362-2.018c-1.164,0-2.194,0.846-2.402,2.018H55.126z"/>
<path fill="#FFFFFF" d="M57.355,323.826h0.831v8.551h-0.831V323.826z"/>
<path fill="#FFFFFF" d="M59.788,323.826h0.834v1.457h-0.834V323.826z M59.788,326.044h0.834v6.332h-0.834V326.044z"/>
<path fill="#FFFFFF" d="M62.845,329.523c0.046,1.197,1.186,2.189,2.333,2.189c0.916,0,1.84-0.523,2.215-1.387h0.871
	c-0.431,1.271-1.693,2.207-3.007,2.207c-1.812,0-3.247-1.461-3.247-3.311c0-1.848,1.421-3.312,3.226-3.312
	c0.972,0,1.866,0.451,2.488,1.225c0.57,0.732,0.698,1.473,0.718,2.389H62.845z M67.604,328.744
	c-0.212-1.119-1.219-2.018-2.363-2.018c-1.162,0-2.194,0.846-2.396,2.018H67.604z"/>
<path fill="#FFFFFF" d="M68.698,326.044h0.906l2.136,5.242l2.142-5.242h0.905l-2.617,6.332h-0.869L68.698,326.044z"/>
<path fill="#FFFFFF" d="M75.879,329.523c0.049,1.197,1.194,2.189,2.331,2.189c0.912,0,1.849-0.523,2.214-1.387h0.872
	c-0.434,1.271-1.694,2.207-3.007,2.207c-1.809,0-3.244-1.461-3.244-3.311c0-1.848,1.423-3.312,3.22-3.312
	c0.974,0,1.873,0.451,2.488,1.225c0.584,0.732,0.71,1.473,0.726,2.389H75.879z M80.637,328.744
	c-0.213-1.119-1.214-2.018-2.358-2.018c-1.167,0-2.196,0.846-2.399,2.018H80.637z"/>
<path fill="#FFFFFF" d="M39.756,331.232c0,0.682-0.53,1.238-1.197,1.238c-0.661,0-1.201-0.557-1.201-1.238
	c0-0.676,0.54-1.232,1.201-1.232C39.226,330,39.756,330.556,39.756,331.232z"/>
<path fill="#FFFFFF" d="M31.821,317.582c-3.219,0-6.205-0.992-8.212-2.834c-1.501-1.383-2.235-3.27-2.235-5.201
	c0-1.91,0.764-3.818,2.235-5.199c1.858-1.727,5.137-2.814,8.212-2.814c3.426,0,6.15,0.887,8.232,2.824
	c1.486,1.385,2.205,3.27,2.205,5.189c0,1.857-0.76,3.838-2.205,5.201C38.12,316.605,35.06,317.582,31.821,317.582v-2.115
	c1.723,0,3.305-0.613,4.409-1.736c1.104-1.129,1.616-2.496,1.616-4.184c0-1.625-0.553-3.123-1.616-4.193
	c-1.089-1.1-2.718-1.73-4.409-1.73c-1.692,0-3.313,0.621-4.415,1.73c-1.048,1.07-1.604,2.58-1.604,4.193
	c0,1.604,0.562,3.109,1.604,4.184c1.102,1.117,2.723,1.736,4.415,1.736V317.582z M8.265,301.537c-1.724,0-3.688,0.344-5.341,1.098
	c-1.542,0.705-2.809,1.838-2.809,3.729c0,1.688,1.053,2.68,1.021,2.65c0.453,0.426,1.176,1.146,3.06,1.562
	c0.84,0.188,2.637,0.473,4.436,0.678c1.775,0.189,3.532,0.371,4.247,0.555c0.567,0.148,1.513,0.352,1.513,1.439
	c0,1.096-1.001,1.424-1.179,1.494c-0.178,0.074-1.375,0.637-3.542,0.637c-1.597,0-3.514-0.49-4.215-0.74
	c-0.802-0.295-1.645-0.691-2.437-1.68c-0.195-0.244-0.495-0.918-0.495-1.582H0.552v5.611h2.177c0,0,0-0.607,0-0.756
	c0-0.076,0.114-0.441,0.47-0.266c0.452,0.215,1.787,0.75,3.19,1.049c1.137,0.244,1.876,0.416,3.293,0.416
	c2.322,0,3.568-0.383,4.425-0.635c0.826-0.242,1.829-0.672,2.634-1.33c0.441-0.354,1.4-1.281,1.4-2.949
	c0-1.611-0.831-2.611-1.136-2.91c-0.402-0.414-0.889-0.732-1.405-0.979c-0.452-0.213-1.157-0.477-1.731-0.615
	c-1.126-0.291-3.66-0.637-4.864-0.762c-1.271-0.143-3.483-0.326-4.355-0.607c-0.271-0.08-0.819-0.354-0.819-0.996
	c0-0.457,0.259-0.85,0.747-1.172c0.776-0.498,2.364-0.805,3.999-0.805c1.952-0.004,3.594,0.439,4.637,0.922
	c0.359,0.178,0.772,0.4,1.108,0.678c0.374,0.311,0.892,0.957,1.084,1.859h1.76v-4.883h-1.959v0.566c0,0.186-0.185,0.42-0.54,0.23
	C13.789,302.566,11.311,301.55,8.265,301.537z M44.405,302.441v1.777h1.52c1.101,0,1.182,0.631,1.182,1.172v8.34
	c0,0.506,0.029,1.182-0.676,1.182c-1.102,0-1.888,0-1.888,0v1.783h8.042v-1.783c0,0-0.857,0-1.959,0
	c-0.779,0-0.824-0.359-0.836-1.146v-7.139l11.023,10.068h2.801l-0.146-11.371c0.02-0.826,0.062-1.109,0.897-1.109
	c1.11,0,1.76,0,1.76,0v-1.773h-8.187v1.773c0,0,0.7,0,1.803,0c0.819,0,0.967,0.332,0.972,1.109l0.1,5.949l-9.566-8.832H44.405z
	 M73.771,314.912v1.783h9.543v-1.787c0,0-1.453,0-1.807,0l-0.473-0.029c-0.19-0.051-0.322-0.188-0.373-0.332l-0.039-0.391
	c0-0.262,0-2.703,0-2.814l0.072-0.268c0.129-0.154,5.065-5.928,5.292-6.178c0.477-0.562,0.735-0.682,1.373-0.682
	c0.593,0,1.756,0,1.756,0v-1.773h-7.863v1.773c0,0,0.964,0,1.178,0c0.351,0,0.445,0.361,0.298,0.557l-3.343,3.996l-0.097-0.01
	l-3.255-3.986c-0.233-0.299-0.041-0.557,0.212-0.557c0.236,0,1.159,0,1.159,0v-1.773h-9.597v1.773c0,0,1.108,0,1.71,0
	c0.742,0,1.224,0.48,1.504,0.795c0.224,0.248,5.11,5.922,5.224,6.082c0.124,0.156,0.124,0.182,0.124,0.25v2.814l-0.032,0.391
	c-0.073,0.145-0.191,0.281-0.377,0.332l-0.48,0.033H73.771z"/>
<path fill="#726E7A" d="M14.243,185.1c0-1.969-1.667-3.566-3.723-3.567c-1.474,0-2.794,1.398-3.398,2.588l-0.001,0
	c-0.604-1.189-1.924-2.588-3.397-2.588C1.667,181.533,0,183.13,0,185.1c0,1.123,1.021,2.289,1.021,2.289l3.729,4.199l-0.007,0.001
	l2.375,2.834v0h0l0.001,0.001v-0.002l2.376-2.834l-0.007-0.001l3.731-4.198C13.221,187.389,14.243,186.223,14.243,185.1z"/>
<path fill="#FFFFFF" d="M14.243,215.099c0-1.969-1.667-3.566-3.723-3.566c-1.474,0-2.794,1.398-3.398,2.588H7.121
	c-0.604-1.189-1.924-2.588-3.397-2.588c-2.057,0-3.724,1.598-3.724,3.566c0,1.123,1.021,2.289,1.021,2.289l3.729,4.199H4.744
	l2.375,2.834v0.002h0h0.001v-0.002l2.376-2.834H9.49l3.731-4.199C13.221,217.388,14.243,216.222,14.243,215.099z"/>
<g>
	<g>
		<path fill="#726E7A" d="M30.25,181.533c-0.138,0-0.25,0.112-0.25,0.25v1.375c0,0.138,0.112,0.25,0.25,0.251l1.564,0.008
			c0.138,0,0.285,0.108,0.328,0.239l2.28,6.981c0.042,0.131,0.19,0.238,0.328,0.238h9c0.138,0,0.292-0.104,0.343-0.232l2.813-7.003
			c0.051-0.127-0.019-0.232-0.157-0.232H34.138c-0.138,0-0.27-0.111-0.293-0.246l-0.242-1.374c-0.024-0.135-0.156-0.247-0.293-0.247
			L30.25,181.533z M43.057,188.77c-0.042,0.131-0.188,0.238-0.326,0.238h-6.438c-0.138,0-0.277-0.109-0.31-0.243l-0.8-3.248
			c-0.033-0.133,0.053-0.243,0.19-0.243h8.541c0.138,0,0.216,0.107,0.174,0.238L43.057,188.77z"/>
	</g>
</g>
<g>
	<ellipse fill="#726E7A" cx="41.524" cy="194.128" rx="1.483" ry="1.393"/>
</g>
<g>
	<ellipse fill="#726E7A" cx="36.483" cy="194.128" rx="1.483" ry="1.393"/>
</g>
<g>
	<g>
		<path fill="#FFFFFF" d="M30.25,211.534c-0.138,0-0.25,0.112-0.25,0.249v1.375c0,0.139,0.112,0.251,0.25,0.252l1.564,0.008
			c0.138,0,0.285,0.107,0.328,0.238l2.28,6.982c0.042,0.129,0.19,0.236,0.328,0.236h9c0.138,0,0.292-0.104,0.343-0.232l2.813-7.002
			c0.051-0.127-0.019-0.232-0.157-0.232H34.138c-0.138,0-0.27-0.11-0.293-0.246l-0.242-1.373c-0.024-0.136-0.156-0.247-0.293-0.247
			L30.25,211.534z M43.057,218.771c-0.042,0.131-0.188,0.238-0.326,0.238h-6.438c-0.138,0-0.277-0.109-0.31-0.244l-0.8-3.247
			c-0.033-0.134,0.053-0.243,0.19-0.243h8.541c0.138,0,0.216,0.107,0.174,0.238L43.057,218.771z"/>
	</g>
</g>
<g>
	<ellipse fill="#FFFFFF" cx="41.524" cy="224.128" rx="1.483" ry="1.393"/>
</g>
<g>
	<ellipse fill="#FFFFFF" cx="36.483" cy="224.128" rx="1.483" ry="1.393"/>
</g>
<polygon fill="#FFFFFF" points="459,184.533 456,184.533 456,181.533 453,181.533 453,184.533 450,184.533 450,187.533 453,187.533 
	453,190.533 456,190.533 456,187.533 459,187.533 "/>
<rect x="360" y="181.533" fill="#FFFFFF" width="4" height="4"/>
<rect x="366" y="181.533" fill="#FFFFFF" width="4" height="4"/>
<rect x="372" y="181.533" fill="#FFFFFF" width="4" height="4"/>
<rect x="360" y="193.533" fill="#FFFFFF" width="4" height="4"/>
<rect x="366" y="193.533" fill="#FFFFFF" width="4" height="4"/>
<rect x="372" y="193.533" fill="#FFFFFF" width="4" height="4"/>
<rect x="360" y="187.533" fill="#FFFFFF" width="4" height="4"/>
<rect x="366" y="187.533" fill="#FFFFFF" width="4" height="4"/>
<rect x="372" y="187.533" fill="#FFFFFF" width="4" height="4"/>
<path fill="#FFFFFF" d="M68.125,181.533c-3.09,0-5.604,2.334-5.604,5.204c0,1.124,0.39,2.165,1.046,3.017l-3.297,3.061
	c-0.36,0.336-0.36,0.883,0,1.217c0.36,0.336,0.95,0.336,1.311,0l3.296-3.061c0.918,0.608,2.037,0.971,3.248,0.971
	c3.091,0,5.604-2.334,5.604-5.204S71.216,181.533,68.125,181.533z M68.125,190.22c-2.068,0-3.75-1.562-3.75-3.483
	s1.682-3.483,3.75-3.483s3.751,1.562,3.751,3.483S70.193,190.22,68.125,190.22z"/>
<polygon fill="#726E7A" points="85,191.908 85,191.908 81.5,187.908 88.5,187.908 "/>
<path fill="#FFFFFF" d="M68.125,211.533c-3.09,0-5.604,2.334-5.604,5.205c0,1.123,0.39,2.164,1.046,3.016l-3.297,3.061
	c-0.36,0.336-0.36,0.883,0,1.217c0.36,0.336,0.95,0.336,1.311,0l3.296-3.061c0.918,0.607,2.037,0.971,3.248,0.971
	c3.091,0,5.604-2.334,5.604-5.203C73.729,213.867,71.216,211.533,68.125,211.533z M68.125,220.22c-2.068,0-3.75-1.562-3.75-3.482
	c0-1.922,1.682-3.484,3.75-3.484s3.751,1.562,3.751,3.484C71.876,218.658,70.193,220.22,68.125,220.22z"/>
<polygon fill="#FFFFFF" points="85,221.908 85,221.908 81.5,217.908 88.5,217.908 "/>
<polygon fill="#726E7A" points="93.5,185.533 93.5,185.533 90,181.533 97,181.533 "/>
<polygon fill="#FFFFFF" points="93.5,215.533 93.5,215.533 90,211.533 97,211.533 "/>
<polygon fill="#726E7A" points="123.5,181.533 123.5,181.533 127,185.533 120,185.533 "/>
<polygon fill="#FFFFFF" points="123.5,211.533 123.5,211.533 127,215.533 120,215.533 "/>
<polygon fill="#FFFFFF" points="183.5,181.533 183.5,181.533 187,185.533 180,185.533 "/>
<polygon fill="#4571EC" points="243.5,181.533 243.5,181.533 247,185.533 240,185.533 "/>
<polygon fill="#FFFFFF" points="153.5,185.533 153.5,185.533 150,181.533 157,181.533 "/>
<polygon fill="#4571EC" points="213.5,185.533 213.5,185.533 210,181.533 217,181.533 "/>
<polygon fill="#FFFFFF" points="341,181.533 341,181.533 352,190.533 330,190.533 "/>
<polygon fill="#FFFFFF" points="496,188.533 489,188.533 489,181.533 487,181.533 487,188.533 480,188.533 480,190.533 487,190.533 
	487,197.533 489,197.533 489,190.533 496,190.533 "/>
<polygon fill="#FFFFFF" points="524.364,194.483 519.414,189.533 524.364,184.583 522.95,183.169 518,188.119 513.051,183.169 
	511.637,184.583 516.586,189.533 511.637,194.483 513.051,195.897 518,190.947 522.95,195.897 "/>
<polygon fill="#FFFFFF" points="573,198.033 573,198.033 564,205.908 564,190.158 "/>
<polygon fill="#FFFFFF" points="540,198.033 540,198.033 549,205.908 549,190.158 "/>
<rect x="300" y="184.126" fill="#4571EC" width="7" height="2"/>
<polygon fill="#4571EC" points="310.376,185.267 310.376,185.267 306.106,189.001 306.106,181.533 "/>
<rect x="270" y="184.533" fill="#FFFFFF" width="7" height="2"/>
<polygon fill="#FFFFFF" points="280.376,185.673 280.376,185.673 276.106,189.408 276.106,181.939 "/>
<polygon fill="#BCBCCC" points="423.5,181.533 423.5,181.533 427,185.533 420,185.533 "/>
<polygon fill="#BCBCCC" points="423.5,192.533 423.5,192.533 427,188.533 420,188.533 "/>
</svg>
