<?xml version="1.0" encoding="iso-8859-1"?>
<!-- Generator: Adobe Illustrator 15.1.0, SVG Export Plug-In . SVG Version: 6.00 Build 0)  -->
<!DOCTYPE svg PUBLIC "-//W3C//DTD SVG 1.1//EN" "http://www.w3.org/Graphics/SVG/1.1/DTD/svg11.dtd">
<svg version="1.1" id="Layer_1" xmlns="http://www.w3.org/2000/svg" xmlns:xlink="http://www.w3.org/1999/xlink" x="0px" y="0px"
	 width="1024px" height="1024px" viewBox="0 0 1024 1024" style="enable-background:new 0 0 1024 1024;" xml:space="preserve">
<g>
	<polygon points="0,0.001 0,0 0.001,0 	"/>
</g>
<g id="handy-cams2">
	<path d="M208,514c-7.72,0-14-6.28-14-14V244c0-69.477,56.523-126,126-126s126,56.523,126,126c0,4.088-0.217,8.332-0.646,12.613
		l-0.036,0.362l0.131,0.494l0.425,2.983l2.577-1.589l34.859-20.914C490.487,233.64,503.625,230,512,230h288c7.72,0,14,6.28,14,14
		v240c0,7.72-6.28,14-14,14H512c-8.375,0-21.513-3.64-28.689-7.949L446,467.654V500c0,7.72-6.28,14-14,14H208z M222,486h196V323.171
		l-3.501,3.976C390.517,354.381,356.073,370,320,370s-70.517-15.619-94.499-42.853L222,323.171V486z M511.99,258
		c-3.431,0.018-11.293,2.196-14.258,3.951L446,292.985V435l51.721,31.043c2.976,1.761,10.838,3.939,14.269,3.957H786V258H511.99z
		 M320,146c-54.038,0-98,43.962-98,98s43.962,98,98,98s98-43.962,98-98S374.038,146,320,146z M320,306c-34.187,0-62-27.813-62-62
		s27.813-62,62-62s62,27.813,62,62S354.187,306,320,306z M320,194c-27.57,0-50,22.43-50,50s22.43,50,50,50s50-22.43,50-50
		S347.57,194,320,194z"/>
</g>
</svg>
