<?xml version="1.0" encoding="iso-8859-1"?>
<!-- Generator: Adobe Illustrator 15.1.0, SVG Export Plug-In . SVG Version: 6.00 Build 0)  -->
<!DOCTYPE svg PUBLIC "-//W3C//DTD SVG 1.1//EN" "http://www.w3.org/Graphics/SVG/1.1/DTD/svg11.dtd">
<svg version="1.1" id="Layer_1" xmlns="http://www.w3.org/2000/svg" xmlns:xlink="http://www.w3.org/1999/xlink" x="0px" y="0px"
	 width="1032px" height="1032px" viewBox="0 0 1032 1032" style="enable-background:new 0 0 1032 1032;" xml:space="preserve">
<g>
	<polygon points="0,0.001 0,0 0.001,0 	"/>
</g>
<g id="circle-num-6">
	<path d="M515.957,954.02c-57.507,0-113.291-11.264-165.803-33.478c-50.722-21.457-96.276-52.176-135.396-91.303
		c-39.12-39.126-69.833-84.687-91.286-135.416C101.261,641.304,90,585.514,90,528c0-57.513,11.261-113.303,33.471-165.82
		c21.454-50.728,52.167-96.286,91.287-135.41c39.12-39.124,84.674-69.84,135.396-91.295C402.666,113.263,458.45,102,515.957,102
		c57.518,0,113.312,11.263,165.835,33.475c50.732,21.456,96.296,52.172,135.424,91.296s69.848,84.683,91.306,135.41
		C930.736,414.698,942,470.487,942,528s-11.264,113.304-33.479,165.822c-21.458,50.729-52.178,96.291-91.306,135.417
		c-39.129,39.127-84.691,69.846-135.424,91.303C629.27,942.756,573.475,954.02,515.957,954.02z M515.957,157.914
		c-204.066,0-370.086,166.02-370.086,370.086c0,204.09,166.02,370.129,370.086,370.129c204.091,0,370.131-166.039,370.131-370.129
		C886.088,323.934,720.048,157.914,515.957,157.914z M524.105,701.648c-43.191,0-75.258-16.952-95.31-50.386
		c-19.577-32.642-23.686-74.109-23.686-103.149c0-55.237,11.663-101.632,33.728-134.168c24.04-35.448,59.099-53.421,104.206-53.421
		c22.55,0,44.397,3.488,61.984,9.858l-8.479,35.966c-14.734-5.814-32.13-8.871-50.649-8.871c-54.581,0-87.926,40.28-93.893,113.421
		l-0.353,4.325h7.23l1.201-1.503c16.275-20.375,44.25-33.032,73.005-33.032c63.665,0,104.803,42.438,104.803,108.117
		C637.893,655.245,591.102,701.648,524.105,701.648z M526.498,516.211c-45.742,0-73.076,33.301-73.076,65.496
		c0,41.317,21.856,83.008,70.684,83.008c40.595,0,67.869-30.506,67.869-75.91C591.975,544.706,566.273,516.211,526.498,516.211z"/>
</g>
</svg>
