<?xml version="1.0" encoding="iso-8859-1"?>
<!-- Generator: Adobe Illustrator 15.1.0, SVG Export Plug-In . SVG Version: 6.00 Build 0)  -->
<!DOCTYPE svg PUBLIC "-//W3C//DTD SVG 1.1//EN" "http://www.w3.org/Graphics/SVG/1.1/DTD/svg11.dtd">
<svg version="1.1" id="Layer_1" xmlns="http://www.w3.org/2000/svg" xmlns:xlink="http://www.w3.org/1999/xlink" x="0px" y="0px"
	 width="1024px" height="1024px" viewBox="0 0 1024 1024" style="enable-background:new 0 0 1024 1024;" xml:space="preserve">
<g>
	<polygon points="0,0.001 0,0 0.001,0 	"/>
</g>
<g id="_x36_-speaker">
	<path d="M518,789.913C659.968,787.01,774.562,670.634,774.562,528c0-142.651-114.595-259.04-256.562-261.944V150.046
		c48.908,0.753,96.357,10.721,141.126,29.658c45.011,19.04,85.437,46.297,120.155,81.015
		c34.718,34.718,61.975,75.144,81.014,120.154C880.006,427.471,890,476.972,890,528c0,51.036-9.994,100.541-29.705,147.14
		c-19.039,45.012-46.296,85.437-81.014,120.152s-75.144,61.971-120.154,81.008c-44.769,18.935-92.218,28.901-141.127,29.654V789.913
		z M258.485,713.969H70V342h188.485L442,158.485v739.027L258.485,713.969z M518,406.146c64.495,3.139,116,56.595,116,121.854
		c0,65.259-51.505,118.715-116,121.854V406.146z"/>
</g>
</svg>
