<?xml version="1.0" encoding="iso-8859-1"?>
<!-- Generator: Adobe Illustrator 15.1.0, SVG Export Plug-In . SVG Version: 6.00 Build 0)  -->
<!DOCTYPE svg PUBLIC "-//W3C//DTD SVG 1.1//EN" "http://www.w3.org/Graphics/SVG/1.1/DTD/svg11.dtd">
<svg version="1.1" id="Layer_1" xmlns="http://www.w3.org/2000/svg" xmlns:xlink="http://www.w3.org/1999/xlink" x="0px" y="0px"
	 width="1024px" height="1024px" viewBox="0 0 1024 1024" style="enable-background:new 0 0 1024 1024;" xml:space="preserve">
<g>
	<polygon points="0,0.001 0,0 0.001,0 	"/>
</g>
<g id="_x33_-alpha">
	<path d="M442.344,781c-38.277,0-72.014-8.112-100.272-24.11c-28.419-16.117-52.337-37.773-71.089-64.368
		c-18.908-26.818-33.163-57.746-42.367-91.927c-9.305-34.488-14.022-70.035-14.022-105.657c0-38.482,5.256-75.389,15.622-109.695
		c10.211-34.261,25.476-64.653,45.375-90.343c19.897-25.687,44.341-46.293,72.654-61.247C376.477,218.62,409.542,211,446.531,211
		c31.497,0,59.756,4.686,83.994,13.928c24.254,9.21,44.976,22.151,61.592,38.462c16.65,16.224,30.311,36.264,40.607,59.572
		c10.176,23.032,16.783,47.676,19.638,73.246l0.688,5.95l5.91,0.302l1.29-5.836c2.657-9.024,5.575-20.661,9.455-37.708
		c3.797-16.841,7.055-32.745,9.964-48.625c2.895-15.807,5.639-32.044,8.388-49.64c2.312-15.571,4.052-27.426,5.401-37.151h77.526
		c-4.883,42.371-13.899,92.016-26.813,147.634c-12.841,55.824-31.719,115.016-56.113,175.938l-0.285,0.711l6.342,52.948
		c2.776,23.1,6.67,42.266,11.57,56.967c4.905,14.844,11.089,26.436,18.377,34.445c7.183,7.896,15.354,13.271,24.286,15.978
		c8.568,2.494,18.691,3.754,30.12,3.754c5.549,0,11.305-0.354,17.595-1.082c4.391-0.468,8.002-0.988,10.78-1.452v60.771
		c-2.425,0.496-5.521,0.979-9.43,1.544c-3.471,0.495-7.017,0.946-10.446,1.381c-1.755,0.224-3.509,0.446-5.264,0.676
		c-4.729,0.627-9.445,1.133-14.422,1.548c-4.52,0.371-7.689,0.552-9.688,0.552c-15.729,0-30.504-1.061-43.913-3.151
		c-13.052-1.985-25.142-6.388-35.943-13.086c-10.611-6.677-19.572-16.173-26.616-28.215c-7.162-12.243-12.145-28.024-14.807-46.904
		l-3.129-20.9l-1.76-12.321l-4.929,11.501c-7.563,15.05-17.113,29.948-28.387,44.285c-11.347,14.43-24.826,27.226-40.064,38.032
		c-15.435,10.946-32.902,19.771-51.917,26.231C487.153,777.731,465.693,781,442.344,781z M449.594,274.875
		c-16.287,0-33.34,3.783-50.686,11.244c-17.537,7.488-34.045,19.859-49.058,36.764c-15.184,16.893-27.876,39.691-37.713,67.75
		c-9.817,28.066-14.794,63.159-14.794,104.305c0,34.051,3.907,65.214,11.612,92.624c7.705,27.409,18.584,50.902,32.336,69.827
		c13.75,19.072,29.883,33.953,47.944,44.22c18.09,10.255,38.06,15.454,59.357,15.454c31.812,0,58.395-7.573,79.01-22.508
		c20.514-14.798,36.636-33.58,47.916-55.823c11.18-21.983,18.994-46.122,23.222-71.743c4.215-25.606,6.353-49.848,6.353-72.051
		c0-42.374-4.804-78.334-14.277-106.882c-9.455-28.364-21.778-51.014-36.63-67.325c-14.928-16.268-31.816-28.093-50.205-35.156
		C485.601,278.476,467.3,274.875,449.594,274.875z"/>
</g>
</svg>
