<?xml version="1.0" encoding="utf-8"?>
<!-- Generator: Adobe Illustrator 15.0.0, SVG Export Plug-In  -->
<!DOCTYPE svg PUBLIC "-//W3C//DTD SVG 1.1//EN" "http://www.w3.org/Graphics/SVG/1.1/DTD/svg11.dtd" [
	<!ENTITY ns_flows "http://ns.adobe.com/Flows/1.0/">
]>
<svg version="1.1"
	 xmlns="http://www.w3.org/2000/svg" xmlns:xlink="http://www.w3.org/1999/xlink" xmlns:a="http://ns.adobe.com/AdobeSVGViewerExtensions/3.0/"
	 x="0px" y="0px" width="1080px" height="1290px" viewBox="240 0.016 1080 1290"
	 overflow="visible" enable-background="new 240 0.016 1080 1290" xml:space="preserve">
<defs>
</defs>
<rect x="240" y="180.016" display="none" fill="#7A7D7F" fill-opacity="0.3" width="1052" height="179.668"/>
<rect x="240" y="360.016" display="none" fill="#7A7D7F" fill-opacity="0.3" width="1052" height="90"/>
<polygon display="none" fill="#7A7D7F" fill-opacity="0.3" points="1291.28,89.683 239.333,89.683 240.053,0.016 1292,0.016 "/>
<rect x="240" y="719.683" display="none" fill="#7A7D7F" fill-opacity="0.3" width="1052" height="59.9"/>
<rect x="240" y="629.683" display="none" fill="#7A7D7F" fill-opacity="0.3" width="1052" height="90"/>
<rect x="720" y="0.016" display="none" fill="#0303F9" fill-opacity="0.1" width="16" height="16"/>
<rect x="750" y="0.016" display="none" fill="#0303F9" fill-opacity="0.1" width="16" height="16"/>
<rect x="780" y="0.016" display="none" fill="#0303F9" fill-opacity="0.1" width="33" height="33"/>
<polygon display="none" fill="#7A7D7F" fill-opacity="0.3" points="1291.279,180.016 239.333,180.016 240.053,90.016 1292,90.016 
	"/>
<rect x="240" y="450.016" display="none" fill="#7A7D7F" fill-opacity="0.3" width="1052" height="179.668"/>
<rect x="240" y="779.782" display="none" fill="#7A7D7F" fill-opacity="0.3" width="1052" height="29.9"/>
<rect x="240" y="809.683" display="none" fill="#7A7D7F" fill-opacity="0.3" width="1052" height="59.9"/>
<rect x="240" y="869.683" display="none" fill="#7A7D7F" fill-opacity="0.3" width="1052" height="120"/>
<line display="none" fill="none" stroke="#020202" stroke-width="2" stroke-miterlimit="10" x1="6" y1="89.683" x2="1854.333" y2="89.683"/>
<line display="none" fill="none" stroke="#020202" stroke-width="2" stroke-miterlimit="10" x1="1.676" y1="179.683" x2="1854.333" y2="179.683"/>
<line display="none" fill="none" stroke="#020202" stroke-width="2" stroke-miterlimit="10" x1="1.676" y1="360.016" x2="1854.333" y2="360.016"/>
<line display="none" fill="none" stroke="#020202" stroke-width="2" stroke-miterlimit="10" x1="243.676" y1="630.016" x2="2096.333" y2="630.016"/>
<line display="none" fill="none" stroke="#020202" stroke-width="2" stroke-miterlimit="10" x1="243.676" y1="779.683" x2="2096.333" y2="779.683"/>
<line display="none" fill="none" stroke="#020202" stroke-width="4" stroke-miterlimit="10" x1="0" y1="719.683" x2="2096.333" y2="719.683"/>
<line display="none" fill="none" stroke="#020202" stroke-width="2" stroke-miterlimit="10" x1="243.676" y1="810.016" x2="2096.333" y2="810.016"/>
<line display="none" fill="none" stroke="#020202" stroke-width="2" stroke-miterlimit="10" x1="243.676" y1="870.016" x2="2096.333" y2="870.016"/>
<line display="none" fill="none" stroke="#020202" stroke-width="2" stroke-miterlimit="10" x1="243.676" y1="990.016" x2="2096.333" y2="990.016"/>
<rect x="240" y="989.683" display="none" fill="#7A7D7F" fill-opacity="0.3" width="1052" height="300"/>
<line display="none" fill="none" stroke="#020202" stroke-width="4" stroke-miterlimit="10" x1="0" y1="1290.349" x2="2096.333" y2="1290.349"/>
<line display="none" fill="none" stroke="#020202" stroke-width="2" stroke-miterlimit="10" x1="1.676" y1="450.016" x2="1854.333" y2="450.016"/>
<rect x="960" display="none" fill="#FFF200" fill-opacity="0.5" width="17" height="17"/>
<rect x="990" display="none" fill="#FFF200" fill-opacity="0.5" width="17" height="17"/>
<rect x="1020" display="none" fill="#FFF200" fill-opacity="0.5" width="17" height="17"/>
<rect x="1050" display="none" fill="#FFF200" fill-opacity="0.5" width="17" height="17"/>
<rect x="1080" display="none" fill="#FFF200" fill-opacity="0.5" width="17" height="17"/>
<rect x="1110" display="none" fill="#FFF200" fill-opacity="0.5" width="17" height="17"/>
<rect x="1140" display="none" fill="#FFF200" fill-opacity="0.5" width="17" height="17"/>
<rect x="1170" y="0" display="none" fill="#FFF200" fill-opacity="0.5" width="17" height="17"/>
<rect x="930" display="none" fill="#FFF200" fill-opacity="0.5" width="17" height="17"/>
<g>
	<path fill="#F35429" d="M271,440.766c0.133,0,0.25,0.117,0.25,0.25v1c0,0.133-0.117,0.25-0.25,0.25h-29
		c-0.133,0-0.25-0.117-0.25-0.25v-1c0-0.133,0.117-0.25,0.25-0.25H271 M271,439.016h-29c-1.1,0-2,0.9-2,2v1c0,1.1,0.9,2,2,2h29
		c1.1,0,2-0.9,2-2v-1C273,439.916,272.1,439.016,271,439.016L271,439.016z"/>
</g>
<g>
	<path fill="#F35429" d="M269,421.766c0.133,0,0.25,0.117,0.25,0.25v14c0,0.133-0.117,0.25-0.25,0.25h-25
		c-0.133,0-0.25-0.117-0.25-0.25v-14c0-0.133,0.117-0.25,0.25-0.25H269 M269,420.016h-25c-1.1,0-2,0.9-2,2v14c0,1.1,0.9,2,2,2h25
		c1.1,0,2-0.9,2-2v-14C271,420.916,270.1,420.016,269,420.016L269,420.016z"/>
</g>
<path fill="#F35429" d="M343.875,440.766h-12c-1.034,0-1.875-0.842-1.875-1.875v-7c0-1.033,0.841-1.875,1.875-1.875
	c0.066,0,0.125-0.059,0.125-0.125v-3c0-0.066-0.059-0.125-0.125-0.125c-1.034,0-1.875-0.842-1.875-1.875v-3
	c0-1.033,0.841-1.875,1.875-1.875h9c0.777,0,1.776,0.414,2.326,0.963l1.586,1.586c0.549,0.55,0.963,1.549,0.963,2.326v14
	C345.75,439.924,344.909,440.766,343.875,440.766z M331.875,421.766c-0.066,0-0.125,0.059-0.125,0.125v3
	c0,0.066,0.059,0.125,0.125,0.125c1.034,0,1.875,0.842,1.875,1.875v3c0,1.033-0.841,1.875-1.875,1.875
	c-0.066,0-0.125,0.059-0.125,0.125v7c0,0.066,0.059,0.125,0.125,0.125h12c0.066,0,0.125-0.059,0.125-0.125v-14
	c0-0.316-0.228-0.865-0.451-1.088l-1.586-1.586c-0.223-0.224-0.772-0.451-1.088-0.451H331.875z"/>
<path fill="#F35429" d="M342.875,435.891c0,1.1-0.9,2-2,2h-6c-1.1,0-2-0.9-2-2v-2c0-1.1,0.9-2,2-2h6c1.1,0,2,0.9,2,2V435.891z"/>
<path fill="#F35429" d="M340.322,423.785c-0.246-0.492-0.648-0.492-0.895,0l-1.105,2.211c-0.246,0.492,0.003,0.895,0.553,0.895h2
	c0.55,0,0.799-0.402,0.553-0.895L340.322,423.785z"/>
<path fill="#F35429" d="M392,420.016h-30c-1.1,0-2,0.9-2,2v17c0,1.1,0.9,2,2,2h13v3.125h-7c-0.483,0-0.875,0.392-0.875,0.875
	s0.392,0.875,0.875,0.875h18c0.483,0,0.875-0.392,0.875-0.875s-0.392-0.875-0.875-0.875h-7v-3.125h13c1.1,0,2-0.9,2-2v-17
	C394,420.916,393.1,420.016,392,420.016z M392.25,439.016c0,0.133-0.117,0.25-0.25,0.25h-30c-0.133,0-0.25-0.117-0.25-0.25v-17
	c0-0.133,0.117-0.25,0.25-0.25h30c0.133,0,0.25,0.117,0.25,0.25V439.016z"/>
<path fill="#F35429" d="M455,420.016h-33c-1.1,0-2,0.9-2,2v12c0,1.1,0.9,2,2,2h1v1c0,0.55,0.45,1,1,1h1c0.55,0,1-0.45,1-1v-1h25v1
	c0,0.55,0.45,1,1,1h1c0.55,0,1-0.45,1-1v-1h1c1.1,0,2-0.9,2-2v-12C457,420.916,456.1,420.016,455,420.016z M455.25,434.016
	c0,0.133-0.117,0.25-0.25,0.25h-33c-0.133,0-0.25-0.117-0.25-0.25v-12c0-0.133,0.117-0.25,0.25-0.25h33
	c0.133,0,0.25,0.117,0.25,0.25V434.016z"/>
<path fill="#F35429" d="M448,423.142c-2.688,0-4.875,2.187-4.875,4.875s2.187,4.875,4.875,4.875s4.875-2.187,4.875-4.875
	S450.688,423.142,448,423.142z M448,431.142c-1.723,0-3.125-1.401-3.125-3.125s1.402-3.125,3.125-3.125s3.125,1.401,3.125,3.125
	S449.723,431.142,448,431.142z"/>
<path fill="#F35429" d="M432,424.516h-7c-0.276,0-0.5,0.224-0.5,0.5s0.224,0.5,0.5,0.5h7c0.276,0,0.5-0.224,0.5-0.5
	S432.276,424.516,432,424.516z"/>
<path fill="#F35429" d="M432,427.516h-7c-0.276,0-0.5,0.224-0.5,0.5s0.224,0.5,0.5,0.5h7c0.276,0,0.5-0.224,0.5-0.5
	S432.276,427.516,432,427.516z"/>
<path fill="#F35429" d="M432,430.516h-7c-0.276,0-0.5,0.224-0.5,0.5s0.224,0.5,0.5,0.5h7c0.276,0,0.5-0.224,0.5-0.5
	S432.276,430.516,432,430.516z"/>
<path fill="#F35429" d="M487.001,422.502l3.54,6.139c0.494,0.855,1.23,2.328,1.642,3.279c0.02,0.11,0.067,0.438,0.067,1.078
	c0,2.895-2.355,5.25-5.25,5.25s-5.25-2.355-5.25-5.25c0-0.641,0.047-0.967,0.067-1.078c0.413-0.953,1.148-2.425,1.642-3.28
	L487.001,422.502 M487,420.016c-0.362,0-0.725,0.238-0.999,0.715l-4.058,7.035c-0.549,0.952-1.351,2.561-1.781,3.572
	c0,0-0.163,0.383-0.163,1.66c0,3.865,3.135,7,7,7c3.866,0,7-3.135,7-7c0-1.277-0.162-1.659-0.162-1.659
	c-0.43-1.013-1.231-2.621-1.781-3.573L488,420.73C487.725,420.254,487.362,420.016,487,420.016L487,420.016z"/>
<path fill="#F35429" d="M520,434.016v-9c0-2.762-2.238-5-5-5s-5,2.238-5,5v9c0,2.467,1.792,4.506,4.143,4.914
	c-0.003,0.029-0.018,0.055-0.018,0.086v6c0,0.045,0.019,0.082,0.025,0.125H511c-0.483,0-0.875,0.392-0.875,0.875
	s0.392,0.875,0.875,0.875h8c0.483,0,0.875-0.392,0.875-0.875s-0.392-0.875-0.875-0.875h-3.15c0.006-0.043,0.025-0.08,0.025-0.125v-6
	c0-0.031-0.015-0.057-0.018-0.086C518.208,438.521,520,436.482,520,434.016z M518.25,434.016c0,1.792-1.458,3.25-3.25,3.25
	s-3.25-1.458-3.25-3.25v-9c0-1.792,1.458-3.25,3.25-3.25s3.25,1.458,3.25,3.25V434.016z"/>
<path fill="#F35429" d="M551.625,425.179v-2.288c0-0.483-0.392-0.875-0.875-0.875s-0.875,0.392-0.875,0.875v2.288
	c-1.062,0.18-1.875,1.1-1.875,2.212v7c0,1.112,0.813,2.032,1.875,2.212v5.288c0,1.723-1.402,3.125-3.125,3.125
	s-3.125-1.402-3.125-3.125v-7.288c1.062-0.18,1.875-1.1,1.875-2.212v-7c0-1.112-0.813-2.032-1.875-2.212v-2.288
	c0-0.483-0.392-0.875-0.875-0.875s-0.875,0.392-0.875,0.875v2.288c-1.062,0.18-1.875,1.1-1.875,2.212v7
	c0,1.112,0.813,2.032,1.875,2.212v7.288c0,2.688,2.187,4.875,4.875,4.875s4.875-2.188,4.875-4.875v-5.288
	c1.062-0.18,1.875-1.1,1.875-2.212v-7C553.5,426.278,552.687,425.358,551.625,425.179z M542.25,424.891h1c0.275,0,0.5,0.225,0.5,0.5
	v2.5h-2v-2.5C541.75,425.115,541.975,424.891,542.25,424.891z M551.75,434.391c0,0.275-0.225,0.5-0.5,0.5h-1
	c-0.275,0-0.5-0.225-0.5-0.5v-7c0-0.275,0.225-0.5,0.5-0.5h1c0.275,0,0.5,0.225,0.5,0.5V434.391z"/>
<g>
	<path fill="#F35429" d="M317,421.766c0.133,0,0.25,0.117,0.25,0.25v22c0,0.133-0.117,0.25-0.25,0.25h-15
		c-0.133,0-0.25-0.117-0.25-0.25v-22c0-0.133,0.117-0.25,0.25-0.25H317 M317,420.016h-15c-1.1,0-2,0.9-2,2v22c0,1.1,0.9,2,2,2h15
		c1.1,0,2-0.9,2-2v-22C319,420.916,318.1,420.016,317,420.016L317,420.016z"/>
</g>
<g>
	<path fill="#F35429" d="M315,424.016v16h-11v-16H315 M316,423.016h-13v18h13V423.016L316,423.016z"/>
</g>
<g>
	<path fill="#F35429" d="M583,421.766c6.203,0,11.25,5.047,11.25,11.25s-5.047,11.25-11.25,11.25s-11.25-5.047-11.25-11.25
		S576.797,421.766,583,421.766 M583,420.016c-7.18,0-13,5.82-13,13s5.82,13,13,13s13-5.82,13-13S590.18,420.016,583,420.016
		L583,420.016z"/>
</g>
<g>
	<path fill="#F35429" d="M583,429.016c2.206,0,4,1.795,4,4s-1.794,4-4,4s-4-1.795-4-4S580.794,429.016,583,429.016 M583,428.016
		c-2.762,0-5,2.238-5,5s2.238,5,5,5s5-2.238,5-5S585.762,428.016,583,428.016L583,428.016z"/>
</g>
<g>
	<path fill="#F35429" d="M583,431.516c0.827,0,1.5,0.673,1.5,1.5s-0.673,1.5-1.5,1.5s-1.5-0.673-1.5-1.5
		S582.173,431.516,583,431.516 M583,430.516c-1.381,0-2.5,1.119-2.5,2.5s1.119,2.5,2.5,2.5s2.5-1.119,2.5-2.5
		S584.381,430.516,583,430.516L583,430.516z"/>
</g>
<path fill="#F35429" d="M626.867,441.766h-12.084c-0.483,0-0.875-0.392-0.875-0.875v-11.5c0-0.484,0.392-0.875,0.875-0.875h16.334
	c0.483,0,0.875,0.391,0.875,0.875v7.25C631.992,439.467,629.693,441.766,626.867,441.766z M615.658,440.016h11.209
	c1.861,0,3.375-1.514,3.375-3.375v-6.375h-14.584V440.016z"/>
<path fill="#F35429" d="M631.504,420.016h-30.629c-0.483,0-0.875,0.392-0.875,0.875v9.272c0,0.483,0.392,0.875,0.875,0.875h3.762
	v3.671c0,3.891,3.165,7.057,7.056,7.057c0.483,0,0.875-0.392,0.875-0.875v-13.717h18.937c1.974,0,3.58-1.605,3.58-3.578
	C635.084,421.621,633.478,420.016,631.504,420.016z M601.75,421.766h1.482v7.522h-1.482V421.766z M631.504,425.424h-19.812
	c-0.483,0-0.875,0.393-0.875,0.875v13.645c-2.511-0.418-4.431-2.606-4.431-5.234v-4.546c0-0.483-0.392-0.875-0.875-0.875h-1.279
	v-7.522h27.271c1.009,0,1.83,0.82,1.83,1.83C633.334,424.604,632.513,425.424,631.504,425.424z"/>
<path fill="#F35429" d="M692.625,447.766h-19.75c-0.483,0-0.875-0.392-0.875-0.875v-16c0-0.483,0.392-0.875,0.875-0.875h24
	c0.483,0,0.875,0.392,0.875,0.875v11.75C697.75,445.467,695.451,447.766,692.625,447.766z M673.75,446.016h18.875
	c1.861,0,3.375-1.514,3.375-3.375v-10.875h-22.25V446.016z"/>
<path fill="#F35429" d="M664.875,443.766h-4c-0.483,0-0.875-0.392-0.875-0.875v-10c0-0.483,0.392-0.875,0.875-0.875h4
	c0.292,0,0.566,0.146,0.728,0.39l1.074,1.61h3.198c0.483,0,0.875,0.393,0.875,0.875v6c0,0.484-0.392,0.875-0.875,0.875h-3.199
	l-1.073,1.61C665.441,443.619,665.167,443.766,664.875,443.766z M661.75,442.016h2.657l1.073-1.609
	c0.162-0.244,0.436-0.391,0.728-0.391H669v-4.25h-2.791c-0.292,0-0.566-0.146-0.728-0.389l-1.074-1.611h-2.657V442.016z"/>
<path fill="#F35429" d="M694.875,428.766h-4c-0.275,0-0.535-0.13-0.7-0.35l-2.737-3.65h-6.688v3.125
	c0,0.483-0.392,0.875-0.875,0.875h-3c-0.483,0-0.875-0.392-0.875-0.875v-7c0-0.483,0.392-0.875,0.875-0.875h13
	c0.282,0,0.548,0.137,0.712,0.366l5,7c0.19,0.267,0.216,0.618,0.066,0.909C695.503,428.582,695.203,428.766,694.875,428.766z
	 M691.312,427.016h1.862l-3.75-5.25H677.75v5.25H679v-3.125c0-0.483,0.392-0.875,0.875-0.875h8c0.275,0,0.535,0.13,0.7,0.35
	L691.312,427.016z"/>
<path fill="#F35429" d="M725.875,426.766h-5c-0.483,0-0.875-0.392-0.875-0.875v-5c0-0.483,0.392-0.875,0.875-0.875h5
	c0.483,0,0.875,0.392,0.875,0.875v5C726.75,426.374,726.358,426.766,725.875,426.766z M721.75,425.016H725v-3.25h-3.25V425.016z"/>
<path fill="#F35429" d="M735.875,426.766h-5c-0.483,0-0.875-0.392-0.875-0.875v-5c0-0.483,0.392-0.875,0.875-0.875h5
	c0.483,0,0.875,0.392,0.875,0.875v5C736.75,426.374,736.358,426.766,735.875,426.766z M731.75,425.016H735v-3.25h-3.25V425.016z"/>
<path fill="#F35429" d="M745.875,426.766h-5c-0.483,0-0.875-0.392-0.875-0.875v-5c0-0.483,0.392-0.875,0.875-0.875h5
	c0.483,0,0.875,0.392,0.875,0.875v5C746.75,426.374,746.358,426.766,745.875,426.766z M741.75,425.016H745v-3.25h-3.25V425.016z"/>
<path fill="#F35429" d="M725.875,436.766h-5c-0.483,0-0.875-0.392-0.875-0.875v-5c0-0.483,0.392-0.875,0.875-0.875h5
	c0.483,0,0.875,0.392,0.875,0.875v5C726.75,436.374,726.358,436.766,725.875,436.766z M721.75,435.016H725v-3.25h-3.25V435.016z"/>
<path fill="#F35429" d="M735.875,436.766h-5c-0.483,0-0.875-0.392-0.875-0.875v-5c0-0.483,0.392-0.875,0.875-0.875h5
	c0.483,0,0.875,0.392,0.875,0.875v5C736.75,436.374,736.358,436.766,735.875,436.766z M731.75,435.016H735v-3.25h-3.25V435.016z"/>
<path fill="#F35429" d="M745.875,436.766h-5c-0.483,0-0.875-0.392-0.875-0.875v-5c0-0.483,0.392-0.875,0.875-0.875h5
	c0.483,0,0.875,0.392,0.875,0.875v5C746.75,436.374,746.358,436.766,745.875,436.766z M741.75,435.016H745v-3.25h-3.25V435.016z"/>
<path fill="#F35429" d="M725.875,446.766h-5c-0.483,0-0.875-0.392-0.875-0.875v-5c0-0.483,0.392-0.875,0.875-0.875h5
	c0.483,0,0.875,0.392,0.875,0.875v5C726.75,446.374,726.358,446.766,725.875,446.766z M721.75,445.016H725v-3.25h-3.25V445.016z"/>
<path fill="#F35429" d="M735.875,446.766h-5c-0.483,0-0.875-0.392-0.875-0.875v-5c0-0.483,0.392-0.875,0.875-0.875h5
	c0.483,0,0.875,0.392,0.875,0.875v5C736.75,446.374,736.358,446.766,735.875,446.766z M731.75,445.016H735v-3.25h-3.25V445.016z"/>
<path fill="#F35429" d="M745.875,446.766h-5c-0.483,0-0.875-0.392-0.875-0.875v-5c0-0.483,0.392-0.875,0.875-0.875h5
	c0.483,0,0.875,0.392,0.875,0.875v5C746.75,446.374,746.358,446.766,745.875,446.766z M741.75,445.016H745v-3.25h-3.25V445.016z"/>
<path fill="#F35429" d="M803.875,433.266c-0.482,0-0.875-0.392-0.875-0.875v-1c0-5.307-4.317-9.625-9.625-9.625
	c-5.307,0-9.625,4.318-9.625,9.625v1c0,0.483-0.391,0.875-0.875,0.875c-0.482,0-0.875-0.392-0.875-0.875v-1
	c0-6.271,5.104-11.375,11.375-11.375c6.272,0,11.375,5.104,11.375,11.375v1C804.75,432.874,804.359,433.266,803.875,433.266z"/>
<path fill="#F35429" d="M803.875,446.266c-1.585,0-2.875-1.289-2.875-2.875v-6c0-1.586,1.29-2.875,2.875-2.875
	c1.586,0,2.875,1.289,2.875,2.875v6C806.75,444.977,805.461,446.266,803.875,446.266z M803.875,436.266
	c-0.619,0-1.125,0.505-1.125,1.125v6c0,0.62,0.506,1.125,1.125,1.125c0.621,0,1.125-0.505,1.125-1.125v-6
	C805,436.771,804.496,436.266,803.875,436.266z"/>
<path fill="#F35429" d="M782.875,446.266c-1.585,0-2.875-1.289-2.875-2.875v-6c0-1.586,1.29-2.875,2.875-2.875
	c1.586,0,2.875,1.289,2.875,2.875v6C785.75,444.977,784.461,446.266,782.875,446.266z M782.875,436.266
	c-0.619,0-1.125,0.505-1.125,1.125v6c0,0.62,0.506,1.125,1.125,1.125c0.621,0,1.125-0.505,1.125-1.125v-6
	C784,436.771,783.496,436.266,782.875,436.266z"/>
<path fill="#F35429" d="M827.202,420.125l-6.8-0.002c-1.586,0-2.876,1.29-2.876,2.875l-0.001,0.801c0,1.586,1.29,2.875,2.875,2.875
	l5.238,0.001v16.341c0,0.276,0.224,0.5,0.5,0.5s0.5-0.224,0.5-0.5v-16.341h0.563c1.585,0,2.875-1.29,2.875-2.875V423
	C830.077,421.414,828.787,420.125,827.202,420.125z M828.327,423.8c0,0.62-0.505,1.125-1.125,1.125l-6.802-0.001
	c-0.62,0-1.125-0.504-1.125-1.123l0.001-0.803c0-0.619,0.505-1.125,1.126-1.125l6.8,0.002c0.62,0,1.125,0.504,1.125,1.125V423.8z"/>
<path fill="#F35429" d="M814.424,420.016c-0.619,0-1.814,0.355-2.719,0.809c-0.939,0.471-1.705,1.625-1.705,2.574
	c0,0.948,0.766,2.103,1.705,2.574c0.904,0.453,2.1,0.808,2.717,0.808c0.846,0.001,1.302-1.474,1.302-2.862v-1.041
	C815.724,421.491,815.268,420.016,814.424,420.016z"/>
<path fill="#F35429" d="M844.6,420.123l-6.801,0.002c-1.585,0-2.875,1.289-2.875,2.875v0.8c0,1.585,1.29,2.875,2.875,2.875h0.564
	v16.341c0,0.276,0.224,0.5,0.5,0.5s0.5-0.224,0.5-0.5v-16.341l5.237-0.001c1.585,0,2.874-1.289,2.874-2.875v-0.801
	C847.475,421.413,846.185,420.123,844.6,420.123z M845.725,423.799c0,0.621-0.504,1.125-1.124,1.125l-6.802,0.001
	c-0.62,0-1.125-0.505-1.125-1.125V423c0-0.621,0.505-1.125,1.125-1.125l6.801-0.002c0.62,0,1.125,0.506,1.125,1.125V423.799z"/>
<path fill="#F35429" d="M853.295,420.824c-0.904-0.453-2.1-0.809-2.717-0.809c-0.846,0-1.301,1.476-1.301,2.861v1.041
	c0,1.389,0.457,2.863,1.301,2.862c0.619,0,1.814-0.354,2.718-0.808c0.94-0.472,1.704-1.626,1.704-2.574
	C855,422.449,854.236,421.295,853.295,420.824z"/>
<path fill="#F35429" d="M910.875,434.431c1.654,0,3-1.346,3-3s-1.346-3-3-3s-3,1.346-3,3S909.221,434.431,910.875,434.431z
	 M910.875,429.431c1.104,0,2,0.897,2,2s-0.896,2-2,2s-2-0.897-2-2S909.771,429.431,910.875,429.431z"/>
<path fill="#F35429" d="M943.725,430.128c-0.443-0.192-0.959,0.011-1.152,0.454c-1.133,2.609-2.52,4.089-4.122,4.397
	c-2.296,0.442-4.437-1.647-4.448-1.66c-13.715-14.04-22.703-13.382-23.688-13.264c-5.501,0.039-10.314,5.337-10.314,11.375v0.875
	h3.557c0.436,3.655,3.549,6.5,7.318,6.5c4.066,0,7.375-3.309,7.375-7.375s-3.309-7.375-7.375-7.375c-3.77,0-6.883,2.845-7.318,6.5
	h-1.762c0.432-4.296,3.959-8.75,8.58-8.75l0.132-0.01c0.085-0.013,8.733-1.083,22.25,12.753c0.101,0.102,2.277,2.242,5.04,2.242
	c0.316,0,0.641-0.027,0.972-0.091c2.209-0.419,4.028-2.243,5.409-5.421C944.371,430.836,944.168,430.32,943.725,430.128z
	 M910.875,425.806c3.102,0,5.625,2.523,5.625,5.625s-2.523,5.625-5.625,5.625s-5.625-2.523-5.625-5.625
	S907.773,425.806,910.875,425.806z"/>
<path fill="#F35429" d="M884.572,425.882l-6.061-4.986c-0.244-0.183-1.516-1.077-2.686-0.841c-1.897,0.385-2.418,2.232-2.429,3.166
	l0.001,3.252c0,0.077,0.025,0.146,0.044,0.219c-0.673,0.318-1.144,1.006-1.144,1.809v3.104c-1.361,0.711-2.299,2.119-2.299,3.762
	c0,2.359,1.912,4.271,4.273,4.271c2.358,0,4.271-1.912,4.271-4.271c0-1.643-0.937-3.052-2.299-3.763V428.5
	c0-0.801-0.47-1.488-1.143-1.809c0.02-0.071,0.045-0.141,0.045-0.219l-0.001-3.242c0-0.013,0.025-1.258,1.026-1.461
	c0.251-0.049,0.895,0.236,1.258,0.503l6.008,4.943c0.059,0.052,1.419,1.284,1.419,3.452v4.926c0.002,0.789-0.213,3.203-1.253,3.982
	l-4.127,3.67c-0.342,0.252-1.724,1.419-1.617,3.773c0.021,0.469,0.408,0.835,0.873,0.835c0.014,0,0.027-0.001,0.041-0.001
	c0.482-0.021,0.855-0.431,0.834-0.914c-0.072-1.59,0.861-2.254,0.891-2.273c0.037-0.025,0.073-0.052,0.107-0.082l4.103-3.652
	c1.855-1.383,1.899-4.941,1.898-5.34v-4.924C886.608,427.676,884.671,425.967,884.572,425.882z M875.246,434.137
	c0,0.55-0.438,1-0.975,1c-0.535,0-0.973-0.45-0.973-1V428.5c0-0.551,0.438-1,0.973-1c0.536,0,0.975,0.449,0.975,1V434.137z"/>
<path fill="#BCBCCC" d="M612.573,4.562l-1.936-0.077l-2.465-0.097l-0.188-0.495l0,0l-0.691-1.837l-0.691-1.837
	c-0.104-0.271-0.27-0.271-0.373,0l-0.691,1.837l-0.691,1.837l0,0l-0.188,0.495l-2.465,0.097l-1.936,0.077
	c-0.291,0.012-0.344,0.171-0.121,0.355c0,0.001,0,0.001,0.001,0.001l1.513,1.238l1.514,1.238l0.408,0.335l-0.139,0.51l-0.506,1.847
	l-0.506,1.847v0.001c-0.076,0.28,0.062,0.381,0.307,0.225l1.619-1.039l2.067-1.324l2.066,1.324l1.62,1.039
	c0.244,0.156,0.382,0.056,0.307-0.225v-0.001l-0.506-1.847l-0.506-1.847l-0.14-0.51l0.409-0.335l1.514-1.238l1.512-1.238
	c0.001,0,0.001,0,0.002-0.001C612.917,4.733,612.864,4.574,612.573,4.562z"/>
<path fill="#F35429" d="M612.573,64.562l-1.936-0.076l-2.465-0.098l-0.188-0.496l0,0l-0.691-1.836l-0.691-1.837
	c-0.104-0.271-0.27-0.271-0.373,0l-0.691,1.837l-0.691,1.836l0,0l-0.188,0.496l-2.465,0.098l-1.936,0.076
	c-0.291,0.012-0.344,0.171-0.121,0.355c0,0,0,0,0.001,0.001l1.513,1.237l1.514,1.239l0.408,0.336l-0.139,0.51l-0.506,1.846
	l-0.506,1.848l0,0c-0.076,0.281,0.062,0.381,0.307,0.225l1.619-1.039l2.067-1.324l2.066,1.324l1.62,1.039
	c0.244,0.156,0.382,0.057,0.307-0.225l0,0l-0.506-1.848l-0.506-1.846l-0.14-0.51l0.409-0.336l1.514-1.239l1.512-1.237
	c0.001-0.001,0.001-0.001,0.001-0.001C612.917,64.733,612.864,64.574,612.573,64.562z"/>
<path fill="#FFFFFF" d="M245.412,834.527h0.79v0.83c0.311-0.666,0.962-0.965,1.653-0.965c1.37,0,2.022,0.963,2.158,1.207
	c0.11-0.246,0.663-1.207,2.08-1.207c1.828,0,2.508,1.377,2.508,2.771v3.695h-0.843v-3.529c0-0.461-0.037-0.967-0.308-1.359
	c-0.335-0.49-0.831-0.762-1.395-0.762c-0.537,0-1.073,0.283-1.374,0.721c-0.269,0.396-0.259,0.939-0.259,1.4v3.529h-0.832v-3.617
	c0-0.48-0.027-0.844-0.3-1.268c-0.316-0.461-0.836-0.758-1.388-0.758c-0.529,0-1.045,0.225-1.361,0.672
	c-0.283,0.414-0.292,0.865-0.292,1.354v3.617h-0.839V834.527z"/>
<path fill="#FFFFFF" d="M262.247,840.859h-0.805v-1.188c-0.476,0.893-1.42,1.344-2.396,1.344c-1.58,0-3.336-1.117-3.336-3.357
	c0-2.08,1.684-3.266,3.315-3.266c0.973,0,1.957,0.438,2.417,1.336v-1.201h0.805V840.859z M256.549,837.727
	c0,1.393,1.176,2.469,2.497,2.469c1.292,0,2.396-1.133,2.396-2.461c0-1.398-1.043-2.525-2.417-2.525
	C257.666,835.209,256.549,836.188,256.549,837.727z"/>
<path fill="#FFFFFF" d="M263.914,832.309h0.84v6.006l2.846-3.787h1.063l-2.39,3.178l2.557,3.154h-1.081l-2.011-2.494l-0.984,1.295
	v1.199h-0.84V832.309z"/>
<path fill="#FFFFFF" d="M269.866,838.006c0.052,1.197,1.191,2.189,2.342,2.189c0.909,0,1.835-0.523,2.206-1.387h0.872
	c-0.432,1.271-1.695,2.207-3.007,2.207c-1.806,0-3.242-1.461-3.242-3.311c0-1.848,1.425-3.312,3.223-3.312
	c0.97,0,1.865,0.451,2.489,1.225c0.571,0.732,0.7,1.473,0.72,2.389H269.866z M274.627,837.227c-0.213-1.119-1.212-2.018-2.356-2.018
	c-1.172,0-2.198,0.846-2.404,2.018H274.627z"/>
<path fill="#FFFFFF" d="M281.906,832.309h0.835v3.346c0.436-0.787,1.424-1.262,2.338-1.262c1.84,0,3.35,1.371,3.35,3.279
	c0,2.137-1.738,3.344-3.267,3.344c-0.893,0-1.981-0.418-2.468-1.246v1.09h-0.788V832.309z M283.338,835.975
	c-0.487,0.506-0.66,1.08-0.66,1.771c0,1.416,1.126,2.449,2.484,2.449c1.343,0,2.434-1.133,2.434-2.5
	c0-1.439-1.113-2.486-2.492-2.486C284.437,835.209,283.804,835.492,283.338,835.975z"/>
<path fill="#FFFFFF" d="M290.246,838.006c0.044,1.197,1.189,2.189,2.339,2.189c0.912,0,1.836-0.523,2.216-1.387h0.871
	c-0.429,1.271-1.702,2.207-3.009,2.207c-1.815,0-3.246-1.461-3.246-3.311c0-1.848,1.422-3.312,3.214-3.312
	c0.985,0,1.868,0.451,2.497,1.225c0.574,0.732,0.699,1.473,0.727,2.389H290.246z M295.011,837.227
	c-0.21-1.119-1.218-2.018-2.362-2.018c-1.164,0-2.194,0.846-2.402,2.018H295.011z"/>
<path fill="#FFFFFF" d="M297.24,832.309h0.831v8.551h-0.831V832.309z"/>
<path fill="#FFFFFF" d="M299.673,832.309h0.834v1.457h-0.834V832.309z M299.673,834.527h0.834v6.332h-0.834V834.527z"/>
<path fill="#FFFFFF" d="M302.729,838.006c0.046,1.197,1.186,2.189,2.333,2.189c0.916,0,1.84-0.523,2.215-1.387h0.871
	c-0.431,1.271-1.693,2.207-3.007,2.207c-1.812,0-3.247-1.461-3.247-3.311c0-1.848,1.421-3.312,3.226-3.312
	c0.972,0,1.866,0.451,2.488,1.225c0.57,0.732,0.698,1.473,0.718,2.389H302.729z M307.489,837.227
	c-0.212-1.119-1.219-2.018-2.363-2.018c-1.162,0-2.194,0.846-2.396,2.018H307.489z"/>
<path fill="#FFFFFF" d="M308.583,834.527h0.906l2.136,5.242l2.142-5.242h0.905l-2.617,6.332h-0.869L308.583,834.527z"/>
<path fill="#FFFFFF" d="M315.764,838.006c0.049,1.197,1.194,2.189,2.331,2.189c0.912,0,1.849-0.523,2.214-1.387h0.872
	c-0.434,1.271-1.694,2.207-3.007,2.207c-1.809,0-3.244-1.461-3.244-3.311c0-1.848,1.423-3.312,3.22-3.312
	c0.974,0,1.873,0.451,2.488,1.225c0.584,0.732,0.71,1.473,0.726,2.389H315.764z M320.521,837.227
	c-0.213-1.119-1.214-2.018-2.358-2.018c-1.167,0-2.196,0.846-2.399,2.018H320.521z"/>
<path fill="#FFFFFF" d="M279.641,839.715c0,0.682-0.53,1.238-1.197,1.238c-0.661,0-1.201-0.557-1.201-1.238
	c0-0.676,0.54-1.232,1.201-1.232C279.11,838.482,279.641,839.039,279.641,839.715z"/>
<path fill="#FFFFFF" d="M271.706,826.064c-3.219,0-6.205-0.992-8.212-2.834c-1.501-1.383-2.235-3.27-2.235-5.201
	c0-1.91,0.764-3.818,2.235-5.199c1.858-1.727,5.137-2.814,8.212-2.814c3.426,0,6.15,0.887,8.232,2.824
	c1.486,1.385,2.205,3.27,2.205,5.189c0,1.857-0.76,3.838-2.205,5.201C278.005,825.088,274.944,826.064,271.706,826.064v-2.115
	c1.723,0,3.305-0.613,4.409-1.736c1.104-1.129,1.616-2.496,1.616-4.184c0-1.625-0.553-3.123-1.616-4.193
	c-1.089-1.1-2.718-1.73-4.409-1.73c-1.692,0-3.313,0.621-4.415,1.73c-1.048,1.07-1.604,2.58-1.604,4.193
	c0,1.604,0.562,3.109,1.604,4.184c1.102,1.117,2.723,1.736,4.415,1.736V826.064z M248.149,810.02c-1.724,0-3.688,0.344-5.341,1.098
	c-1.542,0.705-2.809,1.838-2.809,3.729c0,1.688,1.053,2.68,1.021,2.65c0.453,0.426,1.176,1.146,3.06,1.562
	c0.84,0.188,2.637,0.473,4.436,0.678c1.775,0.189,3.532,0.371,4.247,0.555c0.567,0.148,1.513,0.352,1.513,1.439
	c0,1.096-1.001,1.424-1.179,1.494c-0.178,0.074-1.375,0.637-3.542,0.637c-1.597,0-3.514-0.49-4.215-0.74
	c-0.802-0.295-1.645-0.691-2.437-1.68c-0.195-0.244-0.495-0.918-0.495-1.582h-1.972v5.611h2.177c0,0,0-0.607,0-0.756
	c0-0.076,0.114-0.441,0.47-0.266c0.452,0.215,1.787,0.75,3.19,1.049c1.137,0.244,1.876,0.416,3.293,0.416
	c2.322,0,3.568-0.383,4.425-0.635c0.826-0.242,1.829-0.672,2.634-1.33c0.441-0.354,1.4-1.281,1.4-2.949
	c0-1.611-0.831-2.611-1.136-2.91c-0.402-0.414-0.889-0.732-1.405-0.979c-0.452-0.213-1.157-0.477-1.731-0.615
	c-1.126-0.291-3.66-0.637-4.864-0.762c-1.271-0.143-3.483-0.326-4.355-0.607c-0.271-0.08-0.819-0.354-0.819-0.996
	c0-0.457,0.259-0.85,0.747-1.172c0.776-0.498,2.364-0.805,3.999-0.805c1.952-0.004,3.594,0.439,4.637,0.922
	c0.359,0.178,0.772,0.4,1.108,0.678c0.374,0.311,0.892,0.957,1.084,1.859h1.76v-4.883h-1.959v0.566c0,0.186-0.185,0.42-0.54,0.23
	C253.674,811.049,251.195,810.033,248.149,810.02z M284.29,810.924v1.777h1.52c1.101,0,1.182,0.631,1.182,1.172v8.34
	c0,0.506,0.029,1.182-0.676,1.182c-1.102,0-1.888,0-1.888,0v1.783h8.042v-1.783c0,0-0.857,0-1.959,0
	c-0.779,0-0.824-0.359-0.836-1.146v-7.139l11.023,10.068h2.801l-0.146-11.371c0.02-0.826,0.062-1.109,0.897-1.109
	c1.11,0,1.76,0,1.76,0v-1.773h-8.187v1.773c0,0,0.7,0,1.803,0c0.819,0,0.967,0.332,0.972,1.109l0.1,5.949l-9.566-8.832H284.29z
	 M313.655,823.395v1.783h9.543v-1.787c0,0-1.453,0-1.807,0l-0.473-0.029c-0.19-0.051-0.322-0.188-0.373-0.332l-0.039-0.391
	c0-0.262,0-2.703,0-2.814l0.072-0.268c0.129-0.154,5.065-5.928,5.292-6.178c0.477-0.562,0.735-0.682,1.373-0.682
	c0.593,0,1.756,0,1.756,0v-1.773h-7.863v1.773c0,0,0.964,0,1.178,0c0.351,0,0.445,0.361,0.298,0.557l-3.343,3.996l-0.097-0.01
	l-3.255-3.986c-0.233-0.299-0.041-0.557,0.212-0.557c0.236,0,1.159,0,1.159,0v-1.773h-9.597v1.773c0,0,1.108,0,1.71,0
	c0.742,0,1.224,0.48,1.504,0.795c0.224,0.248,5.11,5.922,5.224,6.082c0.124,0.156,0.124,0.182,0.124,0.25v2.814l-0.032,0.391
	c-0.073,0.145-0.191,0.281-0.377,0.332l-0.48,0.033H313.655z"/>
<path fill="#726E7A" d="M254.243,3.582c0-1.969-1.667-3.566-3.723-3.566c-1.474-0.001-2.794,1.397-3.398,2.588h-0.001
	c-0.604-1.189-1.924-2.588-3.397-2.588c-2.057,0-3.724,1.597-3.724,3.566c0,1.123,1.021,2.289,1.021,2.289l3.729,4.198l-0.007,0.001
	l2.375,2.834v0.001h0l0.001,0.001v-0.002l2.376-2.834l-0.007-0.001l3.731-4.198C253.221,5.871,254.243,4.705,254.243,3.582z"/>
<path fill="#FFF915" d="M254.243,33.582c0-1.969-1.667-3.566-3.723-3.566c-1.474,0-2.794,1.398-3.398,2.588h-0.001
	c-0.604-1.189-1.924-2.588-3.397-2.588c-2.057,0-3.724,1.598-3.724,3.566c0,1.123,1.021,2.289,1.021,2.289l3.729,4.199h-0.007
	l2.375,2.834v0.002h0h0.001v-0.002l2.376-2.834h-0.007l3.731-4.199C253.221,35.871,254.243,34.705,254.243,33.582z"/>
<g>
	<g>
		<path fill="#726E7A" d="M270.25,0.016c-0.138,0-0.25,0.112-0.25,0.25v1.375c0,0.138,0.112,0.25,0.25,0.251l1.564,0.008
			c0.138,0,0.285,0.108,0.328,0.239l2.28,6.981c0.042,0.131,0.19,0.238,0.328,0.238h9c0.138,0,0.292-0.104,0.343-0.232l2.813-7.003
			c0.051-0.127-0.019-0.232-0.157-0.232h-12.612c-0.138,0-0.27-0.111-0.293-0.246l-0.242-1.375
			c-0.024-0.135-0.156-0.246-0.293-0.247L270.25,0.016z M283.057,7.252c-0.042,0.131-0.188,0.238-0.326,0.238h-6.438
			c-0.138,0-0.277-0.109-0.31-0.243L275.185,4c-0.033-0.133,0.053-0.243,0.19-0.243h8.541c0.138,0,0.216,0.107,0.174,0.238
			L283.057,7.252z"/>
	</g>
</g>
<g>
	<ellipse fill="#726E7A" cx="281.524" cy="12.611" rx="1.483" ry="1.393"/>
</g>
<g>
	<ellipse fill="#726E7A" cx="276.483" cy="12.611" rx="1.483" ry="1.393"/>
</g>
<g>
	<g>
		<path fill="#FFFFFF" d="M270.25,30.016c-0.138,0-0.25,0.112-0.25,0.25v1.375c0,0.138,0.112,0.25,0.25,0.251l1.564,0.008
			c0.138,0,0.285,0.108,0.328,0.239l2.28,6.981c0.042,0.131,0.19,0.238,0.328,0.238h9c0.138,0,0.292-0.104,0.343-0.232l2.813-7.003
			c0.051-0.127-0.019-0.232-0.157-0.232h-12.612c-0.138,0-0.27-0.111-0.293-0.246l-0.242-1.373
			c-0.024-0.135-0.156-0.247-0.293-0.247L270.25,30.016z M283.057,37.254c-0.042,0.131-0.188,0.238-0.326,0.238h-6.438
			c-0.138,0-0.277-0.109-0.31-0.243l-0.8-3.249c-0.033-0.133,0.053-0.243,0.19-0.243h8.541c0.138,0,0.216,0.107,0.174,0.238
			L283.057,37.254z"/>
	</g>
</g>
<g>
	<ellipse fill="#FFFFFF" cx="281.524" cy="42.611" rx="1.483" ry="1.393"/>
</g>
<g>
	<ellipse fill="#FFFFFF" cx="276.483" cy="42.611" rx="1.483" ry="1.393"/>
</g>
<polygon fill="#FFFFFF" points="699,3.016 696,3.016 696,0.016 693,0.016 693,3.016 690,3.016 690,6.016 693,6.016 693,9.016 
	696,9.016 696,6.016 699,6.016 "/>
<rect x="570" y="0.016" fill="#FFFFFF" width="4" height="4"/>
<rect x="576" y="0.016" fill="#FFFFFF" width="4" height="4"/>
<rect x="582" y="0.016" fill="#FFFFFF" width="4" height="4"/>
<rect x="570" y="12.016" fill="#FFFFFF" width="4" height="4"/>
<rect x="576" y="12.016" fill="#FFFFFF" width="4" height="4"/>
<rect x="582" y="12.016" fill="#FFFFFF" width="4" height="4"/>
<rect x="570" y="6.016" fill="#FFFFFF" width="4" height="4"/>
<rect x="576" y="6.016" fill="#FFFFFF" width="4" height="4"/>
<rect x="582" y="6.016" fill="#FFFFFF" width="4" height="4"/>
<path fill="#FFFFFF" d="M308.125,0.016c-3.09,0-5.604,2.334-5.604,5.203c0,1.125,0.39,2.166,1.046,3.018l-3.297,3.061
	c-0.36,0.336-0.36,0.883,0,1.217c0.36,0.336,0.95,0.336,1.311,0l3.296-3.061c0.918,0.607,2.037,0.971,3.248,0.971
	c3.091,0,5.604-2.334,5.604-5.205C313.729,2.35,311.216,0.016,308.125,0.016z M308.125,8.703c-2.068,0-3.75-1.562-3.75-3.484
	c0-1.92,1.682-3.482,3.75-3.482s3.751,1.562,3.751,3.482C311.876,7.141,310.193,8.703,308.125,8.703z"/>
<polygon fill="#83838F" points="325.25,10.762 325.25,10.762 321.25,6.19 329.25,6.19 "/>
<path fill="#FFFFFF" d="M308.125,30.016c-3.09,0-5.604,2.334-5.604,5.205c0,1.123,0.39,2.164,1.046,3.016l-3.297,3.061
	c-0.36,0.336-0.36,0.883,0,1.217c0.36,0.336,0.95,0.336,1.311,0l3.296-3.061c0.918,0.607,2.037,0.971,3.248,0.971
	c3.091,0,5.604-2.334,5.604-5.203C313.729,32.35,311.216,30.016,308.125,30.016z M308.125,38.703c-2.068,0-3.75-1.562-3.75-3.482
	c0-1.922,1.682-3.484,3.75-3.484s3.751,1.562,3.751,3.484C311.876,37.141,310.193,38.703,308.125,38.703z"/>
<polygon fill="#FFFFFF" points="325.25,40.762 325.25,40.762 321.25,36.19 329.25,36.19 "/>
<polygon fill="#83838F" points="333.75,4.587 333.75,4.587 329.75,0.016 337.75,0.016 "/>
<polygon fill="#FFFFFF" points="333.75,34.587 333.75,34.587 329.75,30.016 337.75,30.016 "/>
<polygon fill="#83838F" points="363.75,0.016 363.75,0.016 367.75,4.587 359.75,4.587 "/>
<polygon fill="#FFFFFF" points="363.75,30.016 363.75,30.016 367.75,34.587 359.75,34.587 "/>
<polygon fill="#FFFFFF" points="423.75,0.016 423.75,0.016 427.75,4.587 419.75,4.587 "/>
<polygon fill="#FFFFFF" points="393.75,4.587 393.75,4.587 389.75,0.016 397.75,0.016 "/>
<polygon fill="#4571EC" points="453.75,4.587 453.75,4.587 449.75,0.016 457.75,0.016 "/>
<polygon fill="#FFFFFF" points="736,7.016 729,7.016 729,0.016 727,0.016 727,7.016 720,7.016 720,9.016 727,9.016 727,16.016 
	729,16.016 729,9.016 736,9.016 "/>
<polygon fill="#FFFFFF" points="764.364,12.965 759.414,8.016 764.364,3.066 762.95,1.652 758,6.602 753.051,1.652 751.637,3.066 
	756.586,8.016 751.637,12.965 753.051,14.379 758,9.43 762.95,14.379 "/>
<polygon fill="#FFFFFF" points="813,16.516 813,16.516 804,24.391 804,8.641 "/>
<polygon fill="#FFFFFF" points="780,16.516 780,16.516 789,24.391 789,8.641 "/>
<rect x="540" y="2.609" fill="#4571EC" width="7" height="2"/>
<polygon fill="#4571EC" points="550.376,3.75 550.376,3.75 546.106,7.484 546.106,0.016 "/>
<rect x="510" y="2.609" fill="#FFFFFF" width="7" height="2"/>
<polygon fill="#FFFFFF" points="520.376,3.75 520.376,3.75 516.106,7.484 516.106,0.016 "/>
<polygon fill="#BCBCCC" points="663.5,0.016 663.5,0.016 667,4.016 660,4.016 "/>
<polygon fill="#BCBCCC" points="663.5,11.016 663.5,11.016 667,7.016 660,7.016 "/>
<path fill="#DB4C25" d="M254.243,63.582c0-1.969-1.667-3.566-3.723-3.566c-1.474,0-2.794,1.398-3.398,2.588h-0.001
	c-0.604-1.189-1.924-2.588-3.397-2.588c-2.057,0-3.724,1.598-3.724,3.566c0,1.123,1.021,2.289,1.021,2.289l3.729,4.199h-0.007
	l2.375,2.834v0.002h0h0.001v-0.002l2.376-2.834h-0.007l3.731-4.199C253.221,65.871,254.243,64.705,254.243,63.582z"/>
<path fill="#BCBCCC" d="M642.573,4.562l-1.936-0.077l-2.465-0.097l-0.188-0.495l0,0l-0.691-1.837l-0.691-1.837
	c-0.104-0.271-0.27-0.271-0.373,0l-0.691,1.837l-0.691,1.837l0,0l-0.188,0.495l-2.465,0.097l-1.936,0.077
	c-0.291,0.012-0.344,0.171-0.121,0.355c0,0.001,0,0.001,0.001,0.001l1.513,1.238l1.514,1.238l0.408,0.335l-0.139,0.51l-0.506,1.847
	l-0.506,1.847v0.001c-0.076,0.28,0.062,0.381,0.307,0.225l1.619-1.039l2.067-1.324l2.066,1.324l1.62,1.039
	c0.244,0.156,0.382,0.056,0.307-0.225v-0.001l-0.506-1.847l-0.506-1.847l-0.14-0.51l0.409-0.335l1.514-1.238l1.512-1.238
	c0.001,0,0.001,0,0.002-0.001C642.917,4.733,642.864,4.574,642.573,4.562z"/>
<path fill="#BCBCCC" d="M640.103,72.159c0.244,0.156,0.382,0.056,0.307-0.225v-0.001l-0.506-1.847l-0.506-1.847l-0.14-0.51
	l0.409-0.335l1.514-1.238l1.512-1.238c0.001,0,0.001,0,0.002-0.001c0.223-0.185,0.17-0.344-0.121-0.355l-1.936-0.077l-2.465-0.097
	l-0.188-0.495l-0.691-1.837l-0.691-1.837c-0.052-0.136-0.119-0.204-0.187-0.204v9.78l2.066,1.324L640.103,72.159z"/>
<path fill="#F35429" d="M636.229,60.219l-0.691,1.837l-0.691,1.836l-0.188,0.496l-2.465,0.098l-1.936,0.076
	c-0.291,0.012-0.344,0.171-0.121,0.355c0,0,0,0,0.001,0.001l1.513,1.237l1.514,1.239l0.408,0.336l-0.139,0.51l-0.506,1.846
	l-0.506,1.848c-0.076,0.281,0.062,0.381,0.307,0.225l1.619-1.039l2.067-1.324v-9.78C636.349,60.016,636.281,60.083,636.229,60.219z"
	/>
<path fill="#8B9199" d="M245.615,637.38c2.029,0,3.681-1.651,3.681-3.682c0-2.029-1.652-3.683-3.681-3.683
	c-2.031,0-3.684,1.653-3.684,3.683C241.932,635.729,243.584,637.38,245.615,637.38z M245.615,631.321
	c1.31,0,2.375,1.066,2.375,2.377c0,1.31-1.065,2.376-2.375,2.376c-1.311,0-2.377-1.066-2.377-2.376
	C243.238,632.388,244.304,631.321,245.615,631.321z"/>
<path fill="#8B9199" d="M257.212,650.441l2.646-2.587c0.812-0.813,1.255-1.88,1.255-3.016c0-1.135-0.443-2.201-1.245-3.005
	l-0.593-0.593c0.491,0.399,1.101,0.617,1.745,0.617c0.742,0,1.439-0.29,1.964-0.815c1.082-1.081,1.083-2.843,0-3.926l-5.55-5.548
	c-0.521-0.521-1.211-0.807-1.945-0.807c-0.633,0-1.244,0.215-1.739,0.607l-0.062,0.033l-0.15,0.135l-0.062,0.06l-0.054,0.064
	l-0.028,0.034l-4.802,4.886l-0.686,0.686c-0.812,0.812-1.237,1.878-1.241,2.965l-1.925-1.924c-0.523-0.525-1.221-0.814-1.964-0.814
	c-0.742,0-1.438,0.289-1.964,0.814c-1.082,1.082-1.083,2.844,0,3.926l4.568,4.569c0.524,0.522,1.221,0.813,1.963,0.813
	c0.741,0,1.438-0.289,1.964-0.813l1.047-1.079l1.271,1.271l-1.177,1.413c-1.218,1.277-1.199,3.312,0.054,4.566l4.28,4.279
	c0.618,0.617,1.438,0.957,2.312,0.957c0.872,0,1.692-0.34,2.31-0.957c1.272-1.273,1.273-3.346,0.001-4.62L257.212,650.441z
	 M258.481,656.33c-0.384,0.384-0.885,0.575-1.386,0.575c-0.503,0-1.005-0.191-1.388-0.575l-4.281-4.279
	c-0.764-0.766-0.764-2.002-0.005-2.77l1.972-2.365l-3.051-3.053l-1.958,2.017c-0.287,0.287-0.665,0.432-1.041,0.432
	c-0.376,0-0.753-0.145-1.04-0.432l-4.569-4.568c-0.574-0.574-0.574-1.505,0-2.079c0.288-0.288,0.665-0.433,1.041-0.433
	c0.378,0,0.754,0.145,1.041,0.433l3.479,3.479l1.041-1.041c-0.605-1.114-0.451-2.536,0.493-3.479l0.694-0.693l4.885-4.97
	c0.01-0.012,0.014-0.025,0.023-0.036c0.01-0.01,0.023-0.013,0.033-0.021l0.04-0.026c0.282-0.25,0.634-0.375,0.985-0.375
	c0.37,0,0.738,0.139,1.023,0.423l5.55,5.549c0.574,0.574,0.574,1.505,0,2.079c-0.289,0.288-0.665,0.433-1.041,0.433
	c-0.377,0-0.752-0.145-1.04-0.433l-4.685-4.683l-1.863,1.854c0.084,0.067,0.173,0.127,0.251,0.207l5.261,5.26
	c1.149,1.15,1.149,3.013,0,4.163l-3.59,3.51l3.126,3.125C259.246,654.324,259.246,655.563,258.481,656.33z"/>
<path fill="#8B9199" d="M268.911,650.179l-5.019-4.49c-0.229-0.206-0.467-0.25-0.625-0.25c-0.601,0-0.949,0.538-1.352,1.158
	c-0.172,0.269-0.362,0.563-0.582,0.821c-0.204,0.24-0.435,0.446-0.639,0.631c-0.442,0.4-0.859,0.777-0.859,1.313
	c0.001,0.201,0.065,0.501,0.374,0.778l5.021,4.488c0.438,0.394,1.038,0.609,1.69,0.609c0.846,0,1.652-0.358,2.214-0.983
	C270.195,653.071,270.097,651.242,268.911,650.179z M268.161,653.383c-0.314,0.349-0.767,0.549-1.242,0.549
	c-0.324,0-0.623-0.101-0.819-0.276l-4.851-4.337c0.093-0.094,0.218-0.209,0.321-0.301c0.242-0.221,0.514-0.468,0.757-0.754
	c0.257-0.3,0.481-0.644,0.683-0.955c0.084-0.13,0.186-0.286,0.274-0.411l4.755,4.253
	C268.688,651.732,268.742,652.734,268.161,653.383z"/>
<path fill="#8C9299" d="M281.424,646.01v-10.281c0-3.155-2.557-5.713-5.712-5.713S270,632.573,270,635.729v10.281
	c0,2.896,2.163,5.262,4.957,5.635c-0.002,0.027-0.015,0.05-0.015,0.077v6.702h-3.799c-0.425,0-0.771,0.345-0.771,0.77
	c0,0.428,0.346,0.772,0.771,0.772h9.139c0.426,0,0.771-0.345,0.771-0.772c0-0.425-0.345-0.77-0.771-0.77h-3.799v-6.702
	c0-0.027-0.012-0.05-0.015-0.077C279.262,651.271,281.424,648.905,281.424,646.01z M275.712,650.18c-2.299,0-4.169-1.871-4.169-4.17
	v-10.281c0-2.3,1.87-4.172,4.169-4.172s4.169,1.872,4.169,4.172v10.281C279.881,648.309,278.011,650.18,275.712,650.18z"/>
<path fill="#8C9299" d="M275.712,636.014c-0.263,0-0.515-0.103-0.708-0.297c-0.184-0.184-0.286-0.435-0.286-0.698
	c0-0.274,0.102-0.524,0.286-0.708c0.365-0.377,1.04-0.377,1.416,0c0.183,0.184,0.298,0.446,0.298,0.708
	c0,0.251-0.115,0.515-0.298,0.698C276.226,635.911,275.975,636.014,275.712,636.014z"/>
<path fill="#8C9299" d="M273.713,638.961c-0.263,0-0.514-0.104-0.709-0.286c-0.182-0.193-0.296-0.446-0.296-0.708
	s0.114-0.525,0.296-0.708c0.366-0.366,1.041-0.378,1.417,0c0.184,0.183,0.298,0.446,0.298,0.708s-0.114,0.515-0.298,0.708
	C274.227,638.857,273.976,638.961,273.713,638.961z"/>
<path fill="#8C9299" d="M277.711,638.961c-0.263,0-0.515-0.104-0.708-0.286c-0.184-0.193-0.286-0.446-0.286-0.708
	s0.102-0.525,0.286-0.708c0.365-0.366,1.04-0.378,1.417,0c0.183,0.193,0.296,0.446,0.296,0.708c0,0.25-0.114,0.515-0.296,0.708
	C278.225,638.857,277.974,638.961,277.711,638.961z"/>
<path fill="#8B9199" d="M307.537,659.732c-1.158,0-2.245-0.45-3.056-1.267l-3.229-3.247c-1.676-1.687-1.667-4.42,0.017-6.096
	l17.954-17.857c0.81-0.806,1.89-1.25,3.039-1.25c1.158,0,2.244,0.45,3.056,1.267l3.232,3.249c1.675,1.687,1.667,4.42-0.018,6.096
	l-17.956,17.855C309.766,659.288,308.687,659.732,307.537,659.732z M322.261,631.141c-0.85,0-1.648,0.327-2.247,0.922
	l-17.954,17.857c-1.245,1.239-1.251,3.261-0.012,4.506l3.229,3.247c1.193,1.201,3.303,1.207,4.504,0.013l17.956-17.855
	c1.245-1.239,1.25-3.261,0.012-4.506l-3.232-3.249C323.92,631.473,323.118,631.141,322.261,631.141z"/>
<circle fill-rule="evenodd" clip-rule="evenodd" fill="#8B9199" cx="321.176" cy="636.641" r="0.637"/>
<path fill="#8B9199" d="M321.176,637.512c-0.232,0-0.451-0.09-0.616-0.255c-0.338-0.342-0.336-0.895,0.002-1.233
	c0.333-0.327,0.903-0.324,1.23,0.004c0.338,0.341,0.338,0.894-0.002,1.231C321.625,637.423,321.407,637.512,321.176,637.512z
	 M321.176,636.239c-0.107,0-0.208,0.042-0.284,0.117c-0.156,0.155-0.156,0.412,0,0.57c0.15,0.149,0.417,0.15,0.568,0
	c0.156-0.156,0.156-0.411-0.001-0.568C321.384,636.281,321.284,636.239,321.176,636.239z"/>
<circle fill-rule="evenodd" clip-rule="evenodd" fill="#8B9199" cx="323.152" cy="638.62" r="0.637"/>
<path fill="#8B9199" d="M323.154,639.489c-0.235,0-0.455-0.092-0.62-0.258c-0.165-0.165-0.254-0.385-0.253-0.617
	s0.091-0.45,0.257-0.612c0.326-0.327,0.9-0.328,1.23,0.002c0.339,0.342,0.338,0.896-0.003,1.232
	C323.603,639.399,323.385,639.489,323.154,639.489z M323.152,638.217c-0.107,0-0.208,0.041-0.284,0.117
	c-0.077,0.076-0.119,0.177-0.119,0.282c-0.001,0.107,0.042,0.209,0.117,0.286c0.153,0.151,0.417,0.153,0.569,0.003
	c0.154-0.153,0.154-0.415,0-0.57C323.361,638.258,323.259,638.217,323.152,638.217z"/>
<path fill-rule="evenodd" clip-rule="evenodd" fill="#8B9199" d="M319.829,638.852c-0.247,0.247-0.652,0.246-0.898-0.002
	c-0.249-0.251-0.249-0.653,0.001-0.901c0.249-0.247,0.652-0.248,0.899,0.005C320.078,638.2,320.078,638.603,319.829,638.852z"/>
<path fill="#8B9199" d="M319.381,639.271c-0.233,0-0.453-0.091-0.617-0.255c-0.164-0.167-0.254-0.386-0.254-0.618
	c0-0.233,0.091-0.451,0.257-0.615c0.331-0.329,0.906-0.326,1.232,0.007c0.162,0.162,0.252,0.381,0.251,0.613
	c0,0.232-0.091,0.45-0.255,0.615C319.831,639.18,319.613,639.271,319.381,639.271z M319.38,637.998
	c-0.106,0-0.208,0.041-0.284,0.117c-0.076,0.075-0.118,0.176-0.118,0.283s0.042,0.209,0.119,0.286
	c0.15,0.151,0.416,0.152,0.566,0.001c0.076-0.075,0.118-0.177,0.118-0.284s-0.041-0.208-0.116-0.282
	C319.588,638.04,319.488,637.998,319.38,637.998z"/>
<circle fill-rule="evenodd" clip-rule="evenodd" fill="#8B9199" cx="321.355" cy="640.377" r="0.637"/>
<path fill="#8B9199" d="M321.359,641.247c-0.235,0-0.456-0.092-0.62-0.257c-0.165-0.165-0.255-0.385-0.254-0.618
	c0-0.231,0.092-0.449,0.257-0.612c0.33-0.327,0.903-0.327,1.231,0.002c0.164,0.166,0.254,0.386,0.253,0.619
	c-0.001,0.233-0.092,0.451-0.256,0.614C321.807,641.157,321.59,641.247,321.359,641.247z M321.356,639.976
	c-0.108,0-0.208,0.041-0.285,0.117c-0.076,0.074-0.118,0.175-0.118,0.28c0,0.108,0.042,0.209,0.118,0.285
	c0.151,0.152,0.417,0.156,0.568,0.005c0.076-0.076,0.118-0.177,0.118-0.283c0-0.109-0.041-0.211-0.117-0.286
	C321.564,640.017,321.463,639.976,321.356,639.976z"/>
<circle fill-rule="evenodd" clip-rule="evenodd" fill="#8B9199" cx="308.366" cy="649.452" r="0.636"/>
<path fill="#8B9199" d="M308.366,650.322c-0.233,0-0.452-0.091-0.617-0.256c-0.164-0.165-0.254-0.384-0.253-0.616
	c0-0.233,0.091-0.452,0.257-0.615c0.33-0.328,0.904-0.326,1.23,0.002c0.337,0.34,0.336,0.893-0.003,1.231
	C308.815,650.232,308.598,650.322,308.366,650.322z M308.367,649.049c-0.107,0-0.209,0.042-0.285,0.117
	c-0.076,0.077-0.118,0.178-0.118,0.284c-0.001,0.107,0.042,0.208,0.117,0.285c0.152,0.151,0.415,0.153,0.567,0.002
	c0.156-0.157,0.157-0.412,0.001-0.569C308.575,649.091,308.474,649.049,308.367,649.049z"/>
<circle fill-rule="evenodd" clip-rule="evenodd" fill="#8B9199" cx="310.342" cy="651.429" r="0.637"/>
<path fill="#8B9199" d="M310.343,652.299c-0.234,0-0.454-0.091-0.618-0.256c-0.165-0.167-0.254-0.385-0.253-0.617
	c0-0.232,0.091-0.451,0.257-0.614c0.326-0.327,0.9-0.328,1.23,0.002c0.339,0.343,0.337,0.896-0.003,1.233
	C310.792,652.209,310.575,652.299,310.343,652.299z M310.342,651.026c-0.107,0-0.208,0.041-0.283,0.117
	c-0.077,0.076-0.119,0.177-0.119,0.282c-0.001,0.108,0.041,0.21,0.117,0.287c0.151,0.149,0.418,0.151,0.569,0.002
	c0.155-0.153,0.155-0.415,0-0.571C310.551,651.067,310.45,651.026,310.342,651.026z"/>
<circle fill-rule="evenodd" clip-rule="evenodd" fill="#8B9199" cx="306.571" cy="651.209" r="0.637"/>
<path fill="#8B9199" d="M306.571,652.081c-0.233,0-0.452-0.091-0.617-0.256c-0.339-0.342-0.337-0.896,0.003-1.233
	c0.33-0.329,0.904-0.326,1.23,0.007c0.337,0.339,0.336,0.89-0.002,1.229C307.021,651.991,306.803,652.081,306.571,652.081z
	 M306.569,650.808c-0.106,0-0.207,0.042-0.283,0.117c-0.157,0.155-0.157,0.412,0,0.57c0.149,0.15,0.416,0.152,0.567,0.001
	c0.157-0.157,0.157-0.412,0.001-0.567C306.779,650.85,306.677,650.808,306.569,650.808z"/>
<circle fill-rule="evenodd" clip-rule="evenodd" fill="#8B9199" cx="308.545" cy="653.188" r="0.637"/>
<path fill="#8B9199" d="M308.548,654.057c-0.234,0-0.454-0.091-0.62-0.256c-0.166-0.166-0.255-0.386-0.254-0.618
	s0.092-0.45,0.257-0.613c0.33-0.327,0.903-0.327,1.23,0.003c0.338,0.342,0.337,0.895-0.002,1.232
	C308.998,653.968,308.781,654.057,308.548,654.057z M308.546,652.785c-0.108,0-0.208,0.041-0.286,0.117
	c-0.076,0.075-0.118,0.175-0.118,0.281c-0.001,0.107,0.041,0.21,0.117,0.287c0.152,0.15,0.419,0.151,0.568,0.003
	c0.157-0.157,0.158-0.413,0.001-0.57C308.754,652.826,308.653,652.785,308.546,652.785z"/>
<path fill="#F35429" d="M307.537,689.732c-1.158,0-2.245-0.45-3.056-1.267l-3.229-3.247c-1.676-1.687-1.667-4.42,0.017-6.096
	l17.954-17.857c0.81-0.806,1.89-1.25,3.039-1.25c1.158,0,2.244,0.45,3.056,1.267l3.232,3.249c1.675,1.687,1.667,4.42-0.018,6.096
	l-17.956,17.855C309.766,689.288,308.687,689.732,307.537,689.732z M322.261,661.141c-0.85,0-1.648,0.327-2.247,0.922
	l-17.954,17.857c-1.245,1.239-1.251,3.261-0.012,4.506l3.229,3.247c1.193,1.201,3.303,1.207,4.504,0.013l17.956-17.855
	c1.245-1.239,1.25-3.261,0.012-4.506l-3.232-3.249C323.92,661.473,323.118,661.141,322.261,661.141z"/>
<circle fill-rule="evenodd" clip-rule="evenodd" fill="#F35429" cx="321.176" cy="666.641" r="0.637"/>
<path fill="#F35429" d="M321.176,667.512c-0.232,0-0.451-0.09-0.616-0.255c-0.338-0.342-0.336-0.895,0.002-1.233
	c0.333-0.327,0.903-0.324,1.23,0.004c0.338,0.341,0.338,0.894-0.002,1.231C321.625,667.423,321.407,667.512,321.176,667.512z
	 M321.176,666.239c-0.107,0-0.208,0.042-0.284,0.117c-0.156,0.155-0.156,0.412,0,0.57c0.15,0.149,0.417,0.15,0.568,0
	c0.156-0.156,0.156-0.411-0.001-0.568C321.384,666.281,321.284,666.239,321.176,666.239z"/>
<circle fill-rule="evenodd" clip-rule="evenodd" fill="#F35429" cx="323.152" cy="668.62" r="0.637"/>
<path fill="#F35429" d="M323.154,669.489c-0.235,0-0.455-0.092-0.62-0.258c-0.165-0.165-0.254-0.385-0.253-0.617
	s0.091-0.45,0.257-0.612c0.326-0.327,0.9-0.328,1.23,0.002c0.339,0.342,0.338,0.896-0.003,1.232
	C323.603,669.399,323.385,669.489,323.154,669.489z M323.152,668.217c-0.107,0-0.208,0.041-0.284,0.117
	c-0.077,0.076-0.119,0.177-0.119,0.282c-0.001,0.107,0.042,0.209,0.117,0.286c0.153,0.151,0.417,0.153,0.569,0.003
	c0.154-0.153,0.154-0.415,0-0.57C323.361,668.258,323.259,668.217,323.152,668.217z"/>
<path fill-rule="evenodd" clip-rule="evenodd" fill="#F35429" d="M319.829,668.852c-0.247,0.247-0.652,0.246-0.898-0.002
	c-0.249-0.251-0.249-0.653,0.001-0.901c0.249-0.247,0.652-0.248,0.899,0.005C320.078,668.2,320.078,668.603,319.829,668.852z"/>
<path fill="#F35429" d="M319.381,669.271c-0.233,0-0.453-0.091-0.617-0.255c-0.164-0.167-0.254-0.386-0.254-0.618
	c0-0.233,0.091-0.451,0.257-0.615c0.331-0.329,0.906-0.326,1.232,0.007c0.162,0.162,0.252,0.381,0.251,0.613
	c0,0.232-0.091,0.45-0.255,0.615C319.831,669.18,319.613,669.271,319.381,669.271z M319.38,667.998
	c-0.106,0-0.208,0.041-0.284,0.117c-0.076,0.075-0.118,0.176-0.118,0.283s0.042,0.209,0.119,0.286
	c0.15,0.151,0.416,0.152,0.566,0.001c0.076-0.075,0.118-0.177,0.118-0.284s-0.041-0.208-0.116-0.282
	C319.588,668.04,319.488,667.998,319.38,667.998z"/>
<circle fill-rule="evenodd" clip-rule="evenodd" fill="#F35429" cx="321.355" cy="670.377" r="0.637"/>
<path fill="#F35429" d="M321.359,671.247c-0.235,0-0.456-0.092-0.62-0.257c-0.165-0.165-0.255-0.385-0.254-0.618
	c0-0.231,0.092-0.449,0.257-0.612c0.33-0.327,0.903-0.327,1.231,0.002c0.164,0.166,0.254,0.386,0.253,0.619
	c-0.001,0.233-0.092,0.451-0.256,0.614C321.807,671.157,321.59,671.247,321.359,671.247z M321.356,669.976
	c-0.108,0-0.208,0.041-0.285,0.117c-0.076,0.074-0.118,0.175-0.118,0.28c0,0.108,0.042,0.209,0.118,0.285
	c0.151,0.152,0.417,0.156,0.568,0.005c0.076-0.076,0.118-0.177,0.118-0.283c0-0.109-0.041-0.211-0.117-0.286
	C321.564,670.017,321.463,669.976,321.356,669.976z"/>
<circle fill-rule="evenodd" clip-rule="evenodd" fill="#F35429" cx="308.366" cy="679.452" r="0.636"/>
<path fill="#F35429" d="M308.366,680.322c-0.233,0-0.452-0.091-0.617-0.256c-0.164-0.165-0.254-0.384-0.253-0.616
	c0-0.233,0.091-0.452,0.257-0.615c0.33-0.328,0.904-0.326,1.23,0.002c0.337,0.34,0.336,0.893-0.003,1.231
	C308.815,680.232,308.598,680.322,308.366,680.322z M308.367,679.049c-0.107,0-0.209,0.042-0.285,0.117
	c-0.076,0.077-0.118,0.178-0.118,0.284c-0.001,0.107,0.042,0.208,0.117,0.285c0.152,0.151,0.415,0.153,0.567,0.002
	c0.156-0.157,0.157-0.412,0.001-0.569C308.575,679.091,308.474,679.049,308.367,679.049z"/>
<circle fill-rule="evenodd" clip-rule="evenodd" fill="#F35429" cx="310.342" cy="681.429" r="0.637"/>
<path fill="#F35429" d="M310.343,682.299c-0.234,0-0.454-0.091-0.618-0.256c-0.165-0.167-0.254-0.385-0.253-0.617
	c0-0.232,0.091-0.451,0.257-0.614c0.326-0.327,0.9-0.328,1.23,0.002c0.339,0.343,0.337,0.896-0.003,1.233
	C310.792,682.209,310.575,682.299,310.343,682.299z M310.342,681.026c-0.107,0-0.208,0.041-0.283,0.117
	c-0.077,0.076-0.119,0.177-0.119,0.282c-0.001,0.108,0.041,0.21,0.117,0.287c0.151,0.149,0.418,0.151,0.569,0.002
	c0.155-0.153,0.155-0.415,0-0.571C310.551,681.067,310.45,681.026,310.342,681.026z"/>
<circle fill-rule="evenodd" clip-rule="evenodd" fill="#F35429" cx="306.571" cy="681.209" r="0.637"/>
<path fill="#F35429" d="M306.571,682.081c-0.233,0-0.452-0.091-0.617-0.256c-0.339-0.342-0.337-0.896,0.003-1.233
	c0.33-0.329,0.904-0.326,1.23,0.007c0.337,0.339,0.336,0.89-0.002,1.229C307.021,681.991,306.803,682.081,306.571,682.081z
	 M306.569,680.808c-0.106,0-0.207,0.042-0.283,0.117c-0.157,0.155-0.157,0.412,0,0.57c0.149,0.15,0.416,0.152,0.567,0.001
	c0.157-0.157,0.157-0.412,0.001-0.567C306.779,680.85,306.677,680.808,306.569,680.808z"/>
<circle fill-rule="evenodd" clip-rule="evenodd" fill="#F35429" cx="308.545" cy="683.188" r="0.637"/>
<path fill="#F35429" d="M308.548,684.057c-0.234,0-0.454-0.091-0.62-0.256c-0.166-0.166-0.255-0.386-0.254-0.618
	s0.092-0.45,0.257-0.613c0.33-0.327,0.903-0.327,1.23,0.003c0.338,0.342,0.337,0.895-0.002,1.232
	C308.998,683.968,308.781,684.057,308.548,684.057z M308.546,682.785c-0.108,0-0.208,0.041-0.286,0.117
	c-0.076,0.075-0.118,0.175-0.118,0.281c-0.001,0.107,0.041,0.21,0.117,0.287c0.152,0.15,0.419,0.151,0.568,0.003
	c0.157-0.157,0.158-0.413,0.001-0.57C308.754,682.826,308.653,682.785,308.546,682.785z"/>
<path fill="#F35429" d="M281.424,676.06v-10.281c0-3.155-2.557-5.713-5.712-5.713S270,662.623,270,665.778v10.281
	c0,2.896,2.163,5.262,4.957,5.635c-0.002,0.027-0.015,0.05-0.015,0.077v6.702h-3.799c-0.425,0-0.771,0.345-0.771,0.77
	c0,0.428,0.346,0.772,0.771,0.772h9.139c0.426,0,0.771-0.345,0.771-0.772c0-0.425-0.345-0.77-0.771-0.77h-3.799v-6.702
	c0-0.027-0.012-0.05-0.015-0.077C279.262,681.321,281.424,678.955,281.424,676.06z M275.712,680.229
	c-2.299,0-4.169-1.871-4.169-4.17v-10.281c0-2.3,1.87-4.172,4.169-4.172s4.169,1.872,4.169,4.172v10.281
	C279.881,678.358,278.011,680.229,275.712,680.229z"/>
<path fill="#F35429" d="M275.712,666.063c-0.263,0-0.515-0.103-0.708-0.297c-0.184-0.184-0.286-0.435-0.286-0.698
	c0-0.274,0.102-0.524,0.286-0.708c0.365-0.377,1.04-0.377,1.416,0c0.183,0.184,0.298,0.446,0.298,0.708
	c0,0.251-0.115,0.515-0.298,0.698C276.226,665.961,275.975,666.063,275.712,666.063z"/>
<path fill="#F35429" d="M273.713,669.011c-0.263,0-0.514-0.104-0.709-0.286c-0.182-0.193-0.296-0.446-0.296-0.708
	s0.114-0.525,0.296-0.708c0.366-0.366,1.041-0.378,1.417,0c0.184,0.183,0.298,0.446,0.298,0.708s-0.114,0.515-0.298,0.708
	C274.227,668.907,273.976,669.011,273.713,669.011z"/>
<path fill="#F35429" d="M277.711,669.011c-0.263,0-0.515-0.104-0.708-0.286c-0.184-0.193-0.286-0.446-0.286-0.708
	s0.102-0.525,0.286-0.708c0.365-0.366,1.04-0.378,1.417,0c0.183,0.193,0.296,0.446,0.296,0.708c0,0.25-0.114,0.515-0.296,0.708
	C278.225,668.907,277.974,669.011,277.711,669.011z"/>
<path fill="#F35429" d="M245.746,667.38c2.029,0,3.681-1.651,3.681-3.682c0-2.029-1.652-3.683-3.681-3.683
	c-2.031,0-3.684,1.653-3.684,3.683C242.062,665.729,243.715,667.38,245.746,667.38z M245.746,661.321
	c1.31,0,2.375,1.066,2.375,2.377c0,1.31-1.065,2.376-2.375,2.376c-1.311,0-2.377-1.066-2.377-2.376
	C243.369,662.388,244.435,661.321,245.746,661.321z"/>
<path fill="#F35429" d="M257.343,680.441l2.646-2.587c0.812-0.813,1.255-1.88,1.255-3.016c0-1.135-0.443-2.201-1.245-3.005
	l-0.593-0.593c0.491,0.399,1.101,0.617,1.745,0.617c0.742,0,1.439-0.29,1.964-0.815c1.082-1.081,1.083-2.843,0-3.926l-5.55-5.548
	c-0.521-0.521-1.211-0.807-1.945-0.807c-0.633,0-1.244,0.215-1.739,0.607l-0.062,0.033l-0.15,0.135l-0.062,0.06l-0.054,0.064
	l-0.028,0.034l-4.802,4.886l-0.686,0.686c-0.812,0.812-1.237,1.878-1.241,2.965l-1.925-1.924c-0.523-0.525-1.221-0.814-1.964-0.814
	c-0.742,0-1.438,0.289-1.964,0.814c-1.082,1.082-1.083,2.844,0,3.926l4.568,4.569c0.524,0.522,1.221,0.813,1.963,0.813
	c0.741,0,1.438-0.289,1.964-0.813l1.047-1.079l1.271,1.271l-1.177,1.413c-1.218,1.277-1.199,3.312,0.054,4.566l4.28,4.279
	c0.618,0.617,1.438,0.957,2.312,0.957c0.872,0,1.692-0.34,2.31-0.957c1.272-1.273,1.273-3.346,0.001-4.62L257.343,680.441z
	 M258.612,686.33c-0.384,0.384-0.885,0.575-1.386,0.575c-0.503,0-1.005-0.191-1.388-0.575l-4.281-4.279
	c-0.764-0.766-0.764-2.002-0.005-2.77l1.972-2.365l-3.051-3.053l-1.958,2.017c-0.287,0.287-0.665,0.432-1.041,0.432
	c-0.376,0-0.753-0.145-1.04-0.432l-4.569-4.568c-0.574-0.574-0.574-1.505,0-2.079c0.288-0.288,0.665-0.433,1.041-0.433
	c0.378,0,0.754,0.145,1.041,0.433l3.479,3.479l1.041-1.041c-0.605-1.114-0.451-2.536,0.493-3.479l0.694-0.693l4.885-4.97
	c0.01-0.012,0.014-0.025,0.023-0.036c0.01-0.01,0.023-0.013,0.033-0.021l0.04-0.026c0.282-0.25,0.634-0.375,0.985-0.375
	c0.37,0,0.738,0.139,1.023,0.423l5.55,5.549c0.574,0.574,0.574,1.505,0,2.079c-0.289,0.288-0.665,0.433-1.041,0.433
	c-0.377,0-0.752-0.145-1.04-0.433l-4.685-4.683l-1.863,1.854c0.084,0.067,0.173,0.127,0.251,0.207l5.261,5.26
	c1.149,1.15,1.149,3.013,0,4.163l-3.59,3.51l3.126,3.125C259.377,684.324,259.377,685.563,258.612,686.33z"/>
<path fill="#F35429" d="M269.042,680.179l-5.019-4.49c-0.229-0.206-0.467-0.25-0.625-0.25c-0.601,0-0.949,0.538-1.352,1.158
	c-0.172,0.269-0.362,0.563-0.582,0.821c-0.204,0.24-0.435,0.446-0.639,0.631c-0.442,0.4-0.859,0.777-0.859,1.313
	c0.001,0.201,0.065,0.501,0.374,0.778l5.021,4.488c0.438,0.394,1.038,0.609,1.69,0.609c0.846,0,1.652-0.358,2.214-0.983
	C270.326,683.071,270.228,681.242,269.042,680.179z M268.292,683.383c-0.314,0.349-0.767,0.549-1.242,0.549
	c-0.324,0-0.623-0.101-0.819-0.276l-4.851-4.337c0.093-0.094,0.218-0.209,0.321-0.301c0.242-0.221,0.514-0.468,0.757-0.754
	c0.257-0.3,0.481-0.644,0.683-0.955c0.084-0.13,0.186-0.286,0.274-0.411l4.755,4.253
	C268.818,681.732,268.873,682.734,268.292,683.383z"/>
<polygon fill-rule="evenodd" clip-rule="evenodd" fill="#FFFFFF" points="850.268,1.842 848.44,0.016 844.164,4.291 841.826,1.953 
	840,3.779 842.338,6.117 842.329,6.127 844.156,7.953 844.165,7.943 844.174,7.953 846,6.127 845.991,6.117 "/>
<polygon fill-rule="evenodd" clip-rule="evenodd" fill="#FFFFFF" points="879.92,2.131 877.805,0.016 874.971,2.85 872.145,0.023 
	870,2.168 872.826,4.995 870.021,7.8 872.137,9.915 874.941,7.11 877.775,9.944 879.92,7.8 877.086,4.965 "/>
<path fill-rule="evenodd" clip-rule="evenodd" fill="#BCBCCC" d="M907.5,0.016c-4.143,0-7.5,3.358-7.5,7.5
	c0,4.142,3.357,7.5,7.5,7.5c4.142,0,7.5-3.358,7.5-7.5C915,3.374,911.642,0.016,907.5,0.016z M907.5,13.515c-3.313,0-6-2.687-6-6
	s2.687-6,6-6s6,2.687,6,6S910.813,13.515,907.5,13.515z"/>
<polygon fill-rule="evenodd" clip-rule="evenodd" fill="#BCBCCC" points="910.699,5.371 909.633,4.305 907.492,6.445 905.352,4.305 
	904.285,5.371 906.426,7.512 904.285,9.652 905.352,10.719 907.492,8.578 909.633,10.719 910.699,9.652 908.559,7.512 "/>
<g>
	<path fill="#91919E" d="M271,380.766c0.133,0,0.25,0.117,0.25,0.25v1c0,0.133-0.117,0.25-0.25,0.25h-29
		c-0.133,0-0.25-0.117-0.25-0.25v-1c0-0.133,0.117-0.25,0.25-0.25H271 M271,379.016h-29c-1.1,0-2,0.9-2,2v1c0,1.1,0.9,2,2,2h29
		c1.1,0,2-0.9,2-2v-1C273,379.916,272.1,379.016,271,379.016L271,379.016z"/>
</g>
<g>
	<path fill="#91919E" d="M269,361.766c0.133,0,0.25,0.117,0.25,0.25v14c0,0.133-0.117,0.25-0.25,0.25h-25
		c-0.133,0-0.25-0.117-0.25-0.25v-14c0-0.133,0.117-0.25,0.25-0.25H269 M269,360.016h-25c-1.1,0-2,0.9-2,2v14c0,1.1,0.9,2,2,2h25
		c1.1,0,2-0.9,2-2v-14C271,360.916,270.1,360.016,269,360.016L269,360.016z"/>
</g>
<path fill="#91919E" d="M343.875,380.766h-12c-1.034,0-1.875-0.842-1.875-1.875v-7c0-1.033,0.841-1.875,1.875-1.875
	c0.066,0,0.125-0.059,0.125-0.125v-3c0-0.066-0.059-0.125-0.125-0.125c-1.034,0-1.875-0.842-1.875-1.875v-3
	c0-1.033,0.841-1.875,1.875-1.875h9c0.777,0,1.776,0.414,2.326,0.963l1.586,1.586c0.549,0.55,0.963,1.549,0.963,2.326v14
	C345.75,379.924,344.909,380.766,343.875,380.766z M331.875,361.766c-0.066,0-0.125,0.059-0.125,0.125v3
	c0,0.066,0.059,0.125,0.125,0.125c1.034,0,1.875,0.842,1.875,1.875v3c0,1.033-0.841,1.875-1.875,1.875
	c-0.066,0-0.125,0.059-0.125,0.125v7c0,0.066,0.059,0.125,0.125,0.125h12c0.066,0,0.125-0.059,0.125-0.125v-14
	c0-0.316-0.228-0.865-0.451-1.088l-1.586-1.586c-0.223-0.224-0.772-0.451-1.088-0.451H331.875z"/>
<path fill="#91919E" d="M342.875,375.891c0,1.1-0.9,2-2,2h-6c-1.1,0-2-0.9-2-2v-2c0-1.1,0.9-2,2-2h6c1.1,0,2,0.9,2,2V375.891z"/>
<path fill="#91919E" d="M340.322,363.785c-0.246-0.492-0.648-0.492-0.895,0l-1.105,2.211c-0.246,0.492,0.003,0.895,0.553,0.895h2
	c0.55,0,0.799-0.402,0.553-0.895L340.322,363.785z"/>
<path fill="#91919E" d="M392,360.016h-30c-1.1,0-2,0.9-2,2v17c0,1.1,0.9,2,2,2h13v3.125h-7c-0.483,0-0.875,0.392-0.875,0.875
	s0.392,0.875,0.875,0.875h18c0.483,0,0.875-0.392,0.875-0.875s-0.392-0.875-0.875-0.875h-7v-3.125h13c1.1,0,2-0.9,2-2v-17
	C394,360.916,393.1,360.016,392,360.016z M392.25,379.016c0,0.133-0.117,0.25-0.25,0.25h-30c-0.133,0-0.25-0.117-0.25-0.25v-17
	c0-0.133,0.117-0.25,0.25-0.25h30c0.133,0,0.25,0.117,0.25,0.25V379.016z"/>
<g>
	<path fill="#91919E" d="M455,361.766c0.133,0,0.25,0.117,0.25,0.25v12c0,0.133-0.117,0.25-0.25,0.25h-33
		c-0.133,0-0.25-0.117-0.25-0.25v-12c0-0.133,0.117-0.25,0.25-0.25H455 M455,360.016h-33c-1.1,0-2,0.9-2,2v12c0,1.1,0.9,2,2,2h33
		c1.1,0,2-0.9,2-2v-12C457,360.916,456.1,360.016,455,360.016L455,360.016z"/>
</g>
<circle fill="none" stroke="#91919E" stroke-width="1.75" stroke-miterlimit="10" cx="448" cy="368.017" r="4"/>
<line fill="none" stroke="#91919E" stroke-linecap="round" stroke-miterlimit="10" x1="425" y1="365.016" x2="432" y2="365.016"/>
<line fill="none" stroke="#91919E" stroke-linecap="round" stroke-miterlimit="10" x1="425" y1="368.016" x2="432" y2="368.016"/>
<line fill="none" stroke="#91919E" stroke-linecap="round" stroke-miterlimit="10" x1="425" y1="371.016" x2="432" y2="371.016"/>
<g>
	<path fill="#91919E" d="M426,377.016c0,0.55-0.45,1-1,1h-1c-0.55,0-1-0.45-1-1v-1c0-0.55,0.45-1,1-1h1c0.55,0,1,0.45,1,1V377.016z"
		/>
</g>
<g>
	<path fill="#91919E" d="M454,377.016c0,0.55-0.45,1-1,1h-1c-0.55,0-1-0.45-1-1v-1c0-0.55,0.45-1,1-1h1c0.55,0,1,0.45,1,1V377.016z"
		/>
</g>
<path fill="#91919E" d="M487.001,362.502l3.54,6.139c0.494,0.855,1.23,2.328,1.642,3.279c0.02,0.11,0.067,0.438,0.067,1.078
	c0,2.895-2.355,5.25-5.25,5.25s-5.25-2.355-5.25-5.25c0-0.641,0.047-0.967,0.067-1.078c0.413-0.953,1.148-2.425,1.642-3.28
	L487.001,362.502 M487,360.016c-0.362,0-0.725,0.238-0.999,0.715l-4.058,7.035c-0.549,0.952-1.351,2.561-1.781,3.572
	c0,0-0.163,0.383-0.163,1.66c0,3.865,3.135,7,7,7c3.866,0,7-3.135,7-7c0-1.277-0.162-1.659-0.162-1.659
	c-0.43-1.013-1.231-2.621-1.781-3.573L488,360.73C487.725,360.254,487.362,360.016,487,360.016L487,360.016z"/>
<path fill="#91919E" d="M520,374.016v-9c0-2.762-2.238-5-5-5s-5,2.238-5,5v9c0,2.467,1.792,4.506,4.143,4.914
	c-0.003,0.029-0.018,0.055-0.018,0.086v6c0,0.045,0.019,0.082,0.025,0.125H511c-0.483,0-0.875,0.392-0.875,0.875
	s0.392,0.875,0.875,0.875h8c0.483,0,0.875-0.392,0.875-0.875s-0.392-0.875-0.875-0.875h-3.15c0.006-0.043,0.025-0.08,0.025-0.125v-6
	c0-0.031-0.015-0.057-0.018-0.086C518.208,378.521,520,376.482,520,374.016z M518.25,374.016c0,1.792-1.458,3.25-3.25,3.25
	s-3.25-1.458-3.25-3.25v-9c0-1.792,1.458-3.25,3.25-3.25s3.25,1.458,3.25,3.25V374.016z"/>
<path fill="#91919E" d="M551.625,365.179v-2.288c0-0.483-0.392-0.875-0.875-0.875s-0.875,0.392-0.875,0.875v2.288
	c-1.062,0.18-1.875,1.1-1.875,2.212v7c0,1.112,0.813,2.032,1.875,2.212v5.288c0,1.723-1.402,3.125-3.125,3.125
	s-3.125-1.402-3.125-3.125v-7.288c1.062-0.18,1.875-1.1,1.875-2.212v-7c0-1.112-0.813-2.032-1.875-2.212v-2.288
	c0-0.483-0.392-0.875-0.875-0.875s-0.875,0.392-0.875,0.875v2.288c-1.062,0.18-1.875,1.1-1.875,2.212v7
	c0,1.112,0.813,2.032,1.875,2.212v7.288c0,2.688,2.187,4.875,4.875,4.875s4.875-2.188,4.875-4.875v-5.288
	c1.062-0.18,1.875-1.1,1.875-2.212v-7C553.5,366.278,552.687,365.358,551.625,365.179z M542.25,364.891h1c0.275,0,0.5,0.225,0.5,0.5
	v2.5h-2v-2.5C541.75,365.115,541.975,364.891,542.25,364.891z M551.75,374.391c0,0.275-0.225,0.5-0.5,0.5h-1
	c-0.275,0-0.5-0.225-0.5-0.5v-7c0-0.275,0.225-0.5,0.5-0.5h1c0.275,0,0.5,0.225,0.5,0.5V374.391z"/>
<g>
	<path fill="#91919E" d="M317,361.766c0.133,0,0.25,0.117,0.25,0.25v22c0,0.133-0.117,0.25-0.25,0.25h-15
		c-0.133,0-0.25-0.117-0.25-0.25v-22c0-0.133,0.117-0.25,0.25-0.25H317 M317,360.016h-15c-1.1,0-2,0.9-2,2v22c0,1.1,0.9,2,2,2h15
		c1.1,0,2-0.9,2-2v-22C319,360.916,318.1,360.016,317,360.016L317,360.016z"/>
</g>
<g>
	<path fill="#91919E" d="M315,364.016v16h-11v-16H315 M316,363.016h-13v18h13V363.016L316,363.016z"/>
</g>
<g>
	<path fill="#91919E" d="M583,361.766c6.203,0,11.25,5.047,11.25,11.25s-5.047,11.25-11.25,11.25s-11.25-5.047-11.25-11.25
		S576.797,361.766,583,361.766 M583,360.016c-7.18,0-13,5.82-13,13s5.82,13,13,13s13-5.82,13-13S590.18,360.016,583,360.016
		L583,360.016z"/>
</g>
<g>
	<path fill="#91919E" d="M583,369.016c2.206,0,4,1.794,4,4s-1.794,4-4,4s-4-1.794-4-4S580.794,369.016,583,369.016 M583,368.016
		c-2.762,0-5,2.238-5,5s2.238,5,5,5s5-2.238,5-5S585.762,368.016,583,368.016L583,368.016z"/>
</g>
<g>
	<path fill="#91919E" d="M583,371.516c0.827,0,1.5,0.673,1.5,1.5s-0.673,1.5-1.5,1.5s-1.5-0.673-1.5-1.5
		S582.173,371.516,583,371.516 M583,370.516c-1.381,0-2.5,1.119-2.5,2.5s1.119,2.5,2.5,2.5s2.5-1.119,2.5-2.5
		S584.381,370.516,583,370.516L583,370.516z"/>
</g>
<path fill="#91919E" d="M626.867,381.766h-12.084c-0.483,0-0.875-0.392-0.875-0.875v-11.5c0-0.484,0.392-0.875,0.875-0.875h16.334
	c0.483,0,0.875,0.391,0.875,0.875v7.25C631.992,379.467,629.693,381.766,626.867,381.766z M615.658,380.016h11.209
	c1.861,0,3.375-1.514,3.375-3.375v-6.375h-14.584V380.016z"/>
<path fill="#91919E" d="M631.504,360.016h-30.629c-0.483,0-0.875,0.392-0.875,0.875v9.272c0,0.483,0.392,0.875,0.875,0.875h3.762
	v3.671c0,3.891,3.165,7.057,7.056,7.057c0.483,0,0.875-0.392,0.875-0.875v-13.717h18.937c1.974,0,3.58-1.605,3.58-3.578
	C635.084,361.621,633.478,360.016,631.504,360.016z M601.75,361.766h1.482v7.522h-1.482V361.766z M631.504,365.424h-19.812
	c-0.483,0-0.875,0.393-0.875,0.875v13.645c-2.511-0.418-4.431-2.606-4.431-5.234v-4.546c0-0.483-0.392-0.875-0.875-0.875h-1.279
	v-7.522h27.271c1.009,0,1.83,0.82,1.83,1.83C633.334,364.604,632.513,365.424,631.504,365.424z"/>
<path fill="#91919E" d="M692.625,387.766h-19.75c-0.483,0-0.875-0.392-0.875-0.875v-16c0-0.483,0.392-0.875,0.875-0.875h24
	c0.483,0,0.875,0.392,0.875,0.875v11.75C697.75,385.467,695.451,387.766,692.625,387.766z M673.75,386.016h18.875
	c1.861,0,3.375-1.514,3.375-3.375v-10.875h-22.25V386.016z"/>
<path fill="#91919E" d="M664.875,383.766h-4c-0.483,0-0.875-0.392-0.875-0.875v-10c0-0.483,0.392-0.875,0.875-0.875h4
	c0.292,0,0.566,0.146,0.728,0.39l1.074,1.61h3.198c0.483,0,0.875,0.393,0.875,0.875v6c0,0.484-0.392,0.875-0.875,0.875h-3.199
	l-1.073,1.61C665.441,383.619,665.167,383.766,664.875,383.766z M661.75,382.016h2.657l1.073-1.609
	c0.162-0.244,0.436-0.391,0.728-0.391H669v-4.25h-2.791c-0.292,0-0.566-0.146-0.728-0.389l-1.074-1.611h-2.657V382.016z"/>
<path fill="#91919E" d="M694.875,368.766h-4c-0.275,0-0.535-0.13-0.7-0.35l-2.737-3.65h-6.688v3.125
	c0,0.483-0.392,0.875-0.875,0.875h-3c-0.483,0-0.875-0.392-0.875-0.875v-7c0-0.483,0.392-0.875,0.875-0.875h13
	c0.282,0,0.548,0.137,0.712,0.366l5,7c0.19,0.267,0.216,0.618,0.066,0.909C695.503,368.582,695.203,368.766,694.875,368.766z
	 M691.312,367.016h1.862l-3.75-5.25H677.75v5.25H679v-3.125c0-0.483,0.392-0.875,0.875-0.875h8c0.275,0,0.535,0.13,0.7,0.35
	L691.312,367.016z"/>
<path fill="#91919E" d="M725.875,366.766h-5c-0.483,0-0.875-0.392-0.875-0.875v-5c0-0.483,0.392-0.875,0.875-0.875h5
	c0.483,0,0.875,0.392,0.875,0.875v5C726.75,366.374,726.358,366.766,725.875,366.766z M721.75,365.016H725v-3.25h-3.25V365.016z"/>
<path fill="#91919E" d="M735.875,366.766h-5c-0.483,0-0.875-0.392-0.875-0.875v-5c0-0.483,0.392-0.875,0.875-0.875h5
	c0.483,0,0.875,0.392,0.875,0.875v5C736.75,366.374,736.358,366.766,735.875,366.766z M731.75,365.016H735v-3.25h-3.25V365.016z"/>
<path fill="#91919E" d="M745.875,366.766h-5c-0.483,0-0.875-0.392-0.875-0.875v-5c0-0.483,0.392-0.875,0.875-0.875h5
	c0.483,0,0.875,0.392,0.875,0.875v5C746.75,366.374,746.358,366.766,745.875,366.766z M741.75,365.016H745v-3.25h-3.25V365.016z"/>
<path fill="#91919E" d="M725.875,376.766h-5c-0.483,0-0.875-0.392-0.875-0.875v-5c0-0.483,0.392-0.875,0.875-0.875h5
	c0.483,0,0.875,0.392,0.875,0.875v5C726.75,376.374,726.358,376.766,725.875,376.766z M721.75,375.016H725v-3.25h-3.25V375.016z"/>
<path fill="#91919E" d="M735.875,376.766h-5c-0.483,0-0.875-0.392-0.875-0.875v-5c0-0.483,0.392-0.875,0.875-0.875h5
	c0.483,0,0.875,0.392,0.875,0.875v5C736.75,376.374,736.358,376.766,735.875,376.766z M731.75,375.016H735v-3.25h-3.25V375.016z"/>
<path fill="#91919E" d="M745.875,376.766h-5c-0.483,0-0.875-0.392-0.875-0.875v-5c0-0.483,0.392-0.875,0.875-0.875h5
	c0.483,0,0.875,0.392,0.875,0.875v5C746.75,376.374,746.358,376.766,745.875,376.766z M741.75,375.016H745v-3.25h-3.25V375.016z"/>
<path fill="#91919E" d="M725.875,386.766h-5c-0.483,0-0.875-0.392-0.875-0.875v-5c0-0.483,0.392-0.875,0.875-0.875h5
	c0.483,0,0.875,0.392,0.875,0.875v5C726.75,386.374,726.358,386.766,725.875,386.766z M721.75,385.016H725v-3.25h-3.25V385.016z"/>
<path fill="#91919E" d="M735.875,386.766h-5c-0.483,0-0.875-0.392-0.875-0.875v-5c0-0.483,0.392-0.875,0.875-0.875h5
	c0.483,0,0.875,0.392,0.875,0.875v5C736.75,386.374,736.358,386.766,735.875,386.766z M731.75,385.016H735v-3.25h-3.25V385.016z"/>
<path fill="#91919E" d="M745.875,386.766h-5c-0.483,0-0.875-0.392-0.875-0.875v-5c0-0.483,0.392-0.875,0.875-0.875h5
	c0.483,0,0.875,0.392,0.875,0.875v5C746.75,386.374,746.358,386.766,745.875,386.766z M741.75,385.016H745v-3.25h-3.25V385.016z"/>
<path fill="#91919E" d="M803.875,373.266c-0.482,0-0.875-0.392-0.875-0.875v-1c0-5.307-4.317-9.625-9.625-9.625
	c-5.307,0-9.625,4.318-9.625,9.625v1c0,0.483-0.391,0.875-0.875,0.875c-0.482,0-0.875-0.392-0.875-0.875v-1
	c0-6.271,5.104-11.375,11.375-11.375c6.272,0,11.375,5.104,11.375,11.375v1C804.75,372.874,804.359,373.266,803.875,373.266z"/>
<path fill="#91919E" d="M803.875,386.266c-1.585,0-2.875-1.289-2.875-2.875v-6c0-1.586,1.29-2.875,2.875-2.875
	c1.586,0,2.875,1.289,2.875,2.875v6C806.75,384.977,805.461,386.266,803.875,386.266z M803.875,376.266
	c-0.619,0-1.125,0.505-1.125,1.125v6c0,0.62,0.506,1.125,1.125,1.125c0.621,0,1.125-0.505,1.125-1.125v-6
	C805,376.771,804.496,376.266,803.875,376.266z"/>
<path fill="#91919E" d="M782.875,386.266c-1.585,0-2.875-1.289-2.875-2.875v-6c0-1.586,1.29-2.875,2.875-2.875
	c1.586,0,2.875,1.289,2.875,2.875v6C785.75,384.977,784.461,386.266,782.875,386.266z M782.875,376.266
	c-0.619,0-1.125,0.505-1.125,1.125v6c0,0.62,0.506,1.125,1.125,1.125c0.621,0,1.125-0.505,1.125-1.125v-6
	C784,376.771,783.496,376.266,782.875,376.266z"/>
<path fill="#91919E" d="M827.202,360.125l-6.8-0.002c-1.586,0-2.876,1.29-2.876,2.875l-0.001,0.801c0,1.586,1.29,2.875,2.875,2.875
	l5.238,0.001v16.341c0,0.276,0.224,0.5,0.5,0.5s0.5-0.224,0.5-0.5v-16.341h0.563c1.585,0,2.875-1.29,2.875-2.875V363
	C830.077,361.414,828.787,360.125,827.202,360.125z M828.327,363.8c0,0.62-0.505,1.125-1.125,1.125l-6.802-0.001
	c-0.62,0-1.125-0.504-1.125-1.123l0.001-0.803c0-0.619,0.505-1.125,1.126-1.125l6.8,0.002c0.62,0,1.125,0.504,1.125,1.125V363.8z"/>
<path fill="#91919E" d="M814.424,360.016c-0.619,0-1.814,0.355-2.719,0.809c-0.939,0.471-1.705,1.625-1.705,2.574
	c0,0.948,0.766,2.103,1.705,2.574c0.904,0.453,2.1,0.808,2.717,0.808c0.846,0.001,1.302-1.474,1.302-2.862v-1.041
	C815.724,361.491,815.268,360.016,814.424,360.016z"/>
<path fill="#91919E" d="M844.6,360.123l-6.801,0.002c-1.585,0-2.875,1.289-2.875,2.875v0.8c0,1.585,1.29,2.875,2.875,2.875h0.564
	v16.341c0,0.276,0.224,0.5,0.5,0.5s0.5-0.224,0.5-0.5v-16.341l5.237-0.001c1.585,0,2.874-1.289,2.874-2.875v-0.801
	C847.475,361.413,846.185,360.123,844.6,360.123z M845.725,363.799c0,0.621-0.504,1.125-1.124,1.125l-6.802,0.001
	c-0.62,0-1.125-0.505-1.125-1.125V363c0-0.621,0.505-1.125,1.125-1.125l6.801-0.002c0.62,0,1.125,0.506,1.125,1.125V363.799z"/>
<path fill="#91919E" d="M853.295,360.824c-0.904-0.453-2.1-0.809-2.717-0.809c-0.846,0-1.301,1.476-1.301,2.861v1.041
	c0,1.389,0.457,2.863,1.301,2.862c0.619,0,1.814-0.354,2.718-0.808c0.94-0.472,1.704-1.626,1.704-2.574
	C855,362.449,854.236,361.295,853.295,360.824z"/>
<path fill="#91919E" d="M910.875,374.431c1.654,0,3-1.346,3-3s-1.346-3-3-3s-3,1.346-3,3S909.221,374.431,910.875,374.431z
	 M910.875,369.431c1.104,0,2,0.897,2,2s-0.896,2-2,2s-2-0.897-2-2S909.771,369.431,910.875,369.431z"/>
<path fill="#91919E" d="M943.725,370.128c-0.443-0.192-0.959,0.011-1.152,0.454c-1.133,2.609-2.52,4.089-4.122,4.397
	c-2.296,0.442-4.437-1.647-4.448-1.66c-13.715-14.04-22.703-13.382-23.688-13.264c-5.501,0.039-10.314,5.337-10.314,11.375v0.875
	h3.557c0.436,3.655,3.549,6.5,7.318,6.5c4.066,0,7.375-3.309,7.375-7.375s-3.309-7.375-7.375-7.375c-3.77,0-6.883,2.845-7.318,6.5
	h-1.762c0.432-4.296,3.959-8.75,8.58-8.75l0.132-0.01c0.085-0.013,8.733-1.083,22.25,12.753c0.101,0.102,2.277,2.242,5.04,2.242
	c0.316,0,0.641-0.027,0.972-0.091c2.209-0.419,4.028-2.243,5.409-5.421C944.371,370.836,944.168,370.32,943.725,370.128z
	 M910.875,365.806c3.102,0,5.625,2.523,5.625,5.625s-2.523,5.625-5.625,5.625s-5.625-2.523-5.625-5.625
	S907.773,365.806,910.875,365.806z"/>
<path fill="#91919E" d="M884.572,365.882l-6.061-4.986c-0.244-0.183-1.516-1.077-2.686-0.841c-1.897,0.385-2.418,2.232-2.429,3.166
	l0.001,3.252c0,0.077,0.025,0.146,0.044,0.219c-0.673,0.318-1.144,1.006-1.144,1.809v3.104c-1.361,0.711-2.299,2.119-2.299,3.762
	c0,2.359,1.912,4.271,4.273,4.271c2.358,0,4.271-1.912,4.271-4.271c0-1.643-0.937-3.052-2.299-3.763V368.5
	c0-0.801-0.47-1.488-1.143-1.809c0.02-0.071,0.045-0.141,0.045-0.219l-0.001-3.242c0-0.013,0.025-1.258,1.026-1.461
	c0.251-0.049,0.895,0.236,1.258,0.503l6.008,4.943c0.059,0.052,1.419,1.284,1.419,3.452v4.926c0.002,0.789-0.213,3.203-1.253,3.982
	l-4.127,3.67c-0.342,0.252-1.724,1.419-1.617,3.773c0.021,0.469,0.408,0.835,0.873,0.835c0.014,0,0.027-0.001,0.041-0.001
	c0.482-0.021,0.855-0.431,0.834-0.914c-0.072-1.59,0.861-2.254,0.891-2.273c0.037-0.025,0.073-0.052,0.107-0.082l4.103-3.652
	c1.855-1.383,1.899-4.941,1.898-5.34v-4.924C886.608,367.676,884.671,365.967,884.572,365.882z M875.246,374.137
	c0,0.55-0.438,1-0.975,1c-0.535,0-0.973-0.45-0.973-1V368.5c0-0.551,0.438-1,0.973-1c0.536,0,0.975,0.449,0.975,1V374.137z"/>
<path fill-rule="evenodd" clip-rule="evenodd" fill="#FFFFFF" d="M750,390.016h7v7h-7V390.016z"/>
<path fill-rule="evenodd" clip-rule="evenodd" fill="#FFFFFF" d="M760,390.016h6.969v7H760V390.016z"/>
<path fill-rule="evenodd" clip-rule="evenodd" fill="#FFFFFF" d="M770,390.016h7v7h-7V390.016z"/>
<path fill-rule="evenodd" clip-rule="evenodd" fill="#FFFFFF" d="M750,399.984h7v7h-7V399.984z"/>
<path fill-rule="evenodd" clip-rule="evenodd" fill="#FFFFFF" d="M760,399.984h6.969v7H760V399.984z"/>
<path fill-rule="evenodd" clip-rule="evenodd" fill="#FFFFFF" d="M770,399.984h7v7h-7V399.984z"/>
<path fill-rule="evenodd" clip-rule="evenodd" fill="#FFFFFF" d="M750,409.984h7v7.031h-7V409.984z"/>
<path fill-rule="evenodd" clip-rule="evenodd" fill="#FFFFFF" d="M760,409.984h6.969v7.031H760V409.984z"/>
<path fill-rule="evenodd" clip-rule="evenodd" fill="#FFFFFF" d="M770,409.984h7v7.031h-7V409.984z"/>
<path fill-rule="evenodd" clip-rule="evenodd" fill="#91919E" d="M750,360.016h7v7h-7V360.016z"/>
<path fill-rule="evenodd" clip-rule="evenodd" fill="#91919E" d="M760,360.016h6.969v7H760V360.016z"/>
<path fill-rule="evenodd" clip-rule="evenodd" fill="#91919E" d="M770,360.016h7v7h-7V360.016z"/>
<path fill-rule="evenodd" clip-rule="evenodd" fill="#91919E" d="M750,369.984h7v7h-7V369.984z"/>
<path fill-rule="evenodd" clip-rule="evenodd" fill="#91919E" d="M760,369.984h6.969v7H760V369.984z"/>
<path fill-rule="evenodd" clip-rule="evenodd" fill="#91919E" d="M770,369.984h7v7h-7V369.984z"/>
<path fill-rule="evenodd" clip-rule="evenodd" fill="#91919E" d="M750,379.984h7v7.031h-7V379.984z"/>
<path fill-rule="evenodd" clip-rule="evenodd" fill="#91919E" d="M760,379.984h6.969v7.031H760V379.984z"/>
<path fill-rule="evenodd" clip-rule="evenodd" fill="#91919E" d="M770,379.984h7v7.031h-7V379.984z"/>
<path fill-rule="evenodd" clip-rule="evenodd" fill="#F35429" d="M750,420.016h7v7h-7V420.016z"/>
<path fill-rule="evenodd" clip-rule="evenodd" fill="#F35429" d="M760,420.016h6.969v7H760V420.016z"/>
<path fill-rule="evenodd" clip-rule="evenodd" fill="#F35429" d="M770,420.016h7v7h-7V420.016z"/>
<path fill-rule="evenodd" clip-rule="evenodd" fill="#F35429" d="M750,429.984h7v7h-7V429.984z"/>
<path fill-rule="evenodd" clip-rule="evenodd" fill="#F35429" d="M760,429.984h6.969v7H760V429.984z"/>
<path fill-rule="evenodd" clip-rule="evenodd" fill="#F35429" d="M770,429.984h7v7h-7V429.984z"/>
<path fill-rule="evenodd" clip-rule="evenodd" fill="#F35429" d="M750,439.984h7v7.031h-7V439.984z"/>
<path fill-rule="evenodd" clip-rule="evenodd" fill="#F35429" d="M760,439.984h6.969v7.031H760V439.984z"/>
<path fill-rule="evenodd" clip-rule="evenodd" fill="#F35429" d="M770,439.984h7v7.031h-7V439.984z"/>
<path fill="#91919E" d="M999.738,361.952c0.133,0,0.25,0.117,0.25,0.25v21.545c0,0.133-0.117,0.25-0.25,0.25h-37.477
	c-0.133,0-0.25-0.117-0.25-0.25v-21.545c0-0.133,0.117-0.25,0.25-0.25H999.738 M1000,360.016h-38c-1.1,0-2,0.899-2,2v21.956
	c0,1.101,0.9,2,2,2h38c1.1,0,2-0.899,2-2v-21.956C1002,360.915,1001.1,360.016,1000,360.016L1000,360.016z"/>
<path fill="#91919E" d="M988,381.852c-4.894,0-8.875-3.98-8.875-8.875c0-4.893,3.981-8.874,8.875-8.874s8.875,3.981,8.875,8.874
	C996.875,377.871,992.894,381.852,988,381.852z M988,365.852c-3.929,0-7.125,3.197-7.125,7.125c0,3.93,3.196,7.125,7.125,7.125
	s7.125-3.195,7.125-7.125C995.125,369.049,991.929,365.852,988,365.852z"/>
<path fill="#91919E" d="M974.094,365.978h-9.219c-0.483,0-0.875-0.517-0.875-1s0.392-0.969,0.875-0.969h9.219
	c0.483,0,0.875,0.485,0.875,0.969S974.577,365.978,974.094,365.978z"/>
<path fill="#91919E" d="M988,368.977c2.206,0,4,1.795,4,4c0,2.206-1.794,4-4,4s-4-1.794-4-4
	C984,370.771,985.794,368.977,988,368.977 M988,367.977c-2.762,0-5,2.238-5,5s2.238,5,5,5s5-2.238,5-5S990.762,367.977,988,367.977
	L988,367.977z"/>
<path fill="#F35429" d="M999.738,421.952c0.133,0,0.25,0.117,0.25,0.25v21.545c0,0.133-0.117,0.25-0.25,0.25h-37.477
	c-0.133,0-0.25-0.117-0.25-0.25v-21.545c0-0.133,0.117-0.25,0.25-0.25H999.738 M1000,420.016h-38c-1.1,0-2,0.899-2,2v21.956
	c0,1.101,0.9,2,2,2h38c1.1,0,2-0.899,2-2v-21.956C1002,420.915,1001.1,420.016,1000,420.016L1000,420.016z"/>
<path fill="#F35429" d="M988,441.852c-4.894,0-8.875-3.98-8.875-8.875c0-4.893,3.981-8.874,8.875-8.874s8.875,3.981,8.875,8.874
	C996.875,437.871,992.894,441.852,988,441.852z M988,425.852c-3.929,0-7.125,3.197-7.125,7.125c0,3.93,3.196,7.125,7.125,7.125
	s7.125-3.195,7.125-7.125C995.125,429.049,991.929,425.852,988,425.852z"/>
<path fill="#F35429" d="M974.094,425.978h-9.219c-0.483,0-0.875-0.517-0.875-1s0.392-0.969,0.875-0.969h9.219
	c0.483,0,0.875,0.485,0.875,0.969S974.577,425.978,974.094,425.978z"/>
<path fill="#F35429" d="M988,428.977c2.206,0,4,1.795,4,4c0,2.206-1.794,4-4,4s-4-1.794-4-4
	C984,430.771,985.794,428.977,988,428.977 M988,427.977c-2.762,0-5,2.238-5,5s2.238,5,5,5s5-2.238,5-5S990.762,427.977,988,427.977
	L988,427.977z"/>
<path fill="#FFFFFF" d="M307.537,719.732c-1.158,0-2.245-0.45-3.056-1.267l-3.229-3.247c-1.676-1.687-1.667-4.42,0.017-6.096
	l17.954-17.857c0.81-0.806,1.89-1.25,3.039-1.25c1.158,0,2.244,0.45,3.056,1.267l3.232,3.249c1.675,1.687,1.667,4.42-0.018,6.096
	l-17.956,17.855C309.766,719.288,308.687,719.732,307.537,719.732z M322.261,691.141c-0.85,0-1.648,0.327-2.247,0.922
	l-17.954,17.857c-1.245,1.239-1.251,3.261-0.012,4.506l3.229,3.247c1.193,1.201,3.303,1.207,4.504,0.013l17.956-17.855
	c1.245-1.239,1.25-3.261,0.012-4.506l-3.232-3.249C323.92,691.473,323.118,691.141,322.261,691.141z"/>
<circle fill-rule="evenodd" clip-rule="evenodd" fill="#FFFFFF" cx="321.176" cy="696.641" r="0.637"/>
<path fill="#FFFFFF" d="M321.176,697.512c-0.232,0-0.451-0.09-0.616-0.255c-0.338-0.342-0.336-0.895,0.002-1.233
	c0.333-0.327,0.903-0.324,1.23,0.004c0.338,0.341,0.338,0.894-0.002,1.231C321.625,697.423,321.407,697.512,321.176,697.512z
	 M321.176,696.239c-0.107,0-0.208,0.042-0.284,0.117c-0.156,0.155-0.156,0.412,0,0.57c0.15,0.149,0.417,0.15,0.568,0
	c0.156-0.156,0.156-0.411-0.001-0.568C321.384,696.281,321.284,696.239,321.176,696.239z"/>
<circle fill-rule="evenodd" clip-rule="evenodd" fill="#FFFFFF" cx="323.152" cy="698.62" r="0.637"/>
<path fill="#FFFFFF" d="M323.154,699.489c-0.235,0-0.455-0.092-0.62-0.258c-0.165-0.165-0.254-0.385-0.253-0.617
	s0.091-0.45,0.257-0.612c0.326-0.327,0.9-0.328,1.23,0.002c0.339,0.342,0.338,0.896-0.003,1.232
	C323.603,699.399,323.385,699.489,323.154,699.489z M323.152,698.217c-0.107,0-0.208,0.041-0.284,0.117
	c-0.077,0.076-0.119,0.177-0.119,0.282c-0.001,0.107,0.042,0.209,0.117,0.286c0.153,0.151,0.417,0.153,0.569,0.003
	c0.154-0.153,0.154-0.415,0-0.57C323.361,698.258,323.259,698.217,323.152,698.217z"/>
<path fill-rule="evenodd" clip-rule="evenodd" fill="#FFFFFF" d="M319.829,698.852c-0.247,0.247-0.652,0.246-0.898-0.002
	c-0.249-0.251-0.249-0.653,0.001-0.901c0.249-0.247,0.652-0.248,0.899,0.005C320.078,698.2,320.078,698.603,319.829,698.852z"/>
<path fill="#FFFFFF" d="M319.381,699.271c-0.233,0-0.453-0.091-0.617-0.255c-0.164-0.167-0.254-0.386-0.254-0.618
	c0-0.233,0.091-0.451,0.257-0.615c0.331-0.329,0.906-0.326,1.232,0.007c0.162,0.162,0.252,0.381,0.251,0.613
	c0,0.232-0.091,0.45-0.255,0.615C319.831,699.18,319.613,699.271,319.381,699.271z M319.38,697.998
	c-0.106,0-0.208,0.041-0.284,0.117c-0.076,0.075-0.118,0.176-0.118,0.283s0.042,0.209,0.119,0.286
	c0.15,0.151,0.416,0.152,0.566,0.001c0.076-0.075,0.118-0.177,0.118-0.284s-0.041-0.208-0.116-0.282
	C319.588,698.04,319.488,697.998,319.38,697.998z"/>
<circle fill-rule="evenodd" clip-rule="evenodd" fill="#FFFFFF" cx="321.355" cy="700.377" r="0.637"/>
<path fill="#FFFFFF" d="M321.359,701.247c-0.235,0-0.456-0.092-0.62-0.257c-0.165-0.165-0.255-0.385-0.254-0.618
	c0-0.231,0.092-0.449,0.257-0.612c0.33-0.327,0.903-0.327,1.231,0.002c0.164,0.166,0.254,0.386,0.253,0.619
	c-0.001,0.233-0.092,0.451-0.256,0.614C321.807,701.157,321.59,701.247,321.359,701.247z M321.356,699.976
	c-0.108,0-0.208,0.041-0.285,0.117c-0.076,0.074-0.118,0.175-0.118,0.28c0,0.108,0.042,0.209,0.118,0.285
	c0.151,0.152,0.417,0.156,0.568,0.005c0.076-0.076,0.118-0.177,0.118-0.283c0-0.109-0.041-0.211-0.117-0.286
	C321.564,700.017,321.463,699.976,321.356,699.976z"/>
<circle fill-rule="evenodd" clip-rule="evenodd" fill="#FFFFFF" cx="308.366" cy="709.452" r="0.636"/>
<path fill="#FFFFFF" d="M308.366,710.322c-0.233,0-0.452-0.091-0.617-0.256c-0.164-0.165-0.254-0.384-0.253-0.616
	c0-0.233,0.091-0.452,0.257-0.615c0.33-0.328,0.904-0.326,1.23,0.002c0.337,0.34,0.336,0.893-0.003,1.231
	C308.815,710.232,308.598,710.322,308.366,710.322z M308.367,709.049c-0.107,0-0.209,0.042-0.285,0.117
	c-0.076,0.077-0.118,0.178-0.118,0.284c-0.001,0.107,0.042,0.208,0.117,0.285c0.152,0.151,0.415,0.153,0.567,0.002
	c0.156-0.157,0.157-0.412,0.001-0.569C308.575,709.091,308.474,709.049,308.367,709.049z"/>
<circle fill-rule="evenodd" clip-rule="evenodd" fill="#FFFFFF" cx="310.342" cy="711.429" r="0.637"/>
<path fill="#FFFFFF" d="M310.343,712.299c-0.234,0-0.454-0.091-0.618-0.256c-0.165-0.167-0.254-0.385-0.253-0.617
	c0-0.232,0.091-0.451,0.257-0.614c0.326-0.327,0.9-0.328,1.23,0.002c0.339,0.343,0.337,0.896-0.003,1.233
	C310.792,712.209,310.575,712.299,310.343,712.299z M310.342,711.026c-0.107,0-0.208,0.041-0.283,0.117
	c-0.077,0.076-0.119,0.177-0.119,0.282c-0.001,0.108,0.041,0.21,0.117,0.287c0.151,0.149,0.418,0.151,0.569,0.002
	c0.155-0.153,0.155-0.415,0-0.571C310.551,711.067,310.45,711.026,310.342,711.026z"/>
<circle fill-rule="evenodd" clip-rule="evenodd" fill="#FFFFFF" cx="306.571" cy="711.209" r="0.637"/>
<path fill="#FFFFFF" d="M306.571,712.081c-0.233,0-0.452-0.091-0.617-0.256c-0.339-0.342-0.337-0.896,0.003-1.233
	c0.33-0.329,0.904-0.326,1.23,0.007c0.337,0.339,0.336,0.89-0.002,1.229C307.021,711.991,306.803,712.081,306.571,712.081z
	 M306.569,710.808c-0.106,0-0.207,0.042-0.283,0.117c-0.157,0.155-0.157,0.412,0,0.57c0.149,0.15,0.416,0.152,0.567,0.001
	c0.157-0.157,0.157-0.412,0.001-0.567C306.779,710.85,306.677,710.808,306.569,710.808z"/>
<circle fill-rule="evenodd" clip-rule="evenodd" fill="#FFFFFF" cx="308.545" cy="713.188" r="0.637"/>
<path fill="#FFFFFF" d="M308.548,714.057c-0.234,0-0.454-0.091-0.62-0.256c-0.166-0.166-0.255-0.386-0.254-0.618
	s0.092-0.45,0.257-0.613c0.33-0.327,0.903-0.327,1.23,0.003c0.338,0.342,0.337,0.895-0.002,1.232
	C308.998,713.968,308.781,714.057,308.548,714.057z M308.546,712.785c-0.108,0-0.208,0.041-0.286,0.117
	c-0.076,0.075-0.118,0.175-0.118,0.281c-0.001,0.107,0.041,0.21,0.117,0.287c0.152,0.15,0.419,0.151,0.568,0.003
	c0.157-0.157,0.158-0.413,0.001-0.57C308.754,712.826,308.653,712.785,308.546,712.785z"/>
<path fill="#FFFFFF" d="M281.424,706.06v-10.281c0-3.155-2.557-5.713-5.712-5.713S270,692.623,270,695.778v10.281
	c0,2.896,2.163,5.262,4.957,5.635c-0.002,0.027-0.015,0.05-0.015,0.077v6.702h-3.799c-0.425,0-0.771,0.345-0.771,0.77
	c0,0.428,0.346,0.772,0.771,0.772h9.139c0.426,0,0.771-0.345,0.771-0.772c0-0.425-0.345-0.77-0.771-0.77h-3.799v-6.702
	c0-0.027-0.012-0.05-0.015-0.077C279.262,711.321,281.424,708.955,281.424,706.06z M275.712,710.229
	c-2.299,0-4.169-1.871-4.169-4.17v-10.281c0-2.3,1.87-4.172,4.169-4.172s4.169,1.872,4.169,4.172v10.281
	C279.881,708.358,278.011,710.229,275.712,710.229z"/>
<path fill="#FFFFFF" d="M275.712,696.063c-0.263,0-0.515-0.103-0.708-0.297c-0.184-0.184-0.286-0.435-0.286-0.698
	c0-0.274,0.102-0.524,0.286-0.708c0.365-0.377,1.04-0.377,1.416,0c0.183,0.184,0.298,0.446,0.298,0.708
	c0,0.251-0.115,0.515-0.298,0.698C276.226,695.961,275.975,696.063,275.712,696.063z"/>
<path fill="#FFFFFF" d="M273.713,699.011c-0.263,0-0.514-0.104-0.709-0.286c-0.182-0.193-0.296-0.446-0.296-0.708
	s0.114-0.525,0.296-0.708c0.366-0.366,1.041-0.378,1.417,0c0.184,0.183,0.298,0.446,0.298,0.708s-0.114,0.515-0.298,0.708
	C274.227,698.907,273.976,699.011,273.713,699.011z"/>
<path fill="#FFFFFF" d="M277.711,699.011c-0.263,0-0.515-0.104-0.708-0.286c-0.184-0.193-0.286-0.446-0.286-0.708
	s0.102-0.525,0.286-0.708c0.365-0.366,1.04-0.378,1.417,0c0.183,0.193,0.296,0.446,0.296,0.708c0,0.25-0.114,0.515-0.296,0.708
	C278.225,698.907,277.974,699.011,277.711,699.011z"/>
<path fill="#FFFFFF" d="M245.746,697.38c2.029,0,3.681-1.651,3.681-3.682c0-2.029-1.652-3.683-3.681-3.683
	c-2.031,0-3.684,1.653-3.684,3.683C242.062,695.729,243.715,697.38,245.746,697.38z M245.746,691.321
	c1.31,0,2.375,1.066,2.375,2.377c0,1.31-1.065,2.376-2.375,2.376c-1.311,0-2.377-1.066-2.377-2.376
	C243.369,692.388,244.435,691.321,245.746,691.321z"/>
<path fill="#FFFFFF" d="M257.343,710.441l2.646-2.587c0.812-0.813,1.255-1.88,1.255-3.016c0-1.135-0.443-2.201-1.245-3.005
	l-0.593-0.593c0.491,0.399,1.101,0.617,1.745,0.617c0.742,0,1.439-0.29,1.964-0.815c1.082-1.081,1.083-2.843,0-3.926l-5.55-5.548
	c-0.521-0.521-1.211-0.807-1.945-0.807c-0.633,0-1.244,0.215-1.739,0.607l-0.062,0.033l-0.15,0.135l-0.062,0.06l-0.054,0.064
	l-0.028,0.034l-4.802,4.886l-0.686,0.686c-0.812,0.812-1.237,1.878-1.241,2.965l-1.925-1.924c-0.523-0.525-1.221-0.814-1.964-0.814
	c-0.742,0-1.438,0.289-1.964,0.814c-1.082,1.082-1.083,2.844,0,3.926l4.568,4.569c0.524,0.522,1.221,0.813,1.963,0.813
	c0.741,0,1.438-0.289,1.964-0.813l1.047-1.079l1.271,1.271l-1.177,1.413c-1.218,1.277-1.199,3.312,0.054,4.566l4.28,4.279
	c0.618,0.617,1.438,0.957,2.312,0.957c0.872,0,1.692-0.34,2.31-0.957c1.272-1.273,1.273-3.346,0.001-4.62L257.343,710.441z
	 M258.612,716.33c-0.384,0.384-0.885,0.575-1.386,0.575c-0.503,0-1.005-0.191-1.388-0.575l-4.281-4.279
	c-0.764-0.766-0.764-2.002-0.005-2.77l1.972-2.365l-3.051-3.053l-1.958,2.017c-0.287,0.287-0.665,0.432-1.041,0.432
	c-0.376,0-0.753-0.145-1.04-0.432l-4.569-4.568c-0.574-0.574-0.574-1.505,0-2.079c0.288-0.288,0.665-0.433,1.041-0.433
	c0.378,0,0.754,0.145,1.041,0.433l3.479,3.479l1.041-1.041c-0.605-1.114-0.451-2.536,0.493-3.479l0.694-0.693l4.885-4.97
	c0.01-0.012,0.014-0.025,0.023-0.036c0.01-0.01,0.023-0.013,0.033-0.021l0.04-0.026c0.282-0.25,0.634-0.375,0.985-0.375
	c0.37,0,0.738,0.139,1.023,0.423l5.55,5.549c0.574,0.574,0.574,1.505,0,2.079c-0.289,0.288-0.665,0.433-1.041,0.433
	c-0.377,0-0.752-0.145-1.04-0.433l-4.685-4.683l-1.863,1.854c0.084,0.067,0.173,0.127,0.251,0.207l5.261,5.26
	c1.149,1.15,1.149,3.013,0,4.163l-3.59,3.51l3.126,3.125C259.377,714.324,259.377,715.563,258.612,716.33z"/>
<path fill="#FFFFFF" d="M269.042,710.179l-5.019-4.49c-0.229-0.206-0.467-0.25-0.625-0.25c-0.601,0-0.949,0.538-1.352,1.158
	c-0.172,0.269-0.362,0.563-0.582,0.821c-0.204,0.24-0.435,0.446-0.639,0.631c-0.442,0.4-0.859,0.777-0.859,1.313
	c0.001,0.201,0.065,0.501,0.374,0.778l5.021,4.488c0.438,0.394,1.038,0.609,1.69,0.609c0.846,0,1.652-0.358,2.214-0.983
	C270.326,713.071,270.228,711.242,269.042,710.179z M268.292,713.383c-0.314,0.349-0.767,0.549-1.242,0.549
	c-0.324,0-0.623-0.101-0.819-0.276l-4.851-4.337c0.093-0.094,0.218-0.209,0.321-0.301c0.242-0.221,0.514-0.468,0.757-0.754
	c0.257-0.3,0.481-0.644,0.683-0.955c0.084-0.13,0.186-0.286,0.274-0.411l4.755,4.253
	C268.818,711.732,268.873,712.734,268.292,713.383z"/>
<path fill-rule="evenodd" clip-rule="evenodd" fill="#F35429" d="M907.5,30.016c-4.143,0-7.5,3.358-7.5,7.5
	c0,4.142,3.357,7.5,7.5,7.5c4.142,0,7.5-3.358,7.5-7.5C915,33.374,911.642,30.016,907.5,30.016z M907.5,43.515c-3.313,0-6-2.687-6-6
	s2.687-6,6-6s6,2.687,6,6S910.813,43.515,907.5,43.515z"/>
<polygon fill-rule="evenodd" clip-rule="evenodd" fill="#F35429" points="910.699,35.371 909.633,34.305 907.492,36.445 
	905.352,34.305 904.285,35.371 906.426,37.512 904.285,39.652 905.352,40.719 907.492,38.578 909.633,40.719 910.699,39.652 
	908.559,37.512 "/>
<path fill="#BCBCCC" d="M944.074,11.794l-0.07-0.017c-1.26-0.291-2.563-0.591-2.854-1.229c-0.044-0.096-0.179-0.39,0.141-0.99
	c0.822-1.547,1.45-4.96,0.771-6.52c-0.765-1.757-2.684-1.609-4.034-1.609c-1.356,0-2.441,0.626-3.109,1.632
	c-0.599,0.904-0.287,3.891,0.793,6.497c0.259,0.63,0.192,0.89,0.148,0.985c-0.288,0.641-1.577,0.938-2.823,1.224l-0.112,0.026
	c-1.842,0.423-1.98,1.396-1.98,2.834c0,0.522,0.423,0.945,0.944,0.945h13.224c0.522,0,0.944-0.423,0.944-0.945
	C946.056,13.19,945.917,12.216,944.074,11.794z"/>
<g>
	<g>
		<path fill="#BCBCCC" d="M975.115,3.303h-13.23c-0.521,0-0.944,0.423-0.944,0.945v1.89h15.119v-1.89
			C976.06,3.726,975.637,3.303,975.115,3.303z M960.94,12.753c0,0.521,0.423,0.944,0.944,0.944h13.23
			c0.521,0,0.944-0.423,0.944-0.944V8.027H960.94V12.753z"/>
	</g>
</g>
<rect x="960.94" y="6.138" fill="#FFFFFF" width="15.119" height="1.89"/>
<g>
	<g>
		<path fill-rule="evenodd" clip-rule="evenodd" fill="#BCBCCC" d="M1033.432,6.372c0.049-0.091,0.124-0.208,0.179-0.297
			c0.299-0.476,0.751-1.194,0.419-1.993c-0.34-0.816-1.182-1.005-1.74-1.131c-0.088-0.021-0.204-0.047-0.297-0.071
			c-0.023-0.093-0.05-0.208-0.069-0.298c-0.126-0.558-0.316-1.4-1.133-1.739c-0.183-0.076-0.379-0.114-0.583-0.114
			c-0.562,0-1.031,0.297-1.41,0.533c-0.09,0.055-0.207,0.129-0.297,0.179c-0.091-0.05-0.209-0.124-0.297-0.179
			c-0.38-0.236-0.849-0.533-1.412-0.533c-0.201,0-0.397,0.038-0.583,0.114c-0.814,0.339-1.005,1.182-1.13,1.739
			c-0.02,0.09-0.045,0.205-0.072,0.298c-0.092,0.024-0.208,0.051-0.296,0.071c-0.557,0.126-1.399,0.314-1.738,1.13
			c-0.332,0.8,0.119,1.519,0.418,1.994c0.056,0.089,0.129,0.206,0.178,0.297c-0.049,0.09-0.122,0.208-0.178,0.296
			c-0.299,0.477-0.752,1.195-0.418,1.996c0.337,0.814,1.182,1.004,1.738,1.13c0.088,0.02,0.204,0.045,0.296,0.071
			c0.027,0.091,0.053,0.209,0.072,0.297c0.076,0.339,0.194,0.774,0.446,1.146v4.963c0,0,2.976-1.023,2.976-3.008
			c0,1.984,2.977,3.008,2.977,3.008v-4.964c0.249-0.372,0.367-0.807,0.444-1.146c0.02-0.088,0.048-0.206,0.071-0.297
			c0.093-0.026,0.209-0.053,0.297-0.072c0.559-0.125,1.4-0.314,1.74-1.129c0.332-0.801-0.12-1.52-0.419-1.995
			C1033.556,6.58,1033.48,6.462,1033.432,6.372z M1028.5,9.635c-1.803,0-3.264-1.461-3.264-3.263c0-1.804,1.461-3.264,3.264-3.264
			c1.802,0,3.264,1.46,3.264,3.264C1031.764,8.174,1030.302,9.635,1028.5,9.635z"/>
	</g>
</g>
<path fill="#726E7A" d="M294.186,204.602c0-4.762-3.059-8.799-7.312-10.284c-2.734-8.296-10.556-14.302-19.757-14.302
	c-9.194,0-17.008,5.996-19.752,14.281c-4.283,1.471-7.365,5.524-7.365,10.305c0,6.02,4.882,10.9,10.903,10.9v-19.896
	c2.207-6.849,8.638-11.821,16.214-11.821c7.521,0,13.919,4.902,16.166,11.682v18.684c-0.775,1.637-5.343,10.698-11.381,10.98
	c-0.47-1.275-1.682-2.188-3.12-2.188c-1.841,0-3.334,1.495-3.334,3.335c0,1.842,1.493,3.335,3.334,3.335
	c1.447,0,2.669-0.928,3.13-2.217c7.195-0.257,12.191-9.722,13.322-12.078C290.322,214.399,294.186,209.955,294.186,204.602z"/>
<path fill="#BCBCCC" d="M1003.225,1.412h-9.45c-0.52,0-0.945,0.426-0.945,0.945v12.285c0,0.52,0.426,0.945,0.945,0.945h9.45
	c0.519,0,0.945-0.426,0.945-0.945V2.357C1004.17,1.838,1003.743,1.412,1003.225,1.412z M994.72,5.192h7.56v0.945h-7.56V5.192z
	 M1000.39,8.027h-5.67V7.082h5.67V8.027z M1002.279,4.247h-7.56V3.303h7.56V4.247z"/>
<rect x="994.72" y="5.192" fill="#FFFFFF" width="7.56" height="0.945"/>
<rect x="994.72" y="7.082" fill="#FFFFFF" width="5.67" height="0.945"/>
<rect x="994.72" y="3.303" fill="#FFFFFF" width="7.56" height="0.944"/>
<path fill="#4571EC" d="M271.134,108.016c-0.192,0-0.388-0.049-0.566-0.152c-0.542-0.313-0.729-1.008-0.415-1.551l4.212-7.297
	l-4.212-7.297c-0.314-0.543-0.127-1.237,0.415-1.55c0.544-0.314,1.238-0.127,1.551,0.415l4.54,7.865
	c0.203,0.351,0.203,0.784,0,1.135l-4.54,7.864C271.908,107.812,271.526,108.016,271.134,108.016z"/>
<path fill="#4571EC" d="M253.016,104.383c-0.224,0-0.446-0.087-0.613-0.261l-12.166-12.667c-0.325-0.339-0.314-0.877,0.024-1.202
	c0.34-0.324,0.878-0.313,1.202,0.024l12.166,12.667c0.325,0.339,0.314,0.877-0.024,1.202
	C253.44,104.304,253.228,104.383,253.016,104.383z"/>
<path fill="#4571EC" d="M240.85,104.383c-0.212,0-0.424-0.079-0.589-0.237c-0.339-0.325-0.35-0.863-0.024-1.202l12.166-12.667
	c0.324-0.339,0.862-0.35,1.202-0.024c0.339,0.325,0.35,0.863,0.024,1.202l-12.166,12.667
	C241.296,104.295,241.074,104.383,240.85,104.383z"/>
<path fill="#BCBCCC" d="M270.716,802.474c0.478,0.478,1.104,0.717,1.729,0.717c0.626,0,1.251-0.239,1.729-0.717l4.075-4.075
	c0.04-0.039,0.067-0.085,0.104-0.127c1.434,0.826,3.092,1.305,4.866,1.305c5.401,0,9.779-4.379,9.779-9.781
	c0-5.4-4.378-9.779-9.779-9.779c-5.403,0-9.78,4.379-9.78,9.779c0,1.863,0.53,3.599,1.434,5.08
	c-0.026,0.024-0.056,0.041-0.081,0.066l-4.075,4.075C269.761,799.971,269.761,801.52,270.716,802.474z M283.218,796.315
	c-3.596,0-6.521-2.925-6.521-6.521c0-3.595,2.925-6.519,6.521-6.519c3.595,0,6.52,2.924,6.52,6.519
	C289.738,793.391,286.813,796.315,283.218,796.315z"/>
<path fill="#FFFFFF" d="M252.251,780.016L240,791.449h24.502L252.251,780.016z"/>
<path fill="#BCBCCC" d="M1065.209,5.669c0-1.938-1.57-3.509-3.507-3.51c-1.39,0-2.635,1.376-3.202,2.546v0.001
	c-0.568-1.171-1.813-2.547-3.202-2.547c-1.938,0-3.508,1.571-3.508,3.509c0,1.104,0.963,2.252,0.963,2.252l3.514,4.131h-0.006
	l2.237,2.788v0.001l0,0l0.002,0.001v-0.002l2.239-2.788l-0.008-0.001l3.515-4.13C1064.246,7.92,1065.209,6.773,1065.209,5.669z"/>
<g>
	<g>
		<path fill="#BCBCCC" d="M1081.1,1.756c-0.138,0-0.25,0.112-0.25,0.25v1.309c0,0.138,0.112,0.25,0.25,0.251l1.357,0.007
			c0.138,0,0.283,0.108,0.323,0.24l2.047,6.712c0.04,0.132,0.186,0.239,0.323,0.239h8.049c0.138,0,0.289-0.105,0.338-0.234
			l2.525-6.732c0.049-0.128-0.024-0.234-0.162-0.234H1084.6c-0.138,0-0.269-0.111-0.291-0.247l-0.215-1.307
			c-0.022-0.136-0.153-0.247-0.291-0.247L1081.1,1.756z M1092.604,8.725c-0.039,0.132-0.184,0.24-0.321,0.24h-5.744
			c-0.138,0-0.275-0.11-0.306-0.244l-0.715-3.113c-0.03-0.134,0.057-0.244,0.194-0.244h7.637c0.138,0,0.218,0.108,0.179,0.24
			L1092.604,8.725z"/>
	</g>
</g>
<g>
	<ellipse fill="#BCBCCC" cx="1091.222" cy="13.901" rx="1.335" ry="1.343"/>
</g>
<g>
	<ellipse fill="#BCBCCC" cx="1086.684" cy="13.901" rx="1.334" ry="1.343"/>
</g>
<path fill-rule="evenodd" clip-rule="evenodd" fill="#BCBCCC" d="M1125.034,2.021l-5.199,12.96l-0.503-7.171l-7.367,0.01
	L1125.034,2.021z"/>
<path fill-rule="evenodd" clip-rule="evenodd" fill="#BCBCCC" d="M1149.738,1.281h-8.911c-0.272,0-0.495,0.221-0.495,0.494v6.931
	c0,0.273,0.223,0.494,0.495,0.494h0.989v1.98l2.311-1.98h5.611c0.273,0,0.494-0.221,0.494-0.494V1.775
	C1150.232,1.502,1150.012,1.281,1149.738,1.281z M1146.768,7.716h-4.951v-0.99h4.951V7.716z M1148.747,5.736h-6.931V4.745h6.931
	V5.736z M1148.747,3.756h-6.931V2.767h6.931V3.756z"/>
<path fill-rule="evenodd" clip-rule="evenodd" fill="#BCBCCC" d="M1156.172,5.818h-5.444v3.465c0,0.274-0.223,0.495-0.495,0.495
	h-3.465v3.465c0,0.273,0.222,0.495,0.495,0.495h5.61l2.31,1.98v-1.98h0.989c0.273,0,0.495-0.222,0.495-0.495v-6.93
	C1156.667,6.04,1156.445,5.818,1156.172,5.818z"/>
<path fill="#BCBCCC" d="M1179.97,0.5c-3.6,0-6.53,2.929-6.53,6.533c0,1.409,0.454,2.715,1.219,3.783l-3.843,3.842
	c-0.42,0.421-0.42,1.108,0,1.526c0.421,0.421,1.108,0.421,1.528,0l3.841-3.84c1.069,0.763,2.375,1.218,3.785,1.218
	c3.604,0,6.531-2.929,6.531-6.529C1186.501,3.429,1183.573,0.5,1179.97,0.5z M1179.97,11.402c-2.41,0-4.371-1.96-4.371-4.37
	c0-2.412,1.961-4.373,4.371-4.373s4.372,1.96,4.372,4.373C1184.342,9.442,1182.38,11.402,1179.97,11.402z"/>
<path fill-rule="evenodd" clip-rule="evenodd" fill="#BCBCCC" d="M1200,0.027h4v4h-4V0.027z"/>
<path fill-rule="evenodd" clip-rule="evenodd" fill="#BCBCCC" d="M1206,0.027h4v4h-4V0.027z"/>
<path fill-rule="evenodd" clip-rule="evenodd" fill="#BCBCCC" d="M1212,0.027h4v4h-4V0.027z"/>
<path fill-rule="evenodd" clip-rule="evenodd" fill="#BCBCCC" d="M1200,6.027h4v4h-4V6.027z"/>
<path fill-rule="evenodd" clip-rule="evenodd" fill="#BCBCCC" d="M1206,6.027h4v4h-4V6.027z"/>
<path fill-rule="evenodd" clip-rule="evenodd" fill="#BCBCCC" d="M1212,6.027h4v4h-4V6.027z"/>
<path fill-rule="evenodd" clip-rule="evenodd" fill="#BCBCCC" d="M1200,12.027h4v4h-4V12.027z"/>
<path fill-rule="evenodd" clip-rule="evenodd" fill="#BCBCCC" d="M1206,12.027h4v4h-4V12.027z"/>
<path fill-rule="evenodd" clip-rule="evenodd" fill="#BCBCCC" d="M1212,12.027h4v4h-4V12.027z"/>
<path fill-rule="evenodd" clip-rule="evenodd" fill="#BCBCCC" d="M1230.516,0.027h18c0.275,0,0.5,0.225,0.5,0.501v3.5
	c0,0.276-0.225,0.5-0.5,0.5h-18c-0.277,0-0.5-0.224-0.5-0.5v-3.5C1230.016,0.252,1230.238,0.027,1230.516,0.027z"/>
<path fill-rule="evenodd" clip-rule="evenodd" fill="#BCBCCC" d="M1230.516,6.528h18c0.275,0,0.5,0.224,0.5,0.5v3.5
	c0,0.276-0.225,0.5-0.5,0.5h-18c-0.277,0-0.5-0.224-0.5-0.5v-3.5C1230.016,6.752,1230.238,6.528,1230.516,6.528z"/>
<path fill-rule="evenodd" clip-rule="evenodd" fill="#BCBCCC" d="M1230.516,13.028h18c0.275,0,0.5,0.224,0.5,0.5v3.499
	c0,0.276-0.225,0.501-0.5,0.501h-18c-0.277,0-0.5-0.225-0.5-0.501v-3.499C1230.016,13.252,1230.238,13.028,1230.516,13.028z"/>
</svg>
