<?xml version="1.0" encoding="iso-8859-1"?>
<!-- Generator: Adobe Illustrator 15.1.0, SVG Export Plug-In . SVG Version: 6.00 Build 0)  -->
<!DOCTYPE svg PUBLIC "-//W3C//DTD SVG 1.1//EN" "http://www.w3.org/Graphics/SVG/1.1/DTD/svg11.dtd">
<svg version="1.1" id="Layer_1" xmlns="http://www.w3.org/2000/svg" xmlns:xlink="http://www.w3.org/1999/xlink" x="0px" y="0px"
	 width="1056px" height="1056px" viewBox="0 0 1056 1056" style="enable-background:new 0 0 1056 1056;" xml:space="preserve">
<g>
	<polygon points="0,0.001 0,0 0.001,0 	"/>
</g>
<g id="_x36_-sony">
	<path d="M903.896,344.638c-19.444,0-34.676-15.559-34.676-35.422c0-19.868,15.118-35.432,34.418-35.432
		c10.281,0,19.968,4.77,26.576,13.087c6.016,7.531,7.495,15.072,7.758,24.653h-61.619l0.042,1.04
		c0.534,13.344,12.98,25.05,26.636,25.05c10.688,0,20.867-6.243,25.009-15.26h7.507C930.48,335.346,917.392,344.638,903.896,344.638
		z M903.777,280.753c-13.55,0-25.06,9.688-27.368,23.035l-0.202,1.17h54.721l-0.225-1.186
		C928.217,290.649,916.642,280.753,903.777,280.753z M760.547,344.638c-19.465,0-34.713-15.559-34.713-35.422
		c0-19.868,15.148-35.432,34.487-35.432c10.199,0,19.89,4.772,26.587,13.092c5.885,7.565,7.356,15.098,7.647,24.648H732.98
		l0.04,1.038c0.506,13.345,12.964,25.052,26.661,25.052c10.761,0,20.72-6.106,25.004-15.26h7.516
		C787.17,335.346,774.08,344.638,760.547,344.638z M760.375,280.753c-13.322,0-25.076,9.903-27.341,23.035l-0.202,1.17h54.746
		l-0.225-1.186C784.869,290.649,773.271,280.753,760.375,280.753z M623.283,344.638c-19.459,0-34.701-15.559-34.701-35.422
		c0-19.868,15.089-35.432,34.352-35.432c10.338,0,19.815,4.651,26.688,13.096c5.849,7.461,7.364,15.018,7.738,24.644h-61.695
		l0.038,1.037c0.49,13.346,12.98,25.053,26.728,25.053c10.726,0,20.688-6.106,25.012-15.26h7.519
		C649.948,335.345,636.849,344.638,623.283,344.638z M623.122,280.753c-13.51,0-25.036,9.686-27.405,23.03l-0.209,1.175h54.805
		l-0.223-1.184C647.628,290.65,636.034,280.753,623.122,280.753z M540.783,344.638c-8.928,0-20.96-4.137-26.283-13.218l-1.863-3.179
		v14.672h-6.675v-92.053h7.18v39.667l1.875-3.386c4.355-7.865,14.572-13.357,24.848-13.357c20.438,0,35.851,15.08,35.851,35.077
		C575.716,331.256,557.954,344.638,540.783,344.638z M540.133,280.753c-7.434,0-14.775,3.183-20.141,8.732
		c-5.146,5.343-7.543,11.758-7.543,20.188c0,15.668,12.446,27.941,28.334,27.941c15.309,0,27.764-12.788,27.764-28.506
		C568.547,292.944,556.331,280.753,540.133,280.753z M399.066,344.638c-19.435,0-34.658-15.559-34.658-35.422
		c0-19.868,15.132-35.432,34.449-35.432c10.193,0,19.885,4.772,26.593,13.092c5.913,7.581,7.388,15.11,7.674,24.648h-61.641
		l0.046,1.043c0.583,13.343,13.087,25.046,26.759,25.046c10.749,0,20.669-6.106,24.91-15.26h7.518
		C425.674,335.346,412.586,344.638,399.066,344.638z M398.971,280.753c-13.546,0-25.081,9.687-27.427,23.032l-0.207,1.173h54.762
		l-0.226-1.187C423.377,290.649,411.812,280.753,398.971,280.753z M253.505,344.638c-17.741,0-35.701-12.344-35.701-35.938
		c0-22.679,18.277-34.916,35.475-34.916c12.761,0,20.686,4.363,25.697,14.146l1.89-0.456v-12.213h6.846v67.652h-6.846v-12.057
		l-1.882-0.471C274.226,339.311,264.701,344.638,253.505,344.638z M253.279,280.753c-16.365,0-28.242,12.07-28.242,28.699
		c0,15.529,12.771,28.162,28.468,28.162c14.832,0,27.361-12.857,27.361-28.076C280.866,293.397,268.749,280.753,253.279,280.753z
		 M466.866,343.945c-6.731,0-12.208-5.657-12.208-12.61c0-6.93,5.477-12.567,12.208-12.567c6.713,0,12.175,5.638,12.175,12.567
		C479.041,338.288,473.58,343.945,466.866,343.945z M827.705,342.914l-27.8-67.652h7.8l24.163,59.312l24.231-59.312h7.79
		l-27.963,67.652H827.705z M701.401,342.914v-67.652h7.174v67.652H701.401z M674.637,342.914v-92.053h7.143v92.053H674.637z
		 M349.707,342.914l-22.608-28.051l-11.811,15.523v12.528h-7.238v-92.053h7.238v68.054l32.808-43.653h9.185l-25.546,33.979
		l27.305,33.674H349.707z M196.341,342.914v-37.828c0-5.113-0.423-10.956-3.56-15.514c-3.889-5.686-9.626-8.818-16.153-8.818
		c-6.193,0-12.454,3.289-15.949,8.378c-3.025,4.469-3.021,10.296-3.017,15.438v38.344h-7.152v-38.795
		c0-5.153-0.254-9.491-3.457-14.478c-3.788-5.518-9.803-8.796-16.106-8.796c-6.522,0-12.28,2.85-15.796,7.819
		c-3.39,4.958-3.39,10.535-3.39,15.455v38.795h-7.228v-67.652h6.685v8.131l1.906,0.422c2.972-6.374,9.272-10.03,17.286-10.03
		c15.336,0,22.146,11.452,22.872,12.757l0.972,1.748l0.815-1.826c0.58-1.298,6.118-12.679,21.962-12.679
		c24.664,0,26.581,22.565,26.581,29.48v39.648H196.341z M701.401,264.876v-14.016h7.174v14.016H701.401z M392.762,180.175
		c-35.578,0-68.256-11.267-89.655-30.911c-15.644-14.417-24.26-34.472-24.26-56.471c0-21.423,8.845-42.007,24.268-56.473
		c20.066-18.638,55.256-30.683,89.647-30.683c38.2,0,67.598,10.072,89.875,30.793c15.436,14.382,23.937,34.399,23.937,56.362
		c0,21.23-8.95,42.344-23.942,56.48C462.175,168.915,429.42,180.175,392.762,180.175z M392.762,26.631
		c-19.113,0-37.072,7.046-49.27,19.331c-11.563,11.801-17.929,28.431-17.929,46.832c0,18.201,6.364,34.786,17.921,46.699
		c12.149,12.333,30.108,19.403,49.278,19.403c19.428,0,36.905-6.889,49.213-19.398c12.161-12.435,18.071-27.711,18.071-46.705
		c0-18.469-6.419-35.101-18.075-46.832C429.824,33.678,411.887,26.631,392.762,26.631z M149.23,178.515
		c-14.837,0-22.646-1.676-34.468-4.213l-1.54-0.331c-15.943-3.393-30.584-9.428-34.881-11.467c-0.824-0.407-1.63-0.617-2.383-0.617
		c-2.956,0-4.208,3.178-4.208,4.442v7.303H49.807v-59.725h19.708c0.279,7.151,3.456,14.306,5.635,17.032
		c8.768,10.934,18.275,15.49,27.244,18.785c7.473,2.681,28.709,8.21,46.703,8.21c15.007,0,28.5-2.397,39.02-6.933l0.333-0.143
		l0.283-0.108c10.995-4.175,13.302-11.688,13.302-17.256c0-12.301-10.451-14.998-16.695-16.609l-0.703-0.182
		c-7.509-1.934-25.093-3.813-43.709-5.802l-3.149-0.336c-20.565-2.338-40.057-5.506-48.68-7.426
		c-19.906-4.405-27.959-12.015-32.771-16.562L55.929,86.2C54.811,85.066,45,74.632,45,57.769c0-17.422,10.196-30.912,30.305-40.094
		C92,10.053,113.262,5.681,133.638,5.681c31.666,0.142,58.854,10.416,69.925,16.463c1.115,0.594,2.175,0.893,3.159,0.893
		c2.67,0,4.266-2.187,4.266-4.301v-5.235h19.549v51.705h-17.561c-2.734-11.702-9.908-18.415-12.081-20.222
		c-3.932-3.24-8.687-5.749-12.39-7.573c-6.668-3.089-24.956-10.249-51.169-10.249l-0.284,0c-18.522,0-36,3.537-44.528,9.01
		c-5.754,3.81-8.667,8.423-8.667,13.72c0,8.621,8.105,11.449,9.73,11.928c7.848,2.527,25.218,4.326,39.175,5.772
		c3.225,0.334,6.25,0.647,8.901,0.944c14.362,1.491,41.625,5.325,53.374,8.358c6.535,1.581,14.359,4.583,18.87,6.704
		c6.059,2.881,11.157,6.431,15.15,10.55c2.055,2.013,12.216,12.896,12.216,31.31c0,17.126-9.415,27.183-15.027,31.653
		c-10.059,8.235-22.251,12.597-28.625,14.465l-0.648,0.19C187.842,174.456,174.042,178.515,149.23,178.515z M855.203,170.416
		v-17.609h17.793l5.465-0.375l0.097-0.027c2.024-0.559,3.673-1.999,4.769-4.165l0.088-0.175l0.365-4.487l0.003-31.045
		c0-1.108-0.187-1.622-1.588-3.379c-1.232-1.755-54.645-63.783-57.499-66.943c-3.754-4.227-9.116-9.085-17.28-9.085h-17.81V15.628
		H893.18v17.496h-11.768c-1.792,0-3.355,0.926-4.08,2.416c-0.78,1.607-0.426,3.55,0.974,5.331l36.078,44.196l2.002,0.203
		l37.106-44.375c1.103-1.455,1.273-3.512,0.456-5.157c-0.826-1.661-2.466-2.614-4.5-2.614h-11.95V15.628h84.491v17.496h-18.325
		c-7.386,0-10.498,1.544-15.855,7.868c-2.562,2.82-57.772,67.416-58.214,67.941l-0.143,0.169l-0.894,3.296v31.149l0.463,4.455
		l0.036,0.106c0.696,2.052,2.531,3.698,4.789,4.297l0.097,0.026l5.293,0.322l18.939,0.002v17.658H855.203z M712.058,170.416
		L589.418,58.402V139.2c0.13,8.695,0.667,13.606,10.195,13.606h20.554v17.609h-86.468v-17.609h19.76
		c2.451,0,4.392-0.699,5.768-2.079c2.695-2.701,2.686-7.469,2.678-11.3l-0.001-92.364c0-4.505,0-13.88-13.998-13.88h-15.72V15.628
		h73.868l106.655,98.472l-1.124-67.778c-0.055-8.75-1.879-13.198-11.694-13.198h-18.84V15.628h88.057v17.496h-18.352
		c-10.121,0-10.65,4.043-10.883,13.189l1.593,124.102H712.058z"/>
</g>
</svg>
