<?xml version="1.0" encoding="iso-8859-1"?>
<!-- Generator: Adobe Illustrator 15.1.0, SVG Export Plug-In . SVG Version: 6.00 Build 0)  -->
<!DOCTYPE svg PUBLIC "-//W3C//DTD SVG 1.1//EN" "http://www.w3.org/Graphics/SVG/1.1/DTD/svg11.dtd">
<svg version="1.1" id="Layer_1" xmlns="http://www.w3.org/2000/svg" xmlns:xlink="http://www.w3.org/1999/xlink" x="0px" y="0px"
	 width="1024px" height="1024px" viewBox="0 0 1024 1024" style="enable-background:new 0 0 1024 1024;" xml:space="preserve">
<g>
	<polygon points="0,0.001 0,0 0.001,0 	"/>
</g>
<g id="amplifiers">
	<path d="M312,514c-3.309,0-6-2.691-6-6V92c0-3.309,2.691-6,6-6h400c3.309,0,6,2.691,6,6v416c0,3.309-2.691,6-6,6H312z M334,486h356
		V386H334V486z M334,374h356v-20H481.53l-13.306,11.645L472.102,354H334V374z M495.237,342H690v-20H518.108L495.237,342z M334,342
		h142.114l6.66-20H334V342z M531.815,310H690v-20H554.687L531.815,310z M334,310h152.769l6.68-20H334V310z M568.396,278H690v-20
		h-98.752L568.396,278z M334,278h98.751l22.852-20H334V278z M530.552,246H690v-20H537.231L530.552,246z M334,246h135.313l22.871-20
		H334V246z M541.226,214H690v-20H547.886L541.226,214z M334,214h171.892l22.871-20H334V214z M551.897,182H690v-20H334v20h208.471
		l13.305-11.645L551.897,182z M334,150h356v-36H334V150z"/>
</g>
</svg>
