<?xml version="1.0" encoding="iso-8859-1"?>
<!-- Generator: Adobe Illustrator 15.1.0, SVG Export Plug-In . SVG Version: 6.00 Build 0)  -->
<!DOCTYPE svg PUBLIC "-//W3C//DTD SVG 1.1//EN" "http://www.w3.org/Graphics/SVG/1.1/DTD/svg11.dtd">
<svg version="1.1" id="Layer_1" xmlns="http://www.w3.org/2000/svg" xmlns:xlink="http://www.w3.org/1999/xlink" x="0px" y="0px"
	 width="1024px" height="1024px" viewBox="0 0 1024 1024" style="enable-background:new 0 0 1024 1024;" xml:space="preserve">
<g>
	<polygon points="0,0.001 0,0 0.001,0 	"/>
</g>
<g id="microphones">
	<path d="M456,514c-3.309,0-6-2.691-6-6v-16c0-3.309,2.691-6,6-6h42v-98c0.004-0.044,0.05-0.204,0.083-0.321
		c0.082-0.289,0.185-0.647,0.222-1.086l0.153-1.783l-1.755-0.349C460.371,377.228,434,345.072,434,308V164c0-43.009,34.991-78,78-78
		c43.01,0,78,34.991,78,78v144c0,37.072-26.37,69.228-62.703,76.46l-1.755,0.349l0.153,1.783c0.037,0.439,0.14,0.798,0.222,1.086
		c0.033,0.117,0.079,0.277,0.083,0.331V486h42c3.309,0,6,2.691,6,6v16c0,3.309-2.691,6-6,6H456z M462,308c0,27.57,22.43,50,50,50
		s50-22.43,50-50v-18H462V308z M512,114c-27.57,0-50,22.43-50,50v114h100V164C562,136.43,539.57,114,512,114z"/>
</g>
</svg>
