<?xml version="1.0" encoding="iso-8859-1"?>
<!-- Generator: Adobe Illustrator 15.1.0, SVG Export Plug-In . SVG Version: 6.00 Build 0)  -->
<!DOCTYPE svg PUBLIC "-//W3C//DTD SVG 1.1//EN" "http://www.w3.org/Graphics/SVG/1.1/DTD/svg11.dtd">
<svg version="1.1" id="Layer_1" xmlns="http://www.w3.org/2000/svg" xmlns:xlink="http://www.w3.org/1999/xlink" x="0px" y="0px"
	 width="1024px" height="1024px" viewBox="0 0 1024 1024" style="enable-background:new 0 0 1024 1024;" xml:space="preserve">
<g>
	<polygon points="0,0.001 0,0 0.001,0 	"/>
</g>
<g id="baby-monitors">
	<path d="M392,514c-12.131,0-22-9.869-22-22V220c0-73.888,60.112-134,134-134s134,60.112,134,134v118h-0.527l0.125,2.117
		c0.043,0.735,0.093,1.468,0.143,2.2c0.134,1.948,0.26,3.787,0.26,5.683v144c0,12.131-9.869,22-22,22H392z M398,486h212v-20H398V486
		z M504,242c-58.449,0-106,47.551-106,106v106h212V348C610,289.551,562.448,242,504,242z M504,214
		c39.565,0,76.915,17.398,102.471,47.734l3.529,4.19V220c0-58.449-47.552-106-106-106c-58.449,0-106,47.551-106,106v45.924
		l3.53-4.19C427.085,231.398,464.435,214,504,214z M504,418c-38.598,0-70-31.402-70-70s31.402-70,70-70c38.598,0,70,31.402,70,70
		S542.598,418,504,418z M463.54,389.43C474.47,400.115,488.839,406,504,406c15.161,0,29.53-5.885,40.461-16.57l3.509-3.43H460.03
		L463.54,389.43z M446.833,356.284c0.84,5.853,2.519,11.432,4.989,16.581l0.544,1.135h103.268l0.545-1.135
		c2.469-5.149,4.147-10.728,4.988-16.581l0.328-2.284h-114.99L446.833,356.284z M451.822,323.135
		c-2.47,5.149-4.148,10.728-4.989,16.581L446.505,342h114.99l-0.328-2.284c-0.841-5.853-2.52-11.432-4.988-16.581L555.634,322
		H452.366L451.822,323.135z M504,290c-15.161,0-29.53,5.885-40.46,16.57L460.03,310h87.939l-3.509-3.43
		C533.53,295.885,519.161,290,504,290z"/>
</g>
</svg>
