<?xml version="1.0" encoding="iso-8859-1"?>
<!-- Generator: Adobe Illustrator 15.1.0, SVG Export Plug-In . SVG Version: 6.00 Build 0)  -->
<!DOCTYPE svg PUBLIC "-//W3C//DTD SVG 1.1//EN" "http://www.w3.org/Graphics/SVG/1.1/DTD/svg11.dtd">
<svg version="1.1" id="Layer_1" xmlns="http://www.w3.org/2000/svg" xmlns:xlink="http://www.w3.org/1999/xlink" x="0px" y="0px"
	 width="1024px" height="1024px" viewBox="0 0 1024 1024" style="enable-background:new 0 0 1024 1024;" xml:space="preserve">
<g>
	<polygon points="0,0.001 0,0 0.001,0 	"/>
</g>
<g id="clocks">
	<path d="M512,514c-113.589,0-206-92.411-206-206s92.411-206,206-206s206,92.411,206,206S625.589,514,512,514z M512,130
		c-98.149,0-178,79.851-178,178s79.851,178,178,178s178-79.851,178-178S610.149,130,512,130z M504,322c-3.309,0-6-2.691-6-6V212
		c0-3.309,2.691-6,6-6h16c3.309,0,6,2.691,6,6v82h66c3.309,0,6,2.691,6,6v16c0,3.309-2.691,6-6,6H504z"/>
</g>
</svg>
