<?xml version="1.0" encoding="iso-8859-1"?>
<!-- Generator: Adobe Illustrator 15.1.0, SVG Export Plug-In . SVG Version: 6.00 Build 0)  -->
<!DOCTYPE svg PUBLIC "-//W3C//DTD SVG 1.1//EN" "http://www.w3.org/Graphics/SVG/1.1/DTD/svg11.dtd">
<svg version="1.1" id="Layer_1" xmlns="http://www.w3.org/2000/svg" xmlns:xlink="http://www.w3.org/1999/xlink" x="0px" y="0px"
	 width="1024px" height="1024px" viewBox="0 0 1024 1024" style="enable-background:new 0 0 1024 1024;" xml:space="preserve">
<g>
	<polygon points="0,0.001 0,0 0.001,0 	"/>
</g>
<g id="cd-radio">
	<path d="M512,514c-113.589,0-206-92.411-206-206s92.411-206,206-206s206,92.411,206,206S625.589,514,512,514z M512,130.219
		c-98.029,0-177.781,79.752-177.781,177.781S413.971,485.781,512,485.781c98.029,0,177.781-79.752,177.781-177.781
		S610.029,130.219,512,130.219z M512,386c-43.009,0-78-34.991-78-78s34.991-78,78-78c43.01,0,78,34.991,78,78S555.01,386,512,386z
		 M512,242c-36.393,0-66,29.607-66,66s29.607,66,66,66s66-29.607,66-66S548.393,242,512,242z M512,346c-20.953,0-38-17.047-38-38
		s17.047-38,38-38s38,17.047,38,38S532.953,346,512,346z M512,282c-14.336,0-26,11.664-26,26s11.664,26,26,26
		c14.337,0,26-11.664,26-26S526.337,282,512,282z"/>
</g>
</svg>
