<?xml version="1.0" encoding="iso-8859-1"?>
<!-- Generator: Adobe Illustrator 15.1.0, SVG Export Plug-In . SVG Version: 6.00 Build 0)  -->
<!DOCTYPE svg PUBLIC "-//W3C//DTD SVG 1.1//EN" "http://www.w3.org/Graphics/SVG/1.1/DTD/svg11.dtd">
<svg version="1.1" id="Layer_1" xmlns="http://www.w3.org/2000/svg" xmlns:xlink="http://www.w3.org/1999/xlink" x="0px" y="0px"
	 width="1024px" height="1024px" viewBox="0 0 1024 1024" style="enable-background:new 0 0 1024 1024;" xml:space="preserve">
<g>
	<polygon points="0,0.001 0,0 0.001,0 	"/>
</g>
<g id="in-ear_1_">
	<path d="M754,514V402h-25.984c-3.309,0-6-2.691-6-6v-86.09l-0.997-0.578C692.017,292.531,674,261.367,674,228
		c0-10.569,1.843-21.118,5.479-31.354l0.238-0.672l-0.24-0.671C675.843,185.138,674,174.606,674,164c0-51.832,42.168-94,94-94
		s94,42.168,94,94c0,10.606-1.843,21.138-5.477,31.303l-0.24,0.671l0.238,0.672C860.157,206.882,862,217.431,862,228
		c0,33.363-18.011,64.521-47.003,81.316L814,309.894V396c0,3.309-2.691,6-6,6h-25.984v112H754z M750.016,374H786v-36h-35.984V374z
		 M750.016,326H786v-32.246l14.956-8.665C821.338,273.279,834,251.404,834,228c0-36.393-29.607-66-66-66s-66,29.607-66,66
		c0,23.417,12.668,45.299,33.061,57.106l14.955,8.664V326z M768,134c22.709,0,44.676,8.292,61.854,23.348l3.98,3.489l-0.679-5.25
		C828.91,122.757,800.899,98,768,98s-60.91,24.757-65.155,57.587l-0.679,5.25l3.98-3.489C723.324,142.292,745.291,134,768,134z
		 M482,514V402h-26c-3.309,0-6-2.691-6-6V258h-66l-15.884-0.404c-26.937-2.453-51.466-17.852-65.625-41.204l-2.662-4.39
		l-1.009,5.034C293.141,245.366,278.083,258,250,258c-48.523,0-88-38.58-88-86s39.477-86,88-86c28.083,0,43.141,12.634,48.82,40.963
		l1.009,5.034l2.662-4.39c14.17-23.37,38.726-38.775,65.688-41.209l0.323-0.029C375.205,86.078,485.558,86,543.925,86
		c24.229,1.444,44.327,10.774,58.127,26.984c12.979,15.247,19.878,35.657,19.948,59.022c0.07,22.581-4.088,41.006-12.36,54.764
		c-10.158,16.895-26.913,27.401-49.805,31.23H542v138c0,3.309-2.691,6-6,6h-26v112H482z M478,374h36v-84h-36V374z M478,278h36v-48
		h43.391l0.185-0.035c19.002-3.595,36.567-13.094,36.425-57.87c-0.049-16.401-5.104-54.894-50.892-58.09l-0.14-0.005
		c-63.067,0-161.107,0.089-172.714,0.336l-0.079,0.001l-0.078,0.008C340.397,117.319,318,142.105,318,172
		c0,29.717,22.244,54.489,51.742,57.622l0.161,0.011L384.355,230L478,230V278z M250,114c-33.084,0-60,26.019-60,58s26.916,58,60,58
		c16.208,0,24-2.464,24-58S266.208,114,250,114z"/>
</g>
</svg>
