<?xml version="1.0" encoding="iso-8859-1"?>
<!-- Generator: Adobe Illustrator 15.1.0, SVG Export Plug-In . SVG Version: 6.00 Build 0)  -->
<!DOCTYPE svg PUBLIC "-//W3C//DTD SVG 1.1//EN" "http://www.w3.org/Graphics/SVG/1.1/DTD/svg11.dtd">
<svg version="1.1" id="Layer_1" xmlns="http://www.w3.org/2000/svg" xmlns:xlink="http://www.w3.org/1999/xlink" x="0px" y="0px"
	 width="1024px" height="1024px" viewBox="0 0 1024 1024" style="enable-background:new 0 0 1024 1024;" xml:space="preserve">
<g>
	<polygon points="0,0.001 0,0 0.001,0 	"/>
</g>
<g id="active_1_">
	<path d="M368.007,514c-0.92,0-1.814-0.086-2.734-0.262c-3.653-0.715-6.815-2.818-8.896-5.92c-2.082-3.103-2.831-6.833-2.11-10.503
		c10.091-51.645,34.095-73.309,52.456-82.39l2.014-0.996l-1.222-1.885c-26.031-40.146-40.486-82.752-42.963-126.635
		c-1.985-35.174,3.674-71.273,16.82-107.294c22.827-62.547,60.277-103.018,60.649-103.409l0.07-0.078
		C442.676,73.942,501.477,6,561.429,6c19.53,0,36.877,7.036,51.559,20.912c1.387,1.525,36.054,40.268,33.288,89.359
		c-1.594,28.164-14.892,53.577-39.521,75.533c-0.711,0.62-1.379,1.254-2.048,1.888c-0.46,0.437-0.92,0.874-1.402,1.311l-3.487,3.163
		l4.697,0.314c36.717,2.458,65.478,32.995,65.478,69.52c0,18.379-7.1,35.723-19.99,48.837
		c-12.86,13.082-30.067,20.535-48.449,20.983l-4.831,0.118l3.502,3.331c3.142,2.988,5.48,4.912,6.341,5.601l0.086,0.069
		c33.403,25.606,49.521,52.3,47.908,79.34c-2.225,37.156-38.006,58.893-39.527,59.799c-10.665,6.919-33.521,14.953-63.055,14.953
		c-28.418-0.008-70.411-7.519-109.112-43.24c-5.247-5.743-10.388-11.739-15.282-17.826l-0.972-1.209l-1.413,0.641
		c-12.759,5.791-35.375,21.713-43.496,63.29C380.412,509.241,374.653,514,368.007,514z M561.429,34
		c-38.37,0-84.275,42.96-98.726,59.513c-2.496,2.669-25.333,27.639-44.415,66.459c-25.068,50.997-32.846,102.086-23.119,151.849
		l0.234,1.196l1.17,0.341c34.64,10.087,99.505,44.04,144.731,158.098l0.465,1.172l1.258,0.086c3.071,0.21,6.083,0.317,8.949,0.317
		c21.804,0,40.35-5.581,48.354-10.767c2.583-1.616,25.167-16.346,26.347-37.827c1.174-21.35-19.516-41.856-37.078-55.3
		c-1.17-0.911-29.145-22.959-44.18-57.361l-0.105-0.241l-0.165-0.206c-10.12-12.674-15.469-27.658-15.469-43.33
		c0-16.432,5.807-31.97,16.792-44.934l0.164-0.194l0.11-0.229c8.754-18.136,22.745-35.597,41.586-51.896
		c18.778-16.734,28.875-35.587,30.032-56.056c2.054-36.373-25.028-67.879-25.302-68.193l-0.066-0.076l-0.073-0.069
		C584.179,38.156,573.583,34,561.429,34z"/>
</g>
</svg>
