<?xml version="1.0" encoding="iso-8859-1"?>
<!-- Generator: Adobe Illustrator 15.1.0, SVG Export Plug-In . SVG Version: 6.00 Build 0)  -->
<!DOCTYPE svg PUBLIC "-//W3C//DTD SVG 1.1//EN" "http://www.w3.org/Graphics/SVG/1.1/DTD/svg11.dtd">
<svg version="1.1" id="Layer_1" xmlns="http://www.w3.org/2000/svg" xmlns:xlink="http://www.w3.org/1999/xlink" x="0px" y="0px"
	 width="1024px" height="1024px" viewBox="0 0 1024 1024" style="enable-background:new 0 0 1024 1024;" xml:space="preserve">
<g>
	<polygon points="0,0.001 0,0 0.001,0 	"/>
</g>
<g id="projectors">
	<path d="M720,514c-7.72,0-14-6.28-14-14v-18H302v18c0,7.72-6.28,14-14,14h-32c-7.72,0-14-6.28-14-14v-18h-50c-7.72,0-14-6.28-14-14
		V196c0-7.72,6.28-14,14-14h624c7.72,0,14,6.28,14,14v272c0,7.72-6.28,14-14,14h-50v18c0,7.72-6.28,14-14,14H720z M206,454h596V210
		H206V454z M664,418.016c-47.421,0-86-38.58-86-86s38.579-86,86-86s86,38.58,86,86S711.421,418.016,664,418.016z M664,274.016
		c-31.981,0-58,26.019-58,58s26.019,58,58,58s58-26.019,58-58S695.981,274.016,664,274.016z M258,386v-12h156v12H258z M258,338v-12
		h156v12H258z M258,290v-12h156v12H258z"/>
</g>
</svg>
