<?xml version="1.0" encoding="iso-8859-1"?>
<!-- Generator: Adobe Illustrator 15.1.0, SVG Export Plug-In . SVG Version: 6.00 Build 0)  -->
<!DOCTYPE svg PUBLIC "-//W3C//DTD SVG 1.1//EN" "http://www.w3.org/Graphics/SVG/1.1/DTD/svg11.dtd">
<svg version="1.1" id="Layer_1" xmlns="http://www.w3.org/2000/svg" xmlns:xlink="http://www.w3.org/1999/xlink" x="0px" y="0px"
	 width="1024px" height="1024px" viewBox="0 0 1024 1024" style="enable-background:new 0 0 1024 1024;" xml:space="preserve">
<g>
	<polygon points="0,0.001 0,0 0.001,0 	"/>
</g>
<g id="wireless-receiver">
	<path d="M744,514c-3.309,0-6-2.691-6-6v-26H286v26c0,3.309-2.691,6-6,6h-32c-3.309,0-6-2.691-6-6v-26h-50c-7.72,0-14-6.28-14-14
		V340c0-7.72,6.28-14,14-14h640c7.72,0,14,6.28,14,14v128c0,7.72-6.28,14-14,14h-50v26c0,3.309-2.691,6-6,6H744z M206,454h612V354
		H206V454z M512,434c-16.542,0-30-13.458-30-30s13.458-30,30-30s30,13.458,30,30S528.542,434,512,434z M458.749,291.735
		c-0.915,0-1.78-0.382-2.436-1.077l-7.599-8.176c-1.371-1.474-1.358-3.93,0.028-5.257c17.362-16.704,39.815-25.901,63.227-25.901
		c23.425,0,45.889,9.208,63.252,25.929c1.4,1.322,1.416,3.758,0.049,5.229l-7.61,8.188c-0.638,0.675-1.5,1.053-2.416,1.053
		c-0.912,0-1.808-0.366-2.522-1.031c-14.01-13.063-32.021-20.258-50.714-20.258c-18.697,0-36.718,7.195-50.746,20.259
		C460.543,291.366,459.653,291.735,458.749,291.735z M610.947,242.68c-0.888,0-1.743-0.366-2.408-1.031
		c-26.278-26.141-60.567-40.535-96.554-40.535c-35.982,0-70.261,14.395-96.521,40.532c-0.674,0.665-1.543,1.035-2.44,1.035
		c-0.899,0-1.746-0.379-2.383-1.069l-7.613-8.191c-1.392-1.476-1.373-3.908,0.033-5.323C432.644,198.371,471.336,182,512.008,182
		s79.364,16.371,108.949,46.098c1.384,1.404,1.385,3.838-0.005,5.31l-7.635,8.197C612.679,242.302,611.84,242.68,610.947,242.68z"/>
</g>
</svg>
