<?xml version="1.0" encoding="iso-8859-1"?>
<!-- Generator: Adobe Illustrator 15.1.0, SVG Export Plug-In . SVG Version: 6.00 Build 0)  -->
<!DOCTYPE svg PUBLIC "-//W3C//DTD SVG 1.1//EN" "http://www.w3.org/Graphics/SVG/1.1/DTD/svg11.dtd">
<svg version="1.1" id="Layer_1" xmlns="http://www.w3.org/2000/svg" xmlns:xlink="http://www.w3.org/1999/xlink" x="0px" y="0px"
	 width="1024px" height="1024px" viewBox="0 0 1024 1024" style="enable-background:new 0 0 1024 1024;" xml:space="preserve">
<g>
	<polygon points="0,0.001 0,0 0.001,0 	"/>
</g>
<g id="dvd-players">
	<path d="M776,514c-3.309,0-6-2.691-6-6v-26H254v26c0,3.309-2.691,6-6,6h-32c-3.309,0-6-2.691-6-6v-26h-50c-7.72,0-14-6.28-14-14
		V340c0-7.72,6.28-14,14-14h704c7.72,0,14,6.28,14,14v128c0,7.72-6.28,14-14,14h-50v26c0,3.309-2.691,6-6,6H776z M174,454h676V354
		H174V454z M338,434v-60h348v60H338z M350,422h324v-36H350V422z M465.07,168.688h-5.626l0.541,2.434
		c0.046,0.208,1.142,5.131,1.953,8.283c0.864,3.289,1.244,11.03,1.28,11.808c-0.037,1.283-1.218,29.265-29.757,45.229
		c-22.648,12.602-49.027,13.962-59.317,13.962c-2.017,0-3.17-0.058-3.182-0.058l-32.521-0.002l13.917-69.438h31.096l-10.068,50.621
		l2.304,0.126c0,0,0.845,0.046,2.325,0.046c8.611,0,51.645-1.842,53.217-38.207c0.246-5.668-1.511-10.507-5.22-14.381
		c-9.068-9.47-27.576-10.492-35.112-10.492c-1.746,0-2.883,0.054-3.158,0.068h-32.651L359.159,150h129.354l19.826,71.163
		L555.743,150h75.819c0.15,0.008,23.059,1.056,40.29,12.883c14.916,10.249,14.145,28.016,14.135,28.194
		c-0.007,0.376-0.709,29.104-29.776,45.365c-22.66,12.602-49.002,13.962-59.276,13.962c-2.014,0-3.164-0.058-3.176-0.058
		l-32.583-0.002l13.932-69.438h31.097l-10.068,50.622l2.304,0.125c0,0,0.846,0.046,2.326,0.046c8.613,0,51.66-1.842,53.232-38.207
		c0.242-5.669-1.517-10.508-5.229-14.381c-9.073-9.47-27.583-10.492-35.12-10.492c-1.746,0-2.883,0.054-3.157,0.068h-36.114
		L496.79,271.669L465.07,168.688z"/>
</g>
</svg>
