<?xml version="1.0" encoding="iso-8859-1"?>
<!-- Generator: Adobe Illustrator 15.1.0, SVG Export Plug-In . SVG Version: 6.00 Build 0)  -->
<!DOCTYPE svg PUBLIC "-//W3C//DTD SVG 1.1//EN" "http://www.w3.org/Graphics/SVG/1.1/DTD/svg11.dtd">
<svg version="1.1" id="Layer_1" xmlns="http://www.w3.org/2000/svg" xmlns:xlink="http://www.w3.org/1999/xlink" x="0px" y="0px"
	 width="1024px" height="1024px" viewBox="0 0 1024 1024" style="enable-background:new 0 0 1024 1024;" xml:space="preserve">
<g>
	<polygon points="0,0.001 0,0 0.001,0 	"/>
</g>
<g id="bookshelf-stereos">
	<path d="M704,514c-7.72,0-14-6.28-14-14V100c0-7.72,6.28-14,14-14h208c7.72,0,14,6.28,14,14v400c0,7.72-6.28,14-14,14H704z
		 M718,486h180V114H718V486z M352,514c-7.72,0-14-6.28-14-14V324c0-7.72,6.28-14,14-14h304c7.72,0,14,6.28,14,14v176
		c0,7.72-6.28,14-14,14H352z M366,486h276V338H366V486z M96,514c-7.72,0-14-6.28-14-14V100c0-7.72,6.28-14,14-14h208
		c7.72,0,14,6.28,14,14v400c0,7.72-6.28,14-14,14H96z M110,486h180V114H110V486z M808,434c-29.775,0-54-24.224-54-54
		s24.225-54,54-54s54,24.224,54,54S837.775,434,808,434z M418,434v-44h172v44H418z M430,422h148v-20H430V422z M200,434
		c-29.776,0-54-24.224-54-54s24.224-54,54-54s54,24.224,54,54S229.776,434,200,434z M808,242c-20.953,0-38-17.047-38-38
		s17.047-38,38-38s38,17.047,38,38S828.953,242,808,242z M200,242c-20.953,0-38-17.047-38-38s17.047-38,38-38s38,17.047,38,38
		S220.953,242,200,242z"/>
</g>
</svg>
