<?xml version="1.0" encoding="iso-8859-1"?>
<!-- Generator: Adobe Illustrator 15.1.0, SVG Export Plug-In . SVG Version: 6.00 Build 0)  -->
<!DOCTYPE svg PUBLIC "-//W3C//DTD SVG 1.1//EN" "http://www.w3.org/Graphics/SVG/1.1/DTD/svg11.dtd">
<svg version="1.1" id="Layer_1" xmlns="http://www.w3.org/2000/svg" xmlns:xlink="http://www.w3.org/1999/xlink" x="0px" y="0px"
	 width="1024px" height="1024px" viewBox="0 0 1024 1024" style="enable-background:new 0 0 1024 1024;" xml:space="preserve">
<g>
	<polygon points="0,0.001 0,0 0.001,0 	"/>
</g>
<g id="accessories">
	<path d="M512,514c-43.009,0-78-34.991-78-78V321.554l-1.601-0.326C414.785,317.643,402,301.986,402,284V172
		c0-17.986,12.785-33.643,30.399-37.228l1.601-0.326V100c0-7.72,6.28-14,14-14s14,6.28,14,14v34.446l1.601,0.326
		C481.215,138.357,494,154.014,494,172v112c0,17.986-12.785,33.643-30.399,37.228L462,321.554V436c0,27.57,22.43,50,50,50
		s50-22.43,50-50v-82.446l-1.602-0.326C542.784,349.643,530,333.986,530,316V204c0-17.986,12.784-33.643,30.398-37.228l1.602-0.326
		V132c0-7.72,6.28-14,14-14s14,6.28,14,14v34.446l1.602,0.326C609.216,170.357,622,186.014,622,204v112
		c0,17.986-12.784,33.643-30.398,37.228L590,353.554V436C590,479.009,555.01,514,512,514z M568,194c-5.514,0-10,4.486-10,10v112
		c0,5.514,4.486,10,10,10h16c5.514,0,10-4.486,10-10V204c0-5.514-4.486-10-10-10H568z M440,162c-5.514,0-10,4.486-10,10v42h36v-42
		c0-5.514-4.486-10-10-10H440z"/>
</g>
</svg>
