<?xml version="1.0" encoding="iso-8859-1"?>
<!-- Generator: Adobe Illustrator 15.1.0, SVG Export Plug-In . SVG Version: 6.00 Build 0)  -->
<!DOCTYPE svg PUBLIC "-//W3C//DTD SVG 1.1//EN" "http://www.w3.org/Graphics/SVG/1.1/DTD/svg11.dtd">
<svg version="1.1" id="Layer_1" xmlns="http://www.w3.org/2000/svg" xmlns:xlink="http://www.w3.org/1999/xlink" x="0px" y="0px"
	 width="1008px" height="1008px" viewBox="0 0 1008 1008" style="enable-background:new 0 0 1008 1008;" xml:space="preserve">
<g>
	<polygon points="0,0.001 0,0 0.001,0 	"/>
</g>
<g id="panorama">
	<path d="M327.12,676c-13.711,0-24.865-11.154-24.865-24.865v-42.246c0-13.705,11.154-24.855,24.865-24.855
		c13.722,0,24.886,11.15,24.886,24.855v17.361H851.27v-505.5H352.005l-0.246,1.716c-1.631,11.386-11.516,23.674-24.639,23.674
		c-13.246,0-24.865-12.726-24.865-27.234V95.875C302.255,82.159,313.409,71,327.12,71h548.994C889.836,71,901,82.159,901,95.875
		v555.26C901,664.846,889.836,676,876.114,676H327.12z M786.475,575.635c-562.175,0-689.658-54.016-694.81-56.314
		c-3.444-1.52-5.665-4.932-5.665-8.695V136.143c0-3,1.431-5.853,3.827-7.632c1.617-1.214,3.633-1.879,5.683-1.879
		c0.931,0,1.857,0.133,2.753,0.397c2.342,0.702,239.298,70.505,597.239,70.505c30.373,0,59.179-0.496,90.65-1.56
		c0.187-0.01,0.334-0.014,0.48-0.014c2.338,0,4.688,0.978,6.449,2.682c1.852,1.81,2.918,4.308,2.918,6.848v360.619
		C796,571.361,791.727,575.635,786.475,575.635z M105.051,503.975l1.39,0.445c37.692,12.076,197.292,51.528,668.485,52.173
		l2.003,0.003V215.315l-2.059,0.061c-27.917,0.817-53.137,1.198-79.368,1.198c-308.58,0-528.032-51.483-587.942-67.262l-2.509-0.661
		V503.975z M346.885,491.564c-49.514,0-121.991-7.223-187.225-41.442l120.061-217.55l127.577,255.194
		c-7.479,1.05-29.972,3.798-60.409,3.798C346.887,491.564,346.887,491.564,346.885,491.564z M594.583,487.338
		c-49.704,0-90.142-40.437-90.142-90.141c0-49.705,40.438-90.143,90.142-90.143s90.142,40.438,90.142,90.143
		C684.725,446.901,644.287,487.338,594.583,487.338z"/>
</g>
</svg>
