<?xml version="1.0" encoding="iso-8859-1"?>
<!-- Generator: Adobe Illustrator 15.1.0, SVG Export Plug-In . SVG Version: 6.00 Build 0)  -->
<!DOCTYPE svg PUBLIC "-//W3C//DTD SVG 1.1//EN" "http://www.w3.org/Graphics/SVG/1.1/DTD/svg11.dtd">
<svg version="1.1" id="Layer_1" xmlns="http://www.w3.org/2000/svg" xmlns:xlink="http://www.w3.org/1999/xlink" x="0px" y="0px"
	 width="1024px" height="1024px" viewBox="0 0 1024 1024" style="enable-background:new 0 0 1024 1024;" xml:space="preserve">
<g>
	<polygon points="0,0.001 0,0 0.001,0 	"/>
</g>
<g id="battery_1_">
	<path d="M29.062,710C14.691,710,3,698.315,3,683.953V102.094C3,87.706,14.691,76,29.062,76h869.875
		C913.309,76,925,87.706,925,102.094V236h70.312c14.164,0,25.688,11.523,25.688,25.688v262.641
		c0,14.155-11.523,25.672-25.688,25.672H925v133.953C925,698.315,913.309,710,898.938,710H29.062z M124.656,166
		C106.905,166,93,179.583,93,196.922v391.453C93,605.813,107.201,620,124.656,620h678.828c17.473,0,31.688-14.187,31.688-31.625
		V197.672c0-17.464-14.215-31.672-31.688-31.672H124.656z M638.5,550c-15.164,0-27.5-12.344-27.5-27.516V263.516
		C611,248.343,623.336,236,638.5,236h99c15.164,0,27.5,12.343,27.5,27.516v258.969C765,537.656,752.664,550,737.5,550H638.5z
		 M414.5,550c-15.164,0-27.5-12.344-27.5-27.516V263.516C387,248.343,399.336,236,414.5,236h99c15.164,0,27.5,12.343,27.5,27.516
		v258.969C541,537.656,528.664,550,513.5,550H414.5z M190.5,550c-15.164,0-27.5-12.344-27.5-27.516V263.516
		C163,248.343,175.336,236,190.5,236h99c15.164,0,27.5,12.343,27.5,27.516v258.969C317,537.656,304.664,550,289.5,550H190.5z"/>
</g>
</svg>
