<?xml version="1.0" encoding="iso-8859-1"?>
<!-- Generator: Adobe Illustrator 15.1.0, SVG Export Plug-In . SVG Version: 6.00 Build 0)  -->
<!DOCTYPE svg PUBLIC "-//W3C//DTD SVG 1.1//EN" "http://www.w3.org/Graphics/SVG/1.1/DTD/svg11.dtd">
<svg version="1.1" id="Layer_1" xmlns="http://www.w3.org/2000/svg" xmlns:xlink="http://www.w3.org/1999/xlink" x="0px" y="0px"
	 width="1032px" height="1032px" viewBox="0 0 1032 1032" style="enable-background:new 0 0 1032 1032;" xml:space="preserve">
<g>
	<polygon points="0,0.001 0,0 0.001,0 	"/>
</g>
<g id="pinterest">
	<path d="M374.681,916.504c-0.398,0-1.34-0.112-1.48-1.154c-0.066-0.494-0.175-1.244-0.318-2.231
		c-8.729-60.188-8.195-115.997,1.506-157.149c8.104-34.347,54.422-230.472,54.422-230.472l0.333-1.41l-0.648-1.297
		c-0.129-0.26-13.079-26.751-13.079-65.169c0-29.221,8.175-56.153,23.019-75.834c14.427-19.128,33.8-29.662,54.551-29.662
		c39.126,0,53.067,30.744,53.067,59.516c0,24.084-9.923,56.208-20.428,90.219c-5.99,19.393-12.184,39.445-16.816,58.959
		c-5.158,21.806-0.807,42.903,12.25,59.409c13.595,17.186,34.892,27.042,58.431,27.042c78.73,0,138.102-98.429,138.102-228.953
		c0-100.908-70.658-166.109-180.01-166.109c-137.896,0-212.303,106.462-212.303,206.633c0,34.582,9.444,62.562,28.872,85.536
		c7.095,8.331,7.738,10.757,5.297,19.976c-1.051,3.939-2.764,10.728-4.42,17.291c-1.611,6.385-3.276,12.986-4.25,16.63
		c-1.536,5.913-5.101,9.155-10.046,9.155c-1.797,0-3.726-0.418-5.732-1.244c-27.427-11.188-48.761-31.593-63.421-60.65
		c-13.562-26.882-20.73-60.506-20.73-97.236c0-29.799,6.456-61.081,18.67-90.462c13.002-31.279,31.834-59.521,55.973-83.942
		C364.225,234.709,434.475,188,549.195,188c74.595,0,142.676,25.926,191.702,73.001c22.923,22.01,40.857,47.626,53.307,76.137
		C806.676,365.703,813,395.713,813,426.336c0,80.162-22.122,152.881-62.29,204.762c-19.957,25.775-43.759,45.85-70.746,59.666
		c-27.904,14.286-58.593,21.529-91.212,21.529c-20.859,0-42.669-5.465-61.411-15.388c-17.776-9.41-31.402-21.916-38.369-35.211
		l-4.86-9.276l-2.562,10.154c-0.246,0.975-24.635,97.64-29.73,116.196c-15.568,56.395-57.449,113.778-74.733,135.831
		c-0.435,0.555-0.76,0.97-0.966,1.238C375.672,916.415,375.026,916.504,374.681,916.504z"/>
</g>
</svg>
