<?xml version="1.0" encoding="iso-8859-1"?>
<!-- Generator: Adobe Illustrator 15.1.0, SVG Export Plug-In . SVG Version: 6.00 Build 0)  -->
<!DOCTYPE svg PUBLIC "-//W3C//DTD SVG 1.1//EN" "http://www.w3.org/Graphics/SVG/1.1/DTD/svg11.dtd">
<svg version="1.1" id="Layer_1" xmlns="http://www.w3.org/2000/svg" xmlns:xlink="http://www.w3.org/1999/xlink" x="0px" y="0px"
	 width="1032px" height="1032px" viewBox="0 0 1032 1032" style="enable-background:new 0 0 1032 1032;" xml:space="preserve">
<g>
	<polygon points="0,0.001 0,0 0.001,0 	"/>
</g>
<g id="instagram">
	<path d="M178.131,954C129.535,954,90,914.446,90,865.828V190.133C90,141.536,129.535,102,178.131,102h675.696
		C902.445,102,942,141.536,942,190.133v675.695C942,914.446,902.445,954,853.827,954H178.131z M174.131,804.414
		c0,36.069,29.345,65.414,65.414,65.414h552.869c36.069,0,65.413-29.345,65.413-65.414V462.543h-77.266l1.105,4.883
		c4.478,19.777,6.747,40.157,6.747,60.574c0,72.756-28.338,141.162-79.795,192.619C657.162,772.075,588.756,800.414,516,800.414
		c-72.774,0-141.194-28.339-192.656-79.795C271.885,669.164,243.545,600.758,243.545,528c0-20.297,2.284-40.677,6.788-60.574
		l1.105-4.883h-77.308V804.414z M516,339.719c-103.82,0-188.283,84.462-188.283,188.281c0,103.797,84.463,188.242,188.283,188.242
		c103.796,0,188.24-84.445,188.24-188.242C704.24,424.181,619.796,339.719,516,339.719z M700.24,186.133
		c-19.131,0-34.695,15.564-34.695,34.695v122.891c0,19.131,15.564,34.695,34.695,34.695h122.891
		c19.132,0,34.696-15.564,34.696-34.695V220.828c0-19.131-15.564-34.695-34.696-34.695H700.24z"/>
</g>
</svg>
