<?xml version="1.0" encoding="iso-8859-1"?>
<!-- Generator: Adobe Illustrator 15.1.0, SVG Export Plug-In . SVG Version: 6.00 Build 0)  -->
<!DOCTYPE svg PUBLIC "-//W3C//DTD SVG 1.1//EN" "http://www.w3.org/Graphics/SVG/1.1/DTD/svg11.dtd">
<svg version="1.1" id="Layer_1" xmlns="http://www.w3.org/2000/svg" xmlns:xlink="http://www.w3.org/1999/xlink" x="0px" y="0px"
	 width="1032px" height="1032px" viewBox="0 0 1032 1032" style="enable-background:new 0 0 1032 1032;" xml:space="preserve">
<g>
	<polygon points="0,0.001 0,0 0.001,0 	"/>
</g>
<g id="circle-play">
	<path d="M494.5,911c-54.608,0-107.581-10.693-157.446-31.783c-48.167-20.372-91.427-49.537-128.577-86.686
		c-37.15-37.149-66.317-80.408-86.69-128.576C100.694,614.088,90,561.112,90,506.5c0-54.607,10.694-107.58,31.787-157.445
		c20.374-48.167,49.541-91.426,86.691-128.577c37.15-37.15,80.41-66.318,128.576-86.691C386.92,112.695,439.893,102,494.5,102
		c54.612,0,107.588,10.695,157.455,31.787c48.167,20.373,91.426,49.54,128.575,86.69c37.148,37.15,66.313,80.41,86.686,128.577
		C888.307,398.92,899,451.892,899,506.5c0,54.613-10.693,107.589-31.784,157.455c-20.371,48.168-49.536,91.428-86.686,128.576
		c-37.148,37.148-80.407,66.313-128.575,86.686C602.089,900.307,549.113,911,494.5,911z M494.5,180
		C314.467,180,168,326.467,168,506.5C168,686.532,314.467,833,494.5,833C674.532,833,821,686.532,821,506.5
		C821,326.467,674.532,180,494.5,180z M412.09,653c-11.629,0-21.09-9.461-21.09-21.09V381.09c0-11.629,9.461-21.09,21.09-21.09
		c2.946,0,5.928,0.76,9.115,2.322l248.853,124.292v0.155l2.196,1.11C679.5,491.539,684,498.674,684,506.5s-4.5,14.961-11.745,18.621
		L423.504,649.697l-0.139-0.1l-2.156,1.069C418.045,652.236,415.062,653,412.09,653z"/>
</g>
</svg>
