<?xml version="1.0" encoding="iso-8859-1"?>
<!-- Generator: Adobe Illustrator 15.1.0, SVG Export Plug-In . SVG Version: 6.00 Build 0)  -->
<!DOCTYPE svg PUBLIC "-//W3C//DTD SVG 1.1//EN" "http://www.w3.org/Graphics/SVG/1.1/DTD/svg11.dtd">
<svg version="1.1" id="Layer_1" xmlns="http://www.w3.org/2000/svg" xmlns:xlink="http://www.w3.org/1999/xlink" x="0px" y="0px"
	 width="1032px" height="1032px" viewBox="0 0 1032 1032" style="enable-background:new 0 0 1032 1032;" xml:space="preserve">
<g>
	<polygon points="0,0.001 0,0 0.001,0 	"/>
</g>
<g id="mobile-menu">
	<path d="M107.5,868c-9.649,0-17.5-7.851-17.5-17.5v-129c0-9.649,7.851-17.5,17.5-17.5h817c9.649,0,17.5,7.851,17.5,17.5v129
		c0,9.649-7.851,17.5-17.5,17.5H107.5z M107.5,610c-9.649,0-17.5-7.851-17.5-17.5v-129c0-9.649,7.851-17.5,17.5-17.5h817
		c9.649,0,17.5,7.851,17.5,17.5v129c0,9.649-7.851,17.5-17.5,17.5H107.5z M107.5,352c-9.649,0-17.5-7.851-17.5-17.5v-129
		c0-9.649,7.851-17.5,17.5-17.5h817c9.649,0,17.5,7.851,17.5,17.5v129c0,9.649-7.851,17.5-17.5,17.5H107.5z"/>
</g>
</svg>
