<?xml version="1.0" encoding="iso-8859-1"?>
<!-- Generator: Adobe Illustrator 15.1.0, SVG Export Plug-In . SVG Version: 6.00 Build 0)  -->
<!DOCTYPE svg PUBLIC "-//W3C//DTD SVG 1.1//EN" "http://www.w3.org/Graphics/SVG/1.1/DTD/svg11.dtd">
<svg version="1.1" id="Layer_1" xmlns="http://www.w3.org/2000/svg" xmlns:xlink="http://www.w3.org/1999/xlink" x="0px" y="0px"
	 width="1024px" height="1024px" viewBox="0 0 1024 1024" style="enable-background:new 0 0 1024 1024;" xml:space="preserve">
<g>
	<polygon points="0,0.001 0,0 0.001,0 	"/>
</g>
<g id="speaker-up">
	<path d="M326,906V717.515L142.485,534h739.029L698,717.515V906H326z M773.944,458C771.04,316.032,654.651,201.438,512,201.438
		c-142.651,0-259.04,114.595-261.944,256.562H134.046c0.753-48.908,10.721-96.357,29.658-141.126
		c19.04-45.011,46.297-85.437,81.015-120.154s75.144-61.975,120.154-81.015C411.471,95.994,460.972,86,512,86
		c51.043,0,100.553,9.994,147.153,29.705c45.012,19.039,85.437,46.296,120.15,81.015c34.713,34.716,61.965,75.142,81,120.154
		c18.932,44.767,28.897,92.217,29.65,141.127H773.944z M390.146,458c3.139-64.495,56.595-116,121.854-116
		c65.259,0,118.715,51.505,121.854,116H390.146z"/>
</g>
</svg>
