<?xml version="1.0" encoding="iso-8859-1"?>
<!-- Generator: Adobe Illustrator 15.1.0, SVG Export Plug-In . SVG Version: 6.00 Build 0)  -->
<!DOCTYPE svg PUBLIC "-//W3C//DTD SVG 1.1//EN" "http://www.w3.org/Graphics/SVG/1.1/DTD/svg11.dtd">
<svg version="1.1" id="Layer_1" xmlns="http://www.w3.org/2000/svg" xmlns:xlink="http://www.w3.org/1999/xlink" x="0px" y="0px"
	 width="1024px" height="1024px" viewBox="0 0 1024 1024" style="enable-background:new 0 0 1024 1024;" xml:space="preserve">
<g>
	<polygon points="0,0.001 0,0 0.001,0 	"/>
</g>
<g id="_x33_-alpha-bold">
	<path d="M435.75,781c-46.87,0-86.58-8.996-118.026-26.738c-31.635-17.849-56.645-40.692-74.334-67.897
		c-17.792-27.115-30.902-58.043-38.972-91.935C196.511,560.76,192.5,527.641,192.5,496c0-37.11,4.882-73.172,14.512-107.183
		c9.579-33.835,24.921-64.378,45.6-90.78c20.618-26.325,47.434-47.635,79.701-63.34C364.5,218.972,403.169,211,447.25,211
		c31.69,0,59.587,3.984,82.917,11.843c23.266,7.836,43.207,18.711,59.269,32.321c15.987,13.607,29,29.634,38.672,47.631
		c9.641,18.23,16.951,37.838,21.721,58.262l1.21,4.557l5.836-0.154l0.938-4.469c1.493-7.28,3.3-15.482,5.212-24.167
		c0.659-2.991,1.338-6.072,2.032-9.246c2.891-13.142,5.383-26.172,7.406-38.727c0.877-5.466,1.71-10.718,2.511-15.757
		c1.14-7.177,2.21-13.924,3.238-20.238c1.611-9.953,3.026-19.805,4.391-29.357h125.045c-6.416,56.82-16.313,111.902-29.43,163.765
		c-13.485,53.385-31.607,107.497-53.86,160.83l-0.437,1.046l25.489,75.074c3.531,9.901,7.54,17.901,11.931,23.822
		c4.535,6.002,9.293,10.354,14.562,13.326c5.255,3.021,10.604,4.861,16.334,5.611c5.27,0.69,11.039,1.025,17.64,1.025
		c5.683,0,12.102-0.77,19.125-2.289v103.314c-16.477,3.095-35.553,4.662-56.75,4.662c-35.841,0-63.975-5.165-83.619-15.351
		c-19.434-9.957-35.461-32.164-47.651-66.014l-4.224-14.535l-2.804-10.165l-4.879,9.648c-17.141,31.339-41.303,56.765-71.769,75.485
		C526.925,771.498,486.03,781,435.75,781z M459.875,316.625c-15.646,0-31.04,3.436-45.755,10.212
		c-14.682,6.767-28.076,17.408-39.809,31.628c-11.723,13.992-21.291,32.589-28.423,55.259
		c-6.976,22.174-10.513,49.855-10.513,82.275c0,58.256,11.642,103.273,34.603,133.803c23.143,30.942,53.39,46.635,89.897,46.635
		c23.447,0,43.375-5.099,59.231-15.154c15.626-9.846,28.494-23.356,38.238-40.152c9.681-16.844,16.486-36.117,20.234-57.296
		c3.845-21.022,5.796-43.851,5.796-67.835c0-58.824-11.475-103.844-34.106-133.808C526.384,331.955,496.308,316.625,459.875,316.625
		z"/>
</g>
</svg>
