<?xml version="1.0" encoding="iso-8859-1"?>
<!-- Generator: Adobe Illustrator 15.1.0, SVG Export Plug-In . SVG Version: 6.00 Build 0)  -->
<!DOCTYPE svg PUBLIC "-//W3C//DTD SVG 1.1//EN" "http://www.w3.org/Graphics/SVG/1.1/DTD/svg11.dtd">
<svg version="1.1" id="Layer_1" xmlns="http://www.w3.org/2000/svg" xmlns:xlink="http://www.w3.org/1999/xlink" x="0px" y="0px"
	 width="1024px" height="1024px" viewBox="0 0 1024 1024" style="enable-background:new 0 0 1024 1024;" xml:space="preserve">
<g>
	<polygon points="0,0.001 0,0 0.001,0 	"/>
</g>
<g id="_x36_-support">
	<path d="M706.45,906H352c-14.336,0-26-11.664-26-26V662h346c56.243,0,102-45.757,102-102V342h154c14.336,0,26,11.664,26,26v512
		c0,14.336-11.664,26-26,26H825.876l2.449,119.426L706.45,906z M198,586H96c-14.336,0-26-11.664-26-26V48c0-14.336,11.664-26,26-26
		h576c14.336,0,26,11.664,26,26v512c0,14.336-11.664,26-26,26H317.515L198,705.515V586z M186,470h268v-76H186V470z M186,342h396v-76
		H186V342z M186,214h396v-76H186V214z"/>
</g>
</svg>
