<?xml version="1.0" encoding="iso-8859-1"?>
<!-- Generator: Adobe Illustrator 15.1.0, SVG Export Plug-In . SVG Version: 6.00 Build 0)  -->
<!DOCTYPE svg PUBLIC "-//W3C//DTD SVG 1.1//EN" "http://www.w3.org/Graphics/SVG/1.1/DTD/svg11.dtd">
<svg version="1.1" id="Layer_1" xmlns="http://www.w3.org/2000/svg" xmlns:xlink="http://www.w3.org/1999/xlink" x="0px" y="0px"
	 width="1024px" height="1024px" viewBox="0 0 1024 1024" style="enable-background:new 0 0 1024 1024;" xml:space="preserve">
<g>
	<polygon points="0,0.001 0,0 0.001,0 	"/>
</g>
<g id="_x36_-favorite">
	<path d="M479.989,903.473c-31.14-31.492-61.804-62.065-91.5-91.673C257.157,680.854,143.733,567.765,74.899,461.49
		C38.74,405.662,17.329,355.38,9.441,307.769c-8.57-51.734-1.281-100.351,22.284-148.627
		c21.478-44.001,55.059-79.837,97.112-103.634C167.576,33.586,212.675,22,259.258,22c46.301,0,90.769,11.324,128.596,32.749
		c39.72,22.496,69.676,55.084,86.629,94.24l5.506,12.716l5.506-12.716c16.956-39.161,46.912-71.75,86.627-94.244
		C609.946,33.323,654.417,22,700.726,22c46.58,0,91.682,11.588,130.429,33.512c42.062,23.8,75.65,59.635,97.132,103.63
		c23.552,48.263,30.836,96.866,22.267,148.587c-7.886,47.598-29.289,97.866-65.434,153.678
		C816.312,567.652,702.944,680.701,571.674,811.6C541.919,841.271,511.194,871.909,479.989,903.473z"/>
</g>
</svg>
