<?xml version="1.0" encoding="iso-8859-1"?>
<!-- Generator: Adobe Illustrator 15.1.0, SVG Export Plug-In . SVG Version: 6.00 Build 0)  -->
<!DOCTYPE svg PUBLIC "-//W3C//DTD SVG 1.1//EN" "http://www.w3.org/Graphics/SVG/1.1/DTD/svg11.dtd">
<svg version="1.1" id="Layer_1" xmlns="http://www.w3.org/2000/svg" xmlns:xlink="http://www.w3.org/1999/xlink" x="0px" y="0px"
	 width="1024px" height="1024px" viewBox="0 0 1024 1024" style="enable-background:new 0 0 1024 1024;" xml:space="preserve">
<g>
	<polygon points="0,0.001 0,0 0.001,0 	"/>
</g>
<g id="_x36_-globe">
	<path d="M512,1034c-68.32,0-134.592-13.38-196.974-39.769c-60.253-25.488-114.367-61.978-160.837-108.454
		c-46.468-46.474-82.95-100.589-108.433-160.843C19.376,662.561,6,596.302,6,528s13.376-134.56,39.755-196.935
		c25.483-60.254,61.965-114.369,108.433-160.843c46.471-46.477,100.584-82.966,160.837-108.454C377.408,35.38,443.68,22,512,22
		c68.306,0,134.568,13.38,196.947,39.769c60.252,25.489,114.367,61.978,160.841,108.455
		c46.474,46.475,82.961,100.59,108.447,160.842C1004.621,393.442,1018,459.7,1018,528s-13.379,134.558-39.765,196.935
		c-25.486,60.252-61.974,114.367-108.447,160.843c-46.474,46.477-100.589,82.966-160.841,108.454
		C646.568,1020.62,580.306,1034,512,1034z M512,112.406C282.824,112.406,96.375,298.841,96.375,528S282.824,943.594,512,943.594
		c229.177,0,415.625-186.435,415.625-415.594S741.177,112.406,512,112.406z M511.375,840.688
		c-53.518,0-105.479-14.016-154.524-41.666l12.203-25.865h72.831l71.527-106.43l126.181,63.09l-58.257,102.369
		C556.29,837.904,533.378,840.688,511.375,840.688z M800.687,623.344L695.51,483.16l-109.822,31.356V391.938h66.194l45.25-104.781
		h26.512c32.675,29.46,58.501,64.228,76.787,103.375c19.413,41.56,29.257,85.939,29.257,131.906
		c0,32.516-5.839,65.565-17.838,100.906H800.687z M310.09,584.719l-78.986-136.846l-32.023,64.47l-4.599-4.576
		c3.167-68.502,27.725-132.676,71.109-185.739c21.218-25.952,46.272-48.297,74.467-66.414
		c28.418-18.261,59.379-31.799,92.035-40.244l95.033,3.358v45.318L474.55,301.8l-30.832,61.415l-63.126,31.627l-11.369,189.876
		H310.09z"/>
</g>
</svg>
