<?xml version="1.0" standalone="no"?>
<!DOCTYPE svg PUBLIC "-//W3C//DTD SVG 1.1//EN" "http://www.w3.org/Graphics/SVG/1.1/DTD/svg11.dtd" >
<svg xmlns="http://www.w3.org/2000/svg">
<metadata>
This is a custom SVG font generated by IcoMoon.
<iconset grid="16"></iconset>
</metadata>
<defs>
<font id="Sony-Icons-UI" horiz-adv-x="512" >
<font-face units-per-em="512" ascent="480" descent="-32" />
<missing-glyph horiz-adv-x="512" />
<glyph unicode="&#xe00a;" d="M 463.984,430.25L 298.514,17.75L 282.484,246.00
		l-234.50-0.313L 463.984,430.25z" data-tags="Sony-Icons-08" />
<glyph unicode="&#xe00b;" d="M 454.34,302.516l-61.938,2.47l-78.875,3.092l-6.00,15.845l0.00,0.00l-22.125,58.779l-22.125,58.782
	c-3.313,8.687-8.625,8.687-11.938,0.00l-22.125-58.782l-22.125-58.779l0.00,0.00l-6.00-15.845l-78.875-3.092l-61.938-2.47
	c-9.313-0.375-11.00-5.468-3.875-11.375c0.00-0.03,0.00-0.03, 0.031-0.03l 48.406-39.624l 48.437-39.625l 13.062-10.72
	l-4.437-16.313l-16.188-59.092l-16.188-59.094l0.00-0.03 c-2.437-8.97, 1.969-12.188, 9.812-7.188l 51.812,33.25l 66.156,42.374
	l 66.125-42.374l 51.844-33.25c 7.812-5.00, 12.219-1.782, 9.812,7.188l0.00,0.03 l-16.188,59.094l-16.188,59.092l-4.469,16.313
	l 13.094,10.72l 48.437,39.625l 48.375,39.624c 0.031,0.00, 0.031,0.00, 0.062,0.03C 465.34,297.049, 463.652,302.141, 454.34,302.516z" data-tags="Sony-Icons-07" />
<glyph unicode="&#xe00c;" d="M 409.711,304.077c 1.531,2.828, 3.875,6.485, 5.594,9.25
	c 9.281,14.812, 23.375,37.235, 13.062,62.125c-10.625,25.452-36.844,31.327-54.281,35.25
	c-2.75,0.643-6.344,1.485-9.25,2.235c-0.75,2.89-1.531,6.468-2.156,9.283c-3.938,17.39-9.875,43.655-35.313,54.218
	C 321.68,478.812, 315.555,480.00, 309.18,480.00c-17.50,0.00-32.125-9.25-43.938-16.61c-2.812-1.717-6.469-4.03-9.25-5.578
	c-2.844,1.548-6.531,3.86-9.25,5.578C 234.867,470.75, 220.273,480.00, 202.711,480.00c-6.281,0.00-12.406-1.188-18.188-3.563
	c-25.375-10.563-31.313-36.828-35.219-54.218c-0.594-2.815-1.406-6.393-2.25-9.283c-2.875-0.75-6.469-1.593-9.219-2.235
	c-17.375-3.923-43.625-9.797-54.188-35.218c-10.375-24.923, 3.719-47.345, 13.00-62.157
	c 1.75-2.765, 4.062-6.422, 5.563-9.25c-1.50-2.812-3.812-6.50-5.563-9.233C 87.367,280.00, 73.242,257.578, 83.648,232.625
	c 10.50-25.39, 36.812-31.298, 54.188-35.235c 2.75-0.593, 6.344-1.39, 9.219-2.218c 0.844-2.812, 1.656-6.517, 2.25-9.25
	c 2.437-10.828, 5.673-25.142, 13.938-36.953l0.00-153.50 c0.00,0.00, 92.75,31.905, 92.75,93.765c0.00-61.86, 92.781-93.765, 92.781-93.765
	l0.00,153.67 c 8.171,11.782, 11.375,26.00, 13.844,36.782c 0.625,2.732, 1.469,6.437, 2.219,9.25c 2.906,0.828, 6.50,1.655, 9.25,2.265
	c 17.437,3.89, 43.656,9.797, 54.281,35.188c 10.313,24.953-3.781,47.375-13.062,62.188
	C 413.586,297.578, 411.242,301.265, 409.711,304.077z M 255.992,384.095c 44.125,0.00, 80.00-35.797, 80.00-80.018
	c0.00-44.188-35.875-79.982-80.00-79.982c-44.188,0.00-80.00,35.795-80.00,79.982C 175.992,348.298, 211.805,384.095, 255.992,384.095z" data-tags="Sony-Icons-06" />
<glyph unicode="&#xe00d;" d="M 416.00,480.00L 96.00,480.00 c-17.594,0.00-32.00-14.437-32.00-32.03L 64.00,32.00 c0.00-17.595, 14.406-32.00, 32.00-32.00l 320.00,0.00 
	c 17.563,0.00, 32.00,14.405, 32.00,32.00L 448.00,447.97 C 448.00,465.563, 433.563,480.00, 416.00,480.00z M 128.00,352.00l 256.00,0.00 l0.00-32.00 L 128.00,320.00 L 128.00,352.00 z M 320.00,256.00L 128.00,256.00 L 128.00,288.00 l 192.00,0.00 L 320.00,256.00 z
	 M 384.00,383.97L 128.00,383.97 l0.00,32.00 l 256.00,0.00 L 384.00,383.97 z" data-tags="Sony-Icons-05" />
<glyph unicode="&#xe00e;" d="M 480.031,416.016L 31.969,416.016 C 14.313,416.016,0.00,401.703,0.00,384.001l0.00-64.00 l 512.00,0.00 l0.00,64.00 
				C 512.00,401.703, 497.687,416.016, 480.031,416.016z M0.00,95.971c0.00-17.658, 14.313-31.97, 31.969-31.97l 448.062,0.00 
				c 17.656,0.00, 31.969,14.313, 31.969,31.97L 512.00,256.001 L0.00,256.001 L0.00,95.971 z" data-tags="Sony-Icons-04" />
<glyph unicode="&#xe00f;" d="M 444.875,128.047l-2.375,0.563c-42.687,9.86-86.875,20.015-96.687,41.625
	c-1.50,3.235-6.062,13.188, 4.75,33.545c 27.875,52.407, 49.156,168.033, 26.125,220.875
	C 350.781,484.172, 285.75,479.999, 240.00,479.999c-45.938,0.00-82.719-22.03-105.344-56.11c-20.281-30.625-9.719-131.812, 26.875-220.11
	c 8.75-21.342, 6.50-30.14, 5.031-33.39c-9.781-21.702-53.437-31.765-95.656-41.452l-3.812-0.89
	C 4.687,113.719,0.00,80.702,0.00,31.999c0.00-17.702, 14.313-32.03, 32.00-32.03l 448.00,0.00 c 17.719,0.00, 32.00,14.327, 32.00,32.03
	C 512.00,80.702, 507.313,113.749, 444.875,128.047z" data-tags="Sony-Icons-03" />
<glyph unicode="&#xe010;" d="M 296.466,448.00c-98.877,0.00-179.316-74.687-179.316-166.50c0.00-36.00, 12.469-69.313, 33.469-96.563
		l-105.502-97.938c-11.532-10.75-11.532-28.25,0.00-38.938c 11.532-10.75, 30.407-10.75, 41.938,0.00l 105.471,97.938
		c 29.376-19.437, 65.188-31.062, 103.94-31.062c 98.908,0.00, 179.347,74.687, 179.347,166.563C 475.812,373.313, 395.373,448.00, 296.466,448.00
		z M 296.466,170.00c-66.189,0.00-120.002,50.00-120.002,111.50c0.00,61.437, 53.813,111.437, 120.002,111.437
		c 66.188,0.00, 120.033-50.00, 120.033-111.437C 416.499,220.00, 362.654,170.00, 296.466,170.00z" data-tags="Sony-Icons-02" />
<glyph unicode="&#xe011;" d="M 0.08,437.578c-0.044,0.00-0.08-0.036-0.08-0.08l0.00-53.84 c0.00-0.044, 0.036-0.08, 0.08-0.08l 59.292-0.282
				c 0.044,0.00, 0.091-0.035, 0.105-0.076l 70.092-214.598c 0.013-0.042, 0.061-0.076, 0.105-0.076l 273.434,0.00 
				c 0.044,0.00, 0.093,0.033, 0.11,0.074l 86.346,214.884c 0.017,0.041-0.006,0.074-0.05,0.074L 112.049,383.579 c-0.044,0.00-0.086,0.036-0.094,0.079
				l-9.426,53.622c-0.008,0.043-0.05,0.079-0.094,0.079L 0.08,437.578z M 373.884,222.372c-0.013-0.042-0.06-0.076-0.104-0.076
				L 174.142,222.296 c-0.044,0.00-0.089,0.035-0.099,0.078L 147.613,329.718c-0.011,0.043, 0.017,0.078, 0.061,0.078l 260.215,0.00 
				c 0.044,0.00, 0.069-0.034, 0.056-0.076L 373.884,222.372zM 289.188,74.828c0.00-22.125, 19.14-40.125, 42.702-40.125
			c 23.579,0.00, 42.704,18.00, 42.704,40.125c0.00,22.218-19.125,39.935-42.704,39.935
			C 308.327,114.763, 289.188,97.046, 289.188,74.828zM 144.00,74.828c0.00-22.125, 19.14-40.125, 42.702-40.125s 42.687,18.00, 42.687,40.125
			c0.00,22.218-19.125,39.935-42.687,39.935S 144.00,97.046, 144.00,74.828z" data-tags="Sony-Icons-01" />
<glyph unicode="&#xe012;" d="M 448.00,311.845C 448.00,369.345, 399.313,416.00, 339.25,416.00C 296.203,416.03, 257.625,375.203, 240.00,340.422
	l-0.031,0.00 C 222.36,375.172, 183.781,416.00, 140.75,416.00C 80.673,416.00, 32.00,369.36, 32.00,311.845c0.00-32.797, 29.828-66.845, 29.828-66.845
	l 178.11-205.437l0.00-0.033 l0.00,0.00l 0.031-0.03l0.00,0.062 l 178.171,205.437C 418.14,245.00, 447.985,279.047, 448.00,311.845z" data-tags="Sony-Icons-00" />
<glyph unicode="&#xe000;" d="M 295.866,229.869l 176.563,183.812c 10.405,10.875, 10.062,28.062-0.782,38.50
	c-10.875,10.375-28.092,10.062-38.468-0.812L 258.146,269.149L 83.116,451.369c-10.375,10.812-27.595,11.188-38.47,0.812
	c-10.843-10.437-11.188-27.625-0.78-38.50l 176.563-183.812L 43.866,46.057c-10.407-10.875-10.062-28.062, 0.78-38.50
	c 5.283-5.062, 12.062-7.563, 18.845-7.563c 7.155,0.00, 14.28,2.812, 19.625,8.375l 175.03,182.22l 175.033-182.22
	c 5.342-5.563, 12.468-8.375, 19.625-8.375c 6.78,0.00, 13.563,2.50, 18.843,7.563c 10.845,10.437, 11.188,27.625, 0.782,38.50
	L 295.866,229.869z" data-tags="Sony-Icons-15" />
<glyph unicode="&#xe001;" d="M 455.281,70.00L 296.875,228.375L 455.281,386.75L 410.031,432.00L 251.625,273.625L 93.25,432.00L 48.00,386.75L 206.375,228.375L 48.00,70.00L 93.25,24.75L 251.625,183.125L 410.031,24.75 z" data-tags="Sony-Icons-14" />
<glyph unicode="&#xe002;" d="M 512.00,256.00L 288.00,256.00L 288.00,480.00L 224.00,480.00L 224.00,256.00L0.00,256.00L0.00,192.00L 224.00,192.00L 224.00-32.00L 288.00-32.00L 288.00,192.00L 512.00,192.00 z" data-tags="Sony-Icons-13" />
<glyph unicode="&#xe003;" d="M 256.00,464.00C 123.437,464.00, 16.00,356.53, 16.00,224.00s 107.437-240.00, 240.00-240.00
		c 132.531,0.00, 240.00,107.47, 240.00,240.00S 388.531,464.00, 256.00,464.00z M 256.00,32.00c-106.031,0.00-192.00,85.97-192.00,192.00s 85.969,192.00, 192.00,192.00
		s 192.00-85.97, 192.00-192.00S 362.031,32.00, 256.00,32.00zM 358.375,292.625L 324.25,326.75L 255.75,258.25L 187.25,326.75L 153.125,292.625L 221.625,224.125L 153.125,155.625L 187.25,121.50L 255.75,190.00L 324.25,121.50L 358.375,155.625L 289.875,224.125 	z" data-tags="Sony-Icons-12" />
<glyph unicode="&#xe004;" d="M0.00,480.00L 128.00,480.00L 128.00,352.00L0.00,352.00zM 192.00,480.00L 320.00,480.00L 320.00,352.00L 192.00,352.00zM 384.00,480.00L 512.00,480.00L 512.00,352.00L 384.00,352.00zM0.00,96.00L 128.00,96.00L 128.00-32.00L0.00-32.00zM 192.00,96.00L 320.00,96.00L 320.00-32.00L 192.00-32.00zM 384.00,96.00L 512.00,96.00L 512.00-32.00L 384.00-32.00zM0.00,288.00L 128.00,288.00L 128.00,160.00L0.00,160.00zM 192.00,288.00L 320.00,288.00L 320.00,160.00L 192.00,160.00zM 384.00,288.00L 512.00,288.00L 512.00,160.00L 384.00,160.00z" data-tags="Sony-Icons-11" />
<glyph unicode="&#xe005;" d="M 496.469,320.00L 384.00,320.00 l0.00-144.50 
		c0.00-8.563-6.923-15.50-15.515-15.50L 160.00,160.00 l0.00-112.485 c0.00-8.545, 6.938-15.515, 15.50-15.515l 200.094,0.00 L 448.00-32.00l0.00,64.00 l 48.469,0.00 
		c 8.594,0.00, 15.531,6.97, 15.531,15.515L 512.00,304.50 C 512.00,313.062, 505.062,320.00, 496.469,320.00zM 336.485,480.00L 15.531,480.00 C 6.938,480.00,0.00,473.047,0.00,464.47l0.00-258.908 
		c0.00-8.578, 6.938-15.515, 15.531-15.515L 64.00,190.048 L 64.00,128.00 l 72.422,62.047l 200.062,0.00 c 8.578,0.00, 15.515,6.938, 15.515,15.515L 352.00,464.47 
		C 352.00,473.047, 345.062,480.00, 336.485,480.00z M 224.00,255.015L 64.00,255.015 l0.00,31.047 l 160.00,0.00 L 224.00,255.015 z M 286.047,319.015L 64.00,319.015 l0.00,31.047 l 222.047,0.00 L 286.047,319.015 z
		 M 286.047,383.047L 64.00,383.047 l0.00,31.015 l 222.047,0.00 L 286.047,383.047 z" data-tags="Sony-Icons-10" />
<glyph unicode="&#xe006;" d="M 496.469,310.28l-170.656,0.00 l0.00-108.593 
		c0.00-8.563-6.923-15.50-15.515-15.50L 201.702,186.187 l0.00-108.625 c0.00-8.548, 6.938-15.515, 15.50-15.515l 175.845,0.00 L 465.452,0.00l0.00,62.047 l 31.016,0.00 
		c 8.594,0.00, 15.531,6.967, 15.531,15.515L 512.00,294.78 C 512.00,303.345, 505.062,310.28, 496.469,310.28zM 294.781,449.938L 15.531,449.938 C 6.938,449.938,0.00,442.985,0.00,434.405
		l0.00-217.203 c0.00-8.578, 6.938-15.515, 15.531-15.515l 31.016,0.00 l0.00-62.047 l 72.421,62.047l 175.812,0.00 c 8.579,0.00, 15.516,6.938, 15.516,15.515
		L 310.297,434.405 C 310.298,442.985, 303.36,449.938, 294.781,449.938z M 201.702,248.22L 46.548,248.22 l0.00,31.045 L 201.702,279.265 L 201.702,248.22 z M 263.75,310.28L 46.548,310.28 
		l0.00,31.047 l 217.203,0.00 L 263.75,310.28 z M 263.75,372.36L 46.548,372.36 l0.00,31.015 l 217.203,0.00 L 263.75,372.36 z" data-tags="Sony-Icons-09" />
<glyph unicode="&#xe007;" d="M 12.375,480.00l 487.25,0.00 C 506.437,480.00, 512.00,474.172, 512.00,467.062l0.00-102.092 
		c0.00-7.205-5.563-12.97-12.375-12.97L 12.375,352.00 C 5.563,352.00,0.00,357.765,0.00,364.97L0.00,467.062 C0.00,474.172, 5.563,480.00, 12.375,480.00zM 12.375,288.00l 487.25,0.00 c 6.812,0.00, 12.375-5.812, 12.375-13.00
		l0.00-102.095 c0.00-7.108-5.563-12.905-12.375-12.905L 12.375,160.00 C 5.563,160.00,0.00,165.797,0.00,172.905L0.00,275.00 C0.00,282.188, 5.563,288.00, 12.375,288.00zM 12.375,96.00l 487.25,0.00 c 6.812,0.00, 12.375-5.78, 12.375-12.905
		l0.00-102.157 c0.00-7.157-5.563-12.938-12.375-12.938L 12.375-32.00 C 5.563-32.00,0.00-26.22,0.00-19.062l0.00,102.157 
		C0.00,90.22, 5.563,96.00, 12.375,96.00z" data-tags="Sony-Icons-25" />
<glyph unicode="&#xe008;" d="M 12.375,480.00l 487.25,0.00 C 506.437,480.00, 512.00,474.172, 512.00,467.062l0.00-102.092 
		c0.00-7.205-5.563-12.97-12.375-12.97L 12.375,352.00 C 5.563,352.00,0.00,357.765,0.00,364.97L0.00,467.062 C0.00,474.172, 5.563,480.00, 12.375,480.00zM 12.375,320.00l 487.25,0.00 c 6.812,0.00, 12.375-5.812, 12.375-13.00
		l0.00-102.095 c0.00-7.108-5.563-12.905-12.375-12.905L 12.375,192.00 C 5.563,192.00,0.00,197.797,0.00,204.905L0.00,307.00 C0.00,314.188, 5.563,320.00, 12.375,320.00zM 12.375,160.00l 487.25,0.00 c 6.812,0.00, 12.375-5.78, 12.375-12.905
		l0.00-102.157 c0.00-7.157-5.563-12.938-12.375-12.938L 12.375,32.00 C 5.563,32.00,0.00,37.78,0.00,44.938l0.00,102.157 
		C0.00,154.22, 5.563,160.00, 12.375,160.00z" data-tags="Sony-Icons-24" />
<glyph unicode="&#xe009;" d="M 12.03,480.00l 488.00,0.00 C 506.61,480.00, 512.00,475.22, 512.00,469.313l0.00-74.658 
		c0.00-5.875-5.39-10.655-11.97-10.655l-488.00,0.00 C 5.345,384.00,0.00,388.78,0.00,394.655L0.00,469.313 C0.00,475.22, 5.345,480.00, 12.03,480.00zM 13.50,318.298l 485.062,0.00 c 7.375,0.00, 13.437-5.393, 13.437-11.97
		l0.00-70.357 c0.00-6.595-6.062-11.97-13.437-11.97L 13.50,224.00 C 6.00,224.00,0.00,229.375,0.00,235.97L0.00,306.327 
		C0.00,312.905, 6.00,318.298, 13.50,318.298zM 13.50,156.64l 485.062,0.00 c 7.375,0.00, 13.437-5.36, 13.437-12.00
		l0.00-68.64 c0.00-6.64-6.062-12.00-13.437-12.00L 13.50,64.00 C 6.00,64.00,0.00,69.36,0.00,76.00L0.00,144.64 C0.00,151.28, 6.00,156.64, 13.50,156.64z" data-tags="Sony-Icons-23" />
<glyph unicode="&#xe013;" d="M 413.437,316.313L 345.75,384.00L 255.062,293.313L 164.625,383.75L 96.00,315.125L 186.437,224.687L 96.687,134.905L 164.375,67.22L 254.125,157.00L 344.812,66.28L 413.437,134.905L 322.75,225.625 z" data-tags="Sony-Icons-22" />
<glyph unicode="&#xe014;" d="M 416.00,261.563L 357.563,320.00L 220.687,183.188L 145.875,258.00L 87.437,199.563L 162.25,124.75L 162.00,124.437L 220.437,66.00L 220.75,66.313L 221.00,66.00L 279.437,124.437L 279.188,124.75 z" data-tags="Sony-Icons-21" />
<glyph unicode="&#xe015;" d="M 384.00,256.00L 288.00,256.00L 288.00,352.00L 192.00,352.00L 192.00,256.00L 96.00,256.00L 96.00,160.00L 192.00,160.00L 192.00,64.00L 288.00,64.00L 288.00,160.00L 384.00,160.00 z" data-tags="Sony-Icons-20" />
<glyph unicode="&#xe016;" d="M 96.00,256.001L 320.00,256.001L 320.00,192.001L 96.00,192.001zM 424.625,223.703L 424.625,223.703L 288.00,104.203L 288.00,343.203 	z" data-tags="Sony-Icons-19" />
<glyph unicode="&#xe017;" d="M 256.00,242.281L 256.00,242.281L 384.00,96.001L 128.00,96.001 z" data-tags="Sony-Icons-18" />
<glyph unicode="&#xe018;" d="M 256.00,109.72L 256.00,109.72L 128.00,256.00L 384.00,256.00 z" data-tags="Sony-Icons-17" />
<glyph unicode="&#xe019;" d="M 190.575-31.995c-5.50,0.00-11.062,1.375-16.125,4.345c-15.437,8.905-20.75,28.655-11.812,44.092
	l 119.812,207.563L 162.638,431.568c-8.938,15.437-3.625,35.188, 11.812,44.092C 189.935,484.63, 209.67,479.285, 218.575,463.85
	l 129.095-223.705c 5.78-9.985, 5.78-22.295,0.00-32.295L 218.575-15.84C 212.575-26.215, 201.733-31.995, 190.575-31.995z" data-tags="Sony-Icons-16" />
<glyph unicode="&#x20;" horiz-adv-x="256" />
<glyph class="hidden" unicode="&#xf000;" d="M0,480L 512 -32L0 -32 z" horiz-adv-x="0" />
</font>
</defs>
</svg>
