<?xml version="1.0" encoding="iso-8859-1"?>
<!-- Generator: Adobe Illustrator 15.1.0, SVG Export Plug-In . SVG Version: 6.00 Build 0)  -->
<!DOCTYPE svg PUBLIC "-//W3C//DTD SVG 1.1//EN" "http://www.w3.org/Graphics/SVG/1.1/DTD/svg11.dtd">
<svg version="1.1" id="Layer_1" xmlns="http://www.w3.org/2000/svg" xmlns:xlink="http://www.w3.org/1999/xlink" x="0px" y="0px"
	 width="1024px" height="1024px" viewBox="0 0 1024 1024" style="enable-background:new 0 0 1024 1024;" xml:space="preserve">
<g>
	<polygon points="0,0.001 0,0 0.001,0 	"/>
</g>
<g id="water-drop_1_">
	<path d="M512,513.719c-60.654,0-110-49.346-110-110c0-19.519,2.417-25.738,2.442-25.799c6.888-16.181,19.625-41.725,28.385-56.921
		l64.921-112.562C501.624,201.706,506.685,198,512,198c5.312,0,10.379,3.707,14.269,10.438l64.905,112.561
		c8.744,15.116,21.479,40.665,28.392,56.954c0.018,0.044,2.435,6.249,2.435,25.766C622,464.373,572.654,513.719,512,513.719z
		 M453.612,332.984c-7.85,13.616-19.678,37.252-26.369,52.689l-0.091,0.209l-0.041,0.224c-0.334,1.814-1.111,7.161-1.111,17.612
		c0,47.42,38.58,86,86,86c47.421,0,86-38.58,86-86c0-10.31-0.765-15.742-1.093-17.599l-0.041-0.231l-0.094-0.215
		c-6.688-15.437-18.523-39.066-26.385-52.674l-58.355-101.221L453.612,332.984z"/>
</g>
</svg>
