<?xml version="1.0" encoding="iso-8859-1"?>
<!-- Generator: Adobe Illustrator 15.1.0, SVG Export Plug-In . SVG Version: 6.00 Build 0)  -->
<!DOCTYPE svg PUBLIC "-//W3C//DTD SVG 1.1//EN" "http://www.w3.org/Graphics/SVG/1.1/DTD/svg11.dtd">
<svg version="1.1" id="Layer_1" xmlns="http://www.w3.org/2000/svg" xmlns:xlink="http://www.w3.org/1999/xlink" x="0px" y="0px"
	 width="1024px" height="1024px" viewBox="0 0 1024 1024" style="enable-background:new 0 0 1024 1024;" xml:space="preserve">
<g>
	<polygon points="0,0.001 0,0 0.001,0 	"/>
</g>
<g id="gps">
	<path d="M512,514c-113.589,0-206-92.411-206-206s92.411-206,206-206s206,92.411,206,206S625.589,514,512,514z M526,485.377
		l2.181-0.198c85.535-7.754,153.245-75.464,160.999-160.999l0.197-2.181H658v-28h31.377l-0.197-2.181
		c-7.754-85.535-75.464-153.244-160.999-160.999L526,130.623V162h-28v-31.377l-2.181,0.198
		c-85.535,7.754-153.245,75.464-160.999,160.999L334.623,294H366v28h-31.377l0.198,2.181
		c7.753,85.535,75.463,153.244,160.999,160.999l2.181,0.198V454h28V485.377z M465.649,261.649l123.602-30.901l-30.9,123.602
		l-123.602,30.901L465.649,261.649z M451.235,368.757l81.38-20.345l-61.026-61.026L451.235,368.757z"/>
</g>
</svg>
