<?xml version="1.0" encoding="iso-8859-1"?>
<!-- Generator: Adobe Illustrator 15.1.0, SVG Export Plug-In . SVG Version: 6.00 Build 0)  -->
<!DOCTYPE svg PUBLIC "-//W3C//DTD SVG 1.1//EN" "http://www.w3.org/Graphics/SVG/1.1/DTD/svg11.dtd">
<svg version="1.1" id="Layer_1" xmlns="http://www.w3.org/2000/svg" xmlns:xlink="http://www.w3.org/1999/xlink" x="0px" y="0px"
	 width="1024px" height="1024px" viewBox="0 0 1024 1024" style="enable-background:new 0 0 1024 1024;" xml:space="preserve">
<g>
	<polygon points="0,0.001 0,0 0.001,0 	"/>
</g>
<g id="receivers">
	<path d="M144,514c-7.72,0-14-6.28-14-14V228c0-7.72,6.28-14,14-14h720c7.72,0,14,6.28,14,14v272c0,7.72-6.28,14-14,14H144z
		 M158,486h692V242H158V486z M338,418V310h316v108H338z M350,406h292v-84H350V406z M248,418c-29.776,0-54-24.224-54-54
		s24.224-54,54-54s54,24.224,54,54S277.776,418,248,418z M248,338c-14.336,0-26,11.664-26,26s11.664,26,26,26s26-11.664,26-26
		S262.336,338,248,338z M706,402v-28h92v28H706z M708.828,354L752,310.829L795.172,354H708.828z"/>
</g>
</svg>
