<?xml version="1.0" encoding="iso-8859-1"?>
<!-- Generator: Adobe Illustrator 15.1.0, SVG Export Plug-In . SVG Version: 6.00 Build 0)  -->
<!DOCTYPE svg PUBLIC "-//W3C//DTD SVG 1.1//EN" "http://www.w3.org/Graphics/SVG/1.1/DTD/svg11.dtd">
<svg version="1.1" id="Layer_1" xmlns="http://www.w3.org/2000/svg" xmlns:xlink="http://www.w3.org/1999/xlink" x="0px" y="0px"
	 width="1024px" height="1024px" viewBox="0 0 1024 1024" style="enable-background:new 0 0 1024 1024;" xml:space="preserve">
<g>
	<polygon points="0,0.001 0,0 0.001,0 	"/>
</g>
<g id="radios">
	<path d="M264,514c-12.131,0-22-9.869-22-22V172c0-12.131,9.869-22,22-22h42v-39.588l-0.995-0.578
		C295.609,104.373,290,94.716,290,84c0-16.542,13.458-30,30-30s30,13.458,30,30c0,10.716-5.609,20.373-15.005,25.833L334,110.412
		V150h426c12.131,0,22,9.869,22,22v320c0,12.131-9.869,22-22,22H264z M270,486h484V178H270V486z M354,418v-12h124v12H354z M338,386
		v-12h156v12H338z M322,354v-12h188v12H322z M648,338c-29.775,0-54-24.224-54-54s24.225-54,54-54s54,24.224,54,54
		S677.775,338,648,338z M648,258c-14.337,0-26,11.664-26,26s11.663,26,26,26s26-11.664,26-26S662.337,258,648,258z M322,322v-12h188
		v12H322z M338,290v-12h156v12H338z M354,258v-12h124v12H354z"/>
</g>
</svg>
