<?xml version="1.0" encoding="iso-8859-1"?>
<!-- Generator: Adobe Illustrator 15.1.0, SVG Export Plug-In . SVG Version: 6.00 Build 0)  -->
<!DOCTYPE svg PUBLIC "-//W3C//DTD SVG 1.1//EN" "http://www.w3.org/Graphics/SVG/1.1/DTD/svg11.dtd">
<svg version="1.1" id="Layer_1" xmlns="http://www.w3.org/2000/svg" xmlns:xlink="http://www.w3.org/1999/xlink" x="0px" y="0px"
	 width="1024px" height="1024px" viewBox="0 0 1024 1024" style="enable-background:new 0 0 1024 1024;" xml:space="preserve">
<g>
	<polygon points="0,0.001 0,0 0.001,0 	"/>
</g>
<g id="voice-recorders">
	<path d="M448,514c-43.009,0-78-34.991-78-78V164c0-43.009,34.991-78,78-78h112c43.01,0,78,34.991,78,78v272
		c0,43.009-34.99,78-78,78H448z M398,436c0,27.57,22.43,50,50,50h112c27.57,0,50-22.43,50-50v-66H398V436z M448,114
		c-27.57,0-50,22.43-50,50v178h212V164c0-27.57-22.43-50-50-50H448z M504,450c-12.131,0-22-9.869-22-22s9.869-22,22-22
		s22,9.869,22,22S516.131,450,504,450z M536,306c-3.309,0-6-2.691-6-6s2.691-6,6-6s6,2.691,6,6S539.309,306,536,306z M504,306
		c-3.309,0-6-2.691-6-6s2.691-6,6-6s6,2.691,6,6S507.309,306,504,306z M472,306c-3.309,0-6-2.691-6-6s2.691-6,6-6s6,2.691,6,6
		S475.309,306,472,306z M552,290c-3.309,0-6-2.691-6-6s2.691-6,6-6s6,2.691,6,6S555.309,290,552,290z M520,290c-3.309,0-6-2.691-6-6
		s2.691-6,6-6s6,2.691,6,6S523.309,290,520,290z M488,290c-3.309,0-6-2.691-6-6s2.691-6,6-6s6,2.691,6,6S491.309,290,488,290z
		 M456,290c-3.309,0-6-2.691-6-6s2.691-6,6-6s6,2.691,6,6S459.309,290,456,290z M568,274c-3.309,0-6-2.691-6-6s2.691-6,6-6
		s6,2.691,6,6S571.309,274,568,274z M536,274c-3.309,0-6-2.691-6-6s2.691-6,6-6s6,2.691,6,6S539.309,274,536,274z M504,274
		c-3.309,0-6-2.691-6-6s2.691-6,6-6s6,2.691,6,6S507.309,274,504,274z M472,274c-3.309,0-6-2.691-6-6s2.691-6,6-6s6,2.691,6,6
		S475.309,274,472,274z M440,274c-3.309,0-6-2.691-6-6s2.691-6,6-6s6,2.691,6,6S443.309,274,440,274z M552,258c-3.309,0-6-2.691-6-6
		s2.691-6,6-6s6,2.691,6,6S555.309,258,552,258z M520,258c-3.309,0-6-2.691-6-6s2.691-6,6-6s6,2.691,6,6S523.309,258,520,258z
		 M488,258c-3.309,0-6-2.691-6-6s2.691-6,6-6s6,2.691,6,6S491.309,258,488,258z M456,258c-3.309,0-6-2.691-6-6s2.691-6,6-6
		s6,2.691,6,6S459.309,258,456,258z M568,242c-3.309,0-6-2.691-6-6s2.691-6,6-6s6,2.691,6,6S571.309,242,568,242z M536,242
		c-3.309,0-6-2.691-6-6s2.691-6,6-6s6,2.691,6,6S539.309,242,536,242z M504,242c-3.309,0-6-2.691-6-6s2.691-6,6-6s6,2.691,6,6
		S507.309,242,504,242z M472,242c-3.309,0-6-2.691-6-6s2.691-6,6-6s6,2.691,6,6S475.309,242,472,242z M440,242c-3.309,0-6-2.691-6-6
		s2.691-6,6-6s6,2.691,6,6S443.309,242,440,242z M552,226c-3.309,0-6-2.691-6-6s2.691-6,6-6s6,2.691,6,6S555.309,226,552,226z
		 M520,226c-3.309,0-6-2.691-6-6s2.691-6,6-6s6,2.691,6,6S523.309,226,520,226z M488,226c-3.309,0-6-2.691-6-6s2.691-6,6-6
		s6,2.691,6,6S491.309,226,488,226z M456,226c-3.309,0-6-2.691-6-6s2.691-6,6-6s6,2.691,6,6S459.309,226,456,226z M568,210
		c-3.309,0-6-2.691-6-6s2.691-6,6-6s6,2.691,6,6S571.309,210,568,210z M536,210c-3.309,0-6-2.691-6-6s2.691-6,6-6s6,2.691,6,6
		S539.309,210,536,210z M504,210c-3.309,0-6-2.691-6-6s2.691-6,6-6s6,2.691,6,6S507.309,210,504,210z M472,210c-3.309,0-6-2.691-6-6
		s2.691-6,6-6s6,2.691,6,6S475.309,210,472,210z M440,210c-3.309,0-6-2.691-6-6s2.691-6,6-6s6,2.691,6,6S443.309,210,440,210z
		 M552,194c-3.309,0-6-2.691-6-6s2.691-6,6-6s6,2.691,6,6S555.309,194,552,194z M520,194c-3.309,0-6-2.691-6-6s2.691-6,6-6
		s6,2.691,6,6S523.309,194,520,194z M488,194c-3.309,0-6-2.691-6-6s2.691-6,6-6s6,2.691,6,6S491.309,194,488,194z M456,194
		c-3.309,0-6-2.691-6-6s2.691-6,6-6s6,2.691,6,6S459.309,194,456,194z M536,178c-3.309,0-6-2.691-6-6s2.691-6,6-6s6,2.691,6,6
		S539.309,178,536,178z M504,178c-3.309,0-6-2.691-6-6s2.691-6,6-6s6,2.691,6,6S507.309,178,504,178z M472,178c-3.309,0-6-2.691-6-6
		s2.691-6,6-6s6,2.691,6,6S475.309,178,472,178z"/>
</g>
</svg>
