<?xml version="1.0" encoding="iso-8859-1"?>
<!-- Generator: Adobe Illustrator 15.1.0, SVG Export Plug-In . SVG Version: 6.00 Build 0)  -->
<!DOCTYPE svg PUBLIC "-//W3C//DTD SVG 1.1//EN" "http://www.w3.org/Graphics/SVG/1.1/DTD/svg11.dtd">
<svg version="1.1" id="Layer_1" xmlns="http://www.w3.org/2000/svg" xmlns:xlink="http://www.w3.org/1999/xlink" x="0px" y="0px"
	 width="1024px" height="1024px" viewBox="0 0 1024 1024" style="enable-background:new 0 0 1024 1024;" xml:space="preserve">
<g>
	<polygon points="0,0.001 0,0 0.001,0 	"/>
</g>
<g id="walkman">
	<path d="M384,514c-7.72,0-14-6.28-14-14V100c0-7.72,6.28-14,14-14h256c7.72,0,14,6.28,14,14v400c0,7.72-6.28,14-14,14H384z
		 M398,486h228V386H398V486z M398,358h228V114H398V358z M512,466c-16.542,0-30-13.458-30-30s13.458-30,30-30s30,13.458,30,30
		S528.542,466,512,466z M418,338V134h188v204H418z M430,326h164V146H430V326z"/>
</g>
</svg>
