<?xml version="1.0" encoding="iso-8859-1"?>
<!-- Generator: Adobe Illustrator 15.1.0, SVG Export Plug-In . SVG Version: 6.00 Build 0)  -->
<!DOCTYPE svg PUBLIC "-//W3C//DTD SVG 1.1//EN" "http://www.w3.org/Graphics/SVG/1.1/DTD/svg11.dtd">
<svg version="1.1" id="Layer_1" xmlns="http://www.w3.org/2000/svg" xmlns:xlink="http://www.w3.org/1999/xlink" x="0px" y="0px"
	 width="1024px" height="1024px" viewBox="0 0 1024 1024" style="enable-background:new 0 0 1024 1024;" xml:space="preserve">
<g>
	<polygon points="0,0.001 0,0 0.001,0 	"/>
</g>
<g id="over-the-head">
	<path d="M656,514c-25.364,0-46-20.636-46-46V356c0-25.364,20.636-46,46-46c4.963,0,9.976,0.933,15.325,2.851l2.675,0.96V228
		c0-89.327-72.673-162-162-162s-162,72.673-162,162v85.799l2.673-0.955C358.032,310.931,363.045,310,368,310
		c25.356,0,45.984,20.636,45.984,46v112c0,25.364-20.628,46-45.984,46c-25.364,0-46-20.636-46-46v-2h-18c-7.72,0-14-6.28-14-14v-80
		c0-7.72,6.28-14,14-14h18V228c0-104.767,85.233-190,190-190s190,85.233,190,190v130h18c7.72,0,14,6.28,14,14v80
		c0,7.72-6.28,14-14,14h-18.016v2C701.984,493.364,681.355,514,656,514z M656,338c-9.757,0-18,8.243-18,18v112
		c0,9.757,8.243,18,18,18c9.749,0,17.984-8.243,17.984-18V356C673.984,346.243,665.749,338,656,338z M368,338
		c-9.757,0-18,8.243-18,18v112c0,9.757,8.243,18,18,18c9.749,0,17.984-8.243,17.984-18V356C385.984,346.243,377.749,338,368,338z"/>
</g>
</svg>
