<?xml version="1.0" encoding="iso-8859-1"?>
<!-- Generator: Adobe Illustrator 15.1.0, SVG Export Plug-In . SVG Version: 6.00 Build 0)  -->
<!DOCTYPE svg PUBLIC "-//W3C//DTD SVG 1.1//EN" "http://www.w3.org/Graphics/SVG/1.1/DTD/svg11.dtd">
<svg version="1.1" id="Layer_1" xmlns="http://www.w3.org/2000/svg" xmlns:xlink="http://www.w3.org/1999/xlink" x="0px" y="0px"
	 width="1024px" height="1024px" viewBox="0 0 1024 1024" style="enable-background:new 0 0 1024 1024;" xml:space="preserve">
<g>
	<polygon points="0,0.001 0,0 0.001,0 	"/>
</g>
<g id="soundbars">
	<path d="M760,514c-3.309,0-6-2.691-6-6v-26H254v26c0,3.309-2.691,6-6,6h-32c-3.309,0-6-2.691-6-6v-26h-2c-43.009,0-78-34.991-78-78
		v-16c0-43.009,34.991-78,78-78h592c43.01,0,78,34.991,78,78v16c0,43.009-34.99,78-78,78h-2v26c0,3.309-2.691,6-6,6H760z M782,454
		h18c27.57,0,50-22.43,50-50v-16c0-27.57-22.43-50-50-50h-18V454z M238,454h532V338H238V454z M208,338c-27.57,0-50,22.43-50,50v16
		c0,27.57,22.43,50,50,50h18V338H208z"/>
</g>
</svg>
