<?xml version="1.0" encoding="iso-8859-1"?>
<!-- Generator: Adobe Illustrator 15.1.0, SVG Export Plug-In . SVG Version: 6.00 Build 0)  -->
<!DOCTYPE svg PUBLIC "-//W3C//DTD SVG 1.1//EN" "http://www.w3.org/Graphics/SVG/1.1/DTD/svg11.dtd">
<svg version="1.1" id="Layer_1" xmlns="http://www.w3.org/2000/svg" xmlns:xlink="http://www.w3.org/1999/xlink" x="0px" y="0px"
	 width="1024px" height="1024px" viewBox="0 0 1024 1024" style="enable-background:new 0 0 1024 1024;" xml:space="preserve">
<g>
	<polygon points="0,0.001 0,0 0.001,0 	"/>
</g>
<g id="blu-ray-players">
	<path d="M776,513.998c-3.309,0-6-2.692-6-6v-26H254v26c0,3.309-2.691,6-6,6h-32c-3.309,0-6-2.692-6-6v-26h-50
		c-7.72,0-14-6.28-14-14v-128c0-7.72,6.28-14,14-14h704c7.72,0,14,6.28,14,14v128c0,7.72-6.28,14-14,14h-50v26c0,3.309-2.691,6-6,6
		H776z M174,453.998h676v-100H174V453.998z M338,433.998v-60h348v60H338z M350,421.998h324v-36H350V421.998z M460.819,273.826
		c47.261-3.101,87.067-12.157,116.521-26.644c31.224-15.357,49.79-36.692,50.938-58.533c0.663-12.502-3.903-24.012-13.572-34.207
		c-19.082-20.12-56.162-32.438-89.744-36.334c36.615,0.812,104.092,6.534,132.37,36.344c9.042,9.532,13.278,20.951,12.593,33.939
		c-1.771,33.42-32.204,57.605-90.457,71.884C538.296,270.368,491.792,273.195,460.819,273.826z M453.156,214.513
		c-69.224,0-94.446-12.255-98.436-19.497c-0.79-1.397-0.929-2.803-0.412-4.083l1.135-2.768c8.653-18.522,17.106-33.968,31.05-56.699
		h49.625c-4.236,6.612-18.248,28.551-22.127,35.458l-2.078,3.7l4.176-0.752c4.541-0.817,20.633-3.484,37.067-3.484
		c53.621,0,98.922,11.041,98.922,24.109C552.078,203.74,507.702,214.513,453.156,214.513z M453.156,180.029
		c-13.64,0-26.357,1.043-35.811,2.938c-14.548,2.915-14.548,6.269-14.548,7.531c0,1.254,0,4.586,14.549,7.498
		c9.471,1.896,22.188,2.939,35.811,2.939c13.628,0,26.348-1.044,35.816-2.939c14.543-2.911,14.543-6.244,14.543-7.498
		c0-1.263,0-4.617-14.542-7.531C479.522,181.072,466.802,180.029,453.156,180.029z"/>
</g>
</svg>
