<?xml version="1.0" encoding="iso-8859-1"?>
<!-- Generator: Adobe Illustrator 15.1.0, SVG Export Plug-In . SVG Version: 6.00 Build 0)  -->
<!DOCTYPE svg PUBLIC "-//W3C//DTD SVG 1.1//EN" "http://www.w3.org/Graphics/SVG/1.1/DTD/svg11.dtd">
<svg version="1.1" id="Layer_1" xmlns="http://www.w3.org/2000/svg" xmlns:xlink="http://www.w3.org/1999/xlink" x="0px" y="0px"
	 width="1024px" height="1024px" viewBox="0 0 1024 1024" style="enable-background:new 0 0 1024 1024;" xml:space="preserve">
<g>
	<polygon points="0,0.001 0,0 0.001,0 	"/>
</g>
<g id="_x36_-stability">
	<path d="M538.047,626c-42.708,0-84.215-20.175-113.877-55.352c-3.644-3.918-6.187-7.129-7.625-9.618l-0.265-0.497l-0.077-0.106
		c-8.976-12.498-16.23-26.145-21.561-40.558l-0.047-0.127l-97.938-184.244c-5.035-8.718-6.361-18.808-3.768-28.474
		c2.594-9.668,8.798-17.746,17.47-22.745c5.701-3.299,12.169-5.042,18.708-5.042c13.352,0,25.792,7.177,32.467,18.731l48.498,84.003
		V75.422c0-13.406,10.907-24.312,24.312-24.312s24.312,10.907,24.312,24.312v173.535l2.99-1.703
		c7.682-4.376,16.338-7.588,25.73-9.545l1.592-0.332V49.109c0-13.406,10.907-24.312,24.312-24.312
		c13.406,0,24.312,10.907,24.312,24.312v187.947l1.711,0.25c9.955,1.456,18.479,3.202,26.06,5.337l2.542,0.716V75.422
		c0-13.406,10.906-24.312,24.312-24.312s24.312,10.907,24.312,24.312v191.16l0.845,0.598c9.302,6.579,18.046,14.334,25.989,23.05
		l3.479,3.816V180.672c0-13.406,10.906-24.312,24.312-24.312s24.312,10.907,24.312,24.312v278.703
		c0,91.877-67.444,166.625-150.344,166.625H538.047z M763.266,494.07c-5.643,0-10.816-2.587-14.196-7.098
		c-5.858-7.82-4.264-18.965,3.555-24.843c32.477-24.314,65.251-73.563,65.251-128.771c0-55.15-32.781-104.421-65.269-128.788
		c-7.806-5.858-9.393-16.995-3.536-24.827c3.37-4.499,8.54-7.08,14.185-7.08c3.86,0,7.54,1.226,10.641,3.545
		c36.649,27.464,79.448,85.101,79.448,157.149c0,72.071-42.799,129.716-79.449,157.181
		C770.781,492.848,767.104,494.07,763.266,494.07z M283.031,494.07c-3.854,0-7.525-1.221-10.615-3.531
		c-36.663-27.475-79.479-85.125-79.479-157.18c0-72.011,42.799-129.662,79.45-157.15c3.108-2.318,6.797-3.544,10.664-3.544
		c5.647,0,10.82,2.581,14.191,7.081c5.852,7.826,4.259,18.964-3.553,24.826c-32.487,24.365-65.268,73.637-65.268,128.787
		c0,55.208,32.774,104.456,65.254,128.773c7.821,5.879,9.422,17.024,3.567,24.84C293.864,491.483,288.684,494.07,283.031,494.07z
		 M875.062,460.875c-3.944,0-7.692-1.287-10.839-3.722c-7.719-5.985-9.136-17.155-3.156-24.899
		c23.05-29.721,35.745-64.844,35.745-98.894c0-34.053-12.695-69.173-35.748-98.89c-5.984-7.744-4.568-18.91,3.159-24.887
		c3.139-2.431,6.895-3.716,10.861-3.716c5.529,0,10.641,2.495,14.023,6.846c27.84,35.913,43.173,78.761,43.173,120.647
		s-15.333,84.734-43.175,120.649C885.71,458.371,880.59,460.875,875.062,460.875z M171.219,460.875
		c-5.535,0-10.641-2.501-14.011-6.863C129.344,418.067,114,375.22,114,333.359s15.344-84.708,43.206-120.65
		c3.381-4.348,8.488-6.843,14.009-6.843c3.964,0,7.725,1.285,10.876,3.717c7.723,5.985,9.134,17.15,3.141,24.887
		c-23.062,29.729-35.763,64.848-35.763,98.889c0,34.038,12.701,69.16,35.763,98.897c5.984,7.732,4.573,18.902-3.146,24.898
		C178.93,459.587,175.169,460.875,171.219,460.875z"/>
</g>
</svg>
