<?xml version="1.0" encoding="iso-8859-1"?>
<!-- Generator: Adobe Illustrator 15.1.0, SVG Export Plug-In . SVG Version: 6.00 Build 0)  -->
<!DOCTYPE svg PUBLIC "-//W3C//DTD SVG 1.1//EN" "http://www.w3.org/Graphics/SVG/1.1/DTD/svg11.dtd">
<svg version="1.1" id="Layer_1" xmlns="http://www.w3.org/2000/svg" xmlns:xlink="http://www.w3.org/1999/xlink" x="0px" y="0px"
	 width="1024px" height="1024px" viewBox="0 0 1024 1024" style="enable-background:new 0 0 1024 1024;" xml:space="preserve">
<g>
	<polygon points="0,0.001 0,0 0.001,0 	"/>
</g>
<g id="phones">
	<path d="M384,514c-7.72,0-14-6.28-14-14V100c0-7.72,6.28-14,14-14h256c7.72,0,14,6.28,14,14v400c0,7.72-6.28,14-14,14H384z
		 M398,486h228V114H398V486z M418,418V166h188v252H418z M430,406h164V178H430V406z M488,146c-3.309,0-6-2.691-6-6s2.691-6,6-6h48
		c3.309,0,6,2.691,6,6s-2.691,6-6,6H488z"/>
</g>
</svg>
