<?xml version="1.0" encoding="iso-8859-1"?>
<!-- Generator: Adobe Illustrator 15.1.0, SVG Export Plug-In . SVG Version: 6.00 Build 0)  -->
<!DOCTYPE svg PUBLIC "-//W3C//DTD SVG 1.1//EN" "http://www.w3.org/Graphics/SVG/1.1/DTD/svg11.dtd">
<svg version="1.1" id="Layer_1" xmlns="http://www.w3.org/2000/svg" xmlns:xlink="http://www.w3.org/1999/xlink" x="0px" y="0px"
	 width="1024px" height="1024px" viewBox="0 0 1024 1024" style="enable-background:new 0 0 1024 1024;" xml:space="preserve">
<g>
	<polygon points="0,0.001 0,0 0.001,0 	"/>
</g>
<g id="laptops">
	<path d="M192,514c-7.72,0-14-6.28-14-14v-48c0-7.72,6.28-14,14-14h18V100c0-7.72,6.28-14,14-14h576c7.72,0,14,6.28,14,14v338h18
		c7.72,0,14,6.28,14,14v48c0,7.72-6.28,14-14,14H192z M206,486h612v-20H206V486z M238,438h548V114H238V438z"/>
</g>
</svg>
