<?xml version="1.0" encoding="iso-8859-1"?>
<!-- Generator: Adobe Illustrator 15.1.0, SVG Export Plug-In . SVG Version: 6.00 Build 0)  -->
<!DOCTYPE svg PUBLIC "-//W3C//DTD SVG 1.1//EN" "http://www.w3.org/Graphics/SVG/1.1/DTD/svg11.dtd">
<svg version="1.1" id="Layer_1" xmlns="http://www.w3.org/2000/svg" xmlns:xlink="http://www.w3.org/1999/xlink" x="0px" y="0px"
	 width="1008px" height="1008px" viewBox="0 0 1008 1008" style="enable-background:new 0 0 1008 1008;" xml:space="preserve">
<g>
	<polygon points="0,0.001 0,0 0.001,0 	"/>
</g>
<g id="wifi">
	<path d="M504.513,791.944c-39.572,0-71.767-32.199-71.767-71.777c0-39.572,32.194-71.767,71.767-71.767
		s71.767,32.194,71.767,71.767C576.279,759.745,544.085,791.944,504.513,791.944z M290.037,503.918
		c57.436-56.982,133.542-88.33,214.468-88.33c0.005,0-0.004,0,0,0c80.856,0,156.896,31.289,214.293,88.142l-66.658,66.648
		c-39.532-38.989-91.899-60.445-147.627-60.445c-55.826,0-108.275,21.527-147.833,60.648L290.037,503.918z M142.396,354.975
		c48.812-48.591,105.645-86.238,168.941-111.907c61.501-24.94,126.497-37.586,193.18-37.586c66.667,0,131.659,12.647,193.172,37.592
		c63.222,25.637,119.989,63.214,168.745,111.697l-66.661,66.652c-78.921-78.355-183.72-121.487-295.271-121.487
		c-111.654,0-216.53,43.199-295.465,121.681L142.396,354.975z M3.018,219.413c67.598-67.364,146.29-119.519,233.953-155.067
		c85.051-34.49,174.923-51.978,267.119-51.978s182.066,17.488,267.115,51.978c87.596,35.522,166.236,87.63,233.755,154.882
		l-66.648,66.64C822.399,170.48,668.219,106.912,504.082,106.912c-164.197,0-318.418,63.603-434.416,179.139L3.018,219.413z"/>
</g>
</svg>
