<?xml version="1.0" encoding="iso-8859-1"?>
<!-- Generator: Adobe Illustrator 15.1.0, SVG Export Plug-In . SVG Version: 6.00 Build 0)  -->
<!DOCTYPE svg PUBLIC "-//W3C//DTD SVG 1.1//EN" "http://www.w3.org/Graphics/SVG/1.1/DTD/svg11.dtd">
<svg version="1.1" id="Layer_1" xmlns="http://www.w3.org/2000/svg" xmlns:xlink="http://www.w3.org/1999/xlink" x="0px" y="0px"
	 width="1008px" height="1008px" viewBox="0 0 1008 1008" style="enable-background:new 0 0 1008 1008;" xml:space="preserve">
<g>
	<polygon points="0,0.001 0,0 0.001,0 	"/>
</g>
<g id="intelligent-auto">
	<path d="M168,928c-33.636,0-61-27.364-61-61V132c0-33.636,27.364-61,61-61h672c33.636,0,61,27.364,61,61v735
		c0,33.636-27.364,61-61,61H168z M635.547,621.799h51.896L586.132,347.824H523.24L421.554,621.799h51.544l26.845-73.357h108
		L635.547,621.799z M349.483,621.799h47.107V418.156h-47.107V621.799z M349.114,385.855h48.235v-44.082h-48.235V385.855z
		 M512.324,508.145l41.789-118.263l41.424,118.263H512.324z"/>
</g>
</svg>
