<?xml version="1.0" encoding="iso-8859-1"?>
<!-- Generator: Adobe Illustrator 15.1.0, SVG Export Plug-In . SVG Version: 6.00 Build 0)  -->
<!DOCTYPE svg PUBLIC "-//W3C//DTD SVG 1.1//EN" "http://www.w3.org/Graphics/SVG/1.1/DTD/svg11.dtd">
<svg version="1.1" id="Layer_1" xmlns="http://www.w3.org/2000/svg" xmlns:xlink="http://www.w3.org/1999/xlink" x="0px" y="0px"
	 width="1024px" height="1024px" viewBox="0 0 1024 1024" style="enable-background:new 0 0 1024 1024;" xml:space="preserve">
<g>
	<polygon points="0,0.001 0,0 0.001,0 	"/>
</g>
<g id="battery">
	<g>
		<g>
			<g>
				<path d="M28.062,710C14.243,710,3,698.75,3,684.922V101.219c0-13.836,11.243-25.094,25.062-25.094h871.75
					c13.819,0,25.062,11.257,25.062,25.094v135.109h71.438c13.612,0,24.688,11.075,24.688,24.688v265.031
					c0,13.612-11.075,24.688-24.688,24.688h-71.438v134.188c0,13.828-11.243,25.078-25.062,25.078H28.062z M127.719,166.25
					c-19.79,0-35.891,16.101-35.891,35.891v383.641c0,19.765,16.101,35.844,35.891,35.844h672c19.79,0,35.891-16.079,35.891-35.844
					V202.141c0-19.79-16.101-35.891-35.891-35.891H127.719z M636.953,550.734c-14.595,0-26.469-11.867-26.469-26.453v-261.5
					c0-14.586,11.874-26.453,26.469-26.453h101.312c14.561,0,26.406,11.867,26.406,26.453v261.5
					c0,14.586-11.846,26.453-26.406,26.453H636.953z M412.656,550.734c-14.595,0-26.469-11.867-26.469-26.453v-261.5
					c0-14.586,11.874-26.453,26.469-26.453h101.297c14.578,0,26.438,11.867,26.438,26.453v261.5
					c0,14.586-11.859,26.453-26.438,26.453H412.656z M188.391,550.734c-14.586,0-26.453-11.867-26.453-26.453v-261.5
					c0-14.586,11.867-26.453,26.453-26.453h101.281c14.586,0,26.453,11.867,26.453,26.453v261.5
					c0,14.586-11.867,26.453-26.453,26.453H188.391z"/>
				<path d="M28.062,710C14.243,710,3,698.75,3,684.922V101.219c0-13.836,11.243-25.094,25.062-25.094h871.75
					c13.819,0,25.062,11.257,25.062,25.094v135.109h71.438c13.612,0,24.688,11.075,24.688,24.688v265.031
					c0,13.612-11.075,24.688-24.688,24.688h-71.438v134.188c0,13.828-11.243,25.078-25.062,25.078H28.062z M127.719,166.25
					c-19.79,0-35.891,16.101-35.891,35.891v383.641c0,19.765,16.101,35.844,35.891,35.844h672c19.79,0,35.891-16.079,35.891-35.844
					V202.141c0-19.79-16.101-35.891-35.891-35.891H127.719z M636.953,550.734c-14.595,0-26.469-11.867-26.469-26.453v-261.5
					c0-14.586,11.874-26.453,26.469-26.453h101.312c14.561,0,26.406,11.867,26.406,26.453v261.5
					c0,14.586-11.846,26.453-26.406,26.453H636.953z M412.656,550.734c-14.595,0-26.469-11.867-26.469-26.453v-261.5
					c0-14.586,11.874-26.453,26.469-26.453h101.297c14.578,0,26.438,11.867,26.438,26.453v261.5
					c0,14.586-11.859,26.453-26.438,26.453H412.656z M188.391,550.734c-14.586,0-26.453-11.867-26.453-26.453v-261.5
					c0-14.586,11.867-26.453,26.453-26.453h101.281c14.586,0,26.453,11.867,26.453,26.453v261.5
					c0,14.586-11.867,26.453-26.453,26.453H188.391z"/>
			</g>
		</g>
	</g>
	<g>
		<g>
			<g>
				<path style="fill:#2E368F;" d="M28.062,710C14.243,710,3,698.75,3,684.922V101.219c0-13.836,11.243-25.094,25.062-25.094h871.75
					c13.819,0,25.062,11.257,25.062,25.094v135.109h71.438c13.612,0,24.688,11.075,24.688,24.688v265.031
					c0,13.612-11.075,24.688-24.688,24.688h-71.438v134.188c0,13.828-11.243,25.078-25.062,25.078H28.062z M127.719,166.25
					c-19.79,0-35.891,16.101-35.891,35.891v383.641c0,19.765,16.101,35.844,35.891,35.844h672c19.79,0,35.891-16.079,35.891-35.844
					V202.141c0-19.79-16.101-35.891-35.891-35.891H127.719z M636.953,550.734c-14.595,0-26.469-11.867-26.469-26.453v-261.5
					c0-14.586,11.874-26.453,26.469-26.453h101.312c14.561,0,26.406,11.867,26.406,26.453v261.5
					c0,14.586-11.846,26.453-26.406,26.453H636.953z M412.656,550.734c-14.595,0-26.469-11.867-26.469-26.453v-261.5
					c0-14.586,11.874-26.453,26.469-26.453h101.297c14.578,0,26.438,11.867,26.438,26.453v261.5
					c0,14.586-11.859,26.453-26.438,26.453H412.656z M188.391,550.734c-14.586,0-26.453-11.867-26.453-26.453v-261.5
					c0-14.586,11.867-26.453,26.453-26.453h101.281c14.586,0,26.453,11.867,26.453,26.453v261.5
					c0,14.586-11.867,26.453-26.453,26.453H188.391z"/>
			</g>
		</g>
	</g>
</g>
</svg>
