<?xml version="1.0" encoding="iso-8859-1"?>
<!-- Generator: Adobe Illustrator 15.1.0, SVG Export Plug-In . SVG Version: 6.00 Build 0)  -->
<!DOCTYPE svg PUBLIC "-//W3C//DTD SVG 1.1//EN" "http://www.w3.org/Graphics/SVG/1.1/DTD/svg11.dtd">
<svg version="1.1" id="Layer_1" xmlns="http://www.w3.org/2000/svg" xmlns:xlink="http://www.w3.org/1999/xlink" x="0px" y="0px"
	 width="1032px" height="1032px" viewBox="0 0 1032 1032" style="enable-background:new 0 0 1032 1032;" xml:space="preserve">
<g>
	<polygon points="0,0.001 0,0 0.001,0 	"/>
</g>
<g id="circle-num-5">
	<path d="M516,954.02c-57.517,0-113.31-11.264-165.828-33.478c-50.728-21.457-96.286-52.176-135.409-91.303
		c-39.122-39.126-69.837-84.687-91.291-135.416C101.262,641.305,90,585.514,90,528s11.262-113.303,33.472-165.82
		c21.454-50.728,52.169-96.287,91.291-135.41c39.123-39.125,84.681-69.841,135.409-91.296C402.69,113.263,458.482,102,516,102
		c57.508,0,113.294,11.263,165.81,33.475c50.728,21.456,96.286,52.172,135.411,91.296c39.126,39.125,69.845,84.683,91.302,135.41
		C930.736,414.698,942,470.488,942,528c0,57.513-11.264,113.303-33.478,165.822c-21.458,50.729-52.176,96.29-91.302,135.417
		c-39.125,39.127-84.685,69.845-135.411,91.303C629.294,942.756,573.507,954.02,516,954.02z M516,157.914
		c-204.09,0-370.129,166.02-370.129,370.086c0,204.09,166.039,370.129,370.129,370.129S886.129,732.09,886.129,528
		C886.129,323.934,720.09,157.914,516,157.914z M502.562,701.648c-34.896,0-66.292-5.906-93.382-17.559l12.034-35.462
		c25.252,10.82,50.672,16.087,77.568,16.087c48.729,0,77.822-25.725,77.822-68.812c0-42.532-33.187-66.926-91.051-66.926
		c-19.482,0-38.344,1.539-60.547,4.964l8.542-167.726h172.892v36.934H474.194l-5.687,92.174l4.676-0.463
		c15.611-1.546,26.146-1.871,32.234-1.871c33.027,0,62.679,8.8,83.49,24.78c22.926,17.602,35.043,43.64,35.043,75.298
		c0,34.045-12.395,62.192-35.845,81.399C566.705,691.995,536.324,701.648,502.562,701.648z"/>
</g>
</svg>
