<?xml version="1.0" encoding="iso-8859-1"?>
<!-- Generator: Adobe Illustrator 15.1.0, SVG Export Plug-In . SVG Version: 6.00 Build 0)  -->
<!DOCTYPE svg PUBLIC "-//W3C//DTD SVG 1.1//EN" "http://www.w3.org/Graphics/SVG/1.1/DTD/svg11.dtd">
<svg version="1.1" id="Layer_1" xmlns="http://www.w3.org/2000/svg" xmlns:xlink="http://www.w3.org/1999/xlink" x="0px" y="0px"
	 width="1032px" height="1032px" viewBox="0 0 1032 1032" style="enable-background:new 0 0 1032 1032;" xml:space="preserve">
<g>
	<polygon points="0,0.001 0,0 0.001,0 	"/>
</g>
<g id="weight">
	<path d="M100.136,739c-30.97-61.819-46.669-127.934-46.669-196.555c0-59.458,11.646-117.136,34.613-171.434
		c22.185-52.447,53.944-99.55,94.396-140.002s87.556-72.212,140.003-94.396C376.777,113.646,434.455,102,493.912,102
		s117.136,11.646,171.433,34.613c52.447,22.185,99.551,53.944,140.003,94.396s72.212,87.556,94.396,140.002
		c22.968,54.298,34.613,111.976,34.613,171.434c0,68.621-15.699,134.735-46.67,196.555H100.136z M374.27,347.231l155.797,269.847
		h58.916L418.447,321.731L374.27,347.231z"/>
</g>
</svg>
