<?xml version="1.0" encoding="iso-8859-1"?>
<!-- Generator: Adobe Illustrator 15.1.0, SVG Export Plug-In . SVG Version: 6.00 Build 0)  -->
<!DOCTYPE svg PUBLIC "-//W3C//DTD SVG 1.1//EN" "http://www.w3.org/Graphics/SVG/1.1/DTD/svg11.dtd">
<svg version="1.1" id="Layer_1" xmlns="http://www.w3.org/2000/svg" xmlns:xlink="http://www.w3.org/1999/xlink" x="0px" y="0px"
	 width="1032px" height="1032px" viewBox="0 0 1032 1032" style="enable-background:new 0 0 1032 1032;" xml:space="preserve">
<g>
	<polygon points="0,0.001 0,0 0.001,0 	"/>
</g>
<g id="battery">
	<path d="M29.27,739.001c-13.934,0-25.27-11.336-25.27-25.27V128.11c0-13.958,11.336-25.312,25.27-25.312H916.73
		c13.934,0,25.27,11.355,25.27,25.312v145.891h61.109c13.725,0,24.891,11.166,24.891,24.891V542.11
		c0,13.725-11.166,24.891-24.891,24.891H942v146.73c0,13.934-11.336,25.27-25.27,25.27H29.27z M157.891,223.001
		c-18.136,0-32.891,14.755-32.891,32.891v329.262c0,18.112,14.755,32.848,32.891,32.848h630.219
		c18.136,0,32.891-14.735,32.891-32.848V255.892c0-18.136-14.755-32.891-32.891-32.891H157.891z M632.738,567.001
		c-14.743,0-26.738-11.995-26.738-26.738V300.739c0-14.744,11.995-26.738,26.738-26.738h110.523
		c14.743,0,26.738,11.995,26.738,26.738v239.523c0,14.743-11.995,26.738-26.738,26.738H632.738z M417.738,567.001
		c-14.744,0-26.738-11.995-26.738-26.738V300.739c0-14.744,11.995-26.738,26.738-26.738h110.523
		c14.743,0,26.738,11.995,26.738,26.738v239.523c0,14.743-11.995,26.738-26.738,26.738H417.738z M202.738,567.001
		c-14.744,0-26.738-11.995-26.738-26.738V300.739c0-14.744,11.995-26.738,26.738-26.738h110.523
		c14.744,0,26.738,11.995,26.738,26.738v239.523c0,14.743-11.995,26.738-26.738,26.738H202.738z"/>
</g>
</svg>
