<?xml version="1.0" encoding="iso-8859-1"?>
<!-- Generator: Adobe Illustrator 15.1.0, SVG Export Plug-In . SVG Version: 6.00 Build 0)  -->
<!DOCTYPE svg PUBLIC "-//W3C//DTD SVG 1.1//EN" "http://www.w3.org/Graphics/SVG/1.1/DTD/svg11.dtd">
<svg version="1.1" id="Layer_1" xmlns="http://www.w3.org/2000/svg" xmlns:xlink="http://www.w3.org/1999/xlink" x="0px" y="0px"
	 width="1032px" height="1032px" viewBox="0 0 1032 1032" style="enable-background:new 0 0 1032 1032;" xml:space="preserve">
<g>
	<polygon points="0,0.001 0,0 0.001,0 	"/>
</g>
<g id="circle-num-8">
	<path d="M516,954.02c-57.517,0-113.31-11.264-165.828-33.478c-50.728-21.457-96.286-52.176-135.409-91.303
		c-39.122-39.126-69.837-84.687-91.291-135.416C101.262,641.305,90,585.514,90,528s11.262-113.303,33.472-165.82
		c21.454-50.728,52.169-96.287,91.291-135.41c39.123-39.125,84.681-69.841,135.409-91.296C402.69,113.263,458.482,102,516,102
		c57.508,0,113.294,11.263,165.81,33.475c50.728,21.456,96.286,52.172,135.411,91.296c39.126,39.125,69.845,84.683,91.302,135.41
		C930.736,414.698,942,470.488,942,528c0,57.513-11.264,113.303-33.478,165.822c-21.458,50.729-52.176,96.29-91.302,135.417
		c-39.125,39.127-84.685,69.845-135.411,91.303C629.294,942.756,573.507,954.02,516,954.02z M516,157.914
		c-204.09,0-370.129,166.02-370.129,370.086c0,204.09,166.039,370.129,370.129,370.129c204.067,0,370.088-166.039,370.088-370.129
		C886.088,323.934,720.067,157.914,516,157.914z M518.898,701.648c-33.658,0-63.739-8.319-84.702-23.426
		c-22.435-16.167-34.294-39.726-34.294-68.129c0-52.647,38.002-72.968,60.654-80.395l2.754-0.902v-6.558l-2.497-1.013
		c-15.386-6.241-27.542-15.337-36.129-27.035c-9.534-12.987-14.368-28.901-14.368-47.301c0-59.662,54.302-86.367,108.119-86.367
		c29.452,0,56.513,7.839,76.196,22.073c21.516,15.559,32.888,37.791,32.888,64.294c0,35.817-17.544,60.68-50.736,71.902
		l-2.719,0.919v6.596l2.605,0.969c18.285,6.799,32.643,16.201,42.676,27.945c12.307,14.405,18.547,32.867,18.547,54.872
		c0,28.406-11.854,51.966-34.279,68.13C582.656,693.329,552.57,701.648,518.898,701.648z M518.898,543.652
		c-35.605,0-71.65,21.2-71.65,61.719c0,37.188,27.455,60.289,71.65,60.289c44.194,0,71.648-23.102,71.648-60.289
		C590.547,564.853,554.503,543.652,518.898,543.652z M518.436,396.051c-37.786,0-62.201,21.25-62.201,54.137
		c0,35.49,24.416,58.422,62.201,58.422c38.347,0,63.125-22.932,63.125-58.422C581.561,416.795,557.372,396.051,518.436,396.051z"/>
</g>
</svg>
