<?xml version="1.0" encoding="iso-8859-1"?>
<!-- Generator: Adobe Illustrator 15.1.0, SVG Export Plug-In . SVG Version: 6.00 Build 0)  -->
<!DOCTYPE svg PUBLIC "-//W3C//DTD SVG 1.1//EN" "http://www.w3.org/Graphics/SVG/1.1/DTD/svg11.dtd">
<svg version="1.1" id="Layer_1" xmlns="http://www.w3.org/2000/svg" xmlns:xlink="http://www.w3.org/1999/xlink" x="0px" y="0px"
	 width="1032px" height="1032px" viewBox="0 0 1032 1032" style="enable-background:new 0 0 1032 1032;" xml:space="preserve">
<g>
	<polygon points="0,0.001 0,0 0.001,0 	"/>
</g>
<g id="link">
	<path d="M537.5,524c-33.36,0-60.5-27.14-60.5-60.5V446h387V180H649v-17.5c0-33.36,27.141-60.5,60.5-60.5h172
		c33.359,0,60.5,27.14,60.5,60.5v301c0,33.36-27.141,60.5-60.5,60.5H537.5z M150.5,524c-33.36,0-60.5-27.14-60.5-60.5v-301
		c0-33.36,27.14-60.5,60.5-60.5h344c33.359,0,60.5,27.14,60.5,60.5V180H168v266h215v17.5c0,33.36-27.14,60.5-60.5,60.5H150.5z
		 M344,352c-21.505,0-39-17.495-39-39s17.495-39,39-39h344c21.505,0,39,17.495,39,39s-17.495,39-39,39H344z"/>
</g>
</svg>
