<?xml version="1.0" encoding="iso-8859-1"?>
<!-- Generator: Adobe Illustrator 15.1.0, SVG Export Plug-In . SVG Version: 6.00 Build 0)  -->
<!DOCTYPE svg PUBLIC "-//W3C//DTD SVG 1.1//EN" "http://www.w3.org/Graphics/SVG/1.1/DTD/svg11.dtd">
<svg version="1.1" id="Layer_1" xmlns="http://www.w3.org/2000/svg" xmlns:xlink="http://www.w3.org/1999/xlink" x="0px" y="0px"
	 width="1032px" height="1032px" viewBox="0 0 1032 1032" style="enable-background:new 0 0 1032 1032;" xml:space="preserve">
<g>
	<polygon points="0,0.001 0,0 0.001,0 	"/>
</g>
<g id="twitter">
	<path d="M394.979,801.443c-70.311,0-138.95-18.604-199.583-53.953c5.711,0.346,11.391,0.52,17,0.52
		c65.099,0,126.533-21.22,177.662-61.365l8.837-6.939l-11.234-0.206c-56.457-1.036-106.227-36.521-125.86-89.002
		c6.843,0.977,13.731,1.47,20.555,1.47c12.984,0,25.841-1.707,38.213-5.074l-0.26-7.78
		c-62.116-12.516-107.628-66.613-109.872-129.664c18.473,9.16,38.969,14.329,59.694,15.009l13.994,0.459l-11.64-7.782
		c-38.171-25.521-60.959-68.225-60.959-114.233c0-22.316,5.421-44.289,15.725-63.914c72.397,86.266,177.728,138.834,289.935,144.483
		l5.292,0.266l-1.193-5.163c-2.356-10.188-3.551-20.723-3.551-31.31c0-75.652,61.5-137.199,137.094-137.199
		c37.741,0,74.208,15.788,100.049,43.316l1.514,1.613l2.171-0.425c28.414-5.566,55.741-15.417,81.38-29.325
		c-11.18,27.356-31.002,50.492-56.658,65.871l2.532,7.402c23.928-2.867,47.199-8.655,69.369-17.24
		c-17.268,23.368-37.914,43.799-61.521,60.858l-1.743,1.259l0.09,2.148c0.248,6.002,0.374,12.099,0.374,18.12
		c0,46.217-8.981,94.662-25.972,140.097c-17.834,47.688-43.544,90.794-76.415,128.123c-35.223,39.999-77.109,71.421-124.498,93.395
		C513.739,789.275,456.368,801.443,394.979,801.443z"/>
</g>
</svg>
