<?xml version="1.0" encoding="iso-8859-1"?>
<!-- Generator: Adobe Illustrator 15.1.0, SVG Export Plug-In . SVG Version: 6.00 Build 0)  -->
<!DOCTYPE svg PUBLIC "-//W3C//DTD SVG 1.1//EN" "http://www.w3.org/Graphics/SVG/1.1/DTD/svg11.dtd">
<svg version="1.1" id="Layer_1" xmlns="http://www.w3.org/2000/svg" xmlns:xlink="http://www.w3.org/1999/xlink" x="0px" y="0px"
	 width="1032px" height="1032px" viewBox="0 0 1032 1032" style="enable-background:new 0 0 1032 1032;" xml:space="preserve">
<g>
	<polygon points="0,0.001 0,0 0.001,0 	"/>
</g>
<g id="youtube">
	<path d="M542.122,975.076c-6.568,0.005-13.236,0.009-20.01,0.009c-95.64,0-205.08-0.828-293.482-10.711
		c-38.898-4.339-71.091-33.646-80.11-72.928c-13.378-58.156-13.378-121.104-13.378-181.979c0-57.792,0-123.295,13.504-182.021
		c8.777-38.189,40.239-65.751,80.153-70.218c88.371-9.882,194.854-10.709,296.345-10.709l15.798,0.004l15.75-0.004
		c98.776,0,202.608,0.827,290.98,10.709c39.899,4.465,71.378,32.029,80.195,70.221c13.293,57.992,13.293,120.758,13.293,181.456
		v0.562c0,57.868,0,123.458-13.462,181.979c-9.019,39.281-41.245,68.589-80.193,72.929c-88.399,9.883-189.503,10.711-285.472,10.711
		C562.021,975.085,548.676,975.081,542.122,975.076z M800.371,611.635c-25.062,0-44.965,9.438-59.156,28.052
		c-10.271,13.478-15.265,34.153-15.265,63.21v85.012c0,28.249,5.339,49.487,15.867,63.124c14.21,18.567,34.31,27.989,59.729,27.989
		c26.06,0,46.196-9.981,59.851-29.666c6.015-8.823,9.906-18.814,11.584-29.722l0.02-0.125l0.029-0.323
		c0.425-4.733,1.006-11.215,1.006-26.238v-10.824h-55.745v4c0,17.337-0.508,24.198-0.94,26.896
		c-2.288,10.71-7.528,15.487-16.979,15.487c-8.521,0-19.852-3.297-19.852-31.801v-44.438h93.517v-49.371
		c0-28.788-5-49.455-15.286-63.184C844.947,621.087,825.302,611.635,800.371,611.635z M607.176,857.062
		c14.023,14.582,28.886,21.959,44.291,21.959c20.171,0,34.41-10.981,41.177-31.758l0.044-0.146
		c3.268-11.5,4.855-28.861,4.855-53.077v-97.402c0-24.708-1.593-42.046-4.871-53.006c-6.78-20.963-21.021-31.998-41.205-31.998
		c-15.558,0-30.42,7.212-44.291,21.466V526.518h-54.795l1.375,348.957h53.42V857.062z M378.801,817.471
		c0,17.536,1.452,30.854,4.314,39.586l0.036,0.105c5.133,14.301,16.861,21.859,33.915,21.859c16.347,0,32.58-8.352,49.414-25.473
		v21.926h54.821V610.775H466.48v198.568c-9.203,12.717-17.8,19.162-25.562,19.162c-2.8,0-5.877-0.584-6.966-7.559l-0.045-0.289
		l-0.087-0.279c-0.282-1.269-0.282-8.2-0.282-16.975V610.775h-54.737V817.471z M253.244,875.475h59.986V583.291h56.018v-56.773
		H198.234v56.773h55.01V875.475z M626.439,828.506c-6.332,0-12.807-3.085-19.264-9.175V670.802
		c6.488-6.02,12.963-9.069,19.264-9.069c5.335,0,9.081,2.187,11.789,6.882c3.037,5.266,4.577,13.458,4.577,24.349v104.75
		C642.806,828.506,630.487,828.506,626.439,828.506z M780.52,705.342V685.49c0-23.354,7.693-25.102,19.432-25.102
		c11.662,0,19.306,1.747,19.306,25.102v19.852H780.52z M673.345,382.084c-13.917,0-22.629-5.475-26.634-16.739
		c-2.623-7.938-3.968-20.555-3.968-37.417V127.068h39.115v186.621c0,12.951,0.026,17.077,0.633,19.276
		c1.9,12.329,10.196,14.181,14.999,14.181c10.923,0,21.756-7.79,33.119-23.815l0.737-1.04V127.068h39.241v251.406h-39.241v-35.125
		l-7.016,8.048C706.582,371.759,689.428,382.084,673.345,382.084z M530.067,382.084c-22.154,0-39.577-8.429-51.786-25.051
		c-9.338-12.173-14.047-31.989-14.047-58.964v-90.008c0-27.314,4.582-46.611,14.006-58.991
		c12.255-16.707,29.678-25.149,51.827-25.149c22.506,0,39.487,8.209,51.914,25.097c9.344,12.484,13.877,31.789,13.877,59.043v90.008
		c0,26.917-4.659,46.741-13.849,58.923C569.56,373.888,552.578,382.084,530.067,382.084z M530.067,158.455
		c-17.617,0-26.55,13.504-26.55,40.137v108.359c0,26.672,8.933,40.195,26.55,40.195c17.59,0,26.508-13.523,26.508-40.195V198.592
		C556.575,171.959,547.657,158.455,530.067,158.455z M348.378,378.475V241.741l-0.069-0.368
		c-4.963-26.287-15.779-63.724-32.146-111.271c-5.077-14.865-10.33-30.015-15.409-44.666c-5.406-15.592-10.977-31.662-16.381-47.517
		h46.447l40.344,148.99l38.75-148.99h44.511l-61.64,203.603v136.952H348.378z"/>
</g>
</svg>
