<?xml version="1.0" encoding="iso-8859-1"?>
<!-- Generator: Adobe Illustrator 15.1.0, SVG Export Plug-In . SVG Version: 6.00 Build 0)  -->
<!DOCTYPE svg PUBLIC "-//W3C//DTD SVG 1.1//EN" "http://www.w3.org/Graphics/SVG/1.1/DTD/svg11.dtd">
<svg version="1.1" id="Layer_1" xmlns="http://www.w3.org/2000/svg" xmlns:xlink="http://www.w3.org/1999/xlink" x="0px" y="0px"
	 width="1024px" height="1024px" viewBox="0 0 1024 1024" style="enable-background:new 0 0 1024 1024;" xml:space="preserve">
<g>
	<polygon points="0,0.001 0,0 0.001,0 	"/>
</g>
<g id="_x36_-circlearrow">
	<path d="M516.625,1034c-59.05,0-116.331-11.327-170.251-33.667c-52.078-21.577-98.848-52.465-139.011-91.807
		c-40.156-39.335-71.682-85.137-93.701-136.133c-22.792-52.786-34.349-108.864-34.349-166.675
		c0-113.534,44.952-220.456,126.576-301.071c39.696-39.206,85.973-70.129,137.544-91.911
		c53.341-22.529,110.076-34.259,168.63-34.862l5.938-0.062V38.363l279.49,201.05L518,449.001V310.664l-6.116,0.119
		c-163.633,3.175-296.759,136.001-296.759,296.093c0,163.577,135.757,296.656,302.625,296.656
		c162.535,0,300.09-139.409,302.712-305.531h133.497c-0.771,55.848-12.314,110.609-34.339,162.867
		c-22.121,52.486-53.677,99.889-93.792,140.89c-40.367,41.26-87.152,73.721-139.055,96.48
		C632.658,1021.968,575.412,1034,516.625,1034z"/>
</g>
</svg>
