<?xml version="1.0" encoding="iso-8859-1"?>
<!-- Generator: Adobe Illustrator 15.1.0, SVG Export Plug-In . SVG Version: 6.00 Build 0)  -->
<!DOCTYPE svg PUBLIC "-//W3C//DTD SVG 1.1//EN" "http://www.w3.org/Graphics/SVG/1.1/DTD/svg11.dtd">
<svg version="1.1" id="Layer_1" xmlns="http://www.w3.org/2000/svg" xmlns:xlink="http://www.w3.org/1999/xlink" x="0px" y="0px"
	 width="1024px" height="1024px" viewBox="0 0 1024 1024" style="enable-background:new 0 0 1024 1024;" xml:space="preserve">
<g>
	<polygon points="0,0.001 0,0 0.001,0 	"/>
</g>
<g id="_x36_-dot">
	<path d="M512,970c-59.692,0-117.588-11.682-172.078-34.722c-52.635-22.256-99.904-54.12-140.492-94.708
		c-40.588-40.589-72.453-87.857-94.708-140.493C81.682,645.588,70,587.692,70,528c0-59.649,11.682-117.518,34.722-171.998
		c22.257-52.632,54.123-99.904,94.709-140.502c40.593-40.605,87.862-72.484,140.493-94.752C394.419,97.691,452.313,86,512,86
		s117.581,11.691,172.076,34.748c52.631,22.268,99.899,54.147,140.493,94.752c40.587,40.598,72.451,87.87,94.709,140.502
		C942.318,410.482,954,468.351,954,528c0,59.692-11.682,117.588-34.722,172.077c-22.256,52.636-54.12,99.904-94.708,140.493
		c-40.589,40.588-87.857,72.452-140.493,94.708C629.588,958.318,571.692,970,512,970z"/>
</g>
</svg>
