<?xml version="1.0" encoding="iso-8859-1"?>
<!-- Generator: Adobe Illustrator 15.1.0, SVG Export Plug-In . SVG Version: 6.00 Build 0)  -->
<!DOCTYPE svg PUBLIC "-//W3C//DTD SVG 1.1//EN" "http://www.w3.org/Graphics/SVG/1.1/DTD/svg11.dtd">
<svg version="1.1" id="Layer_1" xmlns="http://www.w3.org/2000/svg" xmlns:xlink="http://www.w3.org/1999/xlink" x="0px" y="0px"
	 width="1024px" height="1024px" viewBox="0 0 1024 1024" style="enable-background:new 0 0 1024 1024;" xml:space="preserve">
<g>
	<polygon points="0,0.001 0,0 0.001,0 	"/>
</g>
<g id="_x33_-alpha-medium">
	<path d="M439.031,781c-42.61,0-79.416-8.637-109.393-25.671c-30.27-17.2-54.743-39.532-72.74-66.375
		c-18.175-27.017-31.766-57.783-40.398-91.449c-8.563-33.338-12.906-67.489-12.906-101.505c0-37.91,5.049-74.49,15.006-108.725
		c9.931-34.359,25.233-64.908,45.482-90.802c20.168-25.992,46.042-46.945,76.91-62.287C371.765,218.8,407.565,211,447.406,211
		c30.749,0,58.57,4.316,82.689,12.829c23.94,8.594,44.377,20.502,60.729,35.389c16.351,15.064,29.498,32.842,39.063,52.827
		c9.54,20.058,16.479,42.463,20.624,66.587l0.772,5.041l5.866,0.311l1.344-5.094c2.788-9.882,5.624-21.9,8.415-35.669
		c0.908-4.582,1.813-9.177,2.724-13.796c1.853-9.404,3.724-18.902,5.651-28.457c2.841-14.784,5.288-29.427,7.28-43.549
		c1.86-12.749,3.502-24.146,4.885-33.919h101.782c-5.597,48.249-15.115,100.351-28.304,154.92
		c-13.561,56.107-32.354,113.535-55.858,170.689l-0.386,0.937l16.979,63.484c2.697,14.973,6.456,28.145,11.173,39.151
		c4.631,10.74,10.167,19.003,16.458,24.565c6.362,5.559,13.526,9.113,21.308,10.576c7.461,1.403,15.575,2.114,24.117,2.114
		c4.61,0,9.348-0.369,14.081-1.098c3.348-0.429,6.334-0.915,9.044-1.386v81.569c-6.387,1.188-14.63,2.404-24.554,3.624
		c-11.512,1.415-20.632,2.103-27.884,2.103c-16.364,0-31.693-1.04-45.561-3.093c-13.83-2.099-25.628-6.237-36.056-12.65
		c-10.352-6.319-19.547-15.34-27.339-26.817c-7.713-11.327-13.697-26.037-17.792-43.726l-3.111-17.672l-2.154-13.051l-5.651,12.32
		c-15.745,32.039-39.684,58.853-71.115,79.623C525.183,770.464,485.617,781,439.031,781z M454.719,295.75
		c-15.656,0-31.893,3.617-48.261,10.75c-16.461,7.11-31.441,18.439-44.515,33.671c-13.05,15.141-23.969,36.01-32.451,62.024
		c-8.434,25.932-12.71,57.491-12.71,93.805c0,60.964,12.694,109.991,37.73,145.722c25.16,36.18,58.876,54.528,100.207,54.528
		c26.924,0,49.835-6.14,68.096-18.25c18.093-12.062,32.492-28.053,42.806-47.534c10.17-19.21,17.505-40.929,21.8-64.554
		c4.181-23.561,6.299-47.078,6.299-69.912c0-36.146-3.911-67.68-11.623-93.727c-7.827-26.151-18.242-47.037-30.961-62.085
		c-12.688-15.225-27.662-26.569-44.496-33.701C489.91,299.363,472.439,295.75,454.719,295.75z"/>
</g>
</svg>
