<?xml version="1.0" encoding="iso-8859-1"?>
<!-- Generator: Adobe Illustrator 15.1.0, SVG Export Plug-In . SVG Version: 6.00 Build 0)  -->
<!DOCTYPE svg PUBLIC "-//W3C//DTD SVG 1.1//EN" "http://www.w3.org/Graphics/SVG/1.1/DTD/svg11.dtd">
<svg version="1.1" id="Layer_1" xmlns="http://www.w3.org/2000/svg" xmlns:xlink="http://www.w3.org/1999/xlink" x="0px" y="0px"
	 width="1024px" height="1024px" viewBox="0 0 1024 1024" style="enable-background:new 0 0 1024 1024;" xml:space="preserve">
<g>
	<polygon points="0,0.001 0,0 0.001,0 	"/>
</g>
<g id="_x36_-circle-x">
	<path d="M480,970c-63.998,0-126.077-12.533-184.512-37.252c-56.442-23.875-107.134-58.056-150.667-101.592
		c-43.53-43.534-77.706-94.228-101.578-150.67C18.53,622.056,6,559.985,6,496s12.53-126.055,37.243-184.486
		c23.872-56.443,58.048-107.136,101.578-150.67c43.533-43.537,94.225-77.717,150.667-101.593C353.923,34.533,416.002,22,480,22
		c63.983,0,126.053,12.533,184.485,37.251c56.441,23.876,107.135,58.057,150.67,101.593c43.536,43.536,77.717,94.229,101.593,150.67
		C941.467,369.947,954,432.017,954,496c0,63.983-12.533,126.053-37.252,184.485c-23.876,56.441-58.057,107.135-101.593,150.67
		c-43.535,43.536-94.229,77.717-150.67,101.593C606.053,957.467,543.983,970,480,970z M480,106C264.953,106,90,280.953,90,496
		s174.953,390,390,390s390-174.953,390-390S695.047,106,480,106z M479.5,555.515l-137,137l-59.765-59.765l137-137l-137-137
		l59.765-59.765l137,137l137-137l59.765,59.765l-137,137l137,137L616.5,692.515L479.5,555.515z"/>
</g>
</svg>
