<?xml version="1.0" encoding="iso-8859-1"?>
<!-- Generator: Adobe Illustrator 15.1.0, SVG Export Plug-In . SVG Version: 6.00 Build 0)  -->
<!DOCTYPE svg PUBLIC "-//W3C//DTD SVG 1.1//EN" "http://www.w3.org/Graphics/SVG/1.1/DTD/svg11.dtd">
<svg version="1.1" id="Layer_1" xmlns="http://www.w3.org/2000/svg" xmlns:xlink="http://www.w3.org/1999/xlink" x="0px" y="0px"
	 width="1024px" height="1024px" viewBox="0 0 1024 1024" style="enable-background:new 0 0 1024 1024;" xml:space="preserve">
<polygon points="0,0.001 0,0 0.001,0 "/>
<path id="_x30_-star" d="M906.43,370.969l-123.875-4.938l-157.75-6.188l-12-31.688l0,0l-44.25-117.562l-44.25-117.562
	c-6.625-17.375-17.25-17.375-23.875,0l-44.25,117.562l-44.25,117.562l0,0l-12,31.688l-157.75,6.188l-123.875,4.938
	c-18.625,0.75-22,10.938-7.75,22.75c0,0.062,0,0.062,0.062,0.062l96.812,79.25l96.875,79.25l26.125,21.438l-8.875,32.625
	l-32.375,118.188l-32.375,118.188v0.062c-4.875,17.938,3.938,24.375,19.625,14.375l103.625-66.5l132.312-84.75l132.25,84.75
	l103.688,66.5c15.625,10,24.438,3.562,19.625-14.375v-0.062l-32.375-118.188L703.18,606.344l-8.938-32.625l26.188-21.438
	l96.875-79.25l96.75-79.25c0.062,0,0.062,0,0.125-0.062C928.43,381.906,925.055,371.719,906.43,370.969z"/>
</svg>
