<?xml version="1.0" encoding="iso-8859-1"?>
<!-- Generator: Adobe Illustrator 15.1.0, SVG Export Plug-In . SVG Version: 6.00 Build 0)  -->
<!DOCTYPE svg PUBLIC "-//W3C//DTD SVG 1.1//EN" "http://www.w3.org/Graphics/SVG/1.1/DTD/svg11.dtd">
<svg version="1.1" id="Layer_1" xmlns="http://www.w3.org/2000/svg" xmlns:xlink="http://www.w3.org/1999/xlink" x="0px" y="0px"
	 width="1024px" height="1024px" viewBox="0 0 1024 1024" style="enable-background:new 0 0 1024 1024;" xml:space="preserve">
<g>
	<polygon points="0,0.001 0,0 0.001,0 	"/>
</g>
<g id="_x36_-circle-q">
	<path d="M480,970c-63.998,0-126.077-12.533-184.512-37.252c-56.442-23.875-107.134-58.056-150.667-101.592
		c-43.53-43.534-77.706-94.228-101.578-150.67C18.53,622.056,6,559.985,6,496s12.53-126.055,37.243-184.486
		c23.872-56.443,58.048-107.136,101.578-150.67c43.533-43.537,94.225-77.717,150.667-101.593C353.923,34.533,416.002,22,480,22
		c63.983,0,126.053,12.533,184.485,37.251c56.441,23.876,107.135,58.057,150.67,101.593c43.536,43.536,77.717,94.229,101.593,150.67
		C941.467,369.947,954,432.017,954,496c0,63.983-12.533,126.053-37.252,184.485c-23.876,56.441-58.057,107.135-101.593,150.67
		c-43.535,43.536-94.229,77.717-150.67,101.593C606.053,957.467,543.983,970,480,970z M480,106C264.953,106,90,280.953,90,496
		s174.953,390,390,390s390-174.953,390-390S695.047,106,480,106z M424.312,707.625v-73.469h80v73.469H424.312z M429,580.531v-8.812
		c0-34.922,10.273-54.577,40.711-77.893c3.167-2.382,6.315-4.718,9.385-6.997c30.972-22.987,55.435-41.144,55.435-74.735
		c0-35.418-27.547-61.125-65.5-61.125c-24.792,0-53.2,14.749-85.948,32.211l-19.788-49.443
		c36.515-21.422,75.341-40.612,113.392-40.612c35.012,0,67.202,10.463,90.64,29.462c25.893,20.989,39.579,51.172,39.579,87.288
		c0,40.642-14.863,69.178-48.192,92.523l-21.859,15.417c-32.205,22.773-40.868,35.614-40.229,59.672v3.044H429z"/>
</g>
</svg>
