<?xml version="1.0" encoding="iso-8859-1"?>
<!-- Generator: Adobe Illustrator 15.1.0, SVG Export Plug-In . SVG Version: 6.00 Build 0)  -->
<!DOCTYPE svg PUBLIC "-//W3C//DTD SVG 1.1//EN" "http://www.w3.org/Graphics/SVG/1.1/DTD/svg11.dtd">
<svg version="1.1" id="Layer_1" xmlns="http://www.w3.org/2000/svg" xmlns:xlink="http://www.w3.org/1999/xlink" x="0px" y="0px"
	 width="1024px" height="1024px" viewBox="0 0 1024 1024" style="enable-background:new 0 0 1024 1024;" xml:space="preserve">
<g>
	<polygon points="0,0.001 0,0 0.001,0 	"/>
</g>
<g id="_x36_-cart">
	<path d="M736,970c-49.626,0-90-40.374-90-90s40.374-90,90-90s90,40.374,90,90S785.626,970,736,970z M288,970
		c-49.626,0-90-40.374-90-90s40.374-90,90-90s90,40.374,90,90S337.626,970,288,970z M133.297,202H6V86h244v128h768v309.227
		L197.129,712.658L133.297,202z M296.563,572.977L902,429.274V330H266.204L296.563,572.977z"/>
</g>
</svg>
