<?xml version="1.0" encoding="iso-8859-1"?>
<!-- Generator: Adobe Illustrator 15.1.0, SVG Export Plug-In . SVG Version: 6.00 Build 0)  -->
<!DOCTYPE svg PUBLIC "-//W3C//DTD SVG 1.1//EN" "http://www.w3.org/Graphics/SVG/1.1/DTD/svg11.dtd">
<svg version="1.1" id="Layer_1" xmlns="http://www.w3.org/2000/svg" xmlns:xlink="http://www.w3.org/1999/xlink" x="0px" y="0px"
	 width="1024px" height="1024px" viewBox="0 0 1024 1024" style="enable-background:new 0 0 1024 1024;" xml:space="preserve">
<g>
	<polygon points="0,0.001 0,0 0.001,0 	"/>
</g>
<g id="_x36_-registered">
	<path d="M32,1034c-14.336,0-26-11.664-26-26V48c0-14.336,11.664-26,26-26h960c14.336,0,26,11.664,26,26v960
		c0,14.336-11.664,26-26,26H32z M378,790h268V598h256V138H122v460h256V790z M198,522V406h628v116H198z M198,330V214h628v116H198z"/>
</g>
</svg>
