<?xml version="1.0" encoding="utf-8"?>
<!-- Generator: Adobe Illustrator 15.1.0, SVG Export Plug-In  -->
<!DOCTYPE svg PUBLIC "-//W3C//DTD SVG 1.1//EN" "http://www.w3.org/Graphics/SVG/1.1/DTD/svg11.dtd" [
	<!ENTITY ns_flows "http://ns.adobe.com/Flows/1.0/">
]>
<svg version="1.1"
	 xmlns="http://www.w3.org/2000/svg" xmlns:xlink="http://www.w3.org/1999/xlink" xmlns:a="http://ns.adobe.com/AdobeSVGViewerExtensions/3.0/"
	 x="0px" y="0px" width="71px" height="24px" viewBox="0 0 71 24" overflow="visible" enable-background="new 0 0 71 24"
	 xml:space="preserve">
<defs>
</defs>
<path fill="#FFFFFF" d="M4.326,19.137h0.632v0.648c0.248-0.521,0.769-0.753,1.321-0.753c1.096,0,1.617,0.752,1.726,0.942
	c0.088-0.192,0.53-0.942,1.663-0.942c1.461,0,2.005,1.075,2.005,2.164v2.885h-0.674v-2.756c0-0.359-0.03-0.755-0.246-1.062
	c-0.268-0.382-0.664-0.595-1.115-0.595c-0.429,0-0.857,0.221-1.098,0.563c-0.215,0.309-0.207,0.733-0.207,1.093v2.756H7.668v-2.824
	c0-0.375-0.022-0.658-0.24-0.99c-0.253-0.359-0.668-0.591-1.109-0.591c-0.423,0-0.835,0.175-1.088,0.523
	c-0.227,0.323-0.233,0.676-0.233,1.058v2.824H4.326V19.137z"/>
<path fill="#FFFFFF" d="M17.784,24.081h-0.644v-0.928c-0.38,0.697-1.135,1.05-1.915,1.05c-1.264,0-2.667-0.872-2.667-2.622
	c0-1.623,1.346-2.549,2.65-2.549c0.777,0,1.564,0.342,1.932,1.043v-0.938h0.644V24.081z M13.229,21.635
	c0,1.088,0.939,1.928,1.996,1.928c1.032,0,1.915-0.885,1.915-1.921c0-1.092-0.833-1.973-1.932-1.973
	C14.122,19.669,13.229,20.433,13.229,21.635z"/>
<path fill="#FFFFFF" d="M19.117,17.405h0.671v4.688l2.275-2.957h0.85l-1.91,2.481l2.044,2.463h-0.864l-1.607-1.947l-0.787,1.011
	v0.937h-0.671V17.405z"/>
<path fill="#FFFFFF" d="M23.875,21.853c0.041,0.935,0.952,1.71,1.872,1.71c0.727,0,1.467-0.409,1.764-1.083h0.697
	c-0.346,0.993-1.355,1.724-2.404,1.724c-1.443,0-2.592-1.142-2.592-2.585s1.14-2.586,2.576-2.586c0.775,0,1.491,0.353,1.99,0.956
	c0.457,0.571,0.56,1.149,0.575,1.864H23.875z M27.681,21.245c-0.17-0.875-0.969-1.576-1.884-1.576c-0.937,0-1.757,0.66-1.922,1.576
	H27.681z"/>
<path fill="#FFFFFF" d="M33.5,17.405h0.667v2.611c0.349-0.614,1.139-0.984,1.869-0.984c1.471,0,2.678,1.069,2.678,2.561
	c0,1.668-1.39,2.61-2.611,2.61c-0.714,0-1.584-0.326-1.973-0.973v0.851H33.5V17.405z M34.645,20.267
	c-0.39,0.396-0.528,0.844-0.528,1.384c0,1.104,0.9,1.912,1.986,1.912c1.073,0,1.945-0.885,1.945-1.952
	c0-1.123-0.89-1.941-1.992-1.941C35.522,19.669,35.017,19.89,34.645,20.267z"/>
<path fill="#FFFFFF" d="M40.167,21.853c0.035,0.935,0.95,1.71,1.869,1.71c0.729,0,1.468-0.409,1.771-1.083h0.696
	c-0.343,0.993-1.36,1.724-2.405,1.724c-1.451,0-2.595-1.142-2.595-2.585s1.137-2.586,2.569-2.586c0.787,0,1.493,0.353,1.996,0.956
	c0.459,0.571,0.559,1.149,0.581,1.864H40.167z M43.976,21.245c-0.168-0.875-0.974-1.576-1.889-1.576c-0.931,0-1.754,0.66-1.92,1.576
	H43.976z"/>
<path fill="#FFFFFF" d="M45.758,17.405h0.664v6.676h-0.664V17.405z"/>
<path fill="#FFFFFF" d="M47.702,17.405h0.667v1.137h-0.667V17.405z M47.702,19.137h0.667v4.944h-0.667V19.137z"/>
<path fill="#FFFFFF" d="M50.146,21.853c0.037,0.935,0.948,1.71,1.865,1.71c0.732,0,1.471-0.409,1.771-1.083h0.696
	c-0.344,0.993-1.354,1.724-2.403,1.724c-1.449,0-2.596-1.142-2.596-2.585s1.136-2.586,2.578-2.586c0.777,0,1.492,0.353,1.989,0.956
	c0.456,0.571,0.559,1.149,0.574,1.864H50.146z M53.951,21.245c-0.17-0.875-0.975-1.576-1.89-1.576c-0.929,0-1.754,0.66-1.916,1.576
	H53.951z"/>
<path fill="#FFFFFF" d="M54.825,19.137h0.725l1.707,4.094l1.712-4.094h0.724l-2.092,4.944h-0.695L54.825,19.137z"/>
<path fill="#FFFFFF" d="M60.565,21.853c0.039,0.935,0.955,1.71,1.863,1.71c0.729,0,1.478-0.409,1.77-1.083h0.697
	c-0.347,0.993-1.354,1.724-2.403,1.724c-1.446,0-2.594-1.142-2.594-2.585s1.138-2.586,2.574-2.586c0.778,0,1.497,0.353,1.989,0.956
	c0.467,0.571,0.567,1.149,0.58,1.864H60.565z M64.369,21.245c-0.171-0.875-0.971-1.576-1.886-1.576c-0.933,0-1.756,0.66-1.918,1.576
	H64.369z"/>
<path fill="#FFFFFF" d="M31.688,23.187c0,0.533-0.424,0.967-0.957,0.967c-0.528,0-0.96-0.434-0.96-0.967
	c0-0.526,0.432-0.961,0.96-0.961C31.265,22.226,31.688,22.66,31.688,23.187z"/>
<path fill="#FFFFFF" d="M25.346,12.53c-2.573,0-4.96-0.775-6.564-2.213c-1.2-1.08-1.787-2.553-1.787-4.062
	c0-1.49,0.61-2.981,1.787-4.059C20.267,0.85,22.888,0,25.346,0c2.738,0,4.917,0.691,6.581,2.204
	c1.188,1.082,1.763,2.554,1.763,4.052c0,1.45-0.607,2.997-1.763,4.062C30.381,11.768,27.935,12.53,25.346,12.53v-1.651
	c1.377,0,2.642-0.479,3.524-1.356c0.883-0.881,1.292-1.949,1.292-3.267c0-1.269-0.441-2.438-1.292-3.273
	C28,2.123,26.698,1.632,25.346,1.632s-2.648,0.484-3.529,1.351c-0.838,0.835-1.282,2.014-1.282,3.273
	c0,1.252,0.45,2.428,1.282,3.267c0.881,0.872,2.177,1.356,3.529,1.356V12.53z M6.515,0.003c-1.378,0-2.948,0.268-4.27,0.857
	C1.013,1.41,0,2.295,0,3.771C0,5.089,0.842,5.863,0.815,5.84c0.362,0.332,0.94,0.896,2.446,1.22
	c0.671,0.147,2.107,0.369,3.546,0.529c1.419,0.148,2.823,0.29,3.395,0.433c0.454,0.117,1.21,0.274,1.21,1.124
	c0,0.856-0.801,1.111-0.942,1.167c-0.143,0.058-1.1,0.497-2.832,0.497c-1.276,0-2.809-0.383-3.369-0.577
	c-0.641-0.23-1.314-0.541-1.947-1.312C2.165,8.729,1.925,8.203,1.925,7.686H0.349v4.38h1.74c0,0,0-0.474,0-0.59
	c0-0.06,0.092-0.345,0.376-0.207c0.361,0.168,1.429,0.586,2.55,0.818c0.909,0.191,1.5,0.325,2.633,0.325
	c1.856,0,2.853-0.299,3.537-0.495c0.66-0.189,1.462-0.525,2.105-1.038c0.353-0.276,1.119-1.001,1.119-2.304
	c0-1.258-0.664-2.039-0.907-2.271c-0.322-0.323-0.711-0.572-1.124-0.765c-0.361-0.166-0.925-0.372-1.384-0.48
	c-0.9-0.227-2.926-0.496-3.889-0.595C6.089,4.354,4.321,4.21,3.624,3.99C3.407,3.928,2.969,3.715,2.969,3.213
	c0-0.356,0.207-0.664,0.598-0.916c0.62-0.388,1.89-0.627,3.196-0.627c1.561-0.003,2.873,0.342,3.707,0.719
	c0.287,0.139,0.617,0.312,0.886,0.529c0.299,0.242,0.713,0.748,0.866,1.452h1.407V0.558h-1.566V1c0,0.146-0.147,0.327-0.432,0.18
	C10.931,0.807,8.949,0.013,6.515,0.003z M35.405,0.708v1.388h1.215c0.88,0,0.944,0.493,0.944,0.915v6.512
	c0,0.395,0.023,0.923-0.54,0.923c-0.881,0-1.509,0-1.509,0v1.393h6.429v-1.393c0,0-0.686,0-1.566,0c-0.623,0-0.658-0.28-0.668-0.895
	V3.977l8.812,7.861h2.238l-0.116-8.879c0.016-0.645,0.05-0.866,0.718-0.866c0.888,0,1.406,0,1.406,0V0.708h-6.544v1.385
	c0,0,0.56,0,1.441,0c0.654,0,0.772,0.26,0.776,0.866l0.08,4.645l-7.647-6.896H35.405z M58.88,10.445v1.393h7.629v-1.396
	c0,0-1.162,0-1.444,0l-0.378-0.022c-0.152-0.039-0.258-0.146-0.298-0.259l-0.031-0.306c0-0.203,0-2.109,0-2.197l0.058-0.208
	c0.103-0.121,4.049-4.628,4.23-4.824c0.381-0.438,0.588-0.532,1.098-0.532c0.474,0,1.403,0,1.403,0V0.708H64.86v1.385
	c0,0,0.771,0,0.941,0c0.28,0,0.356,0.283,0.238,0.435l-2.672,3.12L63.291,5.64l-2.603-3.112c-0.187-0.232-0.032-0.435,0.17-0.435
	c0.188,0,0.927,0,0.927,0V0.708h-7.672v1.385c0,0,0.886,0,1.367,0c0.593,0,0.978,0.376,1.202,0.621
	c0.179,0.193,4.085,4.624,4.176,4.749c0.099,0.122,0.099,0.141,0.099,0.194v2.197l-0.025,0.306c-0.059,0.112-0.153,0.22-0.302,0.259
	l-0.384,0.026H58.88z"/>
</svg>
