<?xml version="1.0" encoding="utf-8"?>
<!-- Generator: Adobe Illustrator 15.1.0, SVG Export Plug-In . SVG Version: 6.00 Build 0)  -->
<!DOCTYPE svg PUBLIC "-//W3C//DTD SVG 1.1//EN" "http://www.w3.org/Graphics/SVG/1.1/DTD/svg11.dtd">
<svg version="1.1" id="Layer_1" xmlns="http://www.w3.org/2000/svg" xmlns:xlink="http://www.w3.org/1999/xlink" x="0px" y="0px"
	 width="720px" height="90px" viewBox="0 0 720 90" enable-background="new 0 0 720 90" xml:space="preserve">
<g>
	<g>
		<path fill="#231F20" d="M31,20.75c0.133,0,0.25,0.117,0.25,0.25v1c0,0.133-0.117,0.25-0.25,0.25H2c-0.133,0-0.25-0.117-0.25-0.25
			v-1c0-0.133,0.117-0.25,0.25-0.25H31 M31,19H2c-1.1,0-2,0.9-2,2v1c0,1.1,0.9,2,2,2h29c1.1,0,2-0.9,2-2v-1C33,19.9,32.1,19,31,19
			L31,19z"/>
	</g>
	<g>
		<path fill="#231F20" d="M29,1.75c0.133,0,0.25,0.117,0.25,0.25v14c0,0.133-0.117,0.25-0.25,0.25H4c-0.133,0-0.25-0.117-0.25-0.25
			V2c0-0.133,0.117-0.25,0.25-0.25H29 M29,0H4C2.9,0,2,0.9,2,2v14c0,1.1,0.9,2,2,2h25c1.1,0,2-0.9,2-2V2C31,0.9,30.1,0,29,0L29,0z"
			/>
	</g>
</g>
<g>
	<g>
		<path fill="#231F20" d="M103.875,20.75h-12c-1.034,0-1.875-0.841-1.875-1.875v-7C90,10.841,90.841,10,91.875,10
			C91.941,10,92,9.941,92,9.875v-3c0-0.066-0.059-0.125-0.125-0.125C90.841,6.75,90,5.909,90,4.875v-3C90,0.841,90.841,0,91.875,0h9
			c0.777,0,1.776,0.414,2.326,0.963l1.586,1.586c0.549,0.549,0.963,1.549,0.963,2.326v14C105.75,19.909,104.909,20.75,103.875,20.75
			z M91.875,1.75c-0.066,0-0.125,0.059-0.125,0.125v3C91.75,4.941,91.809,5,91.875,5c1.034,0,1.875,0.841,1.875,1.875v3
			c0,1.034-0.841,1.875-1.875,1.875c-0.066,0-0.125,0.059-0.125,0.125v7c0,0.066,0.059,0.125,0.125,0.125h12
			c0.066,0,0.125-0.059,0.125-0.125v-14c0-0.316-0.228-0.865-0.451-1.088l-1.586-1.586c-0.223-0.223-0.772-0.451-1.088-0.451H91.875
			z"/>
	</g>
	<g>
		<path fill="#231F20" d="M102.875,15.875c0,1.1-0.9,2-2,2h-6c-1.1,0-2-0.9-2-2v-2c0-1.1,0.9-2,2-2h6c1.1,0,2,0.9,2,2V15.875z"/>
	</g>
	<g>
		<path fill="#231F20" d="M100.322,3.77c-0.246-0.492-0.648-0.492-0.895,0L98.322,5.98c-0.246,0.492,0.003,0.895,0.553,0.895h2
			c0.55,0,0.799-0.402,0.553-0.895L100.322,3.77z"/>
	</g>
</g>
<path fill="#231F20" d="M152,0h-30c-1.1,0-2,0.9-2,2v17c0,1.1,0.9,2,2,2h13v3.125h-7c-0.483,0-0.875,0.392-0.875,0.875
	s0.392,0.875,0.875,0.875h18c0.483,0,0.875-0.392,0.875-0.875s-0.392-0.875-0.875-0.875h-7V21h13c1.1,0,2-0.9,2-2V2
	C154,0.9,153.1,0,152,0z M152.25,19c0,0.133-0.117,0.25-0.25,0.25h-30c-0.133,0-0.25-0.117-0.25-0.25V2
	c0-0.133,0.117-0.25,0.25-0.25h30c0.133,0,0.25,0.117,0.25,0.25V19z"/>
<g>
	<g>
		<path fill="#231F20" d="M215,1.75c0.133,0,0.25,0.117,0.25,0.25v12c0,0.133-0.117,0.25-0.25,0.25h-33
			c-0.133,0-0.25-0.117-0.25-0.25V2c0-0.133,0.117-0.25,0.25-0.25H215 M215,0h-33c-1.1,0-2,0.9-2,2v12c0,1.1,0.9,2,2,2h33
			c1.1,0,2-0.9,2-2V2C217,0.9,216.1,0,215,0L215,0z"/>
	</g>
	<circle fill="none" stroke="#231F20" stroke-width="1.75" stroke-miterlimit="10" cx="208" cy="8.001" r="4"/>
	<line fill="none" stroke="#231F20" stroke-linecap="round" stroke-miterlimit="10" x1="185" y1="5" x2="192" y2="5"/>
	<line fill="none" stroke="#231F20" stroke-linecap="round" stroke-miterlimit="10" x1="185" y1="8" x2="192" y2="8"/>
	<line fill="none" stroke="#231F20" stroke-linecap="round" stroke-miterlimit="10" x1="185" y1="11" x2="192" y2="11"/>
	<g>
		<path fill="#231F20" d="M186,17c0,0.55-0.45,1-1,1h-1c-0.55,0-1-0.45-1-1v-1c0-0.55,0.45-1,1-1h1c0.55,0,1,0.45,1,1V17z"/>
	</g>
	<g>
		<path fill="#231F20" d="M214,17c0,0.55-0.45,1-1,1h-1c-0.55,0-1-0.45-1-1v-1c0-0.55,0.45-1,1-1h1c0.55,0,1,0.45,1,1V17z"/>
	</g>
</g>
<path fill="#231F20" d="M247.001,2.486l3.54,6.138c0.494,0.856,1.23,2.328,1.642,3.28c0.02,0.11,0.067,0.437,0.067,1.078
	c0,2.895-2.355,5.25-5.25,5.25s-5.25-2.355-5.25-5.25c0-0.64,0.047-0.967,0.067-1.077c0.413-0.953,1.148-2.425,1.642-3.281
	L247.001,2.486 M247,0c-0.362,0-0.725,0.238-0.999,0.714l-4.058,7.035c-0.549,0.953-1.351,2.561-1.781,3.573
	c0,0-0.163,0.383-0.163,1.659c0,3.866,3.135,7,7,7c3.866,0,7-3.134,7-7c0-1.276-0.162-1.659-0.162-1.659
	c-0.43-1.013-1.231-2.621-1.781-3.574L248,0.714C247.725,0.238,247.362,0,247,0L247,0z"/>
<path fill="#231F20" d="M280,14V5c0-2.762-2.238-5-5-5s-5,2.238-5,5v9c0,2.467,1.792,4.505,4.143,4.914
	c-0.003,0.03-0.018,0.056-0.018,0.086v6c0,0.044,0.019,0.083,0.025,0.125H271c-0.483,0-0.875,0.392-0.875,0.875
	s0.392,0.875,0.875,0.875h8c0.483,0,0.875-0.392,0.875-0.875s-0.392-0.875-0.875-0.875h-3.15c0.006-0.042,0.025-0.081,0.025-0.125
	v-6c0-0.031-0.015-0.057-0.018-0.086C278.208,18.505,280,16.467,280,14z M278.25,14c0,1.792-1.458,3.25-3.25,3.25
	s-3.25-1.458-3.25-3.25V5c0-1.792,1.458-3.25,3.25-3.25s3.25,1.458,3.25,3.25V14z"/>
<path fill="#231F20" d="M311.625,5.163V2.875c0-0.483-0.392-0.875-0.875-0.875s-0.875,0.392-0.875,0.875v2.288
	c-1.062,0.18-1.875,1.1-1.875,2.212v7c0,1.112,0.813,2.032,1.875,2.212v5.288c0,1.723-1.402,3.125-3.125,3.125
	s-3.125-1.402-3.125-3.125v-7.288c1.062-0.18,1.875-1.1,1.875-2.212v-7c0-1.112-0.813-2.032-1.875-2.212V0.875
	c0-0.483-0.392-0.875-0.875-0.875s-0.875,0.392-0.875,0.875v2.288c-1.062,0.18-1.875,1.1-1.875,2.212v7
	c0,1.112,0.813,2.032,1.875,2.212v7.288c0,2.688,2.187,4.875,4.875,4.875s4.875-2.187,4.875-4.875v-5.288
	c1.062-0.18,1.875-1.1,1.875-2.212v-7C313.5,6.263,312.687,5.343,311.625,5.163z M302.25,4.875h1c0.275,0,0.5,0.225,0.5,0.5v2.5h-2
	v-2.5C301.75,5.1,301.975,4.875,302.25,4.875z M311.75,14.375c0,0.275-0.225,0.5-0.5,0.5h-1c-0.275,0-0.5-0.225-0.5-0.5v-7
	c0-0.275,0.225-0.5,0.5-0.5h1c0.275,0,0.5,0.225,0.5,0.5V14.375z"/>
<g>
	<g>
		<path fill="#231F20" d="M77,1.75c0.133,0,0.25,0.117,0.25,0.25v22c0,0.133-0.117,0.25-0.25,0.25H62c-0.133,0-0.25-0.117-0.25-0.25
			V2c0-0.133,0.117-0.25,0.25-0.25H77 M77,0H62c-1.1,0-2,0.9-2,2v22c0,1.1,0.9,2,2,2h15c1.1,0,2-0.9,2-2V2C79,0.9,78.1,0,77,0L77,0z
			"/>
	</g>
	<g>
		<path fill="#231F20" d="M75,4v16H64V4H75 M76,3H63v18h13V3L76,3z"/>
	</g>
</g>
<g>
	<g>
		<path fill="#231F20" d="M343,1.75c6.203,0,11.25,5.047,11.25,11.25S349.203,24.25,343,24.25S331.75,19.203,331.75,13
			S336.797,1.75,343,1.75 M343,0c-7.18,0-13,5.82-13,13s5.82,13,13,13s13-5.82,13-13S350.18,0,343,0L343,0z"/>
	</g>
	<g>
		<path fill="#231F20" d="M343,9c2.206,0,4,1.794,4,4s-1.794,4-4,4s-4-1.794-4-4S340.794,9,343,9 M343,8c-2.762,0-5,2.239-5,5
			s2.238,5,5,5s5-2.239,5-5S345.762,8,343,8L343,8z"/>
	</g>
	<g>
		<path fill="#231F20" d="M343,11.5c0.827,0,1.5,0.673,1.5,1.5s-0.673,1.5-1.5,1.5s-1.5-0.673-1.5-1.5S342.173,11.5,343,11.5
			 M343,10.5c-1.381,0-2.5,1.119-2.5,2.5s1.119,2.5,2.5,2.5s2.5-1.119,2.5-2.5S344.381,10.5,343,10.5L343,10.5z"/>
	</g>
</g>
<g>
	<g>
		<path fill="#231F20" d="M386.867,21.75h-12.084c-0.483,0-0.875-0.392-0.875-0.875v-11.5c0-0.483,0.392-0.875,0.875-0.875h16.334
			c0.483,0,0.875,0.392,0.875,0.875v7.25C391.992,19.451,389.693,21.75,386.867,21.75z M375.658,20h11.209
			c1.861,0,3.375-1.514,3.375-3.375V10.25h-14.584V20z"/>
	</g>
	<path fill="#231F20" d="M391.504,0h-30.629C360.392,0,360,0.392,360,0.875v9.272c0,0.483,0.392,0.875,0.875,0.875h3.762v3.671
		c0,3.891,3.165,7.057,7.056,7.057c0.483,0,0.875-0.392,0.875-0.875V7.159h18.937c1.974,0,3.58-1.605,3.58-3.579
		S393.478,0,391.504,0z M361.75,1.75h1.482v7.522h-1.482V1.75z M391.504,5.409h-19.812c-0.483,0-0.875,0.392-0.875,0.875v13.644
		c-2.511-0.418-4.431-2.606-4.431-5.234v-4.546c0-0.483-0.392-0.875-0.875-0.875h-1.279V1.75h27.271c1.009,0,1.83,0.821,1.83,1.83
		S392.513,5.409,391.504,5.409z"/>
</g>
<g>
	<g>
		<path fill="#231F20" d="M452.625,27.75h-19.75c-0.483,0-0.875-0.392-0.875-0.875v-16c0-0.483,0.392-0.875,0.875-0.875h24
			c0.483,0,0.875,0.392,0.875,0.875v11.75C457.75,25.451,455.451,27.75,452.625,27.75z M433.75,26h18.875
			c1.861,0,3.375-1.514,3.375-3.375V11.75h-22.25V26z"/>
	</g>
	<g>
		<path fill="#231F20" d="M424.875,23.75h-4c-0.483,0-0.875-0.392-0.875-0.875v-10c0-0.483,0.392-0.875,0.875-0.875h4
			c0.292,0,0.566,0.146,0.728,0.39L426.677,14h3.198c0.483,0,0.875,0.392,0.875,0.875v6c0,0.483-0.392,0.875-0.875,0.875h-3.199
			l-1.073,1.61C425.441,23.604,425.167,23.75,424.875,23.75z M421.75,22h2.657l1.073-1.61c0.162-0.244,0.436-0.39,0.728-0.39H429
			v-4.25h-2.791c-0.292,0-0.566-0.146-0.728-0.39l-1.074-1.611h-2.657V22z"/>
	</g>
	<g>
		
			<path fill="none" stroke="#231F20" stroke-width="1.75" stroke-linecap="round" stroke-linejoin="round" stroke-miterlimit="10" d="
			M449.875,0.875"/>
	</g>
	<g>
		<path fill="#231F20" d="M454.875,8.75h-4c-0.275,0-0.535-0.13-0.7-0.35l-2.737-3.65h-6.688v3.125c0,0.483-0.392,0.875-0.875,0.875
			h-3c-0.483,0-0.875-0.392-0.875-0.875v-7C436,0.392,436.392,0,436.875,0h13c0.282,0,0.548,0.136,0.712,0.366l5,7
			c0.19,0.267,0.216,0.618,0.066,0.909C455.503,8.567,455.203,8.75,454.875,8.75z M451.312,7h1.862l-3.75-5.25H437.75V7H439V3.875
			C439,3.392,439.392,3,439.875,3h8c0.275,0,0.535,0.13,0.7,0.35L451.312,7z"/>
	</g>
</g>
<g>
	<g>
		<path fill="#231F20" d="M485.875,6.75h-5c-0.483,0-0.875-0.392-0.875-0.875v-5C480,0.392,480.392,0,480.875,0h5
			c0.483,0,0.875,0.392,0.875,0.875v5C486.75,6.358,486.358,6.75,485.875,6.75z M481.75,5H485V1.75h-3.25V5z"/>
	</g>
	<g>
		<path fill="#231F20" d="M495.875,6.75h-5c-0.483,0-0.875-0.392-0.875-0.875v-5C490,0.392,490.392,0,490.875,0h5
			c0.483,0,0.875,0.392,0.875,0.875v5C496.75,6.358,496.358,6.75,495.875,6.75z M491.75,5H495V1.75h-3.25V5z"/>
	</g>
	<g>
		<path fill="#231F20" d="M505.875,6.75h-5c-0.483,0-0.875-0.392-0.875-0.875v-5C500,0.392,500.392,0,500.875,0h5
			c0.483,0,0.875,0.392,0.875,0.875v5C506.75,6.358,506.358,6.75,505.875,6.75z M501.75,5H505V1.75h-3.25V5z"/>
	</g>
	<g>
		<path fill="#231F20" d="M485.875,16.75h-5c-0.483,0-0.875-0.392-0.875-0.875v-5c0-0.483,0.392-0.875,0.875-0.875h5
			c0.483,0,0.875,0.392,0.875,0.875v5C486.75,16.358,486.358,16.75,485.875,16.75z M481.75,15H485v-3.25h-3.25V15z"/>
	</g>
	<g>
		<path fill="#231F20" d="M495.875,16.75h-5c-0.483,0-0.875-0.392-0.875-0.875v-5c0-0.483,0.392-0.875,0.875-0.875h5
			c0.483,0,0.875,0.392,0.875,0.875v5C496.75,16.358,496.358,16.75,495.875,16.75z M491.75,15H495v-3.25h-3.25V15z"/>
	</g>
	<g>
		<path fill="#231F20" d="M505.875,16.75h-5c-0.483,0-0.875-0.392-0.875-0.875v-5c0-0.483,0.392-0.875,0.875-0.875h5
			c0.483,0,0.875,0.392,0.875,0.875v5C506.75,16.358,506.358,16.75,505.875,16.75z M501.75,15H505v-3.25h-3.25V15z"/>
	</g>
	<g>
		<path fill="#231F20" d="M485.875,26.75h-5c-0.483,0-0.875-0.392-0.875-0.875v-5c0-0.483,0.392-0.875,0.875-0.875h5
			c0.483,0,0.875,0.392,0.875,0.875v5C486.75,26.358,486.358,26.75,485.875,26.75z M481.75,25H485v-3.25h-3.25V25z"/>
	</g>
	<g>
		<path fill="#231F20" d="M495.875,26.75h-5c-0.483,0-0.875-0.392-0.875-0.875v-5c0-0.483,0.392-0.875,0.875-0.875h5
			c0.483,0,0.875,0.392,0.875,0.875v5C496.75,26.358,496.358,26.75,495.875,26.75z M491.75,25H495v-3.25h-3.25V25z"/>
	</g>
	<g>
		<path fill="#231F20" d="M505.875,26.75h-5c-0.483,0-0.875-0.392-0.875-0.875v-5c0-0.483,0.392-0.875,0.875-0.875h5
			c0.483,0,0.875,0.392,0.875,0.875v5C506.75,26.358,506.358,26.75,505.875,26.75z M501.75,25H505v-3.25h-3.25V25z"/>
	</g>
</g>
<g>
	<g>
		<g>
			<path fill="#231F20" d="M515.199,4.2c0,0.55-0.45,1-1,1H511c-0.55,0-1-0.45-1-1V1c0-0.55,0.45-1,1-1h3.199c0.55,0,1,0.45,1,1V4.2
				z"/>
		</g>
		<g>
			<path fill="#231F20" d="M525.6,4.2c0,0.55-0.45,1-1,1H521.4c-0.55,0-1-0.45-1-1V1c0-0.55,0.45-1,1-1h3.199c0.55,0,1,0.45,1,1V4.2
				z"/>
		</g>
		<g>
			<path fill="#231F20" d="M536,4.2c0,0.55-0.45,1-1,1h-3.2c-0.55,0-1-0.45-1-1V1c0-0.55,0.45-1,1-1h3.2c0.55,0,1,0.45,1,1V4.2z"/>
		</g>
		<g>
			<path fill="#231F20" d="M515.199,14.6c0,0.55-0.45,1-1,1H511c-0.55,0-1-0.45-1-1v-3.2c0-0.55,0.45-1,1-1h3.199c0.55,0,1,0.45,1,1
				V14.6z"/>
		</g>
		<g>
			<path fill="#231F20" d="M525.6,14.6c0,0.55-0.45,1-1,1H521.4c-0.55,0-1-0.45-1-1v-3.2c0-0.55,0.45-1,1-1h3.199c0.55,0,1,0.45,1,1
				V14.6z"/>
		</g>
		<g>
			<path fill="#231F20" d="M536,14.6c0,0.55-0.45,1-1,1h-3.2c-0.55,0-1-0.45-1-1v-3.2c0-0.55,0.45-1,1-1h3.2c0.55,0,1,0.45,1,1V14.6
				z"/>
		</g>
		<g>
			<path fill="#231F20" d="M515.199,25c0,0.55-0.45,1-1,1H511c-0.55,0-1-0.45-1-1v-3.2c0-0.55,0.45-1,1-1h3.199c0.55,0,1,0.45,1,1
				V25z"/>
		</g>
		<g>
			<path fill="#231F20" d="M525.6,25c0,0.55-0.45,1-1,1H521.4c-0.55,0-1-0.45-1-1v-3.2c0-0.55,0.45-1,1-1h3.199c0.55,0,1,0.45,1,1
				V25z"/>
		</g>
		<g>
			<path fill="#231F20" d="M536,25c0,0.55-0.45,1-1,1h-3.2c-0.55,0-1-0.45-1-1v-3.2c0-0.55,0.45-1,1-1h3.2c0.55,0,1,0.45,1,1V25z"/>
		</g>
	</g>
</g>
<g>
	<g>
		<path fill="#231F20" d="M563.875,13.25c-0.482,0-0.875-0.392-0.875-0.875v-1c0-5.307-4.317-9.625-9.625-9.625
			c-5.307,0-9.625,4.318-9.625,9.625v1c0,0.483-0.391,0.875-0.875,0.875c-0.482,0-0.875-0.392-0.875-0.875v-1
			C542,5.103,547.104,0,553.375,0c6.272,0,11.375,5.103,11.375,11.375v1C564.75,12.858,564.359,13.25,563.875,13.25z"/>
	</g>
	<g>
		<path fill="#231F20" d="M563.875,26.25c-1.585,0-2.875-1.29-2.875-2.875v-6c0-1.585,1.29-2.875,2.875-2.875
			c1.586,0,2.875,1.29,2.875,2.875v6C566.75,24.96,565.461,26.25,563.875,26.25z M563.875,16.25c-0.619,0-1.125,0.505-1.125,1.125v6
			c0,0.62,0.506,1.125,1.125,1.125c0.621,0,1.125-0.505,1.125-1.125v-6C565,16.755,564.496,16.25,563.875,16.25z"/>
	</g>
	<g>
		<path fill="#231F20" d="M542.875,26.25c-1.585,0-2.875-1.29-2.875-2.875v-6c0-1.585,1.29-2.875,2.875-2.875
			c1.586,0,2.875,1.29,2.875,2.875v6C545.75,24.96,544.461,26.25,542.875,26.25z M542.875,16.25c-0.619,0-1.125,0.505-1.125,1.125v6
			c0,0.62,0.506,1.125,1.125,1.125c0.621,0,1.125-0.505,1.125-1.125v-6C544,16.755,543.496,16.25,542.875,16.25z"/>
	</g>
</g>
<g>
	<path fill="#231F20" d="M587.202,0.109l-6.8-0.001c-1.586,0-2.876,1.29-2.876,2.874l-0.001,0.802c0,1.585,1.29,2.875,2.875,2.875
		l5.238,0V23c0,0.276,0.224,0.5,0.5,0.5s0.5-0.224,0.5-0.5V6.659h0.563c1.585,0,2.875-1.29,2.875-2.875v-0.8
		C590.077,1.398,588.787,0.109,587.202,0.109z M588.327,3.784c0,0.62-0.505,1.125-1.125,1.125l-6.802,0
		c-0.62,0-1.125-0.505-1.125-1.124l0.001-0.802c0-0.62,0.505-1.125,1.126-1.125l6.8,0.001c0.62,0,1.125,0.505,1.125,1.125V3.784z"/>
	<path fill="#231F20" d="M574.424,0c-0.619,0-1.814,0.355-2.719,0.808C570.766,1.279,570,2.433,570,3.382
		c0,0.949,0.766,2.103,1.705,2.574c0.904,0.453,2.1,0.808,2.717,0.808c0.846,0,1.302-1.474,1.302-2.862V2.862
		C575.724,1.476,575.268,0,574.424,0z"/>
	<path fill="#231F20" d="M604.6,0.108l-6.801,0.001c-1.585,0-2.875,1.29-2.875,2.875v0.8c0,1.585,1.29,2.875,2.875,2.875h0.564V23
		c0,0.276,0.224,0.5,0.5,0.5s0.5-0.224,0.5-0.5V6.659l5.237,0c1.585,0,2.874-1.29,2.874-2.875V2.983
		C607.475,1.397,606.185,0.108,604.6,0.108z M605.725,3.784c0,0.62-0.504,1.125-1.124,1.125l-6.802,0
		c-0.62,0-1.125-0.505-1.125-1.125v-0.8c0-0.62,0.505-1.125,1.125-1.125l6.801-0.001c0.62,0,1.125,0.505,1.125,1.125V3.784z"/>
	<path fill="#231F20" d="M613.295,0.808C612.391,0.355,611.195,0,610.578,0c-0.846,0-1.301,1.476-1.301,2.862v1.041
		c0,1.388,0.457,2.862,1.301,2.862c0.619,0,1.814-0.355,2.718-0.808C614.236,5.485,615,4.331,615,3.382
		C615,2.433,614.236,1.279,613.295,0.808z"/>
</g>
<g>
	<path fill="#231F20" d="M670.875,14.415c1.654,0,3-1.346,3-3s-1.346-3-3-3s-3,1.346-3,3S669.221,14.415,670.875,14.415z
		 M670.875,9.415c1.104,0,2,0.897,2,2s-0.896,2-2,2s-2-0.897-2-2S669.771,9.415,670.875,9.415z"/>
	<path fill="#231F20" d="M703.725,10.112c-0.443-0.193-0.959,0.011-1.152,0.454c-1.133,2.609-2.52,4.089-4.122,4.397
		c-2.296,0.443-4.437-1.648-4.448-1.66C680.287-0.737,671.299-0.079,670.314,0.04C664.813,0.079,660,5.377,660,11.415v0.875h3.557
		c0.436,3.655,3.549,6.5,7.318,6.5c4.066,0,7.375-3.309,7.375-7.375s-3.309-7.375-7.375-7.375c-3.77,0-6.883,2.845-7.318,6.5h-1.762
		c0.432-4.296,3.959-8.75,8.58-8.75l0.132-0.01c0.085-0.013,8.733-1.083,22.25,12.753c0.101,0.102,2.277,2.242,5.04,2.242
		c0.316,0,0.641-0.028,0.972-0.091c2.209-0.419,4.028-2.244,5.409-5.421C704.371,10.82,704.168,10.305,703.725,10.112z
		 M670.875,5.79c3.102,0,5.625,2.523,5.625,5.625s-2.523,5.625-5.625,5.625s-5.625-2.523-5.625-5.625S667.773,5.79,670.875,5.79z"/>
</g>
<g>
	<path fill="none" stroke="#231F20" stroke-width="1.75" stroke-linecap="round" stroke-miterlimit="10" d="M138,61.038"/>
</g>
<g>
	<g>
		<path fill="none" stroke="#F6921E" stroke-width="1.75" stroke-linecap="round" stroke-miterlimit="10" d="M94.272,62.146"/>
	</g>
</g>
<path fill="#231F20" d="M644.572,5.866l-6.061-4.986c-0.244-0.182-1.516-1.078-2.686-0.84c-1.897,0.384-2.418,2.232-2.429,3.166
	l0.001,3.251c0,0.078,0.025,0.147,0.044,0.219c-0.673,0.318-1.144,1.006-1.144,1.808v3.104c-1.361,0.711-2.299,2.12-2.299,3.762
	c0,2.359,1.912,4.272,4.273,4.272c2.358,0,4.271-1.913,4.271-4.272c0-1.643-0.937-3.052-2.299-3.763V8.484
	c0-0.801-0.47-1.488-1.143-1.808c0.02-0.072,0.045-0.142,0.045-0.22l-0.001-3.242c0-0.013,0.025-1.258,1.026-1.46
	c0.251-0.049,0.895,0.236,1.258,0.502l6.008,4.943c0.059,0.052,1.419,1.284,1.419,3.452v4.926c0.002,0.788-0.213,3.203-1.253,3.982
	l-4.127,3.669c-0.342,0.252-1.724,1.419-1.617,3.773c0.021,0.469,0.408,0.835,0.873,0.835c0.014,0,0.027,0,0.041-0.001
	c0.482-0.021,0.855-0.431,0.834-0.914c-0.072-1.59,0.861-2.254,0.891-2.274c0.037-0.024,0.073-0.051,0.107-0.082l4.103-3.652
	c1.855-1.383,1.899-4.941,1.898-5.34v-4.924C646.608,7.66,644.671,5.951,644.572,5.866z M635.246,14.121c0,0.55-0.438,1-0.975,1
	c-0.535,0-0.973-0.45-0.973-1V8.484c0-0.55,0.438-1,0.973-1c0.536,0,0.975,0.45,0.975,1V14.121z"/>
<g>
	<g>
		<path fill="#F35429" d="M31,80.75c0.133,0,0.25,0.117,0.25,0.25v1c0,0.133-0.117,0.25-0.25,0.25H2c-0.133,0-0.25-0.117-0.25-0.25
			v-1c0-0.133,0.117-0.25,0.25-0.25H31 M31,79H2c-1.1,0-2,0.9-2,2v1c0,1.1,0.9,2,2,2h29c1.1,0,2-0.9,2-2v-1C33,79.9,32.1,79,31,79
			L31,79z"/>
	</g>
	<g>
		<path fill="#F35429" d="M29,61.75c0.133,0,0.25,0.117,0.25,0.25v14c0,0.133-0.117,0.25-0.25,0.25H4c-0.133,0-0.25-0.117-0.25-0.25
			V62c0-0.133,0.117-0.25,0.25-0.25H29 M29,60H4c-1.1,0-2,0.9-2,2v14c0,1.1,0.9,2,2,2h25c1.1,0,2-0.9,2-2V62C31,60.9,30.1,60,29,60
			L29,60z"/>
	</g>
</g>
<g>
	<g>
		<path fill="#F35429" d="M103.875,80.75h-12c-1.034,0-1.875-0.841-1.875-1.875v-7C90,70.841,90.841,70,91.875,70
			C91.941,70,92,69.941,92,69.875v-3c0-0.066-0.059-0.125-0.125-0.125c-1.034,0-1.875-0.841-1.875-1.875v-3
			C90,60.841,90.841,60,91.875,60h9c0.777,0,1.776,0.414,2.326,0.963l1.586,1.586c0.549,0.549,0.963,1.549,0.963,2.326v14
			C105.75,79.909,104.909,80.75,103.875,80.75z M91.875,61.75c-0.066,0-0.125,0.059-0.125,0.125v3c0,0.066,0.059,0.125,0.125,0.125
			c1.034,0,1.875,0.841,1.875,1.875v3c0,1.034-0.841,1.875-1.875,1.875c-0.066,0-0.125,0.059-0.125,0.125v7
			c0,0.066,0.059,0.125,0.125,0.125h12c0.066,0,0.125-0.059,0.125-0.125v-14c0-0.316-0.228-0.865-0.451-1.088l-1.586-1.586
			c-0.223-0.223-0.772-0.451-1.088-0.451H91.875z"/>
	</g>
	<g>
		<path fill="#F35429" d="M102.875,75.875c0,1.1-0.9,2-2,2h-6c-1.1,0-2-0.9-2-2v-2c0-1.1,0.9-2,2-2h6c1.1,0,2,0.9,2,2V75.875z"/>
	</g>
	<g>
		<path fill="#F35429" d="M100.322,63.77c-0.246-0.492-0.648-0.492-0.895,0l-1.105,2.211c-0.246,0.492,0.003,0.895,0.553,0.895h2
			c0.55,0,0.799-0.402,0.553-0.895L100.322,63.77z"/>
	</g>
</g>
<path fill="#F35429" d="M152,60h-30c-1.1,0-2,0.9-2,2v17c0,1.1,0.9,2,2,2h13v3.125h-7c-0.483,0-0.875,0.392-0.875,0.875
	s0.392,0.875,0.875,0.875h18c0.483,0,0.875-0.392,0.875-0.875s-0.392-0.875-0.875-0.875h-7V81h13c1.1,0,2-0.9,2-2V62
	C154,60.9,153.1,60,152,60z M152.25,79c0,0.133-0.117,0.25-0.25,0.25h-30c-0.133,0-0.25-0.117-0.25-0.25V62
	c0-0.133,0.117-0.25,0.25-0.25h30c0.133,0,0.25,0.117,0.25,0.25V79z"/>
<g>
	<path fill="#F35429" d="M215,60h-33c-1.1,0-2,0.9-2,2v12c0,1.1,0.9,2,2,2h1v1c0,0.55,0.45,1,1,1h1c0.55,0,1-0.45,1-1v-1h25v1
		c0,0.55,0.45,1,1,1h1c0.55,0,1-0.45,1-1v-1h1c1.1,0,2-0.9,2-2V62C217,60.9,216.1,60,215,60z M215.25,74
		c0,0.133-0.117,0.25-0.25,0.25h-33c-0.133,0-0.25-0.117-0.25-0.25V62c0-0.133,0.117-0.25,0.25-0.25h33
		c0.133,0,0.25,0.117,0.25,0.25V74z"/>
	<path fill="#F35429" d="M208,63.126c-2.688,0-4.875,2.187-4.875,4.875s2.187,4.875,4.875,4.875s4.875-2.187,4.875-4.875
		S210.688,63.126,208,63.126z M208,71.126c-1.723,0-3.125-1.402-3.125-3.125s1.402-3.125,3.125-3.125s3.125,1.402,3.125,3.125
		S209.723,71.126,208,71.126z"/>
	<path fill="#F35429" d="M192,64.5h-7c-0.276,0-0.5,0.224-0.5,0.5s0.224,0.5,0.5,0.5h7c0.276,0,0.5-0.224,0.5-0.5
		S192.276,64.5,192,64.5z"/>
	<path fill="#F35429" d="M192,67.5h-7c-0.276,0-0.5,0.224-0.5,0.5s0.224,0.5,0.5,0.5h7c0.276,0,0.5-0.224,0.5-0.5
		S192.276,67.5,192,67.5z"/>
	<path fill="#F35429" d="M192,70.5h-7c-0.276,0-0.5,0.224-0.5,0.5s0.224,0.5,0.5,0.5h7c0.276,0,0.5-0.224,0.5-0.5
		S192.276,70.5,192,70.5z"/>
</g>
<path fill="#F35429" d="M247.001,62.486l3.54,6.138c0.494,0.856,1.23,2.328,1.642,3.28c0.02,0.11,0.067,0.437,0.067,1.078
	c0,2.895-2.355,5.25-5.25,5.25s-5.25-2.355-5.25-5.25c0-0.64,0.047-0.967,0.067-1.077c0.413-0.953,1.148-2.425,1.642-3.281
	L247.001,62.486 M247,60c-0.362,0-0.725,0.238-0.999,0.714l-4.058,7.035c-0.549,0.953-1.351,2.561-1.781,3.573
	c0,0-0.163,0.383-0.163,1.659c0,3.866,3.135,7,7,7c3.866,0,7-3.134,7-7c0-1.276-0.162-1.659-0.162-1.659
	c-0.43-1.013-1.231-2.621-1.781-3.574L248,60.714C247.725,60.238,247.362,60,247,60L247,60z"/>
<path fill="#F35429" d="M280,74v-9c0-2.762-2.238-5-5-5s-5,2.238-5,5v9c0,2.467,1.792,4.505,4.143,4.914
	c-0.003,0.03-0.018,0.056-0.018,0.086v6c0,0.044,0.019,0.083,0.025,0.125H271c-0.483,0-0.875,0.392-0.875,0.875
	s0.392,0.875,0.875,0.875h8c0.483,0,0.875-0.392,0.875-0.875s-0.392-0.875-0.875-0.875h-3.15c0.006-0.042,0.025-0.081,0.025-0.125
	v-6c0-0.031-0.015-0.057-0.018-0.086C278.208,78.505,280,76.467,280,74z M278.25,74c0,1.792-1.458,3.25-3.25,3.25
	s-3.25-1.458-3.25-3.25v-9c0-1.792,1.458-3.25,3.25-3.25s3.25,1.458,3.25,3.25V74z"/>
<path fill="#F35429" d="M311.625,65.163v-2.288c0-0.483-0.392-0.875-0.875-0.875s-0.875,0.392-0.875,0.875v2.288
	c-1.062,0.18-1.875,1.1-1.875,2.212v7c0,1.112,0.813,2.032,1.875,2.212v5.288c0,1.723-1.402,3.125-3.125,3.125
	s-3.125-1.402-3.125-3.125v-7.288c1.062-0.18,1.875-1.1,1.875-2.212v-7c0-1.112-0.813-2.032-1.875-2.212v-2.288
	c0-0.483-0.392-0.875-0.875-0.875s-0.875,0.392-0.875,0.875v2.288c-1.062,0.18-1.875,1.1-1.875,2.212v7
	c0,1.112,0.813,2.032,1.875,2.212v7.288c0,2.688,2.187,4.875,4.875,4.875s4.875-2.187,4.875-4.875v-5.288
	c1.062-0.18,1.875-1.1,1.875-2.212v-7C313.5,66.263,312.687,65.343,311.625,65.163z M302.25,64.875h1c0.275,0,0.5,0.225,0.5,0.5v2.5
	h-2v-2.5C301.75,65.1,301.975,64.875,302.25,64.875z M311.75,74.375c0,0.275-0.225,0.5-0.5,0.5h-1c-0.275,0-0.5-0.225-0.5-0.5v-7
	c0-0.275,0.225-0.5,0.5-0.5h1c0.275,0,0.5,0.225,0.5,0.5V74.375z"/>
<g>
	<g>
		<path fill="#F35429" d="M77,61.75c0.133,0,0.25,0.117,0.25,0.25v22c0,0.133-0.117,0.25-0.25,0.25H62
			c-0.133,0-0.25-0.117-0.25-0.25V62c0-0.133,0.117-0.25,0.25-0.25H77 M77,60H62c-1.1,0-2,0.9-2,2v22c0,1.1,0.9,2,2,2h15
			c1.1,0,2-0.9,2-2V62C79,60.9,78.1,60,77,60L77,60z"/>
	</g>
	<g>
		<path fill="#F35429" d="M75,64v16H64V64H75 M76,63H63v18h13V63L76,63z"/>
	</g>
</g>
<g>
	<g>
		<path fill="#F35429" d="M343,61.75c6.203,0,11.25,5.047,11.25,11.25S349.203,84.25,343,84.25S331.75,79.203,331.75,73
			S336.797,61.75,343,61.75 M343,60c-7.18,0-13,5.82-13,13s5.82,13,13,13s13-5.82,13-13S350.18,60,343,60L343,60z"/>
	</g>
	<g>
		<path fill="#F35429" d="M343,69c2.206,0,4,1.794,4,4s-1.794,4-4,4s-4-1.794-4-4S340.794,69,343,69 M343,68c-2.762,0-5,2.239-5,5
			s2.238,5,5,5s5-2.239,5-5S345.762,68,343,68L343,68z"/>
	</g>
	<g>
		<path fill="#F35429" d="M343,71.5c0.827,0,1.5,0.673,1.5,1.5s-0.673,1.5-1.5,1.5s-1.5-0.673-1.5-1.5S342.173,71.5,343,71.5
			 M343,70.5c-1.381,0-2.5,1.119-2.5,2.5s1.119,2.5,2.5,2.5s2.5-1.119,2.5-2.5S344.381,70.5,343,70.5L343,70.5z"/>
	</g>
</g>
<g>
	<g>
		<path fill="#F35429" d="M386.867,81.75h-12.084c-0.483,0-0.875-0.392-0.875-0.875v-11.5c0-0.483,0.392-0.875,0.875-0.875h16.334
			c0.483,0,0.875,0.392,0.875,0.875v7.25C391.992,79.451,389.693,81.75,386.867,81.75z M375.658,80h11.209
			c1.861,0,3.375-1.514,3.375-3.375V70.25h-14.584V80z"/>
	</g>
	<path fill="#F35429" d="M391.504,60h-30.629c-0.483,0-0.875,0.392-0.875,0.875v9.272c0,0.483,0.392,0.875,0.875,0.875h3.762v3.671
		c0,3.891,3.165,7.057,7.056,7.057c0.483,0,0.875-0.392,0.875-0.875V67.159h18.937c1.974,0,3.58-1.605,3.58-3.579
		S393.478,60,391.504,60z M361.75,61.75h1.482v7.522h-1.482V61.75z M391.504,65.409h-19.812c-0.483,0-0.875,0.392-0.875,0.875
		v13.644c-2.511-0.418-4.431-2.606-4.431-5.234v-4.546c0-0.483-0.392-0.875-0.875-0.875h-1.279V61.75h27.271
		c1.009,0,1.83,0.821,1.83,1.83S392.513,65.409,391.504,65.409z"/>
</g>
<g>
	<g>
		<path fill="#F35429" d="M452.625,87.75h-19.75c-0.483,0-0.875-0.392-0.875-0.875v-16c0-0.483,0.392-0.875,0.875-0.875h24
			c0.483,0,0.875,0.392,0.875,0.875v11.75C457.75,85.451,455.451,87.75,452.625,87.75z M433.75,86h18.875
			c1.861,0,3.375-1.514,3.375-3.375V71.75h-22.25V86z"/>
	</g>
	<g>
		<path fill="#F35429" d="M424.875,83.75h-4c-0.483,0-0.875-0.392-0.875-0.875v-10c0-0.483,0.392-0.875,0.875-0.875h4
			c0.292,0,0.566,0.146,0.728,0.39L426.677,74h3.198c0.483,0,0.875,0.392,0.875,0.875v6c0,0.483-0.392,0.875-0.875,0.875h-3.199
			l-1.073,1.61C425.441,83.604,425.167,83.75,424.875,83.75z M421.75,82h2.657l1.073-1.61c0.162-0.244,0.436-0.39,0.728-0.39H429
			v-4.25h-2.791c-0.292,0-0.566-0.146-0.728-0.39l-1.074-1.611h-2.657V82z"/>
	</g>
	<g>
		
			<path fill="#F35429" stroke="#231F20" stroke-width="1.75" stroke-linecap="round" stroke-linejoin="round" stroke-miterlimit="10" d="
			M449.875,60.875"/>
	</g>
	<g>
		<path fill="#F35429" d="M454.875,68.75h-4c-0.275,0-0.535-0.13-0.7-0.35l-2.737-3.65h-6.688v3.125
			c0,0.483-0.392,0.875-0.875,0.875h-3c-0.483,0-0.875-0.392-0.875-0.875v-7c0-0.483,0.392-0.875,0.875-0.875h13
			c0.282,0,0.548,0.136,0.712,0.366l5,7c0.19,0.267,0.216,0.618,0.066,0.909C455.503,68.567,455.203,68.75,454.875,68.75z
			 M451.312,67h1.862l-3.75-5.25H437.75V67H439v-3.125c0-0.483,0.392-0.875,0.875-0.875h8c0.275,0,0.535,0.13,0.7,0.35L451.312,67z"
			/>
	</g>
</g>
<g>
	<g>
		<path fill="#F35429" d="M485.875,66.75h-5c-0.483,0-0.875-0.392-0.875-0.875v-5c0-0.483,0.392-0.875,0.875-0.875h5
			c0.483,0,0.875,0.392,0.875,0.875v5C486.75,66.358,486.358,66.75,485.875,66.75z M481.75,65H485v-3.25h-3.25V65z"/>
	</g>
	<g>
		<path fill="#F35429" d="M495.875,66.75h-5c-0.483,0-0.875-0.392-0.875-0.875v-5c0-0.483,0.392-0.875,0.875-0.875h5
			c0.483,0,0.875,0.392,0.875,0.875v5C496.75,66.358,496.358,66.75,495.875,66.75z M491.75,65H495v-3.25h-3.25V65z"/>
	</g>
	<g>
		<path fill="#F35429" d="M505.875,66.75h-5c-0.483,0-0.875-0.392-0.875-0.875v-5c0-0.483,0.392-0.875,0.875-0.875h5
			c0.483,0,0.875,0.392,0.875,0.875v5C506.75,66.358,506.358,66.75,505.875,66.75z M501.75,65H505v-3.25h-3.25V65z"/>
	</g>
	<g>
		<path fill="#F35429" d="M485.875,76.75h-5c-0.483,0-0.875-0.392-0.875-0.875v-5c0-0.483,0.392-0.875,0.875-0.875h5
			c0.483,0,0.875,0.392,0.875,0.875v5C486.75,76.358,486.358,76.75,485.875,76.75z M481.75,75H485v-3.25h-3.25V75z"/>
	</g>
	<g>
		<path fill="#F35429" d="M495.875,76.75h-5c-0.483,0-0.875-0.392-0.875-0.875v-5c0-0.483,0.392-0.875,0.875-0.875h5
			c0.483,0,0.875,0.392,0.875,0.875v5C496.75,76.358,496.358,76.75,495.875,76.75z M491.75,75H495v-3.25h-3.25V75z"/>
	</g>
	<g>
		<path fill="#F35429" d="M505.875,76.75h-5c-0.483,0-0.875-0.392-0.875-0.875v-5c0-0.483,0.392-0.875,0.875-0.875h5
			c0.483,0,0.875,0.392,0.875,0.875v5C506.75,76.358,506.358,76.75,505.875,76.75z M501.75,75H505v-3.25h-3.25V75z"/>
	</g>
	<g>
		<path fill="#F35429" d="M485.875,86.75h-5c-0.483,0-0.875-0.392-0.875-0.875v-5c0-0.483,0.392-0.875,0.875-0.875h5
			c0.483,0,0.875,0.392,0.875,0.875v5C486.75,86.358,486.358,86.75,485.875,86.75z M481.75,85H485v-3.25h-3.25V85z"/>
	</g>
	<g>
		<path fill="#F35429" d="M495.875,86.75h-5c-0.483,0-0.875-0.392-0.875-0.875v-5c0-0.483,0.392-0.875,0.875-0.875h5
			c0.483,0,0.875,0.392,0.875,0.875v5C496.75,86.358,496.358,86.75,495.875,86.75z M491.75,85H495v-3.25h-3.25V85z"/>
	</g>
	<g>
		<path fill="#F35429" d="M505.875,86.75h-5c-0.483,0-0.875-0.392-0.875-0.875v-5c0-0.483,0.392-0.875,0.875-0.875h5
			c0.483,0,0.875,0.392,0.875,0.875v5C506.75,86.358,506.358,86.75,505.875,86.75z M501.75,85H505v-3.25h-3.25V85z"/>
	</g>
</g>
<g>
	<g>
		<g>
			<path fill="#F35429" d="M515.199,64.2c0,0.55-0.45,1-1,1H511c-0.55,0-1-0.45-1-1V61c0-0.55,0.45-1,1-1h3.199c0.55,0,1,0.45,1,1
				V64.2z"/>
		</g>
		<g>
			<path fill="#F35429" d="M525.6,64.2c0,0.55-0.45,1-1,1H521.4c-0.55,0-1-0.45-1-1V61c0-0.55,0.45-1,1-1h3.199c0.55,0,1,0.45,1,1
				V64.2z"/>
		</g>
		<g>
			<path fill="#F35429" d="M536,64.2c0,0.55-0.45,1-1,1h-3.2c-0.55,0-1-0.45-1-1V61c0-0.55,0.45-1,1-1h3.2c0.55,0,1,0.45,1,1V64.2z"
				/>
		</g>
		<g>
			<path fill="#F35429" d="M515.199,74.6c0,0.55-0.45,1-1,1H511c-0.55,0-1-0.45-1-1v-3.2c0-0.55,0.45-1,1-1h3.199c0.55,0,1,0.45,1,1
				V74.6z"/>
		</g>
		<g>
			<path fill="#F35429" d="M525.6,74.6c0,0.55-0.45,1-1,1H521.4c-0.55,0-1-0.45-1-1v-3.2c0-0.55,0.45-1,1-1h3.199c0.55,0,1,0.45,1,1
				V74.6z"/>
		</g>
		<g>
			<path fill="#F35429" d="M536,74.6c0,0.55-0.45,1-1,1h-3.2c-0.55,0-1-0.45-1-1v-3.2c0-0.55,0.45-1,1-1h3.2c0.55,0,1,0.45,1,1V74.6
				z"/>
		</g>
		<g>
			<path fill="#F35429" d="M515.199,85c0,0.55-0.45,1-1,1H511c-0.55,0-1-0.45-1-1v-3.2c0-0.55,0.45-1,1-1h3.199c0.55,0,1,0.45,1,1
				V85z"/>
		</g>
		<g>
			<path fill="#F35429" d="M525.6,85c0,0.55-0.45,1-1,1H521.4c-0.55,0-1-0.45-1-1v-3.2c0-0.55,0.45-1,1-1h3.199c0.55,0,1,0.45,1,1
				V85z"/>
		</g>
		<g>
			<path fill="#F35429" d="M536,85c0,0.55-0.45,1-1,1h-3.2c-0.55,0-1-0.45-1-1v-3.2c0-0.55,0.45-1,1-1h3.2c0.55,0,1,0.45,1,1V85z"/>
		</g>
	</g>
</g>
<g>
	<g>
		<path fill="#F35429" d="M563.875,73.25c-0.482,0-0.875-0.392-0.875-0.875v-1c0-5.307-4.317-9.625-9.625-9.625
			c-5.307,0-9.625,4.318-9.625,9.625v1c0,0.483-0.391,0.875-0.875,0.875c-0.482,0-0.875-0.392-0.875-0.875v-1
			C542,65.103,547.104,60,553.375,60c6.272,0,11.375,5.103,11.375,11.375v1C564.75,72.858,564.359,73.25,563.875,73.25z"/>
	</g>
	<g>
		<path fill="#F35429" d="M563.875,86.25c-1.585,0-2.875-1.29-2.875-2.875v-6c0-1.585,1.29-2.875,2.875-2.875
			c1.586,0,2.875,1.29,2.875,2.875v6C566.75,84.96,565.461,86.25,563.875,86.25z M563.875,76.25c-0.619,0-1.125,0.505-1.125,1.125v6
			c0,0.62,0.506,1.125,1.125,1.125c0.621,0,1.125-0.505,1.125-1.125v-6C565,76.755,564.496,76.25,563.875,76.25z"/>
	</g>
	<g>
		<path fill="#F35429" d="M542.875,86.25c-1.585,0-2.875-1.29-2.875-2.875v-6c0-1.585,1.29-2.875,2.875-2.875
			c1.586,0,2.875,1.29,2.875,2.875v6C545.75,84.96,544.461,86.25,542.875,86.25z M542.875,76.25c-0.619,0-1.125,0.505-1.125,1.125v6
			c0,0.62,0.506,1.125,1.125,1.125c0.621,0,1.125-0.505,1.125-1.125v-6C544,76.755,543.496,76.25,542.875,76.25z"/>
	</g>
</g>
<g>
	<path fill="#F35429" d="M587.202,60.109l-6.8-0.001c-1.586,0-2.876,1.29-2.876,2.874l-0.001,0.802c0,1.585,1.29,2.875,2.875,2.875
		l5.238,0V83c0,0.276,0.224,0.5,0.5,0.5s0.5-0.224,0.5-0.5V66.659h0.563c1.585,0,2.875-1.29,2.875-2.875v-0.8
		C590.077,61.398,588.787,60.109,587.202,60.109z M588.327,63.784c0,0.62-0.505,1.125-1.125,1.125l-6.802,0
		c-0.62,0-1.125-0.505-1.125-1.124l0.001-0.802c0-0.62,0.505-1.125,1.126-1.125l6.8,0.001c0.62,0,1.125,0.505,1.125,1.125V63.784z"
		/>
	<path fill="#F35429" d="M574.424,60c-0.619,0-1.814,0.355-2.719,0.808c-0.939,0.471-1.705,1.625-1.705,2.574
		c0,0.949,0.766,2.103,1.705,2.574c0.904,0.453,2.1,0.808,2.717,0.808c0.846,0,1.302-1.474,1.302-2.862v-1.041
		C575.724,61.476,575.268,60,574.424,60z"/>
	<path fill="#F35429" d="M604.6,60.108l-6.801,0.001c-1.585,0-2.875,1.29-2.875,2.875v0.8c0,1.585,1.29,2.875,2.875,2.875h0.564V83
		c0,0.276,0.224,0.5,0.5,0.5s0.5-0.224,0.5-0.5V66.659l5.237,0c1.585,0,2.874-1.29,2.874-2.875v-0.801
		C607.475,61.397,606.185,60.108,604.6,60.108z M605.725,63.784c0,0.62-0.504,1.125-1.124,1.125l-6.802,0
		c-0.62,0-1.125-0.505-1.125-1.125v-0.8c0-0.62,0.505-1.125,1.125-1.125l6.801-0.001c0.62,0,1.125,0.505,1.125,1.125V63.784z"/>
	<path fill="#F35429" d="M613.295,60.808c-0.904-0.453-2.1-0.808-2.717-0.808c-0.846,0-1.301,1.476-1.301,2.862v1.041
		c0,1.388,0.457,2.862,1.301,2.862c0.619,0,1.814-0.355,2.718-0.808c0.94-0.471,1.704-1.625,1.704-2.574
		C615,62.433,614.236,61.279,613.295,60.808z"/>
</g>
<g>
	<path fill="#F35429" d="M670.875,74.415c1.654,0,3-1.346,3-3s-1.346-3-3-3s-3,1.346-3,3S669.221,74.415,670.875,74.415z
		 M670.875,69.415c1.104,0,2,0.897,2,2s-0.896,2-2,2s-2-0.897-2-2S669.771,69.415,670.875,69.415z"/>
	<path fill="#F35429" d="M703.725,70.112c-0.443-0.193-0.959,0.011-1.152,0.454c-1.133,2.609-2.52,4.089-4.122,4.397
		c-2.296,0.443-4.437-1.648-4.448-1.66c-13.715-14.041-22.703-13.382-23.688-13.264C664.813,60.079,660,65.377,660,71.415v0.875
		h3.557c0.436,3.655,3.549,6.5,7.318,6.5c4.066,0,7.375-3.309,7.375-7.375s-3.309-7.375-7.375-7.375c-3.77,0-6.883,2.845-7.318,6.5
		h-1.762c0.432-4.296,3.959-8.75,8.58-8.75l0.132-0.01c0.085-0.013,8.733-1.083,22.25,12.753c0.101,0.102,2.277,2.242,5.04,2.242
		c0.316,0,0.641-0.028,0.972-0.091c2.209-0.419,4.028-2.244,5.409-5.421C704.371,70.82,704.168,70.305,703.725,70.112z
		 M670.875,65.79c3.102,0,5.625,2.523,5.625,5.625s-2.523,5.625-5.625,5.625s-5.625-2.523-5.625-5.625S667.773,65.79,670.875,65.79z
		"/>
</g>
<path fill="#F35429" d="M644.572,65.866l-6.061-4.986c-0.244-0.182-1.516-1.078-2.686-0.84c-1.897,0.384-2.418,2.232-2.429,3.166
	l0.001,3.251c0,0.078,0.025,0.147,0.044,0.219c-0.673,0.318-1.144,1.006-1.144,1.808v3.104c-1.361,0.711-2.299,2.12-2.299,3.762
	c0,2.359,1.912,4.272,4.273,4.272c2.358,0,4.271-1.913,4.271-4.272c0-1.643-0.937-3.052-2.299-3.763v-3.103
	c0-0.801-0.47-1.488-1.143-1.808c0.02-0.072,0.045-0.142,0.045-0.22l-0.001-3.242c0-0.013,0.025-1.258,1.026-1.46
	c0.251-0.049,0.895,0.236,1.258,0.502l6.008,4.943c0.059,0.052,1.419,1.284,1.419,3.452v4.926c0.002,0.788-0.213,3.203-1.253,3.982
	l-4.127,3.669c-0.342,0.252-1.724,1.419-1.617,3.773c0.021,0.469,0.408,0.835,0.873,0.835c0.014,0,0.027,0,0.041-0.001
	c0.482-0.021,0.855-0.431,0.834-0.914c-0.072-1.59,0.861-2.254,0.891-2.274c0.037-0.024,0.073-0.051,0.107-0.082l4.103-3.652
	c1.855-1.383,1.899-4.941,1.898-5.34v-4.924C646.608,67.66,644.671,65.951,644.572,65.866z M635.246,74.121c0,0.55-0.438,1-0.975,1
	c-0.535,0-0.973-0.45-0.973-1v-5.637c0-0.55,0.438-1,0.973-1c0.536,0,0.975,0.45,0.975,1V74.121z"/>
</svg>
