<?xml version="1.0" encoding="utf-8"?>
<!-- Generator: Adobe Illustrator 15.1.0, SVG Export Plug-In  -->
<!DOCTYPE svg PUBLIC "-//W3C//DTD SVG 1.1//EN" "http://www.w3.org/Graphics/SVG/1.1/DTD/svg11.dtd" [
	<!ENTITY ns_flows "http://ns.adobe.com/Flows/1.0/">
]>
<svg version="1.1"
	 xmlns="http://www.w3.org/2000/svg" xmlns:xlink="http://www.w3.org/1999/xlink" xmlns:a="http://ns.adobe.com/AdobeSVGViewerExtensions/3.0/"
	 x="0px" y="0px" width="750px" height="1290px" viewBox="390 1 750 1290"
	 overflow="visible" enable-background="new 390 1 750 1290" xml:space="preserve">
<defs>
</defs>
<rect x="390" y="361" display="none" fill="#7A7D7F" fill-opacity="0.3" width="750" height="90"/>
<polygon display="none" fill="#7A7D7F" fill-opacity="0.3" points="1139.333,90.667 389.333,90.667 390,1 1140,1 "/>
<rect x="390" y="691" display="none" fill="#7A7D7F" fill-opacity="0.3" width="750" height="59.9"/>
<rect x="390" y="631" display="none" fill="#7A7D7F" fill-opacity="0.3" width="750" height="60"/>
<rect x="870" y="1" display="none" fill="#0303F9" fill-opacity="0.1" width="16" height="16"/>
<rect x="900" y="1" display="none" fill="#0303F9" fill-opacity="0.1" width="16" height="16"/>
<rect x="930" y="1" display="none" fill="#0303F9" fill-opacity="0.1" width="33" height="33"/>
<polygon display="none" fill="#7A7D7F" fill-opacity="0.3" points="1139.333,181 389.333,181 390,91 1140,91 "/>
<rect x="390" y="451" display="none" fill="#7A7D7F" fill-opacity="0.3" width="750" height="179.668"/>
<rect x="390" y="751.1" display="none" fill="#7A7D7F" fill-opacity="0.3" width="750" height="29.9"/>
<rect x="390" y="781" display="none" fill="#7A7D7F" fill-opacity="0.3" width="750" height="59.9"/>
<rect x="390" y="841" display="none" fill="#7A7D7F" fill-opacity="0.3" width="750" height="120"/>
<rect x="390" y="180.999" display="none" fill="#7A7D7F" fill-opacity="0.3" width="750" height="179.668"/>
<line display="none" fill="none" stroke="#020202" stroke-width="2" stroke-miterlimit="10" x1="209.667" y1="90.667" x2="2004.333" y2="90.667"/>
<line display="none" fill="none" stroke="#020202" stroke-width="2" stroke-miterlimit="10" x1="209.667" y1="180.667" x2="2004.333" y2="180.667"/>
<line display="none" fill="none" stroke="#020202" stroke-width="2" stroke-miterlimit="10" x1="209.667" y1="361" x2="2004.333" y2="361"/>
<line display="none" fill="none" stroke="#020202" stroke-width="2" stroke-miterlimit="10" x1="209.667" y1="631" x2="2004.333" y2="631"/>
<line display="none" fill="none" stroke="#020202" stroke-width="2" stroke-miterlimit="10" x1="209.667" y1="751" x2="2004.333" y2="751"/>
<line display="none" fill="none" stroke="#020202" stroke-width="2" stroke-miterlimit="10" x1="0" y1="691" x2="2004.333" y2="691"/>
<line display="none" fill="none" stroke="#020202" stroke-width="2" stroke-miterlimit="10" x1="209.667" y1="781.333" x2="2004.333" y2="781.333"/>
<line display="none" fill="none" stroke="#020202" stroke-width="2" stroke-miterlimit="10" x1="209.667" y1="841.333" x2="2004.333" y2="841.333"/>
<line display="none" fill="none" stroke="#020202" stroke-width="2" stroke-miterlimit="10" x1="209.667" y1="961.333" x2="2004.333" y2="961.333"/>
<rect x="390" y="961" display="none" fill="#7A7D7F" fill-opacity="0.3" width="750" height="330"/>
<line display="none" fill="none" stroke="#020202" stroke-width="2" stroke-miterlimit="10" x1="0" y1="1291.333" x2="2004.333" y2="1291.333"/>
<line display="none" fill="none" stroke="#020202" stroke-width="2" stroke-miterlimit="10" x1="209.667" y1="451" x2="2004.333" y2="451"/>
<line display="none" fill="none" stroke="#020202" stroke-width="2" stroke-miterlimit="10" x1="0" y1="1" x2="2004.333" y2="1"/>
<g>
	<path fill="#231F20" d="M421,381.75c0.133,0,0.25,0.117,0.25,0.25v1c0,0.133-0.117,0.25-0.25,0.25h-29
		c-0.133,0-0.25-0.117-0.25-0.25v-1c0-0.133,0.117-0.25,0.25-0.25H421 M421,380h-29c-1.1,0-2,0.9-2,2v1c0,1.1,0.9,2,2,2h29
		c1.1,0,2-0.9,2-2v-1C423,380.901,422.1,380,421,380L421,380z"/>
</g>
<g>
	<path fill="#231F20" d="M419,362.75c0.133,0,0.25,0.117,0.25,0.25v14c0,0.133-0.117,0.25-0.25,0.25h-25
		c-0.133,0-0.25-0.117-0.25-0.25v-14c0-0.133,0.117-0.25,0.25-0.25H419 M419,361h-25c-1.1,0-2,0.9-2,2v14c0,1.1,0.9,2,2,2h25
		c1.1,0,2-0.9,2-2v-14C421,361.901,420.1,361,419,361L419,361z"/>
</g>
<path fill="#231F20" d="M493.875,381.75h-12c-1.034,0-1.875-0.842-1.875-1.875v-7c0-1.033,0.841-1.875,1.875-1.875
	c0.066,0,0.125-0.059,0.125-0.125v-3c0-0.066-0.059-0.125-0.125-0.125c-1.034,0-1.875-0.842-1.875-1.875v-3
	c0-1.033,0.841-1.875,1.875-1.875h9c0.777,0,1.776,0.414,2.326,0.963l1.586,1.586c0.549,0.55,0.963,1.549,0.963,2.326v14
	C495.75,380.909,494.909,381.75,493.875,381.75z M481.875,362.75c-0.066,0-0.125,0.059-0.125,0.125v3
	c0,0.066,0.059,0.125,0.125,0.125c1.034,0,1.875,0.842,1.875,1.875v3c0,1.033-0.841,1.875-1.875,1.875
	c-0.066,0-0.125,0.059-0.125,0.125v7c0,0.066,0.059,0.125,0.125,0.125h12c0.066,0,0.125-0.059,0.125-0.125v-14
	c0-0.316-0.228-0.865-0.451-1.088l-1.586-1.586c-0.223-0.224-0.772-0.451-1.088-0.451H481.875z"/>
<path fill="#231F20" d="M492.875,376.875c0,1.1-0.9,2-2,2h-6c-1.1,0-2-0.9-2-2v-2c0-1.1,0.9-2,2-2h6c1.1,0,2,0.9,2,2V376.875z"/>
<path fill="#231F20" d="M490.322,364.77c-0.246-0.492-0.648-0.492-0.895,0l-1.105,2.211c-0.246,0.492,0.003,0.895,0.553,0.895h2
	c0.55,0,0.799-0.402,0.553-0.895L490.322,364.77z"/>
<path fill="#231F20" d="M542,361h-30c-1.1,0-2,0.9-2,2v17c0,1.1,0.9,2,2,2h13v3.125h-7c-0.483,0-0.875,0.392-0.875,0.875
	s0.392,0.875,0.875,0.875h18c0.483,0,0.875-0.392,0.875-0.875s-0.392-0.875-0.875-0.875h-7V382h13c1.1,0,2-0.9,2-2v-17
	C544,361.901,543.1,361,542,361z M542.25,380c0,0.133-0.117,0.25-0.25,0.25h-30c-0.133,0-0.25-0.117-0.25-0.25v-17
	c0-0.133,0.117-0.25,0.25-0.25h30c0.133,0,0.25,0.117,0.25,0.25V380z"/>
<g>
	<path fill="#231F20" d="M605,362.75c0.133,0,0.25,0.117,0.25,0.25v12c0,0.133-0.117,0.25-0.25,0.25h-33
		c-0.133,0-0.25-0.117-0.25-0.25v-12c0-0.133,0.117-0.25,0.25-0.25H605 M605,361h-33c-1.1,0-2,0.9-2,2v12c0,1.1,0.9,2,2,2h33
		c1.1,0,2-0.9,2-2v-12C607,361.901,606.1,361,605,361L605,361z"/>
</g>
<circle fill="none" stroke="#231F20" stroke-width="1.75" stroke-miterlimit="10" cx="598" cy="369.001" r="4"/>
<line fill="none" stroke="#231F20" stroke-linecap="round" stroke-miterlimit="10" x1="575" y1="366" x2="582" y2="366"/>
<line fill="none" stroke="#231F20" stroke-linecap="round" stroke-miterlimit="10" x1="575" y1="369" x2="582" y2="369"/>
<line fill="none" stroke="#231F20" stroke-linecap="round" stroke-miterlimit="10" x1="575" y1="372" x2="582" y2="372"/>
<g>
	<path fill="#231F20" d="M576,378c0,0.55-0.45,1-1,1h-1c-0.55,0-1-0.45-1-1v-1c0-0.55,0.45-1,1-1h1c0.55,0,1,0.45,1,1V378z"/>
</g>
<g>
	<path fill="#231F20" d="M604,378c0,0.55-0.45,1-1,1h-1c-0.55,0-1-0.45-1-1v-1c0-0.55,0.45-1,1-1h1c0.55,0,1,0.45,1,1V378z"/>
</g>
<path fill="#231F20" d="M637.001,363.487l3.54,6.139c0.494,0.855,1.23,2.328,1.642,3.279c0.02,0.11,0.067,0.438,0.067,1.078
	c0,2.895-2.355,5.25-5.25,5.25s-5.25-2.355-5.25-5.25c0-0.641,0.047-0.967,0.067-1.078c0.413-0.953,1.148-2.425,1.642-3.28
	L637.001,363.487 M637,361c-0.362,0-0.725,0.238-0.999,0.715l-4.058,7.035c-0.549,0.952-1.351,2.561-1.781,3.572
	c0,0-0.163,0.383-0.163,1.66c0,3.865,3.135,7,7,7c3.866,0,7-3.135,7-7c0-1.277-0.162-1.659-0.162-1.659
	c-0.43-1.013-1.231-2.621-1.781-3.573L638,361.715C637.725,361.239,637.362,361,637,361L637,361z"/>
<path fill="#231F20" d="M670,375v-9c0-2.762-2.238-5-5-5s-5,2.238-5,5v9c0,2.467,1.792,4.506,4.143,4.914
	c-0.003,0.029-0.018,0.055-0.018,0.086v6c0,0.045,0.019,0.082,0.025,0.125H661c-0.483,0-0.875,0.392-0.875,0.875
	s0.392,0.875,0.875,0.875h8c0.483,0,0.875-0.392,0.875-0.875s-0.392-0.875-0.875-0.875h-3.15c0.006-0.043,0.025-0.08,0.025-0.125v-6
	c0-0.031-0.015-0.057-0.018-0.086C668.208,379.506,670,377.467,670,375z M668.25,375c0,1.792-1.458,3.25-3.25,3.25
	s-3.25-1.458-3.25-3.25v-9c0-1.792,1.458-3.25,3.25-3.25s3.25,1.458,3.25,3.25V375z"/>
<path fill="#231F20" d="M701.625,366.164v-2.288c0-0.483-0.392-0.875-0.875-0.875s-0.875,0.392-0.875,0.875v2.288
	c-1.062,0.18-1.875,1.1-1.875,2.212v7c0,1.112,0.813,2.032,1.875,2.212v5.288c0,1.723-1.402,3.125-3.125,3.125
	s-3.125-1.402-3.125-3.125v-7.288c1.062-0.18,1.875-1.1,1.875-2.212v-7c0-1.112-0.813-2.032-1.875-2.212v-2.288
	c0-0.483-0.392-0.875-0.875-0.875s-0.875,0.392-0.875,0.875v2.288c-1.062,0.18-1.875,1.1-1.875,2.212v7
	c0,1.112,0.813,2.032,1.875,2.212v7.288c0,2.688,2.187,4.875,4.875,4.875s4.875-2.188,4.875-4.875v-5.288
	c1.062-0.18,1.875-1.1,1.875-2.212v-7C703.5,367.263,702.687,366.343,701.625,366.164z M692.25,365.875h1c0.275,0,0.5,0.225,0.5,0.5
	v2.5h-2v-2.5C691.75,366.1,691.975,365.875,692.25,365.875z M701.75,375.375c0,0.275-0.225,0.5-0.5,0.5h-1
	c-0.275,0-0.5-0.225-0.5-0.5v-7c0-0.275,0.225-0.5,0.5-0.5h1c0.275,0,0.5,0.225,0.5,0.5V375.375z"/>
<g>
	<path fill="#231F20" d="M467,362.75c0.133,0,0.25,0.117,0.25,0.25v22c0,0.133-0.117,0.25-0.25,0.25h-15
		c-0.133,0-0.25-0.117-0.25-0.25v-22c0-0.133,0.117-0.25,0.25-0.25H467 M467,361h-15c-1.1,0-2,0.9-2,2v22c0,1.1,0.9,2,2,2h15
		c1.1,0,2-0.9,2-2v-22C469,361.901,468.1,361,467,361L467,361z"/>
</g>
<g>
	<path fill="#231F20" d="M465,365v16h-11v-16H465 M466,364h-13v18h13V364L466,364z"/>
</g>
<g>
	<path fill="#231F20" d="M733,362.75c6.203,0,11.25,5.047,11.25,11.25s-5.047,11.25-11.25,11.25s-11.25-5.047-11.25-11.25
		S726.797,362.75,733,362.75 M733,361c-7.18,0-13,5.82-13,13s5.82,13,13,13s13-5.82,13-13S740.18,361,733,361L733,361z"/>
</g>
<g>
	<path fill="#231F20" d="M733,370c2.206,0,4,1.795,4,4s-1.794,4-4,4s-4-1.795-4-4S730.794,370,733,370 M733,369
		c-2.762,0-5,2.238-5,5s2.238,5,5,5s5-2.238,5-5S735.762,369,733,369L733,369z"/>
</g>
<g>
	<path fill="#231F20" d="M733,372.5c0.827,0,1.5,0.673,1.5,1.5s-0.673,1.5-1.5,1.5s-1.5-0.673-1.5-1.5S732.173,372.5,733,372.5
		 M733,371.5c-1.381,0-2.5,1.119-2.5,2.5s1.119,2.5,2.5,2.5s2.5-1.119,2.5-2.5S734.381,371.5,733,371.5L733,371.5z"/>
</g>
<path fill="#231F20" d="M776.867,382.75h-12.084c-0.483,0-0.875-0.392-0.875-0.875v-11.5c0-0.484,0.392-0.875,0.875-0.875h16.334
	c0.483,0,0.875,0.391,0.875,0.875v7.25C781.992,380.452,779.693,382.75,776.867,382.75z M765.658,381h11.209
	c1.861,0,3.375-1.514,3.375-3.375v-6.375h-14.584V381z"/>
<path fill="#231F20" d="M781.504,361h-30.629c-0.483,0-0.875,0.392-0.875,0.875v9.272c0,0.483,0.392,0.875,0.875,0.875h3.762v3.671
	c0,3.891,3.165,7.057,7.056,7.057c0.483,0,0.875-0.392,0.875-0.875v-13.717h18.937c1.974,0,3.58-1.605,3.58-3.578
	C785.084,362.606,783.478,361,781.504,361z M751.75,362.75h1.482v7.522h-1.482V362.75z M781.504,366.409h-19.812
	c-0.483,0-0.875,0.393-0.875,0.875v13.645c-2.511-0.418-4.431-2.606-4.431-5.234v-4.546c0-0.483-0.392-0.875-0.875-0.875h-1.279
	v-7.522h27.271c1.009,0,1.83,0.82,1.83,1.83C783.334,365.588,782.513,366.409,781.504,366.409z"/>
<path fill="#231F20" d="M842.625,388.75h-19.75c-0.483,0-0.875-0.392-0.875-0.875v-16c0-0.483,0.392-0.875,0.875-0.875h24
	c0.483,0,0.875,0.392,0.875,0.875v11.75C847.75,386.452,845.451,388.75,842.625,388.75z M823.75,387h18.875
	c1.861,0,3.375-1.514,3.375-3.375V372.75h-22.25V387z"/>
<path fill="#231F20" d="M814.875,384.75h-4c-0.483,0-0.875-0.392-0.875-0.875v-10c0-0.483,0.392-0.875,0.875-0.875h4
	c0.292,0,0.566,0.146,0.728,0.39l1.074,1.61h3.198c0.483,0,0.875,0.393,0.875,0.875v6c0,0.484-0.392,0.875-0.875,0.875h-3.199
	l-1.073,1.61C815.441,384.604,815.167,384.75,814.875,384.75z M811.75,383h2.657l1.073-1.609c0.162-0.244,0.436-0.391,0.728-0.391
	H819v-4.25h-2.791c-0.292,0-0.566-0.146-0.728-0.389l-1.074-1.611h-2.657V383z"/>
<path fill="#231F20" d="M844.875,369.75h-4c-0.275,0-0.535-0.13-0.7-0.35l-2.737-3.65h-6.688v3.125c0,0.483-0.392,0.875-0.875,0.875
	h-3c-0.483,0-0.875-0.392-0.875-0.875v-7c0-0.483,0.392-0.875,0.875-0.875h13c0.282,0,0.548,0.137,0.712,0.366l5,7
	c0.19,0.267,0.216,0.618,0.066,0.909C845.503,369.567,845.203,369.75,844.875,369.75z M841.312,368h1.862l-3.75-5.25H827.75V368H829
	v-3.125c0-0.483,0.392-0.875,0.875-0.875h8c0.275,0,0.535,0.13,0.7,0.35L841.312,368z"/>
<path fill="#231F20" d="M875.875,367.75h-5c-0.483,0-0.875-0.392-0.875-0.875v-5c0-0.483,0.392-0.875,0.875-0.875h5
	c0.483,0,0.875,0.392,0.875,0.875v5C876.75,367.359,876.358,367.75,875.875,367.75z M871.75,366H875v-3.25h-3.25V366z"/>
<path fill="#231F20" d="M885.875,367.75h-5c-0.483,0-0.875-0.392-0.875-0.875v-5c0-0.483,0.392-0.875,0.875-0.875h5
	c0.483,0,0.875,0.392,0.875,0.875v5C886.75,367.359,886.358,367.75,885.875,367.75z M881.75,366H885v-3.25h-3.25V366z"/>
<path fill="#231F20" d="M895.875,367.75h-5c-0.483,0-0.875-0.392-0.875-0.875v-5c0-0.483,0.392-0.875,0.875-0.875h5
	c0.483,0,0.875,0.392,0.875,0.875v5C896.75,367.359,896.358,367.75,895.875,367.75z M891.75,366H895v-3.25h-3.25V366z"/>
<path fill="#231F20" d="M875.875,377.75h-5c-0.483,0-0.875-0.392-0.875-0.875v-5c0-0.483,0.392-0.875,0.875-0.875h5
	c0.483,0,0.875,0.392,0.875,0.875v5C876.75,377.359,876.358,377.75,875.875,377.75z M871.75,376H875v-3.25h-3.25V376z"/>
<path fill="#231F20" d="M885.875,377.75h-5c-0.483,0-0.875-0.392-0.875-0.875v-5c0-0.483,0.392-0.875,0.875-0.875h5
	c0.483,0,0.875,0.392,0.875,0.875v5C886.75,377.359,886.358,377.75,885.875,377.75z M881.75,376H885v-3.25h-3.25V376z"/>
<path fill="#231F20" d="M895.875,377.75h-5c-0.483,0-0.875-0.392-0.875-0.875v-5c0-0.483,0.392-0.875,0.875-0.875h5
	c0.483,0,0.875,0.392,0.875,0.875v5C896.75,377.359,896.358,377.75,895.875,377.75z M891.75,376H895v-3.25h-3.25V376z"/>
<path fill="#231F20" d="M875.875,387.75h-5c-0.483,0-0.875-0.392-0.875-0.875v-5c0-0.483,0.392-0.875,0.875-0.875h5
	c0.483,0,0.875,0.392,0.875,0.875v5C876.75,387.359,876.358,387.75,875.875,387.75z M871.75,386H875v-3.25h-3.25V386z"/>
<path fill="#231F20" d="M885.875,387.75h-5c-0.483,0-0.875-0.392-0.875-0.875v-5c0-0.483,0.392-0.875,0.875-0.875h5
	c0.483,0,0.875,0.392,0.875,0.875v5C886.75,387.359,886.358,387.75,885.875,387.75z M881.75,386H885v-3.25h-3.25V386z"/>
<path fill="#231F20" d="M895.875,387.75h-5c-0.483,0-0.875-0.392-0.875-0.875v-5c0-0.483,0.392-0.875,0.875-0.875h5
	c0.483,0,0.875,0.392,0.875,0.875v5C896.75,387.359,896.358,387.75,895.875,387.75z M891.75,386H895v-3.25h-3.25V386z"/>
<g>
	<g>
		<g>
			<path fill="#231F20" d="M905.199,365.2c0,0.551-0.45,1-1,1H901c-0.55,0-1-0.449-1-1V362c0-0.55,0.45-1,1-1h3.199
				c0.55,0,1,0.45,1,1V365.2z"/>
		</g>
		<g>
			<path fill="#231F20" d="M915.6,365.2c0,0.551-0.45,1-1,1H911.4c-0.55,0-1-0.449-1-1V362c0-0.55,0.45-1,1-1h3.199
				c0.55,0,1,0.45,1,1V365.2z"/>
		</g>
		<g>
			<path fill="#231F20" d="M926,365.2c0,0.551-0.45,1-1,1h-3.2c-0.55,0-1-0.449-1-1V362c0-0.55,0.45-1,1-1h3.2c0.55,0,1,0.45,1,1
				V365.2z"/>
		</g>
		<g>
			<path fill="#231F20" d="M905.199,375.6c0,0.55-0.45,1-1,1H901c-0.55,0-1-0.45-1-1v-3.199c0-0.551,0.45-1,1-1h3.199
				c0.55,0,1,0.449,1,1V375.6z"/>
		</g>
		<g>
			<path fill="#231F20" d="M915.6,375.6c0,0.55-0.45,1-1,1H911.4c-0.55,0-1-0.45-1-1v-3.199c0-0.551,0.45-1,1-1h3.199
				c0.55,0,1,0.449,1,1V375.6z"/>
		</g>
		<g>
			<path fill="#231F20" d="M926,375.6c0,0.55-0.45,1-1,1h-3.2c-0.55,0-1-0.45-1-1v-3.199c0-0.551,0.45-1,1-1h3.2c0.55,0,1,0.449,1,1
				V375.6z"/>
		</g>
		<g>
			<path fill="#231F20" d="M905.199,386c0,0.549-0.45,1-1,1H901c-0.55,0-1-0.451-1-1v-3.2c0-0.55,0.45-1,1-1h3.199
				c0.55,0,1,0.45,1,1V386z"/>
		</g>
		<g>
			<path fill="#231F20" d="M915.6,386c0,0.549-0.45,1-1,1H911.4c-0.55,0-1-0.451-1-1v-3.2c0-0.55,0.45-1,1-1h3.199
				c0.55,0,1,0.45,1,1V386z"/>
		</g>
		<g>
			<path fill="#231F20" d="M926,386c0,0.549-0.45,1-1,1h-3.2c-0.55,0-1-0.451-1-1v-3.2c0-0.55,0.45-1,1-1h3.2c0.55,0,1,0.45,1,1V386
				z"/>
		</g>
	</g>
</g>
<path fill="#231F20" d="M953.875,374.25c-0.482,0-0.875-0.392-0.875-0.875v-1c0-5.307-4.317-9.625-9.625-9.625
	c-5.307,0-9.625,4.318-9.625,9.625v1c0,0.483-0.391,0.875-0.875,0.875c-0.482,0-0.875-0.392-0.875-0.875v-1
	c0-6.271,5.104-11.375,11.375-11.375c6.272,0,11.375,5.104,11.375,11.375v1C954.75,373.859,954.359,374.25,953.875,374.25z"/>
<path fill="#231F20" d="M953.875,387.25c-1.585,0-2.875-1.289-2.875-2.875v-6c0-1.586,1.29-2.875,2.875-2.875
	c1.586,0,2.875,1.289,2.875,2.875v6C956.75,385.961,955.461,387.25,953.875,387.25z M953.875,377.25
	c-0.619,0-1.125,0.505-1.125,1.125v6c0,0.62,0.506,1.125,1.125,1.125c0.621,0,1.125-0.505,1.125-1.125v-6
	C955,377.755,954.496,377.25,953.875,377.25z"/>
<path fill="#231F20" d="M932.875,387.25c-1.585,0-2.875-1.289-2.875-2.875v-6c0-1.586,1.29-2.875,2.875-2.875
	c1.586,0,2.875,1.289,2.875,2.875v6C935.75,385.961,934.461,387.25,932.875,387.25z M932.875,377.25
	c-0.619,0-1.125,0.505-1.125,1.125v6c0,0.62,0.506,1.125,1.125,1.125c0.621,0,1.125-0.505,1.125-1.125v-6
	C934,377.755,933.496,377.25,932.875,377.25z"/>
<path fill="#231F20" d="M977.202,361.11l-6.8-0.002c-1.586,0-2.876,1.29-2.876,2.875l-0.001,0.801c0,1.586,1.29,2.875,2.875,2.875
	l5.238,0.001V384c0,0.276,0.224,0.5,0.5,0.5s0.5-0.224,0.5-0.5V367.66h0.563c1.585,0,2.875-1.29,2.875-2.875v-0.8
	C980.077,362.399,978.787,361.11,977.202,361.11z M978.327,364.785c0,0.62-0.505,1.125-1.125,1.125l-6.802-0.001
	c-0.62,0-1.125-0.504-1.125-1.123l0.001-0.803c0-0.619,0.505-1.125,1.126-1.125l6.8,0.002c0.62,0,1.125,0.504,1.125,1.125V364.785z"
	/>
<path fill="#231F20" d="M964.424,361c-0.619,0-1.814,0.355-2.719,0.809c-0.939,0.471-1.705,1.625-1.705,2.574
	c0,0.948,0.766,2.103,1.705,2.574c0.904,0.453,2.1,0.808,2.717,0.808c0.846,0.001,1.302-1.474,1.302-2.862v-1.041
	C965.724,362.476,965.268,361,964.424,361z"/>
<path fill="#231F20" d="M994.6,361.108l-6.801,0.002c-1.585,0-2.875,1.289-2.875,2.875v0.8c0,1.585,1.29,2.875,2.875,2.875h0.564
	V384c0,0.276,0.224,0.5,0.5,0.5s0.5-0.224,0.5-0.5V367.66l5.237-0.001c1.585,0,2.874-1.289,2.874-2.875v-0.801
	C997.475,362.398,996.185,361.108,994.6,361.108z M995.725,364.784c0,0.621-0.504,1.125-1.124,1.125l-6.802,0.001
	c-0.62,0-1.125-0.505-1.125-1.125v-0.8c0-0.621,0.505-1.125,1.125-1.125l6.801-0.002c0.62,0,1.125,0.506,1.125,1.125V364.784z"/>
<path fill="#231F20" d="M1003.295,361.809c-0.904-0.453-2.1-0.809-2.717-0.809c-0.846,0-1.301,1.476-1.301,2.861v1.041
	c0,1.389,0.457,2.863,1.301,2.862c0.619,0,1.814-0.354,2.718-0.808c0.94-0.472,1.704-1.626,1.704-2.574
	C1005,363.434,1004.236,362.28,1003.295,361.809z"/>
<path fill="#231F20" d="M1060.875,375.416c1.654,0,3-1.346,3-3s-1.346-3-3-3s-3,1.346-3,3S1059.221,375.416,1060.875,375.416z
	 M1060.875,370.416c1.104,0,2,0.897,2,2s-0.896,2-2,2s-2-0.897-2-2S1059.771,370.416,1060.875,370.416z"/>
<path fill="#231F20" d="M1093.725,371.113c-0.443-0.192-0.959,0.011-1.152,0.454c-1.133,2.609-2.52,4.089-4.122,4.397
	c-2.296,0.442-4.437-1.647-4.448-1.66c-13.715-14.04-22.703-13.382-23.688-13.264c-5.501,0.039-10.314,5.337-10.314,11.375v0.875
	h3.557c0.436,3.655,3.549,6.5,7.318,6.5c4.066,0,7.375-3.309,7.375-7.375s-3.309-7.375-7.375-7.375c-3.77,0-6.883,2.845-7.318,6.5
	h-1.762c0.432-4.296,3.959-8.75,8.58-8.75l0.132-0.01c0.085-0.013,8.733-1.083,22.25,12.753c0.101,0.102,2.277,2.242,5.04,2.242
	c0.316,0,0.641-0.027,0.972-0.091c2.209-0.419,4.028-2.243,5.409-5.421C1094.371,371.821,1094.168,371.305,1093.725,371.113z
	 M1060.875,366.791c3.102,0,5.625,2.523,5.625,5.625s-2.523,5.625-5.625,5.625s-5.625-2.523-5.625-5.625
	S1057.773,366.791,1060.875,366.791z"/>
<path fill="#231F20" d="M1034.572,366.867l-6.061-4.986c-0.244-0.183-1.516-1.077-2.686-0.841c-1.897,0.385-2.418,2.232-2.429,3.166
	l0.001,3.252c0,0.077,0.025,0.146,0.044,0.219c-0.673,0.318-1.144,1.006-1.144,1.809v3.104c-1.361,0.711-2.299,2.119-2.299,3.762
	c0,2.359,1.912,4.271,4.273,4.271c2.358,0,4.271-1.912,4.271-4.271c0-1.643-0.937-3.052-2.299-3.763v-3.103
	c0-0.801-0.47-1.488-1.143-1.809c0.02-0.071,0.045-0.141,0.045-0.219l-0.001-3.242c0-0.013,0.025-1.258,1.026-1.461
	c0.251-0.049,0.895,0.236,1.258,0.503l6.008,4.943c0.059,0.052,1.419,1.284,1.419,3.452v4.926c0.002,0.789-0.213,3.203-1.253,3.982
	l-4.127,3.67c-0.342,0.252-1.724,1.419-1.617,3.773c0.021,0.469,0.408,0.835,0.873,0.835c0.014,0,0.027-0.001,0.041-0.001
	c0.482-0.021,0.855-0.431,0.834-0.914c-0.072-1.59,0.861-2.254,0.891-2.273c0.037-0.025,0.073-0.052,0.107-0.082l4.103-3.652
	c1.855-1.383,1.899-4.941,1.898-5.34v-4.924C1036.608,368.661,1034.671,366.952,1034.572,366.867z M1025.246,375.122
	c0,0.55-0.438,1-0.975,1c-0.535,0-0.973-0.45-0.973-1v-5.637c0-0.551,0.438-1,0.973-1c0.536,0,0.975,0.449,0.975,1V375.122z"/>
<g>
	<path fill="#F35429" d="M421,441.75c0.133,0,0.25,0.117,0.25,0.25v1c0,0.133-0.117,0.25-0.25,0.25h-29
		c-0.133,0-0.25-0.117-0.25-0.25v-1c0-0.133,0.117-0.25,0.25-0.25H421 M421,440h-29c-1.1,0-2,0.9-2,2v1c0,1.1,0.9,2,2,2h29
		c1.1,0,2-0.9,2-2v-1C423,440.901,422.1,440,421,440L421,440z"/>
</g>
<g>
	<path fill="#F35429" d="M419,422.75c0.133,0,0.25,0.117,0.25,0.25v14c0,0.133-0.117,0.25-0.25,0.25h-25
		c-0.133,0-0.25-0.117-0.25-0.25v-14c0-0.133,0.117-0.25,0.25-0.25H419 M419,421h-25c-1.1,0-2,0.9-2,2v14c0,1.1,0.9,2,2,2h25
		c1.1,0,2-0.9,2-2v-14C421,421.901,420.1,421,419,421L419,421z"/>
</g>
<path fill="#F35429" d="M493.875,441.75h-12c-1.034,0-1.875-0.842-1.875-1.875v-7c0-1.033,0.841-1.875,1.875-1.875
	c0.066,0,0.125-0.059,0.125-0.125v-3c0-0.066-0.059-0.125-0.125-0.125c-1.034,0-1.875-0.842-1.875-1.875v-3
	c0-1.033,0.841-1.875,1.875-1.875h9c0.777,0,1.776,0.414,2.326,0.963l1.586,1.586c0.549,0.55,0.963,1.549,0.963,2.326v14
	C495.75,440.909,494.909,441.75,493.875,441.75z M481.875,422.75c-0.066,0-0.125,0.059-0.125,0.125v3
	c0,0.066,0.059,0.125,0.125,0.125c1.034,0,1.875,0.842,1.875,1.875v3c0,1.033-0.841,1.875-1.875,1.875
	c-0.066,0-0.125,0.059-0.125,0.125v7c0,0.066,0.059,0.125,0.125,0.125h12c0.066,0,0.125-0.059,0.125-0.125v-14
	c0-0.316-0.228-0.865-0.451-1.088l-1.586-1.586c-0.223-0.224-0.772-0.451-1.088-0.451H481.875z"/>
<path fill="#F35429" d="M492.875,436.875c0,1.1-0.9,2-2,2h-6c-1.1,0-2-0.9-2-2v-2c0-1.1,0.9-2,2-2h6c1.1,0,2,0.9,2,2V436.875z"/>
<path fill="#F35429" d="M490.322,424.77c-0.246-0.492-0.648-0.492-0.895,0l-1.105,2.211c-0.246,0.492,0.003,0.895,0.553,0.895h2
	c0.55,0,0.799-0.402,0.553-0.895L490.322,424.77z"/>
<path fill="#F35429" d="M542,421h-30c-1.1,0-2,0.9-2,2v17c0,1.1,0.9,2,2,2h13v3.125h-7c-0.483,0-0.875,0.392-0.875,0.875
	s0.392,0.875,0.875,0.875h18c0.483,0,0.875-0.392,0.875-0.875s-0.392-0.875-0.875-0.875h-7V442h13c1.1,0,2-0.9,2-2v-17
	C544,421.901,543.1,421,542,421z M542.25,440c0,0.133-0.117,0.25-0.25,0.25h-30c-0.133,0-0.25-0.117-0.25-0.25v-17
	c0-0.133,0.117-0.25,0.25-0.25h30c0.133,0,0.25,0.117,0.25,0.25V440z"/>
<path fill="#F35429" d="M605,421h-33c-1.1,0-2,0.9-2,2v12c0,1.1,0.9,2,2,2h1v1c0,0.55,0.45,1,1,1h1c0.55,0,1-0.45,1-1v-1h25v1
	c0,0.55,0.45,1,1,1h1c0.55,0,1-0.45,1-1v-1h1c1.1,0,2-0.9,2-2v-12C607,421.901,606.1,421,605,421z M605.25,435
	c0,0.133-0.117,0.25-0.25,0.25h-33c-0.133,0-0.25-0.117-0.25-0.25v-12c0-0.133,0.117-0.25,0.25-0.25h33
	c0.133,0,0.25,0.117,0.25,0.25V435z"/>
<path fill="#F35429" d="M598,424.126c-2.688,0-4.875,2.187-4.875,4.875s2.187,4.875,4.875,4.875s4.875-2.187,4.875-4.875
	S600.688,424.126,598,424.126z M598,432.126c-1.723,0-3.125-1.401-3.125-3.125s1.402-3.125,3.125-3.125s3.125,1.401,3.125,3.125
	S599.723,432.126,598,432.126z"/>
<path fill="#F35429" d="M582,425.5h-7c-0.276,0-0.5,0.224-0.5,0.5s0.224,0.5,0.5,0.5h7c0.276,0,0.5-0.224,0.5-0.5
	S582.276,425.5,582,425.5z"/>
<path fill="#F35429" d="M582,428.5h-7c-0.276,0-0.5,0.224-0.5,0.5s0.224,0.5,0.5,0.5h7c0.276,0,0.5-0.224,0.5-0.5
	S582.276,428.5,582,428.5z"/>
<path fill="#F35429" d="M582,431.5h-7c-0.276,0-0.5,0.224-0.5,0.5s0.224,0.5,0.5,0.5h7c0.276,0,0.5-0.224,0.5-0.5
	S582.276,431.5,582,431.5z"/>
<path fill="#F35429" d="M637.001,423.487l3.54,6.139c0.494,0.855,1.23,2.328,1.642,3.279c0.02,0.11,0.067,0.438,0.067,1.078
	c0,2.895-2.355,5.25-5.25,5.25s-5.25-2.355-5.25-5.25c0-0.641,0.047-0.967,0.067-1.078c0.413-0.953,1.148-2.425,1.642-3.28
	L637.001,423.487 M637,421c-0.362,0-0.725,0.238-0.999,0.715l-4.058,7.035c-0.549,0.952-1.351,2.561-1.781,3.572
	c0,0-0.163,0.383-0.163,1.66c0,3.865,3.135,7,7,7c3.866,0,7-3.135,7-7c0-1.277-0.162-1.659-0.162-1.659
	c-0.43-1.013-1.231-2.621-1.781-3.573L638,421.715C637.725,421.239,637.362,421,637,421L637,421z"/>
<path fill="#F35429" d="M670,435v-9c0-2.762-2.238-5-5-5s-5,2.238-5,5v9c0,2.467,1.792,4.506,4.143,4.914
	c-0.003,0.029-0.018,0.055-0.018,0.086v6c0,0.045,0.019,0.082,0.025,0.125H661c-0.483,0-0.875,0.392-0.875,0.875
	s0.392,0.875,0.875,0.875h8c0.483,0,0.875-0.392,0.875-0.875s-0.392-0.875-0.875-0.875h-3.15c0.006-0.043,0.025-0.08,0.025-0.125v-6
	c0-0.031-0.015-0.057-0.018-0.086C668.208,439.506,670,437.467,670,435z M668.25,435c0,1.792-1.458,3.25-3.25,3.25
	s-3.25-1.458-3.25-3.25v-9c0-1.792,1.458-3.25,3.25-3.25s3.25,1.458,3.25,3.25V435z"/>
<path fill="#F35429" d="M701.625,426.164v-2.288c0-0.483-0.392-0.875-0.875-0.875s-0.875,0.392-0.875,0.875v2.288
	c-1.062,0.18-1.875,1.1-1.875,2.212v7c0,1.112,0.813,2.032,1.875,2.212v5.288c0,1.723-1.402,3.125-3.125,3.125
	s-3.125-1.402-3.125-3.125v-7.288c1.062-0.18,1.875-1.1,1.875-2.212v-7c0-1.112-0.813-2.032-1.875-2.212v-2.288
	c0-0.483-0.392-0.875-0.875-0.875s-0.875,0.392-0.875,0.875v2.288c-1.062,0.18-1.875,1.1-1.875,2.212v7
	c0,1.112,0.813,2.032,1.875,2.212v7.288c0,2.688,2.187,4.875,4.875,4.875s4.875-2.188,4.875-4.875v-5.288
	c1.062-0.18,1.875-1.1,1.875-2.212v-7C703.5,427.263,702.687,426.343,701.625,426.164z M692.25,425.875h1c0.275,0,0.5,0.225,0.5,0.5
	v2.5h-2v-2.5C691.75,426.1,691.975,425.875,692.25,425.875z M701.75,435.375c0,0.275-0.225,0.5-0.5,0.5h-1
	c-0.275,0-0.5-0.225-0.5-0.5v-7c0-0.275,0.225-0.5,0.5-0.5h1c0.275,0,0.5,0.225,0.5,0.5V435.375z"/>
<g>
	<path fill="#F35429" d="M467,422.75c0.133,0,0.25,0.117,0.25,0.25v22c0,0.133-0.117,0.25-0.25,0.25h-15
		c-0.133,0-0.25-0.117-0.25-0.25v-22c0-0.133,0.117-0.25,0.25-0.25H467 M467,421h-15c-1.1,0-2,0.9-2,2v22c0,1.1,0.9,2,2,2h15
		c1.1,0,2-0.9,2-2v-22C469,421.901,468.1,421,467,421L467,421z"/>
</g>
<g>
	<path fill="#F35429" d="M465,425v16h-11v-16H465 M466,424h-13v18h13V424L466,424z"/>
</g>
<g>
	<path fill="#F35429" d="M733,422.75c6.203,0,11.25,5.047,11.25,11.25s-5.047,11.25-11.25,11.25s-11.25-5.047-11.25-11.25
		S726.797,422.75,733,422.75 M733,421c-7.18,0-13,5.82-13,13s5.82,13,13,13s13-5.82,13-13S740.18,421,733,421L733,421z"/>
</g>
<g>
	<path fill="#F35429" d="M733,430c2.206,0,4,1.795,4,4s-1.794,4-4,4s-4-1.795-4-4S730.794,430,733,430 M733,429
		c-2.762,0-5,2.238-5,5s2.238,5,5,5s5-2.238,5-5S735.762,429,733,429L733,429z"/>
</g>
<g>
	<path fill="#F35429" d="M733,432.5c0.827,0,1.5,0.673,1.5,1.5s-0.673,1.5-1.5,1.5s-1.5-0.673-1.5-1.5S732.173,432.5,733,432.5
		 M733,431.5c-1.381,0-2.5,1.119-2.5,2.5s1.119,2.5,2.5,2.5s2.5-1.119,2.5-2.5S734.381,431.5,733,431.5L733,431.5z"/>
</g>
<path fill="#F35429" d="M776.867,442.75h-12.084c-0.483,0-0.875-0.392-0.875-0.875v-11.5c0-0.484,0.392-0.875,0.875-0.875h16.334
	c0.483,0,0.875,0.391,0.875,0.875v7.25C781.992,440.452,779.693,442.75,776.867,442.75z M765.658,441h11.209
	c1.861,0,3.375-1.514,3.375-3.375v-6.375h-14.584V441z"/>
<path fill="#F35429" d="M781.504,421h-30.629c-0.483,0-0.875,0.392-0.875,0.875v9.272c0,0.483,0.392,0.875,0.875,0.875h3.762v3.671
	c0,3.891,3.165,7.057,7.056,7.057c0.483,0,0.875-0.392,0.875-0.875v-13.717h18.937c1.974,0,3.58-1.605,3.58-3.578
	C785.084,422.606,783.478,421,781.504,421z M751.75,422.75h1.482v7.522h-1.482V422.75z M781.504,426.409h-19.812
	c-0.483,0-0.875,0.393-0.875,0.875v13.645c-2.511-0.418-4.431-2.606-4.431-5.234v-4.546c0-0.483-0.392-0.875-0.875-0.875h-1.279
	v-7.522h27.271c1.009,0,1.83,0.82,1.83,1.83C783.334,425.588,782.513,426.409,781.504,426.409z"/>
<path fill="#F35429" d="M842.625,448.75h-19.75c-0.483,0-0.875-0.392-0.875-0.875v-16c0-0.483,0.392-0.875,0.875-0.875h24
	c0.483,0,0.875,0.392,0.875,0.875v11.75C847.75,446.452,845.451,448.75,842.625,448.75z M823.75,447h18.875
	c1.861,0,3.375-1.514,3.375-3.375V432.75h-22.25V447z"/>
<path fill="#F35429" d="M814.875,444.75h-4c-0.483,0-0.875-0.392-0.875-0.875v-10c0-0.483,0.392-0.875,0.875-0.875h4
	c0.292,0,0.566,0.146,0.728,0.39l1.074,1.61h3.198c0.483,0,0.875,0.393,0.875,0.875v6c0,0.484-0.392,0.875-0.875,0.875h-3.199
	l-1.073,1.61C815.441,444.604,815.167,444.75,814.875,444.75z M811.75,443h2.657l1.073-1.609c0.162-0.244,0.436-0.391,0.728-0.391
	H819v-4.25h-2.791c-0.292,0-0.566-0.146-0.728-0.389l-1.074-1.611h-2.657V443z"/>
<path fill="#F35429" d="M844.875,429.75h-4c-0.275,0-0.535-0.13-0.7-0.35l-2.737-3.65h-6.688v3.125c0,0.483-0.392,0.875-0.875,0.875
	h-3c-0.483,0-0.875-0.392-0.875-0.875v-7c0-0.483,0.392-0.875,0.875-0.875h13c0.282,0,0.548,0.137,0.712,0.366l5,7
	c0.19,0.267,0.216,0.618,0.066,0.909C845.503,429.567,845.203,429.75,844.875,429.75z M841.312,428h1.862l-3.75-5.25H827.75V428H829
	v-3.125c0-0.483,0.392-0.875,0.875-0.875h8c0.275,0,0.535,0.13,0.7,0.35L841.312,428z"/>
<path fill="#F35429" d="M875.875,427.75h-5c-0.483,0-0.875-0.392-0.875-0.875v-5c0-0.483,0.392-0.875,0.875-0.875h5
	c0.483,0,0.875,0.392,0.875,0.875v5C876.75,427.359,876.358,427.75,875.875,427.75z M871.75,426H875v-3.25h-3.25V426z"/>
<path fill="#F35429" d="M885.875,427.75h-5c-0.483,0-0.875-0.392-0.875-0.875v-5c0-0.483,0.392-0.875,0.875-0.875h5
	c0.483,0,0.875,0.392,0.875,0.875v5C886.75,427.359,886.358,427.75,885.875,427.75z M881.75,426H885v-3.25h-3.25V426z"/>
<path fill="#F35429" d="M895.875,427.75h-5c-0.483,0-0.875-0.392-0.875-0.875v-5c0-0.483,0.392-0.875,0.875-0.875h5
	c0.483,0,0.875,0.392,0.875,0.875v5C896.75,427.359,896.358,427.75,895.875,427.75z M891.75,426H895v-3.25h-3.25V426z"/>
<path fill="#F35429" d="M875.875,437.75h-5c-0.483,0-0.875-0.392-0.875-0.875v-5c0-0.483,0.392-0.875,0.875-0.875h5
	c0.483,0,0.875,0.392,0.875,0.875v5C876.75,437.359,876.358,437.75,875.875,437.75z M871.75,436H875v-3.25h-3.25V436z"/>
<path fill="#F35429" d="M885.875,437.75h-5c-0.483,0-0.875-0.392-0.875-0.875v-5c0-0.483,0.392-0.875,0.875-0.875h5
	c0.483,0,0.875,0.392,0.875,0.875v5C886.75,437.359,886.358,437.75,885.875,437.75z M881.75,436H885v-3.25h-3.25V436z"/>
<path fill="#F35429" d="M895.875,437.75h-5c-0.483,0-0.875-0.392-0.875-0.875v-5c0-0.483,0.392-0.875,0.875-0.875h5
	c0.483,0,0.875,0.392,0.875,0.875v5C896.75,437.359,896.358,437.75,895.875,437.75z M891.75,436H895v-3.25h-3.25V436z"/>
<path fill="#F35429" d="M875.875,447.75h-5c-0.483,0-0.875-0.392-0.875-0.875v-5c0-0.483,0.392-0.875,0.875-0.875h5
	c0.483,0,0.875,0.392,0.875,0.875v5C876.75,447.359,876.358,447.75,875.875,447.75z M871.75,446H875v-3.25h-3.25V446z"/>
<path fill="#F35429" d="M885.875,447.75h-5c-0.483,0-0.875-0.392-0.875-0.875v-5c0-0.483,0.392-0.875,0.875-0.875h5
	c0.483,0,0.875,0.392,0.875,0.875v5C886.75,447.359,886.358,447.75,885.875,447.75z M881.75,446H885v-3.25h-3.25V446z"/>
<path fill="#F35429" d="M895.875,447.75h-5c-0.483,0-0.875-0.392-0.875-0.875v-5c0-0.483,0.392-0.875,0.875-0.875h5
	c0.483,0,0.875,0.392,0.875,0.875v5C896.75,447.359,896.358,447.75,895.875,447.75z M891.75,446H895v-3.25h-3.25V446z"/>
<g>
	<g>
		<g>
			<path fill="#F35429" d="M905.199,425.2c0,0.551-0.45,1-1,1H901c-0.55,0-1-0.449-1-1V422c0-0.55,0.45-1,1-1h3.199
				c0.55,0,1,0.45,1,1V425.2z"/>
		</g>
		<g>
			<path fill="#F35429" d="M915.6,425.2c0,0.551-0.45,1-1,1H911.4c-0.55,0-1-0.449-1-1V422c0-0.55,0.45-1,1-1h3.199
				c0.55,0,1,0.45,1,1V425.2z"/>
		</g>
		<g>
			<path fill="#F35429" d="M926,425.2c0,0.551-0.45,1-1,1h-3.2c-0.55,0-1-0.449-1-1V422c0-0.55,0.45-1,1-1h3.2c0.55,0,1,0.45,1,1
				V425.2z"/>
		</g>
		<g>
			<path fill="#F35429" d="M905.199,435.6c0,0.55-0.45,1-1,1H901c-0.55,0-1-0.45-1-1v-3.199c0-0.551,0.45-1,1-1h3.199
				c0.55,0,1,0.449,1,1V435.6z"/>
		</g>
		<g>
			<path fill="#F35429" d="M915.6,435.6c0,0.55-0.45,1-1,1H911.4c-0.55,0-1-0.45-1-1v-3.199c0-0.551,0.45-1,1-1h3.199
				c0.55,0,1,0.449,1,1V435.6z"/>
		</g>
		<g>
			<path fill="#F35429" d="M926,435.6c0,0.55-0.45,1-1,1h-3.2c-0.55,0-1-0.45-1-1v-3.199c0-0.551,0.45-1,1-1h3.2c0.55,0,1,0.449,1,1
				V435.6z"/>
		</g>
		<g>
			<path fill="#F35429" d="M905.199,446c0,0.549-0.45,1-1,1H901c-0.55,0-1-0.451-1-1v-3.2c0-0.55,0.45-1,1-1h3.199
				c0.55,0,1,0.45,1,1V446z"/>
		</g>
		<g>
			<path fill="#F35429" d="M915.6,446c0,0.549-0.45,1-1,1H911.4c-0.55,0-1-0.451-1-1v-3.2c0-0.55,0.45-1,1-1h3.199
				c0.55,0,1,0.45,1,1V446z"/>
		</g>
		<g>
			<path fill="#F35429" d="M926,446c0,0.549-0.45,1-1,1h-3.2c-0.55,0-1-0.451-1-1v-3.2c0-0.55,0.45-1,1-1h3.2c0.55,0,1,0.45,1,1V446
				z"/>
		</g>
	</g>
</g>
<path fill="#F35429" d="M953.875,434.25c-0.482,0-0.875-0.392-0.875-0.875v-1c0-5.307-4.317-9.625-9.625-9.625
	c-5.307,0-9.625,4.318-9.625,9.625v1c0,0.483-0.391,0.875-0.875,0.875c-0.482,0-0.875-0.392-0.875-0.875v-1
	c0-6.271,5.104-11.375,11.375-11.375c6.272,0,11.375,5.104,11.375,11.375v1C954.75,433.859,954.359,434.25,953.875,434.25z"/>
<path fill="#F35429" d="M953.875,447.25c-1.585,0-2.875-1.289-2.875-2.875v-6c0-1.586,1.29-2.875,2.875-2.875
	c1.586,0,2.875,1.289,2.875,2.875v6C956.75,445.961,955.461,447.25,953.875,447.25z M953.875,437.25
	c-0.619,0-1.125,0.505-1.125,1.125v6c0,0.62,0.506,1.125,1.125,1.125c0.621,0,1.125-0.505,1.125-1.125v-6
	C955,437.755,954.496,437.25,953.875,437.25z"/>
<path fill="#F35429" d="M932.875,447.25c-1.585,0-2.875-1.289-2.875-2.875v-6c0-1.586,1.29-2.875,2.875-2.875
	c1.586,0,2.875,1.289,2.875,2.875v6C935.75,445.961,934.461,447.25,932.875,447.25z M932.875,437.25
	c-0.619,0-1.125,0.505-1.125,1.125v6c0,0.62,0.506,1.125,1.125,1.125c0.621,0,1.125-0.505,1.125-1.125v-6
	C934,437.755,933.496,437.25,932.875,437.25z"/>
<path fill="#F35429" d="M977.202,421.11l-6.8-0.002c-1.586,0-2.876,1.29-2.876,2.875l-0.001,0.801c0,1.586,1.29,2.875,2.875,2.875
	l5.238,0.001V444c0,0.276,0.224,0.5,0.5,0.5s0.5-0.224,0.5-0.5V427.66h0.563c1.585,0,2.875-1.29,2.875-2.875v-0.8
	C980.077,422.399,978.787,421.11,977.202,421.11z M978.327,424.785c0,0.62-0.505,1.125-1.125,1.125l-6.802-0.001
	c-0.62,0-1.125-0.504-1.125-1.123l0.001-0.803c0-0.619,0.505-1.125,1.126-1.125l6.8,0.002c0.62,0,1.125,0.504,1.125,1.125V424.785z"
	/>
<path fill="#F35429" d="M964.424,421c-0.619,0-1.814,0.355-2.719,0.809c-0.939,0.471-1.705,1.625-1.705,2.574
	c0,0.948,0.766,2.103,1.705,2.574c0.904,0.453,2.1,0.808,2.717,0.808c0.846,0.001,1.302-1.474,1.302-2.862v-1.041
	C965.724,422.476,965.268,421,964.424,421z"/>
<path fill="#F35429" d="M994.6,421.108l-6.801,0.002c-1.585,0-2.875,1.289-2.875,2.875v0.8c0,1.585,1.29,2.875,2.875,2.875h0.564
	V444c0,0.276,0.224,0.5,0.5,0.5s0.5-0.224,0.5-0.5V427.66l5.237-0.001c1.585,0,2.874-1.289,2.874-2.875v-0.801
	C997.475,422.398,996.185,421.108,994.6,421.108z M995.725,424.784c0,0.621-0.504,1.125-1.124,1.125l-6.802,0.001
	c-0.62,0-1.125-0.505-1.125-1.125v-0.8c0-0.621,0.505-1.125,1.125-1.125l6.801-0.002c0.62,0,1.125,0.506,1.125,1.125V424.784z"/>
<path fill="#F35429" d="M1003.295,421.809c-0.904-0.453-2.1-0.809-2.717-0.809c-0.846,0-1.301,1.476-1.301,2.861v1.041
	c0,1.389,0.457,2.863,1.301,2.862c0.619,0,1.814-0.354,2.718-0.808c0.94-0.472,1.704-1.626,1.704-2.574
	C1005,423.434,1004.236,422.28,1003.295,421.809z"/>
<path fill="#F35429" d="M1060.875,435.416c1.654,0,3-1.346,3-3s-1.346-3-3-3s-3,1.346-3,3S1059.221,435.416,1060.875,435.416z
	 M1060.875,430.416c1.104,0,2,0.897,2,2s-0.896,2-2,2s-2-0.897-2-2S1059.771,430.416,1060.875,430.416z"/>
<path fill="#F35429" d="M1093.725,431.113c-0.443-0.192-0.959,0.011-1.152,0.454c-1.133,2.609-2.52,4.089-4.122,4.397
	c-2.296,0.442-4.437-1.647-4.448-1.66c-13.715-14.04-22.703-13.382-23.688-13.264c-5.501,0.039-10.314,5.337-10.314,11.375v0.875
	h3.557c0.436,3.655,3.549,6.5,7.318,6.5c4.066,0,7.375-3.309,7.375-7.375s-3.309-7.375-7.375-7.375c-3.77,0-6.883,2.845-7.318,6.5
	h-1.762c0.432-4.296,3.959-8.75,8.58-8.75l0.132-0.01c0.085-0.013,8.733-1.083,22.25,12.753c0.101,0.102,2.277,2.242,5.04,2.242
	c0.316,0,0.641-0.027,0.972-0.091c2.209-0.419,4.028-2.243,5.409-5.421C1094.371,431.821,1094.168,431.305,1093.725,431.113z
	 M1060.875,426.791c3.102,0,5.625,2.523,5.625,5.625s-2.523,5.625-5.625,5.625s-5.625-2.523-5.625-5.625
	S1057.773,426.791,1060.875,426.791z"/>
<path fill="#F35429" d="M1034.572,426.867l-6.061-4.986c-0.244-0.183-1.516-1.077-2.686-0.841c-1.897,0.385-2.418,2.232-2.429,3.166
	l0.001,3.252c0,0.077,0.025,0.146,0.044,0.219c-0.673,0.318-1.144,1.006-1.144,1.809v3.104c-1.361,0.711-2.299,2.119-2.299,3.762
	c0,2.359,1.912,4.271,4.273,4.271c2.358,0,4.271-1.912,4.271-4.271c0-1.643-0.937-3.052-2.299-3.763v-3.103
	c0-0.801-0.47-1.488-1.143-1.809c0.02-0.071,0.045-0.141,0.045-0.219l-0.001-3.242c0-0.013,0.025-1.258,1.026-1.461
	c0.251-0.049,0.895,0.236,1.258,0.503l6.008,4.943c0.059,0.052,1.419,1.284,1.419,3.452v4.926c0.002,0.789-0.213,3.203-1.253,3.982
	l-4.127,3.67c-0.342,0.252-1.724,1.419-1.617,3.773c0.021,0.469,0.408,0.835,0.873,0.835c0.014,0,0.027-0.001,0.041-0.001
	c0.482-0.021,0.855-0.431,0.834-0.914c-0.072-1.59,0.861-2.254,0.891-2.273c0.037-0.025,0.073-0.052,0.107-0.082l4.103-3.652
	c1.855-1.383,1.899-4.941,1.898-5.34v-4.924C1036.608,428.661,1034.671,426.952,1034.572,426.867z M1025.246,435.122
	c0,0.55-0.438,1-0.975,1c-0.535,0-0.973-0.45-0.973-1v-5.637c0-0.551,0.438-1,0.973-1c0.536,0,0.975,0.449,0.975,1V435.122z"/>
<path fill="#BCBCCC" d="M762.573,5.547l-1.936-0.077l-2.465-0.097l-0.188-0.495l0,0l-0.691-1.837l-0.691-1.837
	c-0.104-0.271-0.27-0.271-0.373,0l-0.691,1.837l-0.691,1.837l0,0l-0.188,0.495l-2.465,0.097l-1.936,0.077
	c-0.291,0.012-0.344,0.171-0.121,0.355c0,0.001,0,0.001,0.001,0.001l1.513,1.238l1.514,1.238l0.408,0.335l-0.139,0.51l-0.506,1.847
	l-0.506,1.847v0.001c-0.076,0.28,0.062,0.381,0.307,0.225l1.619-1.039l2.067-1.324l2.066,1.324l1.62,1.039
	c0.244,0.156,0.382,0.056,0.307-0.225v-0.001l-0.506-1.847l-0.506-1.847l-0.14-0.51l0.409-0.335l1.514-1.238l1.512-1.238
	c0.001,0,0.001,0,0.002-0.001C762.917,5.718,762.864,5.559,762.573,5.547z"/>
<path fill="#F35429" d="M762.573,65.547l-1.936-0.076l-2.465-0.098l-0.188-0.496l0,0l-0.691-1.836l-0.691-1.837
	c-0.104-0.271-0.27-0.271-0.373,0l-0.691,1.837l-0.691,1.836l0,0l-0.188,0.496l-2.465,0.098l-1.936,0.076
	c-0.291,0.012-0.344,0.171-0.121,0.355c0,0,0,0,0.001,0.001l1.513,1.237l1.514,1.239l0.408,0.336l-0.139,0.51l-0.506,1.846
	l-0.506,1.848l0,0c-0.076,0.281,0.062,0.381,0.307,0.225l1.619-1.039l2.067-1.324l2.066,1.324l1.62,1.039
	c0.244,0.156,0.382,0.057,0.307-0.225l0,0l-0.506-1.848l-0.506-1.846l-0.14-0.51l0.409-0.336l1.514-1.239l1.512-1.237
	c0.001-0.001,0.001-0.001,0.001-0.001C762.917,65.718,762.864,65.559,762.573,65.547z"/>
<path fill="#FFFFFF" d="M395.412,805.512h0.79v0.83c0.311-0.666,0.962-0.965,1.653-0.965c1.37,0,2.022,0.963,2.158,1.207
	c0.11-0.246,0.663-1.207,2.08-1.207c1.828,0,2.508,1.377,2.508,2.771v3.695h-0.843v-3.529c0-0.461-0.037-0.967-0.308-1.359
	c-0.335-0.49-0.831-0.762-1.395-0.762c-0.537,0-1.073,0.283-1.374,0.721c-0.269,0.396-0.259,0.939-0.259,1.4v3.529h-0.832v-3.617
	c0-0.48-0.027-0.844-0.3-1.268c-0.316-0.461-0.836-0.758-1.388-0.758c-0.529,0-1.045,0.225-1.361,0.672
	c-0.283,0.414-0.292,0.865-0.292,1.354v3.617h-0.839V805.512z"/>
<path fill="#FFFFFF" d="M412.247,811.844h-0.805v-1.188c-0.476,0.893-1.42,1.344-2.396,1.344c-1.58,0-3.336-1.117-3.336-3.357
	c0-2.08,1.684-3.266,3.315-3.266c0.973,0,1.957,0.438,2.417,1.336v-1.201h0.805V811.844z M406.549,808.711
	c0,1.393,1.176,2.469,2.497,2.469c1.292,0,2.396-1.133,2.396-2.461c0-1.398-1.043-2.525-2.417-2.525
	C407.666,806.194,406.549,807.172,406.549,808.711z"/>
<path fill="#FFFFFF" d="M413.914,803.293h0.84v6.006l2.846-3.787h1.063l-2.39,3.178l2.557,3.154h-1.081l-2.011-2.494l-0.984,1.295
	v1.199h-0.84V803.293z"/>
<path fill="#FFFFFF" d="M419.866,808.991c0.052,1.197,1.191,2.189,2.342,2.189c0.909,0,1.835-0.523,2.206-1.387h0.872
	c-0.432,1.271-1.695,2.207-3.007,2.207c-1.806,0-3.242-1.461-3.242-3.311c0-1.848,1.425-3.312,3.223-3.312
	c0.97,0,1.865,0.451,2.489,1.225c0.571,0.732,0.7,1.473,0.72,2.389H419.866z M424.627,808.211c-0.213-1.119-1.212-2.018-2.356-2.018
	c-1.172,0-2.198,0.846-2.404,2.018H424.627z"/>
<path fill="#FFFFFF" d="M431.906,803.293h0.835v3.346c0.436-0.787,1.424-1.262,2.338-1.262c1.84,0,3.35,1.371,3.35,3.279
	c0,2.137-1.738,3.344-3.267,3.344c-0.893,0-1.981-0.418-2.468-1.246v1.09h-0.788V803.293z M433.338,806.959
	c-0.487,0.506-0.66,1.08-0.66,1.771c0,1.416,1.126,2.449,2.484,2.449c1.343,0,2.434-1.133,2.434-2.5
	c0-1.439-1.113-2.486-2.492-2.486C434.437,806.194,433.804,806.477,433.338,806.959z"/>
<path fill="#FFFFFF" d="M440.246,808.991c0.044,1.197,1.189,2.189,2.339,2.189c0.912,0,1.836-0.523,2.216-1.387h0.871
	c-0.429,1.271-1.702,2.207-3.009,2.207c-1.815,0-3.246-1.461-3.246-3.311c0-1.848,1.422-3.312,3.214-3.312
	c0.985,0,1.868,0.451,2.497,1.225c0.574,0.732,0.699,1.473,0.727,2.389H440.246z M445.011,808.211
	c-0.21-1.119-1.218-2.018-2.362-2.018c-1.164,0-2.194,0.846-2.402,2.018H445.011z"/>
<path fill="#FFFFFF" d="M447.24,803.293h0.831v8.551h-0.831V803.293z"/>
<path fill="#FFFFFF" d="M449.673,803.293h0.834v1.457h-0.834V803.293z M449.673,805.512h0.834v6.332h-0.834V805.512z"/>
<path fill="#FFFFFF" d="M452.729,808.991c0.046,1.197,1.186,2.189,2.333,2.189c0.916,0,1.84-0.523,2.215-1.387h0.871
	c-0.431,1.271-1.693,2.207-3.007,2.207c-1.812,0-3.247-1.461-3.247-3.311c0-1.848,1.421-3.312,3.226-3.312
	c0.972,0,1.866,0.451,2.488,1.225c0.57,0.732,0.698,1.473,0.718,2.389H452.729z M457.489,808.211
	c-0.212-1.119-1.219-2.018-2.363-2.018c-1.162,0-2.194,0.846-2.396,2.018H457.489z"/>
<path fill="#FFFFFF" d="M458.583,805.512h0.906l2.136,5.242l2.142-5.242h0.905l-2.617,6.332h-0.869L458.583,805.512z"/>
<path fill="#FFFFFF" d="M465.764,808.991c0.049,1.197,1.194,2.189,2.331,2.189c0.912,0,1.849-0.523,2.214-1.387h0.872
	c-0.434,1.271-1.694,2.207-3.007,2.207c-1.809,0-3.244-1.461-3.244-3.311c0-1.848,1.423-3.312,3.22-3.312
	c0.974,0,1.873,0.451,2.488,1.225c0.584,0.732,0.71,1.473,0.726,2.389H465.764z M470.521,808.211
	c-0.213-1.119-1.214-2.018-2.358-2.018c-1.167,0-2.196,0.846-2.399,2.018H470.521z"/>
<path fill="#FFFFFF" d="M429.641,810.7c0,0.682-0.53,1.238-1.197,1.238c-0.661,0-1.201-0.557-1.201-1.238
	c0-0.676,0.54-1.232,1.201-1.232C429.11,809.467,429.641,810.024,429.641,810.7z"/>
<path fill="#FFFFFF" d="M421.706,797.049c-3.219,0-6.205-0.992-8.212-2.834c-1.501-1.383-2.235-3.27-2.235-5.201
	c0-1.91,0.764-3.818,2.235-5.199c1.858-1.727,5.137-2.814,8.212-2.814c3.426,0,6.15,0.887,8.232,2.824
	c1.486,1.385,2.205,3.27,2.205,5.189c0,1.857-0.76,3.838-2.205,5.201C428.005,796.073,424.944,797.049,421.706,797.049v-2.115
	c1.723,0,3.305-0.613,4.409-1.736c1.104-1.129,1.616-2.496,1.616-4.184c0-1.625-0.553-3.123-1.616-4.193
	c-1.089-1.1-2.718-1.73-4.409-1.73c-1.692,0-3.313,0.621-4.415,1.73c-1.048,1.07-1.604,2.58-1.604,4.193
	c0,1.604,0.562,3.109,1.604,4.184c1.102,1.117,2.723,1.736,4.415,1.736V797.049z M398.149,781.004c-1.724,0-3.688,0.344-5.341,1.098
	c-1.542,0.705-2.809,1.838-2.809,3.729c0,1.688,1.053,2.68,1.021,2.65c0.453,0.426,1.176,1.146,3.06,1.562
	c0.84,0.188,2.637,0.473,4.436,0.678c1.775,0.189,3.532,0.371,4.247,0.555c0.567,0.148,1.513,0.352,1.513,1.439
	c0,1.096-1.001,1.424-1.179,1.494c-0.178,0.074-1.375,0.637-3.542,0.637c-1.597,0-3.514-0.49-4.215-0.74
	c-0.802-0.295-1.645-0.691-2.437-1.68c-0.195-0.244-0.495-0.918-0.495-1.582h-1.972v5.611h2.177c0,0,0-0.607,0-0.756
	c0-0.076,0.114-0.441,0.47-0.266c0.452,0.215,1.787,0.75,3.19,1.049c1.137,0.244,1.876,0.416,3.293,0.416
	c2.322,0,3.568-0.383,4.425-0.635c0.826-0.242,1.829-0.672,2.634-1.33c0.441-0.354,1.4-1.281,1.4-2.949
	c0-1.611-0.831-2.611-1.136-2.91c-0.402-0.414-0.889-0.732-1.405-0.979c-0.452-0.213-1.157-0.477-1.731-0.615
	c-1.126-0.291-3.66-0.637-4.864-0.762c-1.271-0.143-3.483-0.326-4.355-0.607c-0.271-0.08-0.819-0.354-0.819-0.996
	c0-0.457,0.259-0.85,0.747-1.172c0.776-0.498,2.364-0.805,3.999-0.805c1.952-0.004,3.594,0.439,4.637,0.922
	c0.359,0.178,0.772,0.4,1.108,0.678c0.374,0.311,0.892,0.957,1.084,1.859h1.76v-4.883h-1.959v0.566c0,0.186-0.185,0.42-0.54,0.23
	C403.674,782.034,401.195,781.018,398.149,781.004z M434.29,781.909v1.777h1.52c1.101,0,1.182,0.631,1.182,1.172v8.34
	c0,0.506,0.029,1.182-0.676,1.182c-1.102,0-1.888,0-1.888,0v1.783h8.042v-1.783c0,0-0.857,0-1.959,0
	c-0.779,0-0.824-0.359-0.836-1.146v-7.139l11.023,10.068h2.801l-0.146-11.371c0.02-0.826,0.062-1.109,0.897-1.109
	c1.11,0,1.76,0,1.76,0v-1.773h-8.187v1.773c0,0,0.7,0,1.803,0c0.819,0,0.967,0.332,0.972,1.109l0.1,5.949l-9.566-8.832H434.29z
	 M463.655,794.379v1.783h9.543v-1.787c0,0-1.453,0-1.807,0l-0.473-0.029c-0.19-0.051-0.322-0.188-0.373-0.332l-0.039-0.391
	c0-0.262,0-2.703,0-2.814l0.072-0.268c0.129-0.154,5.065-5.928,5.292-6.178c0.477-0.562,0.735-0.682,1.373-0.682
	c0.593,0,1.756,0,1.756,0v-1.773h-7.863v1.773c0,0,0.964,0,1.178,0c0.351,0,0.445,0.361,0.298,0.557l-3.343,3.996l-0.097-0.01
	l-3.255-3.986c-0.233-0.299-0.041-0.557,0.212-0.557c0.236,0,1.159,0,1.159,0v-1.773h-9.597v1.773c0,0,1.108,0,1.71,0
	c0.742,0,1.224,0.48,1.504,0.795c0.224,0.248,5.11,5.922,5.224,6.082c0.124,0.156,0.124,0.182,0.124,0.25v2.814l-0.032,0.391
	c-0.073,0.145-0.191,0.281-0.377,0.332l-0.48,0.033H463.655z"/>
<path fill="#726E7A" d="M404.243,4.567c0-1.969-1.667-3.566-3.723-3.566c-1.474-0.001-2.794,1.397-3.398,2.588h-0.001
	C396.518,2.399,395.197,1,393.724,1C391.667,1,390,2.597,390,4.567c0,1.123,1.021,2.289,1.021,2.289l3.729,4.198l-0.007,0.001
	l2.375,2.834v0.001h0l0.001,0.001v-0.002l2.376-2.834l-0.007-0.001l3.731-4.198C403.221,6.856,404.243,5.69,404.243,4.567z"/>
<path fill="#FFF915" d="M404.243,34.567c0-1.969-1.667-3.566-3.723-3.566c-1.474,0-2.794,1.398-3.398,2.588h-0.001
	c-0.604-1.189-1.924-2.588-3.397-2.588c-2.057,0-3.724,1.598-3.724,3.566c0,1.123,1.021,2.289,1.021,2.289l3.729,4.199h-0.007
	l2.375,2.834v0.002h0h0.001v-0.002l2.376-2.834h-0.007l3.731-4.199C403.221,36.856,404.243,35.69,404.243,34.567z"/>
<g>
	<g>
		<path fill="#726E7A" d="M420.25,1C420.112,1,420,1.112,420,1.25v1.375c0,0.137,0.112,0.25,0.25,0.25l1.564,0.008
			c0.138,0.001,0.285,0.108,0.328,0.239l2.28,6.981c0.042,0.131,0.19,0.238,0.328,0.238h9c0.138,0,0.292-0.105,0.343-0.232
			l2.813-7.003c0.051-0.128-0.019-0.231-0.157-0.231h-12.612c-0.138,0-0.27-0.111-0.293-0.246l-0.242-1.375
			c-0.024-0.135-0.156-0.246-0.293-0.246L420.25,1z M433.057,8.237c-0.042,0.131-0.188,0.238-0.326,0.238h-6.438
			c-0.138,0-0.277-0.109-0.31-0.242l-0.8-3.248c-0.033-0.133,0.053-0.242,0.19-0.242h8.541c0.138,0,0.216,0.107,0.174,0.238
			L433.057,8.237z"/>
	</g>
</g>
<g>
	<ellipse fill="#726E7A" cx="431.524" cy="13.596" rx="1.483" ry="1.393"/>
</g>
<g>
	<ellipse fill="#726E7A" cx="426.483" cy="13.596" rx="1.483" ry="1.393"/>
</g>
<g>
	<g>
		<path fill="#FFFFFF" d="M420.25,31c-0.138,0-0.25,0.111-0.25,0.25v1.375c0,0.137,0.112,0.25,0.25,0.25l1.564,0.008
			c0.138,0.001,0.285,0.108,0.328,0.239l2.28,6.981c0.042,0.131,0.19,0.238,0.328,0.238h9c0.138,0,0.292-0.105,0.343-0.232
			l2.813-7.003c0.051-0.128-0.019-0.231-0.157-0.231h-12.612c-0.138,0-0.27-0.111-0.293-0.246l-0.242-1.373
			c-0.024-0.136-0.156-0.247-0.293-0.247L420.25,31z M433.057,38.239c-0.042,0.131-0.188,0.238-0.326,0.238h-6.438
			c-0.138,0-0.277-0.109-0.31-0.243l-0.8-3.249c-0.033-0.133,0.053-0.242,0.19-0.242h8.541c0.138,0,0.216,0.107,0.174,0.238
			L433.057,38.239z"/>
	</g>
</g>
<g>
	<ellipse fill="#FFFFFF" cx="431.524" cy="43.596" rx="1.483" ry="1.393"/>
</g>
<g>
	<ellipse fill="#FFFFFF" cx="426.483" cy="43.596" rx="1.483" ry="1.393"/>
</g>
<polygon fill="#FFFFFF" points="849,4 846,4 846,1 843,1 843,4 840,4 840,7 843,7 843,10 846,10 846,7 849,7 "/>
<rect x="720" y="1" fill="#FFFFFF" width="4" height="4"/>
<rect x="726" y="1" fill="#FFFFFF" width="4" height="4"/>
<rect x="732" y="1" fill="#FFFFFF" width="4" height="4"/>
<rect x="720" y="13" fill="#FFFFFF" width="4" height="4"/>
<rect x="726" y="13" fill="#FFFFFF" width="4" height="4"/>
<rect x="732" y="13" fill="#FFFFFF" width="4" height="4"/>
<rect x="720" y="7" fill="#FFFFFF" width="4" height="4"/>
<rect x="726" y="7" fill="#FFFFFF" width="4" height="4"/>
<rect x="732" y="7" fill="#FFFFFF" width="4" height="4"/>
<path fill="#FFFFFF" d="M458.125,1c-3.09,0-5.604,2.334-5.604,5.203c0,1.125,0.39,2.166,1.046,3.018l-3.297,3.061
	c-0.36,0.336-0.36,0.883,0,1.217c0.36,0.336,0.95,0.336,1.311,0l3.296-3.061c0.918,0.607,2.037,0.971,3.248,0.971
	c3.091,0,5.604-2.334,5.604-5.205C463.729,3.334,461.216,1,458.125,1z M458.125,9.688c-2.068,0-3.75-1.562-3.75-3.484
	c0-1.92,1.682-3.482,3.75-3.482s3.751,1.562,3.751,3.482C461.876,8.125,460.193,9.688,458.125,9.688z"/>
<polygon fill="#726E7A" points="475,11.375 475,11.375 471.5,7.375 478.5,7.375 "/>
<path fill="#FFFFFF" d="M458.125,31c-3.09,0-5.604,2.334-5.604,5.205c0,1.123,0.39,2.164,1.046,3.016l-3.297,3.061
	c-0.36,0.336-0.36,0.883,0,1.217c0.36,0.336,0.95,0.336,1.311,0l3.296-3.061c0.918,0.607,2.037,0.971,3.248,0.971
	c3.091,0,5.604-2.334,5.604-5.203C463.729,33.334,461.216,31,458.125,31z M458.125,39.688c-2.068,0-3.75-1.562-3.75-3.482
	c0-1.922,1.682-3.484,3.75-3.484s3.751,1.562,3.751,3.484C461.876,38.125,460.193,39.688,458.125,39.688z"/>
<polygon fill="#FFFFFF" points="475,41.375 475,41.375 471.5,37.375 478.5,37.375 "/>
<polygon fill="#726E7A" points="483.5,5 483.5,5 480,1 487,1 "/>
<polygon fill="#FFFFFF" points="483.5,35 483.5,35 480,31 487,31 "/>
<polygon fill="#726E7A" points="513.5,1 513.5,1 517,5 510,5 "/>
<polygon fill="#FFFFFF" points="513.5,31 513.5,31 517,35 510,35 "/>
<polygon fill="#FFFFFF" points="573.5,1 573.5,1 577,5 570,5 "/>
<polygon fill="#4571EC" points="633.5,1 633.5,1 637,5 630,5 "/>
<polygon fill="#FFFFFF" points="543.5,5 543.5,5 540,1 547,1 "/>
<polygon fill="#4571EC" points="603.5,5 603.5,5 600,1 607,1 "/>
<polygon fill="#FFFFFF" points="401,751 401,751 412,760 390,760 "/>
<polygon fill="#FFFFFF" points="886,8 879,8 879,1 877,1 877,8 870,8 870,10 877,10 877,17 879,17 879,10 886,10 "/>
<polygon fill="#FFFFFF" points="914.364,13.95 909.414,9 914.364,4.051 912.95,2.637 908,7.586 903.051,2.637 901.637,4.051 
	906.586,9 901.637,13.95 903.051,15.364 908,10.415 912.95,15.364 "/>
<polygon fill="#FFFFFF" points="963,17.5 963,17.5 954,25.375 954,9.625 "/>
<polygon fill="#FFFFFF" points="930,17.5 930,17.5 939,25.375 939,9.625 "/>
<rect x="690" y="3.594" fill="#4571EC" width="7" height="2"/>
<polygon fill="#4571EC" points="700.376,4.735 700.376,4.735 696.106,8.469 696.106,1 "/>
<rect x="660" y="3.594" fill="#FFFFFF" width="7" height="2"/>
<polygon fill="#FFFFFF" points="670.376,4.735 670.376,4.735 666.106,8.469 666.106,1 "/>
<polygon fill="#BCBCCC" points="813.5,1 813.5,1 817,5 810,5 "/>
<polygon fill="#BCBCCC" points="813.5,12 813.5,12 817,8 810,8 "/>
<path fill="#DB4C25" d="M404.243,64.567c0-1.969-1.667-3.566-3.723-3.566c-1.474,0-2.794,1.398-3.398,2.588h-0.001
	c-0.604-1.189-1.924-2.588-3.397-2.588c-2.057,0-3.724,1.598-3.724,3.566c0,1.123,1.021,2.289,1.021,2.289l3.729,4.199h-0.007
	l2.375,2.834v0.002h0h0.001v-0.002l2.376-2.834h-0.007l3.731-4.199C403.221,66.856,404.243,65.69,404.243,64.567z"/>
<path fill="#BCBCCC" d="M792.573,5.547l-1.936-0.077l-2.465-0.097l-0.188-0.495l0,0l-0.691-1.837l-0.691-1.837
	c-0.104-0.271-0.27-0.271-0.373,0l-0.691,1.837l-0.691,1.837l0,0l-0.188,0.495l-2.465,0.097l-1.936,0.077
	c-0.291,0.012-0.344,0.171-0.121,0.355c0,0.001,0,0.001,0.001,0.001l1.513,1.238l1.514,1.238l0.408,0.335l-0.139,0.51l-0.506,1.847
	l-0.506,1.847v0.001c-0.076,0.28,0.062,0.381,0.307,0.225l1.619-1.039l2.067-1.324l2.066,1.324l1.62,1.039
	c0.244,0.156,0.382,0.056,0.307-0.225v-0.001l-0.506-1.847l-0.506-1.847l-0.14-0.51l0.409-0.335l1.514-1.238l1.512-1.238
	c0.001,0,0.001,0,0.002-0.001C792.917,5.718,792.864,5.559,792.573,5.547z"/>
<path fill="#BCBCCC" d="M790.103,73.144c0.244,0.156,0.382,0.056,0.307-0.225v-0.001l-0.506-1.847l-0.506-1.847l-0.14-0.51
	l0.409-0.335l1.514-1.238l1.512-1.238c0.001,0,0.001,0,0.002-0.001c0.223-0.185,0.17-0.344-0.121-0.355l-1.936-0.077l-2.465-0.097
	l-0.188-0.495l-0.691-1.837l-0.691-1.837c-0.052-0.136-0.119-0.204-0.187-0.204v9.78l2.066,1.324L790.103,73.144z"/>
<path fill="#F35429" d="M786.229,61.204l-0.691,1.837l-0.691,1.836l-0.188,0.496l-2.465,0.098l-1.936,0.076
	c-0.291,0.012-0.344,0.171-0.121,0.355c0,0,0,0,0.001,0.001l1.513,1.237l1.514,1.239l0.408,0.336l-0.139,0.51l-0.506,1.846
	l-0.506,1.848c-0.076,0.281,0.062,0.381,0.307,0.225l1.619-1.039l2.067-1.324V61C786.349,61,786.281,61.068,786.229,61.204z"/>
</svg>
