<?xml version="1.0" encoding="utf-8"?>
<!-- Generator: Adobe Illustrator 15.1.0, SVG Export Plug-In  -->
<!DOCTYPE svg PUBLIC "-//W3C//DTD SVG 1.1//EN" "http://www.w3.org/Graphics/SVG/1.1/DTD/svg11.dtd" [
	<!ENTITY ns_flows "http://ns.adobe.com/Flows/1.0/">
]>
<svg version="1.1"
	 xmlns="http://www.w3.org/2000/svg" xmlns:xlink="http://www.w3.org/1999/xlink" xmlns:a="http://ns.adobe.com/AdobeSVGViewerExtensions/3.0/"
	 x="0px" y="0px" width="89px" height="31px" viewBox="0 0 89 31" overflow="visible" enable-background="new 0 0 89 31"
	 xml:space="preserve">
<defs>
</defs>
<path fill="#FFFFFF" d="M5.412,24.511h0.79v0.831c0.311-0.667,0.962-0.965,1.653-0.965c1.37,0,2.022,0.963,2.158,1.207
	c0.11-0.246,0.663-1.207,2.08-1.207c1.828,0,2.508,1.377,2.508,2.771v3.695h-0.843v-3.53c0-0.46-0.037-0.967-0.308-1.359
	c-0.335-0.489-0.831-0.762-1.395-0.762c-0.537,0-1.073,0.283-1.374,0.722c-0.269,0.396-0.259,0.939-0.259,1.399v3.53H9.592v-3.617
	c0-0.48-0.027-0.844-0.3-1.269c-0.316-0.46-0.836-0.757-1.388-0.757c-0.529,0-1.045,0.224-1.361,0.671
	c-0.283,0.414-0.292,0.865-0.292,1.354v3.617H5.412V24.511z"/>
<path fill="#FFFFFF" d="M22.247,30.844h-0.805v-1.188C20.967,30.549,20.022,31,19.046,31c-1.58,0-3.336-1.117-3.336-3.358
	c0-2.079,1.684-3.265,3.315-3.265c0.973,0,1.957,0.438,2.417,1.336v-1.202h0.805V30.844z M16.549,27.71
	c0,1.394,1.176,2.47,2.497,2.47c1.292,0,2.396-1.134,2.396-2.461c0-1.398-1.043-2.526-2.417-2.526
	C17.666,25.192,16.549,26.171,16.549,27.71z"/>
<path fill="#FFFFFF" d="M23.914,22.293h0.84v6.005l2.846-3.787h1.063l-2.39,3.179l2.557,3.154h-1.081l-2.011-2.494l-0.984,1.295
	v1.199h-0.84V22.293z"/>
<path fill="#FFFFFF" d="M29.866,27.989c0.052,1.197,1.191,2.19,2.342,2.19c0.909,0,1.835-0.524,2.206-1.388h0.872
	C34.854,30.064,33.591,31,32.279,31c-1.806,0-3.242-1.462-3.242-3.311s1.425-3.312,3.223-3.312c0.97,0,1.865,0.451,2.489,1.225
	c0.571,0.731,0.7,1.472,0.72,2.388H29.866z M34.627,27.211c-0.213-1.12-1.212-2.019-2.356-2.019c-1.172,0-2.198,0.846-2.404,2.019
	H34.627z"/>
<path fill="#FFFFFF" d="M41.906,22.293h0.835v3.345c0.436-0.787,1.424-1.261,2.338-1.261c1.84,0,3.35,1.37,3.35,3.279
	c0,2.137-1.738,3.344-3.267,3.344c-0.893,0-1.981-0.418-2.468-1.246v1.09h-0.788V22.293z M43.338,25.958
	c-0.487,0.507-0.66,1.081-0.66,1.772c0,1.415,1.126,2.449,2.484,2.449c1.343,0,2.434-1.134,2.434-2.501
	c0-1.438-1.113-2.486-2.492-2.486C44.437,25.192,43.804,25.476,43.338,25.958z"/>
<path fill="#FFFFFF" d="M50.246,27.989c0.044,1.197,1.189,2.19,2.339,2.19c0.912,0,1.836-0.524,2.216-1.388h0.871
	C55.243,30.064,53.97,31,52.663,31c-1.815,0-3.246-1.462-3.246-3.311s1.422-3.312,3.214-3.312c0.985,0,1.868,0.451,2.497,1.225
	c0.574,0.731,0.699,1.472,0.727,2.388H50.246z M55.011,27.211c-0.21-1.12-1.218-2.019-2.362-2.019c-1.164,0-2.194,0.846-2.402,2.019
	H55.011z"/>
<path fill="#FFFFFF" d="M57.24,22.293h0.831v8.551H57.24V22.293z"/>
<path fill="#FFFFFF" d="M59.673,22.293h0.834v1.456h-0.834V22.293z M59.673,24.511h0.834v6.333h-0.834V24.511z"/>
<path fill="#FFFFFF" d="M62.729,27.989c0.046,1.197,1.186,2.19,2.333,2.19c0.916,0,1.84-0.524,2.215-1.388h0.871
	C67.718,30.064,66.455,31,65.142,31c-1.812,0-3.247-1.462-3.247-3.311s1.421-3.312,3.226-3.312c0.972,0,1.866,0.451,2.488,1.225
	c0.57,0.731,0.698,1.472,0.718,2.388H62.729z M67.489,27.211c-0.212-1.12-1.219-2.019-2.363-2.019c-1.162,0-2.194,0.846-2.396,2.019
	H67.489z"/>
<path fill="#FFFFFF" d="M68.583,24.511h0.906l2.136,5.243l2.142-5.243h0.905l-2.617,6.333h-0.869L68.583,24.511z"/>
<path fill="#FFFFFF" d="M75.764,27.989c0.049,1.197,1.194,2.19,2.331,2.19c0.912,0,1.849-0.524,2.214-1.388h0.872
	C80.747,30.064,79.486,31,78.174,31c-1.809,0-3.244-1.462-3.244-3.311s1.423-3.312,3.22-3.312c0.974,0,1.873,0.451,2.488,1.225
	c0.584,0.731,0.71,1.472,0.726,2.388H75.764z M80.521,27.211c-0.213-1.12-1.214-2.019-2.358-2.019c-1.167,0-2.196,0.846-2.399,2.019
	H80.521z"/>
<path fill="#FFFFFF" d="M39.641,29.698c0,0.683-0.53,1.238-1.197,1.238c-0.661,0-1.201-0.556-1.201-1.238
	c0-0.675,0.54-1.231,1.201-1.231C39.11,28.467,39.641,29.023,39.641,29.698z"/>
<path fill="#FFFFFF" d="M31.706,16.049c-3.219,0-6.205-0.993-8.212-2.834c-1.501-1.384-2.235-3.27-2.235-5.202
	c0-1.909,0.764-3.818,2.235-5.198C25.353,1.088,28.631,0,31.706,0c3.426,0,6.15,0.886,8.232,2.823
	c1.486,1.386,2.205,3.271,2.205,5.189c0,1.857-0.76,3.839-2.205,5.202C38.005,15.072,34.944,16.049,31.706,16.049v-2.115
	c1.723,0,3.305-0.613,4.409-1.737c1.104-1.128,1.616-2.496,1.616-4.184c0-1.625-0.553-3.123-1.616-4.192
	c-1.089-1.101-2.718-1.73-4.409-1.73c-1.692,0-3.313,0.621-4.415,1.73c-1.048,1.069-1.604,2.579-1.604,4.192
	c0,1.604,0.562,3.109,1.604,4.184c1.102,1.117,2.723,1.737,4.415,1.737V16.049z M8.149,0.004c-1.724,0-3.688,0.343-5.341,1.098
	C1.267,1.807,0,2.939,0,4.829c0,1.688,1.053,2.681,1.021,2.65c0.453,0.426,1.176,1.147,3.06,1.562C4.92,9.23,6.717,9.515,8.516,9.72
	c1.775,0.19,3.532,0.372,4.247,0.555c0.567,0.149,1.513,0.352,1.513,1.439c0,1.097-1.001,1.424-1.179,1.495
	c-0.178,0.073-1.375,0.636-3.542,0.636c-1.597,0-3.514-0.49-4.215-0.739c-0.802-0.295-1.645-0.692-2.437-1.68
	c-0.195-0.245-0.495-0.919-0.495-1.582H0.437v5.61h2.177c0,0,0-0.607,0-0.756c0-0.076,0.114-0.441,0.47-0.266
	c0.452,0.216,1.787,0.751,3.19,1.049c1.137,0.245,1.876,0.416,3.293,0.416c2.322,0,3.568-0.383,4.425-0.634
	c0.826-0.243,1.829-0.673,2.634-1.33c0.441-0.354,1.4-1.281,1.4-2.95c0-1.611-0.831-2.611-1.136-2.909
	c-0.402-0.414-0.889-0.733-1.405-0.979c-0.452-0.213-1.157-0.477-1.731-0.615c-1.126-0.29-3.66-0.636-4.864-0.762
	C7.617,5.576,5.405,5.393,4.533,5.11C4.263,5.03,3.714,4.758,3.714,4.115c0-0.457,0.259-0.851,0.747-1.173
	C5.237,2.445,6.825,2.139,8.46,2.139c1.952-0.004,3.594,0.438,4.637,0.921c0.359,0.178,0.772,0.4,1.108,0.678
	c0.374,0.311,0.892,0.958,1.084,1.86h1.76V0.714H15.09v0.567c0,0.186-0.185,0.419-0.54,0.229C13.674,1.033,11.195,0.017,8.149,0.004
	z M44.29,0.907v1.777h1.52c1.101,0,1.182,0.631,1.182,1.172v8.34c0,0.506,0.029,1.183-0.676,1.183c-1.102,0-1.888,0-1.888,0v1.783
	h8.042v-1.783c0,0-0.857,0-1.959,0c-0.779,0-0.824-0.359-0.836-1.146V5.094l11.023,10.068h2.801L63.354,3.79
	c0.02-0.825,0.062-1.109,0.897-1.109c1.11,0,1.76,0,1.76,0V0.907h-8.187v1.773c0,0,0.7,0,1.803,0c0.819,0,0.967,0.333,0.972,1.109
	l0.1,5.949l-9.566-8.832H44.29z M73.655,13.379v1.783h9.543v-1.788c0,0-1.453,0-1.807,0l-0.473-0.029
	c-0.19-0.05-0.322-0.188-0.373-0.331l-0.039-0.392c0-0.261,0-2.702,0-2.814l0.072-0.267c0.129-0.155,5.065-5.928,5.292-6.179
	c0.477-0.562,0.735-0.682,1.373-0.682c0.593,0,1.756,0,1.756,0V0.907h-7.863v1.773c0,0,0.964,0,1.178,0
	c0.351,0,0.445,0.362,0.298,0.557L79.27,7.233l-0.097-0.01l-3.255-3.986c-0.233-0.298-0.041-0.557,0.212-0.557
	c0.236,0,1.159,0,1.159,0V0.907h-9.597v1.773c0,0,1.108,0,1.71,0c0.742,0,1.224,0.481,1.504,0.795
	c0.224,0.248,5.11,5.923,5.224,6.083c0.124,0.156,0.124,0.181,0.124,0.249v2.814l-0.032,0.392c-0.073,0.144-0.191,0.281-0.377,0.331
	l-0.48,0.034H73.655z"/>
</svg>
